<svg id="svg" version="1.1" xmlns="http://www.w3.org/2000/svg" xmlns:xlink="http://www.w3.org/1999/xlink" width="400" height="419.04761904761904" viewBox="0, 0, 400,419.04761904761904"><g id="svgg"><path id="path0" d="M0.000 209.400 L 0.000 418.800 200.000 418.800 L 400.000 418.800 400.000 209.400 L 400.000 0.000 200.000 0.000 L 0.000 0.000 0.000 209.400 M226.137 59.930 C 226.745 60.602,226.806 65.996,226.899 127.430 L 227.000 194.200 293.858 194.400 C 358.894 194.595,360.739 194.621,361.558 195.362 C 362.885 196.563,362.885 241.437,361.558 242.638 C 360.739 243.379,358.894 243.405,293.858 243.600 L 227.000 243.800 226.899 310.570 C 226.806 372.121,226.746 377.397,226.134 378.073 C 225.503 378.770,224.332 378.801,202.247 378.703 L 179.024 378.600 178.518 377.600 C 178.116 376.806,178.011 362.909,178.006 310.106 L 178.000 243.611 111.042 243.506 C 45.837 243.403,44.062 243.380,43.242 242.638 C 41.915 241.437,41.915 196.563,43.242 195.362 C 44.062 194.620,45.837 194.597,111.038 194.494 L 177.993 194.389 178.097 127.456 C 178.183 71.425,178.289 60.415,178.749 59.861 C 179.639 58.789,225.164 58.855,226.137 59.930 " stroke="none" fill="#fcfcfc" fill-rule="evenodd"></path><path id="path1" d="M179.221 61.900 C 178.940 62.912,178.804 84.711,178.802 128.838 C 178.800 191.724,178.771 194.302,178.069 194.938 C 177.394 195.548,172.183 195.600,111.242 195.600 C 66.446 195.600,44.898 195.733,44.374 196.014 C 43.162 196.663,43.162 241.337,44.374 241.986 C 44.898 242.267,66.468 242.400,111.312 242.400 C 174.903 242.400,177.502 242.428,178.138 243.131 C 178.748 243.806,178.800 248.969,178.802 309.231 C 178.804 353.310,178.940 375.089,179.221 376.100 L 179.638 377.600 202.429 377.600 L 225.220 377.600 225.610 376.574 C 225.858 375.922,226.000 351.494,226.000 309.636 C 226.000 246.290,226.028 243.698,226.731 243.062 C 227.406 242.452,232.613 242.400,293.431 242.395 C 329.714 242.392,359.805 242.281,360.300 242.148 L 361.200 241.907 361.200 219.000 L 361.200 196.093 360.300 195.852 C 359.805 195.719,329.683 195.608,293.362 195.605 C 229.897 195.600,227.298 195.571,226.662 194.869 C 226.052 194.194,226.000 189.000,226.000 128.295 C 226.000 86.482,225.858 62.078,225.610 61.426 L 225.220 60.400 202.429 60.400 L 179.638 60.400 179.221 61.900 " stroke="none" fill="#5c5c5c" fill-rule="evenodd"></path><path id="path2" d="" stroke="none" fill="#d4100ac" fill-rule="evenodd"></path><path id="path3" d="" stroke="none" fill="#d4100ac" fill-rule="evenodd"></path><path id="path4" d="" stroke="none" fill="#d4100ac" fill-rule="evenodd"></path></g></svg>