<svg id="svg" version="1.1" xmlns="http://www.w3.org/2000/svg" xmlns:xlink="http://www.w3.org/1999/xlink" width="400" height="347.47474747474746" viewBox="0, 0, 400,347.47474747474746"><g id="svgg"><path id="path0" d="M311.381 12.790 C 310.904 12.923,310.043 13.285,309.470 13.594 C 308.897 13.902,307.333 14.351,305.995 14.592 C 304.657 14.832,303.093 15.307,302.520 15.647 C 301.946 15.988,300.328 16.441,298.924 16.656 C 297.520 16.870,296.147 17.270,295.872 17.545 C 295.598 17.819,294.792 18.138,294.081 18.252 C 291.301 18.701,289.311 19.241,288.292 19.823 C 287.707 20.158,286.350 20.535,285.276 20.661 C 284.202 20.787,282.760 21.192,282.071 21.561 C 281.383 21.930,279.681 22.406,278.290 22.619 C 276.899 22.832,275.516 23.222,275.218 23.487 C 274.920 23.751,273.434 24.223,271.917 24.535 C 270.399 24.847,268.610 25.380,267.941 25.718 C 267.272 26.057,265.576 26.512,264.172 26.729 C 262.768 26.946,261.395 27.348,261.120 27.623 C 260.845 27.897,260.039 28.216,259.329 28.330 C 256.549 28.779,254.558 29.319,253.540 29.901 C 252.955 30.236,251.597 30.613,250.524 30.739 C 249.450 30.865,248.013 31.267,247.331 31.633 C 246.649 31.998,245.157 32.448,244.015 32.632 C 242.873 32.816,241.103 33.345,240.083 33.807 C 239.063 34.270,237.396 34.744,236.379 34.860 C 235.363 34.977,234.033 35.375,233.425 35.745 C 232.817 36.115,231.460 36.529,230.408 36.666 C 229.357 36.803,227.619 37.282,226.545 37.730 C 225.471 38.178,223.644 38.698,222.484 38.885 C 221.325 39.071,219.990 39.477,219.518 39.786 C 219.046 40.095,217.590 40.512,216.281 40.712 C 214.972 40.912,213.432 41.361,212.858 41.710 C 212.285 42.058,210.606 42.571,209.126 42.849 C 207.647 43.128,206.050 43.609,205.577 43.919 C 205.105 44.228,203.586 44.642,202.203 44.838 C 200.820 45.035,199.436 45.424,199.127 45.703 C 198.818 45.983,197.166 46.498,195.455 46.849 C 193.745 47.200,191.956 47.736,191.481 48.040 C 191.006 48.344,189.468 48.766,188.064 48.979 C 186.660 49.191,185.287 49.590,185.012 49.864 C 184.738 50.139,183.931 50.451,183.221 50.558 C 180.682 50.939,178.488 51.539,177.437 52.140 C 176.849 52.476,175.490 52.854,174.416 52.980 C 173.342 53.107,171.878 53.523,171.164 53.906 C 170.449 54.289,169.060 54.695,168.077 54.808 C 167.094 54.921,165.455 55.392,164.435 55.854 C 163.414 56.317,161.645 56.845,160.503 57.029 C 159.361 57.213,157.869 57.663,157.187 58.028 C 156.505 58.394,155.079 58.801,154.019 58.934 C 152.958 59.066,151.298 59.536,150.328 59.978 C 149.359 60.420,147.474 60.955,146.139 61.166 C 144.805 61.378,143.455 61.784,143.140 62.069 C 142.825 62.354,141.493 62.754,140.180 62.958 C 138.867 63.161,137.183 63.638,136.438 64.017 C 135.692 64.397,134.190 64.833,133.101 64.987 C 132.011 65.141,130.275 65.650,129.243 66.117 C 128.212 66.585,126.536 67.063,125.519 67.180 C 124.502 67.297,123.173 67.695,122.565 68.065 C 121.957 68.434,120.599 68.849,119.548 68.986 C 118.497 69.123,116.758 69.602,115.685 70.050 C 114.611 70.498,112.753 71.023,111.555 71.216 C 110.357 71.408,109.119 71.799,108.805 72.084 C 108.490 72.369,107.064 72.781,105.636 72.999 C 104.209 73.217,102.572 73.681,101.998 74.029 C 101.425 74.378,99.745 74.891,98.266 75.169 C 96.787 75.447,95.190 75.929,94.717 76.238 C 94.245 76.548,92.726 76.962,91.343 77.158 C 89.960 77.354,88.576 77.743,88.267 78.023 C 87.958 78.302,86.306 78.818,84.595 79.169 C 82.884 79.520,81.096 80.056,80.621 80.359 C 80.146 80.663,78.608 81.086,77.204 81.298 C 75.800 81.511,74.427 81.909,74.152 82.184 C 73.877 82.459,73.071 82.771,72.361 82.877 C 69.822 83.258,67.628 83.858,66.577 84.460 C 65.989 84.796,64.630 85.174,63.556 85.300 C 62.482 85.426,61.018 85.843,60.304 86.226 C 59.589 86.609,58.200 87.015,57.217 87.128 C 56.234 87.241,54.595 87.711,53.575 88.174 C 52.554 88.636,50.760 89.169,49.586 89.358 C 46.795 89.808,45.262 90.759,45.003 92.202 C 44.418 95.463,45.005 294.875,45.603 295.968 C 45.932 296.570,46.372 297.821,46.579 298.748 C 46.787 299.676,47.416 301.152,47.979 302.029 C 48.541 302.906,49.001 303.760,49.001 303.928 C 49.001 304.700,54.878 310.362,56.279 310.941 C 56.959 311.221,57.791 311.695,58.127 311.995 C 60.230 313.864,54.413 313.789,196.699 313.791 C 341.158 313.792,333.533 313.904,335.674 311.763 C 336.087 311.350,336.900 310.917,337.480 310.801 C 338.060 310.685,338.773 310.227,339.064 309.783 C 339.355 309.339,339.884 308.884,340.239 308.771 C 340.595 308.658,340.980 308.269,341.095 307.906 C 341.210 307.543,341.618 307.147,342.001 307.025 C 342.384 306.904,342.953 306.270,343.264 305.618 C 343.575 304.965,343.963 304.431,344.125 304.431 C 344.288 304.431,344.727 303.717,345.101 302.845 C 345.474 301.973,345.990 301.049,346.247 300.793 C 348.099 298.941,348.045 302.021,348.045 198.436 C 348.045 94.574,348.121 98.823,346.254 98.107 C 346.004 98.011,345.472 97.401,345.070 96.751 C 344.668 96.101,344.111 95.569,343.831 95.569 C 343.551 95.569,342.937 95.184,342.466 94.713 C 341.995 94.242,340.868 93.635,339.962 93.365 C 339.056 93.095,337.689 92.555,336.924 92.165 C 335.860 91.623,334.523 91.399,331.219 91.212 C 327.338 90.992,326.823 90.886,326.094 90.156 L 325.282 89.345 325.256 53.795 C 325.225 13.417,325.428 16.220,322.383 14.139 L 320.358 12.757 316.304 12.652 C 314.074 12.595,311.859 12.657,311.381 12.790 M311.648 62.435 C 311.558 89.328,311.537 90.078,310.881 90.558 C 310.054 91.163,116.812 91.315,115.227 90.712 C 113.990 90.242,114.112 89.751,115.639 89.062 C 116.355 88.739,117.268 88.191,117.666 87.845 C 118.071 87.493,119.601 87.001,121.141 86.727 C 122.654 86.458,124.599 85.922,125.462 85.536 C 126.325 85.151,128.121 84.661,129.453 84.448 C 130.784 84.236,132.135 83.825,132.455 83.536 C 132.774 83.247,134.184 82.854,135.588 82.662 C 136.992 82.471,138.512 82.074,138.965 81.781 C 139.419 81.489,141.191 80.962,142.903 80.611 C 144.616 80.260,146.385 79.732,146.835 79.437 C 147.285 79.142,148.773 78.727,150.143 78.515 C 151.512 78.302,153.125 77.850,153.727 77.510 C 154.329 77.170,155.947 76.715,157.322 76.500 C 158.696 76.284,160.338 75.815,160.971 75.457 C 161.603 75.099,163.264 74.627,164.663 74.407 C 166.061 74.188,167.567 73.771,168.009 73.482 C 168.451 73.192,169.808 72.795,171.025 72.599 C 172.241 72.403,173.941 71.920,174.802 71.527 C 175.664 71.133,177.596 70.605,179.096 70.354 C 180.597 70.103,182.089 69.658,182.413 69.365 C 182.736 69.072,183.932 68.730,185.071 68.604 C 186.210 68.479,188.158 67.945,189.401 67.419 C 190.643 66.892,192.488 66.358,193.500 66.231 C 194.513 66.105,195.920 65.707,196.628 65.347 C 197.336 64.987,199.083 64.518,200.510 64.304 C 201.938 64.090,203.366 63.679,203.684 63.392 C 204.002 63.104,205.336 62.704,206.649 62.502 C 207.961 62.301,209.818 61.782,210.773 61.350 C 211.729 60.918,213.389 60.457,214.463 60.324 C 215.537 60.192,216.975 59.783,217.658 59.417 C 218.342 59.051,219.944 58.585,221.219 58.381 C 222.493 58.177,224.131 57.707,224.858 57.336 C 225.586 56.965,227.304 56.487,228.677 56.274 C 230.049 56.061,231.665 55.603,232.267 55.257 C 232.870 54.910,234.222 54.516,235.274 54.381 C 236.325 54.246,238.063 53.769,239.137 53.321 C 240.211 52.873,242.017 52.357,243.151 52.174 C 244.286 51.991,245.831 51.530,246.586 51.149 C 247.341 50.768,248.897 50.350,250.043 50.219 C 251.190 50.088,252.598 49.701,253.171 49.360 C 253.745 49.018,255.308 48.547,256.646 48.313 C 257.984 48.079,259.668 47.592,260.389 47.230 C 261.109 46.868,262.822 46.398,264.194 46.185 C 265.567 45.972,267.051 45.561,267.493 45.272 C 267.935 44.982,269.495 44.519,270.960 44.243 C 272.425 43.966,274.210 43.441,274.927 43.075 C 275.644 42.709,277.141 42.309,278.254 42.184 C 279.367 42.060,281.075 41.588,282.049 41.136 C 283.023 40.683,284.196 40.306,284.656 40.297 C 285.804 40.276,288.403 39.534,289.661 38.868 C 290.235 38.565,291.642 38.204,292.789 38.067 C 293.936 37.930,295.343 37.537,295.917 37.194 C 296.490 36.851,298.045 36.386,299.372 36.161 C 300.699 35.935,302.483 35.433,303.337 35.044 C 304.191 34.655,305.917 34.191,307.173 34.013 C 308.428 33.836,309.615 33.530,309.810 33.333 C 310.052 33.090,310.415 33.267,310.953 33.891 L 311.741 34.805 311.648 62.435 M321.061 103.200 C 324.105 104.073,325.985 106.818,327.049 111.940 C 327.736 115.252,327.288 180.593,326.573 181.308 C 325.993 181.889,324.358 181.940,301.030 182.103 L 276.108 182.276 274.544 183.193 C 273.684 183.698,272.394 184.296,271.677 184.524 C 270.960 184.751,270.374 185.070,270.374 185.232 C 270.374 185.395,269.740 185.807,268.966 186.149 C 266.071 187.426,266.203 186.321,266.203 209.197 C 266.203 231.724,266.091 230.652,268.576 231.944 C 269.087 232.210,269.885 232.759,270.351 233.165 C 270.816 233.571,271.598 233.994,272.088 234.107 C 272.579 234.219,273.592 234.723,274.340 235.227 L 275.700 236.142 300.404 236.316 C 326.892 236.503,326.349 236.463,327.037 238.271 C 327.235 238.792,327.368 248.791,327.368 263.152 L 327.368 287.161 326.458 289.106 C 325.132 291.942,323.957 292.960,321.370 293.515 C 318.785 294.070,75.131 294.241,72.980 293.689 C 72.311 293.518,71.338 293.282,70.818 293.166 C 69.715 292.919,68.765 292.005,67.375 289.854 L 66.377 288.309 66.377 196.827 C 66.377 102.148,66.351 103.829,67.849 103.227 C 68.941 102.789,319.532 102.762,321.061 103.200 M325.714 201.929 C 327.386 202.393,327.414 202.530,327.293 209.726 L 327.194 215.630 326.151 216.156 C 324.537 216.969,290.671 217.126,289.126 216.326 C 287.598 215.536,287.402 214.654,287.402 208.546 C 287.402 202.783,287.497 202.414,289.140 201.810 C 290.139 201.443,324.364 201.554,325.714 201.929 " stroke="none" fill="#0ab556" fill-rule="evenodd"></path><path id="path1" d="M0.000 173.762 L 0.000 347.524 200.000 347.524 L 400.000 347.524 400.000 173.762 L 400.000 0.000 200.000 0.000 L 0.000 0.000 0.000 173.762 M322.687 11.972 C 323.350 12.249,323.892 12.643,323.892 12.848 C 323.892 13.053,324.283 13.399,324.761 13.617 C 325.239 13.834,325.630 14.199,325.630 14.426 C 325.630 14.654,326.021 15.575,326.499 16.474 L 327.368 18.108 327.368 52.973 C 327.368 80.447,327.460 87.913,327.802 88.188 C 328.268 88.563,331.642 89.369,336.403 90.243 C 338.093 90.553,339.655 91.052,340.052 91.408 C 340.434 91.751,341.402 92.206,342.203 92.418 C 343.035 92.639,343.741 93.062,343.850 93.405 C 343.955 93.735,344.504 94.211,345.071 94.462 C 345.637 94.712,346.194 95.213,346.309 95.573 C 346.423 95.934,346.806 96.320,347.160 96.433 C 347.513 96.545,347.908 97.061,348.036 97.580 C 348.165 98.099,348.611 98.887,349.027 99.333 L 349.783 100.143 349.871 198.369 L 349.960 296.594 349.109 298.341 C 348.641 299.301,348.161 300.584,348.042 301.192 C 347.924 301.800,347.592 302.493,347.305 302.731 C 347.018 302.969,346.537 303.645,346.236 304.232 C 345.422 305.820,342.010 309.953,341.492 309.977 C 341.329 309.985,340.894 310.373,340.527 310.840 C 340.160 311.306,339.512 311.792,339.087 311.919 C 338.662 312.046,338.080 312.444,337.793 312.804 C 337.507 313.163,336.523 313.596,335.609 313.767 C 334.694 313.937,333.646 314.348,333.280 314.679 C 331.960 315.873,327.239 315.912,194.382 315.819 L 61.917 315.725 60.871 314.952 C 60.295 314.526,59.157 314.071,58.341 313.941 C 57.463 313.800,56.551 313.372,56.104 312.890 C 55.690 312.443,55.120 312.076,54.838 312.076 C 53.710 312.076,48.280 306.690,47.765 305.060 C 47.625 304.619,47.227 304.057,46.880 303.813 C 46.533 303.568,46.146 302.824,46.022 302.159 C 45.897 301.494,45.517 300.597,45.178 300.165 C 43.770 298.376,43.792 300.075,43.790 193.349 C 43.788 95.479,43.820 90.046,44.397 89.334 C 44.825 88.805,45.596 88.502,46.998 88.312 C 48.093 88.163,49.271 87.787,49.614 87.476 C 49.958 87.165,51.407 86.730,52.834 86.510 C 54.262 86.289,56.056 85.753,56.820 85.317 C 57.628 84.857,59.138 84.428,60.426 84.291 C 61.744 84.152,63.012 83.786,63.554 83.390 C 64.084 83.002,65.550 82.571,67.054 82.361 C 68.478 82.162,69.885 81.792,70.182 81.539 C 70.977 80.860,71.862 80.589,74.309 80.274 C 75.518 80.119,76.791 79.734,77.139 79.419 C 77.496 79.096,79.094 78.633,80.812 78.355 C 82.485 78.084,84.104 77.640,84.411 77.367 C 85.127 76.732,87.393 76.112,89.006 76.110 C 89.753 76.109,90.638 75.812,91.189 75.379 C 91.802 74.896,93.018 74.529,94.783 74.293 C 96.328 74.087,97.823 73.667,98.334 73.295 C 98.820 72.942,100.391 72.465,101.825 72.234 C 103.258 72.004,104.822 71.531,105.300 71.182 C 105.801 70.816,107.247 70.413,108.715 70.229 C 110.170 70.047,111.528 69.670,111.882 69.350 C 112.222 69.042,113.785 68.548,115.356 68.251 C 116.926 67.955,118.710 67.418,119.321 67.057 C 119.933 66.697,121.367 66.292,122.510 66.158 C 123.653 66.025,125.230 65.574,126.017 65.156 C 126.819 64.730,128.469 64.293,129.780 64.158 C 131.327 64.000,132.352 63.699,132.816 63.267 C 133.457 62.669,136.787 61.859,138.604 61.859 C 139.018 61.859,139.357 61.740,139.357 61.595 C 139.357 61.003,140.916 60.431,143.383 60.118 C 144.855 59.931,146.228 59.556,146.524 59.260 C 147.094 58.690,147.416 58.597,150.805 58.017 C 152.037 57.806,153.416 57.342,153.869 56.985 C 154.394 56.572,155.574 56.250,157.115 56.098 C 158.640 55.948,159.838 55.623,160.349 55.220 C 160.801 54.865,162.297 54.406,163.726 54.185 C 165.136 53.967,166.916 53.433,167.680 52.998 C 168.488 52.538,169.998 52.108,171.287 51.971 C 172.616 51.831,173.867 51.468,174.414 51.065 C 174.986 50.643,176.361 50.262,178.106 50.042 C 179.635 49.849,180.942 49.526,181.010 49.324 C 181.199 48.759,182.730 48.268,185.363 47.928 C 186.836 47.737,187.907 47.410,188.151 47.076 C 188.387 46.754,189.535 46.382,190.973 46.162 C 192.306 45.958,194.185 45.416,195.149 44.958 C 196.113 44.501,197.945 44.000,199.222 43.847 C 200.626 43.678,201.812 43.324,202.224 42.951 C 202.643 42.572,203.949 42.190,205.622 41.958 C 207.136 41.748,208.726 41.305,209.209 40.957 C 209.687 40.614,211.251 40.150,212.685 39.926 C 214.281 39.676,215.574 39.264,216.020 38.862 C 216.513 38.418,217.616 38.108,219.428 37.905 C 221.055 37.723,222.353 37.382,222.734 37.037 C 223.079 36.725,224.646 36.228,226.216 35.932 C 227.786 35.636,229.570 35.098,230.182 34.738 C 230.793 34.377,232.228 33.978,233.370 33.852 C 234.513 33.725,235.954 33.317,236.572 32.945 C 237.191 32.573,238.703 32.126,239.932 31.952 C 241.161 31.778,242.875 31.259,243.741 30.798 C 244.716 30.280,246.241 29.868,247.742 29.718 C 249.265 29.565,250.235 29.300,250.347 29.007 C 250.563 28.445,252.708 27.807,254.390 27.804 C 255.061 27.803,256.374 27.395,257.308 26.898 C 258.278 26.381,260.058 25.848,261.456 25.654 C 262.874 25.457,264.252 25.041,264.729 24.666 C 265.254 24.253,266.434 23.930,267.976 23.778 C 269.563 23.622,270.694 23.306,271.259 22.862 C 271.750 22.475,273.295 21.978,274.849 21.707 C 276.350 21.445,278.107 20.928,278.754 20.558 C 279.401 20.188,280.928 19.780,282.147 19.651 C 283.479 19.510,284.727 19.149,285.274 18.744 C 285.829 18.335,287.183 17.947,288.733 17.753 C 290.134 17.578,291.541 17.206,291.861 16.928 C 292.580 16.300,294.341 15.766,296.586 15.495 C 297.528 15.381,298.570 15.042,298.901 14.742 C 299.233 14.442,300.573 14.033,301.880 13.834 C 303.188 13.634,305.039 13.110,305.995 12.668 C 308.408 11.552,308.393 11.554,315.302 11.509 C 319.986 11.478,321.774 11.590,322.687 11.972 M307.073 35.829 C 306.478 36.297,305.302 36.664,303.788 36.854 C 302.491 37.017,300.659 37.533,299.716 38.001 C 298.773 38.468,296.992 38.965,295.758 39.103 C 294.458 39.249,293.143 39.629,292.631 40.007 C 292.095 40.401,290.683 40.792,289.050 40.999 C 287.260 41.225,286.017 41.588,285.354 42.078 C 284.691 42.568,283.530 42.908,281.905 43.086 C 280.468 43.244,278.979 43.647,278.303 44.061 C 277.669 44.450,276.212 44.870,275.065 44.995 C 273.918 45.120,272.192 45.606,271.228 46.074 C 270.265 46.542,268.432 47.051,267.155 47.205 C 265.747 47.374,264.566 47.727,264.151 48.102 C 263.707 48.504,262.476 48.841,260.637 49.063 C 258.731 49.294,257.602 49.609,257.182 50.029 C 256.634 50.577,253.155 51.434,251.478 51.434 C 251.151 51.434,250.460 51.746,249.942 52.128 C 249.342 52.570,248.015 52.946,246.282 53.165 C 244.552 53.383,243.256 53.750,242.716 54.175 C 242.204 54.578,241.011 54.935,239.701 55.077 C 238.508 55.207,236.812 55.681,235.932 56.131 C 235.052 56.580,233.332 57.056,232.109 57.187 C 230.887 57.318,229.400 57.720,228.804 58.078 C 228.208 58.437,226.488 58.947,224.981 59.211 C 223.474 59.475,221.694 60.008,221.025 60.395 C 220.294 60.819,218.803 61.196,217.287 61.341 C 215.636 61.499,214.666 61.758,214.480 62.092 C 214.159 62.665,212.083 63.229,210.249 63.241 C 209.579 63.246,208.328 63.616,207.469 64.065 C 206.610 64.514,204.752 65.066,203.339 65.293 C 201.926 65.519,200.354 66.001,199.845 66.364 C 199.307 66.746,197.983 67.123,196.680 67.263 C 195.448 67.396,193.931 67.811,193.310 68.186 C 192.689 68.560,191.076 69.020,189.727 69.207 C 188.377 69.394,186.600 69.904,185.778 70.342 C 184.908 70.804,183.305 71.237,181.945 71.376 C 180.480 71.526,179.262 71.870,178.683 72.297 C 178.104 72.724,176.752 73.105,175.062 73.318 C 173.272 73.544,172.030 73.907,171.366 74.398 C 170.699 74.891,169.539 75.228,167.877 75.410 C 166.338 75.579,165.136 75.910,164.730 76.278 C 164.334 76.636,162.890 77.047,161.090 77.313 C 159.449 77.555,157.836 77.988,157.506 78.274 C 156.828 78.863,155.720 79.174,152.788 79.595 C 151.669 79.756,150.466 80.148,150.115 80.465 C 149.728 80.816,148.358 81.186,146.625 81.407 C 144.792 81.641,143.560 81.983,143.179 82.364 C 142.816 82.727,141.451 83.134,139.668 83.411 C 138.021 83.666,136.372 84.142,135.882 84.502 C 135.363 84.884,133.920 85.279,132.301 85.484 C 130.809 85.672,129.362 86.053,129.084 86.331 C 128.469 86.946,128.071 87.063,124.761 87.599 C 122.848 87.909,122.339 88.094,122.850 88.295 C 123.232 88.446,165.573 88.581,216.942 88.594 L 310.339 88.619 310.339 61.859 L 310.339 35.100 309.169 35.100 C 308.508 35.100,307.597 35.417,307.073 35.829 M69.235 105.493 L 68.462 106.034 68.462 195.896 C 68.462 289.009,68.476 289.985,69.832 290.436 C 70.130 290.535,70.723 291.026,71.151 291.529 L 71.928 292.441 195.912 292.441 C 320.798 292.441,322.294 292.427,322.669 291.247 C 322.782 290.891,323.238 290.508,323.683 290.396 C 324.338 290.232,324.533 289.886,324.713 288.576 C 325.032 286.247,324.977 239.701,324.654 239.193 C 324.447 238.867,319.016 238.746,301.273 238.672 C 279.854 238.582,278.093 238.530,277.224 237.961 C 276.709 237.623,275.566 237.247,274.685 237.127 C 273.804 237.006,272.669 236.562,272.163 236.141 C 271.657 235.719,270.655 235.183,269.937 234.949 C 269.218 234.715,268.480 234.241,268.295 233.896 C 268.110 233.551,267.603 233.179,267.167 233.070 C 266.731 232.960,265.867 232.210,265.247 231.403 L 264.118 229.934 264.118 209.050 C 264.118 189.867,264.167 188.095,264.716 187.306 C 265.543 186.116,266.617 185.256,267.293 185.242 C 267.605 185.235,268.105 184.858,268.402 184.404 C 268.735 183.896,269.441 183.484,270.232 183.336 C 270.940 183.203,271.770 182.792,272.076 182.424 C 272.418 182.012,273.437 181.607,274.718 181.376 C 275.864 181.168,277.116 180.870,277.498 180.713 C 277.880 180.556,278.506 180.296,278.888 180.136 C 279.270 179.975,289.748 179.765,302.172 179.670 L 324.761 179.496 324.761 143.969 L 324.761 108.441 323.963 107.652 C 323.524 107.218,322.977 106.593,322.747 106.262 C 322.468 105.861,321.515 105.544,319.896 105.313 C 315.336 104.663,70.169 104.839,69.235 105.493 M289.492 208.427 C 289.495 211.438,289.591 214.253,289.706 214.683 L 289.916 215.465 307.208 215.465 L 324.500 215.465 324.718 214.379 C 324.837 213.781,324.935 210.967,324.935 208.123 L 324.935 202.954 307.211 202.954 L 289.487 202.954 289.492 208.427 " stroke="none" fill="#fbfbfb" fill-rule="evenodd"></path><path id="path2" d="M313.206 12.073 C 314.305 12.142,316.103 12.142,317.202 12.073 C 318.301 12.004,317.402 11.947,315.204 11.947 C 313.006 11.947,312.107 12.004,313.206 12.073 M307.940 12.704 C 307.290 12.986,306.847 13.305,306.955 13.413 C 307.063 13.521,307.517 13.414,307.963 13.174 C 308.410 12.934,309.244 12.624,309.818 12.486 C 310.760 12.259,310.777 12.232,309.991 12.213 C 309.513 12.200,308.591 12.421,307.940 12.704 M321.197 12.480 C 322.481 12.907,324.927 14.878,325.291 15.779 C 325.531 16.373,325.590 16.395,325.608 15.899 C 325.620 15.565,325.333 15.017,324.970 14.683 C 324.607 14.348,323.920 13.722,323.443 13.291 C 322.965 12.861,322.050 12.430,321.409 12.335 C 320.324 12.174,320.309 12.184,321.197 12.480 M301.129 14.676 C 300.747 14.900,299.496 15.366,298.349 15.711 C 296.853 16.162,296.649 16.282,297.627 16.136 C 299.300 15.886,303.483 14.302,302.520 14.283 C 302.137 14.276,301.512 14.453,301.129 14.676 M293.877 16.858 C 293.329 17.144,292.391 17.532,291.792 17.720 C 290.775 18.041,290.794 18.050,292.094 17.862 C 292.858 17.752,293.640 17.540,293.831 17.392 C 294.023 17.243,294.648 16.957,295.222 16.755 C 295.977 16.490,296.072 16.382,295.569 16.363 C 295.187 16.349,294.425 16.572,293.877 16.858 M287.854 18.456 C 287.242 18.633,286.646 18.931,286.530 19.119 C 286.414 19.307,285.976 19.474,285.557 19.489 C 285.138 19.504,284.995 19.596,285.238 19.694 C 285.481 19.792,286.184 19.682,286.801 19.451 C 289.971 18.263,290.316 18.103,289.661 18.118 C 289.279 18.127,288.466 18.279,287.854 18.456 M326.004 52.997 L 325.981 88.097 326.764 89.076 C 327.538 90.043,330.451 90.748,333.275 90.651 C 334.678 90.603,332.408 90.100,330.559 90.050 C 328.953 90.006,327.799 89.536,327.118 88.649 C 326.792 88.225,326.686 80.158,326.659 53.692 C 326.640 34.770,326.489 18.975,326.325 18.593 C 326.156 18.198,326.016 33.094,326.004 52.997 M281.842 20.337 C 280.982 20.593,279.652 21.041,278.888 21.333 C 278.123 21.625,277.185 21.883,276.803 21.906 C 276.417 21.930,276.303 22.028,276.547 22.126 C 276.788 22.223,278.586 21.802,280.543 21.191 C 282.500 20.579,284.257 20.031,284.448 19.971 C 284.639 19.912,284.483 19.865,284.101 19.867 C 283.719 19.869,282.702 20.081,281.842 20.337 M274.196 22.485 C 273.910 22.589,273.206 22.875,272.632 23.121 C 272.059 23.368,271.355 23.662,271.069 23.776 C 270.782 23.889,270.938 23.913,271.416 23.829 C 272.765 23.591,276.194 22.262,275.413 22.280 C 275.030 22.289,274.483 22.381,274.196 22.485 M265.856 25.043 C 264.274 25.876,265.264 25.859,267.072 25.022 C 267.934 24.623,268.198 24.383,267.767 24.390 C 267.385 24.397,266.525 24.690,265.856 25.043 M262.381 26.064 C 261.693 26.285,261.656 26.343,262.207 26.343 C 262.589 26.343,263.293 26.217,263.771 26.064 C 264.459 25.844,264.495 25.786,263.944 25.786 C 263.562 25.786,262.858 25.911,262.381 26.064 M259.079 27.088 C 258.315 27.450,257.867 27.758,258.085 27.774 C 258.303 27.789,259.164 27.493,259.997 27.114 C 260.830 26.736,261.277 26.428,260.990 26.429 C 260.704 26.429,259.844 26.726,259.079 27.088 M252.302 29.018 C 251.251 29.481,250.591 29.865,250.837 29.873 C 251.082 29.881,251.864 29.634,252.574 29.324 C 253.285 29.015,254.335 28.640,254.909 28.491 C 255.862 28.244,255.877 28.219,255.083 28.199 C 254.605 28.187,253.354 28.556,252.302 29.018 M247.958 30.235 L 247.263 30.533 247.958 30.533 C 248.341 30.533,248.966 30.399,249.348 30.235 L 250.043 29.936 249.348 29.936 C 248.966 29.936,248.341 30.070,247.958 30.235 M244.831 31.258 C 244.066 31.620,243.619 31.929,243.837 31.944 C 244.055 31.960,244.915 31.663,245.748 31.285 C 246.582 30.907,247.029 30.598,246.742 30.599 C 246.455 30.600,245.595 30.896,244.831 31.258 M238.450 33.022 C 237.617 33.400,236.679 33.722,236.365 33.737 C 235.993 33.755,235.949 33.827,236.237 33.942 C 236.480 34.040,237.183 33.931,237.801 33.700 C 241.054 32.480,241.329 32.350,240.660 32.343 C 240.278 32.338,239.284 32.644,238.450 33.022 M231.652 35.025 C 230.137 35.544,229.152 36.018,229.461 36.078 C 229.771 36.137,230.384 35.990,230.825 35.750 C 231.265 35.511,232.563 35.043,233.710 34.711 C 234.857 34.379,235.482 34.101,235.100 34.094 C 234.718 34.087,233.166 34.506,231.652 35.025 M308.775 34.408 C 308.235 34.643,308.363 34.696,309.349 34.644 C 310.047 34.608,310.546 34.461,310.458 34.318 C 310.256 33.989,309.667 34.021,308.775 34.408 M304.827 35.455 C 303.994 35.833,303.056 36.155,302.742 36.170 C 302.370 36.188,302.326 36.259,302.614 36.375 C 302.857 36.473,303.561 36.364,304.178 36.132 C 307.431 34.913,307.706 34.783,307.037 34.775 C 306.655 34.771,305.661 35.077,304.827 35.455 M310.852 61.859 C 310.852 76.672,310.895 82.732,310.947 75.326 C 310.999 67.919,310.999 55.799,310.947 48.393 C 310.895 40.986,310.852 47.046,310.852 61.859 M224.327 37.218 C 222.826 37.979,223.483 37.899,225.717 37.049 C 226.509 36.748,226.808 36.519,226.412 36.517 C 226.030 36.515,225.091 36.831,224.327 37.218 M298.368 37.251 C 297.996 37.467,296.666 37.917,295.414 38.252 C 294.161 38.586,293.348 38.874,293.608 38.891 C 294.359 38.941,298.247 37.867,299.209 37.343 C 299.703 37.074,299.859 36.864,299.566 36.862 C 299.279 36.860,298.740 37.035,298.368 37.251 M219.288 38.479 C 219.001 38.587,218.393 38.813,217.936 38.982 C 216.261 39.603,217.449 39.552,219.294 38.924 C 220.342 38.568,220.886 38.278,220.504 38.279 C 220.122 38.281,219.574 38.371,219.288 38.479 M290.530 39.500 C 289.861 39.802,288.844 40.184,288.271 40.348 C 287.432 40.589,287.530 40.611,288.775 40.465 C 289.626 40.364,290.515 40.122,290.751 39.926 C 290.987 39.730,291.621 39.437,292.158 39.276 C 292.852 39.068,292.934 38.978,292.441 38.966 C 292.059 38.957,291.199 39.197,290.530 39.500 M215.291 39.965 L 214.596 40.264 215.291 40.283 C 215.673 40.294,216.221 40.151,216.507 39.965 C 217.198 39.519,216.330 39.519,215.291 39.965 M210.753 41.171 C 209.889 41.824,210.505 41.832,211.642 41.182 C 212.199 40.863,212.316 40.681,211.969 40.673 C 211.671 40.666,211.124 40.890,210.753 41.171 M283.976 41.363 C 283.143 41.741,282.204 42.063,281.891 42.078 C 281.519 42.096,281.474 42.167,281.762 42.283 C 282.005 42.381,282.709 42.272,283.326 42.040 C 286.580 40.821,286.855 40.691,286.186 40.683 C 285.804 40.679,284.809 40.985,283.976 41.363 M204.535 42.812 C 204.162 43.029,202.989 43.493,201.928 43.843 C 200.868 44.194,200.474 44.414,201.052 44.332 C 202.482 44.131,206.779 42.450,205.908 42.433 C 205.526 42.425,204.908 42.596,204.535 42.812 M279.062 42.745 C 278.374 42.966,278.338 43.024,278.888 43.024 C 279.270 43.024,279.974 42.898,280.452 42.745 C 281.140 42.525,281.176 42.467,280.626 42.467 C 280.243 42.467,279.540 42.592,279.062 42.745 M275.586 43.805 C 274.726 44.157,274.279 44.454,274.593 44.464 C 274.906 44.475,275.845 44.174,276.678 43.796 C 278.578 42.934,277.697 42.941,275.586 43.805 M197.133 45.001 C 196.512 45.271,196.003 45.595,196.003 45.720 C 196.003 45.845,196.277 45.831,196.612 45.690 C 196.946 45.548,197.767 45.225,198.436 44.973 C 199.196 44.686,199.392 44.513,198.957 44.512 C 198.575 44.511,197.754 44.731,197.133 45.001 M269.380 45.533 C 268.547 45.911,267.608 46.233,267.295 46.248 C 266.923 46.266,266.878 46.337,267.166 46.453 C 267.409 46.551,268.113 46.442,268.730 46.211 C 271.984 44.991,272.259 44.861,271.590 44.853 C 271.208 44.849,270.213 45.155,269.380 45.533 M190.269 46.996 C 189.887 47.220,188.636 47.673,187.489 48.003 C 186.342 48.334,185.639 48.613,185.925 48.624 C 186.661 48.654,189.693 47.804,191.138 47.164 C 191.993 46.785,192.148 46.620,191.659 46.607 C 191.277 46.597,190.652 46.772,190.269 46.996 M264.292 46.916 C 263.406 47.296,264.320 47.296,265.508 46.916 C 266.207 46.692,266.241 46.635,265.682 46.627 C 265.300 46.622,264.674 46.751,264.292 46.916 M260.990 47.975 C 260.101 48.340,259.726 48.620,260.122 48.625 C 260.504 48.631,261.442 48.339,262.207 47.977 C 263.988 47.134,263.049 47.133,260.990 47.975 M183.017 49.177 C 182.469 49.463,181.531 49.852,180.932 50.040 C 179.915 50.361,179.934 50.370,181.234 50.182 C 181.998 50.072,182.780 49.860,182.971 49.711 C 183.162 49.563,183.788 49.277,184.361 49.075 C 185.116 48.809,185.212 48.701,184.709 48.683 C 184.327 48.669,183.565 48.892,183.017 49.177 M254.909 49.696 C 254.144 50.065,253.753 50.367,254.040 50.367 C 254.327 50.367,255.187 50.065,255.951 49.696 C 256.716 49.327,257.107 49.024,256.820 49.024 C 256.533 49.024,255.673 49.327,254.909 49.696 M176.994 50.775 C 176.382 50.952,175.786 51.251,175.670 51.439 C 175.554 51.627,175.116 51.793,174.697 51.808 C 174.278 51.824,174.135 51.916,174.377 52.014 C 174.620 52.111,175.324 52.002,175.941 51.771 C 179.111 50.583,179.456 50.422,178.801 50.438 C 178.419 50.446,177.605 50.598,176.994 50.775 M247.263 51.801 C 245.734 52.343,244.718 52.794,245.005 52.805 C 245.291 52.815,246.855 52.363,248.480 51.800 C 250.104 51.237,251.121 50.786,250.738 50.796 C 250.356 50.807,248.792 51.259,247.263 51.801 M170.982 52.641 C 168.657 53.310,166.818 54.183,167.698 54.200 C 168.089 54.208,168.559 54.067,168.740 53.887 C 168.922 53.707,170.165 53.249,171.503 52.869 C 172.841 52.489,173.623 52.181,173.241 52.184 C 172.858 52.188,171.842 52.393,170.982 52.641 M240.762 53.666 C 240.245 53.936,239.541 54.230,239.198 54.319 C 238.658 54.459,238.668 54.484,239.270 54.509 C 239.652 54.525,240.591 54.236,241.355 53.866 C 242.120 53.497,242.511 53.190,242.224 53.185 C 241.937 53.180,241.280 53.396,240.762 53.666 M162.343 55.264 C 161.509 55.642,160.571 55.964,160.257 55.979 C 159.886 55.997,159.841 56.068,160.129 56.184 C 160.372 56.282,161.076 56.172,161.693 55.941 C 164.947 54.722,165.221 54.591,164.553 54.584 C 164.170 54.580,163.176 54.886,162.343 55.264 M232.667 55.971 C 231.138 56.513,230.122 56.963,230.408 56.971 C 231.059 56.990,233.662 56.190,235.274 55.475 C 237.229 54.608,235.687 54.902,232.667 55.971 M155.363 57.276 C 153.941 57.789,153.034 58.258,153.347 58.318 C 153.660 58.379,154.277 58.232,154.717 57.992 C 155.157 57.752,156.455 57.284,157.602 56.952 C 158.749 56.620,159.296 56.347,158.818 56.346 C 158.341 56.345,156.786 56.763,155.363 57.276 M226.635 57.697 C 225.801 58.075,224.863 58.396,224.549 58.411 C 224.177 58.429,224.133 58.501,224.421 58.617 C 224.664 58.714,225.368 58.605,225.985 58.374 C 229.239 57.154,229.513 57.024,228.844 57.017 C 228.462 57.013,227.468 57.319,226.635 57.697 M148.219 59.427 C 146.385 60.312,147.187 60.319,149.137 59.434 C 149.970 59.056,150.417 58.749,150.130 58.751 C 149.844 58.753,148.983 59.057,148.219 59.427 M219.635 59.626 C 219.157 59.889,217.933 60.278,216.914 60.491 C 215.896 60.703,215.144 60.960,215.245 61.060 C 215.345 61.160,216.256 61.044,217.269 60.801 C 219.415 60.286,222.233 59.081,221.199 59.121 C 220.817 59.135,220.113 59.362,219.635 59.626 M142.832 60.794 C 142.546 60.961,141.458 61.375,140.416 61.715 C 139.373 62.055,138.673 62.384,138.860 62.447 C 139.047 62.509,140.526 62.093,142.146 61.521 C 143.766 60.950,144.700 60.485,144.222 60.487 C 143.745 60.489,143.119 60.627,142.832 60.794 M212.163 61.840 C 211.399 62.202,210.952 62.511,211.170 62.526 C 211.388 62.542,212.248 62.245,213.081 61.867 C 213.914 61.489,214.361 61.180,214.075 61.181 C 213.788 61.182,212.928 61.478,212.163 61.840 M133.970 63.616 C 133.206 63.978,132.815 64.272,133.102 64.271 C 133.388 64.270,134.248 63.966,135.013 63.597 C 135.778 63.228,136.169 62.933,135.882 62.942 C 135.595 62.951,134.735 63.254,133.970 63.616 M205.564 63.591 C 205.448 63.779,204.852 64.078,204.240 64.255 C 203.561 64.451,203.398 64.583,203.823 64.594 C 204.205 64.603,205.065 64.311,205.734 63.944 C 206.454 63.550,206.711 63.273,206.363 63.264 C 206.040 63.256,205.680 63.403,205.564 63.591 M127.715 65.334 C 126.950 65.704,126.012 66.024,125.630 66.045 C 125.241 66.067,125.129 66.163,125.377 66.262 C 125.620 66.360,126.323 66.251,126.940 66.019 C 130.181 64.805,130.467 64.670,129.800 64.666 C 129.418 64.665,128.480 64.965,127.715 65.334 M198.262 65.653 C 197.498 65.993,196.247 66.402,195.482 66.562 C 194.550 66.757,194.327 66.894,194.806 66.978 C 195.199 67.046,196.763 66.636,198.282 66.065 C 199.800 65.494,200.730 65.029,200.348 65.031 C 199.965 65.034,199.027 65.314,198.262 65.653 M120.791 67.345 C 119.277 67.864,118.291 68.337,118.601 68.397 C 118.911 68.457,119.524 68.310,119.964 68.070 C 120.404 67.830,121.703 67.363,122.850 67.030 C 123.997 66.698,124.622 66.421,124.240 66.414 C 123.858 66.407,122.306 66.826,120.791 67.345 M191.048 67.625 C 190.935 67.739,190.244 68.057,189.513 68.334 L 188.184 68.836 189.557 68.620 C 191.002 68.393,192.817 67.420,191.795 67.420 C 191.497 67.420,191.161 67.512,191.048 67.625 M113.467 69.505 C 111.878 70.272,112.447 70.454,114.109 69.710 C 114.711 69.440,115.439 69.140,115.725 69.042 C 116.084 68.920,116.029 68.860,115.552 68.849 C 115.169 68.840,114.231 69.135,113.467 69.505 M183.666 69.871 C 182.902 70.233,182.511 70.529,182.798 70.529 C 183.084 70.529,183.944 70.233,184.709 69.871 C 185.474 69.510,185.864 69.214,185.578 69.214 C 185.291 69.214,184.431 69.510,183.666 69.871 M108.427 70.798 C 108.141 70.906,107.533 71.133,107.076 71.302 C 106.619 71.471,106.319 71.683,106.409 71.772 C 106.498 71.862,107.419 71.634,108.455 71.267 C 109.491 70.899,110.026 70.599,109.644 70.600 C 109.262 70.601,108.714 70.691,108.427 70.798 M180.017 70.895 C 179.329 71.115,179.293 71.173,179.844 71.173 C 180.226 71.173,180.930 71.048,181.407 70.895 C 182.095 70.675,182.132 70.617,181.581 70.617 C 181.199 70.617,180.495 70.742,180.017 70.895 M175.326 72.329 C 173.609 73.000,173.604 73.005,174.961 72.791 C 175.715 72.672,176.649 72.353,177.036 72.082 C 177.971 71.428,177.436 71.505,175.326 72.329 M104.431 72.285 L 103.736 72.584 104.431 72.603 C 104.813 72.613,105.361 72.470,105.647 72.285 C 106.338 71.839,105.470 71.839,104.431 72.285 M99.893 73.490 C 99.029 74.144,99.645 74.151,100.782 73.501 C 101.339 73.183,101.456 73.000,101.109 72.992 C 100.811 72.986,100.264 73.210,99.893 73.490 M170.197 73.533 C 170.084 73.647,169.393 73.952,168.662 74.213 C 167.906 74.483,167.633 74.690,168.028 74.693 C 168.874 74.701,171.729 73.395,170.953 73.356 C 170.650 73.340,170.310 73.420,170.197 73.533 M93.663 75.138 C 93.284 75.358,92.111 75.828,91.057 76.183 C 90.003 76.537,89.613 76.754,90.192 76.665 C 91.658 76.440,95.899 74.769,95.048 74.752 C 94.666 74.745,94.042 74.919,93.663 75.138 M164.379 75.222 C 162.176 75.845,160.237 76.740,161.013 76.774 C 161.360 76.790,161.986 76.616,162.403 76.389 C 162.821 76.161,164.101 75.703,165.248 75.371 C 166.394 75.039,167.020 74.770,166.638 74.773 C 166.255 74.777,165.239 74.979,164.379 75.222 M86.273 77.321 C 85.652 77.591,85.143 77.914,85.143 78.040 C 85.143 78.165,85.417 78.151,85.752 78.009 C 86.086 77.868,86.907 77.545,87.576 77.292 C 88.336 77.006,88.532 76.833,88.097 76.832 C 87.715 76.831,86.894 77.051,86.273 77.321 M155.517 77.845 C 154.752 78.215,153.814 78.534,153.432 78.556 C 153.043 78.578,152.931 78.673,153.179 78.773 C 153.422 78.871,154.125 78.762,154.742 78.530 C 157.982 77.316,158.269 77.181,157.602 77.177 C 157.220 77.175,156.281 77.476,155.517 77.845 M78.888 79.604 C 77.307 80.437,78.296 80.420,80.104 79.583 C 80.966 79.184,81.230 78.944,80.799 78.951 C 80.417 78.958,79.557 79.251,78.888 79.604 M148.219 79.930 C 146.690 80.474,145.673 80.928,145.960 80.938 C 146.247 80.949,147.811 80.500,149.435 79.940 C 151.060 79.380,152.076 78.926,151.694 78.932 C 151.312 78.938,149.748 79.387,148.219 79.930 M75.413 80.626 C 74.725 80.846,74.689 80.904,75.239 80.904 C 75.621 80.904,76.325 80.779,76.803 80.626 C 77.491 80.405,77.527 80.347,76.977 80.347 C 76.594 80.347,75.891 80.473,75.413 80.626 M71.937 81.668 C 70.335 82.546,71.100 82.551,73.029 81.676 C 73.922 81.271,74.259 80.991,73.849 80.995 C 73.467 80.999,72.606 81.302,71.937 81.668 M140.921 82.016 C 140.156 82.385,139.765 82.687,140.052 82.687 C 140.339 82.687,141.199 82.385,141.964 82.016 C 142.728 81.646,143.119 81.344,142.832 81.344 C 142.546 81.344,141.685 81.646,140.921 82.016 M65.731 83.413 C 64.898 83.791,63.959 84.113,63.646 84.128 C 63.274 84.146,63.229 84.217,63.517 84.333 C 63.760 84.431,64.464 84.322,65.081 84.091 C 68.335 82.871,68.610 82.741,67.941 82.734 C 67.559 82.729,66.564 83.035,65.731 83.413 M135.534 83.406 C 134.871 83.835,135.585 83.835,136.924 83.406 L 137.793 83.127 136.924 83.098 C 136.447 83.082,135.821 83.220,135.534 83.406 M132.580 84.448 C 131.625 84.801,131.093 85.102,131.399 85.116 C 132.089 85.150,134.203 84.458,134.648 84.053 C 135.138 83.608,134.558 83.719,132.580 84.448 M60.122 84.961 C 58.127 85.535,55.967 86.502,56.640 86.520 C 56.923 86.527,57.939 86.232,58.899 85.864 C 59.858 85.496,61.190 85.043,61.859 84.857 C 62.528 84.671,62.763 84.517,62.381 84.515 C 61.998 84.512,60.982 84.713,60.122 84.961 M126.774 85.986 C 126.257 86.256,125.553 86.550,125.210 86.639 C 124.670 86.779,124.680 86.804,125.282 86.829 C 125.665 86.845,126.603 86.555,127.368 86.186 C 128.132 85.817,128.523 85.510,128.236 85.505 C 127.950 85.500,127.292 85.716,126.774 85.986 M51.482 87.584 C 50.649 87.962,49.711 88.283,49.397 88.299 C 49.025 88.316,48.981 88.388,49.269 88.504 C 49.512 88.601,50.216 88.492,50.833 88.261 C 54.087 87.042,54.361 86.911,53.692 86.904 C 53.310 86.900,52.316 87.206,51.482 87.584 M120.717 87.635 C 120.309 87.833,119.810 88.357,119.608 88.801 C 119.405 89.245,118.879 89.677,118.438 89.761 C 117.998 89.846,161.021 89.897,214.046 89.875 C 299.425 89.839,310.471 89.775,310.597 89.314 C 310.703 88.924,310.661 88.903,310.430 89.230 C 309.950 89.908,122.332 89.690,121.513 89.010 C 120.708 88.342,120.793 88.035,121.894 87.632 C 122.617 87.368,122.680 87.282,122.155 87.279 C 121.772 87.277,121.126 87.437,120.717 87.635 M45.874 89.227 C 45.181 89.574,44.621 90.133,44.571 90.530 C 44.493 91.148,44.520 91.141,44.813 90.461 C 45.029 89.961,45.658 89.565,46.637 89.313 C 48.760 88.767,48.939 88.677,47.958 88.647 C 47.480 88.632,46.543 88.893,45.874 89.227 M338.232 91.746 C 339.898 92.639,340.358 92.639,339.010 91.746 C 338.436 91.367,337.735 91.055,337.451 91.054 C 337.167 91.052,337.518 91.364,338.232 91.746 M44.307 192.528 C 44.307 248.054,44.347 270.769,44.396 243.006 C 44.445 215.243,44.445 169.813,44.396 142.050 C 44.347 114.288,44.307 137.003,44.307 192.528 M341.442 93.115 C 344.767 94.840,346.781 96.953,348.150 100.153 L 349.088 102.346 349.177 197.897 C 349.255 281.315,349.201 293.693,348.753 295.377 C 348.079 297.904,347.810 299.172,348.084 298.523 C 348.204 298.236,348.558 297.454,348.869 296.785 C 349.388 295.671,349.435 287.466,349.435 198.610 L 349.435 101.651 348.653 100.274 C 348.223 99.517,347.871 98.735,347.871 98.536 C 347.871 97.450,342.682 92.956,341.016 92.600 C 340.245 92.435,340.330 92.538,341.442 93.115 M68.636 103.816 C 67.885 104.004,67.433 104.524,67.425 105.211 C 67.422 105.463,67.792 105.319,68.316 104.863 L 69.213 104.083 194.207 103.909 L 319.201 103.734 194.266 103.689 C 125.552 103.663,69.018 103.721,68.636 103.816 M320.370 104.445 C 321.013 104.724,321.738 104.952,321.980 104.952 C 322.511 104.952,324.935 107.566,324.935 108.139 C 324.935 108.361,325.025 108.454,325.134 108.344 C 326.073 107.405,321.789 103.875,319.769 103.923 C 319.456 103.931,319.727 104.165,320.370 104.445 M67.243 196.525 C 67.243 246.412,67.284 266.768,67.333 241.762 C 67.382 216.755,67.382 175.938,67.333 151.058 C 67.284 126.178,67.243 146.638,67.243 196.525 M325.554 144.307 C 325.641 175.624,325.592 179.658,325.120 180.130 C 324.497 180.753,324.442 181.060,324.953 181.060 C 326.287 181.060,327.036 115.929,325.766 110.373 C 325.580 109.557,325.495 123.088,325.554 144.307 M277.388 181.355 C 276.643 181.564,311.958 181.524,320.591 181.305 C 322.693 181.252,314.014 181.191,301.303 181.169 C 288.593 181.147,277.831 181.231,277.388 181.355 M273.914 182.121 C 273.039 182.472,271.880 183.493,272.357 183.493 C 272.519 183.493,273.010 183.242,273.448 182.935 C 273.886 182.628,274.663 182.251,275.176 182.096 C 275.859 181.890,275.922 181.813,275.413 181.807 C 275.030 181.803,274.356 181.944,273.914 182.121 M268.671 184.942 C 267.484 185.739,266.130 186.846,265.663 187.401 L 264.813 188.411 264.813 209.103 L 264.813 229.795 265.921 231.058 C 266.992 232.278,270.711 234.926,271.354 234.926 C 271.528 234.926,272.055 235.229,272.526 235.600 C 272.997 235.970,273.839 236.379,274.398 236.508 C 274.956 236.637,274.191 236.088,272.698 235.288 C 269.123 233.373,267.657 232.396,266.292 231.022 L 265.164 229.887 265.175 209.209 L 265.186 188.532 265.955 187.596 C 266.663 186.734,270.256 184.210,271.435 183.746 C 271.844 183.584,271.835 183.542,271.384 183.520 C 271.079 183.505,269.858 184.145,268.671 184.942 M325.022 202.634 C 325.564 202.950,325.634 203.678,325.665 209.314 C 325.685 213.024,325.814 215.279,325.977 214.770 C 326.130 214.292,326.271 211.494,326.290 208.553 C 326.326 203.068,326.134 202.282,324.761 202.281 C 324.570 202.280,324.687 202.439,325.022 202.634 M288.582 209.642 C 288.633 213.723,288.769 215.225,289.120 215.550 C 289.502 215.905,289.535 215.891,289.297 215.476 C 289.137 215.196,288.895 212.537,288.760 209.568 L 288.515 204.170 288.582 209.642 M298.460 216.073 C 303.300 216.127,311.119 216.127,315.837 216.073 C 320.554 216.018,316.594 215.973,307.037 215.974 C 297.480 215.974,293.621 216.018,298.460 216.073 M278.632 237.512 C 279.165 237.696,289.551 237.925,302.242 238.034 C 317.618 238.165,325.020 238.347,325.272 238.599 C 325.530 238.858,325.615 246.599,325.550 264.031 C 325.487 280.853,325.570 288.899,325.804 288.507 C 326.316 287.647,326.473 240.293,325.968 239.074 C 325.256 237.354,325.504 237.372,300.874 237.276 C 286.048 237.218,278.024 237.303,278.632 237.512 M67.420 287.712 C 67.420 288.798,70.257 292.626,71.047 292.606 C 71.250 292.601,70.923 292.171,70.319 291.650 C 69.716 291.130,68.817 289.923,68.321 288.969 C 67.825 288.015,67.420 287.449,67.420 287.712 M323.719 291.191 C 322.498 292.573,322.461 292.661,323.415 291.908 C 324.448 291.094,325.458 289.853,325.220 289.692 C 325.159 289.651,324.483 290.325,323.719 291.191 M135.447 293.223 C 169.136 293.272,224.262 293.272,257.950 293.223 C 291.638 293.174,264.075 293.134,196.699 293.134 C 129.322 293.134,101.759 293.174,135.447 293.223 M44.521 295.841 C 44.478 296.939,45.421 299.438,45.753 299.106 C 45.874 298.986,45.788 298.666,45.563 298.395 C 45.338 298.124,45.021 297.221,44.857 296.388 C 44.636 295.266,44.549 295.124,44.521 295.841 M347.355 300.256 C 347.202 300.731,346.686 301.712,346.207 302.435 C 345.729 303.158,345.408 303.821,345.494 303.907 C 345.766 304.179,347.946 300.311,347.786 299.841 C 347.699 299.585,347.513 299.763,347.355 300.256 M46.221 300.937 C 46.221 301.213,46.639 302.074,47.150 302.848 C 47.661 303.623,48.450 304.824,48.904 305.517 C 50.681 308.226,57.213 313.506,58.714 313.445 C 59.073 313.430,59.011 313.325,58.528 313.129 C 55.461 311.889,49.818 306.924,48.236 304.073 C 47.797 303.281,47.164 302.139,46.829 301.534 C 46.495 300.929,46.222 300.661,46.221 300.937 M344.350 305.452 C 343.539 306.492,341.839 308.236,339.606 310.317 C 338.978 310.903,338.581 311.381,338.725 311.381 C 339.017 311.381,339.594 310.856,342.228 308.192 C 345.277 305.108,345.559 304.783,345.362 304.586 C 345.258 304.482,344.802 304.871,344.350 305.452 M337.270 311.732 C 337.151 311.925,336.477 312.387,335.772 312.759 C 335.068 313.131,334.718 313.443,334.994 313.451 C 335.452 313.465,338.141 311.805,338.141 311.508 C 338.141 311.231,337.473 311.403,337.270 311.732 M61.685 314.424 C 63.307 315.367,330.090 315.367,331.712 314.424 C 332.986 313.683,332.596 313.659,330.353 314.339 C 327.765 315.124,65.696 315.117,63.107 314.332 C 60.863 313.651,60.406 313.681,61.685 314.424 " stroke="none" fill="#a0d8af" fill-rule="evenodd"></path><path id="path3" d="M309.818 12.486 C 309.244 12.624,308.433 12.921,308.016 13.146 C 307.599 13.370,306.191 13.779,304.888 14.054 C 303.585 14.329,301.932 14.801,301.215 15.102 C 300.497 15.403,298.855 15.893,297.566 16.192 C 296.276 16.490,294.752 16.951,294.179 17.217 C 293.606 17.483,292.120 17.925,290.877 18.199 C 289.635 18.473,287.915 18.946,287.055 19.250 C 285.128 19.930,280.147 21.354,276.523 22.260 C 275.031 22.633,273.387 23.158,272.869 23.425 C 272.352 23.693,271.148 24.028,270.195 24.170 C 269.242 24.313,267.832 24.698,267.062 25.027 C 266.292 25.357,264.513 25.887,263.107 26.207 C 261.702 26.527,260.141 27.001,259.638 27.261 C 259.134 27.522,257.708 27.929,256.468 28.166 C 255.228 28.404,253.814 28.798,253.325 29.043 C 252.836 29.288,251.047 29.824,249.348 30.235 C 247.650 30.645,245.861 31.181,245.372 31.426 C 244.883 31.671,243.469 32.066,242.229 32.303 C 240.989 32.540,239.577 32.940,239.093 33.191 C 238.608 33.441,236.842 33.971,235.170 34.369 C 233.497 34.766,231.703 35.305,231.182 35.566 C 230.661 35.828,229.220 36.236,227.980 36.473 C 226.740 36.711,225.333 37.105,224.852 37.350 C 224.372 37.595,223.160 37.969,222.159 38.181 C 221.158 38.393,219.438 38.895,218.336 39.298 C 217.235 39.701,215.395 40.239,214.248 40.494 C 213.102 40.749,211.303 41.277,210.252 41.666 C 209.201 42.056,208.007 42.380,207.600 42.387 C 207.193 42.393,205.790 42.801,204.482 43.293 C 203.174 43.785,201.243 44.347,200.190 44.542 C 199.138 44.736,197.851 45.115,197.331 45.384 C 196.811 45.653,195.557 46.040,194.544 46.243 C 193.531 46.447,191.920 46.910,190.964 47.272 C 190.009 47.635,187.913 48.251,186.307 48.641 C 184.701 49.032,183.215 49.493,183.005 49.667 C 182.796 49.840,181.614 50.165,180.380 50.389 C 179.145 50.612,177.734 51.003,177.244 51.256 C 176.753 51.510,174.968 52.046,173.278 52.448 C 171.587 52.849,169.714 53.400,169.116 53.672 C 168.517 53.944,167.089 54.351,165.943 54.577 C 164.796 54.803,163.463 55.191,162.980 55.438 C 162.498 55.686,160.735 56.213,159.062 56.610 C 157.389 57.007,155.595 57.549,155.074 57.813 C 154.553 58.077,153.345 58.405,152.389 58.541 C 151.434 58.678,149.997 59.076,149.196 59.426 C 148.396 59.777,146.832 60.251,145.721 60.481 C 144.610 60.711,142.934 61.200,141.997 61.569 C 141.059 61.937,139.194 62.470,137.852 62.752 C 136.510 63.034,135.230 63.416,135.008 63.601 C 134.786 63.786,133.366 64.191,131.854 64.502 C 130.342 64.813,128.710 65.269,128.228 65.517 C 127.746 65.764,125.982 66.291,124.310 66.688 C 122.637 67.086,120.842 67.625,120.322 67.886 C 119.801 68.147,118.358 68.555,117.116 68.792 C 115.873 69.029,114.689 69.360,114.485 69.528 C 114.281 69.696,113.108 70.067,111.879 70.352 C 110.649 70.638,108.705 71.205,107.559 71.614 C 106.412 72.022,104.535 72.564,103.388 72.817 C 102.242 73.070,100.443 73.596,99.392 73.986 C 98.341 74.376,97.147 74.700,96.740 74.706 C 96.333 74.713,94.929 75.120,93.622 75.613 C 92.314 76.105,90.383 76.667,89.330 76.861 C 88.278 77.056,86.991 77.435,86.471 77.704 C 85.951 77.973,84.697 78.359,83.684 78.563 C 82.671 78.767,81.060 79.233,80.104 79.600 C 79.149 79.967,77.285 80.513,75.963 80.815 C 74.641 81.116,73.149 81.575,72.647 81.835 C 72.145 82.094,70.731 82.488,69.505 82.711 C 68.279 82.933,66.869 83.325,66.372 83.582 C 65.875 83.839,64.079 84.385,62.381 84.796 C 60.682 85.206,58.893 85.743,58.404 85.987 C 57.915 86.232,56.501 86.627,55.261 86.864 C 54.021 87.102,52.584 87.514,52.069 87.781 C 51.553 88.047,49.944 88.526,48.492 88.845 C 47.041 89.164,45.584 89.622,45.255 89.863 C 44.691 90.275,44.657 96.260,44.657 193.456 L 44.657 296.612 45.397 298.175 C 45.805 299.036,46.253 300.130,46.395 300.608 C 47.995 306.024,55.079 312.231,61.630 313.956 L 65.049 314.857 196.725 314.857 L 328.401 314.857 331.703 313.999 C 333.520 313.527,335.496 312.862,336.096 312.522 C 336.695 312.181,337.604 311.668,338.116 311.381 C 339.090 310.836,339.630 310.368,341.930 308.080 C 343.814 306.207,345.048 304.650,345.872 303.108 C 346.250 302.402,346.782 301.405,347.055 300.893 C 347.550 299.963,348.243 297.659,348.917 294.700 C 349.158 293.646,349.244 262.028,349.181 197.741 L 349.088 102.346 348.150 100.153 C 346.730 96.834,344.574 94.631,341.268 93.119 C 340.408 92.725,339.079 92.110,338.315 91.751 C 337.451 91.345,335.153 90.906,332.249 90.593 C 327.792 90.111,327.536 90.041,326.777 89.092 L 325.981 88.097 325.979 53.238 C 325.977 14.454,326.066 15.979,323.707 14.047 C 321.521 12.256,314.187 11.432,309.818 12.486 M322.383 14.139 C 325.428 16.220,325.225 13.417,325.256 53.795 L 325.282 89.345 326.094 90.156 C 326.823 90.886,327.338 90.992,331.219 91.212 C 334.523 91.399,335.860 91.623,336.924 92.165 C 337.689 92.555,339.056 93.095,339.962 93.365 C 340.868 93.635,341.995 94.242,342.466 94.713 C 342.937 95.184,343.551 95.569,343.831 95.569 C 344.111 95.569,344.668 96.101,345.070 96.751 C 345.472 97.401,346.004 98.011,346.254 98.107 C 348.121 98.823,348.045 94.574,348.045 198.436 C 348.045 302.021,348.099 298.941,346.247 300.793 C 345.990 301.049,345.474 301.973,345.101 302.845 C 344.727 303.717,344.288 304.431,344.125 304.431 C 343.963 304.431,343.575 304.965,343.264 305.618 C 342.953 306.270,342.384 306.904,342.001 307.025 C 341.618 307.147,341.210 307.543,341.095 307.906 C 340.980 308.269,340.595 308.658,340.239 308.771 C 339.884 308.884,339.355 309.339,339.064 309.783 C 338.773 310.227,338.060 310.685,337.480 310.801 C 336.900 310.917,336.087 311.350,335.674 311.763 C 333.533 313.904,341.158 313.792,196.699 313.791 C 54.413 313.789,60.230 313.864,58.127 311.995 C 57.791 311.695,56.959 311.221,56.279 310.941 C 54.878 310.362,49.001 304.700,49.001 303.928 C 49.001 303.760,48.541 302.906,47.979 302.029 C 47.416 301.152,46.787 299.676,46.579 298.748 C 46.372 297.821,45.932 296.570,45.603 295.968 C 45.005 294.875,44.418 95.463,45.003 92.202 C 45.262 90.759,46.795 89.808,49.586 89.358 C 50.760 89.169,52.554 88.636,53.575 88.174 C 54.595 87.711,56.234 87.241,57.217 87.128 C 58.200 87.015,59.589 86.609,60.304 86.226 C 61.018 85.843,62.482 85.426,63.556 85.300 C 64.630 85.174,65.989 84.796,66.577 84.460 C 67.628 83.858,69.822 83.258,72.361 82.877 C 73.071 82.771,73.877 82.459,74.152 82.184 C 74.427 81.909,75.800 81.511,77.204 81.298 C 78.608 81.086,80.146 80.663,80.621 80.359 C 81.096 80.056,82.884 79.520,84.595 79.169 C 86.306 78.818,87.958 78.302,88.267 78.023 C 88.576 77.743,89.960 77.354,91.343 77.158 C 92.726 76.962,94.245 76.548,94.717 76.238 C 95.190 75.929,96.787 75.447,98.266 75.169 C 99.745 74.891,101.425 74.378,101.998 74.029 C 102.572 73.681,104.209 73.217,105.636 72.999 C 107.064 72.781,108.490 72.369,108.805 72.084 C 109.119 71.799,110.357 71.408,111.555 71.216 C 112.753 71.023,114.611 70.498,115.685 70.050 C 116.758 69.602,118.497 69.123,119.548 68.986 C 120.599 68.849,121.957 68.434,122.565 68.065 C 123.173 67.695,124.502 67.297,125.519 67.180 C 126.536 67.063,128.212 66.585,129.243 66.117 C 130.275 65.650,132.011 65.141,133.101 64.987 C 134.190 64.833,135.692 64.397,136.438 64.017 C 137.183 63.638,138.867 63.161,140.180 62.958 C 141.493 62.754,142.825 62.354,143.140 62.069 C 143.455 61.784,144.805 61.378,146.139 61.166 C 147.474 60.955,149.359 60.420,150.328 59.978 C 151.298 59.536,152.958 59.066,154.019 58.934 C 155.079 58.801,156.505 58.394,157.187 58.028 C 157.869 57.663,159.361 57.213,160.503 57.029 C 161.645 56.845,163.414 56.317,164.435 55.854 C 165.455 55.392,167.094 54.921,168.077 54.808 C 169.060 54.695,170.449 54.289,171.164 53.906 C 171.878 53.523,173.342 53.107,174.416 52.980 C 175.490 52.854,176.849 52.476,177.437 52.140 C 178.488 51.539,180.682 50.939,183.221 50.558 C 183.931 50.451,184.738 50.139,185.012 49.864 C 185.287 49.590,186.660 49.191,188.064 48.979 C 189.468 48.766,191.006 48.344,191.481 48.040 C 191.956 47.736,193.745 47.200,195.455 46.849 C 197.166 46.498,198.818 45.983,199.127 45.703 C 199.436 45.424,200.820 45.035,202.203 44.838 C 203.586 44.642,205.105 44.228,205.577 43.919 C 206.050 43.609,207.647 43.128,209.126 42.849 C 210.606 42.571,212.285 42.058,212.858 41.710 C 213.432 41.361,214.972 40.912,216.281 40.712 C 217.590 40.512,219.046 40.095,219.518 39.786 C 219.990 39.477,221.325 39.071,222.484 38.885 C 223.644 38.698,225.471 38.178,226.545 37.730 C 227.619 37.282,229.357 36.803,230.408 36.666 C 231.460 36.529,232.817 36.115,233.425 35.745 C 234.033 35.375,235.363 34.977,236.379 34.860 C 237.396 34.744,239.063 34.270,240.083 33.807 C 241.103 33.345,242.873 32.816,244.015 32.632 C 245.157 32.448,246.649 31.998,247.331 31.633 C 248.013 31.267,249.450 30.865,250.524 30.739 C 251.597 30.613,252.955 30.236,253.540 29.901 C 254.558 29.319,256.549 28.779,259.329 28.330 C 260.039 28.216,260.845 27.897,261.120 27.623 C 261.395 27.348,262.768 26.946,264.172 26.729 C 265.576 26.512,267.272 26.057,267.941 25.718 C 268.610 25.380,270.399 24.847,271.917 24.535 C 273.434 24.223,274.920 23.751,275.218 23.487 C 275.516 23.222,276.899 22.832,278.290 22.619 C 279.681 22.406,281.383 21.930,282.071 21.561 C 282.760 21.192,284.202 20.787,285.276 20.661 C 286.350 20.535,287.707 20.158,288.292 19.823 C 289.311 19.241,291.301 18.701,294.081 18.252 C 294.792 18.138,295.598 17.819,295.872 17.545 C 296.147 17.270,297.520 16.870,298.924 16.656 C 300.328 16.441,301.946 15.988,302.520 15.647 C 303.093 15.307,304.657 14.832,305.995 14.592 C 307.333 14.351,308.897 13.902,309.470 13.594 C 311.196 12.665,312.072 12.544,316.304 12.652 L 320.358 12.757 322.383 14.139 M309.810 33.333 C 309.615 33.530,308.428 33.836,307.173 34.013 C 305.917 34.191,304.191 34.655,303.337 35.044 C 302.483 35.433,300.699 35.935,299.372 36.161 C 298.045 36.386,296.490 36.851,295.917 37.194 C 295.343 37.537,293.936 37.930,292.789 38.067 C 291.642 38.204,290.235 38.565,289.661 38.868 C 288.403 39.534,285.804 40.276,284.656 40.297 C 284.196 40.306,283.023 40.683,282.049 41.136 C 281.075 41.588,279.367 42.060,278.254 42.184 C 277.141 42.309,275.644 42.709,274.927 43.075 C 274.210 43.441,272.425 43.966,270.960 44.243 C 269.495 44.519,267.935 44.982,267.493 45.272 C 267.051 45.561,265.567 45.972,264.194 46.185 C 262.822 46.398,261.109 46.868,260.389 47.230 C 259.668 47.592,257.984 48.079,256.646 48.313 C 255.308 48.547,253.745 49.018,253.171 49.360 C 252.598 49.701,251.190 50.088,250.043 50.219 C 248.897 50.350,247.341 50.768,246.586 51.149 C 245.831 51.530,244.286 51.991,243.151 52.174 C 242.017 52.357,240.211 52.873,239.137 53.321 C 238.063 53.769,236.325 54.246,235.274 54.381 C 234.222 54.516,232.870 54.910,232.267 55.257 C 231.665 55.603,230.049 56.061,228.677 56.274 C 227.304 56.487,225.586 56.965,224.858 57.336 C 224.131 57.707,222.493 58.177,221.219 58.381 C 219.944 58.585,218.342 59.051,217.658 59.417 C 216.975 59.783,215.537 60.192,214.463 60.324 C 213.389 60.457,211.729 60.918,210.773 61.350 C 209.818 61.782,207.961 62.301,206.649 62.502 C 205.336 62.704,204.002 63.104,203.684 63.392 C 203.366 63.679,201.938 64.090,200.510 64.304 C 199.083 64.518,197.336 64.987,196.628 65.347 C 195.920 65.707,194.513 66.105,193.500 66.231 C 192.488 66.358,190.643 66.892,189.401 67.419 C 188.158 67.945,186.210 68.479,185.071 68.604 C 183.932 68.730,182.736 69.072,182.413 69.365 C 182.089 69.658,180.597 70.103,179.096 70.354 C 177.596 70.605,175.664 71.133,174.802 71.527 C 173.941 71.920,172.241 72.403,171.025 72.599 C 169.808 72.795,168.451 73.192,168.009 73.482 C 167.567 73.771,166.061 74.188,164.663 74.407 C 163.264 74.627,161.603 75.099,160.971 75.457 C 160.338 75.815,158.696 76.284,157.322 76.500 C 155.947 76.715,154.329 77.170,153.727 77.510 C 153.125 77.850,151.512 78.302,150.143 78.515 C 148.773 78.727,147.285 79.142,146.835 79.437 C 146.385 79.732,144.616 80.260,142.903 80.611 C 141.191 80.962,139.419 81.489,138.965 81.781 C 138.512 82.074,136.992 82.471,135.588 82.662 C 134.184 82.854,132.774 83.247,132.455 83.536 C 132.135 83.825,130.784 84.236,129.453 84.448 C 128.121 84.661,126.325 85.151,125.462 85.536 C 124.599 85.922,122.654 86.458,121.141 86.727 C 119.601 87.001,118.071 87.493,117.666 87.845 C 117.268 88.191,116.355 88.739,115.639 89.062 C 114.112 89.751,113.990 90.242,115.227 90.712 C 116.812 91.315,310.054 91.163,310.881 90.558 C 311.537 90.078,311.558 89.328,311.648 62.435 L 311.741 34.805 310.953 33.891 C 310.415 33.267,310.052 33.090,309.810 33.333 M310.674 34.730 C 311.153 35.625,311.173 87.860,310.695 89.117 L 310.356 90.009 213.996 89.961 C 160.999 89.935,117.998 89.845,118.438 89.761 C 118.879 89.677,119.408 89.239,119.613 88.789 C 120.042 87.847,120.967 87.431,123.892 86.863 C 125.039 86.640,126.156 86.314,126.373 86.138 C 126.591 85.961,127.873 85.587,129.222 85.306 C 130.571 85.024,132.738 84.418,134.039 83.957 C 135.339 83.497,137.107 83.011,137.967 82.877 C 138.827 82.743,140.156 82.352,140.921 82.009 C 141.685 81.665,142.937 81.278,143.701 81.150 C 144.466 81.021,146.499 80.472,148.219 79.930 C 149.939 79.389,151.972 78.840,152.737 78.711 C 153.501 78.583,154.752 78.198,155.517 77.856 C 156.281 77.515,157.664 77.126,158.590 76.993 C 159.515 76.860,160.937 76.466,161.749 76.118 C 162.562 75.769,164.463 75.213,165.974 74.882 C 167.486 74.551,169.036 74.114,169.418 73.911 C 169.800 73.708,171.286 73.269,172.719 72.936 C 175.742 72.232,180.888 70.782,183.145 69.997 C 184.005 69.698,185.725 69.230,186.968 68.957 C 188.210 68.684,189.774 68.233,190.443 67.954 C 191.112 67.675,192.754 67.196,194.092 66.888 C 195.430 66.580,197.307 66.041,198.262 65.688 C 199.218 65.336,201.017 64.866,202.259 64.643 C 203.501 64.420,204.853 64.023,205.262 63.760 C 205.671 63.498,207.079 63.099,208.390 62.874 C 209.701 62.650,211.173 62.263,211.662 62.015 C 212.151 61.766,213.949 61.226,215.658 60.814 C 217.368 60.403,219.235 59.852,219.809 59.590 C 220.382 59.328,221.826 58.944,223.017 58.735 C 224.208 58.526,225.850 58.053,226.666 57.682 C 227.482 57.312,228.492 57.006,228.912 57.002 C 229.331 56.997,231.051 56.538,232.734 55.982 C 234.418 55.425,236.733 54.782,237.880 54.554 C 239.027 54.325,240.122 54.014,240.313 53.862 C 240.504 53.709,242.277 53.177,244.253 52.679 C 246.229 52.180,248.137 51.617,248.492 51.427 C 248.847 51.237,250.337 50.852,251.803 50.571 C 253.269 50.291,254.657 49.905,254.888 49.713 C 255.119 49.521,256.391 49.133,257.715 48.849 C 259.039 48.566,261.044 48.005,262.172 47.603 C 263.300 47.201,265.096 46.711,266.162 46.514 C 267.228 46.317,268.528 45.935,269.050 45.665 C 269.572 45.395,271.100 44.943,272.445 44.660 C 273.790 44.377,275.424 43.922,276.077 43.650 C 276.729 43.377,278.481 42.883,279.970 42.552 C 281.458 42.221,283.310 41.677,284.084 41.343 C 284.858 41.010,286.271 40.627,287.224 40.491 C 288.177 40.356,289.358 40.038,289.849 39.784 C 290.340 39.530,292.219 38.979,294.024 38.558 C 295.829 38.138,297.701 37.593,298.183 37.348 C 298.664 37.103,299.993 36.730,301.136 36.519 C 302.279 36.308,303.997 35.838,304.952 35.474 C 306.579 34.855,308.931 34.201,309.892 34.101 C 310.124 34.077,310.476 34.360,310.674 34.730 M67.849 103.227 C 66.351 103.829,66.377 102.148,66.377 196.827 L 66.377 288.309 67.375 289.854 C 68.765 292.005,69.715 292.919,70.818 293.166 C 71.338 293.282,72.311 293.518,72.980 293.689 C 75.131 294.241,318.785 294.070,321.370 293.515 C 323.957 292.960,325.132 291.942,326.458 289.106 L 327.368 287.161 327.368 263.152 C 327.368 248.791,327.235 238.792,327.037 238.271 C 326.349 236.463,326.892 236.503,300.404 236.316 L 275.700 236.142 274.340 235.227 C 273.592 234.723,272.579 234.219,272.088 234.107 C 271.598 233.994,270.816 233.571,270.351 233.165 C 269.885 232.759,269.087 232.210,268.576 231.944 C 266.091 230.652,266.203 231.724,266.203 209.197 C 266.203 186.321,266.071 187.426,268.966 186.149 C 269.740 185.807,270.374 185.395,270.374 185.232 C 270.374 185.070,270.960 184.751,271.677 184.524 C 272.394 184.296,273.684 183.698,274.544 183.193 L 276.108 182.276 301.030 182.103 C 324.358 181.940,325.993 181.889,326.573 181.308 C 327.288 180.593,327.736 115.252,327.049 111.940 C 325.985 106.818,324.105 104.073,321.061 103.200 C 319.532 102.762,68.941 102.789,67.849 103.227 M321.489 104.325 C 324.603 105.796,325.368 107.273,325.968 112.968 C 326.471 117.745,326.441 178.191,325.935 179.643 C 325.320 181.406,325.302 181.407,301.541 181.410 C 278.674 181.413,275.701 181.559,273.683 182.778 C 273.105 183.128,272.259 183.527,271.802 183.665 C 270.528 184.052,266.817 186.547,265.955 187.596 L 265.186 188.532 265.175 209.209 L 265.164 229.887 266.292 231.022 C 267.593 232.332,268.886 233.205,272.283 235.065 C 276.301 237.266,277.490 237.356,302.541 237.357 C 324.075 237.359,324.469 237.371,325.213 238.063 C 326.374 239.145,326.361 238.825,326.253 264.118 L 326.151 287.924 325.349 289.487 C 324.221 291.686,322.789 292.715,320.445 293.008 C 317.470 293.381,75.609 293.350,73.024 292.976 C 70.535 292.616,69.699 292.015,68.196 289.509 L 67.246 287.924 67.156 197.267 C 67.063 102.732,67.043 104.100,68.556 103.805 C 71.374 103.257,320.311 103.768,321.489 104.325 M289.140 201.810 C 287.497 202.414,287.402 202.783,287.402 208.546 C 287.402 214.654,287.598 215.536,289.126 216.326 C 290.671 217.126,324.537 216.969,326.151 216.156 L 327.194 215.630 327.293 209.726 C 327.414 202.530,327.386 202.393,325.714 201.929 C 324.364 201.554,290.139 201.443,289.140 201.810 M325.717 202.743 C 326.247 203.145,326.325 203.852,326.325 208.249 C 326.325 214.671,326.197 215.320,324.844 215.792 C 323.082 216.406,290.146 216.290,289.293 215.667 C 288.421 215.029,288.249 203.856,289.096 202.835 C 289.744 202.052,324.692 201.965,325.717 202.743 " stroke="none" fill="#85d098" fill-rule="evenodd"></path><path id="path4" d="M308.427 11.707 C 308.045 11.793,306.950 12.226,305.995 12.668 C 305.039 13.110,303.188 13.634,301.880 13.834 C 300.573 14.033,299.233 14.442,298.901 14.742 C 298.570 15.042,297.528 15.381,296.586 15.495 C 294.341 15.766,292.580 16.300,291.861 16.928 C 291.541 17.206,290.134 17.578,288.733 17.753 C 287.183 17.947,285.829 18.335,285.274 18.744 C 284.727 19.149,283.479 19.510,282.147 19.651 C 280.928 19.780,279.401 20.188,278.754 20.558 C 278.107 20.928,276.350 21.445,274.849 21.707 C 273.295 21.978,271.750 22.475,271.259 22.862 C 270.694 23.306,269.563 23.622,267.976 23.778 C 266.434 23.930,265.254 24.253,264.729 24.666 C 264.252 25.041,262.874 25.457,261.456 25.654 C 260.058 25.848,258.278 26.381,257.308 26.898 C 256.374 27.395,255.061 27.803,254.390 27.804 C 252.708 27.807,250.563 28.445,250.347 29.007 C 250.235 29.300,249.265 29.565,247.742 29.718 C 246.241 29.868,244.716 30.280,243.741 30.798 C 242.875 31.259,241.161 31.778,239.932 31.952 C 238.703 32.126,237.191 32.573,236.572 32.945 C 235.954 33.317,234.513 33.725,233.370 33.852 C 232.228 33.978,230.793 34.377,230.182 34.738 C 229.570 35.098,227.786 35.636,226.216 35.932 C 224.646 36.228,223.079 36.725,222.734 37.037 C 222.353 37.382,221.055 37.723,219.428 37.905 C 217.616 38.108,216.513 38.418,216.020 38.862 C 215.574 39.264,214.281 39.676,212.685 39.926 C 211.251 40.150,209.687 40.614,209.209 40.957 C 208.726 41.305,207.136 41.748,205.622 41.958 C 203.949 42.190,202.643 42.572,202.224 42.951 C 201.812 43.324,200.626 43.678,199.222 43.847 C 197.945 44.000,196.113 44.501,195.149 44.958 C 194.185 45.416,192.306 45.958,190.973 46.162 C 189.535 46.382,188.387 46.754,188.151 47.076 C 187.907 47.410,186.836 47.737,185.363 47.928 C 182.730 48.268,181.199 48.759,181.010 49.324 C 180.942 49.526,179.635 49.849,178.106 50.042 C 176.361 50.262,174.986 50.643,174.414 51.065 C 173.867 51.468,172.616 51.831,171.287 51.971 C 169.998 52.108,168.488 52.538,167.680 52.998 C 166.916 53.433,165.136 53.967,163.726 54.185 C 162.297 54.406,160.801 54.865,160.349 55.220 C 159.838 55.623,158.640 55.948,157.115 56.098 C 155.574 56.250,154.394 56.572,153.869 56.985 C 153.416 57.342,152.037 57.806,150.805 58.017 C 147.416 58.597,147.094 58.690,146.524 59.260 C 146.228 59.556,144.855 59.931,143.383 60.118 C 140.916 60.431,139.357 61.003,139.357 61.595 C 139.357 61.740,139.018 61.859,138.604 61.859 C 136.787 61.859,133.457 62.669,132.816 63.267 C 132.352 63.699,131.327 64.000,129.780 64.158 C 128.469 64.293,126.819 64.730,126.017 65.156 C 125.230 65.574,123.653 66.025,122.510 66.158 C 121.367 66.292,119.933 66.697,119.321 67.057 C 118.710 67.418,116.926 67.955,115.356 68.251 C 113.785 68.548,112.222 69.042,111.882 69.350 C 111.528 69.670,110.170 70.047,108.715 70.229 C 107.247 70.413,105.801 70.816,105.300 71.182 C 104.822 71.531,103.258 72.004,101.825 72.234 C 100.391 72.465,98.820 72.942,98.334 73.295 C 97.823 73.667,96.328 74.087,94.783 74.293 C 93.018 74.529,91.802 74.896,91.189 75.379 C 90.638 75.812,89.753 76.109,89.006 76.110 C 87.393 76.112,85.127 76.732,84.411 77.367 C 84.104 77.640,82.485 78.084,80.812 78.355 C 79.094 78.633,77.496 79.096,77.139 79.419 C 76.791 79.734,75.518 80.119,74.309 80.274 C 71.862 80.589,70.977 80.860,70.182 81.539 C 69.885 81.792,68.478 82.162,67.054 82.361 C 65.550 82.571,64.084 83.002,63.554 83.390 C 63.012 83.786,61.744 84.152,60.426 84.291 C 59.138 84.428,57.628 84.857,56.820 85.317 C 56.056 85.753,54.262 86.289,52.834 86.510 C 51.407 86.730,49.958 87.165,49.614 87.476 C 49.271 87.787,48.093 88.163,46.998 88.312 C 45.596 88.502,44.825 88.805,44.397 89.334 C 43.820 90.046,43.788 95.479,43.790 193.349 C 43.792 300.075,43.770 298.376,45.178 300.165 C 45.517 300.597,45.897 301.494,46.022 302.159 C 46.146 302.824,46.533 303.568,46.880 303.813 C 47.227 304.057,47.625 304.619,47.765 305.060 C 48.280 306.690,53.710 312.076,54.838 312.076 C 55.120 312.076,55.690 312.443,56.104 312.890 C 56.551 313.372,57.463 313.800,58.341 313.941 C 59.157 314.071,60.295 314.526,60.871 314.952 L 61.917 315.725 194.382 315.819 C 327.239 315.912,331.960 315.873,333.280 314.679 C 333.646 314.348,334.694 313.937,335.609 313.767 C 336.523 313.596,337.507 313.163,337.793 312.804 C 338.080 312.444,338.662 312.046,339.087 311.919 C 339.512 311.792,340.160 311.306,340.527 310.840 C 340.894 310.373,341.329 309.985,341.492 309.977 C 342.010 309.953,345.422 305.820,346.236 304.232 C 346.537 303.645,347.018 302.969,347.305 302.731 C 347.592 302.493,347.924 301.800,348.042 301.192 C 348.161 300.584,348.641 299.301,349.109 298.341 L 349.960 296.594 349.871 198.369 L 349.783 100.143 349.027 99.333 C 348.611 98.887,348.165 98.099,348.036 97.580 C 347.908 97.061,347.513 96.545,347.160 96.433 C 346.806 96.320,346.423 95.934,346.309 95.573 C 346.194 95.213,345.637 94.712,345.071 94.462 C 344.504 94.211,343.955 93.735,343.850 93.405 C 343.741 93.062,343.035 92.639,342.203 92.418 C 341.402 92.206,340.434 91.751,340.052 91.408 C 339.655 91.052,338.093 90.553,336.403 90.243 C 331.642 89.369,328.268 88.563,327.802 88.188 C 327.460 87.913,327.368 80.447,327.368 52.973 L 327.368 18.108 326.499 16.474 C 326.021 15.575,325.630 14.654,325.630 14.426 C 325.630 14.199,325.239 13.834,324.761 13.617 C 324.283 13.399,323.892 13.053,323.892 12.848 C 323.892 11.703,312.236 10.842,308.427 11.707 M320.342 12.146 C 321.738 12.347,322.805 12.722,323.296 13.182 C 323.720 13.579,324.340 14.098,324.675 14.336 C 326.615 15.718,326.672 16.860,326.672 53.970 C 326.672 93.949,326.106 89.580,331.364 90.154 C 335.530 90.608,337.979 91.108,338.979 91.708 C 339.569 92.062,340.486 92.454,341.016 92.579 C 342.711 92.978,347.871 97.463,347.871 98.536 C 347.871 98.735,348.223 99.517,348.653 100.274 L 349.435 101.651 349.435 198.817 C 349.435 274.437,349.342 296.096,349.014 296.491 C 348.782 296.771,348.355 297.910,348.065 299.022 C 347.776 300.135,347.066 301.782,346.489 302.682 C 345.911 303.582,345.439 304.444,345.439 304.599 C 345.439 304.901,345.040 305.348,342.228 308.192 C 339.538 310.913,339.017 311.381,338.683 311.381 C 338.516 311.381,337.846 311.789,337.193 312.287 C 336.540 312.785,335.050 313.415,333.881 313.688 C 332.712 313.961,331.527 314.374,331.246 314.607 C 330.523 315.207,62.901 315.228,62.173 314.628 C 61.905 314.407,60.785 313.991,59.685 313.705 C 56.321 312.829,51.063 308.796,48.784 305.343 C 48.264 304.555,47.474 303.354,47.029 302.675 C 46.585 301.995,46.221 301.243,46.221 301.002 C 46.221 300.762,45.791 299.676,45.265 298.588 L 44.309 296.612 44.309 193.453 L 44.309 90.295 45.116 89.642 C 45.560 89.282,46.498 88.895,47.201 88.781 C 47.904 88.667,49.183 88.335,50.043 88.043 C 50.904 87.751,52.546 87.281,53.692 86.999 C 54.839 86.718,56.560 86.189,57.515 85.825 C 58.471 85.460,60.348 84.918,61.685 84.619 C 63.023 84.321,64.822 83.788,65.682 83.435 C 66.542 83.082,68.024 82.681,68.975 82.545 C 69.927 82.409,71.256 82.023,71.929 81.688 C 72.603 81.353,74.170 80.875,75.413 80.625 C 76.655 80.375,78.297 79.890,79.062 79.547 C 79.826 79.204,81.451 78.749,82.673 78.534 C 83.895 78.320,85.236 77.920,85.654 77.647 C 86.072 77.373,87.340 76.980,88.472 76.773 C 89.604 76.566,91.468 76.036,92.615 75.595 C 93.762 75.155,95.703 74.607,96.928 74.380 C 98.153 74.152,99.482 73.756,99.882 73.499 C 100.281 73.242,101.234 72.929,101.998 72.803 C 103.768 72.511,105.535 72.006,106.872 71.407 C 107.450 71.149,109.070 70.698,110.472 70.405 C 111.875 70.113,113.212 69.716,113.444 69.524 C 113.676 69.331,114.988 68.937,116.359 68.649 C 117.730 68.360,119.439 67.878,120.156 67.577 C 120.873 67.276,122.780 66.721,124.393 66.344 C 126.006 65.966,127.513 65.503,127.741 65.313 C 127.969 65.124,129.351 64.740,130.812 64.461 C 132.273 64.181,133.899 63.729,134.426 63.457 C 134.953 63.184,136.005 62.856,136.763 62.727 C 137.521 62.598,139.235 62.100,140.573 61.620 C 141.911 61.140,144.023 60.542,145.265 60.291 C 146.507 60.039,147.989 59.590,148.557 59.292 C 149.126 58.994,150.298 58.646,151.164 58.517 C 152.029 58.388,153.749 57.903,154.986 57.439 C 156.223 56.974,158.097 56.435,159.149 56.240 C 160.202 56.046,161.490 55.666,162.012 55.396 C 162.535 55.126,164.069 54.672,165.421 54.387 C 166.774 54.103,168.305 53.653,168.823 53.387 C 169.341 53.121,171.017 52.627,172.546 52.290 C 174.075 51.953,175.639 51.477,176.021 51.233 C 176.403 50.989,177.732 50.610,178.975 50.391 C 180.217 50.172,181.687 49.770,182.241 49.498 C 182.796 49.225,184.559 48.691,186.160 48.311 C 187.760 47.931,189.496 47.403,190.017 47.138 C 190.538 46.873,191.983 46.482,193.229 46.269 C 194.474 46.056,196.110 45.567,196.864 45.182 C 197.619 44.798,198.573 44.483,198.985 44.483 C 199.398 44.483,200.890 44.086,202.300 43.600 C 203.711 43.114,206.019 42.479,207.429 42.189 C 208.839 41.899,210.325 41.447,210.731 41.186 C 211.136 40.925,212.094 40.609,212.858 40.483 C 214.629 40.192,216.395 39.686,217.732 39.088 C 218.310 38.829,219.930 38.378,221.332 38.086 C 222.735 37.793,224.072 37.396,224.304 37.204 C 224.536 37.011,225.824 36.623,227.166 36.340 C 228.508 36.058,230.373 35.526,231.310 35.157 C 232.248 34.789,233.953 34.294,235.100 34.059 C 236.247 33.823,237.627 33.404,238.167 33.127 C 238.707 32.849,240.192 32.404,241.468 32.137 C 242.744 31.870,244.942 31.255,246.353 30.769 C 247.764 30.284,249.215 29.887,249.578 29.887 C 249.941 29.887,251.133 29.515,252.226 29.061 C 253.319 28.607,254.994 28.123,255.947 27.985 C 256.900 27.847,258.106 27.514,258.627 27.245 C 259.148 26.976,260.813 26.459,262.327 26.098 C 263.842 25.736,265.607 25.197,266.250 24.901 C 266.893 24.604,268.381 24.194,269.556 23.988 C 270.731 23.782,272.138 23.393,272.684 23.123 C 273.229 22.852,274.848 22.368,276.281 22.047 C 277.715 21.725,279.279 21.264,279.757 21.023 C 280.235 20.781,281.877 20.308,283.406 19.971 C 284.935 19.633,286.499 19.158,286.881 18.913 C 287.263 18.669,288.593 18.290,289.835 18.071 C 291.077 17.853,292.547 17.451,293.102 17.178 C 293.656 16.905,295.419 16.371,297.020 15.991 C 298.621 15.611,300.357 15.083,300.877 14.818 C 301.398 14.554,302.897 14.153,304.208 13.928 C 305.519 13.704,306.956 13.281,307.401 12.990 C 309.016 11.931,315.801 11.489,320.342 12.146 M308.254 34.788 C 307.394 34.955,305.986 35.388,305.126 35.750 C 304.266 36.112,302.817 36.515,301.905 36.645 C 300.994 36.775,299.587 37.170,298.778 37.521 C 297.969 37.873,296.056 38.428,294.526 38.754 C 292.997 39.080,291.408 39.559,290.994 39.819 C 290.580 40.078,289.192 40.458,287.910 40.663 C 286.627 40.867,285.143 41.260,284.612 41.535 C 284.080 41.809,282.208 42.354,280.452 42.745 C 278.695 43.137,276.843 43.665,276.335 43.920 C 275.828 44.174,274.398 44.576,273.158 44.814 C 271.918 45.051,270.489 45.460,269.982 45.722 C 269.475 45.984,267.837 46.451,266.342 46.760 C 264.846 47.069,263.176 47.553,262.630 47.835 C 262.084 48.118,260.450 48.576,258.998 48.854 C 257.546 49.131,256.166 49.518,255.932 49.712 C 255.698 49.906,254.371 50.302,252.982 50.591 C 251.593 50.881,249.582 51.430,248.513 51.811 C 247.443 52.192,245.485 52.736,244.161 53.019 C 242.838 53.303,241.566 53.692,241.335 53.883 C 241.104 54.075,239.715 54.461,238.249 54.742 C 236.784 55.022,235.267 55.421,234.880 55.628 C 234.015 56.091,231.402 56.844,229.552 57.163 C 228.794 57.294,227.742 57.624,227.215 57.897 C 226.688 58.169,225.091 58.615,223.665 58.888 C 222.240 59.161,220.627 59.615,220.081 59.897 C 219.535 60.179,217.865 60.663,216.369 60.972 C 214.874 61.281,213.223 61.754,212.702 62.024 C 212.180 62.294,210.673 62.700,209.352 62.927 C 208.031 63.153,206.399 63.617,205.726 63.956 C 205.053 64.295,203.723 64.686,202.772 64.825 C 201.821 64.963,200.026 65.459,198.784 65.926 C 197.541 66.393,195.586 66.930,194.440 67.117 C 193.293 67.305,192.028 67.672,191.628 67.932 C 191.229 68.192,189.899 68.588,188.674 68.812 C 187.449 69.036,185.743 69.501,184.883 69.847 C 184.023 70.193,182.068 70.744,180.539 71.071 C 179.010 71.399,177.424 71.877,177.014 72.133 C 176.605 72.389,175.198 72.783,173.887 73.007 C 172.576 73.232,171.108 73.616,170.626 73.861 C 170.143 74.106,168.380 74.632,166.708 75.029 C 165.035 75.426,163.240 75.968,162.719 76.233 C 162.199 76.498,160.728 76.893,159.452 77.112 C 158.175 77.331,156.455 77.816,155.629 78.191 C 154.803 78.566,153.784 78.876,153.365 78.880 C 152.946 78.884,151.225 79.346,149.542 79.905 C 147.859 80.464,145.561 81.088,144.435 81.292 C 143.310 81.496,142.206 81.814,141.982 82.000 C 141.758 82.186,140.176 82.661,138.467 83.056 C 136.759 83.450,134.869 84.003,134.268 84.283 C 133.667 84.564,131.968 85.024,130.492 85.307 C 129.016 85.589,127.619 85.977,127.388 86.169 C 127.157 86.361,125.885 86.745,124.561 87.024 C 120.752 87.826,120.379 88.069,121.513 89.010 C 121.996 89.412,137.041 89.502,216.206 89.577 L 310.324 89.667 310.514 88.882 C 310.871 87.406,310.532 34.641,310.165 34.561 C 309.974 34.519,309.114 34.621,308.254 34.788 M310.339 61.859 L 310.339 88.619 216.942 88.594 C 165.573 88.581,123.232 88.446,122.850 88.295 C 122.339 88.094,122.848 87.909,124.761 87.599 C 128.071 87.063,128.469 86.946,129.084 86.331 C 129.362 86.053,130.809 85.672,132.301 85.484 C 133.920 85.279,135.363 84.884,135.882 84.502 C 136.372 84.142,138.021 83.666,139.668 83.411 C 141.451 83.134,142.816 82.727,143.179 82.364 C 143.560 81.983,144.792 81.641,146.625 81.407 C 148.358 81.186,149.728 80.816,150.115 80.465 C 150.466 80.148,151.669 79.756,152.788 79.595 C 155.720 79.174,156.828 78.863,157.506 78.274 C 157.836 77.988,159.449 77.555,161.090 77.313 C 162.890 77.047,164.334 76.636,164.730 76.278 C 165.136 75.910,166.338 75.579,167.877 75.410 C 169.539 75.228,170.699 74.891,171.366 74.398 C 172.030 73.907,173.272 73.544,175.062 73.318 C 176.752 73.105,178.104 72.724,178.683 72.297 C 179.262 71.870,180.480 71.526,181.945 71.376 C 183.305 71.237,184.908 70.804,185.778 70.342 C 186.600 69.904,188.377 69.394,189.727 69.207 C 191.076 69.020,192.689 68.560,193.310 68.186 C 193.931 67.811,195.448 67.396,196.680 67.263 C 197.983 67.123,199.307 66.746,199.845 66.364 C 200.354 66.001,201.926 65.519,203.339 65.293 C 204.752 65.066,206.610 64.514,207.469 64.065 C 208.328 63.616,209.579 63.246,210.249 63.241 C 212.083 63.229,214.159 62.665,214.480 62.092 C 214.666 61.758,215.636 61.499,217.287 61.341 C 218.803 61.196,220.294 60.819,221.025 60.395 C 221.694 60.008,223.474 59.475,224.981 59.211 C 226.488 58.947,228.208 58.437,228.804 58.078 C 229.400 57.720,230.887 57.318,232.109 57.187 C 233.332 57.056,235.052 56.580,235.932 56.131 C 236.812 55.681,238.508 55.207,239.701 55.077 C 241.011 54.935,242.204 54.578,242.716 54.175 C 243.256 53.750,244.552 53.383,246.282 53.165 C 248.015 52.946,249.342 52.570,249.942 52.128 C 250.460 51.746,251.151 51.434,251.478 51.434 C 253.155 51.434,256.634 50.577,257.182 50.029 C 257.602 49.609,258.731 49.294,260.637 49.063 C 262.476 48.841,263.707 48.504,264.151 48.102 C 264.566 47.727,265.747 47.374,267.155 47.205 C 268.432 47.051,270.265 46.542,271.228 46.074 C 272.192 45.606,273.918 45.120,275.065 44.995 C 276.212 44.870,277.669 44.450,278.303 44.061 C 278.979 43.647,280.468 43.244,281.905 43.086 C 283.530 42.908,284.691 42.568,285.354 42.078 C 286.017 41.588,287.260 41.225,289.050 40.999 C 290.683 40.792,292.095 40.401,292.631 40.007 C 293.143 39.629,294.458 39.249,295.758 39.103 C 296.992 38.965,298.773 38.468,299.716 38.001 C 300.659 37.533,302.491 37.017,303.788 36.854 C 305.302 36.664,306.478 36.297,307.073 35.829 C 307.597 35.417,308.508 35.100,309.169 35.100 L 310.339 35.100 310.339 61.859 M68.372 104.793 L 67.420 105.675 67.420 196.417 L 67.420 287.159 68.373 289.041 C 68.897 290.077,69.874 291.343,70.545 291.856 L 71.764 292.789 196.940 292.789 L 322.116 292.789 323.393 291.573 C 325.735 289.342,325.630 290.660,325.630 263.455 C 325.630 244.105,325.536 238.729,325.195 238.509 C 324.957 238.354,314.674 238.144,302.346 238.041 C 278.014 237.838,275.069 237.600,272.565 235.630 C 272.073 235.243,271.528 234.926,271.354 234.926 C 270.711 234.926,266.992 232.278,265.921 231.058 L 264.813 229.795 264.813 209.103 L 264.813 188.411 265.663 187.401 C 266.720 186.145,270.625 183.493,271.417 183.493 C 271.740 183.493,272.362 183.183,272.798 182.805 C 273.234 182.427,274.157 182.021,274.849 181.904 C 275.541 181.787,276.655 181.550,277.324 181.378 C 277.993 181.205,288.844 181.063,301.436 181.062 L 324.332 181.060 324.993 180.297 C 325.950 179.195,325.842 109.648,324.881 107.906 C 323.995 106.300,322.686 105.250,320.697 104.549 C 318.945 103.933,314.401 103.910,194.102 103.910 L 69.324 103.910 68.372 104.793 M319.896 105.313 C 321.515 105.544,322.468 105.861,322.747 106.262 C 322.977 106.593,323.524 107.218,323.963 107.652 L 324.761 108.441 324.761 143.969 L 324.761 179.496 302.172 179.670 C 289.748 179.765,279.270 179.975,278.888 180.136 C 278.506 180.296,277.880 180.556,277.498 180.713 C 277.116 180.870,275.864 181.168,274.718 181.376 C 273.437 181.607,272.418 182.012,272.076 182.424 C 271.770 182.792,270.940 183.203,270.232 183.336 C 269.441 183.484,268.735 183.896,268.402 184.404 C 268.105 184.858,267.605 185.235,267.293 185.242 C 266.617 185.256,265.543 186.116,264.716 187.306 C 264.167 188.095,264.118 189.867,264.118 209.050 L 264.118 229.934 265.247 231.403 C 265.867 232.210,266.731 232.960,267.167 233.070 C 267.603 233.179,268.110 233.551,268.295 233.896 C 268.480 234.241,269.218 234.715,269.937 234.949 C 270.655 235.183,271.657 235.719,272.163 236.141 C 272.669 236.562,273.804 237.006,274.685 237.127 C 275.566 237.247,276.709 237.623,277.224 237.961 C 278.093 238.530,279.854 238.582,301.273 238.672 C 319.016 238.746,324.447 238.867,324.654 239.193 C 324.977 239.701,325.032 286.247,324.713 288.576 C 324.533 289.886,324.338 290.232,323.683 290.396 C 323.238 290.508,322.782 290.891,322.669 291.247 C 322.294 292.427,320.798 292.441,195.912 292.441 L 71.928 292.441 71.151 291.529 C 70.723 291.026,70.130 290.535,69.832 290.436 C 68.476 289.985,68.462 289.009,68.462 195.896 L 68.462 106.034 69.235 105.493 C 70.169 104.839,315.336 104.663,319.896 105.313 M289.360 202.772 C 288.676 203.290,288.586 214.307,289.256 215.378 C 289.543 215.836,323.183 216.039,324.848 215.593 C 325.985 215.289,326.087 203.223,324.958 202.619 C 323.821 202.010,290.174 202.156,289.360 202.772 M324.935 208.123 C 324.935 210.967,324.837 213.781,324.718 214.379 L 324.500 215.465 307.208 215.465 L 289.916 215.465 289.706 214.683 C 289.591 214.253,289.495 211.438,289.492 208.427 L 289.487 202.954 307.211 202.954 L 324.935 202.954 324.935 208.123 " stroke="none" fill="#bce4c4" fill-rule="evenodd"></path></g></svg>