<svg id="svg" version="1.1" xmlns="http://www.w3.org/2000/svg" xmlns:xlink="http://www.w3.org/1999/xlink" width="400" height="321.36752136752136" viewBox="0, 0, 400,321.36752136752136"><g id="svgg"><path id="path0" d="M169.051 24.662 C 168.565 24.739,168.167 24.942,168.167 25.113 C 168.167 25.285,167.526 25.700,166.743 26.035 C 163.024 27.629,163.291 37.299,167.054 37.299 C 167.299 37.299,167.760 37.580,168.080 37.923 C 168.630 38.512,169.263 38.551,179.855 38.646 C 190.503 38.741,191.072 38.776,191.505 39.370 C 191.981 40.022,192.215 60.058,191.761 61.243 C 191.252 62.568,188.607 63.361,183.500 63.718 C 180.156 63.952,178.454 64.203,178.099 64.515 C 177.537 65.010,174.547 65.590,172.546 65.593 C 171.843 65.594,170.822 65.889,170.207 66.269 C 169.546 66.677,168.326 67.012,167.114 67.117 C 165.912 67.221,164.599 67.580,163.826 68.014 C 163.119 68.411,161.757 68.834,160.799 68.952 C 159.842 69.071,158.711 69.442,158.285 69.777 C 157.859 70.111,156.835 70.487,156.008 70.611 C 155.182 70.735,154.122 71.120,153.654 71.466 C 153.185 71.812,152.125 72.222,151.298 72.377 C 150.471 72.531,149.444 72.933,149.015 73.270 C 148.587 73.607,147.693 73.984,147.029 74.108 C 146.364 74.232,145.578 74.592,145.282 74.907 C 144.987 75.223,144.197 75.584,143.528 75.710 C 142.859 75.835,141.896 76.288,141.388 76.715 C 140.881 77.142,140.172 77.492,139.813 77.492 C 139.454 77.492,138.730 77.854,138.205 78.296 C 137.680 78.738,136.983 79.100,136.656 79.100 C 136.329 79.100,135.631 79.462,135.105 79.905 C 134.578 80.348,133.694 80.801,133.140 80.912 C 132.585 81.023,131.993 81.372,131.824 81.688 C 131.655 82.004,131.068 82.361,130.519 82.482 C 129.971 82.602,129.220 83.048,128.851 83.473 C 128.482 83.897,127.922 84.244,127.607 84.244 C 127.292 84.244,126.770 84.528,126.447 84.876 C 126.123 85.223,125.322 85.731,124.666 86.005 C 124.009 86.280,123.473 86.654,123.473 86.837 C 123.473 87.021,122.999 87.369,122.421 87.610 C 121.843 87.852,121.109 88.338,120.790 88.691 C 120.471 89.043,119.863 89.418,119.439 89.525 C 119.015 89.631,118.514 90.006,118.326 90.357 C 118.138 90.709,117.790 90.997,117.552 90.997 C 117.315 90.997,116.924 91.234,116.684 91.523 C 116.444 91.812,115.698 92.396,115.026 92.820 C 114.354 93.244,113.524 93.839,113.182 94.143 C 112.839 94.446,112.119 95.056,111.581 95.498 C 110.369 96.495,108.728 97.901,107.878 98.673 C 107.524 98.994,106.077 100.248,104.662 101.460 C 103.248 102.672,101.416 104.358,100.592 105.208 C 99.768 106.057,98.936 106.752,98.743 106.752 C 98.550 106.752,98.392 106.891,98.392 107.061 C 98.392 107.231,97.639 108.135,96.717 109.071 C 95.796 110.006,93.672 112.363,91.998 114.309 C 89.170 117.594,88.526 118.317,86.813 120.130 C 86.461 120.503,86.174 120.938,86.174 121.098 C 86.174 121.258,85.828 121.762,85.405 122.218 C 84.982 122.674,84.400 123.505,84.110 124.064 C 83.821 124.623,83.436 125.080,83.255 125.080 C 83.073 125.080,82.775 125.509,82.593 126.032 C 82.411 126.555,81.984 127.071,81.645 127.179 C 81.306 127.287,81.029 127.628,81.029 127.938 C 81.029 128.248,80.595 128.988,80.064 129.582 C 79.534 130.176,79.100 130.831,79.100 131.037 C 79.100 131.243,78.795 131.687,78.422 132.024 C 78.050 132.361,77.527 133.179,77.262 133.842 C 76.996 134.506,76.643 135.048,76.476 135.048 C 76.309 135.048,75.972 135.530,75.726 136.119 C 75.480 136.708,75.062 137.369,74.798 137.588 C 74.534 137.807,74.222 138.424,74.104 138.959 C 73.987 139.494,73.557 140.222,73.149 140.577 C 72.741 140.931,72.315 141.710,72.203 142.306 C 72.092 142.902,71.736 143.575,71.413 143.801 C 71.090 144.027,70.721 144.689,70.593 145.272 C 70.465 145.854,70.012 146.707,69.585 147.167 C 69.159 147.627,68.810 148.333,68.810 148.736 C 68.810 149.139,68.469 149.877,68.053 150.377 C 67.636 150.877,67.195 151.832,67.072 152.499 C 66.949 153.169,66.568 153.888,66.222 154.104 C 65.877 154.319,65.595 154.827,65.595 155.232 C 65.595 156.172,64.756 158.199,64.367 158.199 C 64.204 158.199,63.904 159.048,63.700 160.086 C 63.496 161.123,63.060 162.215,62.733 162.511 C 62.362 162.847,62.079 163.656,61.983 164.655 C 61.888 165.646,61.580 166.531,61.177 166.972 C 60.768 167.420,60.443 168.367,60.306 169.517 C 60.185 170.525,59.818 171.691,59.490 172.108 C 59.141 172.552,58.758 173.840,58.568 175.210 C 58.390 176.499,58.013 177.809,57.730 178.120 C 57.421 178.462,57.099 179.721,56.921 181.286 C 56.757 182.721,56.329 184.463,55.965 185.177 C 55.602 185.888,55.303 187.090,55.299 187.849 C 55.289 190.059,54.701 193.532,54.206 194.304 C 53.891 194.795,53.636 196.960,53.384 201.286 C 53.183 204.735,52.869 208.207,52.686 209.003 C 52.132 211.411,51.740 219.993,51.837 227.599 L 51.929 234.779 52.814 235.423 C 53.300 235.777,53.698 236.255,53.698 236.484 C 53.698 236.714,53.985 236.978,54.337 237.070 C 54.689 237.162,55.119 237.613,55.294 238.072 C 55.468 238.531,55.835 238.907,56.109 238.907 C 56.383 238.907,56.742 239.261,56.907 239.693 C 57.369 240.910,51.295 240.864,200.903 240.767 L 342.480 240.675 343.025 239.989 C 343.324 239.612,344.148 239.119,344.855 238.895 C 345.563 238.670,346.331 238.219,346.562 237.893 C 346.793 237.566,347.187 237.299,347.438 237.299 C 347.690 237.299,348.122 236.952,348.400 236.529 C 348.677 236.105,349.165 235.690,349.484 235.607 C 350.364 235.377,350.485 234.096,350.458 225.281 C 350.419 212.441,349.734 198.491,349.070 196.998 C 348.737 196.249,348.412 194.291,348.243 192.014 C 348.046 189.349,347.786 187.923,347.343 187.085 C 346.964 186.366,346.635 184.882,346.502 183.281 C 346.348 181.439,346.094 180.399,345.651 179.797 C 345.261 179.267,344.937 178.139,344.805 176.849 C 344.676 175.597,344.346 174.429,343.983 173.935 C 343.649 173.482,343.252 172.227,343.099 171.146 C 342.946 170.065,342.534 168.772,342.182 168.272 C 341.831 167.772,341.452 166.729,341.340 165.953 C 341.228 165.178,340.859 164.191,340.520 163.760 C 340.181 163.330,339.804 162.300,339.682 161.473 C 339.558 160.631,339.125 159.567,338.701 159.059 C 338.284 158.559,337.942 157.747,337.942 157.253 C 337.942 156.760,337.640 155.973,337.272 155.505 C 336.903 155.036,336.455 154.112,336.276 153.452 C 336.097 152.791,335.691 151.961,335.374 151.608 C 335.056 151.254,334.689 150.458,334.559 149.839 C 334.429 149.220,333.979 148.305,333.560 147.805 C 333.140 147.305,332.797 146.680,332.797 146.417 C 332.797 146.153,332.436 145.464,331.994 144.884 C 331.551 144.304,331.190 143.602,331.190 143.322 C 331.190 143.043,330.837 142.396,330.407 141.884 C 329.976 141.372,329.526 140.564,329.406 140.087 C 329.287 139.610,328.998 139.113,328.765 138.983 C 328.532 138.853,328.047 138.059,327.687 137.219 C 327.327 136.379,326.892 135.691,326.721 135.691 C 326.550 135.691,326.312 135.366,326.191 134.968 C 326.071 134.570,325.644 133.883,325.241 133.441 C 324.839 132.998,324.401 132.275,324.268 131.833 C 324.135 131.391,323.685 130.710,323.267 130.321 C 322.850 129.931,322.508 129.404,322.508 129.149 C 322.508 128.895,322.299 128.606,322.043 128.508 C 321.787 128.409,321.332 127.851,321.033 127.267 C 320.366 125.968,318.709 123.802,316.640 121.529 C 316.154 120.994,315.756 120.432,315.756 120.280 C 315.756 120.128,315.322 119.539,314.791 118.971 C 314.260 118.403,313.826 117.754,313.826 117.528 C 313.826 117.302,313.526 117.038,313.159 116.942 C 312.793 116.846,312.416 116.475,312.322 116.116 C 312.228 115.757,311.805 115.237,311.381 114.959 C 310.958 114.682,310.611 114.251,310.611 114.001 C 310.611 113.752,310.322 113.456,309.968 113.344 C 309.614 113.232,309.325 113.005,309.325 112.839 C 309.325 112.448,298.189 101.286,297.799 101.286 C 297.635 101.286,297.272 100.935,296.991 100.507 C 296.710 100.078,296.187 99.634,295.829 99.520 C 295.470 99.407,295.177 99.102,295.177 98.843 C 295.177 98.584,294.924 98.280,294.614 98.167 C 294.305 98.054,293.601 97.589,293.050 97.132 C 292.499 96.676,291.568 95.941,290.980 95.498 C 290.393 95.056,289.527 94.330,289.057 93.884 C 288.587 93.439,287.818 92.899,287.348 92.686 C 286.879 92.472,286.495 92.077,286.495 91.808 C 286.495 91.538,286.236 91.318,285.920 91.318 C 285.604 91.318,284.845 90.890,284.232 90.367 C 283.620 89.843,282.941 89.409,282.724 89.402 C 282.507 89.395,282.093 89.027,281.803 88.585 C 281.514 88.143,281.054 87.781,280.781 87.781 C 280.509 87.781,279.812 87.420,279.232 86.978 C 278.653 86.536,277.807 86.033,277.353 85.860 C 276.899 85.688,276.527 85.405,276.527 85.232 C 276.527 85.059,275.912 84.645,275.161 84.312 C 274.409 83.978,273.596 83.465,273.353 83.171 C 273.110 82.877,272.740 82.637,272.531 82.637 C 272.322 82.637,271.671 82.282,271.084 81.850 C 270.497 81.417,269.600 80.971,269.090 80.859 C 268.579 80.747,268.022 80.394,267.852 80.076 C 267.681 79.757,267.032 79.400,266.408 79.283 C 265.785 79.167,264.892 78.716,264.424 78.281 C 263.955 77.847,263.242 77.492,262.839 77.492 C 262.437 77.492,261.692 77.142,261.184 76.715 C 260.676 76.288,259.734 75.839,259.090 75.719 C 258.447 75.598,257.677 75.230,257.379 74.902 C 257.082 74.574,256.185 74.207,255.386 74.087 C 254.587 73.967,253.638 73.573,253.276 73.212 C 252.905 72.840,251.926 72.445,251.023 72.302 C 250.143 72.163,249.173 71.777,248.859 71.440 C 248.516 71.071,247.612 70.741,246.573 70.603 C 245.628 70.478,244.566 70.110,244.212 69.785 C 243.834 69.437,242.661 69.056,241.361 68.857 C 240.146 68.671,238.887 68.280,238.563 67.986 C 238.211 67.668,237.069 67.354,235.729 67.207 C 234.452 67.067,233.024 66.684,232.417 66.319 C 231.686 65.879,230.502 65.616,228.652 65.482 C 226.976 65.360,225.453 65.045,224.633 64.650 C 223.681 64.191,222.323 63.958,219.775 63.816 C 214.784 63.537,213.074 63.157,211.909 62.069 L 210.932 61.157 210.932 50.576 C 210.932 41.949,211.017 39.879,211.389 39.370 C 211.820 38.780,212.372 38.741,221.598 38.653 C 230.383 38.570,231.478 38.500,232.637 37.952 C 233.344 37.617,234.610 37.244,235.450 37.124 C 236.459 36.979,236.977 36.748,236.977 36.444 C 236.977 36.191,237.373 35.592,237.857 35.114 C 239.193 33.793,239.196 29.362,237.862 28.125 C 237.375 27.674,236.977 27.110,236.977 26.872 C 236.977 26.625,236.459 26.343,235.772 26.216 C 235.109 26.094,233.915 25.680,233.119 25.296 L 231.672 24.598 200.804 24.560 C 183.826 24.539,169.538 24.585,169.051 24.662 M213.654 84.195 C 214.922 84.652,216.340 84.890,217.835 84.894 C 220.857 84.902,224.447 85.443,225.064 85.983 C 225.343 86.228,226.948 86.560,228.705 86.737 C 230.807 86.948,232.041 87.227,232.431 87.580 C 232.769 87.886,234.003 88.232,235.367 88.403 C 236.794 88.582,238.050 88.942,238.559 89.319 C 239.020 89.660,240.209 90.040,241.201 90.164 C 242.254 90.296,243.272 90.639,243.647 90.989 C 244.001 91.318,244.962 91.689,245.782 91.812 C 246.603 91.935,247.615 92.303,248.031 92.630 C 248.446 92.958,249.494 93.384,250.358 93.577 C 251.222 93.771,252.218 94.191,252.572 94.510 C 252.926 94.829,253.715 95.185,254.325 95.299 C 254.936 95.414,255.732 95.783,256.094 96.118 C 256.456 96.453,257.375 96.892,258.136 97.094 C 258.896 97.296,259.598 97.669,259.696 97.923 C 259.793 98.177,260.414 98.531,261.076 98.709 C 261.737 98.887,262.612 99.323,263.021 99.677 C 263.430 100.032,263.965 100.322,264.212 100.322 C 264.458 100.322,265.008 100.670,265.435 101.097 C 265.861 101.523,266.630 101.964,267.144 102.077 C 267.658 102.190,268.387 102.637,268.764 103.070 C 269.141 103.504,269.656 103.859,269.909 103.859 C 270.162 103.859,270.778 104.200,271.278 104.618 C 271.777 105.036,272.512 105.480,272.910 105.605 C 273.308 105.729,273.784 106.111,273.967 106.453 C 274.150 106.794,274.489 107.074,274.720 107.074 C 274.952 107.074,275.417 107.379,275.754 107.751 C 276.091 108.124,276.891 108.696,277.533 109.024 C 278.174 109.351,278.784 109.842,278.889 110.115 C 278.994 110.388,279.291 110.611,279.549 110.611 C 279.807 110.611,280.302 110.973,280.650 111.415 C 280.998 111.857,281.432 112.219,281.615 112.219 C 281.797 112.219,282.231 112.580,282.579 113.023 C 282.927 113.465,283.316 113.826,283.444 113.826 C 284.182 113.826,295.075 124.371,297.657 127.584 C 298.327 128.418,299.055 129.215,299.277 129.357 C 299.498 129.498,299.678 129.820,299.678 130.073 C 299.678 130.325,300.040 130.769,300.482 131.059 C 300.924 131.348,301.286 131.782,301.286 132.023 C 301.286 132.264,301.648 132.698,302.090 132.988 C 302.532 133.277,302.894 133.692,302.894 133.910 C 302.894 134.127,303.199 134.581,303.571 134.918 C 303.944 135.255,304.516 136.055,304.844 136.697 C 305.171 137.338,305.662 137.948,305.935 138.053 C 306.208 138.158,306.431 138.521,306.431 138.860 C 306.431 139.199,306.793 139.713,307.235 140.003 C 307.677 140.292,308.039 140.723,308.039 140.960 C 308.039 141.197,308.473 141.937,309.003 142.605 C 309.534 143.272,309.968 143.993,309.968 144.207 C 309.968 144.420,310.252 144.852,310.599 145.166 C 310.946 145.480,311.402 146.262,311.613 146.904 C 311.823 147.546,312.251 148.252,312.564 148.473 C 312.877 148.694,313.224 149.294,313.337 149.806 C 313.449 150.318,313.814 150.984,314.148 151.286 C 314.482 151.588,314.844 152.242,314.953 152.740 C 315.063 153.238,315.436 153.973,315.784 154.374 C 316.132 154.775,316.501 155.474,316.605 155.927 C 316.709 156.381,317.126 157.259,317.531 157.878 C 317.936 158.497,318.369 159.510,318.493 160.129 C 318.617 160.748,318.998 161.559,319.340 161.931 C 319.682 162.304,320.047 163.172,320.152 163.861 C 320.257 164.549,320.633 165.433,320.989 165.826 C 321.345 166.218,321.750 167.259,321.889 168.140 C 322.029 169.021,322.429 170.147,322.779 170.642 C 323.129 171.138,323.513 172.253,323.632 173.121 C 323.751 173.988,324.133 175.083,324.482 175.554 C 324.857 176.062,325.194 177.187,325.310 178.318 C 325.421 179.397,325.765 180.577,326.103 181.035 C 326.480 181.548,326.810 182.812,327.000 184.479 C 327.165 185.928,327.538 187.477,327.829 187.920 C 328.179 188.455,328.464 189.993,328.675 192.486 C 328.870 194.807,329.177 196.528,329.477 196.985 C 330.043 197.849,330.519 202.521,330.535 207.377 C 330.541 209.223,330.712 212.363,330.914 214.355 C 331.295 218.118,331.113 219.324,329.991 220.445 C 329.600 220.836,311.401 220.900,201.102 220.900 L 72.669 220.900 71.993 220.224 C 71.059 219.291,71.183 205.237,72.144 203.055 C 72.531 202.175,72.803 200.311,73.005 197.153 C 73.234 193.578,73.438 192.310,73.908 191.526 C 74.311 190.856,74.582 189.604,74.711 187.819 C 74.843 186.001,75.112 184.776,75.539 184.052 C 75.887 183.462,76.271 182.071,76.392 180.959 C 76.605 179.000,76.986 177.838,77.532 177.478 C 77.678 177.382,77.937 176.315,78.108 175.107 C 78.302 173.742,78.654 172.652,79.039 172.227 C 79.379 171.851,79.751 170.828,79.864 169.954 C 79.977 169.080,80.342 168.067,80.676 167.703 C 81.010 167.339,81.382 166.431,81.504 165.685 C 81.626 164.938,81.998 163.982,82.330 163.559 C 82.663 163.136,83.073 162.177,83.241 161.429 C 83.409 160.680,83.830 159.756,84.177 159.375 C 84.524 158.993,84.901 158.159,85.015 157.520 C 85.129 156.881,85.500 156.106,85.840 155.799 C 86.180 155.491,86.558 154.784,86.679 154.227 C 86.801 153.671,87.243 152.806,87.662 152.307 C 88.081 151.807,88.424 151.130,88.424 150.804 C 88.424 150.477,88.786 149.780,89.228 149.255 C 89.670 148.729,90.032 148.133,90.032 147.929 C 90.032 147.726,90.381 147.210,90.807 146.784 C 91.234 146.358,91.675 145.587,91.789 145.070 C 91.902 144.554,92.349 143.799,92.782 143.393 C 93.215 142.986,93.569 142.411,93.569 142.116 C 93.569 141.821,93.870 141.306,94.239 140.973 C 94.607 140.639,95.106 139.894,95.348 139.315 C 95.589 138.737,95.937 138.264,96.121 138.264 C 96.304 138.264,96.666 137.757,96.925 137.138 C 97.183 136.519,97.550 136.013,97.741 136.013 C 97.931 136.013,98.212 135.687,98.366 135.289 C 98.519 134.891,99.094 134.003,99.644 133.316 C 100.193 132.628,100.643 131.951,100.643 131.810 C 100.643 131.670,100.918 131.467,101.254 131.361 C 101.590 131.254,101.952 130.820,102.059 130.396 C 102.165 129.972,102.541 129.533,102.895 129.421 C 103.248 129.309,103.537 129.031,103.537 128.804 C 103.537 128.577,103.935 127.965,104.421 127.444 C 104.908 126.924,105.812 125.880,106.431 125.124 C 108.108 123.077,114.347 116.810,116.718 114.791 C 117.860 113.818,118.989 112.842,119.227 112.621 C 119.465 112.400,119.850 112.219,120.082 112.219 C 120.314 112.219,120.582 111.919,120.678 111.552 C 120.774 111.185,121.146 110.808,121.505 110.714 C 121.863 110.620,122.384 110.197,122.661 109.773 C 122.939 109.350,123.371 109.003,123.623 109.003 C 123.874 109.003,124.268 108.735,124.499 108.408 C 124.731 108.081,125.354 107.589,125.885 107.316 C 126.416 107.042,127.126 106.514,127.462 106.142 C 127.799 105.770,128.324 105.466,128.630 105.466 C 128.936 105.466,129.424 105.105,129.713 104.662 C 130.003 104.220,130.431 103.859,130.666 103.859 C 130.900 103.859,131.439 103.551,131.864 103.175 C 132.289 102.799,133.107 102.290,133.682 102.045 C 134.256 101.800,134.727 101.472,134.727 101.317 C 134.727 101.161,135.304 100.804,136.009 100.522 C 136.714 100.239,137.582 99.717,137.938 99.361 C 138.294 99.005,138.852 98.714,139.178 98.714 C 139.504 98.714,140.179 98.364,140.676 97.936 C 141.174 97.508,142.051 97.070,142.625 96.963 C 143.198 96.855,143.746 96.562,143.843 96.312 C 143.939 96.061,144.640 95.676,145.401 95.455 C 146.162 95.235,147.169 94.741,147.639 94.358 C 148.109 93.975,149.088 93.566,149.814 93.450 C 150.540 93.334,151.406 92.966,151.739 92.634 C 152.072 92.301,152.974 91.927,153.744 91.801 C 154.514 91.675,155.442 91.299,155.806 90.965 C 156.170 90.631,157.183 90.261,158.057 90.143 C 158.931 90.024,160.029 89.645,160.497 89.301 C 160.965 88.956,162.050 88.608,162.909 88.527 C 163.767 88.445,165.193 88.040,166.077 87.626 C 167.051 87.170,168.636 86.789,170.096 86.659 C 171.520 86.532,172.729 86.245,173.047 85.959 C 173.651 85.415,176.938 84.914,180.000 84.898 C 181.228 84.892,182.426 84.680,183.043 84.361 C 185.578 83.050,210.117 82.917,213.654 84.195 M56.592 266.211 C 56.592 266.374,55.946 266.753,55.157 267.054 C 54.016 267.490,53.648 267.826,53.362 268.692 C 53.165 269.291,52.792 269.992,52.534 270.249 C 51.708 271.076,51.891 273.955,52.861 275.385 C 53.321 276.062,53.698 276.783,53.698 276.985 C 53.698 277.188,54.168 277.638,54.743 277.985 C 55.777 278.611,57.269 278.618,197.910 278.709 C 348.802 278.807,347.234 278.821,348.339 277.325 C 348.663 276.886,349.108 276.527,349.328 276.527 C 349.960 276.527,350.490 272.810,350.150 270.764 C 349.782 268.546,348.626 267.388,346.490 267.095 C 345.673 266.983,344.581 266.672,344.062 266.404 C 342.958 265.833,56.592 265.641,56.592 266.211 " stroke="none" fill="#fc0808" fill-rule="evenodd"></path><path id="path1" d="M0.000 160.772 L 0.000 321.543 200.000 321.543 L 400.000 321.543 400.000 160.772 L 400.000 0.000 200.000 0.000 L 0.000 0.000 0.000 160.772 M235.852 24.570 C 239.329 26.595,240.104 28.238,239.802 32.946 C 239.651 35.295,238.231 37.918,237.101 37.936 C 236.904 37.940,236.329 38.268,235.823 38.666 C 234.917 39.379,234.751 39.390,223.977 39.486 C 216.814 39.549,212.906 39.701,212.634 39.927 C 212.040 40.420,212.027 60.542,212.621 61.010 C 212.842 61.184,214.108 61.415,215.434 61.522 C 216.760 61.630,218.497 61.935,219.293 62.200 C 220.088 62.466,222.154 62.823,223.882 62.994 C 225.610 63.164,227.467 63.525,228.007 63.795 C 228.548 64.064,230.163 64.446,231.596 64.642 C 233.028 64.838,234.717 65.260,235.348 65.580 C 235.979 65.900,237.291 66.265,238.264 66.391 C 239.236 66.517,240.496 66.887,241.064 67.214 C 241.631 67.541,242.921 67.961,243.931 68.147 C 244.941 68.334,245.996 68.686,246.276 68.929 C 246.556 69.173,247.580 69.558,248.553 69.785 C 249.526 70.012,250.683 70.451,251.125 70.760 C 251.568 71.069,252.457 71.412,253.102 71.522 C 253.748 71.631,254.624 71.995,255.049 72.329 C 255.474 72.664,256.348 73.036,256.992 73.157 C 257.635 73.278,258.633 73.724,259.208 74.148 C 259.783 74.572,260.495 74.920,260.789 74.920 C 261.084 74.920,261.836 75.266,262.461 75.690 C 263.085 76.114,264.031 76.557,264.562 76.673 C 265.094 76.790,265.775 77.158,266.077 77.492 C 266.379 77.826,267.044 78.190,267.554 78.302 C 268.064 78.414,268.574 78.656,268.687 78.839 C 268.800 79.022,269.670 79.515,270.620 79.935 C 271.570 80.356,272.347 80.826,272.347 80.981 C 272.347 81.136,272.998 81.512,273.794 81.816 C 274.590 82.120,275.241 82.499,275.241 82.659 C 275.241 82.819,275.711 83.147,276.286 83.388 C 277.485 83.892,279.652 85.272,280.438 86.032 C 280.733 86.316,281.397 86.790,281.915 87.085 C 284.160 88.362,285.022 88.951,285.636 89.630 C 285.995 90.028,286.472 90.354,286.696 90.354 C 286.919 90.354,287.291 90.620,287.522 90.946 C 287.753 91.271,288.304 91.727,288.746 91.958 C 289.188 92.188,290.056 92.799,290.675 93.315 C 291.294 93.830,292.189 94.569,292.665 94.956 C 293.140 95.343,293.944 96.021,294.451 96.463 C 294.958 96.905,296.228 97.990,297.274 98.875 C 301.314 102.293,307.210 108.159,311.830 113.358 C 312.767 114.412,313.790 115.563,314.105 115.916 C 316.225 118.299,318.969 121.819,320.962 124.711 C 321.370 125.304,321.952 126.058,322.256 126.388 C 322.929 127.119,324.418 129.333,325.100 130.615 C 325.376 131.134,325.754 131.656,325.941 131.776 C 326.127 131.896,326.594 132.572,326.977 133.280 C 327.361 133.987,328.103 135.217,328.627 136.013 C 329.151 136.809,329.811 137.966,330.094 138.585 C 330.377 139.204,330.867 140.000,331.184 140.354 C 331.500 140.707,331.864 141.359,331.994 141.801 C 332.123 142.243,332.483 142.894,332.795 143.248 C 333.106 143.601,333.531 144.422,333.739 145.071 C 333.947 145.720,334.319 146.419,334.566 146.624 C 334.813 146.829,335.188 147.528,335.400 148.177 C 335.612 148.826,336.049 149.697,336.373 150.113 C 336.696 150.529,337.052 151.356,337.163 151.950 C 337.275 152.545,337.570 153.201,337.818 153.407 C 338.067 153.613,338.492 154.547,338.764 155.481 C 339.036 156.416,339.465 157.352,339.717 157.562 C 339.969 157.771,340.272 158.470,340.389 159.116 C 340.505 159.761,340.927 160.868,341.326 161.576 C 341.724 162.283,342.147 163.415,342.266 164.091 C 342.385 164.767,342.758 165.775,343.097 166.331 C 343.435 166.887,343.805 167.998,343.919 168.800 C 344.034 169.601,344.391 170.695,344.714 171.229 C 345.036 171.764,345.443 173.091,345.618 174.177 C 345.793 175.263,346.178 176.620,346.474 177.191 C 346.769 177.763,347.153 179.252,347.326 180.500 C 347.499 181.748,347.849 183.173,348.104 183.666 C 348.360 184.160,348.780 186.120,349.038 188.022 C 349.296 189.923,349.722 192.081,349.983 192.817 C 350.245 193.552,350.611 196.311,350.798 198.947 C 350.984 201.583,351.279 204.236,351.453 204.844 C 352.053 206.938,352.458 216.263,352.354 225.626 L 352.251 235.014 351.125 236.178 C 350.506 236.818,349.494 237.650,348.875 238.026 C 348.256 238.403,347.633 238.900,347.492 239.130 C 347.351 239.361,347.045 239.550,346.813 239.550 C 346.582 239.550,345.860 239.911,345.210 240.352 C 344.560 240.793,343.346 241.321,342.512 241.524 C 341.679 241.728,340.606 242.090,340.129 242.330 C 339.402 242.694,316.291 242.765,198.884 242.765 L 58.508 242.765 57.228 241.957 C 56.524 241.513,55.949 241.040,55.949 240.907 C 55.949 240.774,54.921 239.590,53.666 238.276 C 52.410 236.961,51.253 235.543,51.093 235.125 C 50.317 233.082,50.990 203.967,51.891 200.643 C 52.154 199.670,52.525 197.006,52.715 194.722 C 52.910 192.376,53.269 190.151,53.539 189.609 C 53.802 189.082,54.177 187.333,54.371 185.724 C 54.566 184.114,54.984 182.219,55.301 181.511 C 55.618 180.804,55.978 179.429,56.101 178.457 C 56.224 177.484,56.592 176.109,56.919 175.402 C 57.246 174.695,57.667 173.259,57.856 172.211 C 58.044 171.164,58.416 169.974,58.682 169.568 C 58.949 169.161,59.327 168.082,59.523 167.170 C 59.718 166.257,60.138 165.059,60.455 164.508 C 60.772 163.956,61.134 163.011,61.260 162.407 C 61.386 161.803,61.834 160.660,62.256 159.867 C 62.677 159.074,63.023 158.206,63.023 157.939 C 63.023 157.671,63.367 156.861,63.787 156.138 C 64.208 155.415,64.651 154.363,64.773 153.800 C 64.894 153.238,65.204 152.603,65.461 152.389 C 65.719 152.175,66.086 151.378,66.278 150.618 C 66.469 149.858,66.900 148.987,67.236 148.684 C 67.571 148.380,67.846 147.887,67.846 147.587 C 67.846 147.287,68.277 146.405,68.804 145.627 C 69.332 144.849,69.766 143.970,69.769 143.674 C 69.772 143.378,70.127 142.717,70.558 142.206 C 70.989 141.694,71.436 140.898,71.551 140.436 C 71.667 139.975,72.033 139.352,72.364 139.052 C 72.695 138.753,73.128 138.019,73.325 137.421 C 73.522 136.823,73.810 136.334,73.965 136.334 C 74.120 136.334,74.526 135.702,74.868 134.929 C 75.210 134.156,75.653 133.423,75.853 133.299 C 76.052 133.176,76.423 132.578,76.677 131.972 C 76.930 131.365,77.268 130.868,77.427 130.868 C 77.586 130.868,77.977 130.289,78.296 129.582 C 78.615 128.875,78.984 128.296,79.117 128.296 C 79.340 128.296,79.843 127.586,81.511 124.915 C 81.865 124.349,82.842 123.082,83.682 122.101 C 84.522 121.119,85.209 120.209,85.209 120.079 C 85.209 119.949,85.502 119.538,85.860 119.166 C 86.217 118.793,87.844 116.897,89.475 114.952 C 93.930 109.637,104.260 99.445,108.521 96.159 C 109.962 95.048,111.117 94.115,112.523 92.926 C 113.046 92.484,114.023 91.718,114.695 91.224 C 117.194 89.387,118.329 88.566,119.360 87.852 C 119.942 87.449,120.924 86.763,121.543 86.329 C 122.162 85.894,123.067 85.378,123.553 85.182 C 124.039 84.985,124.437 84.696,124.437 84.540 C 124.437 84.383,125.174 83.855,126.074 83.366 C 128.966 81.793,129.448 81.503,130.370 80.777 C 130.869 80.385,131.548 80.064,131.879 80.064 C 132.211 80.064,132.729 79.776,133.031 79.423 C 133.333 79.070,134.091 78.619,134.716 78.419 C 135.341 78.219,136.141 77.797,136.495 77.481 C 136.849 77.165,137.753 76.743,138.505 76.544 C 139.256 76.344,139.871 76.054,139.871 75.898 C 139.871 75.743,140.559 75.360,141.399 75.047 C 142.239 74.734,143.271 74.216,143.693 73.895 C 144.115 73.574,144.708 73.312,145.012 73.312 C 145.315 73.312,146.230 72.957,147.045 72.524 C 147.861 72.090,149.148 71.571,149.907 71.369 C 150.665 71.167,151.521 70.792,151.809 70.535 C 152.097 70.279,152.892 69.984,153.577 69.880 C 154.263 69.777,155.268 69.425,155.812 69.099 C 156.355 68.773,157.585 68.343,158.545 68.144 C 159.504 67.945,160.613 67.577,161.009 67.327 C 161.404 67.077,162.779 66.668,164.063 66.418 C 165.348 66.168,166.833 65.747,167.363 65.481 C 167.894 65.215,169.455 64.843,170.833 64.655 C 172.211 64.466,173.764 64.092,174.283 63.823 C 174.803 63.554,176.768 63.179,178.649 62.990 C 180.530 62.800,182.641 62.444,183.339 62.198 C 184.037 61.951,185.575 61.655,186.758 61.539 C 190.343 61.187,190.032 62.237,190.032 50.482 C 190.032 40.661,190.005 40.201,189.410 39.883 C 189.017 39.672,184.859 39.550,178.121 39.550 L 167.453 39.550 165.881 38.531 C 161.183 35.487,160.968 28.493,165.465 24.950 C 167.303 23.502,166.756 23.522,201.447 23.579 L 234.244 23.633 235.852 24.570 M195.338 84.751 C 193.559 84.984,187.019 85.548,182.637 85.845 C 180.008 86.023,177.807 86.344,177.057 86.657 C 176.375 86.942,174.623 87.310,173.162 87.476 C 171.702 87.642,169.872 88.054,169.096 88.391 C 168.320 88.728,166.889 89.106,165.916 89.230 C 164.944 89.355,163.714 89.718,163.183 90.038 C 162.653 90.358,161.362 90.776,160.316 90.968 C 159.269 91.160,158.182 91.526,157.899 91.782 C 157.616 92.037,156.669 92.407,155.793 92.603 C 154.917 92.800,153.762 93.226,153.226 93.552 C 152.690 93.877,151.787 94.241,151.221 94.361 C 150.654 94.480,149.859 94.837,149.452 95.152 C 149.046 95.468,148.135 95.910,147.428 96.135 C 146.720 96.360,145.915 96.741,145.638 96.982 C 145.362 97.223,144.638 97.586,144.031 97.790 C 143.423 97.993,142.637 98.409,142.283 98.714 C 141.929 99.019,141.173 99.424,140.602 99.615 C 140.031 99.806,139.380 100.126,139.155 100.327 C 138.661 100.767,136.591 102.015,135.048 102.802 C 134.429 103.118,133.873 103.489,133.813 103.626 C 133.752 103.763,133.173 104.167,132.527 104.523 C 131.428 105.128,129.968 106.104,128.457 107.243 C 126.517 108.705,124.805 110.028,123.911 110.755 C 123.356 111.206,122.799 111.576,122.673 111.576 C 122.547 111.576,122.050 111.973,121.567 112.460 C 121.085 112.946,119.848 114.068,118.819 114.952 C 117.790 115.836,115.269 118.223,113.217 120.257 C 110.001 123.445,108.303 125.260,103.859 130.267 C 103.416 130.765,102.259 132.281,101.286 133.636 C 100.314 134.991,99.228 136.412,98.875 136.795 C 98.521 137.177,98.064 137.845,97.860 138.279 C 97.655 138.713,97.257 139.357,96.975 139.711 C 95.948 140.996,94.864 142.622,94.533 143.373 C 94.347 143.795,93.836 144.566,93.399 145.085 C 92.962 145.605,92.605 146.236,92.605 146.488 C 92.605 146.739,92.345 147.205,92.028 147.522 C 91.711 147.839,91.253 148.599,91.011 149.210 C 90.769 149.821,90.323 150.611,90.020 150.965 C 89.716 151.318,89.291 152.160,89.075 152.836 C 88.858 153.512,88.493 154.136,88.264 154.224 C 88.034 154.313,87.690 155.006,87.499 155.765 C 87.308 156.524,86.933 157.327,86.665 157.549 C 86.397 157.771,86.019 158.546,85.823 159.271 C 85.628 159.995,85.193 160.938,84.856 161.366 C 84.520 161.794,84.244 162.400,84.244 162.712 C 84.244 163.024,83.834 164.058,83.333 165.011 C 82.832 165.964,82.331 167.299,82.221 167.978 C 82.111 168.656,81.803 169.453,81.536 169.748 C 81.269 170.042,80.887 171.073,80.686 172.039 C 80.486 173.004,80.118 174.117,79.869 174.511 C 79.619 174.905,79.195 176.277,78.925 177.558 C 78.655 178.840,78.233 180.197,77.987 180.572 C 77.741 180.948,77.385 182.368,77.196 183.728 C 77.006 185.088,76.624 186.640,76.346 187.178 C 76.068 187.716,75.690 189.555,75.507 191.265 C 75.323 192.974,74.967 194.952,74.715 195.659 C 74.463 196.367,74.114 198.826,73.938 201.125 C 73.762 203.424,73.460 206.825,73.266 208.682 C 73.073 210.539,72.843 213.438,72.757 215.126 L 72.599 218.193 73.453 218.582 C 74.116 218.884,102.752 218.971,201.777 218.971 L 329.248 218.971 329.461 218.125 C 329.836 216.631,329.336 204.804,328.819 202.952 C 328.557 202.012,328.173 199.336,327.965 197.006 C 327.758 194.676,327.382 192.371,327.130 191.884 C 326.879 191.397,326.471 189.587,326.224 187.863 C 325.977 186.138,325.555 184.293,325.285 183.762 C 325.015 183.232,324.645 181.857,324.462 180.707 C 324.279 179.558,323.849 178.069,323.508 177.400 C 323.166 176.730,322.789 175.471,322.669 174.602 C 322.550 173.733,322.260 172.864,322.026 172.669 C 321.792 172.475,321.423 171.563,321.206 170.643 C 320.990 169.724,320.470 168.321,320.053 167.527 C 319.635 166.732,319.293 165.775,319.293 165.400 C 319.293 165.024,319.017 164.367,318.681 163.939 C 318.344 163.511,317.896 162.515,317.686 161.725 C 317.476 160.935,317.104 160.065,316.860 159.791 C 316.615 159.517,316.191 158.656,315.916 157.878 C 315.642 157.100,315.228 156.239,314.996 155.965 C 314.765 155.690,314.380 154.960,314.142 154.341 C 313.904 153.722,313.446 152.870,313.125 152.449 C 312.803 152.027,312.540 151.504,312.540 151.286 C 312.540 151.069,312.219 150.483,311.828 149.985 C 311.436 149.486,310.893 148.684,310.622 148.201 C 310.351 147.719,309.734 146.624,309.251 145.768 C 308.769 144.912,307.939 143.633,307.408 142.926 C 306.877 142.219,306.187 141.143,305.874 140.535 C 305.561 139.927,305.016 139.109,304.662 138.716 C 304.309 138.323,303.585 137.402,303.055 136.669 C 302.524 135.936,301.692 134.854,301.206 134.265 C 300.719 133.677,300.322 133.050,300.322 132.872 C 300.322 132.695,299.960 132.313,299.518 132.023 C 299.076 131.733,298.714 131.362,298.714 131.197 C 298.714 130.339,285.031 116.636,281.528 113.987 C 281.060 113.633,280.245 112.946,279.717 112.460 C 279.188 111.973,278.649 111.576,278.517 111.576 C 278.386 111.576,277.822 111.178,277.265 110.691 C 276.708 110.205,275.729 109.445,275.090 109.003 C 274.451 108.561,273.442 107.838,272.847 107.395 C 272.252 106.953,271.354 106.343,270.851 106.038 C 270.347 105.734,269.646 105.304,269.293 105.083 C 268.939 104.862,268.071 104.320,267.363 103.879 C 265.461 102.691,264.281 102.026,263.023 101.433 C 262.404 101.142,261.608 100.643,261.254 100.325 C 260.900 100.008,260.156 99.652,259.599 99.534 C 259.043 99.417,258.336 99.042,258.028 98.702 C 257.720 98.362,256.980 97.992,256.384 97.880 C 255.788 97.768,254.976 97.425,254.579 97.117 C 254.183 96.809,253.280 96.368,252.574 96.137 C 251.867 95.907,250.652 95.379,249.873 94.965 C 249.094 94.551,248.137 94.212,247.745 94.212 C 247.353 94.212,246.687 93.942,246.265 93.611 C 245.843 93.281,244.756 92.852,243.848 92.658 C 242.941 92.465,241.711 92.028,241.115 91.689 C 240.519 91.350,239.318 90.982,238.445 90.872 C 237.573 90.762,236.508 90.442,236.080 90.161 C 235.651 89.880,234.096 89.456,232.623 89.217 C 231.150 88.979,229.507 88.558,228.973 88.282 C 228.440 88.005,226.619 87.636,224.928 87.461 C 223.236 87.285,221.322 86.920,220.673 86.649 C 219.942 86.343,217.587 86.036,214.489 85.843 C 211.737 85.670,208.039 85.390,206.270 85.220 C 202.189 84.826,196.591 84.586,195.338 84.751 M348.005 265.916 C 350.408 267.154,351.874 269.112,352.275 271.621 C 352.489 272.961,351.935 275.563,351.435 275.563 C 351.265 275.563,351.125 275.775,351.125 276.034 C 351.125 276.856,349.209 278.725,347.974 279.108 C 347.320 279.311,346.278 279.717,345.659 280.012 C 344.616 280.508,334.083 280.553,200.807 280.629 L 57.081 280.712 55.085 279.688 C 48.909 276.520,49.590 266.497,56.087 264.930 C 56.630 264.800,122.042 264.715,201.447 264.742 L 345.820 264.791 348.005 265.916 " stroke="none" fill="#fcfcfc" fill-rule="evenodd"></path><path id="path2" d="M167.650 23.771 C 161.508 25.277,160.349 34.947,165.881 38.531 L 167.453 39.550 178.121 39.550 C 184.859 39.550,189.017 39.672,189.410 39.883 C 190.005 40.201,190.032 40.661,190.032 50.482 C 190.032 62.237,190.343 61.187,186.758 61.539 C 185.575 61.655,184.037 61.951,183.339 62.198 C 182.641 62.444,180.530 62.800,178.649 62.990 C 176.768 63.179,174.803 63.554,174.283 63.823 C 173.764 64.092,172.211 64.466,170.833 64.655 C 169.455 64.843,167.894 65.215,167.363 65.481 C 166.833 65.747,165.348 66.168,164.063 66.418 C 162.779 66.668,161.404 67.077,161.009 67.327 C 160.613 67.577,159.504 67.945,158.545 68.144 C 157.585 68.343,156.355 68.773,155.812 69.099 C 155.268 69.425,154.263 69.777,153.577 69.880 C 152.892 69.984,152.097 70.279,151.809 70.535 C 151.521 70.792,150.665 71.167,149.907 71.369 C 149.148 71.571,147.861 72.090,147.045 72.524 C 146.230 72.957,145.315 73.312,145.012 73.312 C 144.708 73.312,144.115 73.574,143.693 73.895 C 143.271 74.216,142.239 74.734,141.399 75.047 C 140.559 75.360,139.871 75.743,139.871 75.898 C 139.871 76.054,139.256 76.344,138.505 76.544 C 137.753 76.743,136.849 77.165,136.495 77.481 C 136.141 77.797,135.341 78.219,134.716 78.419 C 134.091 78.619,133.333 79.070,133.031 79.423 C 132.729 79.776,132.211 80.064,131.879 80.064 C 131.548 80.064,130.869 80.385,130.370 80.777 C 129.448 81.503,128.966 81.793,126.074 83.366 C 125.174 83.855,124.437 84.383,124.437 84.540 C 124.437 84.696,124.039 84.985,123.553 85.182 C 123.067 85.378,122.162 85.894,121.543 86.329 C 120.924 86.763,119.942 87.449,119.360 87.852 C 118.329 88.566,117.194 89.387,114.695 91.224 C 114.023 91.718,113.046 92.484,112.523 92.926 C 111.117 94.115,109.962 95.048,108.521 96.159 C 104.260 99.445,93.930 109.637,89.475 114.952 C 87.844 116.897,86.217 118.793,85.860 119.166 C 85.502 119.538,85.209 119.949,85.209 120.079 C 85.209 120.209,84.522 121.119,83.682 122.101 C 82.842 123.082,81.865 124.349,81.511 124.915 C 79.843 127.586,79.340 128.296,79.117 128.296 C 78.984 128.296,78.615 128.875,78.296 129.582 C 77.977 130.289,77.586 130.868,77.427 130.868 C 77.268 130.868,76.930 131.365,76.677 131.972 C 76.423 132.578,76.052 133.176,75.853 133.299 C 75.653 133.423,75.210 134.156,74.868 134.929 C 74.526 135.702,74.120 136.334,73.965 136.334 C 73.810 136.334,73.522 136.823,73.325 137.421 C 73.128 138.019,72.695 138.753,72.364 139.052 C 72.033 139.352,71.667 139.975,71.551 140.436 C 71.436 140.898,70.989 141.694,70.558 142.206 C 70.127 142.717,69.772 143.378,69.769 143.674 C 69.766 143.970,69.332 144.849,68.804 145.627 C 68.277 146.405,67.846 147.287,67.846 147.587 C 67.846 147.887,67.571 148.380,67.236 148.684 C 66.900 148.987,66.469 149.858,66.278 150.618 C 66.086 151.378,65.719 152.175,65.461 152.389 C 65.204 152.603,64.894 153.238,64.773 153.800 C 64.651 154.363,64.208 155.415,63.787 156.138 C 63.367 156.861,63.023 157.671,63.023 157.939 C 63.023 158.206,62.677 159.074,62.256 159.867 C 61.834 160.660,61.386 161.803,61.260 162.407 C 61.134 163.011,60.772 163.956,60.455 164.508 C 60.138 165.059,59.718 166.257,59.523 167.170 C 59.327 168.082,58.949 169.161,58.682 169.568 C 58.416 169.974,58.044 171.164,57.856 172.211 C 57.667 173.259,57.246 174.695,56.919 175.402 C 56.592 176.109,56.224 177.484,56.101 178.457 C 55.978 179.429,55.618 180.804,55.301 181.511 C 54.984 182.219,54.566 184.114,54.371 185.724 C 54.177 187.333,53.802 189.082,53.539 189.609 C 53.269 190.151,52.910 192.376,52.715 194.722 C 52.525 197.006,52.154 199.670,51.891 200.643 C 50.990 203.967,50.317 233.082,51.093 235.125 C 51.253 235.543,52.410 236.961,53.666 238.276 C 54.921 239.590,55.949 240.774,55.949 240.907 C 55.949 241.040,56.524 241.513,57.228 241.957 L 58.508 242.765 198.884 242.765 C 316.291 242.765,339.402 242.694,340.129 242.330 C 340.606 242.090,341.679 241.728,342.512 241.524 C 343.346 241.321,344.560 240.793,345.210 240.352 C 345.860 239.911,346.582 239.550,346.813 239.550 C 347.045 239.550,347.351 239.361,347.492 239.130 C 347.633 238.900,348.256 238.403,348.875 238.026 C 349.494 237.650,350.506 236.818,351.125 236.178 L 352.251 235.014 352.354 225.626 C 352.458 216.263,352.053 206.938,351.453 204.844 C 351.279 204.236,350.984 201.583,350.798 198.947 C 350.611 196.311,350.245 193.552,349.983 192.817 C 349.722 192.081,349.296 189.923,349.038 188.022 C 348.780 186.120,348.360 184.160,348.104 183.666 C 347.849 183.173,347.499 181.748,347.326 180.500 C 347.153 179.252,346.769 177.763,346.474 177.191 C 346.178 176.620,345.793 175.263,345.618 174.177 C 345.443 173.091,345.036 171.764,344.714 171.229 C 344.391 170.695,344.034 169.601,343.919 168.800 C 343.805 167.998,343.435 166.887,343.097 166.331 C 342.758 165.775,342.385 164.767,342.266 164.091 C 342.147 163.415,341.724 162.283,341.326 161.576 C 340.927 160.868,340.505 159.761,340.389 159.116 C 340.272 158.470,339.969 157.771,339.717 157.562 C 339.465 157.352,339.036 156.416,338.764 155.481 C 338.492 154.547,338.067 153.613,337.818 153.407 C 337.570 153.201,337.275 152.545,337.163 151.950 C 337.052 151.356,336.696 150.529,336.373 150.113 C 336.049 149.697,335.612 148.826,335.400 148.177 C 335.188 147.528,334.813 146.829,334.566 146.624 C 334.319 146.419,333.947 145.720,333.739 145.071 C 333.531 144.422,333.106 143.601,332.795 143.248 C 332.483 142.894,332.123 142.243,331.994 141.801 C 331.864 141.359,331.500 140.707,331.184 140.354 C 330.867 140.000,330.377 139.204,330.094 138.585 C 329.811 137.966,329.151 136.809,328.627 136.013 C 328.103 135.217,327.361 133.987,326.977 133.280 C 326.594 132.572,326.127 131.896,325.941 131.776 C 325.754 131.656,325.376 131.134,325.100 130.615 C 324.418 129.333,322.929 127.119,322.256 126.388 C 321.952 126.058,321.370 125.304,320.962 124.711 C 318.969 121.819,316.225 118.299,314.105 115.916 C 313.790 115.563,312.767 114.412,311.830 113.358 C 307.210 108.159,301.314 102.293,297.274 98.875 C 296.228 97.990,294.958 96.905,294.451 96.463 C 293.944 96.021,293.140 95.343,292.665 94.956 C 292.189 94.569,291.294 93.830,290.675 93.315 C 290.056 92.799,289.188 92.188,288.746 91.958 C 288.304 91.727,287.753 91.271,287.522 90.946 C 287.291 90.620,286.919 90.354,286.696 90.354 C 286.472 90.354,285.995 90.028,285.636 89.630 C 285.022 88.951,284.160 88.362,281.915 87.085 C 281.397 86.790,280.733 86.316,280.438 86.032 C 279.652 85.272,277.485 83.892,276.286 83.388 C 275.711 83.147,275.241 82.819,275.241 82.659 C 275.241 82.499,274.590 82.120,273.794 81.816 C 272.998 81.512,272.347 81.136,272.347 80.981 C 272.347 80.826,271.570 80.356,270.620 79.935 C 269.670 79.515,268.800 79.022,268.687 78.839 C 268.574 78.656,268.064 78.414,267.554 78.302 C 267.044 78.190,266.379 77.826,266.077 77.492 C 265.775 77.158,265.094 76.790,264.562 76.673 C 264.031 76.557,263.085 76.114,262.461 75.690 C 261.836 75.266,261.084 74.920,260.789 74.920 C 260.495 74.920,259.783 74.572,259.208 74.148 C 258.633 73.724,257.635 73.278,256.992 73.157 C 256.348 73.036,255.474 72.664,255.049 72.329 C 254.624 71.995,253.748 71.631,253.102 71.522 C 252.457 71.412,251.568 71.069,251.125 70.760 C 250.683 70.451,249.526 70.012,248.553 69.785 C 247.580 69.558,246.556 69.173,246.276 68.929 C 245.996 68.686,244.941 68.334,243.931 68.147 C 242.921 67.961,241.631 67.541,241.064 67.214 C 240.496 66.887,239.236 66.517,238.264 66.391 C 237.291 66.265,235.979 65.900,235.348 65.580 C 234.717 65.260,233.028 64.838,231.596 64.642 C 230.163 64.446,228.548 64.064,228.007 63.795 C 227.467 63.525,225.610 63.164,223.882 62.994 C 222.154 62.823,220.088 62.466,219.293 62.200 C 218.497 61.935,216.760 61.630,215.434 61.522 C 214.108 61.415,212.842 61.184,212.621 61.010 C 212.027 60.542,212.040 40.420,212.634 39.927 C 212.906 39.701,216.814 39.549,223.977 39.486 C 234.751 39.390,234.917 39.379,235.823 38.666 C 236.329 38.268,236.904 37.940,237.101 37.936 C 238.231 37.918,239.651 35.295,239.802 32.946 C 240.104 28.238,239.329 26.595,235.852 24.570 L 234.244 23.633 201.447 23.579 C 183.408 23.550,168.200 23.636,167.650 23.771 M235.434 25.177 C 238.525 26.695,239.295 28.072,239.170 31.853 C 239.046 35.561,238.416 36.563,235.247 38.082 L 233.280 39.025 222.830 39.156 C 216.328 39.238,212.228 39.413,211.977 39.619 C 211.671 39.871,211.576 42.423,211.576 50.361 C 211.576 61.828,211.616 62.058,213.646 62.058 C 214.077 62.058,215.343 62.267,216.459 62.522 C 217.575 62.777,219.975 63.146,221.792 63.343 C 223.609 63.539,225.682 63.906,226.399 64.159 C 227.115 64.412,229.017 64.847,230.624 65.126 C 232.231 65.405,233.922 65.827,234.382 66.065 C 234.841 66.303,235.939 66.602,236.821 66.729 C 237.703 66.856,239.220 67.286,240.193 67.684 C 241.166 68.081,242.540 68.508,243.248 68.632 C 243.955 68.756,244.846 69.059,245.227 69.304 C 245.609 69.550,246.622 69.919,247.478 70.125 C 248.335 70.330,249.373 70.709,249.787 70.966 C 250.200 71.223,251.283 71.655,252.194 71.926 C 253.105 72.196,254.141 72.622,254.497 72.873 C 254.853 73.123,255.718 73.483,256.420 73.672 C 257.121 73.862,258.045 74.292,258.473 74.629 C 258.901 74.966,259.412 75.240,259.609 75.238 C 259.973 75.235,266.995 78.758,269.936 80.419 C 273.533 82.451,274.502 83.021,275.884 83.922 C 276.680 84.441,277.838 85.166,278.457 85.533 C 281.018 87.050,288.734 92.594,291.961 95.234 C 303.416 104.607,314.359 116.295,322.251 127.586 C 322.657 128.168,323.352 129.140,323.794 129.746 C 324.236 130.352,325.017 131.540,325.529 132.386 C 326.041 133.231,326.692 134.271,326.976 134.695 C 327.620 135.659,328.627 137.315,329.802 139.342 C 330.300 140.200,331.099 141.575,331.577 142.397 C 332.056 143.218,332.674 144.397,332.952 145.016 C 333.229 145.635,333.598 146.359,333.772 146.624 C 333.945 146.889,334.321 147.613,334.607 148.232 C 334.893 148.850,335.335 149.719,335.590 150.161 C 335.844 150.603,336.142 151.252,336.251 151.604 C 336.360 151.956,336.858 153.020,337.357 153.968 C 337.856 154.916,338.264 155.858,338.265 156.062 C 338.266 156.265,338.699 157.299,339.228 158.360 C 339.758 159.421,340.192 160.506,340.193 160.772 C 340.194 161.037,340.459 161.688,340.781 162.219 C 341.103 162.749,341.546 163.907,341.765 164.791 C 341.985 165.675,342.365 166.709,342.611 167.088 C 342.856 167.467,343.285 168.759,343.563 169.960 C 343.841 171.160,344.214 172.317,344.392 172.531 C 344.569 172.744,344.923 173.922,345.179 175.148 C 345.435 176.373,345.861 177.896,346.127 178.532 C 346.392 179.168,346.772 180.749,346.972 182.046 C 347.171 183.344,347.531 184.882,347.773 185.466 C 348.014 186.049,348.367 187.785,348.556 189.324 C 348.746 190.863,349.175 193.280,349.510 194.695 C 349.844 196.109,350.282 199.582,350.482 202.412 C 350.682 205.241,350.980 208.497,351.145 209.646 C 351.310 210.796,351.538 216.584,351.651 222.508 C 351.887 234.821,351.890 234.807,349.393 236.663 C 348.565 237.278,347.366 238.179,346.729 238.666 C 346.092 239.152,345.432 239.550,345.263 239.550 C 345.093 239.550,344.545 239.842,344.044 240.198 C 343.543 240.555,341.784 241.131,340.136 241.479 C 335.919 242.369,59.863 242.500,58.147 241.613 C 57.605 241.333,56.274 240.149,55.189 238.981 C 54.103 237.814,52.802 236.431,52.297 235.907 L 51.378 234.955 51.543 220.774 C 51.670 209.880,51.823 205.995,52.204 204.019 C 52.477 202.605,52.844 199.772,53.019 197.726 C 53.195 195.679,53.627 192.713,53.979 191.134 C 54.331 189.555,54.838 187.178,55.106 185.852 C 56.094 180.967,56.887 177.704,57.394 176.437 C 57.680 175.722,58.047 174.438,58.209 173.583 C 58.371 172.728,58.779 171.412,59.115 170.660 C 59.451 169.908,59.829 168.714,59.954 168.006 C 60.080 167.299,60.442 166.286,60.759 165.756 C 61.077 165.225,61.513 164.031,61.729 163.102 C 61.946 162.173,62.241 161.339,62.387 161.250 C 62.532 161.160,62.963 160.149,63.344 159.003 C 63.725 157.858,64.167 156.840,64.325 156.742 C 64.483 156.645,64.776 155.957,64.976 155.214 C 65.176 154.472,65.595 153.501,65.907 153.058 C 66.220 152.614,66.583 151.903,66.715 151.479 C 66.974 150.646,70.441 143.844,71.812 141.479 C 72.273 140.683,73.022 139.381,73.475 138.585 C 74.867 136.145,75.569 135.036,78.365 130.868 C 82.653 124.475,84.779 121.585,87.781 118.066 C 88.047 117.755,89.132 116.422,90.193 115.104 C 94.840 109.332,109.652 95.476,115.277 91.640 C 115.926 91.198,116.932 90.438,117.515 89.952 C 118.097 89.465,118.718 89.068,118.894 89.068 C 119.070 89.068,119.403 88.840,119.634 88.562 C 119.865 88.284,120.570 87.771,121.200 87.423 C 122.300 86.817,124.205 85.548,124.955 84.923 C 125.151 84.759,125.901 84.325,126.621 83.957 C 127.341 83.590,128.023 83.140,128.135 82.958 C 128.248 82.776,128.800 82.411,129.363 82.147 C 129.925 81.883,131.254 81.167,132.315 80.555 C 133.376 79.944,134.823 79.151,135.531 78.793 C 136.238 78.436,137.034 78.008,137.299 77.842 C 138.403 77.153,142.526 75.241,142.908 75.241 C 143.136 75.241,143.678 74.961,144.114 74.618 C 144.550 74.275,145.329 73.896,145.845 73.776 C 146.362 73.656,147.363 73.230,148.071 72.831 C 148.778 72.431,149.863 71.998,150.482 71.869 C 151.101 71.740,152.042 71.377,152.572 71.061 C 153.103 70.746,154.043 70.382,154.662 70.253 C 155.281 70.124,156.301 69.758,156.928 69.441 C 157.555 69.124,158.641 68.761,159.340 68.635 C 160.039 68.510,161.407 68.081,162.379 67.684 C 163.352 67.286,164.869 66.856,165.751 66.729 C 166.633 66.602,167.775 66.280,168.289 66.014 C 168.802 65.749,170.425 65.337,171.895 65.099 C 173.365 64.861,175.201 64.451,175.976 64.188 C 176.751 63.925,178.820 63.551,180.573 63.358 C 184.334 62.944,189.344 61.955,190.312 61.437 C 191.148 60.990,191.418 40.182,190.595 39.649 C 190.374 39.506,185.201 39.317,179.100 39.228 L 168.006 39.068 166.321 37.976 C 161.229 34.679,162.087 27.032,167.846 24.376 C 168.111 24.253,183.014 24.181,200.965 24.215 L 233.601 24.277 235.434 25.177 M191.318 84.115 C 190.699 84.189,188.529 84.464,186.495 84.727 C 184.461 84.990,181.423 85.350,179.743 85.528 C 178.063 85.706,176.021 86.056,175.205 86.305 C 174.389 86.555,172.581 86.932,171.186 87.143 C 169.791 87.355,168.288 87.713,167.846 87.939 C 167.404 88.166,166.174 88.526,165.113 88.740 C 164.051 88.954,162.599 89.383,161.886 89.693 C 161.172 90.003,159.833 90.438,158.911 90.659 C 157.988 90.880,157.155 91.187,157.060 91.341 C 156.965 91.495,155.886 91.919,154.662 92.283 C 153.439 92.647,152.357 93.076,152.258 93.236 C 152.159 93.396,151.304 93.752,150.358 94.027 C 149.411 94.302,148.456 94.746,148.234 95.013 C 148.013 95.280,147.684 95.498,147.505 95.498 C 147.154 95.498,143.169 97.471,140.032 99.197 C 138.971 99.781,137.669 100.491,137.138 100.774 C 136.608 101.057,135.523 101.722,134.727 102.253 C 133.931 102.784,132.868 103.471,132.366 103.779 C 131.863 104.088,130.416 105.091,129.150 106.007 C 127.884 106.924,126.366 108.009,125.776 108.419 C 123.293 110.143,116.200 116.310,112.643 119.837 C 107.472 124.964,107.037 125.455,99.855 134.289 C 99.404 134.843,99.035 135.441,99.035 135.616 C 99.035 135.791,98.799 136.131,98.509 136.371 C 97.996 136.796,96.960 138.241,95.659 140.342 C 95.305 140.913,94.740 141.801,94.402 142.314 C 94.064 142.828,93.474 143.754,93.091 144.373 C 92.708 144.992,92.024 146.077,91.571 146.785 C 90.740 148.082,90.411 148.678,88.906 151.608 C 88.451 152.492,87.874 153.577,87.624 154.019 C 87.373 154.461,86.971 155.257,86.730 155.788 C 86.489 156.318,86.131 157.042,85.933 157.395 C 85.085 158.917,83.601 162.307,83.600 162.726 C 83.599 162.978,83.318 163.643,82.975 164.206 C 82.633 164.768,82.186 165.853,81.983 166.617 C 81.779 167.381,81.355 168.441,81.039 168.971 C 80.723 169.502,80.362 170.508,80.237 171.207 C 80.113 171.906,79.751 172.991,79.434 173.618 C 79.117 174.246,78.695 175.526,78.496 176.463 C 78.297 177.400,77.924 178.576,77.665 179.075 C 77.407 179.575,77.040 180.961,76.849 182.155 C 76.658 183.349,76.285 184.845,76.019 185.481 C 75.754 186.116,75.388 187.726,75.207 189.058 C 75.026 190.389,74.609 192.564,74.280 193.891 C 73.951 195.217,73.588 197.460,73.473 198.875 C 73.358 200.289,72.985 203.664,72.644 206.373 C 71.893 212.359,71.818 218.242,72.482 219.151 C 72.932 219.767,74.656 219.776,201.019 219.861 L 329.100 219.947 329.662 219.263 C 330.571 218.157,330.201 204.541,329.137 199.944 C 328.878 198.825,328.502 196.423,328.303 194.606 C 328.104 192.789,327.728 190.702,327.469 189.967 C 327.210 189.232,326.841 187.608,326.649 186.357 C 326.457 185.107,326.089 183.577,325.831 182.958 C 325.574 182.339,325.156 180.850,324.902 179.650 C 324.648 178.449,324.241 177.075,323.996 176.595 C 323.751 176.116,323.383 174.930,323.177 173.959 C 322.972 172.989,322.604 171.891,322.361 171.519 C 322.117 171.147,321.750 170.204,321.546 169.424 C 321.342 168.644,320.824 167.291,320.394 166.416 C 319.965 165.541,319.614 164.629,319.614 164.390 C 319.614 164.150,319.332 163.419,318.986 162.765 C 318.641 162.111,317.832 160.418,317.189 159.003 C 316.547 157.588,315.889 156.214,315.727 155.949 C 315.565 155.683,315.071 154.743,314.628 153.859 C 314.186 152.974,313.398 151.527,312.878 150.643 C 312.357 149.759,311.708 148.601,311.434 148.071 C 310.955 147.143,309.518 144.822,308.224 142.887 C 306.205 139.869,305.335 138.607,304.478 137.460 C 303.949 136.752,303.272 135.812,302.973 135.370 C 299.700 130.538,288.620 118.982,281.833 113.321 C 281.302 112.879,280.579 112.259,280.225 111.944 C 279.871 111.629,279.220 111.132,278.778 110.840 C 278.336 110.548,277.395 109.875,276.688 109.345 C 275.981 108.814,274.534 107.804,273.473 107.100 C 272.412 106.395,271.109 105.515,270.579 105.143 C 268.566 103.733,266.085 102.251,265.736 102.251 C 265.536 102.251,265.111 101.961,264.791 101.608 C 264.471 101.254,264.035 100.965,263.821 100.965 C 263.608 100.965,262.943 100.634,262.344 100.229 C 261.744 99.825,260.748 99.295,260.129 99.051 C 259.510 98.807,258.777 98.417,258.500 98.183 C 258.223 97.949,257.500 97.589,256.892 97.382 C 256.285 97.176,255.404 96.740,254.934 96.414 C 254.465 96.087,253.886 95.819,253.648 95.819 C 253.410 95.818,252.347 95.385,251.286 94.855 C 250.225 94.326,249.140 93.892,248.875 93.891 C 248.609 93.889,247.922 93.601,247.347 93.251 C 246.772 92.900,245.615 92.449,244.775 92.247 C 243.935 92.046,242.937 91.689,242.558 91.454 C 242.179 91.219,240.887 90.799,239.687 90.521 C 238.486 90.242,237.330 89.870,237.118 89.693 C 236.905 89.517,235.631 89.162,234.287 88.905 C 232.942 88.648,231.332 88.224,230.708 87.963 C 230.085 87.703,228.419 87.331,227.006 87.138 C 225.594 86.944,223.750 86.577,222.910 86.321 C 222.070 86.065,219.068 85.634,216.238 85.363 C 213.408 85.091,210.225 84.719,209.164 84.535 C 207.205 84.197,193.377 83.871,191.318 84.115 M206.270 85.220 C 208.039 85.390,211.737 85.670,214.489 85.843 C 217.587 86.036,219.942 86.343,220.673 86.649 C 221.322 86.920,223.236 87.285,224.928 87.461 C 226.619 87.636,228.440 88.005,228.973 88.282 C 229.507 88.558,231.150 88.979,232.623 89.217 C 234.096 89.456,235.651 89.880,236.080 90.161 C 236.508 90.442,237.573 90.762,238.445 90.872 C 239.318 90.982,240.519 91.350,241.115 91.689 C 241.711 92.028,242.941 92.465,243.848 92.658 C 244.756 92.852,245.843 93.281,246.265 93.611 C 246.687 93.942,247.353 94.212,247.745 94.212 C 248.137 94.212,249.094 94.551,249.873 94.965 C 250.652 95.379,251.867 95.907,252.574 96.137 C 253.280 96.368,254.183 96.809,254.579 97.117 C 254.976 97.425,255.788 97.768,256.384 97.880 C 256.980 97.992,257.720 98.362,258.028 98.702 C 258.336 99.042,259.043 99.417,259.599 99.534 C 260.156 99.652,260.900 100.008,261.254 100.325 C 261.608 100.643,262.404 101.142,263.023 101.433 C 264.281 102.026,265.461 102.691,267.363 103.879 C 268.071 104.320,268.939 104.862,269.293 105.083 C 269.646 105.304,270.347 105.734,270.851 106.038 C 271.354 106.343,272.252 106.953,272.847 107.395 C 273.442 107.838,274.451 108.561,275.090 109.003 C 275.729 109.445,276.708 110.205,277.265 110.691 C 277.822 111.178,278.386 111.576,278.517 111.576 C 278.649 111.576,279.188 111.973,279.717 112.460 C 280.245 112.946,281.060 113.633,281.528 113.987 C 285.031 116.636,298.714 130.339,298.714 131.197 C 298.714 131.362,299.076 131.733,299.518 132.023 C 299.960 132.313,300.322 132.695,300.322 132.872 C 300.322 133.050,300.719 133.677,301.206 134.265 C 301.692 134.854,302.524 135.936,303.055 136.669 C 303.585 137.402,304.309 138.323,304.662 138.716 C 305.016 139.109,305.561 139.927,305.874 140.535 C 306.187 141.143,306.877 142.219,307.408 142.926 C 307.939 143.633,308.769 144.912,309.251 145.768 C 309.734 146.624,310.351 147.719,310.622 148.201 C 310.893 148.684,311.436 149.486,311.828 149.985 C 312.219 150.483,312.540 151.069,312.540 151.286 C 312.540 151.504,312.803 152.027,313.125 152.449 C 313.446 152.870,313.904 153.722,314.142 154.341 C 314.380 154.960,314.765 155.690,314.996 155.965 C 315.228 156.239,315.642 157.100,315.916 157.878 C 316.191 158.656,316.615 159.517,316.860 159.791 C 317.104 160.065,317.476 160.935,317.686 161.725 C 317.896 162.515,318.344 163.511,318.681 163.939 C 319.017 164.367,319.293 165.024,319.293 165.400 C 319.293 165.775,319.635 166.732,320.053 167.527 C 320.470 168.321,320.990 169.724,321.206 170.643 C 321.423 171.563,321.792 172.475,322.026 172.669 C 322.260 172.864,322.550 173.733,322.669 174.602 C 322.789 175.471,323.166 176.730,323.508 177.400 C 323.849 178.069,324.279 179.558,324.462 180.707 C 324.645 181.857,325.015 183.232,325.285 183.762 C 325.555 184.293,325.977 186.138,326.224 187.863 C 326.471 189.587,326.879 191.397,327.130 191.884 C 327.382 192.371,327.758 194.676,327.965 197.006 C 328.173 199.336,328.557 202.012,328.819 202.952 C 329.336 204.804,329.836 216.631,329.461 218.125 L 329.248 218.971 201.777 218.971 C 102.752 218.971,74.116 218.884,73.453 218.582 L 72.599 218.193 72.757 215.126 C 72.843 213.438,73.073 210.539,73.266 208.682 C 73.460 206.825,73.762 203.424,73.938 201.125 C 74.114 198.826,74.463 196.367,74.715 195.659 C 74.967 194.952,75.323 192.974,75.507 191.265 C 75.690 189.555,76.068 187.716,76.346 187.178 C 76.624 186.640,77.006 185.088,77.196 183.728 C 77.385 182.368,77.741 180.948,77.987 180.572 C 78.233 180.197,78.655 178.840,78.925 177.558 C 79.195 176.277,79.619 174.905,79.869 174.511 C 80.118 174.117,80.486 173.004,80.686 172.039 C 80.887 171.073,81.269 170.042,81.536 169.748 C 81.803 169.453,82.111 168.656,82.221 167.978 C 82.331 167.299,82.832 165.964,83.333 165.011 C 83.834 164.058,84.244 163.024,84.244 162.712 C 84.244 162.400,84.520 161.794,84.856 161.366 C 85.193 160.938,85.628 159.995,85.823 159.271 C 86.019 158.546,86.397 157.771,86.665 157.549 C 86.933 157.327,87.308 156.524,87.499 155.765 C 87.690 155.006,88.034 154.313,88.264 154.224 C 88.493 154.136,88.858 153.512,89.075 152.836 C 89.291 152.160,89.716 151.318,90.020 150.965 C 90.323 150.611,90.769 149.821,91.011 149.210 C 91.253 148.599,91.711 147.839,92.028 147.522 C 92.345 147.205,92.605 146.739,92.605 146.488 C 92.605 146.236,92.962 145.605,93.399 145.085 C 93.836 144.566,94.347 143.795,94.533 143.373 C 94.864 142.622,95.948 140.996,96.975 139.711 C 97.257 139.357,97.655 138.713,97.860 138.279 C 98.064 137.845,98.521 137.177,98.875 136.795 C 99.228 136.412,100.314 134.991,101.286 133.636 C 102.259 132.281,103.416 130.765,103.859 130.267 C 108.303 125.260,110.001 123.445,113.217 120.257 C 115.269 118.223,117.790 115.836,118.819 114.952 C 119.848 114.068,121.085 112.946,121.567 112.460 C 122.050 111.973,122.547 111.576,122.673 111.576 C 122.799 111.576,123.356 111.206,123.911 110.755 C 124.805 110.028,126.517 108.705,128.457 107.243 C 129.968 106.104,131.428 105.128,132.527 104.523 C 133.173 104.167,133.752 103.763,133.813 103.626 C 133.873 103.489,134.429 103.118,135.048 102.802 C 136.591 102.015,138.661 100.767,139.155 100.327 C 139.380 100.126,140.031 99.806,140.602 99.615 C 141.173 99.424,141.929 99.019,142.283 98.714 C 142.637 98.409,143.423 97.993,144.031 97.790 C 144.638 97.586,145.362 97.223,145.638 96.982 C 145.915 96.741,146.720 96.360,147.428 96.135 C 148.135 95.910,149.046 95.468,149.452 95.152 C 149.859 94.837,150.654 94.480,151.221 94.361 C 151.787 94.241,152.690 93.877,153.226 93.552 C 153.762 93.226,154.917 92.800,155.793 92.603 C 156.669 92.407,157.616 92.037,157.899 91.782 C 158.182 91.526,159.269 91.160,160.316 90.968 C 161.362 90.776,162.653 90.358,163.183 90.038 C 163.714 89.718,164.944 89.355,165.916 89.230 C 166.889 89.106,168.320 88.728,169.096 88.391 C 169.872 88.054,171.702 87.642,173.162 87.476 C 174.623 87.310,176.375 86.942,177.057 86.657 C 177.807 86.344,180.008 86.023,182.637 85.845 C 187.019 85.548,193.559 84.984,195.338 84.751 C 196.591 84.586,202.189 84.826,206.270 85.220 M56.087 264.930 C 49.590 266.497,48.909 276.520,55.085 279.688 L 57.081 280.712 200.807 280.629 C 334.083 280.553,344.616 280.508,345.659 280.012 C 346.278 279.717,347.320 279.311,347.974 279.108 C 349.209 278.725,351.125 276.856,351.125 276.034 C 351.125 275.775,351.265 275.563,351.435 275.563 C 351.935 275.563,352.489 272.961,352.275 271.621 C 351.874 269.112,350.408 267.154,348.005 265.916 L 345.820 264.791 201.447 264.742 C 122.042 264.715,56.630 264.800,56.087 264.930 M347.428 266.429 C 353.759 269.226,352.645 277.247,345.659 279.156 L 342.926 279.904 200.161 279.904 L 57.395 279.904 55.568 279.130 C 50.149 276.835,50.029 268.605,55.376 265.954 L 56.752 265.271 200.965 265.353 L 345.177 265.434 347.428 266.429 " stroke="none" fill="#fc8b86" fill-rule="evenodd"></path><path id="path3" d="M168.328 24.383 C 162.282 26.405,161.184 34.642,166.521 37.930 L 168.328 39.044 179.251 39.163 C 185.299 39.228,190.429 39.418,190.746 39.588 C 191.277 39.872,191.318 40.652,191.318 50.310 C 191.318 61.364,191.313 61.408,189.789 61.861 C 187.895 62.425,184.599 63.022,181.672 63.332 C 179.815 63.529,177.355 63.965,176.206 64.302 C 175.056 64.639,173.039 65.074,171.722 65.268 C 170.405 65.461,169.158 65.761,168.950 65.934 C 168.743 66.106,167.360 66.521,165.878 66.857 C 164.396 67.192,162.532 67.692,161.736 67.969 C 160.941 68.246,159.602 68.693,158.762 68.963 C 155.223 70.100,154.095 70.516,152.568 71.251 C 151.681 71.677,150.681 72.026,150.345 72.026 C 150.010 72.026,149.143 72.367,148.421 72.784 C 147.698 73.201,146.681 73.645,146.161 73.770 C 145.641 73.895,144.846 74.257,144.393 74.575 C 143.940 74.892,142.990 75.338,142.283 75.565 C 141.576 75.792,140.664 76.236,140.258 76.552 C 139.852 76.868,139.094 77.219,138.574 77.334 C 138.054 77.448,137.541 77.683,137.434 77.855 C 137.327 78.028,136.494 78.524,135.581 78.958 C 134.669 79.391,133.199 80.169,132.315 80.687 C 131.431 81.205,130.346 81.811,129.904 82.033 C 129.461 82.256,128.810 82.685,128.457 82.987 C 128.103 83.290,127.288 83.805,126.645 84.132 C 125.500 84.714,119.428 88.799,116.881 90.700 C 116.174 91.228,115.233 91.904,114.791 92.202 C 114.349 92.500,112.757 93.771,111.254 95.025 C 109.751 96.279,108.216 97.513,107.844 97.768 C 102.708 101.285,88.757 116.293,82.315 125.230 C 81.342 126.580,80.185 128.176,79.743 128.778 C 79.301 129.379,78.577 130.475,78.135 131.214 C 76.735 133.552,75.299 135.825,74.698 136.655 C 74.378 137.097,73.856 137.965,73.539 138.584 C 73.222 139.204,72.547 140.434,72.041 141.318 C 70.726 143.613,66.559 151.888,66.559 152.205 C 66.559 152.351,66.270 152.839,65.916 153.288 C 65.563 153.738,65.273 154.340,65.272 154.625 C 65.271 154.911,64.838 156.013,64.309 157.074 C 63.779 158.135,63.346 159.191,63.345 159.420 C 63.345 159.649,62.982 160.516,62.540 161.347 C 62.098 162.177,61.736 163.153,61.736 163.515 C 61.736 163.877,61.443 164.746,61.084 165.446 C 60.725 166.147,60.206 167.588,59.930 168.650 C 59.654 169.711,59.301 170.732,59.146 170.920 C 58.991 171.108,58.582 172.410,58.236 173.814 C 57.890 175.218,57.385 176.945,57.114 177.653 C 56.842 178.360,56.609 179.373,56.595 179.904 C 56.582 180.434,56.288 181.664,55.942 182.637 C 55.596 183.609,55.085 185.988,54.806 187.922 C 54.527 189.856,54.160 191.699,53.989 192.017 C 53.819 192.335,53.531 194.153,53.350 196.056 C 53.168 197.960,52.806 200.986,52.545 202.781 C 51.525 209.794,50.949 232.786,51.742 234.786 C 52.164 235.848,57.222 240.971,58.295 241.422 C 58.980 241.710,92.396 241.801,198.302 241.801 C 349.895 241.801,341.142 241.904,344.051 240.080 C 344.670 239.692,345.557 239.161,346.022 238.899 C 347.887 237.852,349.436 236.673,350.416 235.557 L 351.447 234.383 351.447 224.128 C 351.447 218.488,351.302 212.813,351.126 211.518 C 350.949 210.223,350.591 206.270,350.329 202.733 C 350.068 199.196,349.642 195.620,349.383 194.787 C 349.124 193.954,348.758 191.883,348.569 190.186 C 348.379 188.489,348.011 186.589,347.750 185.964 C 347.488 185.339,347.066 183.529,346.810 181.942 C 346.555 180.356,346.188 178.867,345.994 178.634 C 345.801 178.401,345.431 177.106,345.173 175.757 C 344.915 174.407,344.498 172.980,344.246 172.584 C 343.995 172.189,343.614 171.003,343.401 169.949 C 343.188 168.895,342.810 167.722,342.562 167.343 C 342.314 166.964,341.913 165.946,341.673 165.080 C 341.200 163.381,340.232 160.924,339.023 158.356 C 338.605 157.469,338.264 156.562,338.264 156.340 C 338.264 156.118,337.830 155.123,337.299 154.129 C 336.768 153.135,336.334 152.144,336.334 151.927 C 336.334 151.711,336.054 151.177,335.711 150.741 C 335.369 150.306,334.988 149.527,334.865 149.010 C 334.743 148.493,334.390 147.781,334.081 147.428 C 333.772 147.074,333.347 146.244,333.135 145.583 C 332.924 144.923,332.604 144.292,332.426 144.181 C 332.247 144.071,331.815 143.312,331.464 142.495 C 331.114 141.678,330.711 140.934,330.570 140.842 C 330.428 140.750,329.966 140.046,329.545 139.276 C 328.390 137.169,327.242 135.222,326.552 134.197 C 326.211 133.693,325.416 132.500,324.783 131.547 C 321.711 126.916,320.501 125.188,319.378 123.827 C 318.706 123.013,317.652 121.649,317.036 120.795 C 316.420 119.942,315.555 118.836,315.113 118.338 C 314.670 117.840,313.585 116.589,312.701 115.558 C 311.817 114.527,310.065 112.594,308.808 111.263 C 307.552 109.932,306.105 108.388,305.593 107.832 C 304.783 106.952,302.261 104.567,296.724 99.446 C 295.089 97.934,291.387 94.887,289.388 93.408 C 288.670 92.878,287.161 91.720,286.035 90.836 C 284.908 89.952,283.506 88.939,282.921 88.585 C 282.335 88.232,281.546 87.725,281.169 87.460 C 280.791 87.195,280.062 86.703,279.550 86.367 C 279.037 86.031,278.039 85.374,277.331 84.906 C 276.624 84.438,275.683 83.878,275.241 83.662 C 274.799 83.446,273.786 82.841,272.990 82.317 C 272.195 81.793,270.820 80.990,269.936 80.532 C 267.058 79.044,265.744 78.306,264.948 77.733 C 264.518 77.424,263.929 77.170,263.639 77.170 C 263.349 77.170,262.622 76.840,262.022 76.437 C 261.423 76.034,260.335 75.526,259.604 75.310 C 258.873 75.094,258.096 74.700,257.877 74.436 C 257.657 74.171,257.238 73.955,256.946 73.955 C 256.654 73.955,255.550 73.525,254.493 73.000 C 253.437 72.475,252.350 72.041,252.078 72.036 C 251.806 72.030,251.010 71.726,250.309 71.359 C 249.609 70.992,248.272 70.487,247.339 70.235 C 246.406 69.984,245.321 69.575,244.927 69.325 C 244.534 69.076,243.561 68.768,242.765 68.642 C 241.969 68.515,240.804 68.151,240.175 67.833 C 239.547 67.514,238.116 67.087,236.996 66.884 C 235.876 66.681,234.292 66.253,233.476 65.933 C 232.661 65.613,231.053 65.245,229.904 65.116 C 228.754 64.987,227.307 64.668,226.688 64.409 C 226.069 64.149,223.816 63.730,221.681 63.478 C 216.803 62.902,212.204 61.909,211.854 61.356 C 211.391 60.626,211.509 40.004,211.977 39.630 C 212.215 39.440,216.517 39.243,222.508 39.148 C 237.358 38.913,239.811 37.592,239.140 30.194 C 238.923 27.800,237.955 26.569,235.247 25.241 L 233.280 24.277 201.125 24.222 C 183.441 24.192,168.682 24.265,168.328 24.383 M233.119 25.296 C 233.915 25.680,235.109 26.094,235.772 26.216 C 236.459 26.343,236.977 26.625,236.977 26.872 C 236.977 27.110,237.375 27.674,237.862 28.125 C 239.196 29.362,239.193 33.793,237.857 35.114 C 237.373 35.592,236.977 36.191,236.977 36.444 C 236.977 36.748,236.459 36.979,235.450 37.124 C 234.610 37.244,233.344 37.617,232.637 37.952 C 231.478 38.500,230.383 38.570,221.598 38.653 C 212.372 38.741,211.820 38.780,211.389 39.370 C 211.017 39.879,210.932 41.949,210.932 50.576 L 210.932 61.157 211.909 62.069 C 213.074 63.157,214.784 63.537,219.775 63.816 C 222.323 63.958,223.681 64.191,224.633 64.650 C 225.453 65.045,226.976 65.360,228.652 65.482 C 230.502 65.616,231.686 65.879,232.417 66.319 C 233.024 66.684,234.452 67.067,235.729 67.207 C 237.069 67.354,238.211 67.668,238.563 67.986 C 238.887 68.280,240.146 68.671,241.361 68.857 C 242.661 69.056,243.834 69.437,244.212 69.785 C 244.566 70.110,245.628 70.478,246.573 70.603 C 247.612 70.741,248.516 71.071,248.859 71.440 C 249.173 71.777,250.143 72.163,251.023 72.302 C 251.926 72.445,252.905 72.840,253.276 73.212 C 253.638 73.573,254.587 73.967,255.386 74.087 C 256.185 74.207,257.082 74.574,257.379 74.902 C 257.677 75.230,258.447 75.598,259.090 75.719 C 259.734 75.839,260.676 76.288,261.184 76.715 C 261.692 77.142,262.437 77.492,262.839 77.492 C 263.242 77.492,263.955 77.847,264.424 78.281 C 264.892 78.716,265.785 79.167,266.408 79.283 C 267.032 79.400,267.681 79.757,267.852 80.076 C 268.022 80.394,268.579 80.747,269.090 80.859 C 269.600 80.971,270.497 81.417,271.084 81.850 C 271.671 82.282,272.322 82.637,272.531 82.637 C 272.740 82.637,273.110 82.877,273.353 83.171 C 273.596 83.465,274.409 83.978,275.161 84.312 C 275.912 84.645,276.527 85.059,276.527 85.232 C 276.527 85.405,276.899 85.688,277.353 85.860 C 277.807 86.033,278.653 86.536,279.232 86.978 C 279.812 87.420,280.509 87.781,280.781 87.781 C 281.054 87.781,281.514 88.143,281.803 88.585 C 282.093 89.027,282.507 89.395,282.724 89.402 C 282.941 89.409,283.620 89.843,284.232 90.367 C 284.845 90.890,285.604 91.318,285.920 91.318 C 286.236 91.318,286.495 91.538,286.495 91.808 C 286.495 92.077,286.879 92.472,287.348 92.686 C 287.818 92.899,288.587 93.439,289.057 93.884 C 289.527 94.330,290.393 95.056,290.980 95.498 C 291.568 95.941,292.499 96.676,293.050 97.132 C 293.601 97.589,294.305 98.054,294.614 98.167 C 294.924 98.280,295.177 98.584,295.177 98.843 C 295.177 99.102,295.470 99.407,295.829 99.520 C 296.187 99.634,296.710 100.078,296.991 100.507 C 297.272 100.935,297.635 101.286,297.799 101.286 C 298.189 101.286,309.325 112.448,309.325 112.839 C 309.325 113.005,309.614 113.232,309.968 113.344 C 310.322 113.456,310.611 113.752,310.611 114.001 C 310.611 114.251,310.958 114.682,311.381 114.959 C 311.805 115.237,312.228 115.757,312.322 116.116 C 312.416 116.475,312.793 116.846,313.159 116.942 C 313.526 117.038,313.826 117.302,313.826 117.528 C 313.826 117.754,314.260 118.403,314.791 118.971 C 315.322 119.539,315.756 120.128,315.756 120.280 C 315.756 120.432,316.154 120.994,316.640 121.529 C 318.709 123.802,320.366 125.968,321.033 127.267 C 321.332 127.851,321.787 128.409,322.043 128.508 C 322.299 128.606,322.508 128.895,322.508 129.149 C 322.508 129.404,322.850 129.931,323.267 130.321 C 323.685 130.710,324.135 131.391,324.268 131.833 C 324.401 132.275,324.839 132.998,325.241 133.441 C 325.644 133.883,326.071 134.570,326.191 134.968 C 326.312 135.366,326.550 135.691,326.721 135.691 C 326.892 135.691,327.327 136.379,327.687 137.219 C 328.047 138.059,328.532 138.853,328.765 138.983 C 328.998 139.113,329.287 139.610,329.406 140.087 C 329.526 140.564,329.976 141.372,330.407 141.884 C 330.837 142.396,331.190 143.043,331.190 143.322 C 331.190 143.602,331.551 144.304,331.994 144.884 C 332.436 145.464,332.797 146.153,332.797 146.417 C 332.797 146.680,333.140 147.305,333.560 147.805 C 333.979 148.305,334.429 149.220,334.559 149.839 C 334.689 150.458,335.056 151.254,335.374 151.608 C 335.691 151.961,336.097 152.791,336.276 153.452 C 336.455 154.112,336.903 155.036,337.272 155.505 C 337.640 155.973,337.942 156.760,337.942 157.253 C 337.942 157.747,338.284 158.559,338.701 159.059 C 339.125 159.567,339.558 160.631,339.682 161.473 C 339.804 162.300,340.181 163.330,340.520 163.760 C 340.859 164.191,341.228 165.178,341.340 165.953 C 341.452 166.729,341.831 167.772,342.182 168.272 C 342.534 168.772,342.946 170.065,343.099 171.146 C 343.252 172.227,343.649 173.482,343.983 173.935 C 344.346 174.429,344.676 175.597,344.805 176.849 C 344.937 178.139,345.261 179.267,345.651 179.797 C 346.094 180.399,346.348 181.439,346.502 183.281 C 346.635 184.882,346.964 186.366,347.343 187.085 C 347.786 187.923,348.046 189.349,348.243 192.014 C 348.412 194.291,348.737 196.249,349.070 196.998 C 349.734 198.491,350.419 212.441,350.458 225.281 C 350.485 234.096,350.364 235.377,349.484 235.607 C 349.165 235.690,348.677 236.105,348.400 236.529 C 348.122 236.952,347.690 237.299,347.438 237.299 C 347.187 237.299,346.793 237.566,346.562 237.893 C 346.331 238.219,345.563 238.670,344.855 238.895 C 344.148 239.119,343.324 239.612,343.025 239.989 L 342.480 240.675 200.903 240.767 C 51.295 240.864,57.369 240.910,56.907 239.693 C 56.742 239.261,56.383 238.907,56.109 238.907 C 55.835 238.907,55.468 238.531,55.294 238.072 C 55.119 237.613,54.689 237.162,54.337 237.070 C 53.985 236.978,53.698 236.714,53.698 236.484 C 53.698 236.255,53.300 235.777,52.814 235.423 L 51.929 234.779 51.837 227.599 C 51.740 219.993,52.132 211.411,52.686 209.003 C 52.869 208.207,53.183 204.735,53.384 201.286 C 53.636 196.960,53.891 194.795,54.206 194.304 C 54.701 193.532,55.289 190.059,55.299 187.849 C 55.303 187.090,55.602 185.888,55.965 185.177 C 56.329 184.463,56.757 182.721,56.921 181.286 C 57.099 179.721,57.421 178.462,57.730 178.120 C 58.013 177.809,58.390 176.499,58.568 175.210 C 58.758 173.840,59.141 172.552,59.490 172.108 C 59.818 171.691,60.185 170.525,60.306 169.517 C 60.443 168.367,60.768 167.420,61.177 166.972 C 61.580 166.531,61.888 165.646,61.983 164.655 C 62.079 163.656,62.362 162.847,62.733 162.511 C 63.060 162.215,63.496 161.123,63.700 160.086 C 63.904 159.048,64.204 158.199,64.367 158.199 C 64.756 158.199,65.595 156.172,65.595 155.232 C 65.595 154.827,65.877 154.319,66.222 154.104 C 66.568 153.888,66.949 153.169,67.072 152.499 C 67.195 151.832,67.636 150.877,68.053 150.377 C 68.469 149.877,68.810 149.139,68.810 148.736 C 68.810 148.333,69.159 147.627,69.585 147.167 C 70.012 146.707,70.465 145.854,70.593 145.272 C 70.721 144.689,71.090 144.027,71.413 143.801 C 71.736 143.575,72.092 142.902,72.203 142.306 C 72.315 141.710,72.741 140.931,73.149 140.577 C 73.557 140.222,73.987 139.494,74.104 138.959 C 74.222 138.424,74.534 137.807,74.798 137.588 C 75.062 137.369,75.480 136.708,75.726 136.119 C 75.972 135.530,76.309 135.048,76.476 135.048 C 76.643 135.048,76.996 134.506,77.262 133.842 C 77.527 133.179,78.050 132.361,78.422 132.024 C 78.795 131.687,79.100 131.243,79.100 131.037 C 79.100 130.831,79.534 130.176,80.064 129.582 C 80.595 128.988,81.029 128.248,81.029 127.938 C 81.029 127.628,81.306 127.287,81.645 127.179 C 81.984 127.071,82.411 126.555,82.593 126.032 C 82.775 125.509,83.073 125.080,83.255 125.080 C 83.436 125.080,83.821 124.623,84.110 124.064 C 84.400 123.505,84.982 122.674,85.405 122.218 C 85.828 121.762,86.174 121.258,86.174 121.098 C 86.174 120.938,86.461 120.503,86.813 120.130 C 88.526 118.317,89.170 117.594,91.998 114.309 C 93.672 112.363,95.796 110.006,96.717 109.071 C 97.639 108.135,98.392 107.231,98.392 107.061 C 98.392 106.891,98.550 106.752,98.743 106.752 C 98.936 106.752,99.768 106.057,100.592 105.208 C 101.416 104.358,103.248 102.672,104.662 101.460 C 106.077 100.248,107.524 98.994,107.878 98.673 C 108.728 97.901,110.369 96.495,111.581 95.498 C 112.119 95.056,112.839 94.446,113.182 94.143 C 113.524 93.839,114.354 93.244,115.026 92.820 C 115.698 92.396,116.444 91.812,116.684 91.523 C 116.924 91.234,117.315 90.997,117.552 90.997 C 117.790 90.997,118.138 90.709,118.326 90.357 C 118.514 90.006,119.015 89.631,119.439 89.525 C 119.863 89.418,120.471 89.043,120.790 88.691 C 121.109 88.338,121.843 87.852,122.421 87.610 C 122.999 87.369,123.473 87.021,123.473 86.837 C 123.473 86.654,124.009 86.280,124.666 86.005 C 125.322 85.731,126.123 85.223,126.447 84.876 C 126.770 84.528,127.292 84.244,127.607 84.244 C 127.922 84.244,128.482 83.897,128.851 83.473 C 129.220 83.048,129.971 82.602,130.519 82.482 C 131.068 82.361,131.655 82.004,131.824 81.688 C 131.993 81.372,132.585 81.023,133.140 80.912 C 133.694 80.801,134.578 80.348,135.105 79.905 C 135.631 79.462,136.329 79.100,136.656 79.100 C 136.983 79.100,137.680 78.738,138.205 78.296 C 138.730 77.854,139.454 77.492,139.813 77.492 C 140.172 77.492,140.881 77.142,141.388 76.715 C 141.896 76.288,142.859 75.835,143.528 75.710 C 144.197 75.584,144.987 75.223,145.282 74.907 C 145.578 74.592,146.364 74.232,147.029 74.108 C 147.693 73.984,148.587 73.607,149.015 73.270 C 149.444 72.933,150.471 72.531,151.298 72.377 C 152.125 72.222,153.185 71.812,153.654 71.466 C 154.122 71.120,155.182 70.735,156.008 70.611 C 156.835 70.487,157.859 70.111,158.285 69.777 C 158.711 69.442,159.842 69.071,160.799 68.952 C 161.757 68.834,163.119 68.411,163.826 68.014 C 164.599 67.580,165.912 67.221,167.114 67.117 C 168.326 67.012,169.546 66.677,170.207 66.269 C 170.822 65.889,171.843 65.594,172.546 65.593 C 174.547 65.590,177.537 65.010,178.099 64.515 C 178.454 64.203,180.156 63.952,183.500 63.718 C 188.607 63.361,191.252 62.568,191.761 61.243 C 192.215 60.058,191.981 40.022,191.505 39.370 C 191.072 38.776,190.503 38.741,179.855 38.646 C 169.263 38.551,168.630 38.512,168.080 37.923 C 167.760 37.580,167.299 37.299,167.054 37.299 C 165.014 37.299,163.495 33.011,164.308 29.548 C 164.885 27.090,165.140 26.722,166.743 26.035 C 167.526 25.700,168.167 25.285,168.167 25.113 C 168.167 24.547,169.692 24.521,200.804 24.560 L 231.672 24.598 233.119 25.296 M186.484 83.583 C 185.151 83.721,183.603 84.072,183.043 84.361 C 182.426 84.680,181.228 84.892,180.000 84.898 C 176.938 84.914,173.651 85.415,173.047 85.959 C 172.729 86.245,171.520 86.532,170.096 86.659 C 168.636 86.789,167.051 87.170,166.077 87.626 C 165.193 88.040,163.767 88.445,162.909 88.527 C 162.050 88.608,160.965 88.956,160.497 89.301 C 160.029 89.645,158.931 90.024,158.057 90.143 C 157.183 90.261,156.170 90.631,155.806 90.965 C 155.442 91.299,154.514 91.675,153.744 91.801 C 152.974 91.927,152.072 92.301,151.739 92.634 C 151.406 92.966,150.540 93.334,149.814 93.450 C 149.088 93.566,148.109 93.975,147.639 94.358 C 147.169 94.741,146.162 95.235,145.401 95.455 C 144.640 95.676,143.939 96.061,143.843 96.312 C 143.746 96.562,143.198 96.855,142.625 96.963 C 142.051 97.070,141.174 97.508,140.676 97.936 C 140.179 98.364,139.504 98.714,139.178 98.714 C 138.852 98.714,138.294 99.005,137.938 99.361 C 137.582 99.717,136.714 100.239,136.009 100.522 C 135.304 100.804,134.727 101.161,134.727 101.317 C 134.727 101.472,134.256 101.800,133.682 102.045 C 133.107 102.290,132.289 102.799,131.864 103.175 C 131.439 103.551,130.900 103.859,130.666 103.859 C 130.431 103.859,130.003 104.220,129.713 104.662 C 129.424 105.105,128.936 105.466,128.630 105.466 C 128.324 105.466,127.799 105.770,127.462 106.142 C 127.126 106.514,126.416 107.042,125.885 107.316 C 125.354 107.589,124.731 108.081,124.499 108.408 C 124.268 108.735,123.874 109.003,123.623 109.003 C 123.371 109.003,122.939 109.350,122.661 109.773 C 122.384 110.197,121.863 110.620,121.505 110.714 C 121.146 110.808,120.774 111.185,120.678 111.552 C 120.582 111.919,120.314 112.219,120.082 112.219 C 119.850 112.219,119.465 112.400,119.227 112.621 C 118.989 112.842,117.860 113.818,116.718 114.791 C 114.347 116.810,108.108 123.077,106.431 125.124 C 105.812 125.880,104.908 126.924,104.421 127.444 C 103.935 127.965,103.537 128.577,103.537 128.804 C 103.537 129.031,103.248 129.309,102.895 129.421 C 102.541 129.533,102.165 129.972,102.059 130.396 C 101.952 130.820,101.590 131.254,101.254 131.361 C 100.918 131.467,100.643 131.670,100.643 131.810 C 100.643 131.951,100.193 132.628,99.644 133.316 C 99.094 134.003,98.519 134.891,98.366 135.289 C 98.212 135.687,97.931 136.013,97.741 136.013 C 97.550 136.013,97.183 136.519,96.925 137.138 C 96.666 137.757,96.304 138.264,96.121 138.264 C 95.937 138.264,95.589 138.737,95.348 139.315 C 95.106 139.894,94.607 140.639,94.239 140.973 C 93.870 141.306,93.569 141.821,93.569 142.116 C 93.569 142.411,93.215 142.986,92.782 143.393 C 92.349 143.799,91.902 144.554,91.789 145.070 C 91.675 145.587,91.234 146.358,90.807 146.784 C 90.381 147.210,90.032 147.726,90.032 147.929 C 90.032 148.133,89.670 148.729,89.228 149.255 C 88.786 149.780,88.424 150.477,88.424 150.804 C 88.424 151.130,88.081 151.807,87.662 152.307 C 87.243 152.806,86.801 153.671,86.679 154.227 C 86.558 154.784,86.180 155.491,85.840 155.799 C 85.500 156.106,85.129 156.881,85.015 157.520 C 84.901 158.159,84.524 158.993,84.177 159.375 C 83.830 159.756,83.409 160.680,83.241 161.429 C 83.073 162.177,82.663 163.136,82.330 163.559 C 81.998 163.982,81.626 164.938,81.504 165.685 C 81.382 166.431,81.010 167.339,80.676 167.703 C 80.342 168.067,79.977 169.080,79.864 169.954 C 79.751 170.828,79.379 171.851,79.039 172.227 C 78.654 172.652,78.302 173.742,78.108 175.107 C 77.937 176.315,77.678 177.382,77.532 177.478 C 76.986 177.838,76.605 179.000,76.392 180.959 C 76.271 182.071,75.887 183.462,75.539 184.052 C 75.112 184.776,74.843 186.001,74.711 187.819 C 74.582 189.604,74.311 190.856,73.908 191.526 C 73.438 192.310,73.234 193.578,73.005 197.153 C 72.803 200.311,72.531 202.175,72.144 203.055 C 71.183 205.237,71.059 219.291,71.993 220.224 L 72.669 220.900 201.102 220.900 C 311.401 220.900,329.600 220.836,329.991 220.445 C 331.113 219.324,331.295 218.118,330.914 214.355 C 330.712 212.363,330.541 209.223,330.535 207.377 C 330.519 202.521,330.043 197.849,329.477 196.985 C 329.177 196.528,328.870 194.807,328.675 192.486 C 328.464 189.993,328.179 188.455,327.829 187.920 C 327.538 187.477,327.165 185.928,327.000 184.479 C 326.810 182.812,326.480 181.548,326.103 181.035 C 325.765 180.577,325.421 179.397,325.310 178.318 C 325.194 177.187,324.857 176.062,324.482 175.554 C 324.133 175.083,323.751 173.988,323.632 173.121 C 323.513 172.253,323.129 171.138,322.779 170.642 C 322.429 170.147,322.029 169.021,321.889 168.140 C 321.750 167.259,321.345 166.218,320.989 165.826 C 320.633 165.433,320.257 164.549,320.152 163.861 C 320.047 163.172,319.682 162.304,319.340 161.931 C 318.998 161.559,318.617 160.748,318.493 160.129 C 318.369 159.510,317.936 158.497,317.531 157.878 C 317.126 157.259,316.709 156.381,316.605 155.927 C 316.501 155.474,316.132 154.775,315.784 154.374 C 315.436 153.973,315.063 153.238,314.953 152.740 C 314.844 152.242,314.482 151.588,314.148 151.286 C 313.814 150.984,313.449 150.318,313.337 149.806 C 313.224 149.294,312.877 148.694,312.564 148.473 C 312.251 148.252,311.823 147.546,311.613 146.904 C 311.402 146.262,310.946 145.480,310.599 145.166 C 310.252 144.852,309.968 144.420,309.968 144.207 C 309.968 143.993,309.534 143.272,309.003 142.605 C 308.473 141.937,308.039 141.197,308.039 140.960 C 308.039 140.723,307.677 140.292,307.235 140.003 C 306.793 139.713,306.431 139.199,306.431 138.860 C 306.431 138.521,306.208 138.158,305.935 138.053 C 305.662 137.948,305.171 137.338,304.844 136.697 C 304.516 136.055,303.944 135.255,303.571 134.918 C 303.199 134.581,302.894 134.127,302.894 133.910 C 302.894 133.692,302.532 133.277,302.090 132.988 C 301.648 132.698,301.286 132.264,301.286 132.023 C 301.286 131.782,300.924 131.348,300.482 131.059 C 300.040 130.769,299.678 130.325,299.678 130.073 C 299.678 129.820,299.498 129.498,299.277 129.357 C 299.055 129.215,298.327 128.418,297.657 127.584 C 295.075 124.371,284.182 113.826,283.444 113.826 C 283.316 113.826,282.927 113.465,282.579 113.023 C 282.231 112.580,281.797 112.219,281.615 112.219 C 281.432 112.219,280.998 111.857,280.650 111.415 C 280.302 110.973,279.807 110.611,279.549 110.611 C 279.291 110.611,278.994 110.388,278.889 110.115 C 278.784 109.842,278.174 109.351,277.533 109.024 C 276.891 108.696,276.091 108.124,275.754 107.751 C 275.417 107.379,274.952 107.074,274.720 107.074 C 274.489 107.074,274.150 106.794,273.967 106.453 C 273.784 106.111,273.308 105.729,272.910 105.605 C 272.512 105.480,271.777 105.036,271.278 104.618 C 270.778 104.200,270.162 103.859,269.909 103.859 C 269.656 103.859,269.141 103.504,268.764 103.070 C 268.387 102.637,267.658 102.190,267.144 102.077 C 266.630 101.964,265.861 101.523,265.435 101.097 C 265.008 100.670,264.458 100.322,264.212 100.322 C 263.965 100.322,263.430 100.032,263.021 99.677 C 262.612 99.323,261.737 98.887,261.076 98.709 C 260.414 98.531,259.793 98.177,259.696 97.923 C 259.598 97.669,258.896 97.296,258.136 97.094 C 257.375 96.892,256.456 96.453,256.094 96.118 C 255.732 95.783,254.936 95.414,254.325 95.299 C 253.715 95.185,252.926 94.829,252.572 94.510 C 252.218 94.191,251.222 93.771,250.358 93.577 C 249.494 93.384,248.446 92.958,248.031 92.630 C 247.615 92.303,246.603 91.935,245.782 91.812 C 244.962 91.689,244.001 91.318,243.647 90.989 C 243.272 90.639,242.254 90.296,241.201 90.164 C 240.209 90.040,239.020 89.660,238.559 89.319 C 238.050 88.942,236.794 88.582,235.367 88.403 C 234.003 88.232,232.769 87.886,232.431 87.580 C 232.041 87.227,230.807 86.948,228.705 86.737 C 226.948 86.560,225.343 86.228,225.064 85.983 C 224.447 85.443,220.857 84.902,217.835 84.894 C 216.340 84.890,214.922 84.652,213.654 84.195 C 211.565 83.440,192.074 83.001,186.484 83.583 M210.640 84.518 C 211.452 84.700,213.984 85.010,216.267 85.207 C 218.550 85.404,221.503 85.834,222.830 86.163 C 224.156 86.492,226.303 86.921,227.600 87.117 C 228.897 87.314,230.457 87.682,231.066 87.937 C 231.675 88.191,233.073 88.556,234.174 88.747 C 235.274 88.937,236.825 89.365,237.621 89.696 C 238.416 90.027,239.646 90.401,240.354 90.526 C 241.061 90.651,242.074 91.013,242.605 91.330 C 243.135 91.648,244.148 92.011,244.855 92.139 C 245.563 92.266,246.720 92.696,247.428 93.094 C 248.135 93.493,249.242 93.911,249.887 94.024 C 250.533 94.137,251.237 94.441,251.452 94.701 C 251.667 94.960,252.441 95.331,253.173 95.526 C 253.904 95.721,254.726 96.080,255.000 96.324 C 255.274 96.568,256.135 96.992,256.913 97.267 C 257.691 97.541,258.552 97.959,258.826 98.194 C 259.101 98.430,259.759 98.768,260.290 98.945 C 260.820 99.123,261.817 99.649,262.505 100.116 C 263.193 100.583,263.934 100.965,264.153 100.965 C 264.372 100.965,264.733 101.183,264.955 101.451 C 265.177 101.718,265.954 102.217,266.682 102.558 C 267.411 102.900,268.585 103.617,269.293 104.151 C 270.000 104.685,271.158 105.436,271.865 105.819 C 272.572 106.203,273.223 106.607,273.312 106.717 C 273.542 107.003,275.749 108.634,277.501 109.813 C 278.974 110.805,283.985 114.944,286.811 117.504 C 291.783 122.008,299.021 129.801,302.019 133.878 C 303.868 136.392,304.127 136.740,304.925 137.781 C 305.332 138.312,306.274 139.686,307.017 140.836 C 307.761 141.986,308.657 143.264,309.008 143.677 C 309.359 144.090,309.646 144.574,309.646 144.753 C 309.646 144.931,309.972 145.534,310.369 146.092 C 311.240 147.314,311.950 148.550,312.891 150.482 C 313.279 151.278,313.715 152.007,313.860 152.101 C 314.004 152.196,314.360 152.847,314.650 153.548 C 314.940 154.249,315.361 155.040,315.586 155.305 C 315.812 155.571,316.180 156.367,316.405 157.074 C 316.630 157.781,317.082 158.705,317.410 159.127 C 317.738 159.549,318.007 160.055,318.008 160.252 C 318.008 160.450,318.442 161.479,318.971 162.540 C 319.500 163.601,319.934 164.657,319.934 164.886 C 319.935 165.115,320.297 165.982,320.740 166.813 C 321.182 167.643,321.543 168.599,321.543 168.937 C 321.543 169.276,321.892 170.290,322.318 171.191 C 322.744 172.092,323.198 173.408,323.326 174.116 C 323.455 174.823,323.808 175.908,324.112 176.527 C 324.416 177.146,324.844 178.591,325.064 179.739 C 325.284 180.886,325.652 182.188,325.882 182.633 C 326.111 183.077,326.473 184.598,326.686 186.013 C 326.899 187.428,327.277 189.075,327.526 189.674 C 327.774 190.273,328.124 192.081,328.304 193.693 C 328.483 195.305,328.920 198.071,329.275 199.839 C 329.736 202.132,329.997 205.223,330.184 210.611 C 330.442 218.013,330.355 219.088,329.453 219.690 C 328.644 220.230,73.073 219.973,72.531 219.431 C 71.553 218.452,71.633 209.355,72.659 204.971 C 72.827 204.256,73.118 201.753,73.308 199.408 C 73.497 197.063,73.860 194.531,74.114 193.783 C 74.369 193.034,74.803 190.917,75.079 189.078 C 75.355 187.240,75.732 185.554,75.916 185.332 C 76.100 185.110,76.455 183.760,76.704 182.332 C 76.953 180.905,77.383 179.300,77.658 178.767 C 77.934 178.234,78.310 176.983,78.495 175.987 C 78.679 174.991,79.025 173.873,79.265 173.503 C 79.505 173.132,79.874 172.106,80.087 171.222 C 80.299 170.338,80.727 169.180,81.037 168.650 C 81.348 168.119,81.707 167.191,81.835 166.587 C 81.963 165.983,82.413 164.840,82.835 164.047 C 83.256 163.254,83.601 162.357,83.601 162.053 C 83.601 161.750,83.870 161.156,84.198 160.735 C 84.526 160.313,84.978 159.389,85.203 158.682 C 85.428 157.974,85.809 157.169,86.049 156.892 C 86.290 156.616,86.654 155.892,86.858 155.285 C 87.062 154.677,87.416 153.963,87.643 153.698 C 87.871 153.432,88.368 152.564,88.747 151.768 C 90.006 149.130,90.829 147.660,91.399 147.033 C 91.708 146.692,91.961 146.274,91.961 146.105 C 91.961 145.716,93.949 142.533,94.831 141.509 C 95.198 141.083,95.498 140.614,95.498 140.467 C 95.498 140.062,97.851 136.656,98.131 136.656 C 98.265 136.656,98.617 136.186,98.911 135.611 C 99.206 135.036,99.542 134.494,99.658 134.405 C 99.775 134.317,100.223 133.740,100.654 133.123 C 101.085 132.507,101.657 131.751,101.925 131.445 C 102.193 131.138,102.773 130.444,103.215 129.904 C 103.658 129.363,104.309 128.600,104.662 128.209 C 105.016 127.818,105.864 126.846,106.547 126.048 C 109.252 122.891,114.971 117.262,120.050 112.760 C 121.682 111.313,125.185 108.606,127.822 106.752 C 128.451 106.310,129.452 105.587,130.047 105.145 C 131.167 104.312,132.649 103.378,134.067 102.611 C 134.518 102.367,135.177 101.911,135.531 101.597 C 135.884 101.283,136.680 100.788,137.299 100.496 C 137.918 100.204,139.148 99.549,140.032 99.040 C 142.515 97.611,147.412 95.177,147.802 95.177 C 147.995 95.177,148.313 94.983,148.510 94.747 C 148.706 94.510,149.484 94.134,150.237 93.912 C 150.991 93.689,152.042 93.247,152.572 92.930 C 153.103 92.612,154.043 92.249,154.662 92.122 C 155.281 91.996,156.222 91.630,156.752 91.311 C 157.283 90.991,158.296 90.625,159.003 90.498 C 159.711 90.371,160.803 90.009,161.430 89.694 C 162.057 89.379,163.142 89.025,163.841 88.908 C 164.540 88.791,166.163 88.345,167.447 87.917 C 168.730 87.489,170.125 87.138,170.546 87.138 C 170.968 87.138,172.666 86.791,174.322 86.366 C 175.977 85.941,178.416 85.501,179.743 85.388 C 181.069 85.275,183.529 84.975,185.209 84.721 C 186.889 84.467,188.698 84.197,189.228 84.122 C 191.098 83.857,209.183 84.192,210.640 84.518 M56.752 265.506 C 50.469 267.088,49.666 276.360,55.586 278.978 L 57.315 279.743 199.653 279.743 C 341.701 279.743,341.998 279.741,344.995 279.087 C 350.464 277.894,352.736 274.122,350.645 269.706 C 349.593 267.484,349.591 267.483,346.785 266.346 L 344.534 265.434 200.965 265.389 C 122.002 265.365,57.106 265.417,56.752 265.506 M344.062 266.404 C 344.581 266.672,345.673 266.983,346.490 267.095 C 348.626 267.388,349.782 268.546,350.150 270.764 C 350.490 272.810,349.960 276.527,349.328 276.527 C 349.108 276.527,348.663 276.886,348.339 277.325 C 347.234 278.821,348.802 278.807,197.910 278.709 C 57.269 278.618,55.777 278.611,54.743 277.985 C 54.168 277.638,53.698 277.188,53.698 276.985 C 53.698 276.783,53.321 276.062,52.861 275.385 C 51.891 273.955,51.708 271.076,52.534 270.249 C 52.792 269.992,53.165 269.291,53.362 268.692 C 53.648 267.826,54.016 267.490,55.157 267.054 C 55.946 266.753,56.592 266.374,56.592 266.211 C 56.592 265.641,342.958 265.833,344.062 266.404 " stroke="none" fill="#fc716c" fill-rule="evenodd"></path><path id="path4" d="M229.024 39.137 C 229.512 39.211,230.236 39.209,230.631 39.133 C 231.027 39.057,230.627 38.996,229.743 38.999 C 228.859 39.001,228.535 39.064,229.024 39.137 M190.997 50.257 L 191.157 60.932 191.242 50.503 C 191.289 44.767,191.217 39.963,191.082 39.827 C 190.947 39.692,190.908 44.385,190.997 50.257 M190.599 84.150 C 190.999 84.227,191.577 84.224,191.885 84.144 C 192.192 84.063,191.865 84.000,191.158 84.004 C 190.450 84.007,190.199 84.073,190.599 84.150 M204.743 84.150 C 205.141 84.226,205.792 84.226,206.190 84.150 C 206.588 84.073,206.262 84.010,205.466 84.010 C 204.670 84.010,204.345 84.073,204.743 84.150 M296.463 99.136 C 296.463 99.191,296.933 99.662,297.508 100.181 L 298.553 101.125 297.609 100.080 C 296.728 99.106,296.463 98.888,296.463 99.136 M301.768 104.180 C 302.819 105.241,303.750 106.109,303.838 106.109 C 303.927 106.109,303.140 105.241,302.090 104.180 C 301.040 103.119,300.109 102.251,300.020 102.251 C 299.932 102.251,300.718 103.119,301.768 104.180 M306.109 108.461 C 306.109 108.516,306.580 108.986,307.154 109.506 L 308.199 110.450 307.255 109.405 C 306.375 108.431,306.109 108.212,306.109 108.461 M115.575 116.801 L 114.630 117.846 115.675 116.901 C 116.250 116.382,116.720 115.912,116.720 115.856 C 116.720 115.608,116.455 115.827,115.575 116.801 M291.158 121.865 C 292.742 123.457,294.110 124.759,294.199 124.759 C 294.287 124.759,293.063 123.457,291.479 121.865 C 289.895 120.273,288.526 118.971,288.438 118.971 C 288.349 118.971,289.573 120.273,291.158 121.865 M350.235 201.286 C 350.235 201.905,350.302 202.158,350.382 201.849 C 350.463 201.539,350.463 201.033,350.382 200.723 C 350.302 200.414,350.235 200.667,350.235 201.286 M350.563 205.949 C 350.567 206.656,350.633 206.907,350.710 206.508 C 350.787 206.108,350.784 205.529,350.703 205.221 C 350.623 204.914,350.560 205.241,350.563 205.949 M329.996 208.521 C 329.998 209.405,330.060 209.729,330.134 209.240 C 330.208 208.751,330.206 208.028,330.130 207.632 C 330.054 207.237,329.993 207.637,329.996 208.521 M72.100 209.325 C 72.100 209.944,72.166 210.197,72.247 209.887 C 72.328 209.578,72.328 209.072,72.247 208.762 C 72.166 208.453,72.100 208.706,72.100 209.325 M350.878 209.325 C 350.878 209.944,350.945 210.197,351.026 209.887 C 351.106 209.578,351.106 209.072,351.026 208.762 C 350.945 208.453,350.878 208.706,350.878 209.325 M51.535 211.576 C 51.535 212.371,51.597 212.697,51.674 212.299 C 51.751 211.901,51.751 211.250,51.674 210.852 C 51.597 210.454,51.535 210.780,51.535 211.576 M351.200 211.897 C 351.200 212.516,351.266 212.769,351.347 212.460 C 351.428 212.150,351.428 211.644,351.347 211.334 C 351.266 211.025,351.200 211.278,351.200 211.897 M71.818 215.595 C 71.817 217.186,71.872 217.878,71.939 217.132 C 72.007 216.386,72.007 215.083,71.941 214.238 C 71.874 213.393,71.819 214.003,71.818 215.595 M351.586 226.045 C 351.586 230.378,351.632 232.150,351.687 229.984 C 351.743 227.818,351.743 224.273,351.687 222.106 C 351.632 219.940,351.586 221.712,351.586 226.045 M58.199 241.606 C 58.919 242.048,73.618 242.092,198.392 242.031 L 337.781 241.963 198.232 241.801 C 121.479 241.713,58.392 241.521,58.039 241.377 C 57.685 241.232,57.757 241.335,58.199 241.606 M342.203 265.495 C 342.512 265.576,343.018 265.576,343.328 265.495 C 343.637 265.414,343.384 265.348,342.765 265.348 C 342.146 265.348,341.893 265.414,342.203 265.495 M128.537 279.984 C 167.488 280.029,231.226 280.029,270.177 279.984 C 309.128 279.939,277.259 279.902,199.357 279.902 C 121.455 279.902,89.586 279.939,128.537 279.984 " stroke="none" fill="#fc7c74" fill-rule="evenodd"></path></g></svg>