<svg id="svg" version="1.1" xmlns="http://www.w3.org/2000/svg" xmlns:xlink="http://www.w3.org/1999/xlink" width="400" height="327.27272727272725" viewBox="0, 0, 400,327.27272727272725"><g id="svgg"><path id="path0" d="M182.520 61.864 C 181.998 62.028,181.027 62.600,180.362 63.134 C 179.697 63.668,178.651 64.315,178.038 64.572 C 177.113 64.958,176.852 65.302,176.509 66.582 C 176.262 67.507,175.644 68.592,174.969 69.287 C 174.350 69.925,173.607 71.156,173.319 72.022 C 173.032 72.889,172.458 73.819,172.045 74.090 C 171.618 74.370,170.967 75.454,170.539 76.598 C 170.068 77.859,169.438 78.871,168.860 79.298 C 168.238 79.758,167.766 80.562,167.420 81.754 C 167.099 82.859,166.492 83.939,165.809 84.622 C 165.206 85.225,164.534 86.280,164.314 86.967 C 164.095 87.654,163.500 88.658,162.991 89.198 C 162.482 89.738,161.740 91.033,161.342 92.076 C 160.912 93.205,160.260 94.227,159.733 94.603 C 159.165 95.007,158.690 95.795,158.410 96.793 C 158.159 97.690,157.463 98.912,156.774 99.668 C 156.114 100.391,155.387 101.558,155.158 102.262 C 154.929 102.967,154.342 103.934,153.853 104.412 C 153.364 104.890,152.702 106.008,152.382 106.896 C 152.062 107.784,151.329 108.953,150.753 109.493 C 150.105 110.101,149.538 111.084,149.266 112.073 C 148.998 113.049,148.395 114.104,147.719 114.779 C 147.110 115.388,146.392 116.510,146.123 117.271 C 145.855 118.033,145.214 119.098,144.699 119.639 C 144.185 120.179,143.491 121.414,143.158 122.381 C 142.758 123.544,142.193 124.418,141.489 124.957 C 140.904 125.406,140.426 125.986,140.426 126.247 C 140.426 127.197,139.029 129.933,138.301 130.410 C 137.889 130.680,137.313 131.602,137.021 132.460 C 136.728 133.318,136.072 134.467,135.562 135.013 C 135.051 135.560,134.308 136.833,133.909 137.844 C 133.464 138.972,132.880 139.845,132.394 140.104 C 131.850 140.396,131.443 141.083,131.085 142.313 C 130.762 143.426,130.141 144.537,129.439 145.260 C 128.819 145.898,128.155 147.004,127.962 147.718 C 127.770 148.432,127.192 149.403,126.678 149.876 C 126.164 150.349,125.433 151.547,125.055 152.537 C 124.676 153.527,123.949 154.705,123.440 155.155 C 122.915 155.619,122.262 156.742,121.932 157.748 C 121.601 158.759,120.884 159.989,120.267 160.606 C 119.671 161.202,119.033 162.233,118.850 162.896 C 118.667 163.560,118.080 164.557,117.546 165.112 C 117.013 165.667,116.259 166.931,115.872 167.920 C 115.484 168.910,114.750 170.088,114.240 170.539 C 113.723 170.996,113.081 172.092,112.787 173.020 C 112.474 174.007,111.800 175.127,111.125 175.781 C 110.500 176.387,109.903 177.350,109.795 177.925 C 109.687 178.499,109.024 179.664,108.322 180.514 C 107.620 181.363,106.868 182.650,106.652 183.373 C 106.417 184.158,105.821 185.036,105.175 185.552 C 104.579 186.027,104.090 186.637,104.088 186.907 C 104.082 187.825,102.512 190.781,101.839 191.142 C 101.470 191.339,101.013 192.077,100.823 192.781 C 100.634 193.485,99.978 194.660,99.367 195.391 C 98.756 196.123,97.999 197.422,97.686 198.279 C 97.373 199.135,96.624 200.308,96.021 200.883 C 95.419 201.459,94.926 202.165,94.926 202.451 C 94.926 203.257,93.774 205.314,92.827 206.198 C 92.357 206.636,91.821 207.559,91.636 208.248 C 91.450 208.937,90.862 209.998,90.328 210.606 C 89.794 211.214,88.995 212.531,88.552 213.533 C 88.109 214.536,87.382 215.594,86.938 215.885 C 86.493 216.176,86.029 216.883,85.906 217.455 C 85.579 218.974,84.827 220.342,83.782 221.319 C 83.276 221.792,82.706 222.749,82.515 223.446 C 82.325 224.143,81.722 225.188,81.175 225.768 C 80.629 226.347,79.868 227.642,79.484 228.646 C 79.069 229.729,78.418 230.731,77.879 231.115 C 77.362 231.483,76.875 232.214,76.745 232.820 C 76.403 234.409,75.644 235.758,74.635 236.571 C 74.091 237.010,73.591 237.859,73.377 238.706 C 73.179 239.496,72.598 240.520,72.054 241.041 C 71.520 241.552,70.755 242.852,70.352 243.929 C 69.868 245.223,69.362 246.004,68.861 246.233 C 68.330 246.475,67.947 247.115,67.580 248.379 C 67.226 249.597,66.654 250.577,65.812 251.411 C 65.064 252.152,64.484 253.089,64.358 253.764 C 64.242 254.381,63.627 255.494,62.990 256.237 C 62.354 256.980,61.603 258.264,61.322 259.090 C 61.023 259.967,60.415 260.884,59.858 261.295 C 59.333 261.683,58.742 262.547,58.540 263.221 C 58.339 263.893,57.605 265.131,56.910 265.972 C 55.019 268.261,55.037 271.277,56.957 274.103 C 57.676 275.163,58.265 276.286,58.265 276.600 C 58.265 277.281,58.790 277.745,59.902 278.048 C 61.252 278.415,63.283 279.305,64.209 279.934 C 65.045 280.502,69.930 280.522,188.104 280.443 L 311.129 280.360 313.748 279.255 C 315.188 278.646,316.585 278.043,316.853 277.913 C 317.120 277.783,317.512 277.102,317.724 276.400 C 317.937 275.697,318.491 274.350,318.957 273.406 C 320.162 270.962,320.229 264.317,319.066 262.547 C 317.795 260.612,317.522 260.081,317.517 259.532 C 317.514 259.239,316.933 258.401,316.224 257.671 C 315.491 256.916,314.680 255.611,314.342 254.644 C 314.012 253.699,313.408 252.720,312.982 252.438 C 312.561 252.160,311.885 251.182,311.480 250.266 C 311.074 249.350,310.297 248.112,309.753 247.516 C 309.209 246.920,308.581 245.818,308.358 245.066 C 308.135 244.314,307.470 243.253,306.880 242.709 C 306.269 242.145,305.545 240.970,305.195 239.976 C 304.825 238.921,304.230 237.980,303.691 237.594 C 303.164 237.217,302.656 236.426,302.451 235.663 C 302.252 234.927,301.569 233.841,300.865 233.143 C 300.086 232.370,299.454 231.322,299.159 230.315 C 298.874 229.341,298.384 228.514,297.905 228.200 C 297.473 227.916,296.790 226.939,296.387 226.027 C 295.985 225.116,295.207 223.891,294.659 223.305 C 294.111 222.718,293.428 221.532,293.141 220.668 C 292.832 219.737,292.246 218.821,291.703 218.420 C 291.162 218.019,290.495 216.977,290.071 215.872 C 289.678 214.843,288.992 213.715,288.548 213.366 C 288.104 213.017,287.562 212.136,287.344 211.408 C 287.126 210.680,286.455 209.620,285.852 209.052 C 285.229 208.465,284.466 207.225,284.083 206.177 C 283.674 205.055,283.050 204.068,282.488 203.652 C 281.980 203.277,281.386 202.412,281.168 201.730 C 280.950 201.049,280.437 200.123,280.027 199.673 C 278.957 198.499,277.908 196.662,277.906 195.962 C 277.906 195.632,277.399 194.913,276.781 194.366 C 276.153 193.810,275.326 192.558,274.910 191.531 C 274.499 190.519,273.764 189.355,273.276 188.945 C 272.788 188.534,272.292 187.758,272.174 187.220 C 272.056 186.682,271.323 185.497,270.546 184.587 C 269.724 183.624,268.985 182.342,268.778 181.523 C 268.552 180.624,268.119 179.916,267.579 179.562 C 267.115 179.258,266.448 178.341,266.098 177.524 C 265.748 176.708,264.945 175.436,264.314 174.698 C 263.682 173.961,263.015 172.798,262.831 172.114 C 262.647 171.430,262.274 170.686,262.002 170.460 C 260.745 169.416,260.325 168.810,259.749 167.209 C 259.409 166.264,258.718 165.143,258.213 164.718 C 257.709 164.293,257.142 163.375,256.954 162.678 C 256.763 161.969,256.200 161.077,255.676 160.656 C 254.632 159.815,253.879 158.482,253.528 156.853 C 253.381 156.172,253.006 155.637,252.522 155.416 C 251.811 155.093,250.736 153.391,250.736 152.589 C 250.736 152.402,250.161 151.584,249.458 150.772 C 248.754 149.959,247.998 148.735,247.778 148.051 C 247.557 147.368,246.905 146.367,246.329 145.827 C 245.753 145.286,245.012 144.108,244.683 143.208 C 244.353 142.308,243.602 141.086,243.014 140.492 C 242.425 139.898,241.846 138.969,241.727 138.427 C 241.608 137.885,241.024 136.954,240.429 136.359 C 239.827 135.758,239.024 134.391,238.619 133.278 C 238.145 131.979,237.663 131.207,237.243 131.073 C 236.865 130.953,236.259 130.105,235.782 129.027 C 235.334 128.014,234.480 126.645,233.885 125.986 C 233.289 125.327,232.699 124.292,232.573 123.687 C 232.445 123.069,231.874 122.155,231.272 121.604 C 230.683 121.064,229.869 119.818,229.464 118.835 C 229.059 117.852,228.317 116.664,227.813 116.194 C 227.310 115.723,226.740 114.752,226.547 114.036 C 226.334 113.242,225.822 112.456,225.237 112.023 C 224.639 111.581,224.011 110.603,223.570 109.424 C 223.182 108.385,222.450 107.165,221.944 106.713 C 221.438 106.262,220.775 105.234,220.470 104.430 C 220.166 103.627,219.420 102.420,218.814 101.748 C 218.207 101.077,217.558 99.960,217.371 99.265 C 217.167 98.507,216.645 97.717,216.063 97.287 C 215.442 96.827,214.844 95.883,214.392 94.643 C 213.967 93.475,213.338 92.455,212.799 92.057 C 212.301 91.688,211.733 90.809,211.508 90.059 C 211.287 89.322,210.667 88.308,210.130 87.806 C 209.593 87.304,208.806 86.040,208.382 84.996 C 207.958 83.952,207.290 82.873,206.897 82.598 C 206.505 82.323,205.847 81.337,205.435 80.406 C 205.024 79.476,204.242 78.227,203.697 77.631 C 203.153 77.035,202.525 75.932,202.302 75.180 C 202.066 74.386,201.464 73.454,200.864 72.955 C 200.246 72.441,199.579 71.392,199.200 70.338 C 198.849 69.363,198.084 68.124,197.483 67.557 C 196.887 66.995,196.399 66.228,196.399 65.852 C 196.399 65.477,196.006 64.905,195.525 64.582 C 195.045 64.258,194.136 63.478,193.507 62.848 L 192.362 61.702 187.916 61.633 C 185.470 61.595,183.042 61.699,182.520 61.864 M193.290 113.882 C 195.090 114.263,196.873 114.644,197.252 114.728 C 197.631 114.813,198.515 115.415,199.216 116.066 C 199.917 116.717,200.979 117.628,201.576 118.091 C 202.760 119.008,203.717 120.665,204.039 122.355 C 204.152 122.949,204.631 123.941,205.103 124.559 C 206.462 126.342,206.593 130.181,206.465 164.722 C 206.343 197.451,206.344 197.433,204.906 199.262 C 204.583 199.671,204.075 201.104,203.777 202.446 C 203.356 204.338,203.027 205.059,202.309 205.663 C 201.800 206.091,200.999 207.052,200.528 207.797 C 200.041 208.570,199.115 209.437,198.374 209.814 C 197.660 210.179,196.925 210.758,196.741 211.102 C 195.409 213.591,183.299 213.706,181.365 211.248 C 181.012 210.799,180.163 210.284,179.478 210.104 C 177.721 209.641,172.325 204.057,171.819 202.180 C 171.625 201.456,171.055 200.481,170.553 200.012 C 168.897 198.466,168.868 197.714,168.972 160.229 C 169.076 122.773,168.993 124.408,170.844 123.417 C 171.188 123.233,171.563 122.653,171.678 122.129 C 171.948 120.903,174.771 117.953,176.278 117.324 C 176.918 117.056,177.840 116.396,178.328 115.857 C 179.122 114.979,179.609 114.809,182.979 114.236 C 185.049 113.884,187.185 113.454,187.725 113.280 C 188.819 112.928,188.738 112.919,193.290 113.882 M194.435 223.922 C 195.252 224.109,196.346 224.675,196.890 225.193 C 197.430 225.707,198.428 226.355,199.107 226.634 C 199.786 226.913,200.585 227.564,200.882 228.081 C 201.178 228.598,201.823 229.252,202.314 229.534 C 202.962 229.905,203.350 230.540,203.730 231.845 C 204.018 232.835,204.695 234.485,205.236 235.513 C 206.632 238.168,206.692 243.200,205.355 245.499 C 204.883 246.309,204.238 247.812,203.920 248.839 C 203.113 251.447,199.968 254.639,197.381 255.476 C 196.391 255.796,195.355 256.254,195.078 256.494 C 192.827 258.448,184.839 258.444,182.678 256.489 C 182.366 256.207,181.122 255.732,179.912 255.434 C 178.318 255.040,177.380 254.581,176.500 253.762 C 175.833 253.140,174.736 252.279,174.063 251.846 C 173.285 251.347,172.480 250.376,171.853 249.180 C 171.310 248.146,170.550 246.904,170.163 246.420 C 168.313 244.103,168.591 235.863,170.583 234.002 C 171.096 233.524,171.806 232.453,172.161 231.623 C 172.517 230.794,172.979 230.115,173.188 230.115 C 173.397 230.115,174.262 229.398,175.111 228.522 C 176.214 227.383,177.160 226.765,178.425 226.354 C 179.399 226.038,180.576 225.425,181.040 224.993 C 182.442 223.689,190.580 223.038,194.435 223.922 " stroke="none" fill="#5d5d5d" fill-rule="evenodd"></path><path id="path1" d="M0.000 163.666 L 0.000 327.332 200.000 327.332 L 400.000 327.332 400.000 163.666 L 400.000 0.000 200.000 0.000 L 0.000 0.000 0.000 163.666 M194.364 60.405 C 195.782 60.991,197.643 62.890,198.108 64.223 C 198.286 64.735,198.725 65.310,199.083 65.501 C 199.440 65.693,200.093 66.664,200.534 67.660 C 200.974 68.655,201.776 69.911,202.315 70.450 C 202.854 70.989,203.473 72.097,203.691 72.912 C 203.956 73.901,204.428 74.652,205.112 75.174 C 205.699 75.622,206.384 76.615,206.718 77.503 C 207.038 78.354,207.786 79.595,208.379 80.260 C 208.972 80.925,209.614 82.050,209.805 82.761 C 210.012 83.529,210.495 84.277,210.995 84.605 C 211.816 85.143,213.409 88.053,213.419 89.034 C 213.422 89.304,213.857 89.771,214.385 90.072 C 215.043 90.446,215.457 91.032,215.700 91.935 C 215.897 92.667,216.610 93.830,217.307 94.555 C 218.065 95.345,218.727 96.459,218.985 97.381 C 219.250 98.328,219.719 99.105,220.224 99.436 C 220.670 99.729,221.440 100.859,221.933 101.948 C 222.426 103.037,223.218 104.287,223.694 104.725 C 224.169 105.163,224.709 106.086,224.895 106.776 C 225.082 107.469,225.715 108.468,226.313 109.012 C 226.974 109.614,227.635 110.706,228.015 111.824 C 228.404 112.967,228.966 113.888,229.516 114.279 C 229.999 114.623,230.563 115.414,230.768 116.037 C 230.974 116.659,231.725 117.872,232.437 118.732 C 233.150 119.591,233.900 120.884,234.104 121.604 C 234.308 122.324,234.945 123.355,235.518 123.895 C 236.092 124.435,236.835 125.540,237.169 126.350 C 237.503 127.160,238.258 128.372,238.847 129.042 C 239.436 129.713,240.017 130.671,240.138 131.170 C 240.259 131.670,240.905 132.679,241.574 133.414 C 242.243 134.148,243.035 135.485,243.334 136.386 C 243.671 137.398,244.239 138.289,244.824 138.722 C 245.351 139.112,245.870 139.877,245.996 140.451 C 246.120 141.018,246.702 142.017,247.289 142.672 C 248.470 143.990,249.427 145.686,249.427 146.462 C 249.427 146.740,249.886 147.373,250.446 147.870 C 251.007 148.366,251.825 149.583,252.264 150.573 C 252.703 151.563,253.479 152.815,253.988 153.355 C 254.497 153.895,255.090 154.887,255.304 155.560 C 255.518 156.232,256.033 157.049,256.448 157.375 C 257.201 157.968,258.287 159.841,258.758 161.362 C 258.896 161.806,259.371 162.454,259.815 162.803 C 260.259 163.152,260.908 164.104,261.256 164.917 C 261.605 165.731,262.391 166.950,263.002 167.627 C 263.613 168.303,264.263 169.397,264.445 170.058 C 264.627 170.718,265.263 171.732,265.858 172.311 C 266.453 172.891,267.206 174.112,267.532 175.025 C 267.858 175.939,268.551 177.066,269.071 177.530 C 269.592 177.994,270.178 178.968,270.374 179.695 C 270.585 180.479,271.065 181.236,271.554 181.557 C 272.467 182.155,273.447 183.883,273.800 185.518 C 273.928 186.112,274.345 186.752,274.740 186.963 C 275.657 187.451,276.175 188.166,276.391 189.242 C 276.486 189.716,277.155 190.787,277.878 191.622 C 278.601 192.457,279.371 193.735,279.588 194.461 C 279.812 195.208,280.368 196.055,280.868 196.411 C 281.376 196.773,282.072 197.844,282.505 198.929 C 282.919 199.968,283.735 201.292,284.317 201.870 C 284.900 202.449,285.477 203.378,285.599 203.935 C 285.721 204.493,286.311 205.439,286.910 206.037 C 287.509 206.636,288.268 207.898,288.598 208.842 C 288.933 209.800,289.536 210.781,289.964 211.064 C 290.385 211.342,291.084 212.372,291.518 213.353 C 291.951 214.333,292.752 215.591,293.297 216.148 C 293.842 216.706,294.455 217.756,294.660 218.483 C 294.864 219.209,295.505 220.245,296.084 220.786 C 296.663 221.326,297.464 222.607,297.863 223.632 C 298.262 224.658,298.930 225.720,299.346 225.993 C 299.764 226.267,300.340 227.202,300.632 228.082 C 300.955 229.055,301.530 229.948,302.108 230.376 C 302.693 230.808,303.325 231.798,303.762 232.965 C 304.151 234.004,304.880 235.224,305.383 235.676 C 305.886 236.128,306.550 237.197,306.858 238.052 C 307.167 238.908,307.557 239.607,307.727 239.607 C 308.169 239.607,309.984 242.568,309.984 243.289 C 309.984 243.623,310.491 244.367,311.110 244.943 C 311.730 245.519,312.552 246.800,312.938 247.789 C 313.323 248.779,314.056 249.957,314.566 250.408 C 315.076 250.859,315.659 251.763,315.861 252.419 C 316.064 253.074,316.715 254.109,317.307 254.719 C 317.900 255.329,318.658 256.561,318.991 257.456 C 319.325 258.351,320.023 259.452,320.542 259.902 C 322.894 261.940,322.603 274.511,320.133 277.548 C 318.211 279.912,316.212 281.559,314.599 282.109 C 313.764 282.393,282.224 282.488,187.993 282.488 C 53.864 282.488,60.615 282.566,60.019 281.011 C 59.908 280.723,59.188 280.191,58.418 279.829 C 57.507 279.401,56.876 278.831,56.614 278.198 C 56.393 277.663,55.938 277.079,55.605 276.901 C 53.072 275.545,53.062 264.159,55.593 263.356 C 56.207 263.161,56.956 261.895,56.956 261.052 C 56.956 260.801,57.540 259.921,58.254 259.096 C 58.968 258.271,59.731 256.999,59.950 256.269 C 60.169 255.539,60.807 254.548,61.367 254.067 C 62.044 253.486,62.581 252.557,62.962 251.306 C 63.359 250.007,63.836 249.200,64.494 248.713 C 65.072 248.286,65.654 247.396,65.963 246.464 C 66.245 245.616,66.786 244.646,67.165 244.310 C 67.544 243.974,68.332 242.659,68.916 241.387 C 69.528 240.053,70.338 238.839,70.831 238.515 C 71.301 238.207,71.686 237.728,71.686 237.451 C 71.686 236.461,73.075 233.738,73.834 233.241 C 74.272 232.954,74.761 232.160,74.964 231.406 C 75.161 230.675,75.803 229.533,76.392 228.869 C 76.981 228.204,77.792 226.833,78.195 225.822 C 78.642 224.700,79.234 223.820,79.717 223.562 C 80.261 223.271,80.668 222.584,81.026 221.353 C 81.349 220.241,81.970 219.129,82.672 218.406 C 83.292 217.768,83.951 216.682,84.137 215.994 C 84.322 215.306,84.959 214.212,85.553 213.564 C 86.147 212.916,86.894 211.660,87.213 210.773 C 87.532 209.886,88.201 208.830,88.700 208.426 C 89.244 207.986,89.839 206.981,90.184 205.918 C 90.516 204.898,91.223 203.682,91.848 203.056 C 92.446 202.458,93.087 201.408,93.271 200.723 C 93.456 200.038,94.039 199.064,94.567 198.557 C 95.096 198.051,95.854 196.766,96.252 195.700 C 96.696 194.513,97.322 193.518,97.870 193.128 C 98.445 192.718,98.919 191.936,99.200 190.932 C 99.453 190.029,100.145 188.818,100.842 188.057 C 101.505 187.335,102.152 186.258,102.280 185.666 C 102.408 185.073,103.084 183.928,103.782 183.122 C 104.480 182.315,105.231 181.058,105.449 180.328 C 105.671 179.586,106.303 178.614,106.880 178.126 C 107.555 177.554,108.063 176.702,108.343 175.671 C 108.611 174.687,109.234 173.612,109.994 172.821 C 110.671 172.117,111.306 171.069,111.419 170.472 C 111.531 169.879,112.069 168.918,112.615 168.337 C 113.160 167.755,114.043 166.305,114.577 165.114 C 115.185 163.760,115.786 162.888,116.184 162.784 C 116.571 162.683,116.907 162.214,117.043 161.587 C 117.362 160.108,118.297 158.390,119.284 157.468 C 119.754 157.030,120.287 156.120,120.468 155.446 C 120.650 154.772,121.289 153.633,121.888 152.916 C 122.488 152.198,123.304 150.809,123.702 149.827 C 124.131 148.770,124.745 147.873,125.209 147.625 C 125.661 147.383,126.084 146.776,126.211 146.189 C 126.532 144.700,127.478 142.982,128.429 142.161 C 128.887 141.766,129.425 140.837,129.624 140.097 C 129.823 139.357,130.471 138.208,131.065 137.543 C 131.658 136.878,132.412 135.620,132.740 134.747 C 133.070 133.871,133.752 132.854,134.263 132.476 C 134.772 132.100,135.188 131.589,135.188 131.341 C 135.188 130.352,136.592 127.713,137.460 127.071 C 138.045 126.639,138.462 125.957,138.604 125.205 C 138.726 124.552,139.328 123.464,139.944 122.782 C 140.560 122.101,141.388 120.695,141.784 119.658 C 142.248 118.446,142.774 117.650,143.257 117.430 C 143.779 117.193,144.165 116.546,144.524 115.311 C 144.849 114.195,145.507 113.026,146.294 112.168 C 146.983 111.417,147.651 110.317,147.779 109.725 C 147.907 109.132,148.583 107.987,149.282 107.180 C 149.980 106.374,150.731 105.111,150.952 104.375 C 151.181 103.612,151.746 102.746,152.265 102.362 C 152.879 101.908,153.350 101.096,153.703 99.881 C 154.060 98.654,154.592 97.741,155.360 97.037 C 156.000 96.452,156.645 95.446,156.844 94.727 C 157.037 94.026,157.767 92.735,158.466 91.856 C 159.165 90.978,159.915 89.665,160.133 88.938 C 160.374 88.133,160.855 87.429,161.364 87.137 C 161.941 86.806,162.384 86.073,162.800 84.761 C 163.195 83.513,163.777 82.522,164.501 81.862 C 165.141 81.280,165.751 80.309,165.957 79.542 C 166.153 78.817,166.749 77.727,167.282 77.119 C 167.816 76.511,168.615 75.194,169.058 74.192 C 169.502 73.189,170.237 72.125,170.693 71.826 C 171.149 71.528,171.524 71.042,171.525 70.748 C 171.531 69.817,173.078 66.842,173.741 66.487 C 174.092 66.300,174.570 65.662,174.803 65.070 C 175.304 63.804,176.381 62.520,176.942 62.520 C 177.160 62.520,177.588 62.140,177.892 61.676 C 178.897 60.142,179.982 59.929,186.835 59.915 C 191.791 59.905,193.409 60.010,194.364 60.405 M183.138 116.159 C 182.596 116.300,181.468 116.938,180.632 117.577 C 179.795 118.215,178.594 118.834,177.962 118.953 C 177.113 119.112,176.636 119.467,176.139 120.309 C 175.769 120.937,175.124 121.581,174.705 121.740 C 174.122 121.961,173.728 122.666,173.023 124.750 C 172.516 126.246,171.861 127.838,171.566 128.287 C 171.080 129.029,171.031 132.067,171.031 161.524 L 171.031 193.944 171.918 195.748 C 172.406 196.740,173.045 198.490,173.339 199.635 C 173.861 201.673,174.174 202.128,177.022 204.975 C 179.791 207.743,180.312 208.122,182.123 208.684 C 183.183 209.014,184.501 209.662,185.051 210.124 C 186.458 211.307,192.155 211.411,193.063 210.270 C 193.368 209.887,194.427 209.176,195.417 208.689 C 197.727 207.554,198.230 207.088,199.431 204.966 C 199.974 204.007,200.697 203.049,201.036 202.838 C 202.757 201.769,202.946 197.691,202.946 161.563 C 202.946 125.043,202.864 123.222,201.137 121.604 C 200.560 121.064,199.917 120.292,199.707 119.889 C 199.498 119.486,198.852 118.920,198.272 118.631 C 197.692 118.343,196.830 117.650,196.357 117.093 L 195.497 116.079 189.810 115.991 C 186.683 115.942,183.681 116.018,183.138 116.159 M186.907 225.796 C 186.457 225.921,185.646 226.261,185.106 226.552 C 183.956 227.172,182.331 227.684,180.589 227.977 C 179.733 228.121,178.783 228.696,177.540 229.821 C 176.547 230.721,175.411 231.579,175.016 231.730 C 174.540 231.911,174.090 232.595,173.683 233.759 C 173.345 234.725,172.647 236.525,172.132 237.759 C 170.984 240.507,170.972 241.113,172.022 243.289 C 172.477 244.232,173.002 245.574,173.190 246.270 C 173.534 247.549,176.630 251.064,177.411 251.064 C 177.621 251.064,178.354 251.631,179.040 252.324 C 180.380 253.677,179.898 253.550,186.743 254.353 C 189.430 254.669,193.776 254.323,196.056 253.613 C 197.313 253.221,201.376 249.226,201.939 247.827 C 203.624 243.644,202.747 232.555,200.636 231.349 C 200.091 231.039,199.442 230.296,199.193 229.700 C 198.800 228.760,198.466 228.537,196.669 228.016 C 195.531 227.685,193.974 227.059,193.211 226.625 C 191.750 225.794,188.471 225.363,186.907 225.796 " stroke="none" fill="#fbfbfb" fill-rule="evenodd"></path><path id="path2" d="M181.245 60.872 C 180.561 61.005,179.530 61.559,178.953 62.105 C 178.377 62.650,177.574 63.266,177.170 63.474 C 176.765 63.682,176.119 64.473,175.734 65.232 C 175.348 65.991,174.663 67.054,174.210 67.594 C 173.758 68.134,172.990 69.460,172.505 70.540 C 172.020 71.620,171.357 72.725,171.031 72.995 C 170.706 73.265,170.043 74.370,169.558 75.450 C 169.073 76.530,168.417 77.630,168.099 77.894 C 167.781 78.158,167.094 79.254,166.573 80.331 C 166.051 81.407,165.339 82.592,164.989 82.964 C 164.640 83.336,163.994 84.455,163.554 85.450 C 163.113 86.446,162.491 87.475,162.171 87.738 C 161.852 88.001,161.106 89.261,160.514 90.538 C 159.923 91.814,159.199 93.058,158.907 93.300 C 158.615 93.543,157.930 94.634,157.385 95.725 C 156.840 96.816,156.122 98.005,155.791 98.367 C 155.459 98.730,154.869 99.761,154.479 100.659 C 154.090 101.557,153.373 102.733,152.886 103.273 C 152.399 103.813,151.726 104.918,151.391 105.728 C 151.055 106.538,150.442 107.575,150.028 108.032 C 149.614 108.488,148.838 109.764,148.304 110.866 C 147.770 111.968,147.170 112.971,146.970 113.095 C 146.770 113.218,146.122 114.314,145.531 115.528 C 144.940 116.743,144.141 118.052,143.756 118.437 C 143.371 118.822,142.636 120.060,142.123 121.189 C 141.610 122.317,140.929 123.456,140.610 123.718 C 140.290 123.981,139.679 124.988,139.251 125.956 C 138.823 126.923,138.088 128.173,137.617 128.733 C 137.146 129.292,136.431 130.495,136.027 131.405 C 135.624 132.316,135.030 133.279,134.707 133.545 C 134.385 133.812,133.633 135.101,133.037 136.409 C 132.440 137.718,131.807 138.789,131.630 138.789 C 131.453 138.789,130.909 139.636,130.421 140.671 C 129.933 141.706,129.164 142.995,128.711 143.535 C 128.259 144.075,127.491 145.401,127.006 146.481 C 126.521 147.561,125.857 148.666,125.532 148.936 C 125.206 149.206,124.544 150.311,124.059 151.391 C 123.574 152.471,122.910 153.576,122.583 153.846 C 122.257 154.116,121.659 155.082,121.256 155.992 C 120.852 156.903,120.137 158.105,119.666 158.665 C 119.195 159.225,118.460 160.474,118.032 161.442 C 117.604 162.410,116.993 163.416,116.674 163.679 C 116.356 163.942,115.623 165.191,115.046 166.455 C 114.469 167.719,113.740 168.965,113.427 169.226 C 113.113 169.486,112.430 170.580,111.908 171.656 C 111.387 172.733,110.674 173.918,110.324 174.290 C 109.974 174.663,109.370 175.702,108.980 176.600 C 108.590 177.498,107.873 178.674,107.387 179.214 C 106.900 179.755,106.227 180.859,105.891 181.669 C 105.556 182.480,104.943 183.516,104.529 183.973 C 104.115 184.429,103.339 185.705,102.805 186.807 C 102.271 187.909,101.665 188.916,101.457 189.044 C 101.250 189.172,100.688 190.108,100.207 191.124 C 99.727 192.139,98.912 193.498,98.397 194.144 C 97.882 194.790,97.140 196.075,96.749 197.001 C 96.358 197.926,95.658 199.090,95.193 199.587 C 94.728 200.084,94.029 201.226,93.639 202.124 C 93.249 203.022,92.644 204.061,92.294 204.433 C 91.945 204.805,91.232 205.991,90.710 207.067 C 90.189 208.144,89.519 209.227,89.221 209.474 C 88.923 209.721,88.179 211.005,87.569 212.327 C 86.958 213.648,86.312 214.730,86.133 214.730 C 85.955 214.730,85.410 215.577,84.922 216.612 C 84.434 217.647,83.672 218.928,83.229 219.458 C 82.786 219.988,82.062 221.240,81.619 222.240 C 81.177 223.240,80.465 224.427,80.036 224.877 C 79.607 225.327,78.943 226.432,78.560 227.332 C 78.177 228.232,77.514 229.337,77.087 229.787 C 76.660 230.237,76.027 231.270,75.680 232.081 C 75.334 232.893,74.665 234.015,74.193 234.576 C 73.721 235.136,73.028 236.313,72.653 237.192 C 72.278 238.070,71.622 239.157,71.194 239.607 C 70.767 240.057,69.989 241.383,69.466 242.553 C 68.942 243.723,68.246 244.902,67.919 245.172 C 67.592 245.442,66.995 246.408,66.591 247.318 C 66.188 248.228,65.478 249.425,65.014 249.976 C 64.550 250.528,63.893 251.625,63.555 252.415 C 63.216 253.205,62.547 254.317,62.069 254.886 C 61.590 255.455,60.886 256.632,60.504 257.502 C 60.122 258.372,59.425 259.542,58.956 260.103 C 58.486 260.664,57.693 261.842,57.193 262.722 C 56.693 263.601,55.929 264.807,55.496 265.401 C 54.201 267.176,54.113 274.050,55.376 274.830 C 55.555 274.941,56.208 275.824,56.828 276.793 C 57.592 277.988,58.400 278.779,59.338 279.249 C 60.098 279.631,61.015 280.205,61.375 280.525 C 61.735 280.845,62.810 281.270,63.764 281.470 C 65.746 281.885,309.247 281.961,312.141 281.547 C 313.630 281.335,315.105 280.595,317.724 278.748 C 321.159 276.326,322.602 263.959,319.820 260.788 C 319.313 260.211,318.653 259.149,318.354 258.429 C 318.055 257.709,317.393 256.599,316.884 255.963 C 316.375 255.326,315.583 254.065,315.124 253.160 C 314.665 252.254,314.034 251.302,313.721 251.043 C 313.407 250.785,312.815 249.814,312.404 248.887 C 311.993 247.959,311.224 246.707,310.695 246.104 C 310.166 245.501,309.487 244.419,309.186 243.699 C 308.886 242.979,308.295 242.021,307.874 241.571 C 307.453 241.121,306.708 239.943,306.219 238.953 C 305.731 237.962,304.986 236.784,304.565 236.334 C 304.144 235.884,303.560 234.943,303.268 234.244 C 302.975 233.544,302.181 232.218,301.502 231.298 C 300.823 230.377,300.085 229.159,299.862 228.592 C 299.639 228.025,299.098 227.224,298.661 226.813 C 298.223 226.402,297.490 225.246,297.032 224.244 C 296.574 223.242,295.847 222.054,295.416 221.604 C 294.986 221.154,294.410 220.251,294.138 219.598 C 293.865 218.944,293.256 217.951,292.784 217.391 C 292.313 216.831,291.515 215.524,291.011 214.487 C 290.507 213.451,289.777 212.317,289.389 211.968 C 289.001 211.619,288.404 210.702,288.063 209.930 C 287.721 209.159,286.997 207.971,286.453 207.291 C 285.908 206.612,285.238 205.513,284.962 204.850 C 284.687 204.187,284.074 203.230,283.601 202.723 C 283.128 202.215,282.411 201.056,282.006 200.146 C 281.602 199.236,280.826 197.984,280.281 197.364 C 279.737 196.743,279.045 195.646,278.744 194.926 C 278.444 194.206,277.845 193.249,277.414 192.799 C 276.983 192.349,276.322 191.281,275.944 190.426 C 275.566 189.571,274.874 188.467,274.407 187.971 C 273.941 187.476,273.281 186.451,272.941 185.694 C 272.601 184.937,271.982 183.906,271.566 183.402 C 271.150 182.899,270.323 181.567,269.729 180.442 C 269.135 179.317,268.524 178.396,268.372 178.396 C 268.219 178.396,267.646 177.508,267.098 176.422 C 266.550 175.337,265.591 173.779,264.966 172.960 C 264.341 172.142,263.830 171.274,263.830 171.031 C 263.830 170.789,263.321 169.924,262.700 169.110 C 262.078 168.296,261.248 166.996,260.855 166.221 C 260.463 165.446,259.728 164.339,259.224 163.760 C 258.719 163.182,257.995 162.003,257.614 161.142 C 257.233 160.280,256.570 159.206,256.141 158.756 C 255.712 158.306,255.076 157.275,254.728 156.465 C 254.380 155.655,253.760 154.697,253.350 154.337 C 252.941 153.977,252.247 152.878,251.809 151.896 C 251.370 150.913,250.581 149.619,250.055 149.019 C 249.529 148.420,248.870 147.383,248.591 146.714 C 248.312 146.046,247.731 145.131,247.301 144.681 C 246.870 144.231,246.141 143.038,245.680 142.030 C 245.219 141.022,244.527 139.917,244.141 139.575 C 243.756 139.233,243.108 138.208,242.702 137.297 C 242.295 136.387,241.600 135.209,241.156 134.679 C 240.713 134.149,239.973 132.969,239.513 132.058 C 239.053 131.147,238.431 130.198,238.132 129.949 C 237.833 129.701,237.097 128.523,236.498 127.332 C 235.898 126.141,235.150 124.954,234.836 124.695 C 234.521 124.435,233.935 123.480,233.533 122.573 C 233.131 121.665,232.553 120.716,232.249 120.464 C 231.945 120.212,231.209 119.039,230.614 117.858 C 230.019 116.678,229.222 115.432,228.843 115.090 C 228.463 114.747,227.776 113.643,227.315 112.635 C 226.854 111.627,226.126 110.434,225.698 109.984 C 225.270 109.534,224.634 108.502,224.286 107.692 C 223.938 106.882,223.322 105.925,222.917 105.565 C 222.513 105.205,221.823 104.100,221.384 103.110 C 220.945 102.119,220.242 100.941,219.822 100.491 C 219.401 100.041,218.730 99.010,218.331 98.200 C 217.931 97.390,217.260 96.358,216.839 95.908 C 216.419 95.458,215.716 94.280,215.277 93.290 C 214.838 92.300,214.150 91.195,213.748 90.835 C 213.346 90.475,212.689 89.444,212.288 88.543 C 211.888 87.643,211.188 86.465,210.734 85.925 C 210.279 85.385,209.531 84.197,209.071 83.285 C 208.611 82.374,207.990 81.425,207.690 81.177 C 207.391 80.928,206.655 79.751,206.056 78.560 C 205.456 77.369,204.708 76.182,204.394 75.922 C 204.079 75.663,203.493 74.708,203.091 73.800 C 202.689 72.893,202.111 71.944,201.807 71.692 C 201.503 71.439,200.763 70.258,200.164 69.067 C 199.564 67.876,198.839 66.707,198.552 66.469 C 198.265 66.231,197.713 65.471,197.325 64.781 C 196.662 63.603,194.842 61.878,193.311 60.977 C 192.559 60.535,183.399 60.455,181.245 60.872 M192.902 61.262 C 194.377 62.042,196.466 63.987,197.042 65.116 C 197.370 65.759,197.949 66.565,198.327 66.907 C 198.706 67.249,199.393 68.354,199.854 69.362 C 200.315 70.370,201.044 71.563,201.474 72.013 C 201.904 72.463,202.485 73.378,202.764 74.047 C 203.043 74.715,203.702 75.752,204.229 76.352 C 204.755 76.951,205.544 78.245,205.982 79.228 C 206.421 80.211,207.114 81.309,207.524 81.669 C 207.933 82.029,208.540 82.955,208.873 83.725 C 209.206 84.496,209.917 85.674,210.453 86.344 C 210.989 87.014,211.654 88.108,211.932 88.777 C 212.210 89.445,212.875 90.491,213.410 91.100 C 213.945 91.710,214.668 92.872,215.015 93.683 C 215.363 94.494,216.087 95.658,216.623 96.269 C 217.160 96.881,217.845 97.971,218.146 98.691 C 218.447 99.411,219.037 100.368,219.458 100.818 C 219.880 101.268,220.624 102.447,221.113 103.437 C 221.602 104.427,222.346 105.606,222.767 106.056 C 223.189 106.506,223.757 107.409,224.029 108.062 C 224.302 108.715,224.880 109.673,225.313 110.190 C 225.746 110.706,226.545 112.013,227.089 113.093 C 227.634 114.173,228.389 115.337,228.768 115.680 C 229.147 116.022,229.834 117.127,230.295 118.135 C 230.756 119.143,231.486 120.336,231.916 120.786 C 232.346 121.236,232.927 122.151,233.206 122.819 C 233.485 123.488,234.137 124.519,234.655 125.111 C 235.172 125.702,235.921 126.945,236.319 127.873 C 236.716 128.800,237.405 129.901,237.850 130.319 C 238.295 130.737,238.936 131.705,239.275 132.471 C 239.613 133.236,240.336 134.418,240.880 135.098 C 241.424 135.778,242.094 136.876,242.370 137.539 C 242.645 138.202,243.258 139.160,243.731 139.667 C 244.204 140.174,244.923 141.326,245.329 142.226 C 245.736 143.126,246.461 144.304,246.941 144.845 C 247.421 145.385,248.111 146.489,248.475 147.300 C 248.838 148.110,249.487 149.141,249.918 149.591 C 250.349 150.041,251.011 151.109,251.389 151.963 C 251.767 152.818,252.456 153.923,252.920 154.418 C 253.384 154.914,254.020 155.909,254.332 156.631 C 254.645 157.352,255.270 158.384,255.721 158.922 C 256.172 159.461,256.917 160.648,257.377 161.559 C 257.838 162.470,258.459 163.419,258.757 163.667 C 259.056 163.915,259.735 164.978,260.266 166.030 C 260.796 167.081,261.742 168.611,262.366 169.429 C 262.991 170.248,263.502 171.122,263.502 171.372 C 263.502 171.622,263.925 172.310,264.441 172.902 C 264.958 173.493,265.787 174.787,266.285 175.777 C 266.782 176.768,267.612 178.062,268.129 178.654 C 268.646 179.246,269.296 180.277,269.574 180.945 C 269.851 181.614,270.517 182.708,271.053 183.378 C 271.589 184.047,272.300 185.226,272.633 185.996 C 272.965 186.767,273.571 187.692,273.979 188.052 C 274.387 188.412,275.120 189.591,275.608 190.671 C 276.096 191.751,276.750 192.847,277.062 193.105 C 277.374 193.364,278.001 194.322,278.457 195.233 C 278.912 196.145,279.629 197.259,280.050 197.709 C 280.471 198.159,281.175 199.337,281.613 200.327 C 282.052 201.318,282.744 202.422,283.152 202.782 C 283.559 203.142,284.186 204.100,284.545 204.910 C 284.904 205.720,285.600 206.899,286.091 207.529 C 286.583 208.159,287.356 209.411,287.811 210.311 C 288.265 211.211,288.946 212.228,289.325 212.570 C 289.704 212.912,290.391 214.017,290.852 215.025 C 291.313 216.033,292.040 217.226,292.469 217.676 C 292.897 218.126,293.532 219.159,293.879 219.972 C 294.226 220.785,294.763 221.660,295.073 221.917 C 295.383 222.174,296.127 223.359,296.727 224.550 C 297.326 225.741,298.062 226.918,298.361 227.167 C 298.661 227.415,299.281 228.364,299.741 229.276 C 300.201 230.187,300.996 231.466,301.509 232.117 C 302.021 232.768,302.720 233.946,303.060 234.735 C 303.401 235.525,304.010 236.465,304.415 236.825 C 304.819 237.185,305.509 238.290,305.948 239.280 C 306.387 240.270,307.090 241.448,307.510 241.899 C 307.931 242.349,308.602 243.380,309.002 244.190 C 309.401 245.000,310.072 246.031,310.493 246.481 C 310.913 246.931,311.616 248.110,312.055 249.100 C 312.494 250.090,313.184 251.195,313.588 251.555 C 313.993 251.915,314.602 252.855,314.943 253.643 C 315.283 254.431,315.935 255.520,316.391 256.063 C 316.848 256.605,317.597 257.801,318.057 258.721 C 318.516 259.640,319.281 260.808,319.757 261.315 L 320.622 262.237 320.622 267.861 L 320.622 273.486 319.509 275.450 C 318.322 277.546,316.946 279.214,316.405 279.214 C 316.223 279.214,315.551 279.576,314.911 280.018 C 312.682 281.559,315.775 281.525,186.579 281.431 L 63.993 281.342 62.602 280.606 C 61.837 280.200,60.614 279.555,59.885 279.172 C 59.156 278.788,58.309 278.121,58.003 277.688 C 57.697 277.255,56.980 276.290,56.409 275.543 C 54.149 272.586,54.206 266.860,56.518 264.548 C 56.771 264.296,57.283 263.478,57.657 262.732 C 58.030 261.985,58.741 260.933,59.235 260.393 C 59.730 259.853,60.414 258.708,60.755 257.849 C 61.096 256.991,61.721 255.886,62.144 255.394 C 62.567 254.903,63.337 253.665,63.855 252.643 C 64.373 251.620,64.956 250.686,65.151 250.565 C 65.346 250.445,66.008 249.313,66.623 248.051 C 67.237 246.788,68.092 245.403,68.523 244.972 C 68.953 244.542,69.569 243.490,69.891 242.635 C 70.214 241.780,70.887 240.607,71.388 240.029 C 71.889 239.450,72.593 238.312,72.952 237.500 C 73.312 236.688,74.036 235.467,74.562 234.787 C 75.088 234.108,75.711 233.036,75.945 232.406 C 76.180 231.776,76.772 230.818,77.262 230.278 C 77.752 229.738,78.556 228.383,79.048 227.268 C 79.540 226.152,80.238 224.974,80.599 224.649 C 80.960 224.324,81.583 223.322,81.983 222.422 C 82.384 221.522,83.082 220.344,83.535 219.804 C 83.988 219.264,84.682 218.085,85.077 217.185 C 85.473 216.285,86.147 215.180,86.576 214.730 C 87.005 214.280,87.669 213.175,88.052 212.275 C 88.436 211.375,89.098 210.270,89.525 209.820 C 89.952 209.370,90.609 208.283,90.984 207.404 C 91.359 206.526,92.055 205.348,92.529 204.786 C 93.004 204.224,93.722 203.022,94.125 202.115 C 94.528 201.207,95.118 200.250,95.437 199.987 C 95.756 199.724,96.488 198.475,97.065 197.211 C 97.642 195.948,98.378 194.696,98.701 194.429 C 99.024 194.162,99.618 193.200,100.021 192.289 C 100.424 191.379,101.134 190.183,101.598 189.631 C 102.062 189.079,102.749 187.909,103.124 187.031 C 103.499 186.152,104.152 185.065,104.574 184.615 C 104.996 184.165,105.807 182.803,106.377 181.588 C 106.946 180.372,107.547 179.378,107.711 179.378 C 107.876 179.378,108.470 178.457,109.032 177.332 C 109.595 176.207,110.326 174.990,110.657 174.628 C 110.988 174.267,111.621 173.162,112.062 172.173 C 112.504 171.185,113.285 169.908,113.797 169.335 C 114.310 168.762,115.009 167.584,115.350 166.716 C 115.691 165.849,116.373 164.697,116.867 164.157 C 117.361 163.617,118.083 162.440,118.473 161.543 C 118.862 160.645,119.461 159.612,119.804 159.247 C 120.146 158.883,120.737 157.881,121.118 157.021 C 121.498 156.162,122.220 154.985,122.722 154.407 C 123.224 153.828,124.042 152.442,124.539 151.327 C 125.036 150.211,125.737 149.033,126.098 148.708 C 126.459 148.383,127.082 147.381,127.483 146.481 C 127.883 145.581,128.584 144.403,129.039 143.863 C 129.494 143.322,130.193 142.118,130.593 141.185 C 130.993 140.253,131.619 139.222,131.983 138.894 C 132.348 138.566,133.005 137.488,133.444 136.498 C 133.883 135.507,134.594 134.329,135.025 133.879 C 135.456 133.429,136.053 132.471,136.352 131.751 C 136.652 131.031,137.380 129.779,137.971 128.969 C 138.561 128.159,139.289 126.907,139.589 126.187 C 139.888 125.466,140.484 124.509,140.913 124.059 C 141.342 123.609,142.122 122.283,142.646 121.113 C 143.170 119.943,143.866 118.764,144.192 118.494 C 144.519 118.224,145.117 117.258,145.520 116.348 C 145.923 115.438,146.633 114.242,147.097 113.690 C 147.561 113.138,148.248 111.968,148.623 111.090 C 148.999 110.211,149.656 109.124,150.085 108.674 C 150.514 108.224,151.224 107.046,151.662 106.056 C 152.101 105.065,152.752 103.993,153.108 103.673 C 153.464 103.352,154.030 102.469,154.366 101.709 C 154.701 100.949,155.605 99.397,156.375 98.261 C 157.145 97.124,157.774 95.988,157.774 95.735 C 157.774 95.483,158.219 94.770,158.762 94.151 C 159.306 93.532,160.179 92.081,160.702 90.926 C 161.226 89.772,161.898 88.625,162.196 88.377 C 162.494 88.130,163.183 87.035,163.728 85.944 C 164.273 84.853,164.991 83.664,165.322 83.302 C 165.654 82.940,166.229 81.957,166.600 81.119 C 166.970 80.281,167.756 79.018,168.346 78.312 C 168.936 77.606,169.623 76.410,169.872 75.655 C 170.121 74.899,170.674 73.933,171.100 73.507 C 171.526 73.081,172.295 71.863,172.809 70.802 C 173.324 69.741,174.111 68.436,174.560 67.903 C 175.008 67.370,175.598 66.401,175.870 65.750 C 176.142 65.099,176.760 64.290,177.244 63.952 C 177.727 63.615,178.631 62.914,179.253 62.395 C 179.874 61.876,180.856 61.339,181.435 61.201 C 183.171 60.789,192.097 60.836,192.902 61.262 M186.433 114.613 C 182.043 115.054,180.485 115.496,179.024 116.716 C 178.285 117.334,177.490 117.840,177.259 117.840 C 176.495 117.840,172.922 121.572,171.968 123.366 C 171.453 124.336,170.810 125.514,170.540 125.985 C 170.112 126.731,170.049 131.295,170.049 161.538 L 170.049 196.236 171.277 198.715 C 171.952 200.079,172.504 201.359,172.504 201.559 C 172.504 202.617,178.191 208.420,180.033 209.242 C 180.843 209.603,181.955 210.234,182.504 210.644 C 184.470 212.113,191.078 212.720,193.546 211.658 C 195.233 210.932,199.048 208.289,199.597 207.466 C 199.874 207.050,200.677 205.948,201.381 205.016 C 202.414 203.649,202.894 202.479,203.867 198.960 L 205.073 194.599 205.073 161.866 C 205.074 127.261,205.140 128.930,203.551 123.659 C 202.110 118.878,197.575 115.216,192.471 114.713 C 191.481 114.615,190.303 114.494,189.853 114.444 C 189.403 114.393,187.864 114.469,186.433 114.613 M194.272 115.320 C 198.671 116.245,202.214 120.106,203.643 125.532 L 204.419 128.478 204.419 161.538 L 204.419 194.599 203.502 198.527 C 202.922 201.014,202.290 202.875,201.779 203.601 C 201.335 204.231,200.466 205.502,199.847 206.425 C 198.769 208.033,198.048 208.572,193.671 211.047 C 191.255 212.413,185.044 211.987,182.831 210.303 C 182.282 209.885,181.438 209.445,180.956 209.325 C 179.995 209.085,176.567 206.253,175.391 204.726 C 174.983 204.197,174.408 203.586,174.113 203.368 C 173.818 203.150,173.389 202.487,173.160 201.895 C 172.931 201.303,172.211 199.714,171.560 198.363 L 170.376 195.908 170.376 161.538 C 170.376 129.653,170.417 127.098,170.939 126.187 C 171.248 125.646,171.860 124.468,172.300 123.568 C 173.233 121.658,176.022 118.848,177.927 117.897 C 178.659 117.532,179.444 117.009,179.672 116.735 C 180.954 115.189,189.644 114.347,194.272 115.320 M186.514 224.571 C 184.727 224.731,183.584 225.033,182.586 225.610 C 181.812 226.058,180.395 226.681,179.437 226.994 C 176.682 227.895,173.579 230.891,171.628 234.534 L 170.049 237.480 170.049 240.807 C 170.049 243.659,170.146 244.268,170.728 245.063 C 171.102 245.573,171.904 246.927,172.512 248.072 C 173.516 249.966,175.983 252.282,178.933 254.101 C 180.144 254.848,187.491 256.627,189.306 256.613 C 195.513 256.564,201.893 252.468,203.305 247.627 C 203.672 246.367,204.124 244.967,204.309 244.517 C 206.404 239.408,202.550 228.884,197.891 226.993 C 197.181 226.705,196.224 226.205,195.764 225.882 C 193.981 224.633,190.830 224.187,186.514 224.571 M195.288 226.185 C 196.709 226.905,198.026 227.494,198.215 227.494 C 198.403 227.495,199.449 228.492,200.540 229.710 C 206.501 236.369,204.622 251.279,197.473 254.043 C 191.290 256.433,183.387 256.327,179.320 253.799 C 176.019 251.747,172.504 248.343,172.504 247.199 C 172.504 247.046,172.032 246.208,171.455 245.337 C 169.631 242.584,169.848 239.200,172.141 234.615 C 173.108 232.680,174.020 231.097,174.168 231.097 C 174.315 231.097,175.136 230.434,175.994 229.624 C 176.851 228.815,178.221 227.910,179.038 227.615 C 179.855 227.320,181.408 226.669,182.488 226.169 C 186.566 224.280,191.537 224.287,195.288 226.185 " stroke="none" fill="#acacac" fill-rule="evenodd"></path><path id="path3" d="M181.435 61.201 C 180.856 61.339,179.874 61.876,179.253 62.395 C 178.631 62.914,177.727 63.615,177.244 63.952 C 176.760 64.290,176.142 65.099,175.870 65.750 C 175.598 66.401,175.008 67.370,174.560 67.903 C 174.111 68.436,173.324 69.741,172.809 70.802 C 172.295 71.863,171.526 73.081,171.100 73.507 C 170.674 73.933,170.121 74.899,169.872 75.655 C 169.623 76.410,168.936 77.606,168.346 78.312 C 167.756 79.018,166.970 80.281,166.600 81.119 C 166.229 81.957,165.654 82.940,165.322 83.302 C 164.991 83.664,164.273 84.853,163.728 85.944 C 163.183 87.035,162.494 88.130,162.196 88.377 C 161.898 88.625,161.226 89.772,160.702 90.926 C 160.179 92.081,159.306 93.532,158.762 94.151 C 158.219 94.770,157.774 95.483,157.774 95.735 C 157.774 95.988,157.145 97.124,156.375 98.261 C 155.605 99.397,154.701 100.949,154.366 101.709 C 154.030 102.469,153.464 103.352,153.108 103.673 C 152.752 103.993,152.101 105.065,151.662 106.056 C 151.224 107.046,150.514 108.224,150.085 108.674 C 149.656 109.124,148.999 110.211,148.623 111.090 C 148.248 111.968,147.561 113.138,147.097 113.690 C 146.633 114.242,145.923 115.438,145.520 116.348 C 145.117 117.258,144.519 118.224,144.192 118.494 C 143.866 118.764,143.170 119.943,142.646 121.113 C 142.122 122.283,141.342 123.609,140.913 124.059 C 140.484 124.509,139.888 125.466,139.589 126.187 C 139.289 126.907,138.561 128.159,137.971 128.969 C 137.380 129.779,136.652 131.031,136.352 131.751 C 136.053 132.471,135.456 133.429,135.025 133.879 C 134.594 134.329,133.883 135.507,133.444 136.498 C 133.005 137.488,132.348 138.566,131.983 138.894 C 131.619 139.222,130.993 140.253,130.593 141.185 C 130.193 142.118,129.494 143.322,129.039 143.863 C 128.584 144.403,127.883 145.581,127.483 146.481 C 127.082 147.381,126.459 148.383,126.098 148.708 C 125.737 149.033,125.036 150.211,124.539 151.327 C 124.042 152.442,123.224 153.828,122.722 154.407 C 122.220 154.985,121.498 156.162,121.118 157.021 C 120.737 157.881,120.146 158.883,119.804 159.247 C 119.461 159.612,118.862 160.645,118.473 161.543 C 118.083 162.440,117.361 163.617,116.867 164.157 C 116.373 164.697,115.691 165.849,115.350 166.716 C 115.009 167.584,114.310 168.762,113.797 169.335 C 113.285 169.908,112.504 171.185,112.062 172.173 C 111.621 173.162,110.988 174.267,110.657 174.628 C 110.326 174.990,109.595 176.207,109.032 177.332 C 108.470 178.457,107.876 179.378,107.711 179.378 C 107.547 179.378,106.946 180.372,106.377 181.588 C 105.807 182.803,104.996 184.165,104.574 184.615 C 104.152 185.065,103.499 186.152,103.124 187.031 C 102.749 187.909,102.062 189.079,101.598 189.631 C 101.134 190.183,100.424 191.379,100.021 192.289 C 99.618 193.200,99.024 194.162,98.701 194.429 C 98.378 194.696,97.642 195.948,97.065 197.211 C 96.488 198.475,95.756 199.724,95.437 199.987 C 95.118 200.250,94.528 201.207,94.125 202.115 C 93.722 203.022,93.004 204.224,92.529 204.786 C 92.055 205.348,91.359 206.526,90.984 207.404 C 90.609 208.283,89.952 209.370,89.525 209.820 C 89.098 210.270,88.436 211.375,88.052 212.275 C 87.669 213.175,87.005 214.280,86.576 214.730 C 86.147 215.180,85.473 216.285,85.077 217.185 C 84.682 218.085,83.988 219.264,83.535 219.804 C 83.082 220.344,82.384 221.522,81.983 222.422 C 81.583 223.322,80.960 224.324,80.599 224.649 C 80.238 224.974,79.540 226.152,79.048 227.268 C 78.556 228.383,77.752 229.738,77.262 230.278 C 76.772 230.818,76.180 231.776,75.945 232.406 C 75.711 233.036,75.088 234.108,74.562 234.787 C 74.036 235.467,73.312 236.688,72.952 237.500 C 72.593 238.312,71.889 239.450,71.388 240.029 C 70.887 240.607,70.214 241.780,69.891 242.635 C 69.569 243.490,68.953 244.542,68.523 244.972 C 68.092 245.403,67.237 246.788,66.623 248.051 C 66.008 249.313,65.346 250.445,65.151 250.565 C 64.956 250.686,64.373 251.620,63.855 252.643 C 63.337 253.665,62.567 254.903,62.144 255.394 C 61.721 255.886,61.096 256.991,60.755 257.849 C 60.414 258.708,59.730 259.853,59.235 260.393 C 58.741 260.933,58.030 261.985,57.657 262.732 C 57.283 263.478,56.771 264.296,56.518 264.548 C 54.206 266.860,54.149 272.586,56.409 275.543 C 56.980 276.290,57.697 277.255,58.003 277.688 C 58.309 278.121,59.156 278.788,59.885 279.172 C 60.614 279.555,61.837 280.200,62.602 280.606 L 63.993 281.342 186.579 281.431 C 315.775 281.525,312.682 281.559,314.911 280.018 C 315.551 279.576,316.223 279.214,316.405 279.214 C 316.946 279.214,318.322 277.546,319.509 275.450 L 320.622 273.486 320.622 267.861 L 320.622 262.237 319.757 261.315 C 319.281 260.808,318.516 259.640,318.057 258.721 C 317.597 257.801,316.848 256.605,316.391 256.063 C 315.935 255.520,315.283 254.431,314.943 253.643 C 314.602 252.855,313.993 251.915,313.588 251.555 C 313.184 251.195,312.494 250.090,312.055 249.100 C 311.616 248.110,310.913 246.931,310.493 246.481 C 310.072 246.031,309.401 245.000,309.002 244.190 C 308.602 243.380,307.931 242.349,307.510 241.899 C 307.090 241.448,306.387 240.270,305.948 239.280 C 305.509 238.290,304.819 237.185,304.415 236.825 C 304.010 236.465,303.401 235.525,303.060 234.735 C 302.720 233.946,302.021 232.768,301.509 232.117 C 300.996 231.466,300.201 230.187,299.741 229.276 C 299.281 228.364,298.661 227.415,298.361 227.167 C 298.062 226.918,297.326 225.741,296.727 224.550 C 296.127 223.359,295.383 222.174,295.073 221.917 C 294.763 221.660,294.226 220.785,293.879 219.972 C 293.532 219.159,292.897 218.126,292.469 217.676 C 292.040 217.226,291.313 216.033,290.852 215.025 C 290.391 214.017,289.704 212.912,289.325 212.570 C 288.946 212.228,288.265 211.211,287.811 210.311 C 287.356 209.411,286.583 208.159,286.091 207.529 C 285.600 206.899,284.904 205.720,284.545 204.910 C 284.186 204.100,283.559 203.142,283.152 202.782 C 282.744 202.422,282.052 201.318,281.613 200.327 C 281.175 199.337,280.471 198.159,280.050 197.709 C 279.629 197.259,278.912 196.145,278.457 195.233 C 278.001 194.322,277.374 193.364,277.062 193.105 C 276.750 192.847,276.096 191.751,275.608 190.671 C 275.120 189.591,274.387 188.412,273.979 188.052 C 273.571 187.692,272.965 186.767,272.633 185.996 C 272.300 185.226,271.589 184.047,271.053 183.378 C 270.517 182.708,269.851 181.614,269.574 180.945 C 269.296 180.277,268.646 179.246,268.129 178.654 C 267.612 178.062,266.782 176.768,266.285 175.777 C 265.787 174.787,264.958 173.493,264.441 172.902 C 263.925 172.310,263.502 171.622,263.502 171.372 C 263.502 171.122,262.991 170.248,262.366 169.429 C 261.742 168.611,260.796 167.081,260.266 166.030 C 259.735 164.978,259.056 163.915,258.757 163.667 C 258.459 163.419,257.838 162.470,257.377 161.559 C 256.917 160.648,256.172 159.461,255.721 158.922 C 255.270 158.384,254.645 157.352,254.332 156.631 C 254.020 155.909,253.384 154.914,252.920 154.418 C 252.456 153.923,251.767 152.818,251.389 151.963 C 251.011 151.109,250.349 150.041,249.918 149.591 C 249.487 149.141,248.838 148.110,248.475 147.300 C 248.111 146.489,247.421 145.385,246.941 144.845 C 246.461 144.304,245.736 143.126,245.329 142.226 C 244.923 141.326,244.204 140.174,243.731 139.667 C 243.258 139.160,242.645 138.202,242.370 137.539 C 242.094 136.876,241.424 135.778,240.880 135.098 C 240.336 134.418,239.613 133.236,239.275 132.471 C 238.936 131.705,238.295 130.737,237.850 130.319 C 237.405 129.901,236.716 128.800,236.319 127.873 C 235.921 126.945,235.172 125.702,234.655 125.111 C 234.137 124.519,233.485 123.488,233.206 122.819 C 232.927 122.151,232.346 121.236,231.916 120.786 C 231.486 120.336,230.756 119.143,230.295 118.135 C 229.834 117.127,229.147 116.022,228.768 115.680 C 228.389 115.337,227.634 114.173,227.089 113.093 C 226.545 112.013,225.746 110.706,225.313 110.190 C 224.880 109.673,224.302 108.715,224.029 108.062 C 223.757 107.409,223.189 106.506,222.767 106.056 C 222.346 105.606,221.602 104.427,221.113 103.437 C 220.624 102.447,219.880 101.268,219.458 100.818 C 219.037 100.368,218.447 99.411,218.146 98.691 C 217.845 97.971,217.160 96.881,216.623 96.269 C 216.087 95.658,215.363 94.494,215.015 93.683 C 214.668 92.872,213.945 91.710,213.410 91.100 C 212.875 90.491,212.210 89.445,211.932 88.777 C 211.654 88.108,210.989 87.014,210.453 86.344 C 209.917 85.674,209.206 84.496,208.873 83.725 C 208.540 82.955,207.933 82.029,207.524 81.669 C 207.114 81.309,206.421 80.211,205.982 79.228 C 205.544 78.245,204.755 76.951,204.229 76.352 C 203.702 75.752,203.043 74.715,202.764 74.047 C 202.485 73.378,201.904 72.463,201.474 72.013 C 201.044 71.563,200.315 70.370,199.854 69.362 C 199.393 68.354,198.706 67.249,198.327 66.907 C 197.949 66.565,197.370 65.759,197.042 65.116 C 196.466 63.987,194.377 62.042,192.902 61.262 C 192.097 60.836,183.171 60.789,181.435 61.201 M193.507 62.848 C 194.136 63.478,195.045 64.258,195.525 64.582 C 196.006 64.905,196.399 65.477,196.399 65.852 C 196.399 66.228,196.887 66.995,197.483 67.557 C 198.084 68.124,198.849 69.363,199.200 70.338 C 199.579 71.392,200.246 72.441,200.864 72.955 C 201.464 73.454,202.066 74.386,202.302 75.180 C 202.525 75.932,203.153 77.035,203.697 77.631 C 204.242 78.227,205.024 79.476,205.435 80.406 C 205.847 81.337,206.505 82.323,206.897 82.598 C 207.290 82.873,207.958 83.952,208.382 84.996 C 208.806 86.040,209.593 87.304,210.130 87.806 C 210.667 88.308,211.287 89.322,211.508 90.059 C 211.733 90.809,212.301 91.688,212.799 92.057 C 213.338 92.455,213.967 93.475,214.392 94.643 C 214.844 95.883,215.442 96.827,216.063 97.287 C 216.645 97.717,217.167 98.507,217.371 99.265 C 217.558 99.960,218.207 101.077,218.814 101.748 C 219.420 102.420,220.166 103.627,220.470 104.430 C 220.775 105.234,221.438 106.262,221.944 106.713 C 222.450 107.165,223.182 108.385,223.570 109.424 C 224.011 110.603,224.639 111.581,225.237 112.023 C 225.822 112.456,226.334 113.242,226.547 114.036 C 226.740 114.752,227.310 115.723,227.813 116.194 C 228.317 116.664,229.059 117.852,229.464 118.835 C 229.869 119.818,230.683 121.064,231.272 121.604 C 231.874 122.155,232.445 123.069,232.573 123.687 C 232.699 124.292,233.289 125.327,233.885 125.986 C 234.480 126.645,235.334 128.014,235.782 129.027 C 236.259 130.105,236.865 130.953,237.243 131.073 C 237.663 131.207,238.145 131.979,238.619 133.278 C 239.024 134.391,239.827 135.758,240.429 136.359 C 241.024 136.954,241.608 137.885,241.727 138.427 C 241.846 138.969,242.425 139.898,243.014 140.492 C 243.602 141.086,244.353 142.308,244.683 143.208 C 245.012 144.108,245.753 145.286,246.329 145.827 C 246.905 146.367,247.557 147.368,247.778 148.051 C 247.998 148.735,248.754 149.959,249.458 150.772 C 250.161 151.584,250.736 152.402,250.736 152.589 C 250.736 153.391,251.811 155.093,252.522 155.416 C 253.006 155.637,253.381 156.172,253.528 156.853 C 253.879 158.482,254.632 159.815,255.676 160.656 C 256.200 161.077,256.763 161.969,256.954 162.678 C 257.142 163.375,257.709 164.293,258.213 164.718 C 258.718 165.143,259.409 166.264,259.749 167.209 C 260.325 168.810,260.745 169.416,262.002 170.460 C 262.274 170.686,262.647 171.430,262.831 172.114 C 263.015 172.798,263.682 173.961,264.314 174.698 C 264.945 175.436,265.748 176.708,266.098 177.524 C 266.448 178.341,267.115 179.258,267.579 179.562 C 268.119 179.916,268.552 180.624,268.778 181.523 C 268.985 182.342,269.724 183.624,270.546 184.587 C 271.323 185.497,272.056 186.682,272.174 187.220 C 272.292 187.758,272.788 188.534,273.276 188.945 C 273.764 189.355,274.499 190.519,274.910 191.531 C 275.326 192.558,276.153 193.810,276.781 194.366 C 277.399 194.913,277.906 195.632,277.906 195.962 C 277.908 196.662,278.957 198.499,280.027 199.673 C 280.437 200.123,280.950 201.049,281.168 201.730 C 281.386 202.412,281.980 203.277,282.488 203.652 C 283.050 204.068,283.674 205.055,284.083 206.177 C 284.466 207.225,285.229 208.465,285.852 209.052 C 286.455 209.620,287.126 210.680,287.344 211.408 C 287.562 212.136,288.104 213.017,288.548 213.366 C 288.992 213.715,289.678 214.843,290.071 215.872 C 290.495 216.977,291.162 218.019,291.703 218.420 C 292.246 218.821,292.832 219.737,293.141 220.668 C 293.428 221.532,294.111 222.718,294.659 223.305 C 295.207 223.891,295.985 225.116,296.387 226.027 C 296.790 226.939,297.473 227.916,297.905 228.200 C 298.384 228.514,298.874 229.341,299.159 230.315 C 299.454 231.322,300.086 232.370,300.865 233.143 C 301.569 233.841,302.252 234.927,302.451 235.663 C 302.656 236.426,303.164 237.217,303.691 237.594 C 304.230 237.980,304.825 238.921,305.195 239.976 C 305.545 240.970,306.269 242.145,306.880 242.709 C 307.470 243.253,308.135 244.314,308.358 245.066 C 308.581 245.818,309.209 246.920,309.753 247.516 C 310.297 248.112,311.074 249.350,311.480 250.266 C 311.885 251.182,312.561 252.160,312.982 252.438 C 313.408 252.720,314.012 253.699,314.342 254.644 C 314.680 255.611,315.491 256.916,316.224 257.671 C 316.933 258.401,317.514 259.239,317.517 259.532 C 317.522 260.081,317.795 260.612,319.066 262.547 C 320.229 264.317,320.162 270.962,318.957 273.406 C 318.491 274.350,317.937 275.697,317.724 276.400 C 317.512 277.102,317.120 277.783,316.853 277.913 C 316.585 278.043,315.188 278.646,313.748 279.255 L 311.129 280.360 188.104 280.443 C 69.930 280.522,65.045 280.502,64.209 279.934 C 63.283 279.305,61.252 278.415,59.902 278.048 C 58.790 277.745,58.265 277.281,58.265 276.600 C 58.265 276.286,57.676 275.163,56.957 274.103 C 55.037 271.277,55.019 268.261,56.910 265.972 C 57.605 265.131,58.339 263.893,58.540 263.221 C 58.742 262.547,59.333 261.683,59.858 261.295 C 60.415 260.884,61.023 259.967,61.322 259.090 C 61.603 258.264,62.354 256.980,62.990 256.237 C 63.627 255.494,64.242 254.381,64.358 253.764 C 64.484 253.089,65.064 252.152,65.812 251.411 C 66.654 250.577,67.226 249.597,67.580 248.379 C 67.947 247.115,68.330 246.475,68.861 246.233 C 69.362 246.004,69.868 245.223,70.352 243.929 C 70.755 242.852,71.520 241.552,72.054 241.041 C 72.598 240.520,73.179 239.496,73.377 238.706 C 73.591 237.859,74.091 237.010,74.635 236.571 C 75.644 235.758,76.403 234.409,76.745 232.820 C 76.875 232.214,77.362 231.483,77.879 231.115 C 78.418 230.731,79.069 229.729,79.484 228.646 C 79.868 227.642,80.629 226.347,81.175 225.768 C 81.722 225.188,82.325 224.143,82.515 223.446 C 82.706 222.749,83.276 221.792,83.782 221.319 C 84.827 220.342,85.579 218.974,85.906 217.455 C 86.029 216.883,86.493 216.176,86.938 215.885 C 87.382 215.594,88.109 214.536,88.552 213.533 C 88.995 212.531,89.794 211.214,90.328 210.606 C 90.862 209.998,91.450 208.937,91.636 208.248 C 91.821 207.559,92.357 206.636,92.827 206.198 C 93.774 205.314,94.926 203.257,94.926 202.451 C 94.926 202.165,95.419 201.459,96.021 200.883 C 96.624 200.308,97.373 199.135,97.686 198.279 C 97.999 197.422,98.756 196.123,99.367 195.391 C 99.978 194.660,100.634 193.485,100.823 192.781 C 101.013 192.077,101.470 191.339,101.839 191.142 C 102.512 190.781,104.082 187.825,104.088 186.907 C 104.090 186.637,104.579 186.027,105.175 185.552 C 105.821 185.036,106.417 184.158,106.652 183.373 C 106.868 182.650,107.620 181.363,108.322 180.514 C 109.024 179.664,109.687 178.499,109.795 177.925 C 109.903 177.350,110.500 176.387,111.125 175.781 C 111.800 175.127,112.474 174.007,112.787 173.020 C 113.081 172.092,113.723 170.996,114.240 170.539 C 114.750 170.088,115.484 168.910,115.872 167.920 C 116.259 166.931,117.013 165.667,117.546 165.112 C 118.080 164.557,118.667 163.560,118.850 162.896 C 119.033 162.233,119.671 161.202,120.267 160.606 C 120.884 159.989,121.601 158.759,121.932 157.748 C 122.262 156.742,122.915 155.619,123.440 155.155 C 123.949 154.705,124.676 153.527,125.055 152.537 C 125.433 151.547,126.164 150.349,126.678 149.876 C 127.192 149.403,127.770 148.432,127.962 147.718 C 128.155 147.004,128.819 145.898,129.439 145.260 C 130.141 144.537,130.762 143.426,131.085 142.313 C 131.443 141.083,131.850 140.396,132.394 140.104 C 132.880 139.845,133.464 138.972,133.909 137.844 C 134.308 136.833,135.051 135.560,135.562 135.013 C 136.072 134.467,136.728 133.318,137.021 132.460 C 137.313 131.602,137.889 130.680,138.301 130.410 C 139.029 129.933,140.426 127.197,140.426 126.247 C 140.426 125.986,140.904 125.406,141.489 124.957 C 142.193 124.418,142.758 123.544,143.158 122.381 C 143.491 121.414,144.185 120.179,144.699 119.639 C 145.214 119.098,145.855 118.033,146.123 117.271 C 146.392 116.510,147.110 115.388,147.719 114.779 C 148.395 114.104,148.998 113.049,149.266 112.073 C 149.538 111.084,150.105 110.101,150.753 109.493 C 151.329 108.953,152.062 107.784,152.382 106.896 C 152.702 106.008,153.364 104.890,153.853 104.412 C 154.342 103.934,154.929 102.967,155.158 102.262 C 155.387 101.558,156.114 100.391,156.774 99.668 C 157.463 98.912,158.159 97.690,158.410 96.793 C 158.690 95.795,159.165 95.007,159.733 94.603 C 160.260 94.227,160.912 93.205,161.342 92.076 C 161.740 91.033,162.482 89.738,162.991 89.198 C 163.500 88.658,164.095 87.654,164.314 86.967 C 164.534 86.280,165.206 85.225,165.809 84.622 C 166.492 83.939,167.099 82.859,167.420 81.754 C 167.766 80.562,168.238 79.758,168.860 79.298 C 169.438 78.871,170.068 77.859,170.539 76.598 C 170.967 75.454,171.618 74.370,172.045 74.090 C 172.458 73.819,173.032 72.889,173.319 72.022 C 173.607 71.156,174.350 69.925,174.969 69.287 C 175.644 68.592,176.262 67.507,176.509 66.582 C 176.852 65.302,177.113 64.958,178.038 64.572 C 178.651 64.315,179.697 63.668,180.362 63.134 C 182.113 61.727,182.972 61.556,187.916 61.633 L 192.362 61.702 193.507 62.848 M187.725 113.280 C 187.185 113.454,185.049 113.884,182.979 114.236 C 179.609 114.809,179.122 114.979,178.328 115.857 C 177.840 116.396,176.918 117.056,176.278 117.324 C 174.771 117.953,171.948 120.903,171.678 122.129 C 171.563 122.653,171.188 123.233,170.844 123.417 C 168.993 124.408,169.076 122.773,168.972 160.229 C 168.868 197.714,168.897 198.466,170.553 200.012 C 171.055 200.481,171.625 201.456,171.819 202.180 C 172.325 204.057,177.721 209.641,179.478 210.104 C 180.163 210.284,181.012 210.799,181.365 211.248 C 183.299 213.706,195.409 213.591,196.741 211.102 C 196.925 210.758,197.660 210.179,198.374 209.814 C 199.115 209.437,200.041 208.570,200.528 207.797 C 200.999 207.052,201.800 206.091,202.309 205.663 C 203.027 205.059,203.356 204.338,203.777 202.446 C 204.075 201.104,204.583 199.671,204.906 199.262 C 206.344 197.433,206.343 197.451,206.465 164.722 C 206.593 130.181,206.462 126.342,205.103 124.559 C 204.631 123.941,204.152 122.949,204.039 122.355 C 203.717 120.665,202.760 119.008,201.576 118.091 C 200.979 117.628,199.917 116.717,199.216 116.066 C 198.515 115.415,197.631 114.813,197.252 114.728 C 195.665 114.374,189.966 113.181,189.362 113.077 C 189.002 113.015,188.265 113.106,187.725 113.280 M192.471 114.713 C 197.575 115.216,202.110 118.878,203.551 123.659 C 205.140 128.930,205.074 127.261,205.073 161.866 L 205.073 194.599 203.867 198.960 C 202.894 202.479,202.414 203.649,201.381 205.016 C 200.677 205.948,199.874 207.050,199.597 207.466 C 199.048 208.289,195.233 210.932,193.546 211.658 C 191.078 212.720,184.470 212.113,182.504 210.644 C 181.955 210.234,180.843 209.603,180.033 209.242 C 178.191 208.420,172.504 202.617,172.504 201.559 C 172.504 201.359,171.952 200.079,171.277 198.715 L 170.049 196.236 170.049 161.538 C 170.049 131.295,170.112 126.731,170.540 125.985 C 170.810 125.514,171.453 124.336,171.968 123.366 C 172.922 121.572,176.495 117.840,177.259 117.840 C 177.490 117.840,178.285 117.334,179.024 116.716 C 179.902 115.983,180.970 115.468,182.100 115.234 C 184.282 114.781,188.774 114.323,189.853 114.444 C 190.303 114.494,191.481 114.615,192.471 114.713 M183.332 223.924 C 182.536 224.080,181.505 224.561,181.040 224.993 C 180.576 225.425,179.399 226.038,178.425 226.354 C 177.160 226.765,176.214 227.383,175.111 228.522 C 174.262 229.398,173.397 230.115,173.188 230.115 C 172.979 230.115,172.517 230.794,172.161 231.623 C 171.806 232.453,171.096 233.524,170.583 234.002 C 168.591 235.863,168.313 244.103,170.163 246.420 C 170.550 246.904,171.310 248.146,171.853 249.180 C 172.480 250.376,173.285 251.347,174.063 251.846 C 174.736 252.279,175.833 253.140,176.500 253.762 C 177.380 254.581,178.318 255.040,179.912 255.434 C 181.122 255.732,182.366 256.207,182.678 256.489 C 184.839 258.444,192.827 258.448,195.078 256.494 C 195.355 256.254,196.391 255.796,197.381 255.476 C 199.968 254.639,203.113 251.447,203.920 248.839 C 204.238 247.812,204.883 246.309,205.355 245.499 C 206.692 243.200,206.632 238.168,205.236 235.513 C 204.695 234.485,204.018 232.835,203.730 231.845 C 203.350 230.540,202.962 229.905,202.314 229.534 C 201.823 229.252,201.178 228.598,200.882 228.081 C 200.585 227.564,199.786 226.913,199.107 226.634 C 198.428 226.355,197.430 225.707,196.890 225.193 C 195.299 223.680,188.039 223.000,183.332 223.924 M193.781 224.952 C 194.411 225.141,195.303 225.559,195.764 225.882 C 196.224 226.205,197.181 226.705,197.891 226.993 C 202.550 228.884,206.404 239.408,204.309 244.517 C 204.124 244.967,203.672 246.367,203.305 247.627 C 201.893 252.468,195.513 256.564,189.306 256.613 C 187.491 256.627,180.144 254.848,178.933 254.101 C 175.983 252.282,173.516 249.966,172.512 248.072 C 171.904 246.927,171.102 245.573,170.728 245.063 C 170.146 244.268,170.049 243.659,170.049 240.807 L 170.049 237.480 171.628 234.534 C 173.579 230.891,176.682 227.895,179.437 226.994 C 180.395 226.681,181.812 226.058,182.586 225.610 C 184.740 224.364,190.659 224.016,193.781 224.952 " stroke="none" fill="#9c9c9c" fill-rule="evenodd"></path><path id="path4" d="M179.485 60.379 C 178.913 60.628,178.196 61.211,177.892 61.676 C 177.588 62.140,177.160 62.520,176.942 62.520 C 176.381 62.520,175.304 63.804,174.803 65.070 C 174.570 65.662,174.092 66.300,173.741 66.487 C 173.078 66.842,171.531 69.817,171.525 70.748 C 171.524 71.042,171.149 71.528,170.693 71.826 C 170.237 72.125,169.502 73.189,169.058 74.192 C 168.615 75.194,167.816 76.511,167.282 77.119 C 166.749 77.727,166.153 78.817,165.957 79.542 C 165.751 80.309,165.141 81.280,164.501 81.862 C 163.777 82.522,163.195 83.513,162.800 84.761 C 162.384 86.073,161.941 86.806,161.364 87.137 C 160.855 87.429,160.374 88.133,160.133 88.938 C 159.915 89.665,159.165 90.978,158.466 91.856 C 157.767 92.735,157.037 94.026,156.844 94.727 C 156.645 95.446,156.000 96.452,155.360 97.037 C 154.592 97.741,154.060 98.654,153.703 99.881 C 153.350 101.096,152.879 101.908,152.265 102.362 C 151.746 102.746,151.181 103.612,150.952 104.375 C 150.731 105.111,149.980 106.374,149.282 107.180 C 148.583 107.987,147.907 109.132,147.779 109.725 C 147.651 110.317,146.983 111.417,146.294 112.168 C 145.507 113.026,144.849 114.195,144.524 115.311 C 144.165 116.546,143.779 117.193,143.257 117.430 C 142.774 117.650,142.248 118.446,141.784 119.658 C 141.388 120.695,140.560 122.101,139.944 122.782 C 139.328 123.464,138.726 124.552,138.604 125.205 C 138.462 125.957,138.045 126.639,137.460 127.071 C 136.592 127.713,135.188 130.352,135.188 131.341 C 135.188 131.589,134.772 132.100,134.263 132.476 C 133.752 132.854,133.070 133.871,132.740 134.747 C 132.412 135.620,131.658 136.878,131.065 137.543 C 130.471 138.208,129.823 139.357,129.624 140.097 C 129.425 140.837,128.887 141.766,128.429 142.161 C 127.478 142.982,126.532 144.700,126.211 146.189 C 126.084 146.776,125.661 147.383,125.209 147.625 C 124.745 147.873,124.131 148.770,123.702 149.827 C 123.304 150.809,122.488 152.198,121.888 152.916 C 121.289 153.633,120.650 154.772,120.468 155.446 C 120.287 156.120,119.754 157.030,119.284 157.468 C 118.297 158.390,117.362 160.108,117.043 161.587 C 116.907 162.214,116.571 162.683,116.184 162.784 C 115.786 162.888,115.185 163.760,114.577 165.114 C 114.043 166.305,113.160 167.755,112.615 168.337 C 112.069 168.918,111.531 169.879,111.419 170.472 C 111.306 171.069,110.671 172.117,109.994 172.821 C 109.234 173.612,108.611 174.687,108.343 175.671 C 108.063 176.702,107.555 177.554,106.880 178.126 C 106.303 178.614,105.671 179.586,105.449 180.328 C 105.231 181.058,104.480 182.315,103.782 183.122 C 103.084 183.928,102.408 185.073,102.280 185.666 C 102.152 186.258,101.505 187.335,100.842 188.057 C 100.145 188.818,99.453 190.029,99.200 190.932 C 98.919 191.936,98.445 192.718,97.870 193.128 C 97.322 193.518,96.696 194.513,96.252 195.700 C 95.854 196.766,95.096 198.051,94.567 198.557 C 94.039 199.064,93.456 200.038,93.271 200.723 C 93.087 201.408,92.446 202.458,91.848 203.056 C 91.223 203.682,90.516 204.898,90.184 205.918 C 89.839 206.981,89.244 207.986,88.700 208.426 C 88.201 208.830,87.532 209.886,87.213 210.773 C 86.894 211.660,86.147 212.916,85.553 213.564 C 84.959 214.212,84.322 215.306,84.137 215.994 C 83.951 216.682,83.292 217.768,82.672 218.406 C 81.970 219.129,81.349 220.241,81.026 221.353 C 80.668 222.584,80.261 223.271,79.717 223.562 C 79.234 223.820,78.642 224.700,78.195 225.822 C 77.792 226.833,76.981 228.204,76.392 228.869 C 75.803 229.533,75.161 230.675,74.964 231.406 C 74.761 232.160,74.272 232.954,73.834 233.241 C 73.075 233.738,71.686 236.461,71.686 237.451 C 71.686 237.728,71.301 238.207,70.831 238.515 C 70.338 238.839,69.528 240.053,68.916 241.387 C 68.332 242.659,67.544 243.974,67.165 244.310 C 66.786 244.646,66.245 245.616,65.963 246.464 C 65.654 247.396,65.072 248.286,64.494 248.713 C 63.836 249.200,63.359 250.007,62.962 251.306 C 62.581 252.557,62.044 253.486,61.367 254.067 C 60.807 254.548,60.169 255.539,59.950 256.269 C 59.731 256.999,58.968 258.271,58.254 259.096 C 57.540 259.921,56.956 260.801,56.956 261.052 C 56.956 261.895,56.207 263.161,55.593 263.356 C 53.062 264.159,53.072 275.545,55.605 276.901 C 55.938 277.079,56.393 277.663,56.614 278.198 C 56.876 278.831,57.507 279.401,58.418 279.829 C 59.188 280.191,59.908 280.723,60.019 281.011 C 60.615 282.566,53.864 282.488,187.993 282.488 C 282.224 282.488,313.764 282.393,314.599 282.109 C 316.212 281.559,318.211 279.912,320.133 277.548 C 322.603 274.511,322.894 261.940,320.542 259.902 C 320.023 259.452,319.325 258.351,318.991 257.456 C 318.658 256.561,317.900 255.329,317.307 254.719 C 316.715 254.109,316.064 253.074,315.861 252.419 C 315.659 251.763,315.076 250.859,314.566 250.408 C 314.056 249.957,313.323 248.779,312.938 247.789 C 312.552 246.800,311.730 245.519,311.110 244.943 C 310.491 244.367,309.984 243.623,309.984 243.289 C 309.984 242.568,308.169 239.607,307.727 239.607 C 307.557 239.607,307.167 238.908,306.858 238.052 C 306.550 237.197,305.886 236.128,305.383 235.676 C 304.880 235.224,304.151 234.004,303.762 232.965 C 303.325 231.798,302.693 230.808,302.108 230.376 C 301.530 229.948,300.955 229.055,300.632 228.082 C 300.340 227.202,299.764 226.267,299.346 225.993 C 298.930 225.720,298.262 224.658,297.863 223.632 C 297.464 222.607,296.663 221.326,296.084 220.786 C 295.505 220.245,294.864 219.209,294.660 218.483 C 294.455 217.756,293.842 216.706,293.297 216.148 C 292.752 215.591,291.951 214.333,291.518 213.353 C 291.084 212.372,290.385 211.342,289.964 211.064 C 289.536 210.781,288.933 209.800,288.598 208.842 C 288.268 207.898,287.509 206.636,286.910 206.037 C 286.311 205.439,285.721 204.493,285.599 203.935 C 285.477 203.378,284.900 202.449,284.317 201.870 C 283.735 201.292,282.919 199.968,282.505 198.929 C 282.072 197.844,281.376 196.773,280.868 196.411 C 280.368 196.055,279.812 195.208,279.588 194.461 C 279.371 193.735,278.601 192.457,277.878 191.622 C 277.155 190.787,276.486 189.716,276.391 189.242 C 276.175 188.166,275.657 187.451,274.740 186.963 C 274.345 186.752,273.928 186.112,273.800 185.518 C 273.447 183.883,272.467 182.155,271.554 181.557 C 271.065 181.236,270.585 180.479,270.374 179.695 C 270.178 178.968,269.592 177.994,269.071 177.530 C 268.551 177.066,267.858 175.939,267.532 175.025 C 267.206 174.112,266.453 172.891,265.858 172.311 C 265.263 171.732,264.627 170.718,264.445 170.058 C 264.263 169.397,263.613 168.303,263.002 167.627 C 262.391 166.950,261.605 165.731,261.256 164.917 C 260.908 164.104,260.259 163.152,259.815 162.803 C 259.371 162.454,258.896 161.806,258.758 161.362 C 258.287 159.841,257.201 157.968,256.448 157.375 C 256.033 157.049,255.518 156.232,255.304 155.560 C 255.090 154.887,254.497 153.895,253.988 153.355 C 253.479 152.815,252.703 151.563,252.264 150.573 C 251.825 149.583,251.007 148.366,250.446 147.870 C 249.886 147.373,249.427 146.740,249.427 146.462 C 249.427 145.686,248.470 143.990,247.289 142.672 C 246.702 142.017,246.120 141.018,245.996 140.451 C 245.870 139.877,245.351 139.112,244.824 138.722 C 244.239 138.289,243.671 137.398,243.334 136.386 C 243.035 135.485,242.243 134.148,241.574 133.414 C 240.905 132.679,240.259 131.670,240.138 131.170 C 240.017 130.671,239.436 129.713,238.847 129.042 C 238.258 128.372,237.503 127.160,237.169 126.350 C 236.835 125.540,236.092 124.435,235.518 123.895 C 234.945 123.355,234.308 122.324,234.104 121.604 C 233.900 120.884,233.150 119.591,232.437 118.732 C 231.725 117.872,230.974 116.659,230.768 116.037 C 230.563 115.414,229.999 114.623,229.516 114.279 C 228.966 113.888,228.404 112.967,228.015 111.824 C 227.635 110.706,226.974 109.614,226.313 109.012 C 225.715 108.468,225.082 107.469,224.895 106.776 C 224.709 106.086,224.169 105.163,223.694 104.725 C 223.218 104.287,222.426 103.037,221.933 101.948 C 221.440 100.859,220.670 99.729,220.224 99.436 C 219.719 99.105,219.250 98.328,218.985 97.381 C 218.727 96.459,218.065 95.345,217.307 94.555 C 216.610 93.830,215.897 92.667,215.700 91.935 C 215.457 91.032,215.043 90.446,214.385 90.072 C 213.857 89.771,213.422 89.304,213.419 89.034 C 213.409 88.053,211.816 85.143,210.995 84.605 C 210.495 84.277,210.012 83.529,209.805 82.761 C 209.614 82.050,208.972 80.925,208.379 80.260 C 207.786 79.595,207.038 78.354,206.718 77.503 C 206.384 76.615,205.699 75.622,205.112 75.174 C 204.428 74.652,203.956 73.901,203.691 72.912 C 203.473 72.097,202.854 70.989,202.315 70.450 C 201.776 69.911,200.974 68.655,200.534 67.660 C 200.093 66.664,199.440 65.693,199.083 65.501 C 198.725 65.310,198.286 64.735,198.108 64.223 C 197.643 62.890,195.782 60.991,194.364 60.405 C 192.702 59.718,181.052 59.697,179.485 60.379 M193.311 60.977 C 194.842 61.878,196.662 63.603,197.325 64.781 C 197.713 65.471,198.265 66.231,198.552 66.469 C 198.839 66.707,199.564 67.876,200.164 69.067 C 200.763 70.258,201.503 71.439,201.807 71.692 C 202.111 71.944,202.689 72.893,203.091 73.800 C 203.493 74.708,204.079 75.663,204.394 75.922 C 204.708 76.182,205.456 77.369,206.056 78.560 C 206.655 79.751,207.391 80.928,207.690 81.177 C 207.990 81.425,208.611 82.374,209.071 83.285 C 209.531 84.197,210.279 85.385,210.734 85.925 C 211.188 86.465,211.888 87.643,212.288 88.543 C 212.689 89.444,213.346 90.475,213.748 90.835 C 214.150 91.195,214.838 92.300,215.277 93.290 C 215.716 94.280,216.419 95.458,216.839 95.908 C 217.260 96.358,217.931 97.390,218.331 98.200 C 218.730 99.010,219.401 100.041,219.822 100.491 C 220.242 100.941,220.945 102.119,221.384 103.110 C 221.823 104.100,222.513 105.205,222.917 105.565 C 223.322 105.925,223.938 106.882,224.286 107.692 C 224.634 108.502,225.270 109.534,225.698 109.984 C 226.126 110.434,226.854 111.627,227.315 112.635 C 227.776 113.643,228.463 114.747,228.843 115.090 C 229.222 115.432,230.019 116.678,230.614 117.858 C 231.209 119.039,231.945 120.212,232.249 120.464 C 232.553 120.716,233.131 121.665,233.533 122.573 C 233.935 123.480,234.521 124.435,234.836 124.695 C 235.150 124.954,235.898 126.141,236.498 127.332 C 237.097 128.523,237.833 129.701,238.132 129.949 C 238.431 130.198,239.053 131.147,239.513 132.058 C 239.973 132.969,240.713 134.149,241.156 134.679 C 241.600 135.209,242.295 136.387,242.702 137.297 C 243.108 138.208,243.756 139.233,244.141 139.575 C 244.527 139.917,245.219 141.022,245.680 142.030 C 246.141 143.038,246.870 144.231,247.301 144.681 C 247.731 145.131,248.312 146.046,248.591 146.714 C 248.870 147.383,249.529 148.420,250.055 149.019 C 250.581 149.619,251.370 150.913,251.809 151.896 C 252.247 152.878,252.941 153.977,253.350 154.337 C 253.760 154.697,254.380 155.655,254.728 156.465 C 255.076 157.275,255.712 158.306,256.141 158.756 C 256.570 159.206,257.233 160.280,257.614 161.142 C 257.995 162.003,258.719 163.182,259.224 163.760 C 259.728 164.339,260.463 165.446,260.855 166.221 C 261.248 166.996,262.078 168.296,262.700 169.110 C 263.321 169.924,263.830 170.789,263.830 171.031 C 263.830 171.274,264.341 172.142,264.966 172.960 C 265.591 173.779,266.550 175.337,267.098 176.422 C 267.646 177.508,268.219 178.396,268.372 178.396 C 268.524 178.396,269.135 179.317,269.729 180.442 C 270.323 181.567,271.150 182.899,271.566 183.402 C 271.982 183.906,272.601 184.937,272.941 185.694 C 273.281 186.451,273.941 187.476,274.407 187.971 C 274.874 188.467,275.566 189.571,275.944 190.426 C 276.322 191.281,276.983 192.349,277.414 192.799 C 277.845 193.249,278.444 194.206,278.744 194.926 C 279.045 195.646,279.737 196.743,280.281 197.364 C 280.826 197.984,281.602 199.236,282.006 200.146 C 282.411 201.056,283.128 202.215,283.601 202.723 C 284.074 203.230,284.687 204.187,284.962 204.850 C 285.238 205.513,285.908 206.612,286.453 207.291 C 286.997 207.971,287.721 209.159,288.063 209.930 C 288.404 210.702,289.001 211.619,289.389 211.968 C 289.777 212.317,290.507 213.451,291.011 214.487 C 291.515 215.524,292.313 216.831,292.784 217.391 C 293.256 217.951,293.865 218.944,294.138 219.598 C 294.410 220.251,294.986 221.154,295.416 221.604 C 295.847 222.054,296.574 223.242,297.032 224.244 C 297.490 225.246,298.223 226.402,298.661 226.813 C 299.098 227.224,299.639 228.025,299.862 228.592 C 300.085 229.159,300.823 230.377,301.502 231.298 C 302.181 232.218,302.975 233.544,303.268 234.244 C 303.560 234.943,304.144 235.884,304.565 236.334 C 304.986 236.784,305.731 237.962,306.219 238.953 C 306.708 239.943,307.453 241.121,307.874 241.571 C 308.295 242.021,308.886 242.979,309.186 243.699 C 309.487 244.419,310.166 245.501,310.695 246.104 C 311.224 246.707,311.993 247.959,312.404 248.887 C 312.815 249.814,313.407 250.785,313.721 251.043 C 314.034 251.302,314.665 252.254,315.124 253.160 C 315.583 254.065,316.375 255.326,316.884 255.963 C 317.393 256.599,318.055 257.709,318.354 258.429 C 318.653 259.149,319.313 260.211,319.820 260.788 C 322.602 263.959,321.159 276.326,317.724 278.748 C 315.105 280.595,313.630 281.335,312.141 281.547 C 309.247 281.961,65.746 281.885,63.764 281.470 C 62.810 281.270,61.735 280.845,61.375 280.525 C 61.015 280.205,60.098 279.631,59.338 279.249 C 58.400 278.779,57.592 277.988,56.828 276.793 C 56.208 275.824,55.555 274.941,55.376 274.830 C 54.113 274.050,54.201 267.176,55.496 265.401 C 55.929 264.807,56.693 263.601,57.193 262.722 C 57.693 261.842,58.486 260.664,58.956 260.103 C 59.425 259.542,60.122 258.372,60.504 257.502 C 60.886 256.632,61.590 255.455,62.069 254.886 C 62.547 254.317,63.216 253.205,63.555 252.415 C 63.893 251.625,64.550 250.528,65.014 249.976 C 65.478 249.425,66.188 248.228,66.591 247.318 C 66.995 246.408,67.592 245.442,67.919 245.172 C 68.246 244.902,68.942 243.723,69.466 242.553 C 69.989 241.383,70.767 240.057,71.194 239.607 C 71.622 239.157,72.278 238.070,72.653 237.192 C 73.028 236.313,73.721 235.136,74.193 234.576 C 74.665 234.015,75.334 232.893,75.680 232.081 C 76.027 231.270,76.660 230.237,77.087 229.787 C 77.514 229.337,78.177 228.232,78.560 227.332 C 78.943 226.432,79.607 225.327,80.036 224.877 C 80.465 224.427,81.177 223.240,81.619 222.240 C 82.062 221.240,82.786 219.988,83.229 219.458 C 83.672 218.928,84.434 217.647,84.922 216.612 C 85.410 215.577,85.955 214.730,86.133 214.730 C 86.312 214.730,86.958 213.648,87.569 212.327 C 88.179 211.005,88.923 209.721,89.221 209.474 C 89.519 209.227,90.189 208.144,90.710 207.067 C 91.232 205.991,91.945 204.805,92.294 204.433 C 92.644 204.061,93.249 203.022,93.639 202.124 C 94.029 201.226,94.728 200.084,95.193 199.587 C 95.658 199.090,96.358 197.926,96.749 197.001 C 97.140 196.075,97.882 194.790,98.397 194.144 C 98.912 193.498,99.727 192.139,100.207 191.124 C 100.688 190.108,101.250 189.172,101.457 189.044 C 101.665 188.916,102.271 187.909,102.805 186.807 C 103.339 185.705,104.115 184.429,104.529 183.973 C 104.943 183.516,105.556 182.480,105.891 181.669 C 106.227 180.859,106.900 179.755,107.387 179.214 C 107.873 178.674,108.590 177.498,108.980 176.600 C 109.370 175.702,109.974 174.663,110.324 174.290 C 110.674 173.918,111.387 172.733,111.908 171.656 C 112.430 170.580,113.113 169.486,113.427 169.226 C 113.740 168.965,114.469 167.719,115.046 166.455 C 115.623 165.191,116.356 163.942,116.674 163.679 C 116.993 163.416,117.604 162.410,118.032 161.442 C 118.460 160.474,119.195 159.225,119.666 158.665 C 120.137 158.105,120.852 156.903,121.256 155.992 C 121.659 155.082,122.257 154.116,122.583 153.846 C 122.910 153.576,123.574 152.471,124.059 151.391 C 124.544 150.311,125.206 149.206,125.532 148.936 C 125.857 148.666,126.521 147.561,127.006 146.481 C 127.491 145.401,128.259 144.075,128.711 143.535 C 129.164 142.995,129.933 141.706,130.421 140.671 C 130.909 139.636,131.453 138.789,131.630 138.789 C 131.807 138.789,132.440 137.718,133.037 136.409 C 133.633 135.101,134.385 133.812,134.707 133.545 C 135.030 133.279,135.624 132.316,136.027 131.405 C 136.431 130.495,137.146 129.292,137.617 128.733 C 138.088 128.173,138.823 126.923,139.251 125.956 C 139.679 124.988,140.290 123.981,140.610 123.718 C 140.929 123.456,141.610 122.317,142.123 121.189 C 142.636 120.060,143.371 118.822,143.756 118.437 C 144.141 118.052,144.940 116.743,145.531 115.528 C 146.122 114.314,146.770 113.218,146.970 113.095 C 147.170 112.971,147.770 111.968,148.304 110.866 C 148.838 109.764,149.614 108.488,150.028 108.032 C 150.442 107.575,151.055 106.538,151.391 105.728 C 151.726 104.918,152.399 103.813,152.886 103.273 C 153.373 102.733,154.090 101.557,154.479 100.659 C 154.869 99.761,155.459 98.730,155.791 98.367 C 156.122 98.005,156.840 96.816,157.385 95.725 C 157.930 94.634,158.615 93.543,158.907 93.300 C 159.199 93.058,159.923 91.814,160.514 90.538 C 161.106 89.261,161.852 88.001,162.171 87.738 C 162.491 87.475,163.113 86.446,163.554 85.450 C 163.994 84.455,164.640 83.336,164.989 82.964 C 165.339 82.592,166.051 81.407,166.573 80.331 C 167.094 79.254,167.781 78.158,168.099 77.894 C 168.417 77.630,169.073 76.530,169.558 75.450 C 170.043 74.370,170.706 73.265,171.031 72.995 C 171.357 72.725,172.020 71.620,172.505 70.540 C 172.990 69.460,173.758 68.134,174.210 67.594 C 174.663 67.054,175.348 65.991,175.734 65.232 C 176.119 64.473,176.765 63.682,177.170 63.474 C 177.574 63.266,178.377 62.650,178.953 62.105 C 179.530 61.559,180.561 61.005,181.245 60.872 C 183.399 60.455,192.559 60.535,193.311 60.977 M184.092 115.220 C 181.868 115.546,180.177 116.126,179.672 116.735 C 179.444 117.009,178.659 117.532,177.927 117.897 C 176.022 118.848,173.233 121.658,172.300 123.568 C 171.860 124.468,171.248 125.646,170.939 126.187 C 170.417 127.098,170.376 129.653,170.376 161.538 L 170.376 195.908 171.560 198.363 C 172.211 199.714,172.931 201.303,173.160 201.895 C 173.389 202.487,173.818 203.150,174.113 203.368 C 174.408 203.586,174.983 204.197,175.391 204.726 C 176.567 206.253,179.995 209.085,180.956 209.325 C 181.438 209.445,182.282 209.885,182.831 210.303 C 185.044 211.987,191.255 212.413,193.671 211.047 C 198.048 208.572,198.769 208.033,199.847 206.425 C 200.466 205.502,201.335 204.231,201.779 203.601 C 202.290 202.875,202.922 201.014,203.502 198.527 L 204.419 194.599 204.419 161.538 L 204.419 128.478 203.643 125.532 C 201.378 116.931,195.080 113.609,184.092 115.220 M196.357 117.093 C 196.830 117.650,197.692 118.343,198.272 118.631 C 198.852 118.920,199.498 119.486,199.707 119.889 C 199.917 120.292,200.560 121.064,201.137 121.604 C 202.864 123.222,202.946 125.043,202.946 161.563 C 202.946 197.691,202.757 201.769,201.036 202.838 C 200.697 203.049,199.974 204.007,199.431 204.966 C 198.230 207.088,197.727 207.554,195.417 208.689 C 194.427 209.176,193.368 209.887,193.063 210.270 C 192.155 211.411,186.458 211.307,185.051 210.124 C 184.501 209.662,183.183 209.014,182.123 208.684 C 180.312 208.122,179.791 207.743,177.022 204.975 C 174.174 202.128,173.861 201.673,173.339 199.635 C 173.045 198.490,172.406 196.740,171.918 195.748 L 171.031 193.944 171.031 161.524 C 171.031 132.067,171.080 129.029,171.566 128.287 C 171.861 127.838,172.516 126.246,173.023 124.750 C 173.728 122.666,174.122 121.961,174.705 121.740 C 175.124 121.581,175.769 120.937,176.139 120.309 C 176.636 119.467,177.113 119.112,177.962 118.953 C 178.594 118.834,179.795 118.215,180.632 117.577 C 182.707 115.992,183.299 115.890,189.810 115.991 L 195.497 116.079 196.357 117.093 M185.106 225.106 C 184.746 225.190,183.568 225.668,182.488 226.169 C 181.408 226.669,179.855 227.320,179.038 227.615 C 178.221 227.910,176.851 228.815,175.994 229.624 C 175.136 230.434,174.315 231.097,174.168 231.097 C 174.020 231.097,173.108 232.680,172.141 234.615 C 169.848 239.200,169.631 242.584,171.455 245.337 C 172.032 246.208,172.504 247.046,172.504 247.199 C 172.504 248.343,176.019 251.747,179.320 253.799 C 183.387 256.327,191.290 256.433,197.473 254.043 C 204.622 251.279,206.501 236.369,200.540 229.710 C 199.449 228.492,198.403 227.495,198.215 227.494 C 198.026 227.494,196.709 226.905,195.288 226.185 C 192.721 224.886,188.130 224.399,185.106 225.106 M193.211 226.625 C 193.974 227.059,195.531 227.685,196.669 228.016 C 198.466 228.537,198.800 228.760,199.193 229.700 C 199.442 230.296,200.091 231.039,200.636 231.349 C 202.747 232.555,203.624 243.644,201.939 247.827 C 201.376 249.226,197.313 253.221,196.056 253.613 C 193.776 254.323,189.430 254.669,186.743 254.353 C 179.898 253.550,180.380 253.677,179.040 252.324 C 178.354 251.631,177.621 251.064,177.411 251.064 C 176.630 251.064,173.534 247.549,173.190 246.270 C 173.002 245.574,172.477 244.232,172.022 243.289 C 170.972 241.113,170.984 240.507,172.132 237.759 C 172.647 236.525,173.345 234.725,173.683 233.759 C 174.090 232.595,174.540 231.911,175.016 231.730 C 175.411 231.579,176.547 230.721,177.540 229.821 C 178.783 228.696,179.733 228.121,180.589 227.977 C 182.331 227.684,183.956 227.172,185.106 226.552 C 187.432 225.299,190.936 225.331,193.211 226.625 " stroke="none" fill="#bcbcbc" fill-rule="evenodd"></path></g></svg>