<svg id="svg" version="1.1" xmlns="http://www.w3.org/2000/svg" xmlns:xlink="http://www.w3.org/1999/xlink" width="400" height="331.25" viewBox="0, 0, 400,331.25"><g id="svgg"><path id="path0" d="M0.000 165.700 L 0.000 331.400 200.000 331.400 L 400.000 331.400 400.000 165.700 L 400.000 0.000 200.000 0.000 L 0.000 0.000 0.000 165.700 M323.281 46.257 C 323.828 46.450,324.776 47.269,325.389 48.076 C 326.002 48.884,326.831 49.721,327.231 49.936 C 329.022 50.899,328.908 45.037,328.999 140.845 C 329.091 238.662,329.241 231.238,327.161 232.146 C 326.743 232.328,326.313 232.850,326.205 233.306 C 325.926 234.484,325.190 235.223,324.044 235.474 C 323.499 235.594,322.732 236.069,322.339 236.530 C 320.578 238.596,328.162 238.426,229.439 238.608 C 180.014 238.699,139.475 238.874,139.352 238.996 C 139.230 239.118,138.882 239.715,138.579 240.322 C 138.213 241.054,137.653 241.546,136.910 241.786 C 136.140 242.035,135.654 242.477,135.347 243.207 C 135.056 243.899,134.491 244.438,133.719 244.761 C 133.069 245.033,132.410 245.586,132.255 245.991 C 131.900 246.920,130.935 247.783,130.075 247.940 C 129.706 248.008,129.163 248.593,128.847 249.263 C 128.479 250.045,127.930 250.586,127.272 250.815 C 126.696 251.016,125.969 251.663,125.582 252.318 C 125.205 252.957,124.468 253.620,123.925 253.809 C 123.379 254.000,122.644 254.663,122.261 255.312 C 121.884 255.951,121.297 256.563,120.957 256.671 C 120.617 256.779,119.611 257.568,118.723 258.425 C 116.344 260.721,113.123 263.538,112.442 263.918 C 112.115 264.101,111.563 264.611,111.216 265.052 C 110.144 266.411,109.264 267.109,108.620 267.109 C 108.230 267.109,107.873 267.479,107.652 268.113 C 107.308 269.099,105.926 270.091,104.896 270.091 C 104.609 270.091,104.236 270.456,104.066 270.902 C 102.934 273.881,88.838 273.883,87.695 270.904 C 87.590 270.630,86.847 270.123,86.044 269.779 C 84.113 268.951,83.513 268.031,83.513 265.897 C 83.513 264.234,83.460 264.134,82.104 263.224 L 80.696 262.278 80.609 250.886 C 80.549 243.152,80.403 239.352,80.154 239.051 C 79.870 238.709,78.268 238.606,73.116 238.597 C 64.467 238.583,62.282 238.306,60.678 237.017 C 60.005 236.475,58.702 235.709,57.783 235.314 C 56.555 234.786,55.970 234.296,55.575 233.468 C 55.279 232.849,54.605 232.118,54.077 231.845 C 52.064 230.804,52.196 237.156,52.196 141.176 L 52.196 53.190 52.935 52.030 C 53.341 51.392,54.210 50.423,54.865 49.876 C 55.520 49.329,56.707 48.311,57.504 47.614 C 58.536 46.711,59.409 46.269,60.544 46.077 C 63.042 45.655,322.080 45.832,323.281 46.257 M82.104 73.038 C 81.555 73.455,81.524 77.143,81.524 142.284 L 81.524 211.089 82.270 211.255 C 82.680 211.347,88.459 211.461,95.112 211.510 C 111.129 211.628,109.883 210.910,110.084 220.131 C 110.233 226.922,110.474 227.822,111.624 225.873 C 112.065 225.125,112.793 224.505,113.613 224.177 C 114.331 223.889,115.068 223.304,115.270 222.861 C 115.470 222.421,116.348 221.688,117.220 221.232 C 118.093 220.775,119.326 219.870,119.961 219.222 C 120.595 218.573,121.639 217.883,122.281 217.689 C 123.080 217.448,123.603 217.008,123.944 216.291 C 124.305 215.529,124.816 215.126,125.819 214.808 C 126.812 214.494,127.253 214.149,127.398 213.572 C 127.932 211.442,120.845 211.616,214.416 211.433 L 299.089 211.268 299.172 142.371 C 299.234 91.721,299.157 73.356,298.883 73.026 C 298.333 72.362,82.978 72.374,82.104 73.038 " stroke="none" fill="#fcfcfc" fill-rule="evenodd"></path><path id="path1" d="M62.635 48.109 C 61.997 48.289,61.102 48.786,60.646 49.213 C 60.191 49.641,59.191 50.239,58.425 50.543 C 57.362 50.964,56.948 51.352,56.675 52.180 C 56.478 52.777,55.886 53.649,55.360 54.118 C 53.932 55.390,53.981 51.936,54.086 142.833 L 54.184 227.175 56.338 229.791 C 60.190 234.471,61.703 234.971,72.715 235.206 C 80.908 235.380,81.308 235.493,82.994 238.092 L 83.844 239.404 83.844 250.159 L 83.844 260.914 85.501 262.666 C 86.983 264.233,87.158 264.575,87.158 265.905 C 87.158 267.373,87.180 267.402,88.898 268.216 C 89.855 268.669,90.999 269.426,91.441 269.897 C 92.922 271.476,97.461 271.181,101.189 269.263 C 102.783 268.442,104.267 267.766,104.487 267.759 C 104.708 267.752,105.189 267.268,105.557 266.683 C 105.924 266.099,106.626 265.429,107.116 265.194 C 107.606 264.959,108.328 264.316,108.720 263.765 C 109.112 263.214,110.002 262.405,110.697 261.966 C 111.392 261.527,112.051 260.883,112.162 260.535 C 112.272 260.187,113.029 259.481,113.843 258.967 C 114.658 258.452,115.409 257.762,115.514 257.433 C 115.618 257.104,116.029 256.669,116.427 256.467 C 116.825 256.265,117.821 255.452,118.641 254.660 C 119.461 253.867,121.176 252.295,122.452 251.166 C 123.728 250.037,125.535 248.407,126.467 247.543 C 127.399 246.679,128.448 245.881,128.798 245.770 C 129.148 245.659,129.704 245.112,130.033 244.554 C 130.363 243.996,131.143 243.296,131.767 242.998 C 132.391 242.701,133.189 241.970,133.541 241.373 C 133.895 240.773,134.706 240.070,135.359 239.797 C 136.007 239.526,136.537 239.099,136.537 238.848 C 136.537 238.143,137.888 237.076,139.354 236.624 C 140.083 236.399,141.006 236.010,141.406 235.759 C 142.016 235.377,156.107 235.289,229.558 235.208 L 316.984 235.113 319.470 234.403 C 323.152 233.350,323.698 233.088,323.961 232.248 C 324.092 231.827,324.813 230.439,325.563 229.163 L 326.926 226.843 326.926 141.318 L 326.926 55.793 326.062 54.487 C 325.587 53.769,325.085 52.810,324.947 52.357 C 324.634 51.330,323.482 50.041,322.877 50.041 C 322.627 50.041,322.020 49.640,321.529 49.148 C 320.963 48.582,320.089 48.165,319.142 48.008 C 316.804 47.622,64.007 47.721,62.635 48.109 M300.804 69.791 C 301.319 70.173,302.073 71.067,302.480 71.779 L 303.220 73.074 303.226 142.192 L 303.231 211.309 302.320 212.155 C 300.522 213.822,304.263 213.753,215.775 213.755 L 132.394 213.756 130.903 214.766 C 130.083 215.322,128.815 216.083,128.086 216.458 C 127.357 216.833,126.411 217.575,125.984 218.106 C 125.558 218.637,124.712 219.280,124.105 219.533 C 123.498 219.787,122.743 220.388,122.428 220.870 C 122.112 221.351,121.318 222.020,120.662 222.356 C 120.006 222.693,119.106 223.358,118.660 223.835 C 118.215 224.312,117.097 225.182,116.175 225.768 C 115.253 226.355,114.051 227.303,113.504 227.875 C 112.763 228.651,112.001 229.021,110.521 229.324 C 109.428 229.549,108.356 229.876,108.140 230.051 C 107.121 230.877,106.571 228.413,106.353 222.038 C 106.144 215.952,105.941 214.475,105.249 214.007 C 105.050 213.873,99.743 213.754,93.455 213.744 C 81.174 213.723,79.397 213.566,78.469 212.420 C 77.901 211.718,77.878 208.571,77.960 141.658 L 78.045 71.631 78.739 70.695 C 80.095 68.866,73.587 68.962,190.779 69.032 L 299.869 69.097 300.804 69.791 " stroke="none" fill="#606060" fill-rule="evenodd"></path><path id="path2" d="M63.960 46.609 C 63.505 46.679,62.492 46.819,61.709 46.920 C 60.821 47.035,59.887 47.451,59.224 48.028 C 58.639 48.536,57.767 49.160,57.286 49.414 C 56.394 49.885,54.511 52.064,53.449 53.853 C 52.540 55.383,52.528 226.844,53.437 228.666 C 54.844 231.489,57.210 233.732,60.573 235.430 L 63.795 237.057 71.748 237.191 L 79.702 237.324 80.613 238.194 L 81.524 239.064 81.524 250.118 L 81.524 261.172 83.166 262.684 C 84.713 264.109,84.813 264.302,84.906 266.044 L 85.004 267.891 87.175 269.074 C 88.369 269.725,89.708 270.598,90.151 271.015 C 91.693 272.468,99.556 272.572,101.740 271.169 C 102.378 270.759,103.345 270.162,103.890 269.843 C 104.434 269.524,105.627 268.562,106.541 267.706 C 107.455 266.851,108.873 265.553,109.693 264.823 C 110.514 264.092,111.972 262.779,112.933 261.905 C 113.895 261.030,115.387 259.698,116.247 258.945 C 117.108 258.191,118.793 256.700,119.991 255.631 C 121.188 254.562,123.114 252.867,124.270 251.864 C 125.425 250.862,127.015 249.445,127.803 248.716 C 128.591 247.987,130.061 246.645,131.069 245.733 C 132.078 244.822,133.711 243.331,134.698 242.419 C 135.686 241.508,136.785 240.518,137.141 240.220 C 137.496 239.921,137.927 239.428,138.097 239.124 C 139.087 237.355,133.733 237.462,229.826 237.283 L 318.310 237.117 321.526 235.559 C 324.278 234.226,324.836 233.817,325.396 232.720 C 325.755 232.015,326.307 231.225,326.622 230.964 C 328.354 229.527,328.244 235.125,328.344 143.331 C 328.399 92.724,328.312 57.452,328.129 55.914 C 327.677 52.117,324.905 48.425,321.458 47.031 C 320.375 46.593,66.775 46.177,63.960 46.609 M321.757 47.839 C 323.428 48.750,325.819 51.307,326.761 53.190 L 327.589 54.847 327.682 140.514 C 327.785 234.421,327.938 227.801,325.581 231.347 C 323.782 234.054,323.933 233.940,320.298 235.321 L 317.316 236.454 229.329 236.621 C 131.350 236.808,139.940 236.558,137.082 239.301 C 136.144 240.201,134.855 241.440,134.217 242.054 C 133.078 243.150,127.677 247.980,116.946 257.498 C 111.179 262.614,108.801 264.791,106.593 266.977 C 105.838 267.726,104.698 268.600,104.060 268.922 C 103.422 269.243,102.601 269.768,102.237 270.089 C 100.078 271.988,92.777 272.230,90.448 270.479 C 89.641 269.873,88.198 268.938,87.241 268.402 L 85.501 267.427 85.501 265.710 C 85.501 264.079,85.419 263.917,83.844 262.438 L 82.187 260.883 82.187 249.916 L 82.187 238.950 81.221 237.868 L 80.255 236.785 72.356 236.600 C 64.801 236.422,64.378 236.378,62.635 235.573 C 61.632 235.111,60.176 234.463,59.398 234.132 C 57.957 233.520,55.060 230.339,53.899 228.093 C 53.392 227.113,53.357 220.510,53.436 140.881 L 53.521 54.730 54.270 53.794 C 54.682 53.279,55.390 52.302,55.844 51.622 C 56.298 50.943,57.228 50.084,57.912 49.715 C 58.596 49.346,59.546 48.732,60.024 48.350 C 60.502 47.968,61.397 47.536,62.013 47.390 C 64.755 46.740,320.552 47.182,321.757 47.839 M81.138 70.961 C 78.689 72.041,78.858 66.482,78.953 142.502 L 79.039 211.599 80.365 212.262 C 81.596 212.878,82.545 212.936,93.786 213.093 C 100.439 213.185,106.155 213.392,106.488 213.552 C 107.543 214.060,107.802 215.424,108.005 221.532 C 108.253 229.007,109.364 230.204,113.017 226.926 C 113.880 226.152,115.221 225.070,115.996 224.524 C 119.685 221.920,120.550 221.266,121.677 220.224 C 122.344 219.607,123.347 218.867,123.904 218.579 C 124.462 218.290,125.076 217.759,125.269 217.399 C 125.462 217.038,126.101 216.501,126.688 216.205 C 127.275 215.909,128.202 215.257,128.749 214.755 C 130.649 213.010,126.497 213.090,215.139 213.090 C 304.542 213.090,299.494 213.181,301.313 211.535 C 301.878 211.024,301.906 207.837,301.906 142.145 L 301.906 73.290 301.038 72.259 C 300.560 71.691,299.747 71.009,299.231 70.742 C 298.413 70.319,284.506 70.258,190.489 70.268 L 82.684 70.278 81.138 70.961 M299.819 72.310 L 300.911 73.369 300.911 142.241 L 300.911 211.112 299.834 211.768 C 298.768 212.418,297.913 212.425,215.410 212.428 C 125.944 212.431,130.435 212.337,128.337 214.264 C 127.652 214.892,126.982 215.408,126.847 215.409 C 126.712 215.409,125.795 216.141,124.808 217.034 C 123.822 217.928,122.715 218.754,122.349 218.870 C 121.983 218.986,121.444 219.446,121.152 219.893 C 120.859 220.339,120.063 220.992,119.382 221.343 C 118.701 221.695,117.349 222.666,116.377 223.502 C 115.405 224.337,114.490 225.021,114.343 225.021 C 114.196 225.021,113.390 225.697,112.552 226.523 C 111.107 227.948,109.680 228.106,108.987 226.918 C 108.963 226.877,108.852 224.063,108.739 220.664 C 108.447 211.863,109.495 212.435,93.621 212.422 C 83.210 212.414,82.246 212.364,80.944 211.774 L 79.536 211.134 79.536 142.189 L 79.536 73.244 80.911 72.247 L 82.287 71.251 190.506 71.251 L 298.726 71.251 299.819 72.310 " stroke="none" fill="#acacac" fill-rule="evenodd"></path><path id="path3" d="M62.013 47.390 C 61.397 47.536,60.502 47.968,60.024 48.350 C 59.546 48.732,58.596 49.346,57.912 49.715 C 57.228 50.084,56.298 50.943,55.844 51.622 C 55.390 52.302,54.682 53.279,54.270 53.794 L 53.521 54.730 53.436 140.881 C 53.357 220.510,53.392 227.113,53.899 228.093 C 55.060 230.339,57.957 233.520,59.398 234.132 C 60.176 234.463,61.632 235.111,62.635 235.573 C 64.378 236.378,64.801 236.422,72.356 236.600 L 80.255 236.785 81.221 237.868 L 82.187 238.950 82.187 249.916 L 82.187 260.883 83.844 262.438 C 85.419 263.917,85.501 264.079,85.501 265.710 L 85.501 267.427 87.241 268.402 C 88.198 268.938,89.641 269.873,90.448 270.479 C 92.777 272.230,100.078 271.988,102.237 270.089 C 102.601 269.768,103.422 269.243,104.060 268.922 C 104.698 268.600,105.838 267.726,106.593 266.977 C 108.801 264.791,111.179 262.614,116.946 257.498 C 127.677 247.980,133.078 243.150,134.217 242.054 C 134.855 241.440,136.144 240.201,137.082 239.301 C 139.940 236.558,131.350 236.808,229.329 236.621 L 317.316 236.454 320.298 235.321 C 323.933 233.940,323.782 234.054,325.581 231.347 C 327.938 227.801,327.785 234.421,327.682 140.514 L 327.589 54.847 326.761 53.190 C 325.819 51.307,323.428 48.750,321.757 47.839 C 320.552 47.182,64.755 46.740,62.013 47.390 M319.142 48.008 C 320.089 48.165,320.963 48.582,321.529 49.148 C 322.020 49.640,322.627 50.041,322.877 50.041 C 323.482 50.041,324.634 51.330,324.947 52.357 C 325.085 52.810,325.587 53.769,326.062 54.487 L 326.926 55.793 326.926 141.318 L 326.926 226.843 325.563 229.163 C 324.813 230.439,324.092 231.827,323.961 232.248 C 323.698 233.088,323.152 233.350,319.470 234.403 L 316.984 235.113 229.558 235.208 C 156.107 235.289,142.016 235.377,141.406 235.759 C 141.006 236.010,140.083 236.399,139.354 236.624 C 137.888 237.076,136.537 238.143,136.537 238.848 C 136.537 239.099,136.007 239.526,135.359 239.797 C 134.706 240.070,133.895 240.773,133.541 241.373 C 133.189 241.970,132.391 242.701,131.767 242.998 C 131.143 243.296,130.363 243.996,130.033 244.554 C 129.704 245.112,129.148 245.659,128.798 245.770 C 128.448 245.881,127.399 246.679,126.467 247.543 C 125.535 248.407,123.728 250.037,122.452 251.166 C 121.176 252.295,119.461 253.867,118.641 254.660 C 117.821 255.452,116.825 256.265,116.427 256.467 C 116.029 256.669,115.618 257.104,115.514 257.433 C 115.409 257.762,114.658 258.452,113.843 258.967 C 113.029 259.481,112.272 260.187,112.162 260.535 C 112.051 260.883,111.392 261.527,110.697 261.966 C 110.002 262.405,109.112 263.214,108.720 263.765 C 108.328 264.316,107.606 264.959,107.116 265.194 C 106.626 265.429,105.924 266.099,105.557 266.683 C 105.189 267.268,104.708 267.752,104.487 267.759 C 104.267 267.766,102.783 268.442,101.189 269.263 C 97.461 271.181,92.922 271.476,91.441 269.897 C 90.999 269.426,89.855 268.669,88.898 268.216 C 87.180 267.402,87.158 267.373,87.158 265.905 C 87.158 264.575,86.983 264.233,85.501 262.666 L 83.844 260.914 83.844 250.159 L 83.844 239.404 82.994 238.092 C 81.308 235.493,80.908 235.380,72.715 235.206 C 61.703 234.971,60.190 234.471,56.338 229.791 L 54.184 227.175 54.086 142.833 C 53.981 51.936,53.932 55.390,55.360 54.118 C 55.886 53.649,56.478 52.777,56.675 52.180 C 56.948 51.352,57.362 50.964,58.425 50.543 C 59.191 50.239,60.191 49.641,60.646 49.213 C 61.102 48.786,61.997 48.289,62.635 48.109 C 64.007 47.721,316.804 47.622,319.142 48.008 M80.561 69.363 C 79.940 69.581,79.120 70.181,78.739 70.695 L 78.045 71.631 77.960 141.658 C 77.878 208.571,77.901 211.718,78.469 212.420 C 79.397 213.566,81.174 213.723,93.455 213.744 C 99.743 213.754,105.050 213.873,105.249 214.007 C 105.941 214.475,106.144 215.952,106.353 222.038 C 106.571 228.413,107.121 230.877,108.140 230.051 C 108.356 229.876,109.428 229.549,110.521 229.324 C 112.001 229.021,112.763 228.651,113.504 227.875 C 114.051 227.303,115.253 226.355,116.175 225.768 C 117.097 225.182,118.215 224.312,118.660 223.835 C 119.106 223.358,120.006 222.693,120.662 222.356 C 121.318 222.020,122.112 221.351,122.428 220.870 C 122.743 220.388,123.498 219.787,124.105 219.533 C 124.712 219.280,125.558 218.637,125.984 218.106 C 126.411 217.575,127.357 216.833,128.086 216.458 C 128.815 216.083,130.083 215.322,130.903 214.766 L 132.394 213.756 215.775 213.755 C 304.263 213.753,300.522 213.822,302.320 212.155 L 303.231 211.309 303.226 142.192 L 303.220 73.074 302.480 71.779 C 302.073 71.067,301.319 70.173,300.804 69.791 L 299.869 69.097 190.779 69.032 C 106.850 68.982,81.430 69.058,80.561 69.363 M299.231 70.742 C 299.747 71.009,300.560 71.691,301.038 72.259 L 301.906 73.290 301.906 142.145 C 301.906 207.837,301.878 211.024,301.313 211.535 C 299.494 213.181,304.542 213.090,215.139 213.090 C 126.497 213.090,130.649 213.010,128.749 214.755 C 128.202 215.257,127.275 215.909,126.688 216.205 C 126.101 216.501,125.462 217.038,125.269 217.399 C 125.076 217.759,124.462 218.290,123.904 218.579 C 123.347 218.867,122.344 219.607,121.677 220.224 C 120.550 221.266,119.685 221.920,115.996 224.524 C 115.221 225.070,113.880 226.152,113.017 226.926 C 109.364 230.204,108.253 229.007,108.005 221.532 C 107.802 215.424,107.543 214.060,106.488 213.552 C 106.155 213.392,100.439 213.185,93.786 213.093 C 82.545 212.936,81.596 212.878,80.365 212.262 L 79.039 211.599 78.953 142.502 C 78.858 66.482,78.689 72.041,81.138 70.961 L 82.684 70.278 190.489 70.268 C 284.506 70.258,298.413 70.319,299.231 70.742 " stroke="none" fill="#a4a4a4" fill-rule="evenodd"></path><path id="path4" d="M60.544 46.077 C 59.409 46.269,58.536 46.711,57.504 47.614 C 56.707 48.311,55.520 49.329,54.865 49.876 C 54.210 50.423,53.341 51.392,52.935 52.030 L 52.196 53.190 52.196 141.176 C 52.196 237.156,52.064 230.804,54.077 231.845 C 54.605 232.118,55.279 232.849,55.575 233.468 C 55.970 234.296,56.555 234.786,57.783 235.314 C 58.702 235.709,60.005 236.475,60.678 237.017 C 62.282 238.306,64.467 238.583,73.116 238.597 C 78.268 238.606,79.870 238.709,80.154 239.051 C 80.403 239.352,80.549 243.152,80.609 250.886 L 80.696 262.278 82.104 263.224 C 83.460 264.134,83.513 264.234,83.513 265.897 C 83.513 268.031,84.113 268.951,86.044 269.779 C 86.847 270.123,87.590 270.630,87.695 270.904 C 88.838 273.883,102.934 273.881,104.066 270.902 C 104.236 270.456,104.609 270.091,104.896 270.091 C 105.926 270.091,107.308 269.099,107.652 268.113 C 107.873 267.479,108.230 267.109,108.620 267.109 C 109.264 267.109,110.144 266.411,111.216 265.052 C 111.563 264.611,112.115 264.101,112.442 263.918 C 113.123 263.538,116.344 260.721,118.723 258.425 C 119.611 257.568,120.617 256.779,120.957 256.671 C 121.297 256.563,121.884 255.951,122.261 255.312 C 122.644 254.663,123.379 254.000,123.925 253.809 C 124.468 253.620,125.205 252.957,125.582 252.318 C 125.969 251.663,126.696 251.016,127.272 250.815 C 127.930 250.586,128.479 250.045,128.847 249.263 C 129.163 248.593,129.706 248.008,130.075 247.940 C 130.935 247.783,131.900 246.920,132.255 245.991 C 132.410 245.586,133.069 245.033,133.719 244.761 C 134.491 244.438,135.056 243.899,135.347 243.207 C 135.654 242.477,136.140 242.035,136.910 241.786 C 137.653 241.546,138.213 241.054,138.579 240.322 C 138.882 239.715,139.230 239.118,139.352 238.996 C 139.475 238.874,180.014 238.699,229.439 238.608 C 328.162 238.426,320.578 238.596,322.339 236.530 C 322.732 236.069,323.499 235.594,324.044 235.474 C 325.190 235.223,325.926 234.484,326.205 233.306 C 326.313 232.850,326.743 232.328,327.161 232.146 C 329.241 231.238,329.091 238.662,328.999 140.845 C 328.908 45.037,329.022 50.899,327.231 49.936 C 326.831 49.721,326.002 48.884,325.389 48.076 C 324.776 47.269,323.828 46.450,323.281 46.257 C 322.080 45.832,63.042 45.655,60.544 46.077 M321.458 47.031 C 324.905 48.425,327.677 52.117,328.129 55.914 C 328.312 57.452,328.399 92.724,328.344 143.331 C 328.244 235.125,328.354 229.527,326.622 230.964 C 326.307 231.225,325.755 232.015,325.396 232.720 C 324.836 233.817,324.278 234.226,321.526 235.559 L 318.310 237.117 229.826 237.283 C 133.733 237.462,139.087 237.355,138.097 239.124 C 137.927 239.428,137.496 239.921,137.141 240.220 C 136.785 240.518,135.686 241.508,134.698 242.419 C 133.711 243.331,132.078 244.822,131.069 245.733 C 130.061 246.645,128.591 247.987,127.803 248.716 C 127.015 249.445,125.425 250.862,124.270 251.864 C 123.114 252.867,121.188 254.562,119.991 255.631 C 118.793 256.700,117.108 258.191,116.247 258.945 C 115.387 259.698,113.895 261.030,112.933 261.905 C 111.972 262.779,110.514 264.092,109.693 264.823 C 108.873 265.553,107.455 266.851,106.541 267.706 C 105.627 268.562,104.434 269.524,103.890 269.843 C 103.345 270.162,102.378 270.759,101.740 271.169 C 99.556 272.572,91.693 272.468,90.151 271.015 C 89.708 270.598,88.369 269.725,87.175 269.074 L 85.004 267.891 84.906 266.044 C 84.813 264.302,84.713 264.109,83.166 262.684 L 81.524 261.172 81.524 250.118 L 81.524 239.064 80.613 238.194 L 79.702 237.324 71.748 237.191 L 63.795 237.057 60.573 235.430 C 57.210 233.732,54.844 231.489,53.437 228.666 C 52.528 226.844,52.540 55.383,53.449 53.853 C 54.511 52.064,56.394 49.885,57.286 49.414 C 57.767 49.160,58.639 48.536,59.224 48.028 C 59.887 47.451,60.821 47.035,61.709 46.920 C 62.492 46.819,63.505 46.679,63.960 46.609 C 66.775 46.177,320.375 46.593,321.458 47.031 M80.911 72.247 L 79.536 73.244 79.536 142.189 L 79.536 211.134 80.944 211.774 C 82.246 212.364,83.210 212.414,93.621 212.422 C 109.495 212.435,108.447 211.863,108.739 220.664 C 108.852 224.063,108.963 226.877,108.987 226.918 C 109.680 228.106,111.107 227.948,112.552 226.523 C 113.390 225.697,114.196 225.021,114.343 225.021 C 114.490 225.021,115.405 224.337,116.377 223.502 C 117.349 222.666,118.701 221.695,119.382 221.343 C 120.063 220.992,120.859 220.339,121.152 219.893 C 121.444 219.446,121.983 218.986,122.349 218.870 C 122.715 218.754,123.822 217.928,124.808 217.034 C 125.795 216.141,126.712 215.409,126.847 215.409 C 126.982 215.408,127.652 214.892,128.337 214.264 C 130.435 212.337,125.944 212.431,215.410 212.428 C 297.913 212.425,298.768 212.418,299.834 211.768 L 300.911 211.112 300.911 142.241 L 300.911 73.369 299.819 72.310 L 298.726 71.251 190.506 71.251 L 82.287 71.251 80.911 72.247 M298.883 73.026 C 299.157 73.356,299.234 91.721,299.172 142.371 L 299.089 211.268 214.416 211.433 C 120.845 211.616,127.932 211.442,127.398 213.572 C 127.253 214.149,126.812 214.494,125.819 214.808 C 124.816 215.126,124.305 215.529,123.944 216.291 C 123.603 217.008,123.080 217.448,122.281 217.689 C 121.639 217.883,120.595 218.573,119.961 219.222 C 119.326 219.870,118.093 220.775,117.220 221.232 C 116.348 221.688,115.470 222.421,115.270 222.861 C 115.068 223.304,114.331 223.889,113.613 224.177 C 112.793 224.505,112.065 225.125,111.624 225.873 C 110.474 227.822,110.233 226.922,110.084 220.131 C 109.883 210.910,111.129 211.628,95.112 211.510 C 88.459 211.461,82.680 211.347,82.270 211.255 L 81.524 211.089 81.524 142.284 C 81.524 77.143,81.555 73.455,82.104 73.038 C 82.978 72.374,298.333 72.362,298.883 73.026 " stroke="none" fill="#d4d4d4" fill-rule="evenodd"></path></g></svg>