<svg id="svg" version="1.1" xmlns="http://www.w3.org/2000/svg" xmlns:xlink="http://www.w3.org/1999/xlink" width="400" height="286.3157894736842" viewBox="0, 0, 400,286.3157894736842"><g id="svgg"><path id="path0" d="M55.453 72.345 C 55.347 72.450,55.261 91.133,55.261 113.863 L 55.261 155.190 152.614 155.190 L 249.966 155.190 249.894 113.744 L 249.821 72.298 152.732 72.226 C 99.334 72.186,55.558 72.240,55.453 72.345 M265.914 93.522 C 265.436 94.001,265.685 218.110,266.165 218.294 C 267.094 218.651,277.080 218.487,277.382 218.110 C 277.540 217.913,277.760 216.722,277.870 215.462 C 277.995 214.030,278.320 212.634,278.735 211.739 C 279.101 210.952,279.495 209.535,279.610 208.590 C 279.850 206.617,280.099 205.840,280.676 205.263 C 280.901 205.039,281.308 204.183,281.581 203.361 C 281.854 202.540,282.194 201.796,282.337 201.707 C 282.480 201.619,283.120 200.651,283.759 199.556 C 284.398 198.462,285.051 197.566,285.210 197.566 C 285.368 197.566,285.688 197.111,285.921 196.554 C 286.162 195.978,286.649 195.426,287.052 195.273 C 287.441 195.125,287.759 194.809,287.759 194.570 C 287.759 194.332,288.275 193.812,288.905 193.414 C 289.535 193.017,290.050 192.524,290.050 192.318 C 290.050 192.113,290.565 191.656,291.195 191.302 C 291.825 190.948,292.464 190.427,292.615 190.144 C 292.767 189.861,293.508 189.362,294.262 189.035 C 295.016 188.708,295.855 188.178,296.125 187.857 C 296.395 187.537,296.975 187.197,297.414 187.103 C 298.356 186.901,299.034 186.593,300.255 185.813 C 300.749 185.497,302.166 185.058,303.404 184.837 C 304.642 184.617,306.066 184.228,306.568 183.974 C 309.306 182.588,319.686 182.684,321.405 184.111 C 321.607 184.278,322.849 184.616,324.165 184.862 C 325.772 185.162,326.972 185.581,327.823 186.140 C 328.519 186.598,329.399 186.972,329.778 186.972 C 330.161 186.972,330.847 187.353,331.325 187.831 C 331.798 188.304,332.318 188.690,332.481 188.690 C 333.031 188.690,335.004 189.937,335.004 190.285 C 335.004 190.474,335.448 190.840,335.991 191.098 C 336.534 191.355,337.246 191.942,337.573 192.402 C 337.900 192.861,338.409 193.314,338.702 193.407 C 338.996 193.500,339.383 193.930,339.562 194.362 C 339.741 194.793,340.171 195.272,340.518 195.426 C 340.865 195.579,341.308 196.027,341.501 196.421 C 341.695 196.815,342.101 197.339,342.405 197.586 C 342.708 197.833,343.243 198.606,343.593 199.304 C 343.944 200.002,344.469 200.834,344.761 201.153 C 345.053 201.473,345.495 202.310,345.743 203.015 C 345.991 203.719,346.524 204.772,346.928 205.356 C 347.460 206.124,347.728 206.999,347.899 208.525 C 348.049 209.867,348.402 211.135,348.871 212.016 C 349.358 212.932,349.618 213.893,349.640 214.860 C 349.719 218.273,350.295 218.775,352.700 217.529 C 353.439 217.146,354.702 216.617,355.506 216.353 C 356.499 216.027,357.068 215.651,357.283 215.180 C 357.457 214.799,357.991 214.284,358.470 214.036 C 358.971 213.778,359.341 213.358,359.341 213.049 C 359.341 212.754,359.846 211.841,360.462 211.021 C 361.968 209.018,361.986 208.689,361.869 185.111 C 361.774 165.857,361.695 164.352,360.780 164.352 C 360.495 164.352,359.341 162.192,359.341 161.658 C 359.341 161.400,359.014 161.064,358.614 160.912 C 358.214 160.760,357.667 160.254,357.400 159.787 C 357.132 159.321,356.643 158.872,356.314 158.789 C 355.984 158.706,355.129 158.123,354.413 157.493 C 353.697 156.863,352.761 156.214,352.333 156.051 C 351.905 155.889,351.490 155.507,351.411 155.204 C 351.332 154.901,350.900 154.525,350.451 154.369 C 350.002 154.212,349.403 153.807,349.119 153.468 C 348.836 153.130,348.153 152.613,347.602 152.321 C 347.051 152.029,346.093 151.330,345.474 150.769 C 344.855 150.208,344.187 149.749,343.990 149.749 C 343.794 149.749,343.357 149.363,343.021 148.890 C 342.684 148.418,342.220 148.031,341.990 148.031 C 341.759 148.031,341.119 147.581,340.568 147.029 C 340.017 146.478,339.419 146.027,339.240 146.027 C 338.621 146.027,334.750 141.699,334.413 140.631 C 334.232 140.055,333.772 139.123,333.392 138.559 C 332.945 137.895,332.545 136.631,332.258 134.979 C 332.003 133.507,331.527 131.931,331.134 131.255 C 330.688 130.491,330.349 129.262,330.155 127.717 C 329.963 126.191,329.632 124.984,329.222 124.321 C 328.844 123.709,328.385 122.143,328.089 120.456 C 327.816 118.896,327.408 117.408,327.182 117.149 C 326.686 116.580,326.274 115.285,325.811 112.843 C 325.608 111.771,325.246 110.826,324.940 110.563 C 324.651 110.316,324.149 109.314,323.824 108.337 C 323.445 107.197,322.981 106.395,322.532 106.100 C 322.147 105.848,321.832 105.426,321.832 105.162 C 321.832 104.898,321.457 104.289,320.998 103.808 C 317.485 100.130,316.665 99.356,316.288 99.356 C 316.052 99.356,315.605 99.001,315.295 98.568 C 314.961 98.101,314.225 97.627,313.486 97.402 C 312.801 97.194,311.916 96.716,311.519 96.339 C 311.039 95.882,310.085 95.504,308.656 95.205 C 307.478 94.959,305.999 94.474,305.369 94.127 C 304.209 93.489,266.525 92.912,265.914 93.522 M299.928 105.935 C 300.558 106.075,301.589 106.316,302.219 106.470 C 302.849 106.624,304.114 106.901,305.030 107.086 C 306.254 107.332,306.894 107.643,307.440 108.256 C 307.849 108.715,308.359 109.091,308.574 109.091 C 309.182 109.091,311.884 112.155,312.273 113.285 C 312.464 113.843,312.874 114.577,313.183 114.916 C 313.558 115.328,313.892 116.423,314.185 118.204 C 314.428 119.673,314.814 121.090,315.043 121.354 C 315.587 121.977,316.016 123.382,316.385 125.747 C 316.548 126.797,317.002 128.279,317.393 129.039 C 317.802 129.835,318.239 131.395,318.424 132.713 C 318.641 134.269,318.977 135.366,319.472 136.135 C 320.647 137.962,320.746 140.911,319.671 142.033 L 318.862 142.878 300.000 142.878 C 279.078 142.878,278.720 142.846,278.000 140.952 C 277.602 139.906,277.660 108.431,278.061 107.550 C 278.823 105.879,280.120 105.673,289.907 105.677 C 294.789 105.679,299.298 105.795,299.928 105.935 M55.393 171.295 C 55.318 171.492,55.290 182.155,55.330 194.989 L 55.404 218.325 64.624 218.325 C 70.807 218.325,73.946 218.224,74.151 218.018 C 74.448 217.721,75.033 214.284,75.436 210.469 C 75.614 208.785,76.208 207.087,76.744 206.729 C 76.862 206.650,77.228 205.676,77.558 204.565 C 77.938 203.289,78.424 202.314,78.879 201.918 C 79.275 201.574,79.599 201.038,79.599 200.728 C 79.599 200.417,79.968 199.740,80.418 199.223 C 80.869 198.705,81.444 197.879,81.697 197.386 C 81.949 196.893,82.530 196.174,82.988 195.788 C 83.447 195.403,83.970 194.809,84.153 194.469 C 84.335 194.128,84.866 193.652,85.334 193.410 C 85.802 193.168,86.185 192.784,86.185 192.555 C 86.185 192.327,86.539 191.953,86.972 191.723 C 87.405 191.493,88.387 190.779,89.155 190.137 C 89.922 189.495,90.880 188.887,91.282 188.786 C 91.685 188.685,92.281 188.293,92.607 187.915 C 92.940 187.529,93.752 187.104,94.460 186.946 C 95.153 186.790,96.091 186.351,96.545 185.970 C 96.998 185.589,97.848 185.201,98.434 185.107 C 100.443 184.787,102.077 184.370,103.012 183.937 C 105.866 182.617,115.206 182.635,117.278 183.965 C 117.608 184.177,119.057 184.567,120.497 184.831 C 122.500 185.200,123.361 185.508,124.160 186.142 C 124.734 186.599,125.541 186.973,125.952 186.973 C 126.763 186.974,128.561 187.942,128.561 188.377 C 128.561 188.525,129.010 188.794,129.559 188.975 C 130.108 189.156,130.789 189.599,131.073 189.960 C 131.357 190.321,131.971 190.815,132.437 191.058 C 133.911 191.826,139.728 198.153,139.728 198.989 C 139.728 199.250,140.099 199.737,140.552 200.072 C 141.073 200.457,141.445 201.052,141.565 201.692 C 141.670 202.248,142.067 203.074,142.449 203.528 C 142.831 203.982,143.290 204.984,143.470 205.756 C 143.650 206.527,144.190 207.996,144.671 209.019 C 145.447 210.670,145.560 211.253,145.677 214.173 C 145.750 215.984,145.927 217.692,146.072 217.968 C 146.321 218.444,149.017 218.466,198.078 218.397 L 249.821 218.325 249.821 194.703 L 249.821 171.081 152.675 171.009 C 75.109 170.951,55.502 171.009,55.393 171.295 M109.234 195.495 C 105.852 195.792,101.224 196.734,100.667 197.240 C 99.855 197.978,98.937 198.425,98.236 198.425 C 97.914 198.425,97.436 198.754,97.172 199.156 C 96.909 199.557,96.330 200.074,95.886 200.304 C 94.794 200.868,91.281 204.545,90.842 205.582 C 90.647 206.042,90.255 206.542,89.971 206.694 C 89.680 206.850,89.291 207.607,89.082 208.423 C 88.877 209.222,88.407 210.321,88.037 210.867 C 86.171 213.616,86.159 224.448,88.018 227.188 C 88.378 227.718,88.841 228.753,89.047 229.488 C 89.252 230.222,89.788 231.190,90.236 231.638 C 90.685 232.087,91.052 232.634,91.052 232.853 C 91.052 233.072,91.471 233.630,91.983 234.093 C 92.495 234.556,93.320 235.408,93.817 235.987 C 94.314 236.565,95.249 237.371,95.893 237.778 C 96.538 238.185,97.065 238.632,97.065 238.770 C 97.065 238.908,97.613 239.238,98.282 239.502 C 98.951 239.766,99.980 240.311,100.569 240.714 C 103.843 242.956,117.580 242.929,119.964 240.675 C 120.362 240.299,121.336 239.781,122.128 239.525 C 123.055 239.225,123.667 238.834,123.846 238.429 C 123.998 238.082,124.371 237.752,124.674 237.695 C 124.977 237.638,125.974 236.799,126.890 235.832 C 127.807 234.865,128.863 233.751,129.238 233.357 C 129.612 232.963,129.997 232.308,130.093 231.901 C 130.188 231.495,130.659 230.668,131.138 230.064 C 131.618 229.461,132.080 228.634,132.165 228.227 C 132.250 227.820,132.384 227.165,132.463 226.772 C 132.542 226.378,132.949 225.347,133.366 224.481 C 134.513 222.103,134.518 215.966,133.374 213.591 C 132.955 212.720,132.532 211.625,132.434 211.158 C 132.082 209.481,131.615 208.160,131.374 208.160 C 130.998 208.160,129.995 206.374,129.994 205.701 C 129.993 205.341,129.707 204.973,129.277 204.777 C 128.883 204.597,128.561 204.317,128.561 204.154 C 128.561 203.687,125.307 200.526,124.592 200.299 C 124.237 200.186,123.835 199.798,123.697 199.436 C 123.512 198.950,123.066 198.687,121.993 198.429 C 121.115 198.219,120.333 197.818,120.019 197.418 C 119.575 196.854,118.927 196.665,115.654 196.150 C 110.865 195.396,110.636 195.372,109.234 195.495 M307.813 196.188 C 305.176 196.644,304.409 196.887,303.908 197.427 C 303.565 197.797,302.776 198.237,302.153 198.404 C 301.531 198.572,300.776 198.981,300.475 199.313 C 300.175 199.645,299.381 200.237,298.712 200.630 C 298.042 201.022,297.495 201.530,297.495 201.758 C 297.495 201.987,297.108 202.394,296.635 202.662 C 296.162 202.930,295.701 203.379,295.611 203.658 C 295.521 203.938,294.946 204.746,294.333 205.454 C 293.720 206.162,293.063 207.263,292.872 207.900 C 292.681 208.537,292.285 209.227,291.992 209.432 C 289.901 210.896,290.050 226.746,292.175 228.870 C 292.581 229.277,292.913 229.810,292.913 230.055 C 292.913 230.658,293.447 231.572,294.530 232.824 C 295.026 233.398,295.509 234.106,295.603 234.399 C 295.698 234.692,296.162 235.151,296.635 235.420 C 297.108 235.688,297.495 236.104,297.495 236.344 C 297.495 236.585,297.986 237.032,298.588 237.339 C 299.189 237.646,299.865 238.119,300.091 238.391 C 300.316 238.663,301.306 239.247,302.291 239.688 C 303.275 240.130,304.080 240.621,304.080 240.779 C 304.080 242.992,321.639 242.786,323.663 240.549 C 323.921 240.264,324.640 239.864,325.261 239.659 C 325.883 239.454,326.769 238.916,327.231 238.465 C 327.693 238.013,328.466 237.506,328.949 237.338 C 329.431 237.169,329.906 236.781,330.003 236.475 C 330.100 236.169,330.498 235.710,330.888 235.455 C 331.278 235.199,331.802 234.591,332.052 234.102 C 332.302 233.614,332.861 232.872,333.294 232.454 C 333.728 232.036,334.244 231.198,334.441 230.593 C 334.639 229.987,335.094 229.139,335.454 228.707 C 337.563 226.174,337.652 211.702,335.571 209.449 C 335.280 209.134,334.771 208.242,334.440 207.467 C 334.108 206.693,333.532 205.776,333.159 205.431 C 332.787 205.086,332.283 204.418,332.039 203.947 C 331.796 203.477,331.278 202.883,330.888 202.627 C 330.498 202.372,330.100 201.912,330.003 201.606 C 329.906 201.300,329.463 200.923,329.018 200.768 C 328.573 200.613,327.807 200.093,327.314 199.611 C 326.822 199.130,325.894 198.579,325.252 198.386 C 324.610 198.194,323.858 197.749,323.582 197.398 C 322.360 195.844,313.670 195.178,307.813 196.188 " stroke="none" fill="#5c5c5c" fill-rule="evenodd"></path><path id="path1" d="M0.000 143.164 L 0.000 286.328 200.000 286.328 L 400.000 286.328 400.000 143.164 L 400.000 0.000 200.000 0.000 L 0.000 0.000 0.000 143.164 M250.707 71.612 C 251.533 72.525,251.567 155.142,250.741 155.967 C 250.253 156.455,245.915 156.482,153.390 156.558 C 52.157 156.642,54.682 156.671,53.329 155.406 L 52.684 154.804 52.684 113.890 C 52.684 85.171,52.776 72.804,52.993 72.399 C 53.766 70.954,48.083 71.033,152.640 71.021 L 250.162 71.009 250.707 71.612 M307.170 92.559 C 308.003 92.790,308.840 93.186,309.031 93.439 C 309.221 93.692,310.206 94.090,311.218 94.323 C 312.450 94.607,313.282 94.989,313.735 95.477 C 314.107 95.878,314.590 96.206,314.809 96.206 C 315.687 96.206,322.978 102.983,322.978 103.799 C 322.978 104.025,323.284 104.411,323.659 104.656 C 324.033 104.901,324.570 105.707,324.852 106.445 C 325.134 107.184,325.650 108.096,325.998 108.472 C 326.429 108.936,326.740 109.824,326.969 111.246 C 327.182 112.568,327.460 113.396,327.723 113.498 C 328.309 113.722,328.620 114.684,328.996 117.439 C 329.175 118.753,329.494 120.021,329.705 120.258 C 330.345 120.975,330.932 122.856,331.265 125.253 C 331.439 126.505,331.755 127.729,331.967 127.973 C 332.765 128.892,333.060 129.839,333.271 132.153 C 333.446 134.071,333.626 134.698,334.193 135.372 C 334.660 135.928,335.018 136.885,335.256 138.215 C 335.554 139.888,335.753 140.324,336.454 140.842 C 336.916 141.184,337.294 141.657,337.294 141.894 C 337.294 142.130,337.723 142.577,338.248 142.887 C 338.772 143.196,339.367 143.759,339.569 144.136 C 339.772 144.515,340.297 144.895,340.740 144.984 C 341.209 145.078,341.621 145.390,341.730 145.734 C 341.833 146.058,342.327 146.497,342.827 146.710 C 343.327 146.923,344.085 147.424,344.511 147.825 C 344.937 148.225,345.806 148.845,346.441 149.202 C 347.076 149.559,347.672 150.091,347.765 150.385 C 347.860 150.685,348.311 150.994,348.795 151.090 C 349.320 151.195,349.777 151.530,349.967 151.946 C 350.139 152.322,350.836 152.877,351.517 153.178 C 352.199 153.479,352.756 153.835,352.756 153.968 C 352.756 154.101,353.470 154.643,354.343 155.172 C 355.217 155.701,356.064 156.383,356.227 156.687 C 356.389 156.991,356.881 157.364,357.320 157.517 C 357.758 157.670,358.262 158.113,358.439 158.501 C 358.616 158.889,359.066 159.346,359.441 159.517 C 359.815 159.687,360.339 160.284,360.606 160.844 C 360.873 161.403,361.386 162.093,361.747 162.377 C 362.235 162.761,362.486 163.396,362.728 164.862 C 362.907 165.946,363.317 167.429,363.639 168.157 C 364.476 170.048,364.413 205.796,363.571 207.080 C 363.298 207.496,362.921 208.779,362.732 209.931 C 362.463 211.569,362.221 212.183,361.621 212.747 C 361.199 213.144,360.761 213.760,360.648 214.115 C 360.536 214.470,360.099 214.983,359.678 215.253 C 359.257 215.524,358.665 216.051,358.363 216.426 C 358.061 216.800,357.393 217.282,356.879 217.496 C 356.365 217.711,355.611 218.195,355.205 218.572 C 354.014 219.676,350.372 220.024,348.757 219.189 C 347.675 218.629,347.417 217.714,347.004 212.965 C 346.670 209.130,346.557 208.693,345.529 207.251 C 345.255 206.866,344.899 205.854,344.737 205.001 C 344.541 203.967,344.215 203.257,343.759 202.870 C 343.383 202.551,342.930 201.840,342.753 201.288 C 342.576 200.737,341.989 199.847,341.450 199.311 C 340.911 198.775,340.392 197.981,340.297 197.548 C 340.186 197.043,339.886 196.701,339.459 196.594 C 339.071 196.497,338.595 196.008,338.317 195.422 C 338.055 194.869,337.657 194.417,337.433 194.417 C 337.208 194.417,336.740 194.031,336.391 193.559 C 336.042 193.087,335.236 192.430,334.599 192.098 C 333.962 191.766,333.287 191.274,333.098 191.004 C 332.909 190.734,332.231 190.341,331.592 190.130 C 330.953 189.919,330.238 189.454,330.005 189.097 C 329.715 188.655,329.066 188.334,327.967 188.088 C 327.080 187.889,325.807 187.364,325.138 186.921 C 322.232 184.996,305.518 184.896,302.661 186.787 C 302.079 187.172,300.775 187.712,299.763 187.986 C 298.604 188.301,297.735 188.728,297.413 189.141 C 297.132 189.502,296.426 189.955,295.845 190.146 C 295.264 190.338,294.562 190.783,294.286 191.134 C 294.009 191.486,293.291 191.970,292.690 192.211 C 292.051 192.466,291.455 192.958,291.256 193.395 C 291.069 193.806,290.603 194.261,290.220 194.406 C 289.837 194.552,289.351 195.031,289.140 195.472 C 288.929 195.912,288.403 196.442,287.972 196.649 C 287.540 196.856,287.187 197.196,287.187 197.404 C 287.187 197.613,286.607 198.530,285.898 199.443 C 285.190 200.356,284.610 201.316,284.610 201.578 C 284.610 201.839,284.240 202.382,283.788 202.785 C 283.189 203.319,282.911 203.895,282.763 204.908 C 282.651 205.673,282.175 206.903,281.706 207.640 C 280.924 208.868,280.816 209.361,280.414 213.510 C 279.990 217.894,279.949 218.064,279.139 218.826 L 278.302 219.613 271.826 219.613 C 265.766 219.613,265.289 219.575,264.386 219.017 L 263.422 218.421 263.422 155.917 C 263.422 100.884,263.473 93.371,263.848 93.059 C 265.232 91.911,265.629 91.892,286.042 92.019 C 302.101 92.118,305.929 92.216,307.170 92.559 M280.387 108.126 C 280.106 108.246,280.029 111.753,280.029 124.285 L 280.029 140.290 280.673 140.448 C 281.558 140.665,318.592 140.488,318.814 140.265 C 318.912 140.167,318.716 139.618,318.378 139.045 C 318.018 138.434,317.605 136.944,317.381 135.440 C 317.121 133.701,316.795 132.603,316.366 132.022 C 315.909 131.405,315.622 130.357,315.333 128.252 C 315.022 125.991,314.803 125.232,314.356 124.871 C 313.922 124.519,313.656 123.659,313.274 121.370 C 312.952 119.444,312.554 118.032,312.183 117.507 C 311.862 117.051,311.377 115.906,311.106 114.961 C 310.760 113.756,310.321 112.974,309.637 112.345 C 309.100 111.851,308.661 111.239,308.661 110.985 C 308.661 110.731,308.462 110.523,308.218 110.523 C 307.559 110.523,306.051 109.701,305.135 108.843 L 304.330 108.089 292.537 108.031 C 286.051 107.999,280.583 108.042,280.387 108.126 M250.232 169.201 C 251.350 170.320,251.393 171.247,251.394 194.784 C 251.396 214.087,251.332 217.781,250.981 218.621 L 250.566 219.613 198.017 219.613 L 145.468 219.613 145.063 218.969 C 144.840 218.615,144.599 217.415,144.526 216.303 C 144.444 215.055,144.202 213.989,143.892 213.517 C 143.617 213.096,143.162 211.409,142.883 209.767 C 142.506 207.551,142.189 206.536,141.652 205.825 C 141.255 205.298,140.805 204.407,140.652 203.845 C 140.500 203.283,139.907 202.210,139.336 201.461 C 138.764 200.712,138.296 199.800,138.296 199.433 C 138.296 198.951,138.060 198.685,137.437 198.468 C 136.851 198.264,136.578 197.978,136.578 197.568 C 136.578 197.203,136.247 196.777,135.734 196.482 C 135.270 196.216,134.759 195.711,134.599 195.360 C 134.440 195.009,133.860 194.428,133.311 194.068 C 132.762 193.709,132.256 193.197,132.186 192.930 C 132.117 192.664,131.607 192.257,131.054 192.026 C 130.501 191.795,129.971 191.363,129.877 191.066 C 129.768 190.725,129.226 190.398,128.401 190.178 C 127.683 189.986,126.787 189.496,126.410 189.089 C 126.031 188.680,125.180 188.226,124.506 188.075 C 123.061 187.750,121.403 187.002,121.403 186.673 C 121.403 185.875,111.828 185.163,106.295 185.550 C 100.811 185.934,99.899 186.098,98.976 186.869 C 98.531 187.241,97.822 187.621,97.401 187.714 C 95.572 188.117,94.587 188.530,93.949 189.160 C 93.573 189.531,92.789 189.962,92.206 190.119 C 91.517 190.305,91.031 190.656,90.819 191.122 C 90.639 191.517,90.264 191.843,89.985 191.846 C 89.143 191.857,83.803 197.292,82.457 199.509 C 82.143 200.026,81.700 200.520,81.471 200.608 C 81.243 200.696,80.861 201.438,80.623 202.258 C 80.385 203.078,79.876 204.043,79.493 204.403 C 79.001 204.866,78.693 205.619,78.444 206.967 C 78.058 209.059,77.848 209.584,77.101 210.331 C 76.695 210.737,76.576 211.538,76.455 214.675 C 76.246 220.087,77.350 219.613,64.950 219.613 C 54.306 219.613,53.698 219.542,52.979 218.198 C 52.784 217.833,52.684 209.870,52.684 194.634 L 52.684 171.622 53.394 170.659 C 53.785 170.130,54.461 169.462,54.898 169.174 C 56.179 168.329,249.387 168.356,250.232 169.201 M116.149 194.027 C 116.676 194.277,117.108 194.588,117.108 194.718 C 117.108 194.848,117.720 195.037,118.468 195.138 C 120.438 195.404,121.706 195.845,121.891 196.327 C 121.980 196.559,122.744 197.054,123.589 197.428 C 124.434 197.802,125.125 198.295,125.125 198.525 C 125.125 198.754,125.482 199.066,125.919 199.218 C 126.791 199.522,129.420 202.044,129.420 202.576 C 129.420 202.759,129.736 203.078,130.121 203.285 C 130.507 203.491,131.009 204.125,131.238 204.693 C 131.467 205.262,131.988 206.037,132.395 206.417 C 132.912 206.900,133.191 207.529,133.320 208.504 C 133.441 209.414,133.683 209.994,134.017 210.173 C 135.055 210.729,135.289 212.306,135.289 218.754 C 135.290 225.592,135.134 226.824,134.163 227.668 C 133.717 228.056,133.437 228.697,133.316 229.606 C 133.185 230.597,132.904 231.188,132.280 231.785 C 131.810 232.236,131.424 232.787,131.424 233.010 C 131.424 233.232,130.974 233.865,130.422 234.417 C 129.871 234.968,129.420 235.513,129.420 235.629 C 129.420 236.066,126.679 238.598,125.919 238.863 C 125.482 239.015,125.125 239.317,125.125 239.534 C 125.125 239.942,123.723 240.802,123.056 240.802 C 122.847 240.802,122.357 241.163,121.968 241.604 C 121.404 242.243,120.836 242.482,119.184 242.775 C 118.042 242.978,117.108 243.248,117.108 243.374 C 117.108 244.971,105.974 245.199,103.855 243.645 C 103.417 243.323,102.257 242.928,101.278 242.767 C 99.915 242.542,99.332 242.287,98.783 241.677 C 98.376 241.223,97.629 240.801,97.049 240.695 C 96.395 240.576,95.633 240.102,94.915 239.368 C 94.301 238.739,93.628 238.225,93.418 238.225 C 93.209 238.225,92.775 237.780,92.453 237.235 C 92.132 236.691,91.654 236.177,91.389 236.092 C 91.125 236.007,90.563 235.390,90.140 234.719 C 89.716 234.049,89.107 233.218,88.785 232.874 C 88.463 232.529,88.084 231.731,87.942 231.100 C 87.799 230.464,87.350 229.658,86.935 229.292 C 86.288 228.722,86.132 228.235,85.783 225.688 C 85.561 224.068,85.206 222.535,84.995 222.280 C 84.460 221.636,84.460 216.446,84.995 215.802 C 85.206 215.547,85.564 214.015,85.790 212.399 C 86.145 209.859,86.312 209.341,87.018 208.595 C 87.467 208.120,87.917 207.265,88.017 206.696 C 88.118 206.128,88.454 205.432,88.764 205.152 C 89.074 204.871,89.729 204.016,90.220 203.251 C 90.711 202.487,91.279 201.861,91.483 201.861 C 91.688 201.861,92.121 201.410,92.446 200.859 C 92.771 200.308,93.203 199.857,93.405 199.857 C 93.607 199.856,94.264 199.349,94.865 198.730 C 95.466 198.110,96.345 197.518,96.819 197.414 C 97.293 197.310,98.117 196.842,98.650 196.373 C 99.381 195.732,100.057 195.460,101.385 195.272 C 102.557 195.106,103.374 194.811,103.822 194.390 C 105.059 193.228,113.914 192.966,116.149 194.027 M317.337 193.536 C 318.975 193.708,319.738 193.928,320.200 194.362 C 320.593 194.731,321.525 195.066,322.677 195.251 C 323.981 195.461,324.705 195.743,325.138 196.211 C 325.476 196.575,326.303 197.054,326.975 197.276 C 327.667 197.504,328.463 198.037,328.805 198.501 C 329.139 198.952,329.833 199.521,330.347 199.765 C 330.861 200.009,331.281 200.393,331.281 200.619 C 331.281 200.844,331.671 201.248,332.148 201.517 C 332.625 201.785,333.090 202.296,333.182 202.652 C 333.274 203.008,333.712 203.558,334.156 203.873 C 334.599 204.189,335.121 204.929,335.314 205.517 C 335.508 206.105,336.021 207.037,336.455 207.588 C 336.928 208.188,337.381 209.271,337.587 210.291 C 337.776 211.226,338.191 212.345,338.511 212.776 C 339.346 213.907,339.763 218.210,339.383 221.780 C 339.174 223.744,338.927 224.742,338.511 225.305 C 338.191 225.737,337.779 226.816,337.595 227.702 C 337.411 228.588,336.950 229.740,336.569 230.262 C 335.882 231.203,335.548 231.836,335.009 233.219 C 334.854 233.616,334.403 234.063,334.007 234.214 C 333.610 234.365,333.286 234.699,333.286 234.956 C 333.286 235.468,330.384 238.511,329.895 238.511 C 329.729 238.511,329.259 238.948,328.852 239.482 C 328.339 240.155,327.731 240.548,326.869 240.765 C 326.125 240.953,325.452 241.345,325.191 241.744 C 324.859 242.250,324.294 242.495,322.836 242.763 C 321.780 242.958,320.559 243.382,320.121 243.705 C 318.126 245.181,308.071 245.023,307.158 243.502 C 307.041 243.305,306.029 242.990,304.911 242.801 C 303.402 242.547,302.726 242.283,302.288 241.780 C 301.964 241.408,301.236 240.960,300.670 240.785 C 300.105 240.610,299.320 240.108,298.926 239.670 C 298.533 239.232,297.785 238.656,297.265 238.391 C 296.745 238.125,296.224 237.651,296.108 237.335 C 295.991 237.020,295.585 236.607,295.204 236.417 C 294.824 236.228,294.437 235.752,294.345 235.359 C 294.253 234.967,293.847 234.486,293.443 234.291 C 292.968 234.062,292.528 233.455,292.200 232.573 C 291.921 231.823,291.386 230.879,291.011 230.474 C 290.585 230.015,290.180 229.031,289.934 227.857 C 289.718 226.822,289.237 225.564,288.865 225.061 C 287.854 223.694,287.819 214.436,288.820 213.081 C 289.167 212.612,289.656 211.346,289.906 210.269 C 290.175 209.108,290.631 208.017,291.026 207.591 C 291.393 207.196,291.923 206.253,292.205 205.496 C 292.545 204.582,292.984 203.982,293.511 203.710 C 293.947 203.484,294.346 203.011,294.396 202.659 C 294.447 202.307,294.805 201.861,295.192 201.669 C 295.579 201.477,295.991 201.062,296.108 200.746 C 296.224 200.431,296.733 199.960,297.237 199.699 C 297.742 199.438,298.449 198.875,298.809 198.447 C 299.168 198.020,299.995 197.494,300.647 197.279 C 301.298 197.064,301.994 196.655,302.194 196.369 C 302.614 195.770,303.648 195.395,305.600 195.134 C 306.357 195.032,307.044 194.775,307.125 194.562 C 307.528 193.514,312.430 193.022,317.337 193.536 " stroke="none" fill="#fbfbfb" fill-rule="evenodd"></path><path id="path2" d="M55.047 72.061 L 54.402 72.511 54.402 113.663 C 54.402 153.166,54.423 154.834,54.926 155.288 C 55.607 155.905,249.577 156.035,250.193 155.419 C 250.850 154.762,250.673 72.653,250.013 72.056 C 249.228 71.346,56.065 71.351,55.047 72.061 M249.894 113.744 L 249.966 155.190 152.614 155.190 L 55.261 155.190 55.261 113.863 C 55.261 91.133,55.347 72.450,55.453 72.345 C 55.558 72.240,99.334 72.186,152.732 72.226 L 249.821 72.298 249.894 113.744 M265.336 93.284 C 264.824 93.850,264.564 217.305,265.072 218.067 C 265.621 218.888,266.676 219.041,271.811 219.041 C 277.906 219.041,278.597 218.817,278.597 216.842 C 278.597 216.286,278.792 215.079,279.030 214.160 C 279.268 213.241,279.648 211.419,279.875 210.110 C 280.105 208.778,280.662 206.974,281.140 206.013 C 281.610 205.068,282.215 203.747,282.486 203.078 C 282.757 202.409,283.068 201.861,283.177 201.861 C 283.286 201.861,283.680 201.249,284.054 200.501 C 285.654 197.300,291.792 191.122,295.116 189.367 C 295.873 188.967,296.750 188.405,297.065 188.117 C 297.380 187.829,298.379 187.380,299.284 187.120 C 300.190 186.859,300.931 186.546,300.931 186.425 C 300.931 186.109,302.277 185.540,303.027 185.540 C 303.378 185.540,305.248 185.154,307.183 184.681 C 311.816 183.550,315.890 183.493,319.557 184.507 C 320.904 184.880,322.708 185.277,323.566 185.390 C 324.424 185.503,325.641 185.887,326.271 186.245 C 326.901 186.602,327.922 187.059,328.540 187.259 C 329.648 187.617,332.075 189.037,334.261 190.607 C 334.877 191.049,335.592 191.539,335.850 191.696 C 336.666 192.194,341.041 196.816,341.475 197.638 C 341.703 198.071,342.020 198.425,342.179 198.425 C 342.338 198.425,342.724 199.022,343.037 199.751 C 343.349 200.480,343.913 201.443,344.290 201.891 C 344.667 202.339,345.133 203.192,345.326 203.787 C 345.518 204.381,346.035 205.576,346.473 206.442 C 346.915 207.315,347.477 209.167,347.734 210.594 C 349.406 219.899,349.537 220.022,354.941 217.378 C 358.050 215.857,360.362 213.455,361.884 210.165 C 362.444 208.955,362.753 169.048,362.225 166.192 C 361.952 164.713,359.824 160.928,358.856 160.200 C 358.647 160.043,357.994 159.492,357.405 158.977 C 354.999 156.870,353.961 156.049,353.703 156.049 C 353.554 156.049,352.878 155.575,352.201 154.995 C 351.524 154.415,350.607 153.675,350.164 153.349 C 349.721 153.023,348.609 152.176,347.693 151.467 C 346.777 150.759,345.512 149.826,344.882 149.395 C 344.252 148.964,343.201 148.191,342.545 147.677 C 341.890 147.163,340.666 146.206,339.825 145.550 C 337.125 143.443,335.247 141.245,334.727 139.585 C 334.529 138.955,334.133 138.028,333.846 137.525 C 333.559 137.022,333.063 135.409,332.745 133.941 C 332.427 132.473,331.903 130.675,331.581 129.946 C 331.258 129.217,330.794 127.609,330.549 126.372 C 330.305 125.135,329.778 123.374,329.380 122.459 C 328.982 121.543,328.538 119.960,328.394 118.941 C 328.249 117.922,327.825 116.481,327.450 115.738 C 327.076 114.995,326.680 113.808,326.571 113.099 C 326.350 111.663,323.693 105.927,323.082 105.569 C 322.867 105.443,322.483 104.937,322.228 104.444 C 320.624 101.342,313.101 95.633,309.329 94.656 C 308.382 94.410,306.974 93.918,306.201 93.561 L 304.796 92.913 285.307 92.832 C 266.609 92.755,265.798 92.773,265.336 93.284 M305.369 94.127 C 305.999 94.474,307.478 94.959,308.656 95.205 C 310.085 95.504,311.039 95.882,311.519 96.339 C 311.916 96.716,312.801 97.194,313.486 97.402 C 314.225 97.627,314.961 98.101,315.295 98.568 C 315.605 99.001,316.052 99.356,316.288 99.356 C 316.665 99.356,317.485 100.130,320.998 103.808 C 321.457 104.289,321.832 104.898,321.832 105.162 C 321.832 105.426,322.147 105.848,322.532 106.100 C 322.981 106.395,323.445 107.197,323.824 108.337 C 324.149 109.314,324.651 110.316,324.940 110.563 C 325.246 110.826,325.608 111.771,325.811 112.843 C 326.274 115.285,326.686 116.580,327.182 117.149 C 327.408 117.408,327.816 118.896,328.089 120.456 C 328.385 122.143,328.844 123.709,329.222 124.321 C 329.632 124.984,329.963 126.191,330.155 127.717 C 330.349 129.262,330.688 130.491,331.134 131.255 C 331.527 131.931,332.003 133.507,332.258 134.979 C 332.545 136.631,332.945 137.895,333.392 138.559 C 333.772 139.123,334.232 140.055,334.413 140.631 C 334.750 141.699,338.621 146.027,339.240 146.027 C 339.419 146.027,340.017 146.478,340.568 147.029 C 341.119 147.581,341.759 148.031,341.990 148.031 C 342.220 148.031,342.684 148.418,343.021 148.890 C 343.357 149.363,343.794 149.749,343.990 149.749 C 344.187 149.749,344.855 150.208,345.474 150.769 C 346.093 151.330,347.051 152.029,347.602 152.321 C 348.153 152.613,348.836 153.130,349.119 153.468 C 349.403 153.807,350.002 154.212,350.451 154.369 C 350.900 154.525,351.332 154.901,351.411 155.204 C 351.490 155.507,351.905 155.889,352.333 156.051 C 352.761 156.214,353.697 156.863,354.413 157.493 C 355.129 158.123,355.984 158.706,356.314 158.789 C 356.643 158.872,357.132 159.321,357.400 159.787 C 357.667 160.254,358.214 160.760,358.614 160.912 C 359.014 161.064,359.341 161.400,359.341 161.658 C 359.341 162.192,360.495 164.352,360.780 164.352 C 361.695 164.352,361.774 165.857,361.869 185.111 C 361.986 208.689,361.968 209.018,360.462 211.021 C 359.846 211.841,359.341 212.754,359.341 213.049 C 359.341 213.358,358.971 213.778,358.470 214.036 C 357.991 214.284,357.457 214.799,357.283 215.180 C 357.068 215.651,356.499 216.027,355.506 216.353 C 354.702 216.617,353.439 217.146,352.700 217.529 C 350.295 218.775,349.719 218.273,349.640 214.860 C 349.618 213.893,349.358 212.932,348.871 212.016 C 348.402 211.135,348.049 209.867,347.899 208.525 C 347.728 206.999,347.460 206.124,346.928 205.356 C 346.524 204.772,345.991 203.719,345.743 203.015 C 345.495 202.310,345.053 201.473,344.761 201.153 C 344.469 200.834,343.944 200.002,343.593 199.304 C 343.243 198.606,342.708 197.833,342.405 197.586 C 342.101 197.339,341.695 196.815,341.501 196.421 C 341.308 196.027,340.865 195.579,340.518 195.426 C 340.171 195.272,339.741 194.793,339.562 194.362 C 339.383 193.930,338.996 193.500,338.702 193.407 C 338.409 193.314,337.900 192.861,337.573 192.402 C 337.246 191.942,336.534 191.355,335.991 191.098 C 335.448 190.840,335.004 190.474,335.004 190.285 C 335.004 189.937,333.031 188.690,332.481 188.690 C 332.318 188.690,331.798 188.304,331.325 187.831 C 330.847 187.353,330.161 186.972,329.778 186.972 C 329.399 186.972,328.519 186.598,327.823 186.140 C 326.972 185.581,325.772 185.162,324.165 184.862 C 322.849 184.616,321.607 184.278,321.405 184.111 C 319.686 182.684,309.306 182.588,306.568 183.974 C 306.066 184.228,304.642 184.617,303.404 184.837 C 302.166 185.058,300.749 185.497,300.255 185.813 C 299.034 186.593,298.356 186.901,297.414 187.103 C 296.975 187.197,296.395 187.537,296.125 187.857 C 295.855 188.178,295.016 188.708,294.262 189.035 C 293.508 189.362,292.767 189.861,292.615 190.144 C 292.464 190.427,291.825 190.948,291.195 191.302 C 290.565 191.656,290.050 192.113,290.050 192.318 C 290.050 192.524,289.535 193.017,288.905 193.414 C 288.275 193.812,287.759 194.332,287.759 194.570 C 287.759 194.809,287.441 195.125,287.052 195.273 C 286.649 195.426,286.162 195.978,285.921 196.554 C 285.688 197.111,285.368 197.566,285.210 197.566 C 285.051 197.566,284.398 198.462,283.759 199.556 C 283.120 200.651,282.480 201.619,282.337 201.707 C 282.194 201.796,281.854 202.540,281.581 203.361 C 281.308 204.183,280.901 205.039,280.676 205.263 C 280.099 205.840,279.850 206.617,279.610 208.590 C 279.495 209.535,279.101 210.952,278.735 211.739 C 278.320 212.634,277.995 214.030,277.870 215.462 C 277.760 216.722,277.540 217.913,277.382 218.110 C 277.080 218.487,267.094 218.651,266.165 218.294 C 265.685 218.110,265.436 94.001,265.914 93.522 C 266.525 92.912,304.209 93.489,305.369 94.127 M279.707 106.258 C 278.933 106.599,278.250 107.136,278.061 107.550 C 277.660 108.431,277.602 139.906,278.000 140.952 C 278.720 142.846,279.078 142.878,300.000 142.878 L 318.862 142.878 319.671 142.033 C 320.746 140.911,320.647 137.962,319.472 136.135 C 318.977 135.366,318.641 134.269,318.424 132.713 C 318.239 131.395,317.802 129.835,317.393 129.039 C 317.002 128.279,316.548 126.797,316.385 125.747 C 316.016 123.382,315.587 121.977,315.043 121.354 C 314.814 121.090,314.428 119.673,314.185 118.204 C 313.892 116.423,313.558 115.328,313.183 114.916 C 312.874 114.577,312.464 113.843,312.273 113.285 C 311.884 112.155,309.182 109.091,308.574 109.091 C 308.359 109.091,307.849 108.715,307.440 108.256 C 306.894 107.643,306.254 107.332,305.030 107.086 C 304.114 106.901,302.849 106.624,302.219 106.470 C 301.589 106.316,300.558 106.075,299.928 105.935 C 297.346 105.360,281.156 105.618,279.707 106.258 M302.244 107.205 C 306.411 107.763,310.497 110.625,311.782 113.885 C 312.078 114.635,312.588 115.704,312.917 116.261 C 313.245 116.817,313.646 118.207,313.808 119.348 C 313.970 120.490,314.409 122.031,314.783 122.773 C 315.157 123.516,315.621 125.068,315.815 126.223 C 316.008 127.379,316.471 129.074,316.844 129.992 C 317.217 130.909,317.775 132.820,318.084 134.239 C 318.394 135.657,318.913 137.338,319.238 137.975 C 319.930 139.332,319.986 140.262,319.422 141.033 C 319.028 141.572,318.446 141.592,300.596 141.677 C 280.662 141.771,280.013 141.743,278.991 140.720 L 278.311 140.040 278.311 124.334 C 278.311 107.092,278.232 107.857,280.068 107.192 C 281.473 106.684,298.425 106.694,302.244 107.205 M55.025 170.741 L 54.402 171.404 54.402 194.760 L 54.402 218.116 55.108 218.578 C 56.010 219.169,72.462 219.246,74.159 218.667 L 75.161 218.325 75.619 214.460 C 76.177 209.746,76.353 208.929,77.077 207.703 C 77.388 207.175,77.817 206.083,78.030 205.276 C 78.243 204.468,78.614 203.591,78.854 203.325 C 79.094 203.060,79.557 202.240,79.883 201.505 C 80.208 200.769,80.610 200.083,80.776 199.980 C 80.942 199.878,81.503 199.131,82.021 198.322 C 83.006 196.786,87.623 191.840,88.073 191.839 C 88.216 191.839,88.783 191.445,89.334 190.964 C 89.885 190.483,90.723 189.888,91.195 189.642 C 91.668 189.396,92.474 188.881,92.987 188.497 C 93.500 188.113,94.651 187.547,95.544 187.240 C 96.437 186.933,97.379 186.491,97.636 186.258 C 97.893 186.025,99.190 185.630,100.519 185.380 C 101.848 185.129,103.834 184.676,104.933 184.373 C 107.698 183.611,112.793 183.611,115.458 184.374 C 116.518 184.677,118.386 185.078,119.609 185.266 C 120.914 185.467,122.246 185.871,122.835 186.245 C 123.386 186.596,124.352 187.047,124.982 187.248 C 125.612 187.449,126.793 188.049,127.608 188.581 C 128.422 189.114,129.211 189.549,129.362 189.549 C 129.513 189.549,129.813 189.762,130.029 190.022 C 130.245 190.282,131.066 190.975,131.854 191.561 C 134.283 193.369,138.182 197.506,139.267 199.427 C 139.534 199.900,140.073 200.730,140.464 201.271 C 140.856 201.813,141.254 202.586,141.349 202.989 C 141.444 203.392,141.810 204.112,142.164 204.587 C 142.517 205.063,143.066 206.416,143.383 207.594 C 143.700 208.772,144.172 210.300,144.432 210.991 C 144.693 211.681,144.973 213.292,145.055 214.570 C 145.246 217.527,145.354 218.040,145.905 218.591 C 146.658 219.344,249.381 219.271,250.063 218.517 C 250.834 217.666,250.786 171.252,250.013 170.553 C 249.528 170.114,242.353 170.079,152.569 170.079 L 55.647 170.079 55.025 170.741 M249.821 194.703 L 249.821 218.325 198.078 218.397 C 149.017 218.466,146.321 218.444,146.072 217.968 C 145.927 217.692,145.750 215.984,145.677 214.173 C 145.560 211.253,145.447 210.670,144.671 209.019 C 144.190 207.996,143.650 206.527,143.470 205.756 C 143.290 204.984,142.831 203.982,142.449 203.528 C 142.067 203.074,141.670 202.248,141.565 201.692 C 141.445 201.052,141.073 200.457,140.552 200.072 C 140.099 199.737,139.728 199.250,139.728 198.989 C 139.728 198.153,133.911 191.826,132.437 191.058 C 131.971 190.815,131.357 190.321,131.073 189.960 C 130.789 189.599,130.108 189.156,129.559 188.975 C 129.010 188.794,128.561 188.525,128.561 188.377 C 128.561 187.942,126.763 186.974,125.952 186.973 C 125.541 186.973,124.734 186.599,124.160 186.142 C 123.361 185.508,122.500 185.200,120.497 184.831 C 119.057 184.567,117.608 184.177,117.278 183.965 C 115.206 182.635,105.866 182.617,103.012 183.937 C 102.077 184.370,100.443 184.787,98.434 185.107 C 97.848 185.201,96.998 185.589,96.545 185.970 C 96.091 186.351,95.153 186.790,94.460 186.946 C 93.752 187.104,92.940 187.529,92.607 187.915 C 92.281 188.293,91.685 188.685,91.282 188.786 C 90.880 188.887,89.922 189.495,89.155 190.137 C 88.387 190.779,87.405 191.493,86.972 191.723 C 86.539 191.953,86.185 192.327,86.185 192.555 C 86.185 192.784,85.802 193.168,85.334 193.410 C 84.866 193.652,84.335 194.128,84.153 194.469 C 83.970 194.809,83.447 195.403,82.988 195.788 C 82.530 196.174,81.949 196.893,81.697 197.386 C 81.444 197.879,80.869 198.705,80.418 199.223 C 79.968 199.740,79.599 200.417,79.599 200.728 C 79.599 201.038,79.275 201.574,78.879 201.918 C 78.424 202.314,77.938 203.289,77.558 204.565 C 77.228 205.676,76.862 206.650,76.744 206.729 C 76.208 207.087,75.614 208.785,75.436 210.469 C 75.033 214.284,74.448 217.721,74.151 218.018 C 73.946 218.224,70.807 218.325,64.624 218.325 L 55.404 218.325 55.330 194.989 C 55.290 182.155,55.318 171.492,55.393 171.295 C 55.502 171.009,75.109 170.951,152.675 171.009 L 249.821 171.081 249.821 194.703 M106.657 194.835 C 105.870 195.045,104.239 195.433,103.033 195.698 C 101.662 196.000,100.286 196.538,99.360 197.134 C 98.545 197.659,97.503 198.244,97.043 198.434 C 96.583 198.625,96.206 198.877,96.206 198.995 C 96.206 199.112,95.659 199.570,94.989 200.012 C 92.805 201.456,89.328 205.857,88.286 208.496 C 88.017 209.178,87.564 210.057,87.280 210.451 C 86.458 211.591,86.143 213.971,86.143 219.041 C 86.143 224.110,86.458 226.491,87.280 227.631 C 87.564 228.024,88.015 228.900,88.282 229.577 C 89.742 233.276,94.430 238.300,98.229 240.238 C 98.918 240.590,99.807 241.118,100.206 241.413 C 100.604 241.708,101.832 242.127,102.935 242.346 C 104.037 242.565,105.707 242.951,106.646 243.204 C 108.796 243.785,112.014 243.796,113.841 243.229 C 114.614 242.989,116.213 242.603,117.394 242.371 C 118.576 242.138,119.905 241.680,120.348 241.352 C 120.791 241.025,121.632 240.542,122.217 240.278 C 125.545 238.780,131.231 232.568,132.570 228.968 C 132.756 228.469,133.227 227.269,133.617 226.301 C 134.965 222.957,135.228 216.241,134.127 213.257 C 133.877 212.580,133.402 211.253,133.070 210.308 C 132.739 209.363,132.040 207.932,131.517 207.129 C 130.994 206.325,130.565 205.550,130.565 205.407 C 130.565 205.180,126.593 201.059,124.540 199.157 C 124.140 198.786,123.302 198.270,122.679 198.011 C 122.056 197.752,121.095 197.230,120.544 196.851 C 119.984 196.467,118.404 195.907,116.965 195.584 C 115.548 195.266,113.938 194.873,113.388 194.711 C 112.015 194.307,108.391 194.374,106.657 194.835 M310.236 194.835 C 309.449 195.045,307.804 195.436,306.582 195.705 C 305.358 195.974,303.879 196.522,303.289 196.924 C 302.701 197.326,301.700 197.886,301.066 198.168 C 300.432 198.451,299.604 199.011,299.227 199.412 C 298.849 199.814,298.423 200.143,298.279 200.143 C 297.622 200.143,293.365 205.119,292.737 206.620 C 292.497 207.195,292.040 208.018,291.721 208.449 C 288.853 212.328,288.727 225.198,291.518 229.139 C 291.827 229.575,292.336 230.531,292.650 231.264 C 293.819 233.990,298.321 238.482,301.489 240.082 C 302.348 240.515,303.378 241.112,303.780 241.409 C 304.181 241.706,305.412 242.127,306.514 242.346 C 307.616 242.565,309.286 242.951,310.225 243.204 C 312.355 243.779,315.194 243.789,317.251 243.229 C 318.117 242.993,319.784 242.598,320.955 242.351 C 322.190 242.091,323.572 241.573,324.247 241.117 C 324.888 240.685,325.819 240.169,326.318 239.970 C 326.816 239.770,327.718 239.167,328.322 238.630 C 328.926 238.092,329.553 237.652,329.716 237.652 C 329.879 237.652,330.241 237.266,330.520 236.793 C 330.799 236.321,331.137 235.934,331.271 235.934 C 331.660 235.934,334.439 232.262,334.919 231.114 C 335.159 230.539,335.663 229.704,336.038 229.257 C 336.414 228.811,336.722 228.148,336.722 227.784 C 336.722 227.420,337.060 225.980,337.474 224.585 C 338.076 222.550,338.226 221.451,338.226 219.041 C 338.226 216.630,338.076 215.531,337.474 213.497 C 337.060 212.101,336.722 210.662,336.722 210.298 C 336.722 209.934,336.418 209.272,336.047 208.827 C 335.675 208.381,335.116 207.437,334.804 206.729 C 334.195 205.349,333.635 204.604,331.496 202.333 C 330.748 201.539,330.136 200.806,330.136 200.705 C 330.136 200.604,329.796 200.366,329.380 200.177 C 328.965 199.988,328.400 199.548,328.126 199.199 C 327.852 198.850,327.129 198.386,326.520 198.168 C 325.910 197.950,324.896 197.421,324.266 196.993 C 321.626 195.198,313.544 193.955,310.236 194.835 M115.654 196.150 C 118.927 196.665,119.575 196.854,120.019 197.418 C 120.333 197.818,121.115 198.219,121.993 198.429 C 123.066 198.687,123.512 198.950,123.697 199.436 C 123.835 199.798,124.237 200.186,124.592 200.299 C 125.307 200.526,128.561 203.687,128.561 204.154 C 128.561 204.317,128.883 204.597,129.277 204.777 C 129.707 204.973,129.993 205.341,129.994 205.701 C 129.995 206.374,130.998 208.160,131.374 208.160 C 131.615 208.160,132.082 209.481,132.434 211.158 C 132.532 211.625,132.955 212.720,133.374 213.591 C 134.518 215.966,134.513 222.103,133.366 224.481 C 132.949 225.347,132.542 226.378,132.463 226.772 C 132.384 227.165,132.250 227.820,132.165 228.227 C 132.080 228.634,131.618 229.461,131.138 230.064 C 130.659 230.668,130.188 231.495,130.093 231.901 C 129.997 232.308,129.612 232.963,129.238 233.357 C 128.863 233.751,127.807 234.865,126.890 235.832 C 125.974 236.799,124.977 237.638,124.674 237.695 C 124.371 237.752,123.998 238.082,123.846 238.429 C 123.667 238.834,123.055 239.225,122.128 239.525 C 121.336 239.781,120.362 240.299,119.964 240.675 C 117.580 242.929,103.843 242.956,100.569 240.714 C 99.980 240.311,98.951 239.766,98.282 239.502 C 97.613 239.238,97.065 238.908,97.065 238.770 C 97.065 238.632,96.538 238.185,95.893 237.778 C 95.249 237.371,94.314 236.565,93.817 235.987 C 93.320 235.408,92.495 234.556,91.983 234.093 C 91.471 233.630,91.052 233.072,91.052 232.853 C 91.052 232.634,90.685 232.087,90.236 231.638 C 89.788 231.190,89.252 230.222,89.047 229.488 C 88.841 228.753,88.378 227.718,88.018 227.188 C 86.159 224.448,86.171 213.616,88.037 210.867 C 88.407 210.321,88.877 209.222,89.082 208.423 C 89.291 207.607,89.680 206.850,89.971 206.694 C 90.255 206.542,90.647 206.042,90.842 205.582 C 91.281 204.545,94.794 200.868,95.886 200.304 C 96.330 200.074,96.909 199.557,97.172 199.156 C 97.436 198.754,97.914 198.425,98.236 198.425 C 98.937 198.425,99.855 197.978,100.667 197.240 C 101.078 196.867,102.315 196.529,104.675 196.148 C 110.312 195.236,109.851 195.236,115.654 196.150 M319.489 196.161 C 322.443 196.653,323.169 196.873,323.582 197.398 C 323.858 197.749,324.610 198.194,325.252 198.386 C 325.894 198.579,326.822 199.130,327.314 199.611 C 327.807 200.093,328.573 200.613,329.018 200.768 C 329.463 200.923,329.906 201.300,330.003 201.606 C 330.100 201.912,330.498 202.372,330.888 202.627 C 331.278 202.883,331.796 203.477,332.039 203.947 C 332.283 204.418,332.787 205.086,333.159 205.431 C 333.532 205.776,334.108 206.693,334.440 207.467 C 334.771 208.242,335.280 209.134,335.571 209.449 C 337.652 211.702,337.563 226.174,335.454 228.707 C 335.094 229.139,334.639 229.987,334.441 230.593 C 334.244 231.198,333.728 232.036,333.294 232.454 C 332.861 232.872,332.302 233.614,332.052 234.102 C 331.802 234.591,331.278 235.199,330.888 235.455 C 330.498 235.710,330.100 236.169,330.003 236.475 C 329.906 236.781,329.431 237.169,328.949 237.338 C 328.466 237.506,327.693 238.013,327.231 238.465 C 326.769 238.916,325.883 239.454,325.261 239.659 C 324.640 239.864,323.921 240.264,323.663 240.549 C 321.639 242.786,304.080 242.992,304.080 240.779 C 304.080 240.621,303.275 240.130,302.291 239.688 C 301.306 239.247,300.316 238.663,300.091 238.391 C 299.865 238.119,299.189 237.646,298.588 237.339 C 297.986 237.032,297.495 236.585,297.495 236.344 C 297.495 236.104,297.108 235.688,296.635 235.420 C 296.162 235.151,295.698 234.692,295.603 234.399 C 295.509 234.106,295.026 233.398,294.530 232.824 C 293.447 231.572,292.913 230.658,292.913 230.055 C 292.913 229.810,292.581 229.277,292.175 228.870 C 290.050 226.746,289.901 210.896,291.992 209.432 C 292.285 209.227,292.681 208.537,292.872 207.900 C 293.063 207.263,293.720 206.162,294.333 205.454 C 294.946 204.746,295.521 203.938,295.611 203.658 C 295.701 203.379,296.162 202.930,296.635 202.662 C 297.108 202.394,297.495 201.987,297.495 201.758 C 297.495 201.530,298.042 201.022,298.712 200.630 C 299.381 200.237,300.175 199.645,300.475 199.313 C 300.776 198.981,301.531 198.572,302.153 198.404 C 302.776 198.237,303.565 197.797,303.908 197.427 C 305.379 195.840,313.571 195.174,319.489 196.161 " stroke="none" fill="#a4a4a4" fill-rule="evenodd"></path><path id="path3" d="M54.210 71.427 C 52.611 72.122,52.684 70.079,52.684 113.890 L 52.684 154.804 53.329 155.406 C 54.682 156.671,52.157 156.642,153.390 156.558 C 245.915 156.482,250.253 156.455,250.741 155.967 C 251.567 155.142,251.533 72.525,250.707 71.612 L 250.162 71.009 152.640 71.021 C 70.388 71.030,54.976 71.094,54.210 71.427 M250.544 72.316 C 251.072 73.705,250.910 154.652,250.377 155.412 L 249.932 156.049 152.730 156.049 C 63.733 156.049,55.468 156.010,54.822 155.586 L 54.116 155.124 54.116 113.877 C 54.116 75.897,54.154 72.588,54.590 72.106 C 55.047 71.600,58.474 71.582,152.664 71.582 L 250.265 71.582 250.544 72.316 M265.352 92.301 C 264.760 92.523,264.083 92.864,263.848 93.059 C 263.473 93.371,263.422 100.884,263.422 155.917 L 263.422 218.421 264.386 219.017 C 265.289 219.575,265.766 219.613,271.826 219.613 L 278.302 219.613 279.139 218.826 C 279.949 218.064,279.990 217.894,280.414 213.510 C 280.816 209.361,280.924 208.868,281.706 207.640 C 282.175 206.903,282.651 205.673,282.763 204.908 C 282.911 203.895,283.189 203.319,283.788 202.785 C 284.240 202.382,284.610 201.839,284.610 201.578 C 284.610 201.316,285.190 200.356,285.898 199.443 C 286.607 198.530,287.187 197.613,287.187 197.404 C 287.187 197.196,287.540 196.856,287.972 196.649 C 288.403 196.442,288.929 195.912,289.140 195.472 C 289.351 195.031,289.837 194.552,290.220 194.406 C 290.603 194.261,291.069 193.806,291.256 193.395 C 291.455 192.958,292.051 192.466,292.690 192.211 C 293.291 191.970,294.009 191.486,294.286 191.134 C 294.562 190.783,295.264 190.338,295.845 190.146 C 296.426 189.955,297.132 189.502,297.413 189.141 C 297.735 188.728,298.604 188.301,299.763 187.986 C 300.775 187.712,302.079 187.172,302.661 186.787 C 305.518 184.896,322.232 184.996,325.138 186.921 C 325.807 187.364,327.080 187.889,327.967 188.088 C 329.066 188.334,329.715 188.655,330.005 189.097 C 330.238 189.454,330.953 189.919,331.592 190.130 C 332.231 190.341,332.909 190.734,333.098 191.004 C 333.287 191.274,333.962 191.766,334.599 192.098 C 335.236 192.430,336.042 193.087,336.391 193.559 C 336.740 194.031,337.208 194.417,337.433 194.417 C 337.657 194.417,338.055 194.869,338.317 195.422 C 338.595 196.008,339.071 196.497,339.459 196.594 C 339.886 196.701,340.186 197.043,340.297 197.548 C 340.392 197.981,340.911 198.775,341.450 199.311 C 341.989 199.847,342.576 200.737,342.753 201.288 C 342.930 201.840,343.383 202.551,343.759 202.870 C 344.215 203.257,344.541 203.967,344.737 205.001 C 344.899 205.854,345.255 206.866,345.529 207.251 C 346.557 208.693,346.670 209.130,347.004 212.965 C 347.417 217.714,347.675 218.629,348.757 219.189 C 350.372 220.024,354.014 219.676,355.205 218.572 C 355.611 218.195,356.365 217.711,356.879 217.496 C 357.393 217.282,358.061 216.800,358.363 216.426 C 358.665 216.051,359.257 215.524,359.678 215.253 C 360.099 214.983,360.536 214.470,360.648 214.115 C 360.761 213.760,361.199 213.144,361.621 212.747 C 362.221 212.183,362.463 211.569,362.732 209.931 C 362.921 208.779,363.298 207.496,363.571 207.080 C 364.413 205.796,364.476 170.048,363.639 168.157 C 363.317 167.429,362.907 165.946,362.728 164.862 C 362.486 163.396,362.235 162.761,361.747 162.377 C 361.386 162.093,360.873 161.403,360.606 160.844 C 360.339 160.284,359.815 159.687,359.441 159.517 C 359.066 159.346,358.616 158.889,358.439 158.501 C 358.262 158.113,357.758 157.670,357.320 157.517 C 356.881 157.364,356.389 156.991,356.227 156.687 C 356.064 156.383,355.217 155.701,354.343 155.172 C 353.470 154.643,352.756 154.101,352.756 153.968 C 352.756 153.835,352.199 153.479,351.517 153.178 C 350.836 152.877,350.139 152.322,349.967 151.946 C 349.777 151.530,349.320 151.195,348.795 151.090 C 348.311 150.994,347.860 150.685,347.765 150.385 C 347.672 150.091,347.076 149.559,346.441 149.202 C 345.806 148.845,344.937 148.225,344.511 147.825 C 344.085 147.424,343.327 146.923,342.827 146.710 C 342.327 146.497,341.833 146.058,341.730 145.734 C 341.621 145.390,341.209 145.078,340.740 144.984 C 340.297 144.895,339.772 144.515,339.569 144.136 C 339.367 143.759,338.772 143.196,338.248 142.887 C 337.723 142.577,337.294 142.130,337.294 141.894 C 337.294 141.657,336.916 141.184,336.454 140.842 C 335.753 140.324,335.554 139.888,335.256 138.215 C 335.018 136.885,334.660 135.928,334.193 135.372 C 333.626 134.698,333.446 134.071,333.271 132.153 C 333.060 129.839,332.765 128.892,331.967 127.973 C 331.755 127.729,331.439 126.505,331.265 125.253 C 330.932 122.856,330.345 120.975,329.705 120.258 C 329.494 120.021,329.175 118.753,328.996 117.439 C 328.620 114.684,328.309 113.722,327.723 113.498 C 327.460 113.396,327.182 112.568,326.969 111.246 C 326.740 109.824,326.429 108.936,325.998 108.472 C 325.650 108.096,325.134 107.184,324.852 106.445 C 324.570 105.707,324.033 104.901,323.659 104.656 C 323.284 104.411,322.978 104.025,322.978 103.799 C 322.978 102.983,315.687 96.206,314.809 96.206 C 314.590 96.206,314.107 95.878,313.735 95.477 C 313.282 94.989,312.450 94.607,311.218 94.323 C 310.206 94.090,309.221 93.692,309.031 93.439 C 308.033 92.114,268.590 91.086,265.352 92.301 M306.791 93.430 C 307.731 93.869,309.069 94.355,309.764 94.511 C 311.696 94.944,315.753 97.443,318.122 99.660 C 318.553 100.064,319.242 100.614,319.653 100.884 C 320.065 101.153,320.401 101.561,320.401 101.790 C 320.401 102.019,320.691 102.397,321.045 102.630 C 321.399 102.863,322.010 103.575,322.401 104.211 C 322.793 104.848,323.219 105.369,323.348 105.369 C 323.477 105.369,323.917 106.110,324.326 107.015 C 324.735 107.921,325.314 109.012,325.612 109.440 C 325.910 109.868,326.324 111.031,326.531 112.024 C 326.739 113.017,327.187 114.375,327.527 115.041 C 327.867 115.707,328.326 117.290,328.548 118.558 C 328.769 119.826,329.206 121.354,329.518 121.954 C 329.831 122.553,330.350 124.287,330.672 125.807 C 330.995 127.326,331.529 129.180,331.860 129.925 C 332.191 130.671,332.656 132.312,332.894 133.572 C 333.132 134.832,333.504 136.139,333.722 136.477 C 333.940 136.814,334.391 137.909,334.726 138.910 C 335.060 139.911,335.567 140.988,335.852 141.303 C 337.447 143.063,339.934 145.455,340.168 145.455 C 340.317 145.455,340.808 145.841,341.260 146.314 C 341.711 146.786,342.203 147.173,342.353 147.173 C 342.503 147.173,343.005 147.540,343.467 147.988 C 343.930 148.437,344.825 149.149,345.455 149.571 C 348.018 151.289,348.642 151.741,349.463 152.472 C 349.936 152.893,351.288 153.930,352.470 154.777 C 353.651 155.624,354.834 156.505,355.099 156.736 C 355.364 156.967,355.940 157.390,356.378 157.676 C 359.456 159.684,362.112 163.707,362.510 166.964 C 362.942 170.500,362.724 208.541,362.264 209.875 C 360.462 215.096,352.114 220.728,349.431 218.533 C 348.802 218.018,348.643 217.405,347.580 211.352 C 347.212 209.265,346.716 207.523,346.192 206.485 C 345.744 205.595,345.210 204.311,345.006 203.631 C 344.803 202.951,344.404 202.232,344.121 202.033 C 343.837 201.835,343.394 201.168,343.136 200.551 C 342.879 199.934,342.329 199.007,341.914 198.490 C 340.080 196.205,337.996 193.959,337.404 193.630 C 337.050 193.434,336.682 193.026,336.586 192.724 C 336.490 192.421,336.063 192.034,335.636 191.863 C 335.209 191.692,334.323 191.134,333.666 190.622 C 331.868 189.221,329.891 188.067,328.083 187.362 C 327.191 187.014,326.144 186.523,325.758 186.270 C 325.372 186.017,323.848 185.623,322.371 185.394 C 320.894 185.166,318.976 184.785,318.110 184.547 C 315.697 183.886,311.888 183.992,308.227 184.822 C 306.497 185.214,304.685 185.536,304.200 185.538 C 303.715 185.539,302.684 185.862,301.910 186.255 C 301.135 186.649,299.857 187.183,299.069 187.443 C 298.282 187.703,297.265 188.226,296.810 188.605 C 296.354 188.984,295.388 189.595,294.662 189.963 C 293.937 190.331,293.097 190.904,292.797 191.236 C 292.497 191.568,292.133 191.840,291.988 191.840 C 291.611 191.840,286.750 196.775,286.319 197.596 C 286.120 197.973,285.774 198.390,285.549 198.523 C 285.324 198.656,284.889 199.349,284.583 200.063 C 284.276 200.778,283.706 201.742,283.316 202.207 C 282.925 202.671,282.522 203.395,282.421 203.816 C 282.320 204.237,281.859 205.339,281.396 206.264 C 280.934 207.190,280.372 208.994,280.148 210.273 C 279.924 211.552,279.536 213.629,279.287 214.889 C 279.037 216.149,278.781 217.454,278.718 217.790 C 278.412 219.414,266.826 220.140,265.169 218.639 L 264.567 218.093 264.567 155.906 C 264.567 88.005,264.447 93.296,265.999 92.672 C 266.235 92.578,275.125 92.530,285.755 92.567 L 305.082 92.633 306.791 93.430 M280.200 107.489 C 279.586 107.719,278.976 108.077,278.845 108.285 C 278.551 108.748,278.523 139.746,278.816 140.189 C 279.653 141.454,279.804 141.462,299.936 141.380 C 316.504 141.313,319.026 141.247,319.262 140.873 C 319.675 140.219,319.599 139.535,318.955 138.122 C 318.632 137.413,318.123 135.688,317.824 134.288 C 317.525 132.888,317.002 131.133,316.663 130.389 C 316.324 129.644,315.877 127.986,315.669 126.705 C 315.462 125.424,315.026 123.924,314.700 123.371 C 314.374 122.819,313.907 121.223,313.664 119.825 C 313.420 118.426,312.978 116.889,312.681 116.408 C 312.385 115.927,311.886 114.889,311.573 114.102 C 310.932 112.491,309.022 110.326,307.516 109.503 C 306.965 109.202,306.256 108.740,305.941 108.478 C 304.736 107.473,303.233 107.333,292.198 107.201 C 283.116 107.092,281.133 107.139,280.200 107.489 M305.135 108.843 C 306.051 109.701,307.559 110.523,308.218 110.523 C 308.462 110.523,308.661 110.731,308.661 110.985 C 308.661 111.239,309.100 111.851,309.637 112.345 C 310.321 112.974,310.760 113.756,311.106 114.961 C 311.377 115.906,311.862 117.051,312.183 117.507 C 312.554 118.032,312.952 119.444,313.274 121.370 C 313.656 123.659,313.922 124.519,314.356 124.871 C 314.803 125.232,315.022 125.991,315.333 128.252 C 315.622 130.357,315.909 131.405,316.366 132.022 C 316.795 132.603,317.121 133.701,317.381 135.440 C 317.605 136.944,318.018 138.434,318.378 139.045 C 318.716 139.618,318.912 140.167,318.814 140.265 C 318.592 140.488,281.558 140.665,280.673 140.448 L 280.029 140.290 280.029 124.285 C 280.029 111.753,280.106 108.246,280.387 108.126 C 280.583 108.042,286.051 107.999,292.537 108.031 L 304.330 108.089 305.135 108.843 M54.898 169.174 C 54.461 169.462,53.785 170.130,53.394 170.659 L 52.684 171.622 52.684 194.634 C 52.684 209.870,52.784 217.833,52.979 218.198 C 53.698 219.542,54.306 219.613,64.950 219.613 C 77.350 219.613,76.246 220.087,76.455 214.675 C 76.576 211.538,76.695 210.737,77.101 210.331 C 77.848 209.584,78.058 209.059,78.444 206.967 C 78.693 205.619,79.001 204.866,79.493 204.403 C 79.876 204.043,80.385 203.078,80.623 202.258 C 80.861 201.438,81.243 200.696,81.471 200.608 C 81.700 200.520,82.143 200.026,82.457 199.509 C 83.803 197.292,89.143 191.857,89.985 191.846 C 90.264 191.843,90.639 191.517,90.819 191.122 C 91.031 190.656,91.517 190.305,92.206 190.119 C 92.789 189.962,93.573 189.531,93.949 189.160 C 94.587 188.530,95.572 188.117,97.401 187.714 C 97.822 187.621,98.531 187.241,98.976 186.869 C 101.069 185.122,121.403 184.944,121.403 186.673 C 121.403 187.002,123.061 187.750,124.506 188.075 C 125.180 188.226,126.031 188.680,126.410 189.089 C 126.787 189.496,127.683 189.986,128.401 190.178 C 129.226 190.398,129.768 190.725,129.877 191.066 C 129.971 191.363,130.501 191.795,131.054 192.026 C 131.607 192.257,132.117 192.664,132.186 192.930 C 132.256 193.197,132.762 193.709,133.311 194.068 C 133.860 194.428,134.440 195.009,134.599 195.360 C 134.759 195.711,135.270 196.216,135.734 196.482 C 136.247 196.777,136.578 197.203,136.578 197.568 C 136.578 197.978,136.851 198.264,137.437 198.468 C 138.060 198.685,138.296 198.951,138.296 199.433 C 138.296 199.800,138.764 200.712,139.336 201.461 C 139.907 202.210,140.500 203.283,140.652 203.845 C 140.805 204.407,141.255 205.298,141.652 205.825 C 142.189 206.536,142.506 207.551,142.883 209.767 C 143.162 211.409,143.617 213.096,143.892 213.517 C 144.202 213.989,144.444 215.055,144.526 216.303 C 144.599 217.415,144.840 218.615,145.063 218.969 L 145.468 219.613 198.017 219.613 L 250.566 219.613 250.981 218.621 C 251.332 217.781,251.396 214.087,251.394 194.784 C 251.393 171.247,251.350 170.320,250.232 169.201 C 249.387 168.356,56.179 168.329,54.898 169.174 M250.135 170.395 C 250.997 171.348,250.987 218.290,250.124 218.921 C 249.139 219.641,146.505 219.518,145.783 218.796 C 145.384 218.398,145.164 217.468,144.900 215.078 C 144.693 213.209,144.324 211.429,144.007 210.773 C 143.710 210.158,143.388 209.093,143.292 208.406 C 143.070 206.823,142.630 205.597,142.020 204.868 C 141.757 204.553,141.314 203.678,141.036 202.924 C 140.758 202.169,140.240 201.203,139.883 200.776 C 139.527 200.349,139.038 199.613,138.795 199.140 C 138.023 197.632,129.994 189.835,129.214 189.835 C 129.060 189.835,128.398 189.447,127.743 188.973 C 127.089 188.499,125.749 187.801,124.765 187.422 C 123.782 187.043,122.467 186.465,121.844 186.137 C 121.220 185.809,120.318 185.539,119.839 185.538 C 119.361 185.536,117.554 185.214,115.825 184.822 C 111.746 183.897,108.969 183.897,104.681 184.825 C 102.860 185.218,101.011 185.540,100.573 185.540 C 100.135 185.540,98.971 185.934,97.986 186.414 C 97.002 186.894,95.654 187.479,94.992 187.712 C 94.330 187.946,93.527 188.369,93.208 188.652 C 92.888 188.936,92.047 189.517,91.339 189.944 C 87.932 191.998,84.331 195.379,82.183 198.541 C 81.658 199.313,80.991 200.183,80.700 200.474 C 80.410 200.764,80.172 201.168,80.172 201.370 C 80.172 201.572,79.721 202.437,79.170 203.293 C 78.618 204.148,78.166 205.175,78.164 205.574 C 78.162 205.973,77.767 207.072,77.286 208.017 C 76.540 209.485,76.345 210.354,75.946 213.988 C 75.319 219.695,76.426 219.184,64.682 219.184 C 55.880 219.184,55.286 219.151,54.719 218.639 L 54.116 218.093 54.116 194.746 L 54.116 171.399 54.885 170.595 L 55.655 169.792 152.622 169.792 L 249.589 169.792 250.135 170.395 M106.292 193.534 C 105.054 193.688,104.285 193.955,103.822 194.390 C 103.374 194.811,102.557 195.106,101.385 195.272 C 100.057 195.460,99.381 195.732,98.650 196.373 C 98.117 196.842,97.293 197.310,96.819 197.414 C 96.345 197.518,95.466 198.110,94.865 198.730 C 94.264 199.349,93.607 199.856,93.405 199.857 C 93.203 199.857,92.771 200.308,92.446 200.859 C 92.121 201.410,91.688 201.861,91.483 201.861 C 91.279 201.861,90.711 202.487,90.220 203.251 C 89.729 204.016,89.074 204.871,88.764 205.152 C 88.454 205.432,88.118 206.128,88.017 206.696 C 87.917 207.265,87.467 208.120,87.018 208.595 C 86.312 209.341,86.145 209.859,85.790 212.399 C 85.564 214.015,85.206 215.547,84.995 215.802 C 84.460 216.446,84.460 221.636,84.995 222.280 C 85.206 222.535,85.561 224.068,85.783 225.688 C 86.132 228.235,86.288 228.722,86.935 229.292 C 87.350 229.658,87.799 230.464,87.942 231.100 C 88.084 231.731,88.463 232.529,88.785 232.874 C 89.107 233.218,89.716 234.049,90.140 234.719 C 90.563 235.390,91.125 236.007,91.389 236.092 C 91.654 236.177,92.132 236.691,92.453 237.235 C 92.775 237.780,93.209 238.225,93.418 238.225 C 93.628 238.225,94.301 238.739,94.915 239.368 C 95.633 240.102,96.395 240.576,97.049 240.695 C 97.629 240.801,98.376 241.223,98.783 241.677 C 99.332 242.287,99.915 242.542,101.278 242.767 C 102.257 242.928,103.417 243.323,103.855 243.645 C 105.974 245.199,117.108 244.971,117.108 243.374 C 117.108 243.248,118.042 242.978,119.184 242.775 C 120.836 242.482,121.404 242.243,121.968 241.604 C 122.357 241.163,122.847 240.802,123.056 240.802 C 123.723 240.802,125.125 239.942,125.125 239.534 C 125.125 239.317,125.482 239.015,125.919 238.863 C 126.679 238.598,129.420 236.066,129.420 235.629 C 129.420 235.513,129.871 234.968,130.422 234.417 C 130.974 233.865,131.424 233.232,131.424 233.010 C 131.424 232.787,131.810 232.236,132.280 231.785 C 132.904 231.188,133.185 230.597,133.316 229.606 C 133.437 228.697,133.717 228.056,134.163 227.668 C 135.933 226.129,135.808 211.132,134.017 210.173 C 133.683 209.994,133.441 209.414,133.320 208.504 C 133.191 207.529,132.912 206.900,132.395 206.417 C 131.988 206.037,131.467 205.262,131.238 204.693 C 131.009 204.125,130.507 203.491,130.121 203.285 C 129.736 203.078,129.420 202.759,129.420 202.576 C 129.420 202.044,126.791 199.522,125.919 199.218 C 125.482 199.066,125.125 198.754,125.125 198.525 C 125.125 198.295,124.434 197.802,123.589 197.428 C 122.744 197.054,121.980 196.559,121.891 196.327 C 121.706 195.845,120.438 195.404,118.468 195.138 C 117.720 195.037,117.108 194.848,117.108 194.718 C 117.108 193.725,110.531 193.005,106.292 193.534 M309.950 193.551 C 307.998 193.771,307.339 194.007,307.125 194.562 C 307.044 194.775,306.357 195.032,305.600 195.134 C 303.648 195.395,302.614 195.770,302.194 196.369 C 301.994 196.655,301.298 197.064,300.647 197.279 C 299.995 197.494,299.168 198.020,298.809 198.447 C 298.449 198.875,297.742 199.438,297.237 199.699 C 296.733 199.960,296.224 200.431,296.108 200.746 C 295.991 201.062,295.579 201.477,295.192 201.669 C 294.805 201.861,294.447 202.307,294.396 202.659 C 294.346 203.011,293.947 203.484,293.511 203.710 C 292.984 203.982,292.545 204.582,292.205 205.496 C 291.923 206.253,291.393 207.196,291.026 207.591 C 290.631 208.017,290.175 209.108,289.906 210.269 C 289.656 211.346,289.167 212.612,288.820 213.081 C 287.819 214.436,287.854 223.694,288.865 225.061 C 289.237 225.564,289.718 226.822,289.934 227.857 C 290.180 229.031,290.585 230.015,291.011 230.474 C 291.386 230.879,291.921 231.823,292.200 232.573 C 292.528 233.455,292.968 234.062,293.443 234.291 C 293.847 234.486,294.253 234.967,294.345 235.359 C 294.437 235.752,294.824 236.228,295.204 236.417 C 295.585 236.607,295.991 237.020,296.108 237.335 C 296.224 237.651,296.745 238.125,297.265 238.391 C 297.785 238.656,298.533 239.232,298.926 239.670 C 299.320 240.108,300.105 240.610,300.670 240.785 C 301.236 240.960,301.964 241.408,302.288 241.780 C 302.726 242.283,303.402 242.547,304.911 242.801 C 306.029 242.990,307.041 243.305,307.158 243.502 C 308.071 245.023,318.126 245.181,320.121 243.705 C 320.559 243.382,321.780 242.958,322.836 242.763 C 324.294 242.495,324.859 242.250,325.191 241.744 C 325.452 241.345,326.125 240.953,326.869 240.765 C 327.731 240.548,328.339 240.155,328.852 239.482 C 329.259 238.948,329.729 238.511,329.895 238.511 C 330.384 238.511,333.286 235.468,333.286 234.956 C 333.286 234.699,333.610 234.365,334.007 234.214 C 334.403 234.063,334.854 233.616,335.009 233.219 C 335.548 231.836,335.882 231.203,336.569 230.262 C 336.950 229.740,337.411 228.588,337.595 227.702 C 337.779 226.816,338.191 225.737,338.511 225.305 C 339.346 224.175,339.763 219.872,339.383 216.301 C 339.174 214.338,338.927 213.339,338.511 212.776 C 338.191 212.345,337.776 211.226,337.587 210.291 C 337.381 209.271,336.928 208.188,336.455 207.588 C 336.021 207.037,335.508 206.105,335.314 205.517 C 335.121 204.929,334.599 204.189,334.156 203.873 C 333.712 203.558,333.274 203.008,333.182 202.652 C 333.090 202.296,332.625 201.785,332.148 201.517 C 331.671 201.248,331.281 200.844,331.281 200.619 C 331.281 200.393,330.861 200.009,330.347 199.765 C 329.833 199.521,329.139 198.952,328.805 198.501 C 328.463 198.037,327.667 197.504,326.975 197.276 C 326.303 197.054,325.476 196.575,325.138 196.211 C 324.705 195.743,323.981 195.461,322.677 195.251 C 321.525 195.066,320.593 194.731,320.200 194.362 C 319.221 193.443,314.348 193.058,309.950 193.551 M114.469 194.661 C 115.369 194.953,116.879 195.352,117.824 195.548 C 118.769 195.744,120.122 196.270,120.830 196.718 C 121.539 197.166,122.414 197.642,122.775 197.775 C 123.667 198.104,125.750 199.728,127.282 201.288 C 129.460 203.508,130.852 205.139,130.852 205.471 C 130.852 205.647,131.223 206.258,131.677 206.829 C 132.130 207.400,132.719 208.545,132.985 209.374 C 133.251 210.202,133.749 211.460,134.093 212.169 C 135.124 214.296,135.037 223.954,133.966 226.199 C 133.554 227.065,132.999 228.440,132.734 229.255 C 132.469 230.070,132.056 230.899,131.817 231.097 C 131.578 231.295,131.148 231.917,130.860 232.479 C 130.573 233.041,129.926 233.951,129.423 234.503 C 127.011 237.143,126.584 237.566,125.535 238.358 C 124.916 238.824,124.243 239.368,124.039 239.567 C 123.835 239.765,123.088 240.184,122.379 240.498 C 121.670 240.811,120.770 241.319,120.379 241.627 C 119.988 241.934,119.124 242.269,118.460 242.371 C 117.795 242.472,116.184 242.886,114.880 243.290 C 111.964 244.193,107.412 244.132,104.939 243.157 C 104.152 242.846,102.916 242.507,102.193 242.402 C 101.441 242.293,100.218 241.787,99.339 241.220 C 98.493 240.675,97.717 240.229,97.615 240.229 C 96.654 240.229,91.646 235.573,90.230 233.362 C 89.976 232.966,89.544 232.394,89.270 232.092 C 88.996 231.790,88.555 230.952,88.289 230.231 C 88.023 229.509,87.651 228.726,87.461 228.490 C 86.183 226.894,85.415 220.852,85.898 216.178 C 86.370 211.602,86.471 211.105,87.140 210.097 C 87.481 209.583,87.938 208.655,88.156 208.034 C 89.210 205.031,94.332 199.527,97.629 197.854 C 98.333 197.496,99.248 196.954,99.662 196.647 C 100.076 196.341,101.626 195.774,103.106 195.386 C 104.587 194.998,106.185 194.570,106.657 194.435 C 108.296 193.965,112.717 194.093,114.469 194.661 M318.171 194.668 C 319.004 194.964,320.458 195.361,321.403 195.552 C 322.348 195.742,323.636 196.237,324.266 196.652 C 324.896 197.066,325.991 197.682,326.700 198.021 C 327.409 198.359,328.301 198.975,328.683 199.389 C 329.064 199.804,329.484 200.143,329.615 200.143 C 329.884 200.143,332.058 202.372,333.587 204.214 C 334.146 204.889,334.829 206.041,335.104 206.775 C 335.379 207.509,335.784 208.179,336.004 208.263 C 336.223 208.347,336.535 208.906,336.696 209.505 C 336.857 210.104,337.342 211.818,337.773 213.314 C 338.810 216.909,338.873 221.044,337.938 224.052 C 337.595 225.154,337.164 226.700,336.979 227.487 C 336.794 228.275,336.411 229.177,336.129 229.492 C 335.846 229.807,335.344 230.698,335.012 231.473 C 333.835 234.224,329.027 239.043,326.236 240.269 C 325.468 240.607,324.484 241.179,324.050 241.541 C 323.608 241.909,322.664 242.284,321.903 242.393 C 321.155 242.500,319.652 242.894,318.561 243.269 C 315.775 244.228,311.744 244.232,309.014 243.278 C 307.954 242.908,306.442 242.510,305.655 242.394 C 304.849 242.275,303.817 241.875,303.295 241.479 C 302.784 241.092,301.868 240.553,301.260 240.280 C 298.904 239.226,292.627 233.099,292.627 231.854 C 292.627 231.633,292.227 230.847,291.739 230.110 C 291.250 229.372,290.617 227.900,290.332 226.839 C 290.047 225.779,289.609 224.163,289.359 223.250 C 288.774 221.110,288.773 216.811,289.358 214.746 C 289.603 213.880,290.039 212.303,290.327 211.242 C 290.615 210.181,291.250 208.710,291.739 207.972 C 292.227 207.234,292.627 206.423,292.627 206.169 C 292.627 205.642,294.004 203.997,296.492 201.550 C 299.389 198.702,299.599 198.532,300.997 197.915 C 301.743 197.586,302.774 197.004,303.288 196.623 C 303.802 196.242,305.061 195.760,306.084 195.552 C 307.108 195.344,308.590 194.944,309.377 194.663 C 311.411 193.936,316.117 193.939,318.171 194.668 " stroke="none" fill="#c5c5c5" fill-rule="evenodd"></path><path id="path4" d="M54.590 72.106 C 54.154 72.588,54.116 75.897,54.116 113.877 L 54.116 155.124 54.822 155.586 C 55.960 156.332,249.709 156.293,250.273 155.548 C 250.596 155.121,250.592 155.100,250.251 155.404 C 249.497 156.077,55.486 155.912,54.876 155.239 C 54.440 154.757,54.402 151.457,54.402 113.613 L 54.402 72.511 55.047 72.061 C 55.401 71.814,55.550 71.605,55.377 71.597 C 55.205 71.589,54.850 71.818,54.590 72.106 M250.676 113.815 C 250.676 136.492,250.710 145.727,250.752 134.337 C 250.793 122.947,250.793 104.393,250.752 93.106 C 250.710 81.819,250.676 91.138,250.676 113.815 M274.803 92.698 C 279.567 92.743,287.362 92.743,292.126 92.698 C 296.890 92.654,292.992 92.618,283.465 92.618 C 273.937 92.618,270.039 92.654,274.803 92.698 M265.041 93.294 C 264.603 93.778,264.567 98.537,264.567 155.955 L 264.567 218.093 265.169 218.639 C 265.716 219.134,266.283 219.186,271.397 219.205 L 277.022 219.226 271.439 219.046 C 268.368 218.947,265.832 218.841,265.804 218.810 C 265.776 218.780,265.551 218.552,265.303 218.305 C 264.593 217.595,264.617 94.079,265.327 93.294 C 265.588 93.006,265.737 92.770,265.658 92.770 C 265.579 92.770,265.301 93.006,265.041 93.294 M304.366 92.980 C 304.760 93.053,305.819 93.422,306.720 93.800 C 309.048 94.778,309.461 94.640,307.230 93.629 C 306.206 93.166,304.982 92.800,304.510 92.817 C 303.734 92.845,303.720 92.861,304.366 92.980 M310.236 94.873 C 312.488 95.654,316.084 98.051,318.776 100.565 C 319.573 101.309,320.296 101.846,320.384 101.758 C 320.472 101.669,320.222 101.344,319.828 101.034 C 319.435 100.725,318.661 100.095,318.110 99.635 C 315.735 97.650,314.992 97.114,313.042 95.973 C 311.908 95.309,310.555 94.701,310.036 94.621 C 309.166 94.488,309.182 94.508,310.236 94.873 M322.248 104.424 C 322.492 104.928,322.867 105.443,323.081 105.569 C 323.295 105.695,324.132 107.146,324.942 108.794 C 325.751 110.442,326.414 111.600,326.414 111.367 C 326.414 111.134,326.156 110.494,325.841 109.945 C 325.526 109.397,324.948 108.259,324.556 107.417 C 324.164 106.575,323.584 105.609,323.267 105.270 C 322.950 104.930,322.491 104.395,322.247 104.080 C 321.849 103.565,321.849 103.600,322.248 104.424 M280.068 107.192 C 278.232 107.857,278.311 107.092,278.311 124.334 L 278.311 140.040 279.013 140.743 C 279.400 141.130,279.948 141.441,280.230 141.434 C 280.590 141.426,280.487 141.285,279.885 140.963 C 279.413 140.711,278.932 140.361,278.816 140.187 C 278.348 139.484,278.563 108.593,279.039 108.117 C 280.016 107.140,281.656 107.017,292.198 107.132 C 297.867 107.194,301.861 107.156,301.074 107.047 C 298.468 106.689,281.128 106.809,280.068 107.192 M304.366 107.684 C 304.918 107.853,305.658 108.261,306.012 108.590 C 306.365 108.919,306.727 109.116,306.816 109.028 C 307.099 108.745,305.308 107.660,304.319 107.515 L 303.364 107.375 304.366 107.684 M307.652 109.445 C 307.963 109.644,308.767 110.387,309.438 111.095 C 310.110 111.804,310.661 112.299,310.663 112.197 C 310.669 111.783,308.750 109.871,307.946 109.490 C 307.473 109.266,307.341 109.246,307.652 109.445 M311.121 112.813 C 311.215 113.207,311.729 114.431,312.262 115.533 C 312.794 116.636,313.360 118.053,313.518 118.683 L 313.806 119.828 313.668 118.635 C 313.592 117.979,313.098 116.561,312.570 115.485 C 312.042 114.409,311.462 113.207,311.280 112.813 L 310.949 112.097 311.121 112.813 M326.722 113.898 C 326.710 114.101,326.977 114.810,327.316 115.473 C 327.655 116.136,328.030 117.001,328.150 117.394 C 328.329 117.978,328.373 118.005,328.393 117.538 C 328.418 116.913,326.758 113.295,326.722 113.898 M328.531 119.719 C 328.681 120.960,329.913 123.933,330.075 123.446 C 330.138 123.257,329.982 122.785,329.728 122.398 C 329.474 122.010,329.073 121.016,328.836 120.188 C 328.510 119.045,328.436 118.932,328.531 119.719 M313.840 120.981 C 313.826 121.300,314.198 122.331,314.665 123.271 C 315.133 124.212,315.519 124.816,315.524 124.613 C 315.529 124.410,315.256 123.701,314.917 123.038 C 314.579 122.375,314.203 121.510,314.083 121.117 C 313.901 120.521,313.860 120.498,313.840 120.981 M330.198 124.409 C 330.201 124.724,330.302 125.369,330.422 125.841 C 330.619 126.613,330.641 126.627,330.646 125.984 C 330.649 125.591,330.548 124.946,330.422 124.553 C 330.243 123.992,330.194 123.961,330.198 124.409 M330.724 127.224 C 330.716 127.512,331.053 128.607,331.474 129.658 C 331.895 130.708,332.333 131.954,332.447 132.427 C 332.615 133.121,332.660 133.160,332.684 132.632 C 332.700 132.273,332.504 131.500,332.249 130.914 C 331.993 130.329,331.549 129.141,331.262 128.275 C 330.975 127.409,330.733 126.936,330.724 127.224 M315.951 128.046 C 316.014 128.628,316.279 129.556,316.541 130.108 C 316.803 130.660,317.190 131.665,317.401 132.342 C 317.613 133.018,317.794 133.342,317.805 133.062 C 317.815 132.781,317.447 131.557,316.986 130.342 C 316.526 129.126,316.079 127.874,315.993 127.559 C 315.908 127.244,315.889 127.463,315.951 128.046 M317.848 134.164 C 317.818 134.905,318.550 137.404,319.114 138.485 C 319.797 139.795,319.628 140.878,318.683 141.237 C 318.336 141.369,318.348 141.405,318.744 141.423 C 319.865 141.475,320.124 139.713,319.248 137.996 C 318.929 137.370,318.489 136.119,318.270 135.215 C 318.051 134.312,317.861 133.838,317.848 134.164 M333.286 136.314 C 333.286 136.554,333.419 136.883,333.582 137.046 C 333.744 137.209,334.125 137.975,334.427 138.750 C 334.729 139.524,334.983 139.999,334.990 139.805 C 335.008 139.340,334.149 137.157,333.667 136.443 C 333.382 136.021,333.286 135.988,333.286 136.314 M335.004 140.473 C 335.004 141.009,337.859 144.015,339.825 145.550 C 340.666 146.206,341.890 147.161,342.545 147.672 C 343.201 148.184,344.252 148.950,344.882 149.375 C 345.512 149.800,346.345 150.412,346.734 150.736 C 347.343 151.242,347.383 151.249,347.025 150.784 C 346.796 150.487,346.091 149.920,345.459 149.524 C 344.827 149.128,343.930 148.437,343.467 147.988 C 343.005 147.540,342.503 147.173,342.353 147.173 C 342.203 147.173,341.711 146.786,341.260 146.314 C 340.808 145.841,340.317 145.455,340.168 145.455 C 339.893 145.455,337.234 142.871,335.791 141.202 C 335.358 140.701,335.004 140.373,335.004 140.473 M290.142 141.661 C 295.311 141.704,303.686 141.704,308.754 141.661 C 313.821 141.617,309.592 141.581,299.356 141.581 C 289.120 141.581,284.974 141.617,290.142 141.661 M348.710 152.200 C 349.398 152.799,350.325 153.555,350.770 153.881 C 351.216 154.207,352.041 154.846,352.605 155.301 C 353.169 155.756,353.687 156.072,353.756 156.003 C 353.825 155.934,353.095 155.304,352.134 154.603 C 351.172 153.902,350.049 152.990,349.638 152.577 C 349.227 152.164,348.568 151.665,348.175 151.468 C 347.741 151.252,347.952 151.540,348.710 152.200 M355.190 157.027 C 357.163 158.780,358.462 159.904,358.856 160.200 C 359.263 160.506,361.723 164.208,361.996 164.925 C 362.133 165.285,362.163 165.287,362.182 164.940 C 362.244 163.801,358.111 158.711,356.213 157.590 C 355.729 157.304,355.333 156.974,355.333 156.856 C 355.333 156.738,355.043 156.499,354.689 156.326 C 354.333 156.151,354.558 156.466,355.190 157.027 M362.626 187.545 C 362.626 198.332,362.662 202.745,362.706 197.351 C 362.749 191.958,362.749 183.132,362.706 177.738 C 362.662 172.344,362.626 176.757,362.626 187.545 M54.885 170.595 L 54.116 171.399 54.116 194.746 C 54.116 217.753,54.124 218.101,54.690 218.613 C 55.006 218.899,55.339 219.058,55.431 218.967 C 55.522 218.876,55.328 218.657,54.999 218.481 L 54.402 218.162 54.402 194.743 L 54.402 171.324 55.065 170.701 L 55.728 170.079 152.609 170.079 C 244.459 170.079,249.521 170.105,250.085 170.580 C 250.679 171.080,250.679 171.080,250.135 170.437 L 249.589 169.792 152.622 169.792 L 55.655 169.792 54.885 170.595 M250.673 194.703 C 250.673 207.538,250.709 212.788,250.752 206.371 C 250.794 199.953,250.794 189.452,250.752 183.035 C 250.709 176.618,250.673 181.868,250.673 194.703 M104.223 184.546 C 102.885 184.915,101.467 185.240,101.074 185.269 C 100.660 185.299,100.549 185.372,100.810 185.442 C 101.059 185.509,102.776 185.236,104.627 184.836 C 108.972 183.897,111.730 183.893,115.825 184.822 C 117.554 185.214,119.291 185.524,119.685 185.511 C 120.079 185.498,119.559 185.319,118.530 185.114 C 117.501 184.908,115.964 184.534,115.114 184.281 C 112.704 183.566,107.307 183.697,104.223 184.546 M307.087 184.694 C 303.177 185.698,303.971 185.787,308.227 184.822 C 312.157 183.930,315.639 183.884,318.683 184.681 C 321.742 185.483,322.459 185.350,319.542 184.522 C 315.996 183.516,311.428 183.579,307.087 184.694 M98.497 185.749 C 98.067 185.912,96.604 186.973,96.812 186.971 C 96.872 186.970,97.556 186.648,98.331 186.255 C 99.570 185.626,99.677 185.300,98.497 185.749 M122.113 186.268 C 122.865 186.667,123.535 186.940,123.602 186.873 C 123.802 186.673,121.807 185.540,121.255 185.540 C 120.975 185.540,121.360 185.868,122.113 186.268 M301.646 185.889 C 301.096 186.206,300.219 186.973,300.409 186.971 C 300.460 186.970,301.135 186.648,301.910 186.255 C 302.684 185.862,303.071 185.544,302.769 185.549 C 302.466 185.554,301.961 185.707,301.646 185.889 M325.670 186.256 C 326.411 186.650,327.107 186.968,327.216 186.963 C 327.588 186.947,325.128 185.543,324.725 185.542 C 324.504 185.541,324.930 185.863,325.670 186.256 M94.990 187.406 C 94.400 187.623,93.498 188.114,92.986 188.498 C 92.474 188.881,91.668 189.396,91.195 189.642 C 90.723 189.888,89.885 190.503,89.334 191.008 C 88.783 191.514,88.654 191.711,89.048 191.446 C 89.442 191.181,90.344 190.591,91.052 190.134 C 91.761 189.678,92.691 189.031,93.119 188.697 C 93.547 188.362,94.481 187.890,95.195 187.647 C 95.909 187.404,96.492 187.152,96.492 187.088 C 96.492 186.908,96.152 186.980,94.990 187.406 M123.980 187.088 C 123.980 187.152,124.541 187.396,125.228 187.630 C 125.914 187.864,127.029 188.456,127.705 188.945 C 128.380 189.435,129.085 189.835,129.270 189.835 C 129.455 189.835,129.919 190.169,130.301 190.577 C 130.683 190.986,131.253 191.455,131.568 191.621 C 131.883 191.786,131.560 191.393,130.852 190.747 C 130.143 190.101,129.453 189.567,129.319 189.561 C 129.184 189.554,128.476 189.146,127.746 188.653 C 126.312 187.685,123.980 186.716,123.980 187.088 M298.497 187.324 C 298.024 187.492,297.268 187.938,296.816 188.314 C 296.364 188.690,295.591 189.167,295.098 189.375 C 294.138 189.779,291.534 191.840,291.983 191.840 C 292.131 191.840,292.497 191.568,292.797 191.237 C 293.097 190.905,293.858 190.375,294.488 190.059 C 295.118 189.742,296.079 189.144,296.623 188.729 C 297.168 188.314,298.198 187.759,298.914 187.495 C 299.629 187.232,300.021 187.017,299.785 187.017 C 299.549 187.017,298.969 187.155,298.497 187.324 M328.418 187.410 C 328.969 187.647,329.613 187.965,329.850 188.118 C 330.086 188.270,331.117 188.899,332.142 189.516 C 333.167 190.133,334.250 190.908,334.549 191.239 C 334.848 191.569,335.221 191.840,335.379 191.840 C 336.616 191.840,330.083 187.609,328.132 187.147 C 327.716 187.049,327.836 187.159,328.418 187.410 M86.119 193.601 C 84.471 195.218,84.441 195.268,85.755 194.206 C 87.270 192.982,88.399 191.840,88.096 191.840 C 87.996 191.840,87.106 192.632,86.119 193.601 M132.775 192.420 C 133.123 192.810,134.519 194.288,135.875 195.705 C 137.232 197.122,138.587 198.756,138.888 199.336 C 139.188 199.916,139.577 200.480,139.753 200.588 C 139.929 200.697,140.381 201.447,140.757 202.254 C 141.133 203.062,141.442 203.556,141.443 203.353 C 141.451 202.297,138.161 197.559,135.576 194.905 C 134.156 193.447,131.908 191.453,132.775 192.420 M290.623 192.699 C 290.286 193.171,290.076 193.558,290.154 193.558 C 290.233 193.558,290.573 193.171,290.909 192.699 C 291.245 192.226,291.456 191.840,291.378 191.840 C 291.299 191.840,290.959 192.226,290.623 192.699 M336.272 192.290 C 336.519 192.537,336.722 192.855,336.722 192.996 C 336.722 193.137,337.020 193.418,337.384 193.620 C 338.046 193.986,340.329 196.463,342.090 198.724 C 342.602 199.381,343.021 199.780,343.021 199.611 C 343.021 199.442,342.634 198.908,342.162 198.425 C 341.689 197.942,341.302 197.454,341.302 197.342 C 341.301 197.079,336.262 191.840,336.011 191.840 C 335.907 191.840,336.024 192.042,336.272 192.290 M287.900 195.410 C 285.983 197.479,284.610 199.137,284.610 199.382 C 284.610 199.722,286.059 198.077,286.485 197.253 C 286.730 196.779,287.111 196.322,287.331 196.238 C 287.686 196.101,289.943 193.558,289.709 193.558 C 289.658 193.558,288.844 194.391,287.900 195.410 M106.657 194.411 C 105.488 194.714,104.288 195.235,104.710 195.257 C 104.900 195.267,105.796 195.082,106.703 194.846 C 108.839 194.290,112.025 194.298,113.935 194.866 C 114.766 195.113,115.511 195.250,115.590 195.171 C 116.306 194.456,108.916 193.827,106.657 194.411 M309.403 194.634 C 307.538 195.255,308.125 195.408,310.250 194.855 C 312.403 194.294,315.131 194.297,317.313 194.862 C 319.403 195.404,319.802 195.229,317.932 194.592 C 316.110 193.971,311.322 193.995,309.403 194.634 M102.505 195.562 C 101.939 195.743,101.909 195.791,102.362 195.791 C 102.677 195.791,103.257 195.688,103.651 195.562 C 104.217 195.380,104.247 195.333,103.794 195.333 C 103.479 195.333,102.899 195.436,102.505 195.562 M116.822 195.562 C 117.215 195.688,117.795 195.791,118.110 195.791 C 118.564 195.791,118.534 195.743,117.967 195.562 C 117.573 195.436,116.994 195.333,116.679 195.333 C 116.225 195.333,116.255 195.380,116.822 195.562 M306.084 195.562 C 305.518 195.743,305.488 195.791,305.941 195.791 C 306.256 195.791,306.836 195.688,307.230 195.562 C 307.797 195.380,307.826 195.333,307.373 195.333 C 307.058 195.333,306.478 195.436,306.084 195.562 M321.434 195.804 C 322.396 196.065,323.684 196.604,324.297 197.003 C 325.587 197.842,327.009 198.498,327.176 198.331 C 327.239 198.268,326.868 198.045,326.351 197.837 C 325.834 197.629,325.000 197.151,324.497 196.775 C 323.627 196.124,321.031 195.255,320.115 195.307 C 319.878 195.320,320.472 195.544,321.434 195.804 M83.423 196.492 C 82.944 197.004,82.279 197.882,81.944 198.444 C 81.609 199.006,81.074 199.702,80.754 199.992 C 80.434 200.281,80.172 200.634,80.172 200.775 C 80.172 201.176,81.490 199.654,82.482 198.108 C 82.977 197.337,83.492 196.707,83.628 196.707 C 83.763 196.707,84.012 196.450,84.180 196.135 C 84.610 195.332,84.427 195.418,83.423 196.492 M99.809 196.567 C 99.226 196.962,98.210 197.559,97.550 197.894 C 93.942 199.725,86.897 207.822,87.974 208.900 C 88.056 208.982,88.261 208.651,88.431 208.165 C 89.132 206.154,92.842 201.476,94.767 200.177 C 95.322 199.803,95.907 199.337,96.065 199.144 C 96.224 198.950,97.038 198.419,97.873 197.964 C 98.708 197.509,99.926 196.847,100.580 196.492 C 101.233 196.138,101.565 195.848,101.318 195.848 C 101.070 195.848,100.391 196.172,99.809 196.567 M119.112 196.046 C 119.349 196.130,119.993 196.500,120.544 196.869 C 121.782 197.698,123.812 198.562,123.560 198.154 C 123.457 197.988,123.214 197.853,123.019 197.853 C 122.824 197.853,121.962 197.405,121.103 196.858 C 120.245 196.311,119.349 195.870,119.112 195.878 C 118.731 195.892,118.731 195.910,119.112 196.046 M303.306 196.577 C 302.802 196.975,301.772 197.573,301.018 197.907 C 299.816 198.438,297.769 200.143,298.332 200.143 C 298.446 200.143,298.844 199.820,299.216 199.424 C 299.587 199.029,300.544 198.376,301.341 197.975 C 304.398 196.435,305.350 195.848,304.785 195.851 C 304.476 195.853,303.811 196.180,303.306 196.577 M124.226 198.922 C 124.413 199.271,124.853 199.703,125.203 199.881 C 126.001 200.286,130.556 205.040,130.562 205.473 C 130.564 205.649,130.806 206.100,131.101 206.475 C 131.395 206.851,131.911 207.672,132.246 208.299 C 132.582 208.927,132.856 209.236,132.856 208.986 C 132.856 208.736,132.535 208.094,132.143 207.558 C 131.751 207.023,131.258 206.228,131.049 205.790 C 130.423 204.483,127.254 201.039,124.934 199.143 C 124.032 198.406,123.933 198.375,124.226 198.922 M328.047 199.129 C 328.330 199.516,328.754 199.911,328.990 200.006 C 329.226 200.102,329.041 199.785,328.579 199.302 C 327.565 198.244,327.348 198.173,328.047 199.129 M283.886 200.836 C 283.618 201.400,283.305 201.861,283.189 201.861 C 283.073 201.861,282.757 202.409,282.486 203.078 C 282.215 203.747,281.617 205.068,281.156 206.013 C 280.289 207.789,279.742 209.778,279.776 211.024 C 279.787 211.417,279.966 210.889,280.173 209.850 C 280.380 208.811,280.929 207.201,281.393 206.271 C 281.857 205.342,282.320 204.237,282.421 203.816 C 282.522 203.395,282.908 202.686,283.279 202.241 C 284.110 201.242,284.704 200.142,284.514 199.952 C 284.436 199.874,284.154 200.272,283.886 200.836 M296.057 201.884 C 295.194 202.841,294.069 204.085,293.558 204.648 C 293.046 205.211,292.628 205.877,292.629 206.128 C 292.630 206.437,292.793 206.342,293.130 205.837 C 294.189 204.249,295.519 202.611,296.050 202.239 C 296.558 201.883,297.947 200.143,297.723 200.143 C 297.670 200.143,296.920 200.926,296.057 201.884 M329.901 200.549 C 332.811 203.670,333.935 205.012,334.635 206.204 L 335.027 206.872 334.831 206.157 C 334.573 205.222,330.230 200.143,329.687 200.143 C 329.597 200.143,329.693 200.326,329.901 200.549 M343.029 200.201 C 343.008 200.709,343.693 201.785,344.258 202.129 L 344.882 202.509 344.277 201.827 C 343.944 201.452,343.529 200.888,343.355 200.573 C 343.181 200.258,343.034 200.091,343.029 200.201 M79.885 201.532 C 79.885 201.665,79.501 202.342,79.032 203.035 C 78.562 203.728,78.176 204.419,78.173 204.572 C 78.170 204.724,78.618 204.148,79.170 203.293 C 80.123 201.813,80.348 201.288,80.029 201.288 C 79.950 201.288,79.885 201.398,79.885 201.532 M344.908 203.293 C 345.003 203.686,345.407 204.717,345.807 205.583 C 346.207 206.450,346.704 207.609,346.912 208.160 C 347.120 208.712,347.296 208.929,347.303 208.644 C 347.310 208.358,346.882 207.199,346.351 206.067 C 345.821 204.935,345.240 203.686,345.061 203.293 L 344.736 202.577 344.908 203.293 M141.452 204.036 C 141.449 204.208,141.692 204.572,141.993 204.844 C 142.294 205.116,142.622 205.667,142.723 206.068 C 142.823 206.468,142.967 206.735,143.043 206.659 C 143.118 206.584,143.053 206.214,142.899 205.838 C 142.540 204.966,141.461 203.622,141.452 204.036 M77.914 205.688 C 77.896 205.981,77.538 206.852,77.119 207.622 C 76.700 208.392,76.429 209.094,76.517 209.182 C 76.775 209.441,78.214 206.165,78.075 205.636 C 77.967 205.226,77.943 205.234,77.914 205.688 M291.553 208.258 C 291.042 209.069,290.631 209.926,290.641 210.163 C 290.651 210.400,290.786 210.272,290.942 209.878 C 291.097 209.485,291.559 208.677,291.968 208.084 C 292.377 207.490,292.661 206.955,292.598 206.894 C 292.535 206.834,292.065 207.447,291.553 208.258 M335.012 207.190 C 335.007 207.366,335.390 207.995,335.863 208.590 C 336.335 209.184,336.722 209.524,336.722 209.345 C 336.722 209.166,336.478 208.776,336.181 208.479 C 335.884 208.182,335.501 207.699,335.331 207.405 C 335.160 207.112,335.017 207.015,335.012 207.190 M143.173 207.936 C 143.160 208.611,144.012 211.103,144.376 211.453 C 144.723 211.787,144.611 211.343,143.759 209.019 C 143.442 208.153,143.178 207.666,143.173 207.936 M87.060 210.204 C 86.737 210.734,86.481 211.360,86.490 211.596 C 86.500 211.832,86.635 211.706,86.791 211.316 C 86.946 210.925,87.281 210.377,87.534 210.097 C 87.787 209.817,87.916 209.510,87.821 209.415 C 87.725 209.319,87.383 209.674,87.060 210.204 M347.383 209.878 C 347.383 210.272,347.482 210.981,347.602 211.453 C 347.797 212.219,347.821 212.235,347.821 211.596 C 347.821 211.203,347.722 210.494,347.602 210.021 C 347.407 209.255,347.383 209.240,347.383 209.878 M132.865 209.878 C 132.865 210.115,132.990 210.501,133.142 210.737 C 133.389 211.119,133.420 211.119,133.420 210.737 C 133.420 210.501,133.295 210.115,133.142 209.878 C 132.896 209.497,132.865 209.497,132.865 209.878 M361.566 210.669 C 361.293 211.258,360.613 212.416,360.054 213.243 C 359.495 214.069,359.102 214.746,359.179 214.746 C 359.434 214.746,362.205 210.382,362.205 209.982 C 362.205 209.394,362.107 209.499,361.566 210.669 M336.755 210.347 C 336.736 210.684,337.060 212.101,337.474 213.497 C 338.076 215.531,338.226 216.630,338.226 219.041 C 338.226 221.451,338.076 222.550,337.474 224.585 C 337.060 225.980,336.733 227.333,336.747 227.591 C 336.762 227.849,336.896 227.609,337.046 227.058 C 337.197 226.507,337.599 225.154,337.940 224.052 C 338.863 221.072,338.808 216.887,337.800 213.457 C 337.384 212.040,336.986 210.623,336.916 210.308 C 336.796 209.770,336.786 209.772,336.755 210.347 M290.133 211.913 C 289.957 212.605,289.610 213.880,289.362 214.746 C 288.772 216.808,288.771 221.100,289.360 223.250 C 290.233 226.438,290.572 227.484,290.597 227.076 C 290.611 226.850,290.336 225.690,289.986 224.499 C 289.082 221.419,289.090 216.635,290.005 213.514 C 290.366 212.286,290.614 211.140,290.556 210.968 C 290.499 210.795,290.308 211.221,290.133 211.913 M75.949 212.026 C 75.952 212.656,76.011 212.880,76.079 212.524 C 76.148 212.167,76.145 211.652,76.074 211.378 C 76.002 211.104,75.946 211.396,75.949 212.026 M133.429 211.450 C 133.429 211.546,133.627 212.008,133.870 212.477 C 134.112 212.946,134.418 214.067,134.550 214.968 C 134.735 216.231,134.799 216.373,134.825 215.585 C 134.865 214.429,134.130 211.710,133.708 211.449 C 133.554 211.354,133.429 211.355,133.429 211.450 M144.797 213.887 C 144.885 215.068,145.004 216.088,145.062 216.154 C 145.262 216.378,145.135 214.031,144.886 212.885 C 144.702 212.036,144.678 212.295,144.797 213.887 M279.094 213.887 C 278.817 215.068,278.591 216.444,278.593 216.944 C 278.596 217.589,278.377 218.027,277.843 218.447 C 277.428 218.774,277.210 219.041,277.359 219.041 C 277.924 219.041,278.883 217.843,278.883 217.138 C 278.883 216.734,279.084 215.630,279.329 214.685 C 279.574 213.739,279.735 212.690,279.687 212.353 C 279.638 212.015,279.372 212.706,279.094 213.887 M347.918 213.021 C 347.765 215.183,349.273 219.009,350.289 219.034 C 350.428 219.038,350.218 218.786,349.822 218.474 C 349.286 218.052,349.048 217.520,348.896 216.398 C 348.675 214.771,347.968 212.328,347.918 213.021 M75.420 215.816 L 75.161 218.325 74.159 218.667 C 73.518 218.885,73.366 219.014,73.737 219.025 C 75.114 219.063,76.824 214.452,75.809 213.437 C 75.737 213.365,75.562 214.436,75.420 215.816 M358.141 215.247 C 357.636 215.834,357.258 216.464,357.410 216.464 C 357.468 216.464,357.802 216.077,358.151 215.605 C 358.841 214.671,358.835 214.439,358.141 215.247 M85.794 217.394 C 85.700 218.694,85.723 220.530,85.845 221.475 C 86.024 222.855,86.071 222.391,86.085 219.112 C 86.104 214.442,86.038 214.049,85.794 217.394 M354.903 217.389 C 353.958 217.883,352.606 218.459,351.897 218.668 L 350.608 219.050 351.754 218.936 C 352.384 218.873,353.865 218.293,355.047 217.647 C 357.550 216.277,357.433 216.067,354.903 217.389 M145.177 217.824 C 145.138 219.439,141.215 219.327,197.871 219.327 C 248.973 219.327,250.537 219.300,250.537 218.414 C 250.537 218.233,250.308 218.300,250.013 218.567 C 249.456 219.071,146.886 219.323,146.146 218.822 C 145.975 218.706,145.689 218.354,145.510 218.039 C 145.332 217.724,145.182 217.627,145.177 217.824 M60.057 219.255 C 62.459 219.303,66.389 219.303,68.790 219.255 C 71.192 219.207,69.227 219.168,64.424 219.168 C 59.621 219.168,57.656 219.207,60.057 219.255 M134.607 222.620 C 134.555 223.643,134.286 224.597,133.562 226.318 C 133.400 226.702,133.430 226.805,133.663 226.661 C 134.158 226.355,134.914 223.482,134.782 222.411 C 134.672 221.528,134.662 221.540,134.607 222.620 M86.490 226.485 C 86.468 227.045,87.595 228.893,87.821 228.667 C 87.916 228.571,87.787 228.264,87.534 227.984 C 87.281 227.705,86.946 227.156,86.791 226.766 C 86.635 226.375,86.500 226.249,86.490 226.485 M290.641 227.927 C 290.631 228.168,291.074 229.066,291.625 229.921 C 292.176 230.777,292.627 231.338,292.627 231.168 C 292.627 230.999,292.291 230.365,291.881 229.760 C 291.470 229.155,291.027 228.396,290.897 228.074 C 290.739 227.684,290.653 227.635,290.641 227.927 M335.936 229.358 C 335.583 229.793,335.219 230.388,335.127 230.680 C 334.985 231.131,335.012 231.125,335.307 230.637 C 335.498 230.322,335.917 229.775,336.237 229.421 C 336.557 229.068,336.765 228.730,336.699 228.672 C 336.633 228.613,336.289 228.922,335.936 229.358 M132.453 229.264 C 131.480 232.331,125.616 238.601,121.986 240.456 C 119.483 241.734,118.687 242.232,119.145 242.233 C 119.400 242.233,119.941 241.971,120.349 241.651 C 120.756 241.330,121.670 240.811,122.379 240.498 C 123.088 240.184,123.835 239.765,124.039 239.567 C 124.243 239.368,124.916 238.824,125.535 238.358 C 126.584 237.566,127.011 237.143,129.423 234.503 C 129.926 233.951,130.581 233.026,130.877 232.446 C 131.174 231.866,131.560 231.303,131.736 231.194 C 132.116 230.960,132.948 229.059,132.756 228.867 C 132.682 228.793,132.546 228.972,132.453 229.264 M88.082 229.635 C 88.292 230.506,89.368 232.498,89.627 232.498 C 89.731 232.498,89.952 232.788,90.120 233.142 C 90.946 234.889,96.594 240.229,97.615 240.229 C 97.717 240.229,98.500 240.680,99.356 241.231 C 100.211 241.782,101.109 242.233,101.350 242.233 C 101.781 242.232,101.517 242.066,98.482 240.418 C 94.447 238.229,90.102 233.708,88.346 229.874 C 88.047 229.222,87.964 229.146,88.082 229.635 M334.717 231.541 C 334.717 231.921,332.336 234.970,331.112 236.159 C 330.575 236.680,330.136 237.216,330.136 237.349 C 330.136 237.483,330.648 237.058,331.273 236.405 C 333.835 233.731,335.245 231.786,334.884 231.424 C 334.792 231.332,334.717 231.385,334.717 231.541 M292.637 231.877 C 292.605 233.079,298.919 239.232,301.260 240.280 C 301.868 240.553,302.796 241.103,303.322 241.504 C 303.847 241.905,304.523 242.233,304.823 242.233 C 305.405 242.232,305.246 242.130,301.744 240.263 C 298.747 238.664,294.479 234.683,292.995 232.101 C 292.804 231.768,292.643 231.667,292.637 231.877 M328.413 238.557 C 327.868 239.055,326.873 239.706,326.202 240.003 C 325.531 240.299,324.982 240.597,324.982 240.665 C 324.982 240.808,326.178 240.372,327.077 239.901 C 327.842 239.501,329.938 237.652,329.628 237.652 C 329.505 237.652,328.959 238.060,328.413 238.557 M323.837 241.366 C 323.443 241.670,322.606 242.008,321.976 242.118 C 321.346 242.228,320.982 242.371,321.167 242.436 C 321.759 242.643,323.728 241.969,324.265 241.376 C 324.916 240.656,324.762 240.653,323.837 241.366 M104.939 243.111 C 107.317 244.130,112.058 244.211,114.817 243.280 C 117.355 242.424,116.920 242.272,114.291 243.096 C 112.061 243.795,108.986 243.837,106.646 243.201 C 103.975 242.475,103.381 242.443,104.939 243.111 M308.518 243.121 C 310.867 244.142,315.908 244.215,318.540 243.265 C 320.959 242.391,320.583 242.309,317.754 243.092 C 315.253 243.786,312.520 243.825,310.225 243.201 C 307.543 242.472,306.965 242.445,308.518 243.121 " stroke="none" fill="#acacac" fill-rule="evenodd"></path></g></svg>