<svg id="svg" version="1.1" xmlns="http://www.w3.org/2000/svg" xmlns:xlink="http://www.w3.org/1999/xlink" width="400" height="314.2857142857143" viewBox="0, 0, 400,314.2857142857143"><g id="svgg"><path id="path0" d="M68.926 46.852 C 68.353 46.988,67.530 47.430,67.099 47.836 C 66.667 48.241,65.735 48.788,65.028 49.051 C 63.975 49.441,63.662 49.756,63.309 50.777 C 63.072 51.463,62.504 52.415,62.048 52.892 C 60.462 54.547,60.601 60.160,62.271 61.907 C 62.786 62.446,63.208 63.178,63.208 63.533 C 63.208 63.899,63.972 64.937,64.976 65.933 C 67.697 68.632,67.664 68.626,83.176 68.842 L 96.384 69.026 98.035 69.907 C 99.930 70.918,100.410 71.688,100.895 74.498 C 101.120 75.800,101.475 76.728,101.899 77.123 C 102.750 77.915,102.977 78.554,103.609 81.925 C 103.989 83.954,104.331 84.920,104.856 85.445 C 105.579 86.168,105.909 87.161,106.611 90.723 C 106.816 91.761,107.234 92.893,107.540 93.239 C 108.452 94.268,108.713 94.983,109.267 97.956 C 109.592 99.700,110.021 101.029,110.385 101.419 C 111.218 102.311,111.841 103.957,112.111 105.975 C 112.394 108.094,112.751 109.081,113.540 109.923 C 114.098 110.518,114.813 112.968,115.246 115.761 C 115.343 116.386,115.775 117.306,116.207 117.805 C 117.057 118.786,117.382 119.766,117.938 123.021 C 118.178 124.425,118.542 125.392,119.025 125.914 C 119.878 126.834,120.251 127.928,120.790 131.095 C 121.013 132.410,121.414 133.637,121.713 133.925 C 122.589 134.768,122.936 135.682,123.592 138.870 C 123.936 140.545,124.401 142.071,124.625 142.263 C 125.520 143.028,125.803 143.733,126.391 146.656 C 126.828 148.829,127.229 149.972,127.787 150.635 C 128.240 151.173,128.723 152.328,128.933 153.377 C 129.723 157.319,129.938 158.004,130.655 158.856 C 131.069 159.348,131.562 160.547,131.765 161.553 C 132.573 165.555,132.777 166.352,132.992 166.352 C 133.549 166.352,134.577 168.947,135.003 171.429 C 135.333 173.353,135.666 174.345,136.143 174.822 C 137.032 175.711,137.302 176.481,137.873 179.752 C 138.211 181.688,138.542 182.665,139.006 183.097 C 139.862 183.895,140.209 184.847,140.743 187.867 C 141.007 189.357,141.423 190.620,141.779 191.012 C 142.725 192.052,142.983 192.745,143.542 195.734 C 143.912 197.716,144.293 198.812,144.832 199.454 C 145.607 200.373,145.742 200.765,146.032 202.930 C 146.476 206.235,146.491 206.232,130.346 206.396 C 117.055 206.531,114.151 206.735,114.151 207.534 C 114.151 207.870,111.062 209.434,110.397 209.434 C 110.130 209.434,109.414 209.933,108.808 210.542 C 108.201 211.152,106.763 212.555,105.613 213.660 C 104.324 214.898,103.443 216.025,103.318 216.596 C 103.206 217.105,102.707 217.912,102.208 218.389 C 99.718 220.775,99.516 237.725,101.962 239.034 C 102.299 239.214,102.865 240.022,103.221 240.829 C 104.021 242.647,108.155 247.261,109.900 248.284 C 110.612 248.701,111.489 249.380,111.848 249.793 C 112.297 250.310,113.195 250.700,114.737 251.048 C 115.967 251.326,117.648 251.863,118.471 252.241 C 120.893 253.353,122.472 253.356,125.832 252.253 C 127.450 251.722,129.693 251.111,130.818 250.896 C 132.489 250.575,133.023 250.314,133.749 249.466 C 134.238 248.895,134.831 248.428,135.068 248.428 C 135.716 248.428,139.146 244.934,139.752 243.657 C 140.043 243.043,140.593 242.398,140.974 242.224 C 141.526 241.972,141.786 241.363,142.254 239.222 C 142.577 237.744,143.173 235.951,143.579 235.237 C 143.984 234.524,144.468 233.060,144.653 231.985 C 145.070 229.566,145.452 228.784,146.433 228.337 C 147.747 227.738,255.355 227.851,256.794 228.453 C 258.834 229.305,259.680 231.020,260.367 235.692 C 260.545 236.903,260.768 238.352,260.862 238.913 C 260.957 239.473,261.525 240.464,262.125 241.114 C 262.725 241.764,263.363 242.836,263.544 243.496 C 263.774 244.338,264.188 244.883,264.930 245.320 C 265.512 245.664,266.128 246.347,266.299 246.838 C 266.516 247.460,266.952 247.844,267.734 248.102 C 268.352 248.306,269.179 248.879,269.570 249.376 C 270.165 250.128,270.884 250.435,273.899 251.221 C 275.888 251.740,278.042 252.385,278.685 252.655 C 280.339 253.348,281.988 253.264,284.177 252.375 C 285.880 251.682,286.997 251.363,289.679 250.804 C 290.143 250.707,291.041 250.139,291.674 249.542 C 292.308 248.944,293.453 248.152,294.220 247.780 C 295.002 247.402,295.816 246.716,296.073 246.219 C 296.325 245.731,296.962 245.026,297.488 244.651 C 298.014 244.277,298.807 243.256,299.249 242.383 C 299.691 241.511,300.452 240.426,300.940 239.974 C 301.645 239.320,301.935 238.612,302.357 236.520 C 302.648 235.073,303.153 233.092,303.480 232.118 C 304.252 229.809,304.237 229.163,303.321 225.529 C 302.899 223.854,302.388 221.522,302.185 220.346 C 301.900 218.691,301.650 218.099,301.081 217.725 C 300.676 217.460,299.914 216.479,299.387 215.546 C 298.770 214.452,297.713 213.285,296.417 212.267 C 295.310 211.397,294.326 210.482,294.231 210.234 C 294.136 209.986,293.340 209.569,292.463 209.309 C 291.586 209.048,290.228 208.376,289.446 207.814 C 287.376 206.327,287.737 206.336,225.306 206.311 C 176.915 206.292,169.551 206.229,168.978 205.828 C 168.611 205.571,168.059 204.530,167.729 203.472 C 167.404 202.430,167.035 201.576,166.909 201.575 C 166.366 201.569,165.427 198.973,165.098 196.569 C 164.718 193.792,164.559 193.317,163.358 191.352 C 162.363 189.725,162.261 186.863,163.169 186.042 C 163.955 185.330,164.475 185.278,174.686 184.899 C 180.495 184.683,184.721 184.365,187.107 183.965 C 192.454 183.068,197.517 182.741,211.321 182.400 C 228.519 181.975,231.724 181.806,235.692 181.117 C 240.417 180.296,245.861 179.916,257.638 179.584 C 268.731 179.271,268.310 179.357,270.178 176.997 C 270.755 176.269,271.693 175.207,272.263 174.636 C 272.856 174.043,273.495 172.942,273.756 172.064 C 274.007 171.220,274.640 169.991,275.163 169.332 C 275.687 168.673,276.190 167.769,276.283 167.322 C 276.798 164.828,277.195 163.812,277.994 162.936 C 278.580 162.295,279.009 161.343,279.250 160.148 C 279.636 158.243,280.251 157.018,281.144 156.380 C 281.437 156.170,281.765 155.462,281.873 154.807 C 282.249 152.531,282.744 151.235,283.621 150.227 C 284.143 149.628,284.705 148.415,284.996 147.258 C 285.468 145.379,286.400 143.396,286.810 143.396 C 287.135 143.396,287.643 142.055,288.037 140.159 C 288.292 138.931,288.694 138.084,289.318 137.460 C 289.984 136.794,290.368 135.932,290.752 134.244 C 291.142 132.531,291.506 131.723,292.166 131.107 C 292.822 130.493,293.189 129.684,293.570 128.007 C 293.924 126.454,294.373 125.412,294.995 124.703 C 295.550 124.072,296.103 122.887,296.415 121.661 C 297.004 119.352,297.602 118.066,298.258 117.699 C 298.511 117.557,298.952 116.524,299.237 115.403 C 299.839 113.044,300.335 111.997,301.190 111.282 C 301.579 110.957,301.948 109.989,302.208 108.614 C 302.519 106.965,302.834 106.237,303.547 105.524 C 304.229 104.842,304.629 103.966,305.032 102.274 C 305.394 100.755,305.861 99.666,306.388 99.114 C 306.864 98.614,307.442 97.365,307.806 96.045 C 308.144 94.822,308.881 92.935,309.443 91.854 C 310.799 89.250,310.661 85.131,309.108 81.845 C 308.595 80.760,308.176 79.648,308.176 79.375 C 308.176 78.254,304.662 75.376,302.987 75.125 C 302.123 74.995,262.075 74.873,213.994 74.855 C 146.040 74.828,126.426 74.735,125.913 74.439 C 125.161 74.003,123.532 72.178,123.014 71.191 C 122.823 70.826,122.439 69.000,122.162 67.135 C 121.785 64.596,121.473 63.497,120.921 62.767 C 120.084 61.660,119.630 60.120,119.336 57.390 C 119.055 54.779,118.669 53.676,117.728 52.798 C 117.283 52.383,116.648 51.513,116.315 50.865 C 115.983 50.216,115.536 49.684,115.324 49.682 C 114.693 49.677,111.819 48.252,111.208 47.641 C 110.898 47.331,110.053 46.962,109.331 46.822 C 107.649 46.497,70.312 46.524,68.926 46.852 M279.775 96.871 C 281.274 97.431,281.735 98.296,281.253 99.644 C 281.029 100.272,280.839 101.027,280.831 101.321 C 280.791 102.899,280.031 105.189,279.255 106.078 C 278.667 106.751,278.212 107.833,277.856 109.404 C 277.281 111.943,276.960 112.710,276.056 113.705 C 275.588 114.220,274.563 117.744,274.534 118.936 C 274.531 119.059,274.106 119.642,273.589 120.230 C 272.916 120.997,272.516 121.939,272.174 123.563 C 271.662 125.998,271.314 126.844,270.420 127.830 C 270.107 128.176,269.679 129.167,269.469 130.031 C 269.259 130.896,268.957 132.150,268.799 132.818 C 268.640 133.486,268.169 134.349,267.752 134.736 C 267.223 135.226,266.848 136.127,266.515 137.709 C 266.002 140.149,265.654 140.995,264.760 141.981 C 264.241 142.554,264.036 143.183,263.142 146.956 C 262.985 147.616,262.456 148.576,261.966 149.089 C 261.368 149.714,261.001 150.511,260.853 151.505 C 260.065 156.784,258.145 157.857,249.475 157.860 C 241.393 157.862,229.800 158.437,227.189 158.965 C 222.258 159.961,219.222 160.134,191.195 161.013 C 185.401 161.195,180.088 161.474,179.389 161.634 C 176.516 162.289,170.476 162.886,163.279 163.225 C 154.544 163.637,154.685 163.668,153.293 161.079 C 152.852 160.261,152.220 159.164,151.888 158.641 C 151.556 158.118,151.070 156.368,150.808 154.752 C 150.455 152.568,150.092 151.437,149.392 150.347 C 148.675 149.230,148.332 148.134,147.950 145.745 C 147.599 143.544,147.224 142.282,146.691 141.507 C 145.735 140.117,145.402 139.093,144.987 136.264 C 144.615 133.733,144.323 132.910,143.381 131.740 C 142.936 131.188,142.578 129.948,142.244 127.810 C 141.878 125.457,141.538 124.350,140.869 123.328 C 139.960 121.939,139.530 120.419,139.141 117.214 C 138.984 115.927,138.665 115.081,138.037 114.291 C 137.142 113.165,136.710 111.694,136.310 108.408 C 136.189 107.411,135.844 106.279,135.542 105.892 C 133.599 103.397,132.967 98.766,134.377 97.356 L 135.192 96.541 207.041 96.541 C 256.509 96.541,279.166 96.644,279.775 96.871 " stroke="none" fill="#5e5e5e" fill-rule="evenodd"></path><path id="path1" d="M0.000 157.233 L 0.000 314.465 200.000 314.465 L 400.000 314.465 400.000 157.233 L 400.000 0.000 200.000 0.000 L 0.000 0.000 0.000 157.233 M112.543 45.166 C 113.085 45.274,114.093 45.911,114.783 46.581 C 115.474 47.251,116.206 47.799,116.411 47.799 C 116.869 47.799,118.239 49.052,118.239 49.471 C 118.239 49.639,118.740 50.216,119.352 50.753 C 120.359 51.636,120.504 51.976,120.869 54.317 C 121.092 55.740,121.494 57.155,121.762 57.462 C 122.683 58.511,123.259 60.010,123.445 61.844 C 123.759 64.927,124.255 67.110,124.772 67.695 C 125.044 68.001,125.635 68.991,126.087 69.896 L 126.909 71.541 213.691 71.698 C 295.773 71.847,300.523 71.885,301.415 72.408 C 301.934 72.713,303.311 73.155,304.476 73.391 C 307.104 73.924,307.783 74.362,309.246 76.471 C 309.885 77.392,310.745 78.612,311.158 79.183 C 312.143 80.545,312.359 82.472,312.210 88.578 C 312.084 93.738,311.915 94.473,310.560 95.755 C 310.150 96.143,309.677 97.316,309.323 98.824 C 308.901 100.620,308.510 101.504,307.843 102.172 C 307.273 102.741,306.814 103.647,306.610 104.605 C 306.431 105.445,306.207 106.472,306.112 106.888 C 306.017 107.303,305.520 108.034,305.007 108.513 C 304.316 109.159,303.989 109.853,303.738 111.210 C 303.340 113.368,302.738 114.639,301.906 115.084 C 301.502 115.300,301.186 116.004,300.948 117.216 C 300.459 119.711,300.022 120.726,299.207 121.260 C 298.713 121.584,298.392 122.287,298.106 123.673 C 297.654 125.865,296.728 127.935,296.090 128.180 C 295.858 128.269,295.502 129.005,295.300 129.816 C 295.097 130.626,294.800 131.795,294.640 132.413 C 294.479 133.031,293.921 133.917,293.400 134.381 C 292.879 134.845,292.453 135.429,292.453 135.679 C 292.453 137.334,291.657 139.512,290.686 140.511 C 290.101 141.113,289.623 141.790,289.623 142.014 C 289.623 143.523,288.814 145.825,287.997 146.642 C 287.354 147.285,286.938 148.174,286.603 149.618 C 286.056 151.978,285.559 153.055,284.630 153.896 C 284.269 154.222,283.889 155.000,283.785 155.625 C 283.425 157.779,282.942 158.965,282.033 159.926 C 281.363 160.634,281.028 161.419,280.771 162.880 C 280.504 164.392,280.173 165.143,279.391 166.009 C 278.624 166.859,278.262 167.664,277.965 169.187 C 277.646 170.820,277.358 171.419,276.519 172.192 C 275.943 172.723,275.470 173.360,275.469 173.607 C 275.462 174.567,273.935 177.305,273.294 177.508 C 272.929 177.624,272.358 178.254,272.024 178.909 C 271.250 180.425,270.478 180.730,266.034 181.274 C 264.047 181.517,261.431 181.930,260.220 182.192 C 256.650 182.963,250.728 183.310,235.220 183.656 C 219.404 184.009,214.884 184.268,211.478 185.018 C 207.947 185.795,202.515 186.137,188.480 186.466 C 173.816 186.810,166.921 187.063,166.720 187.263 C 165.749 188.234,166.542 195.444,167.753 196.655 C 168.483 197.385,169.177 199.230,169.181 200.449 C 169.185 202.010,169.889 203.075,171.042 203.266 C 171.662 203.368,196.722 203.456,226.730 203.460 C 279.556 203.467,281.350 203.486,283.206 204.068 C 284.260 204.399,286.171 204.763,287.451 204.876 C 290.417 205.140,291.673 205.530,292.369 206.401 C 292.675 206.784,293.632 207.361,294.497 207.684 C 295.426 208.031,296.584 208.811,297.327 209.592 C 298.019 210.319,298.838 211.002,299.147 211.111 C 299.456 211.221,299.951 211.769,300.247 212.330 C 300.544 212.891,301.227 213.778,301.766 214.301 C 302.977 215.476,303.346 216.172,303.776 218.094 C 303.964 218.930,304.519 220.062,305.023 220.636 C 307.122 223.027,307.003 234.835,304.854 237.389 C 304.419 237.905,303.852 239.150,303.594 240.154 C 303.257 241.466,302.816 242.277,302.028 243.029 C 301.424 243.606,300.728 244.562,300.480 245.154 C 300.226 245.761,299.688 246.361,299.244 246.529 C 298.812 246.694,298.229 247.270,297.950 247.810 C 297.669 248.353,296.982 248.984,296.413 249.222 C 295.846 249.459,295.013 250.138,294.560 250.731 C 293.904 251.592,293.318 251.923,291.662 252.372 C 290.520 252.681,289.406 253.190,289.186 253.504 C 287.588 255.785,275.114 255.897,272.420 253.654 C 271.936 253.252,270.792 252.676,269.878 252.375 C 268.812 252.025,267.972 251.500,267.539 250.914 C 267.167 250.411,266.670 250.000,266.434 250.000 C 265.701 250.000,262.029 246.044,261.802 245.010 C 261.680 244.459,261.331 243.971,260.976 243.858 C 260.101 243.580,259.553 242.578,259.093 240.409 C 258.872 239.371,258.374 238.134,257.984 237.659 C 257.185 236.685,257.077 236.387,256.645 233.962 C 256.475 233.011,256.188 231.844,256.006 231.368 L 255.676 230.503 201.438 230.503 L 147.199 230.503 146.872 231.682 C 146.692 232.331,146.544 233.275,146.543 233.779 C 146.538 236.140,145.824 238.777,144.938 239.704 C 144.056 240.627,143.952 240.843,143.581 242.514 C 143.478 242.980,142.849 243.990,142.185 244.757 C 141.521 245.525,140.673 246.645,140.301 247.247 C 139.930 247.848,139.037 248.748,138.318 249.247 C 137.598 249.745,136.592 250.544,136.080 251.021 C 135.569 251.499,134.383 252.113,133.445 252.385 C 132.506 252.658,131.406 253.214,131.000 253.620 C 128.697 255.923,116.228 255.797,113.823 253.446 C 113.300 252.935,112.567 252.516,112.195 252.516 C 111.181 252.516,108.859 251.294,108.656 250.654 C 108.558 250.346,107.808 249.728,106.990 249.281 C 106.108 248.800,105.274 248.041,104.941 247.417 C 104.631 246.839,104.066 246.228,103.685 246.060 C 103.303 245.892,102.656 245.047,102.248 244.183 C 101.839 243.318,101.052 242.111,100.500 241.500 C 99.701 240.615,99.412 239.908,99.085 238.040 C 98.859 236.749,98.424 235.409,98.118 235.063 C 96.979 233.773,96.818 233.021,96.833 229.049 C 96.848 225.149,97.491 222.327,98.364 222.327 C 98.521 222.327,98.816 221.322,99.019 220.094 C 99.419 217.673,100.026 216.216,100.752 215.937 C 101.005 215.840,101.494 215.122,101.840 214.341 C 102.881 211.987,107.803 207.547,109.372 207.547 C 109.602 207.547,110.245 207.065,110.801 206.476 C 111.593 205.636,112.148 205.361,113.374 205.202 C 117.183 204.707,119.356 204.298,120.323 203.894 C 121.135 203.555,123.572 203.459,131.429 203.459 L 141.495 203.459 142.010 202.673 C 142.766 201.519,141.897 196.328,140.756 195.187 C 139.970 194.401,139.314 192.594,139.308 191.195 C 139.302 189.752,138.616 187.904,137.699 186.860 C 137.201 186.292,136.792 185.726,136.791 185.602 C 136.785 184.473,135.802 179.701,135.558 179.620 C 134.823 179.375,133.954 177.291,133.499 174.685 C 133.183 172.873,132.797 171.659,132.401 171.238 C 131.468 170.245,130.866 168.538,130.627 166.211 C 130.447 164.449,130.237 163.892,129.356 162.838 C 128.776 162.144,128.302 161.518,128.302 161.448 C 128.302 159.718,127.173 155.361,126.555 154.708 C 125.648 153.750,125.315 152.786,124.823 149.686 C 124.538 147.888,124.240 147.089,123.571 146.324 C 122.734 145.367,122.389 144.229,121.844 140.634 C 121.731 139.893,121.320 138.902,120.929 138.432 C 119.780 137.050,118.868 133.884,118.868 131.277 C 118.868 131.210,118.462 130.689,117.967 130.121 C 116.911 128.911,116.781 128.544,116.376 125.656 C 116.153 124.066,115.817 123.130,115.128 122.170 C 114.186 120.858,113.722 119.392,113.361 116.590 C 113.250 115.726,112.866 114.732,112.449 114.231 C 111.313 112.865,111.087 112.264,110.660 109.474 C 110.351 107.457,110.056 106.601,109.375 105.744 C 108.395 104.510,107.989 103.265,107.666 100.506 C 107.509 99.156,107.222 98.388,106.608 97.676 C 105.555 96.453,105.412 96.058,104.844 92.797 C 104.478 90.703,104.189 89.934,103.449 89.091 C 102.936 88.507,102.516 87.910,102.516 87.766 C 102.516 85.771,101.435 81.845,100.634 80.933 C 100.130 80.358,99.641 79.425,99.549 78.859 C 98.355 71.529,99.545 72.013,82.683 72.013 C 69.500 72.013,67.610 71.851,67.610 70.722 C 67.610 70.570,66.713 70.040,65.617 69.543 C 64.145 68.876,63.385 68.293,62.709 67.315 C 62.205 66.587,61.337 65.428,60.780 64.739 C 59.192 62.774,58.424 55.724,59.419 52.254 C 59.912 50.533,63.635 46.473,65.713 45.388 C 66.556 44.948,110.414 44.740,112.543 45.166 M137.540 98.983 C 136.989 99.342,136.710 101.145,137.093 101.861 C 137.282 102.213,137.651 103.942,137.915 105.703 C 138.281 108.155,138.568 109.113,139.138 109.791 C 140.076 110.905,140.449 112.083,140.869 115.252 C 141.090 116.917,141.417 118.033,141.836 118.553 C 142.888 119.858,143.309 121.092,143.689 123.985 C 144.089 127.039,144.264 127.673,144.705 127.673 C 145.279 127.673,146.187 130.369,146.558 133.176 C 146.868 135.520,147.084 136.179,147.811 137.009 C 148.704 138.029,149.140 139.575,149.554 143.185 C 149.681 144.292,149.982 145.225,150.314 145.543 C 151.323 146.509,151.859 148.009,152.231 150.914 C 152.528 153.231,152.766 154.002,153.449 154.861 C 153.915 155.448,154.549 156.860,154.857 157.999 C 155.553 160.568,155.223 160.419,159.384 160.054 C 161.307 159.885,170.984 159.533,180.890 159.273 C 194.617 158.911,199.306 158.688,200.610 158.332 C 204.532 157.264,212.436 156.775,233.648 156.291 C 243.717 156.062,247.783 155.859,249.057 155.525 C 250.008 155.275,251.914 154.917,253.291 154.730 C 255.494 154.431,255.967 154.245,257.208 153.193 C 258.638 151.981,258.755 151.726,259.444 148.285 C 259.714 146.938,260.070 146.179,260.710 145.580 C 261.407 144.930,261.681 144.277,261.972 142.579 C 262.388 140.143,262.653 139.496,263.693 138.365 C 264.168 137.848,264.590 136.728,264.924 135.100 C 265.495 132.313,265.771 131.669,266.664 131.043 C 267.100 130.738,267.426 129.878,267.752 128.172 C 268.188 125.893,269.221 123.585,269.806 123.585 C 270.056 123.585,270.513 121.850,270.914 119.381 C 271.039 118.613,271.494 117.770,272.148 117.097 C 272.977 116.244,273.226 115.679,273.390 114.281 C 273.634 112.209,274.237 110.657,275.280 109.418 C 275.790 108.811,276.163 107.786,276.414 106.296 C 276.711 104.535,277.015 103.806,277.886 102.763 C 278.772 101.703,278.949 101.270,278.800 100.528 C 278.699 100.021,278.616 99.412,278.616 99.175 C 278.616 98.699,138.266 98.508,137.540 98.983 " stroke="none" fill="#fbfbfb" fill-rule="evenodd"></path><path id="path2" d="M69.627 45.576 C 67.845 45.713,66.821 45.957,66.205 46.392 C 65.721 46.733,64.778 47.373,64.110 47.813 C 63.443 48.254,62.475 49.244,61.960 50.014 C 61.445 50.785,60.772 51.761,60.465 52.183 C 59.540 53.453,59.643 61.252,60.600 62.477 C 60.983 62.965,61.712 64.081,62.220 64.956 C 63.468 67.102,64.845 68.241,68.047 69.777 L 70.742 71.069 83.114 71.069 C 99.104 71.069,98.760 70.972,99.811 75.766 C 100.093 77.053,100.676 78.706,101.106 79.440 C 101.536 80.175,102.183 82.023,102.543 83.548 C 102.903 85.073,103.593 87.028,104.076 87.893 C 104.559 88.758,105.188 90.527,105.474 91.824 C 105.759 93.121,106.415 94.993,106.930 95.983 C 107.445 96.973,108.077 98.781,108.333 100.000 C 108.590 101.219,109.218 103.027,109.730 104.017 C 110.241 105.007,110.895 106.879,111.181 108.176 C 111.468 109.473,112.098 111.242,112.581 112.107 C 113.064 112.972,113.702 114.811,113.999 116.195 C 114.296 117.579,114.953 119.446,115.459 120.345 C 115.965 121.243,116.585 122.967,116.837 124.176 C 117.378 126.770,117.800 127.958,118.427 128.651 C 118.680 128.930,119.245 130.609,119.682 132.381 C 120.120 134.154,120.819 136.120,121.236 136.751 C 121.656 137.385,122.222 139.021,122.504 140.411 C 122.784 141.793,123.426 143.668,123.931 144.576 C 124.436 145.484,125.132 147.443,125.479 148.929 C 125.825 150.415,126.454 152.220,126.876 152.940 C 127.298 153.660,127.931 155.486,128.284 156.998 C 128.636 158.510,129.338 160.491,129.843 161.399 C 130.349 162.307,130.926 163.899,131.128 164.937 C 131.329 165.975,131.961 167.814,132.533 169.025 C 133.105 170.236,133.741 172.075,133.946 173.113 C 134.152 174.151,134.800 175.991,135.387 177.201 C 135.974 178.412,136.676 180.459,136.948 181.750 C 137.219 183.042,137.813 184.733,138.268 185.509 C 138.723 186.285,139.423 188.246,139.825 189.865 C 140.226 191.485,140.839 193.211,141.187 193.700 C 141.535 194.189,142.036 195.488,142.300 196.587 C 142.564 197.686,142.987 199.363,143.240 200.314 C 144.547 205.232,145.639 204.703,134.119 204.724 C 120.483 204.749,114.158 205.343,112.184 206.785 C 111.623 207.195,110.456 207.874,109.591 208.294 C 107.614 209.256,103.486 213.051,102.665 214.662 C 102.323 215.332,101.661 216.338,101.193 216.897 C 100.306 217.958,100.205 218.248,98.903 223.503 C 97.797 227.960,97.648 229.969,98.266 232.075 C 98.544 233.027,99.101 235.123,99.503 236.733 C 100.001 238.726,100.487 239.932,101.026 240.507 C 101.461 240.972,102.137 241.989,102.527 242.767 C 103.369 244.449,106.463 247.908,108.107 249.008 C 108.751 249.438,109.724 250.176,110.272 250.648 C 110.819 251.120,111.810 251.677,112.473 251.886 C 113.136 252.095,114.599 252.711,115.723 253.256 C 118.651 254.673,126.204 254.769,128.774 253.420 C 129.638 252.966,131.156 252.340,132.147 252.028 C 133.188 251.701,134.416 251.021,135.057 250.416 C 135.666 249.841,136.308 249.371,136.483 249.371 C 136.856 249.371,140.566 245.607,140.566 245.229 C 140.566 245.087,141.041 244.439,141.622 243.790 C 142.203 243.141,142.860 242.044,143.081 241.352 C 143.302 240.660,143.897 239.267,144.403 238.255 C 144.969 237.125,145.500 235.323,145.782 233.583 C 146.034 232.026,146.383 230.483,146.559 230.155 C 146.897 229.523,255.221 229.191,256.211 229.819 C 256.622 230.080,258.289 234.785,259.550 239.247 C 260.064 241.066,260.578 242.164,261.241 242.864 C 261.765 243.416,262.411 244.292,262.677 244.811 C 262.942 245.330,263.665 246.226,264.284 246.802 C 264.903 247.378,265.409 247.968,265.409 248.113 C 265.409 248.258,265.939 248.701,266.588 249.097 C 267.237 249.493,268.135 250.180,268.584 250.622 C 269.032 251.065,270.235 251.689,271.256 252.009 C 272.278 252.328,273.730 252.950,274.483 253.389 C 276.886 254.789,286.239 254.727,287.421 253.302 C 287.620 253.062,288.685 252.566,289.787 252.199 C 290.889 251.832,292.258 251.189,292.829 250.770 C 293.400 250.350,294.434 249.616,295.126 249.137 C 296.610 248.110,299.486 245.062,300.800 243.124 C 302.405 240.754,303.134 239.480,303.139 239.033 C 303.142 238.796,303.675 237.451,304.324 236.046 L 305.503 233.491 305.498 228.931 C 305.492 224.501,305.464 224.308,304.504 222.170 C 303.961 220.959,303.361 219.386,303.172 218.674 C 302.983 217.963,302.416 216.861,301.912 216.227 C 301.408 215.593,300.545 214.371,299.993 213.512 C 299.442 212.653,298.886 211.950,298.758 211.950 C 298.630 211.950,297.704 211.231,296.701 210.353 C 295.697 209.475,294.154 208.418,293.271 208.005 C 292.389 207.591,291.313 206.966,290.881 206.615 C 288.792 204.922,288.746 204.920,226.730 204.732 L 169.654 204.560 168.693 201.730 C 168.164 200.173,167.485 198.524,167.184 198.066 C 166.882 197.608,166.360 195.910,166.024 194.293 C 165.688 192.675,165.151 190.414,164.832 189.267 L 164.251 187.182 165.380 186.824 C 166.001 186.628,170.613 186.328,175.629 186.159 C 188.185 185.734,196.272 185.285,201.101 184.744 C 208.060 183.966,212.876 183.676,227.201 183.173 C 240.708 182.699,246.152 182.374,250.943 181.755 C 252.241 181.588,256.486 181.231,260.377 180.962 C 269.351 180.341,269.712 180.251,271.439 178.192 C 272.186 177.301,273.080 176.243,273.425 175.841 C 273.771 175.439,274.308 174.462,274.620 173.668 C 274.932 172.875,275.529 171.818,275.949 171.320 C 276.368 170.822,276.994 169.462,277.341 168.298 C 277.687 167.134,278.332 165.693,278.774 165.094 C 279.215 164.496,279.856 163.068,280.197 161.921 C 280.539 160.774,281.193 159.285,281.651 158.612 C 282.109 157.940,282.795 156.382,283.176 155.150 C 283.557 153.918,284.228 152.432,284.666 151.848 C 285.104 151.264,285.704 149.937,285.998 148.899 C 286.292 147.862,286.947 146.384,287.453 145.616 C 287.959 144.848,288.512 143.645,288.682 142.943 C 288.852 142.241,289.275 141.136,289.621 140.487 C 289.968 139.839,290.535 138.778,290.882 138.129 C 291.228 137.480,291.653 136.368,291.826 135.656 C 291.998 134.945,292.514 133.813,292.972 133.141 C 293.429 132.468,294.147 130.869,294.568 129.586 C 294.988 128.303,295.660 126.817,296.062 126.284 C 296.464 125.751,297.087 124.321,297.445 123.107 C 297.804 121.893,298.458 120.410,298.899 119.811 C 299.341 119.213,299.978 117.798,300.314 116.667 C 300.651 115.535,301.288 114.120,301.730 113.522 C 302.171 112.924,302.808 111.509,303.145 110.377 C 303.482 109.246,304.118 107.831,304.560 107.233 C 305.001 106.634,305.656 105.158,306.015 103.953 C 306.374 102.747,307.028 101.289,307.467 100.713 C 307.907 100.137,308.529 98.715,308.850 97.553 C 309.171 96.391,309.718 95.086,310.066 94.654 C 311.344 93.063,311.461 92.433,311.470 87.107 C 311.477 82.285,311.429 81.840,310.782 80.818 C 310.399 80.212,309.740 79.080,309.316 78.302 C 308.656 77.089,306.800 75.236,305.413 74.405 C 303.561 73.296,301.716 73.273,213.289 73.272 L 127.050 73.270 125.950 71.777 C 124.251 69.470,123.662 68.020,123.112 64.780 C 122.819 63.053,122.223 60.996,121.701 59.906 C 121.203 58.868,120.642 57.099,120.454 55.975 C 119.906 52.704,119.857 52.577,118.626 51.227 C 116.406 48.793,115.344 47.955,112.361 46.285 C 110.740 45.377,79.041 44.851,69.627 45.576 M112.264 46.916 C 113.042 47.382,114.346 48.124,115.162 48.567 C 115.977 49.009,116.807 49.689,117.007 50.078 C 117.207 50.468,117.837 51.281,118.407 51.887 C 119.284 52.817,119.524 53.424,119.966 55.818 C 120.253 57.374,120.891 59.568,121.384 60.692 C 121.876 61.816,122.501 64.004,122.771 65.555 C 123.298 68.578,124.261 70.877,125.739 72.642 L 126.661 73.742 214.981 73.899 L 303.302 74.057 304.717 74.717 C 306.093 75.359,309.119 78.251,309.119 78.924 C 309.119 79.108,309.509 79.847,309.984 80.566 C 311.308 82.565,311.330 91.975,310.015 93.711 C 309.557 94.316,308.889 95.768,308.531 96.937 C 308.173 98.106,307.519 99.592,307.077 100.239 C 306.636 100.886,305.998 102.338,305.661 103.466 C 305.324 104.593,304.684 106.008,304.240 106.610 C 303.795 107.212,303.214 108.483,302.947 109.434 C 302.680 110.385,301.996 111.942,301.426 112.893 C 300.857 113.844,300.164 115.412,299.888 116.377 C 299.611 117.341,299.007 118.686,298.545 119.364 C 298.083 120.042,297.396 121.588,297.018 122.799 C 296.640 124.009,295.961 125.539,295.509 126.198 C 295.057 126.858,294.457 128.202,294.176 129.186 C 293.894 130.170,293.310 131.494,292.876 132.128 C 292.443 132.763,291.810 134.175,291.471 135.267 C 291.131 136.359,290.446 137.892,289.949 138.673 C 289.452 139.455,288.814 140.899,288.531 141.883 C 288.248 142.867,287.647 144.212,287.195 144.871 C 286.743 145.530,286.057 147.087,285.670 148.331 C 285.282 149.575,284.611 151.060,284.177 151.633 C 283.744 152.205,283.149 153.522,282.854 154.560 C 282.560 155.597,281.908 157.076,281.406 157.844 C 280.904 158.613,280.216 160.173,279.877 161.310 C 279.539 162.447,278.901 163.867,278.459 164.465 C 278.018 165.064,277.377 166.493,277.035 167.641 C 276.693 168.790,276.126 170.094,275.775 170.540 C 275.424 170.987,274.799 172.115,274.386 173.049 C 273.973 173.982,273.069 175.401,272.376 176.202 C 271.683 177.002,270.928 177.923,270.699 178.247 C 269.593 179.815,268.365 180.062,259.434 180.515 C 255.715 180.703,251.399 180.990,249.843 181.152 C 242.613 181.907,235.613 182.390,227.516 182.693 C 211.113 183.306,204.262 183.675,198.270 184.269 C 189.783 185.110,188.210 185.210,176.236 185.667 C 162.660 186.184,162.652 186.187,164.485 190.566 C 164.811 191.344,165.355 193.277,165.695 194.860 C 166.034 196.443,166.655 198.424,167.074 199.262 C 167.494 200.101,168.088 201.564,168.393 202.516 C 168.699 203.467,169.165 204.493,169.429 204.796 C 169.883 205.316,172.948 205.346,225.487 205.346 C 287.579 205.346,288.324 205.369,291.016 207.379 C 291.547 207.776,292.618 208.378,293.396 208.717 C 296.922 210.255,302.382 216.538,302.985 219.751 C 303.097 220.347,303.553 221.631,303.998 222.603 C 305.362 225.579,305.431 231.443,304.141 234.667 C 303.612 235.987,303.017 237.678,302.819 238.424 C 302.620 239.170,301.923 240.487,301.268 241.352 C 300.614 242.217,299.898 243.278,299.678 243.711 C 298.630 245.765,292.460 250.822,290.094 251.566 C 289.403 251.783,287.846 252.397,286.635 252.929 C 284.015 254.080,278.659 254.307,276.258 253.369 C 275.566 253.098,273.809 252.437,272.354 251.900 C 270.899 251.363,269.159 250.468,268.487 249.911 C 265.846 247.722,263.259 245.073,262.739 244.025 C 262.438 243.420,261.869 242.571,261.473 242.138 C 260.812 241.416,259.748 238.848,259.748 237.974 C 259.748 236.719,257.399 230.265,256.714 229.638 L 255.940 228.931 201.446 228.931 C 148.757 228.931,146.935 228.950,146.425 229.515 C 146.129 229.841,145.682 231.323,145.412 232.874 C 145.145 234.400,144.527 236.508,144.037 237.557 C 143.547 238.607,142.986 240.062,142.790 240.791 C 141.889 244.149,135.360 250.408,131.366 251.744 C 130.113 252.162,128.708 252.723,128.243 252.989 C 125.863 254.349,119.707 254.269,116.352 252.835 C 115.228 252.355,113.787 251.795,113.150 251.592 C 112.514 251.389,111.452 250.788,110.792 250.256 C 110.132 249.725,108.919 248.871,108.097 248.360 C 107.276 247.849,106.604 247.335,106.604 247.219 C 106.604 247.103,105.804 246.091,104.827 244.971 C 103.850 243.851,102.872 242.507,102.653 241.986 C 102.435 241.464,101.888 240.613,101.437 240.094 C 100.987 239.575,100.495 238.656,100.345 238.050 C 100.194 237.445,99.808 235.888,99.487 234.591 C 98.280 229.716,99.394 219.751,101.384 217.623 C 101.796 217.184,102.417 216.258,102.766 215.566 C 103.695 213.722,108.347 209.325,110.393 208.356 C 111.336 207.910,112.531 207.271,113.050 206.935 C 114.749 205.838,117.649 205.590,131.132 205.386 C 138.310 205.277,144.370 205.067,144.600 204.919 C 145.160 204.558,144.791 201.840,144.000 200.500 C 143.680 199.957,143.195 198.454,142.924 197.162 C 142.653 195.869,142.017 194.014,141.511 193.039 C 141.004 192.064,140.355 190.224,140.067 188.951 C 139.780 187.677,139.142 185.857,138.649 184.906 C 138.157 183.954,137.520 182.115,137.235 180.818 C 136.949 179.520,136.327 177.752,135.853 176.887 C 135.378 176.022,134.681 174.055,134.304 172.515 C 133.927 170.975,133.278 169.135,132.862 168.425 C 132.446 167.715,131.825 165.932,131.482 164.461 C 131.140 162.991,130.506 161.153,130.075 160.375 C 129.644 159.598,129.009 157.822,128.665 156.428 C 128.320 155.034,127.619 153.053,127.107 152.025 C 126.594 150.998,125.944 149.105,125.662 147.819 C 125.379 146.532,124.798 144.883,124.371 144.153 C 123.943 143.423,123.306 141.597,122.956 140.094 C 122.606 138.592,121.969 136.764,121.540 136.034 C 121.112 135.303,120.468 133.512,120.110 132.054 C 119.752 130.595,119.062 128.624,118.578 127.673 C 118.094 126.722,117.470 124.921,117.192 123.670 C 116.915 122.420,116.265 120.581,115.749 119.582 C 115.234 118.584,114.578 116.706,114.293 115.409 C 114.007 114.112,113.438 112.466,113.028 111.751 C 112.617 111.037,111.926 109.085,111.492 107.414 C 111.058 105.743,110.361 103.781,109.942 103.053 C 109.524 102.325,108.949 100.668,108.663 99.371 C 108.378 98.074,107.732 96.215,107.229 95.240 C 106.725 94.265,106.078 92.426,105.790 91.152 C 105.503 89.878,104.865 88.058,104.372 87.107 C 103.880 86.156,103.243 84.316,102.958 83.019 C 102.672 81.722,102.041 79.952,101.555 79.087 C 101.069 78.222,100.431 76.454,100.136 75.159 C 99.074 70.489,99.739 70.675,83.333 70.452 L 70.283 70.275 67.925 69.132 C 65.545 67.979,63.447 66.133,62.442 64.308 C 62.157 63.789,61.586 62.900,61.174 62.332 C 58.772 59.018,60.524 50.768,64.113 48.496 C 64.566 48.209,65.432 47.591,66.038 47.122 C 67.551 45.950,66.603 45.994,89.937 46.033 L 110.849 46.069 112.264 46.916 M135.051 98.013 C 134.302 98.761,134.574 101.378,135.604 103.348 C 136.050 104.202,136.715 106.284,137.082 107.975 C 137.448 109.667,138.107 111.759,138.545 112.624 C 138.983 113.489,139.610 115.450,139.937 116.981 C 140.264 118.512,140.891 120.473,141.329 121.338 C 141.768 122.203,142.424 124.285,142.788 125.963 C 143.151 127.642,143.845 129.810,144.329 130.781 C 144.814 131.753,145.384 133.538,145.596 134.748 C 145.809 135.959,146.449 138.011,147.019 139.308 C 147.588 140.605,148.283 142.794,148.563 144.172 C 148.842 145.551,149.481 147.532,149.982 148.575 C 150.483 149.618,151.126 151.640,151.411 153.069 C 151.950 155.768,154.259 161.134,155.262 162.017 C 155.837 162.523,160.513 162.300,169.182 161.351 C 173.194 160.913,181.484 160.443,189.151 160.220 C 199.847 159.909,208.388 159.439,214.780 158.810 C 222.916 158.009,229.561 157.618,241.509 157.236 C 258.195 156.702,259.028 156.408,260.212 150.629 C 260.336 150.024,260.865 148.758,261.387 147.817 C 261.910 146.876,262.612 145.107,262.947 143.886 C 263.283 142.665,263.901 141.143,264.321 140.502 C 264.741 139.861,265.362 138.335,265.701 137.111 C 266.040 135.887,266.738 134.147,267.253 133.244 C 267.767 132.342,268.421 130.684,268.706 129.560 C 268.991 128.436,269.566 126.992,269.984 126.351 C 270.402 125.710,271.022 124.184,271.361 122.960 C 271.701 121.736,272.399 119.996,272.913 119.093 C 273.427 118.191,274.083 116.533,274.371 115.409 C 274.659 114.285,275.302 112.649,275.800 111.775 C 276.298 110.901,276.916 109.380,277.172 108.395 C 277.429 107.410,277.854 106.215,278.117 105.739 C 280.102 102.154,280.716 99.217,279.712 98.108 C 278.897 97.207,135.951 97.113,135.051 98.013 M278.951 98.124 C 280.152 98.767,279.609 102.570,278.030 104.577 C 277.698 104.999,277.183 106.370,276.885 107.625 C 276.587 108.879,275.990 110.431,275.558 111.074 C 275.126 111.716,274.451 113.384,274.057 114.780 C 273.663 116.176,272.984 117.844,272.548 118.486 C 272.112 119.129,271.459 120.755,271.096 122.100 C 270.734 123.446,270.090 125.073,269.665 125.717 C 269.240 126.360,268.664 127.807,268.386 128.931 C 268.107 130.055,267.476 131.639,266.983 132.451 C 266.489 133.263,265.784 135.032,265.416 136.382 C 265.048 137.732,264.381 139.366,263.935 140.014 C 263.489 140.662,262.921 142.072,262.673 143.146 C 262.424 144.221,261.748 145.955,261.171 147.000 C 260.593 148.045,259.894 149.819,259.617 150.943 C 259.020 153.369,256.722 155.781,254.717 156.088 C 253.462 156.279,242.774 156.766,229.403 157.241 C 220.352 157.563,215.080 157.917,210.849 158.489 C 207.013 159.008,199.621 159.424,185.535 159.915 C 171.622 160.400,168.004 160.628,160.282 161.505 C 155.515 162.047,155.381 162.018,154.702 160.288 C 154.483 159.732,153.827 158.261,153.242 157.020 C 152.658 155.779,151.969 153.657,151.711 152.303 C 151.454 150.950,150.820 148.964,150.303 147.890 C 149.787 146.815,149.094 144.597,148.765 142.959 C 148.424 141.266,147.817 139.387,147.358 138.603 C 146.898 137.818,146.338 136.082,146.057 134.571 C 145.785 133.112,145.144 131.037,144.631 129.959 C 144.118 128.882,143.438 126.735,143.121 125.188 C 142.804 123.641,142.165 121.651,141.703 120.766 C 141.240 119.881,140.587 117.824,140.252 116.195 C 139.916 114.566,139.284 112.548,138.846 111.711 C 138.408 110.873,137.760 108.851,137.406 107.216 C 137.053 105.582,136.423 103.590,136.008 102.789 C 135.118 101.072,134.871 98.526,135.553 98.095 C 136.216 97.676,278.168 97.705,278.951 98.124 " stroke="none" fill="#b4b4b4" fill-rule="evenodd"></path><path id="path3" d="M65.713 45.388 C 63.635 46.473,59.912 50.533,59.419 52.254 C 58.424 55.724,59.192 62.774,60.780 64.739 C 61.337 65.428,62.205 66.587,62.709 67.315 C 63.385 68.293,64.145 68.876,65.617 69.543 C 66.713 70.040,67.610 70.570,67.610 70.722 C 67.610 71.851,69.500 72.013,82.683 72.013 C 99.545 72.013,98.355 71.529,99.549 78.859 C 99.641 79.425,100.130 80.358,100.634 80.933 C 101.435 81.845,102.516 85.771,102.516 87.766 C 102.516 87.910,102.936 88.507,103.449 89.091 C 104.189 89.934,104.478 90.703,104.844 92.797 C 105.412 96.058,105.555 96.453,106.608 97.676 C 107.222 98.388,107.509 99.156,107.666 100.506 C 107.989 103.265,108.395 104.510,109.375 105.744 C 110.056 106.601,110.351 107.457,110.660 109.474 C 111.087 112.264,111.313 112.865,112.449 114.231 C 112.866 114.732,113.250 115.726,113.361 116.590 C 113.722 119.392,114.186 120.858,115.128 122.170 C 115.817 123.130,116.153 124.066,116.376 125.656 C 116.781 128.544,116.911 128.911,117.967 130.121 C 118.462 130.689,118.868 131.210,118.868 131.277 C 118.868 133.884,119.780 137.050,120.929 138.432 C 121.320 138.902,121.731 139.893,121.844 140.634 C 122.389 144.229,122.734 145.367,123.571 146.324 C 124.240 147.089,124.538 147.888,124.823 149.686 C 125.315 152.786,125.648 153.750,126.555 154.708 C 127.173 155.361,128.302 159.718,128.302 161.448 C 128.302 161.518,128.776 162.144,129.356 162.838 C 130.237 163.892,130.447 164.449,130.627 166.211 C 130.866 168.538,131.468 170.245,132.401 171.238 C 132.797 171.659,133.183 172.873,133.499 174.685 C 133.954 177.291,134.823 179.375,135.558 179.620 C 135.802 179.701,136.785 184.473,136.791 185.602 C 136.792 185.726,137.201 186.292,137.699 186.860 C 138.616 187.904,139.302 189.752,139.308 191.195 C 139.314 192.594,139.970 194.401,140.756 195.187 C 141.897 196.328,142.766 201.519,142.010 202.673 L 141.495 203.459 131.429 203.459 C 123.572 203.459,121.135 203.555,120.323 203.894 C 119.356 204.298,117.183 204.707,113.374 205.202 C 112.148 205.361,111.593 205.636,110.801 206.476 C 110.245 207.065,109.602 207.547,109.372 207.547 C 107.803 207.547,102.881 211.987,101.840 214.341 C 101.494 215.122,101.005 215.840,100.752 215.937 C 100.026 216.216,99.419 217.673,99.019 220.094 C 98.816 221.322,98.521 222.327,98.364 222.327 C 97.491 222.327,96.848 225.149,96.833 229.049 C 96.818 233.021,96.979 233.773,98.118 235.063 C 98.424 235.409,98.859 236.749,99.085 238.040 C 99.412 239.908,99.701 240.615,100.500 241.500 C 101.052 242.111,101.839 243.318,102.248 244.183 C 102.656 245.047,103.303 245.892,103.685 246.060 C 104.066 246.228,104.631 246.839,104.941 247.417 C 105.274 248.041,106.108 248.800,106.990 249.281 C 107.808 249.728,108.558 250.346,108.656 250.654 C 108.859 251.294,111.181 252.516,112.195 252.516 C 112.567 252.516,113.300 252.935,113.823 253.446 C 116.228 255.797,128.697 255.923,131.000 253.620 C 131.406 253.214,132.506 252.658,133.445 252.385 C 134.383 252.113,135.569 251.499,136.080 251.021 C 136.592 250.544,137.598 249.745,138.318 249.247 C 139.037 248.748,139.930 247.848,140.301 247.247 C 140.673 246.645,141.521 245.525,142.185 244.757 C 142.849 243.990,143.478 242.980,143.581 242.514 C 143.952 240.843,144.056 240.627,144.938 239.704 C 145.824 238.777,146.538 236.140,146.543 233.779 C 146.544 233.275,146.692 232.331,146.872 231.682 L 147.199 230.503 201.438 230.503 L 255.676 230.503 256.006 231.368 C 256.188 231.844,256.475 233.011,256.645 233.962 C 257.077 236.387,257.185 236.685,257.984 237.659 C 258.374 238.134,258.872 239.371,259.093 240.409 C 259.553 242.578,260.101 243.580,260.976 243.858 C 261.331 243.971,261.680 244.459,261.802 245.010 C 262.029 246.044,265.701 250.000,266.434 250.000 C 266.670 250.000,267.167 250.411,267.539 250.914 C 267.972 251.500,268.812 252.025,269.878 252.375 C 270.792 252.676,271.936 253.252,272.420 253.654 C 275.114 255.897,287.588 255.785,289.186 253.504 C 289.406 253.190,290.520 252.681,291.662 252.372 C 293.318 251.923,293.904 251.592,294.560 250.731 C 295.013 250.138,295.846 249.459,296.413 249.222 C 296.982 248.984,297.669 248.353,297.950 247.810 C 298.229 247.270,298.812 246.694,299.244 246.529 C 299.688 246.361,300.226 245.761,300.480 245.154 C 300.728 244.562,301.424 243.606,302.028 243.029 C 302.816 242.277,303.257 241.466,303.594 240.154 C 303.852 239.150,304.419 237.905,304.854 237.389 C 307.003 234.835,307.122 223.027,305.023 220.636 C 304.519 220.062,303.964 218.930,303.776 218.094 C 303.346 216.172,302.977 215.476,301.766 214.301 C 301.227 213.778,300.544 212.891,300.247 212.330 C 299.951 211.769,299.456 211.221,299.147 211.111 C 298.838 211.002,298.019 210.319,297.327 209.592 C 296.584 208.811,295.426 208.031,294.497 207.684 C 293.632 207.361,292.675 206.784,292.369 206.401 C 291.673 205.530,290.417 205.140,287.451 204.876 C 286.171 204.763,284.260 204.399,283.206 204.068 C 281.350 203.486,279.556 203.467,226.730 203.460 C 196.722 203.456,171.662 203.368,171.042 203.266 C 169.889 203.075,169.185 202.010,169.181 200.449 C 169.177 199.230,168.483 197.385,167.753 196.655 C 166.542 195.444,165.749 188.234,166.720 187.263 C 166.921 187.063,173.816 186.810,188.480 186.466 C 202.515 186.137,207.947 185.795,211.478 185.018 C 214.884 184.268,219.404 184.009,235.220 183.656 C 250.728 183.310,256.650 182.963,260.220 182.192 C 261.431 181.930,264.047 181.517,266.034 181.274 C 270.478 180.730,271.250 180.425,272.024 178.909 C 272.358 178.254,272.929 177.624,273.294 177.508 C 273.935 177.305,275.462 174.567,275.469 173.607 C 275.470 173.360,275.943 172.723,276.519 172.192 C 277.358 171.419,277.646 170.820,277.965 169.187 C 278.262 167.664,278.624 166.859,279.391 166.009 C 280.173 165.143,280.504 164.392,280.771 162.880 C 281.028 161.419,281.363 160.634,282.033 159.926 C 282.942 158.965,283.425 157.779,283.785 155.625 C 283.889 155.000,284.269 154.222,284.630 153.896 C 285.559 153.055,286.056 151.978,286.603 149.618 C 286.938 148.174,287.354 147.285,287.997 146.642 C 288.814 145.825,289.623 143.523,289.623 142.014 C 289.623 141.790,290.101 141.113,290.686 140.511 C 291.657 139.512,292.453 137.334,292.453 135.679 C 292.453 135.429,292.879 134.845,293.400 134.381 C 293.921 133.917,294.479 133.031,294.640 132.413 C 294.800 131.795,295.097 130.626,295.300 129.816 C 295.502 129.005,295.858 128.269,296.090 128.180 C 296.728 127.935,297.654 125.865,298.106 123.673 C 298.392 122.287,298.713 121.584,299.207 121.260 C 300.022 120.726,300.459 119.711,300.948 117.216 C 301.186 116.004,301.502 115.300,301.906 115.084 C 302.738 114.639,303.340 113.368,303.738 111.210 C 303.989 109.853,304.316 109.159,305.007 108.513 C 305.520 108.034,306.017 107.303,306.112 106.888 C 306.207 106.472,306.431 105.445,306.610 104.605 C 306.814 103.647,307.273 102.741,307.843 102.172 C 308.510 101.504,308.901 100.620,309.323 98.824 C 309.677 97.316,310.150 96.143,310.560 95.755 C 311.915 94.473,312.084 93.738,312.210 88.578 C 312.359 82.472,312.143 80.545,311.158 79.183 C 310.745 78.612,309.885 77.392,309.246 76.471 C 307.783 74.362,307.104 73.924,304.476 73.391 C 303.311 73.155,301.934 72.713,301.415 72.408 C 300.523 71.885,295.773 71.847,213.691 71.698 L 126.909 71.541 126.087 69.896 C 125.635 68.991,125.044 68.001,124.772 67.695 C 124.255 67.110,123.759 64.927,123.445 61.844 C 123.259 60.010,122.683 58.511,121.762 57.462 C 121.494 57.155,121.092 55.740,120.869 54.317 C 120.504 51.976,120.359 51.636,119.352 50.753 C 118.740 50.216,118.239 49.639,118.239 49.471 C 118.239 49.052,116.869 47.799,116.411 47.799 C 116.206 47.799,115.474 47.251,114.783 46.581 C 114.093 45.911,113.085 45.274,112.543 45.166 C 110.414 44.740,66.556 44.948,65.713 45.388 M108.878 45.583 C 111.691 45.879,111.982 45.985,114.647 47.686 C 116.255 48.712,116.668 49.080,118.626 51.227 C 119.857 52.577,119.906 52.704,120.454 55.975 C 120.642 57.099,121.203 58.868,121.701 59.906 C 122.223 60.996,122.819 63.053,123.112 64.780 C 123.662 68.020,124.251 69.470,125.950 71.777 L 127.050 73.270 213.289 73.272 C 301.716 73.273,303.561 73.296,305.413 74.405 C 306.800 75.236,308.656 77.089,309.316 78.302 C 309.740 79.080,310.399 80.212,310.782 80.818 C 311.429 81.840,311.477 82.285,311.470 87.107 C 311.461 92.433,311.344 93.063,310.066 94.654 C 309.718 95.086,309.171 96.391,308.850 97.553 C 308.529 98.715,307.907 100.137,307.467 100.713 C 307.028 101.289,306.374 102.747,306.015 103.953 C 305.656 105.158,305.001 106.634,304.560 107.233 C 304.118 107.831,303.482 109.246,303.145 110.377 C 302.808 111.509,302.171 112.924,301.730 113.522 C 301.288 114.120,300.651 115.535,300.314 116.667 C 299.978 117.798,299.341 119.213,298.899 119.811 C 298.458 120.410,297.804 121.893,297.445 123.107 C 297.087 124.321,296.464 125.751,296.062 126.284 C 295.660 126.817,294.988 128.303,294.568 129.586 C 294.147 130.869,293.429 132.468,292.972 133.141 C 292.514 133.813,291.998 134.945,291.826 135.656 C 291.653 136.368,291.228 137.480,290.882 138.129 C 290.535 138.778,289.968 139.839,289.621 140.487 C 289.275 141.136,288.852 142.241,288.682 142.943 C 288.512 143.645,287.959 144.848,287.453 145.616 C 286.947 146.384,286.292 147.862,285.998 148.899 C 285.704 149.937,285.104 151.264,284.666 151.848 C 284.228 152.432,283.557 153.918,283.176 155.150 C 282.795 156.382,282.109 157.940,281.651 158.612 C 281.193 159.285,280.539 160.774,280.197 161.921 C 279.856 163.068,279.215 164.496,278.774 165.094 C 278.332 165.693,277.687 167.134,277.341 168.298 C 276.994 169.462,276.368 170.822,275.949 171.320 C 275.529 171.818,274.932 172.875,274.620 173.668 C 274.308 174.462,273.771 175.439,273.425 175.841 C 273.080 176.243,272.186 177.301,271.439 178.192 C 269.712 180.251,269.351 180.341,260.377 180.962 C 256.486 181.231,252.241 181.588,250.943 181.755 C 246.152 182.374,240.708 182.699,227.201 183.173 C 212.876 183.676,208.060 183.966,201.101 184.744 C 196.272 185.285,188.185 185.734,175.629 186.159 C 170.613 186.328,166.001 186.628,165.380 186.824 L 164.251 187.182 164.832 189.267 C 165.151 190.414,165.688 192.675,166.024 194.293 C 166.360 195.910,166.882 197.608,167.184 198.066 C 167.485 198.524,168.164 200.173,168.693 201.730 L 169.654 204.560 226.730 204.732 C 288.746 204.920,288.792 204.922,290.881 206.615 C 291.313 206.966,292.389 207.591,293.271 208.005 C 294.154 208.418,295.697 209.475,296.701 210.353 C 297.704 211.231,298.630 211.950,298.758 211.950 C 298.886 211.950,299.442 212.653,299.993 213.512 C 300.545 214.371,301.408 215.593,301.912 216.227 C 302.416 216.861,302.983 217.963,303.172 218.674 C 303.361 219.386,303.961 220.959,304.504 222.170 C 305.464 224.308,305.492 224.501,305.498 228.931 L 305.503 233.491 304.324 236.046 C 303.675 237.451,303.142 238.796,303.139 239.033 C 303.134 239.480,302.405 240.754,300.800 243.124 C 299.486 245.062,296.610 248.110,295.126 249.137 C 294.434 249.616,293.400 250.350,292.829 250.770 C 292.258 251.189,290.889 251.832,289.787 252.199 C 288.685 252.566,287.620 253.062,287.421 253.302 C 286.239 254.727,276.886 254.789,274.483 253.389 C 273.730 252.950,272.278 252.328,271.256 252.009 C 270.235 251.689,269.032 251.065,268.584 250.622 C 268.135 250.180,267.237 249.493,266.588 249.097 C 265.939 248.701,265.409 248.258,265.409 248.113 C 265.409 247.968,264.903 247.378,264.284 246.802 C 263.665 246.226,262.942 245.330,262.677 244.811 C 262.411 244.292,261.765 243.416,261.241 242.864 C 260.578 242.164,260.064 241.066,259.550 239.247 C 258.289 234.785,256.622 230.080,256.211 229.819 C 255.221 229.191,146.897 229.523,146.559 230.155 C 146.383 230.483,146.034 232.026,145.782 233.583 C 145.500 235.323,144.969 237.125,144.403 238.255 C 143.897 239.267,143.302 240.660,143.081 241.352 C 142.860 242.044,142.203 243.141,141.622 243.790 C 141.041 244.439,140.566 245.087,140.566 245.229 C 140.566 245.607,136.856 249.371,136.483 249.371 C 136.308 249.371,135.666 249.841,135.057 250.416 C 134.416 251.021,133.188 251.701,132.147 252.028 C 131.156 252.340,129.638 252.966,128.774 253.420 C 126.204 254.769,118.651 254.673,115.723 253.256 C 114.599 252.711,113.136 252.095,112.473 251.886 C 111.810 251.677,110.819 251.120,110.272 250.648 C 109.724 250.176,108.751 249.438,108.107 249.008 C 106.463 247.908,103.369 244.449,102.527 242.767 C 102.137 241.989,101.461 240.972,101.026 240.507 C 100.487 239.932,100.001 238.726,99.503 236.733 C 99.101 235.123,98.544 233.027,98.266 232.075 C 97.648 229.969,97.797 227.960,98.903 223.503 C 100.205 218.248,100.306 217.958,101.193 216.897 C 101.661 216.338,102.323 215.332,102.665 214.662 C 103.486 213.051,107.614 209.256,109.591 208.294 C 110.456 207.874,111.623 207.195,112.184 206.785 C 114.158 205.343,120.483 204.749,134.119 204.724 C 145.639 204.703,144.547 205.232,143.240 200.314 C 142.987 199.363,142.564 197.686,142.300 196.587 C 142.036 195.488,141.535 194.189,141.187 193.700 C 140.839 193.211,140.226 191.485,139.825 189.865 C 139.423 188.246,138.723 186.285,138.268 185.509 C 137.813 184.733,137.219 183.042,136.948 181.750 C 136.676 180.459,135.974 178.412,135.387 177.201 C 134.800 175.991,134.152 174.151,133.946 173.113 C 133.741 172.075,133.105 170.236,132.533 169.025 C 131.961 167.814,131.329 165.975,131.128 164.937 C 130.926 163.899,130.349 162.307,129.843 161.399 C 129.338 160.491,128.636 158.510,128.284 156.998 C 127.931 155.486,127.298 153.660,126.876 152.940 C 126.454 152.220,125.825 150.415,125.479 148.929 C 125.132 147.443,124.436 145.484,123.931 144.576 C 123.426 143.668,122.784 141.793,122.504 140.411 C 122.222 139.021,121.656 137.385,121.236 136.751 C 120.819 136.120,120.120 134.154,119.682 132.381 C 119.245 130.609,118.680 128.930,118.427 128.651 C 117.800 127.958,117.378 126.770,116.837 124.176 C 116.585 122.967,115.965 121.243,115.459 120.345 C 114.953 119.446,114.296 117.579,113.999 116.195 C 113.702 114.811,113.064 112.972,112.581 112.107 C 112.098 111.242,111.468 109.473,111.181 108.176 C 110.895 106.879,110.241 105.007,109.730 104.017 C 109.218 103.027,108.590 101.219,108.333 100.000 C 108.077 98.781,107.445 96.973,106.930 95.983 C 106.415 94.993,105.759 93.121,105.474 91.824 C 105.188 90.527,104.559 88.758,104.076 87.893 C 103.593 87.028,102.903 85.073,102.543 83.548 C 102.183 82.023,101.536 80.175,101.106 79.440 C 100.676 78.706,100.093 77.053,99.811 75.766 C 98.760 70.972,99.104 71.069,83.114 71.069 L 70.742 71.069 68.047 69.777 C 64.845 68.241,63.468 67.102,62.220 64.956 C 61.712 64.081,60.983 62.965,60.600 62.477 C 59.643 61.252,59.540 53.453,60.465 52.183 C 60.772 51.761,61.445 50.785,61.960 50.014 C 62.475 49.244,63.443 48.254,64.110 47.813 C 64.778 47.373,65.721 46.733,66.205 46.392 C 66.821 45.957,67.845 45.713,69.627 45.576 C 73.720 45.261,105.872 45.267,108.878 45.583 M135.553 98.095 C 134.871 98.526,135.118 101.072,136.008 102.789 C 136.423 103.590,137.053 105.582,137.406 107.216 C 137.760 108.851,138.408 110.873,138.846 111.711 C 139.284 112.548,139.916 114.566,140.252 116.195 C 140.587 117.824,141.240 119.881,141.703 120.766 C 142.165 121.651,142.804 123.641,143.121 125.188 C 143.438 126.735,144.118 128.882,144.631 129.959 C 145.144 131.037,145.785 133.112,146.057 134.571 C 146.338 136.082,146.898 137.818,147.358 138.603 C 147.817 139.387,148.424 141.266,148.765 142.959 C 149.094 144.597,149.787 146.815,150.303 147.890 C 150.820 148.964,151.454 150.950,151.711 152.303 C 151.969 153.657,152.658 155.779,153.242 157.020 C 153.827 158.261,154.483 159.732,154.702 160.288 C 155.381 162.018,155.515 162.047,160.282 161.505 C 168.004 160.628,171.622 160.400,185.535 159.915 C 199.621 159.424,207.013 159.008,210.849 158.489 C 215.080 157.917,220.352 157.563,229.403 157.241 C 242.774 156.766,253.462 156.279,254.717 156.088 C 256.722 155.781,259.020 153.369,259.617 150.943 C 259.894 149.819,260.593 148.045,261.171 147.000 C 261.748 145.955,262.424 144.221,262.673 143.146 C 262.921 142.072,263.489 140.662,263.935 140.014 C 264.381 139.366,265.048 137.732,265.416 136.382 C 265.784 135.032,266.489 133.263,266.983 132.451 C 267.476 131.639,268.107 130.055,268.386 128.931 C 268.664 127.807,269.240 126.360,269.665 125.717 C 270.090 125.073,270.734 123.446,271.096 122.100 C 271.459 120.755,272.112 119.129,272.548 118.486 C 272.984 117.844,273.663 116.176,274.057 114.780 C 274.451 113.384,275.126 111.716,275.558 111.074 C 275.990 110.431,276.587 108.879,276.885 107.625 C 277.183 106.370,277.698 104.999,278.030 104.577 C 279.609 102.570,280.152 98.767,278.951 98.124 C 278.168 97.705,136.216 97.676,135.553 98.095 M278.616 99.175 C 278.616 99.412,278.699 100.021,278.800 100.528 C 278.949 101.270,278.772 101.703,277.886 102.763 C 277.015 103.806,276.711 104.535,276.414 106.296 C 276.163 107.786,275.790 108.811,275.280 109.418 C 274.237 110.657,273.634 112.209,273.390 114.281 C 273.226 115.679,272.977 116.244,272.148 117.097 C 271.494 117.770,271.039 118.613,270.914 119.381 C 270.513 121.850,270.056 123.585,269.806 123.585 C 269.221 123.585,268.188 125.893,267.752 128.172 C 267.426 129.878,267.100 130.738,266.664 131.043 C 265.771 131.669,265.495 132.313,264.924 135.100 C 264.590 136.728,264.168 137.848,263.693 138.365 C 262.653 139.496,262.388 140.143,261.972 142.579 C 261.681 144.277,261.407 144.930,260.710 145.580 C 260.070 146.179,259.714 146.938,259.444 148.285 C 258.755 151.726,258.638 151.981,257.208 153.193 C 255.967 154.245,255.494 154.431,253.291 154.730 C 251.914 154.917,250.008 155.275,249.057 155.525 C 247.783 155.859,243.717 156.062,233.648 156.291 C 212.436 156.775,204.532 157.264,200.610 158.332 C 199.306 158.688,194.617 158.911,180.890 159.273 C 170.984 159.533,161.307 159.885,159.384 160.054 C 155.223 160.419,155.553 160.568,154.857 157.999 C 154.549 156.860,153.915 155.448,153.449 154.861 C 152.766 154.002,152.528 153.231,152.231 150.914 C 151.859 148.009,151.323 146.509,150.314 145.543 C 149.982 145.225,149.681 144.292,149.554 143.185 C 149.140 139.575,148.704 138.029,147.811 137.009 C 147.084 136.179,146.868 135.520,146.558 133.176 C 146.187 130.369,145.279 127.673,144.705 127.673 C 144.264 127.673,144.089 127.039,143.689 123.985 C 143.309 121.092,142.888 119.858,141.836 118.553 C 141.417 118.033,141.090 116.917,140.869 115.252 C 140.449 112.083,140.076 110.905,139.138 109.791 C 138.568 109.113,138.281 108.155,137.915 105.703 C 137.651 103.942,137.282 102.213,137.093 101.861 C 136.710 101.145,136.989 99.342,137.540 98.983 C 138.266 98.508,278.616 98.699,278.616 99.175 " stroke="none" fill="#c8c8c8" fill-rule="evenodd"></path><path id="path4" d="M68.082 46.134 C 67.563 46.209,66.643 46.653,66.038 47.122 C 65.432 47.591,64.566 48.209,64.113 48.496 C 60.524 50.768,58.772 59.018,61.174 62.332 C 61.586 62.900,62.157 63.789,62.442 64.308 C 63.447 66.133,65.545 67.979,67.925 69.132 L 70.283 70.275 83.333 70.452 C 99.739 70.675,99.074 70.489,100.136 75.159 C 100.431 76.454,101.069 78.222,101.555 79.087 C 102.041 79.952,102.672 81.722,102.958 83.019 C 103.243 84.316,103.880 86.156,104.372 87.107 C 104.865 88.058,105.503 89.878,105.790 91.152 C 106.078 92.426,106.725 94.265,107.229 95.240 C 107.732 96.215,108.378 98.074,108.663 99.371 C 108.949 100.668,109.524 102.325,109.942 103.053 C 110.361 103.781,111.058 105.743,111.492 107.414 C 111.926 109.085,112.617 111.037,113.028 111.751 C 113.438 112.466,114.007 114.112,114.293 115.409 C 114.578 116.706,115.234 118.584,115.749 119.582 C 116.265 120.581,116.915 122.420,117.192 123.670 C 117.470 124.921,118.094 126.722,118.578 127.673 C 119.062 128.624,119.752 130.595,120.110 132.054 C 120.468 133.512,121.112 135.303,121.540 136.034 C 121.969 136.764,122.606 138.592,122.956 140.094 C 123.306 141.597,123.943 143.423,124.371 144.153 C 124.798 144.883,125.379 146.532,125.662 147.819 C 125.944 149.105,126.594 150.998,127.107 152.025 C 127.619 153.053,128.320 155.034,128.665 156.428 C 129.009 157.822,129.644 159.598,130.075 160.375 C 130.506 161.153,131.140 162.991,131.482 164.461 C 131.825 165.932,132.446 167.715,132.862 168.425 C 133.278 169.135,133.927 170.975,134.304 172.515 C 134.681 174.055,135.378 176.022,135.853 176.887 C 136.327 177.752,136.949 179.520,137.235 180.818 C 137.520 182.115,138.157 183.954,138.649 184.906 C 139.142 185.857,139.780 187.677,140.067 188.951 C 140.355 190.224,141.004 192.064,141.511 193.039 C 142.017 194.014,142.653 195.869,142.924 197.162 C 143.195 198.454,143.680 199.957,144.000 200.500 C 144.791 201.840,145.160 204.558,144.600 204.919 C 144.370 205.067,138.310 205.277,131.132 205.386 C 117.649 205.590,114.749 205.838,113.050 206.935 C 112.531 207.271,111.336 207.910,110.393 208.356 C 108.347 209.325,103.695 213.722,102.766 215.566 C 102.417 216.258,101.796 217.184,101.384 217.623 C 99.394 219.751,98.280 229.716,99.487 234.591 C 99.808 235.888,100.194 237.445,100.345 238.050 C 100.495 238.656,100.987 239.575,101.437 240.094 C 101.888 240.613,102.435 241.464,102.653 241.986 C 102.872 242.507,103.850 243.851,104.827 244.971 C 105.804 246.091,106.604 247.103,106.604 247.219 C 106.604 247.335,107.276 247.849,108.097 248.360 C 108.919 248.871,110.132 249.725,110.792 250.256 C 111.452 250.788,112.514 251.389,113.150 251.592 C 113.787 251.795,115.228 252.355,116.352 252.835 C 119.707 254.269,125.863 254.349,128.243 252.989 C 128.708 252.723,130.113 252.162,131.366 251.744 C 135.360 250.408,141.889 244.149,142.790 240.791 C 142.986 240.062,143.547 238.607,144.037 237.557 C 144.527 236.508,145.145 234.400,145.412 232.874 C 145.682 231.323,146.129 229.841,146.425 229.515 C 146.935 228.950,148.757 228.931,201.446 228.931 L 255.940 228.931 256.714 229.638 C 257.399 230.265,259.748 236.719,259.748 237.974 C 259.748 238.848,260.812 241.416,261.473 242.138 C 261.869 242.571,262.438 243.420,262.739 244.025 C 263.259 245.073,265.846 247.722,268.487 249.911 C 269.159 250.468,270.899 251.363,272.354 251.900 C 273.809 252.437,275.566 253.098,276.258 253.369 C 278.659 254.307,284.015 254.080,286.635 252.929 C 287.846 252.397,289.403 251.783,290.094 251.566 C 292.460 250.822,298.630 245.765,299.678 243.711 C 299.898 243.278,300.614 242.217,301.268 241.352 C 301.923 240.487,302.620 239.170,302.819 238.424 C 303.017 237.678,303.612 235.987,304.141 234.667 C 305.431 231.443,305.362 225.579,303.998 222.603 C 303.553 221.631,303.097 220.347,302.985 219.751 C 302.382 216.538,296.922 210.255,293.396 208.717 C 292.618 208.378,291.547 207.776,291.016 207.379 C 288.324 205.369,287.579 205.346,225.487 205.346 C 172.948 205.346,169.883 205.316,169.429 204.796 C 169.165 204.493,168.699 203.467,168.393 202.516 C 168.088 201.564,167.494 200.101,167.074 199.262 C 166.655 198.424,166.034 196.443,165.695 194.860 C 165.355 193.277,164.811 191.344,164.485 190.566 C 162.652 186.187,162.660 186.184,176.236 185.667 C 188.210 185.210,189.783 185.110,198.270 184.269 C 204.262 183.675,211.113 183.306,227.516 182.693 C 235.613 182.390,242.613 181.907,249.843 181.152 C 251.399 180.990,255.715 180.703,259.434 180.515 C 268.365 180.062,269.593 179.815,270.699 178.247 C 270.928 177.923,271.683 177.002,272.376 176.202 C 273.069 175.401,273.973 173.982,274.386 173.049 C 274.799 172.115,275.424 170.987,275.775 170.540 C 276.126 170.094,276.693 168.790,277.035 167.641 C 277.377 166.493,278.018 165.064,278.459 164.465 C 278.901 163.867,279.539 162.447,279.877 161.310 C 280.216 160.173,280.904 158.613,281.406 157.844 C 281.908 157.076,282.560 155.597,282.854 154.560 C 283.149 153.522,283.744 152.205,284.177 151.633 C 284.611 151.060,285.282 149.575,285.670 148.331 C 286.057 147.087,286.743 145.530,287.195 144.871 C 287.647 144.212,288.248 142.867,288.531 141.883 C 288.814 140.899,289.452 139.455,289.949 138.673 C 290.446 137.892,291.131 136.359,291.471 135.267 C 291.810 134.175,292.443 132.763,292.876 132.128 C 293.310 131.494,293.894 130.170,294.176 129.186 C 294.457 128.202,295.057 126.858,295.509 126.198 C 295.961 125.539,296.640 124.009,297.018 122.799 C 297.396 121.588,298.083 120.042,298.545 119.364 C 299.007 118.686,299.611 117.341,299.888 116.377 C 300.164 115.412,300.857 113.844,301.426 112.893 C 301.996 111.942,302.680 110.385,302.947 109.434 C 303.214 108.483,303.795 107.212,304.240 106.610 C 304.684 106.008,305.324 104.593,305.661 103.466 C 305.998 102.338,306.636 100.886,307.077 100.239 C 307.519 99.592,308.173 98.106,308.531 96.937 C 308.889 95.768,309.557 94.316,310.015 93.711 C 311.330 91.975,311.308 82.565,309.984 80.566 C 309.509 79.847,309.119 79.108,309.119 78.924 C 309.119 78.251,306.093 75.359,304.717 74.717 L 303.302 74.057 214.981 73.899 L 126.661 73.742 125.739 72.642 C 124.261 70.877,123.298 68.578,122.771 65.555 C 122.501 64.004,121.876 61.816,121.384 60.692 C 120.891 59.568,120.253 57.374,119.966 55.818 C 119.524 53.424,119.284 52.817,118.407 51.887 C 117.837 51.281,117.207 50.468,117.007 50.078 C 116.807 49.689,115.977 49.009,115.162 48.567 C 114.346 48.124,113.042 47.382,112.264 46.916 L 110.849 46.069 89.937 46.033 C 78.436 46.014,68.601 46.059,68.082 46.134 M109.331 46.822 C 110.053 46.962,110.898 47.331,111.208 47.641 C 111.819 48.252,114.693 49.677,115.324 49.682 C 115.536 49.684,115.983 50.216,116.315 50.865 C 116.648 51.513,117.283 52.383,117.728 52.798 C 118.669 53.676,119.055 54.779,119.336 57.390 C 119.630 60.120,120.084 61.660,120.921 62.767 C 121.473 63.497,121.785 64.596,122.162 67.135 C 122.439 69.000,122.823 70.826,123.014 71.191 C 123.532 72.178,125.161 74.003,125.913 74.439 C 126.426 74.735,146.040 74.828,213.994 74.855 C 262.075 74.873,302.123 74.995,302.987 75.125 C 304.662 75.376,308.176 78.254,308.176 79.375 C 308.176 79.648,308.595 80.760,309.108 81.845 C 310.661 85.131,310.799 89.250,309.443 91.854 C 308.881 92.935,308.144 94.822,307.806 96.045 C 307.442 97.365,306.864 98.614,306.388 99.114 C 305.861 99.666,305.394 100.755,305.032 102.274 C 304.629 103.966,304.229 104.842,303.547 105.524 C 302.834 106.237,302.519 106.965,302.208 108.614 C 301.948 109.989,301.579 110.957,301.190 111.282 C 300.335 111.997,299.839 113.044,299.237 115.403 C 298.952 116.524,298.511 117.557,298.258 117.699 C 297.602 118.066,297.004 119.352,296.415 121.661 C 296.103 122.887,295.550 124.072,294.995 124.703 C 294.373 125.412,293.924 126.454,293.570 128.007 C 293.189 129.684,292.822 130.493,292.166 131.107 C 291.506 131.723,291.142 132.531,290.752 134.244 C 290.368 135.932,289.984 136.794,289.318 137.460 C 288.694 138.084,288.292 138.931,288.037 140.159 C 287.643 142.055,287.135 143.396,286.810 143.396 C 286.400 143.396,285.468 145.379,284.996 147.258 C 284.705 148.415,284.143 149.628,283.621 150.227 C 282.744 151.235,282.249 152.531,281.873 154.807 C 281.765 155.462,281.437 156.170,281.144 156.380 C 280.251 157.018,279.636 158.243,279.250 160.148 C 279.009 161.343,278.580 162.295,277.994 162.936 C 277.195 163.812,276.798 164.828,276.283 167.322 C 276.190 167.769,275.687 168.673,275.163 169.332 C 274.640 169.991,274.007 171.220,273.756 172.064 C 273.495 172.942,272.856 174.043,272.263 174.636 C 271.693 175.207,270.755 176.269,270.178 176.997 C 268.310 179.357,268.731 179.271,257.638 179.584 C 245.861 179.916,240.417 180.296,235.692 181.117 C 231.724 181.806,228.519 181.975,211.321 182.400 C 197.517 182.741,192.454 183.068,187.107 183.965 C 184.721 184.365,180.495 184.683,174.686 184.899 C 164.475 185.278,163.955 185.330,163.169 186.042 C 162.261 186.863,162.363 189.725,163.358 191.352 C 164.559 193.317,164.718 193.792,165.098 196.569 C 165.427 198.973,166.366 201.569,166.909 201.575 C 167.035 201.576,167.404 202.430,167.729 203.472 C 168.059 204.530,168.611 205.571,168.978 205.828 C 169.551 206.229,176.915 206.292,225.306 206.311 C 287.737 206.336,287.376 206.327,289.446 207.814 C 290.228 208.376,291.586 209.048,292.463 209.309 C 293.340 209.569,294.136 209.986,294.231 210.234 C 294.326 210.482,295.310 211.397,296.417 212.267 C 297.713 213.285,298.770 214.452,299.387 215.546 C 299.914 216.479,300.676 217.460,301.081 217.725 C 301.650 218.099,301.900 218.691,302.185 220.346 C 302.388 221.522,302.899 223.854,303.321 225.529 C 304.237 229.163,304.252 229.809,303.480 232.118 C 303.153 233.092,302.648 235.073,302.357 236.520 C 301.935 238.612,301.645 239.320,300.940 239.974 C 300.452 240.426,299.691 241.511,299.249 242.383 C 298.807 243.256,298.014 244.277,297.488 244.651 C 296.962 245.026,296.325 245.731,296.073 246.219 C 295.816 246.716,295.002 247.402,294.220 247.780 C 293.453 248.152,292.308 248.944,291.674 249.542 C 291.041 250.139,290.143 250.707,289.679 250.804 C 286.997 251.363,285.880 251.682,284.177 252.375 C 281.988 253.264,280.339 253.348,278.685 252.655 C 278.042 252.385,275.888 251.740,273.899 251.221 C 270.884 250.435,270.165 250.128,269.570 249.376 C 269.179 248.879,268.352 248.306,267.734 248.102 C 266.952 247.844,266.516 247.460,266.299 246.838 C 266.128 246.347,265.512 245.664,264.930 245.320 C 264.188 244.883,263.774 244.338,263.544 243.496 C 263.363 242.836,262.725 241.764,262.125 241.114 C 261.525 240.464,260.957 239.473,260.862 238.913 C 260.768 238.352,260.545 236.903,260.367 235.692 C 259.680 231.020,258.834 229.305,256.794 228.453 C 255.355 227.851,147.747 227.738,146.433 228.337 C 145.452 228.784,145.070 229.566,144.653 231.985 C 144.468 233.060,143.984 234.524,143.579 235.237 C 143.173 235.951,142.577 237.744,142.254 239.222 C 141.786 241.363,141.526 241.972,140.974 242.224 C 140.593 242.398,140.043 243.043,139.752 243.657 C 139.146 244.934,135.716 248.428,135.068 248.428 C 134.831 248.428,134.238 248.895,133.749 249.466 C 133.023 250.314,132.489 250.575,130.818 250.896 C 129.693 251.111,127.450 251.722,125.832 252.253 C 122.472 253.356,120.893 253.353,118.471 252.241 C 117.648 251.863,115.967 251.326,114.737 251.048 C 113.195 250.700,112.297 250.310,111.848 249.793 C 111.489 249.380,110.612 248.701,109.900 248.284 C 108.155 247.261,104.021 242.647,103.221 240.829 C 102.865 240.022,102.299 239.214,101.962 239.034 C 99.516 237.725,99.718 220.775,102.208 218.389 C 102.707 217.912,103.206 217.105,103.318 216.596 C 103.443 216.025,104.324 214.898,105.613 213.660 C 106.763 212.555,108.201 211.152,108.808 210.542 C 109.414 209.933,110.130 209.434,110.397 209.434 C 111.062 209.434,114.151 207.870,114.151 207.534 C 114.151 206.735,117.055 206.531,130.346 206.396 C 146.491 206.232,146.476 206.235,146.032 202.930 C 145.742 200.765,145.607 200.373,144.832 199.454 C 144.293 198.812,143.912 197.716,143.542 195.734 C 142.983 192.745,142.725 192.052,141.779 191.012 C 141.423 190.620,141.007 189.357,140.743 187.867 C 140.209 184.847,139.862 183.895,139.006 183.097 C 138.542 182.665,138.211 181.688,137.873 179.752 C 137.302 176.481,137.032 175.711,136.143 174.822 C 135.666 174.345,135.333 173.353,135.003 171.429 C 134.577 168.947,133.549 166.352,132.992 166.352 C 132.777 166.352,132.573 165.555,131.765 161.553 C 131.562 160.547,131.069 159.348,130.655 158.856 C 129.938 158.004,129.723 157.319,128.933 153.377 C 128.723 152.328,128.240 151.173,127.787 150.635 C 127.229 149.972,126.828 148.829,126.391 146.656 C 125.803 143.733,125.520 143.028,124.625 142.263 C 124.401 142.071,123.936 140.545,123.592 138.870 C 122.936 135.682,122.589 134.768,121.713 133.925 C 121.414 133.637,121.013 132.410,120.790 131.095 C 120.251 127.928,119.878 126.834,119.025 125.914 C 118.542 125.392,118.178 124.425,117.938 123.021 C 117.382 119.766,117.057 118.786,116.207 117.805 C 115.775 117.306,115.343 116.386,115.246 115.761 C 114.813 112.968,114.098 110.518,113.540 109.923 C 112.751 109.081,112.394 108.094,112.111 105.975 C 111.841 103.957,111.218 102.311,110.385 101.419 C 110.021 101.029,109.592 99.700,109.267 97.956 C 108.713 94.983,108.452 94.268,107.540 93.239 C 107.234 92.893,106.816 91.761,106.611 90.723 C 105.909 87.161,105.579 86.168,104.856 85.445 C 104.331 84.920,103.989 83.954,103.609 81.925 C 102.977 78.554,102.750 77.915,101.899 77.123 C 101.475 76.728,101.120 75.800,100.895 74.498 C 100.410 71.688,99.930 70.918,98.035 69.907 L 96.384 69.026 83.176 68.842 C 67.664 68.626,67.697 68.632,64.976 65.933 C 63.972 64.937,63.208 63.899,63.208 63.533 C 63.208 63.178,62.786 62.446,62.271 61.907 C 60.601 60.160,60.462 54.547,62.048 52.892 C 62.504 52.415,63.072 51.463,63.309 50.777 C 63.662 49.756,63.975 49.441,65.028 49.051 C 65.735 48.788,66.667 48.241,67.099 47.836 C 67.530 47.430,68.353 46.988,68.926 46.852 C 70.312 46.524,107.649 46.497,109.331 46.822 M134.377 97.356 C 132.967 98.766,133.599 103.397,135.542 105.892 C 135.844 106.279,136.189 107.411,136.310 108.408 C 136.710 111.694,137.142 113.165,138.037 114.291 C 138.665 115.081,138.984 115.927,139.141 117.214 C 139.530 120.419,139.960 121.939,140.869 123.328 C 141.538 124.350,141.878 125.457,142.244 127.810 C 142.578 129.948,142.936 131.188,143.381 131.740 C 144.323 132.910,144.615 133.733,144.987 136.264 C 145.402 139.093,145.735 140.117,146.691 141.507 C 147.224 142.282,147.599 143.544,147.950 145.745 C 148.332 148.134,148.675 149.230,149.392 150.347 C 150.092 151.437,150.455 152.568,150.808 154.752 C 151.070 156.368,151.556 158.118,151.888 158.641 C 152.220 159.164,152.852 160.261,153.293 161.079 C 154.685 163.668,154.544 163.637,163.279 163.225 C 170.476 162.886,176.516 162.289,179.389 161.634 C 180.088 161.474,185.401 161.195,191.195 161.013 C 219.222 160.134,222.258 159.961,227.189 158.965 C 229.800 158.437,241.393 157.862,249.475 157.860 C 258.145 157.857,260.065 156.784,260.853 151.505 C 261.001 150.511,261.368 149.714,261.966 149.089 C 262.456 148.576,262.985 147.616,263.142 146.956 C 264.036 143.183,264.241 142.554,264.760 141.981 C 265.654 140.995,266.002 140.149,266.515 137.709 C 266.848 136.127,267.223 135.226,267.752 134.736 C 268.169 134.349,268.640 133.486,268.799 132.818 C 268.957 132.150,269.259 130.896,269.469 130.031 C 269.679 129.167,270.107 128.176,270.420 127.830 C 271.314 126.844,271.662 125.998,272.174 123.563 C 272.516 121.939,272.916 120.997,273.589 120.230 C 274.106 119.642,274.531 119.059,274.534 118.936 C 274.563 117.744,275.588 114.220,276.056 113.705 C 276.960 112.710,277.281 111.943,277.856 109.404 C 278.212 107.833,278.667 106.751,279.255 106.078 C 280.031 105.189,280.791 102.899,280.831 101.321 C 280.839 101.027,281.029 100.272,281.253 99.644 C 281.735 98.296,281.274 97.431,279.775 96.871 C 279.166 96.644,256.509 96.541,207.041 96.541 L 135.192 96.541 134.377 97.356 M279.712 98.108 C 280.716 99.217,280.102 102.154,278.117 105.739 C 277.854 106.215,277.429 107.410,277.172 108.395 C 276.916 109.380,276.298 110.901,275.800 111.775 C 275.302 112.649,274.659 114.285,274.371 115.409 C 274.083 116.533,273.427 118.191,272.913 119.093 C 272.399 119.996,271.701 121.736,271.361 122.960 C 271.022 124.184,270.402 125.710,269.984 126.351 C 269.566 126.992,268.991 128.436,268.706 129.560 C 268.421 130.684,267.767 132.342,267.253 133.244 C 266.738 134.147,266.040 135.887,265.701 137.111 C 265.362 138.335,264.741 139.861,264.321 140.502 C 263.901 141.143,263.283 142.665,262.947 143.886 C 262.612 145.107,261.910 146.876,261.387 147.817 C 260.865 148.758,260.336 150.024,260.212 150.629 C 259.028 156.408,258.195 156.702,241.509 157.236 C 229.561 157.618,222.916 158.009,214.780 158.810 C 208.388 159.439,199.847 159.909,189.151 160.220 C 181.484 160.443,173.194 160.913,169.182 161.351 C 160.513 162.300,155.837 162.523,155.262 162.017 C 154.259 161.134,151.950 155.768,151.411 153.069 C 151.126 151.640,150.483 149.618,149.982 148.575 C 149.481 147.532,148.842 145.551,148.563 144.172 C 148.283 142.794,147.588 140.605,147.019 139.308 C 146.449 138.011,145.809 135.959,145.596 134.748 C 145.384 133.538,144.814 131.753,144.329 130.781 C 143.845 129.810,143.151 127.642,142.788 125.963 C 142.424 124.285,141.768 122.203,141.329 121.338 C 140.891 120.473,140.264 118.512,139.937 116.981 C 139.610 115.450,138.983 113.489,138.545 112.624 C 138.107 111.759,137.448 109.667,137.082 107.975 C 136.715 106.284,136.050 104.202,135.604 103.348 C 134.574 101.378,134.302 98.761,135.051 98.013 C 135.951 97.113,278.897 97.207,279.712 98.108 " stroke="none" fill="#9c9c9c" fill-rule="evenodd"></path></g></svg>