<svg id="svg" version="1.1" xmlns="http://www.w3.org/2000/svg" xmlns:xlink="http://www.w3.org/1999/xlink" width="400" height="427.58620689655174" viewBox="0, 0, 400,427.58620689655174"><g id="svgg"><path id="path0" d="M218.000 94.375 C 216.790 94.548,214.468 95.090,212.841 95.579 C 211.213 96.069,207.793 96.721,205.241 97.028 C 199.705 97.695,198.847 97.899,197.800 98.796 C 196.800 99.652,196.081 99.909,192.678 100.625 C 190.893 101.001,189.446 101.601,188.478 102.368 C 187.665 103.012,186.280 103.728,185.400 103.959 C 184.520 104.190,182.856 105.090,181.703 105.957 C 180.550 106.825,179.059 107.655,178.389 107.802 C 177.720 107.949,176.882 108.513,176.527 109.055 C 176.172 109.597,175.323 110.324,174.641 110.670 C 172.539 111.735,162.673 121.311,162.226 122.719 C 162.084 123.164,161.514 123.826,160.959 124.190 C 160.404 124.554,159.610 125.642,159.196 126.609 C 158.782 127.576,158.073 128.597,157.622 128.879 C 157.140 129.180,156.456 130.465,155.964 131.996 C 155.503 133.428,154.727 134.967,154.239 135.416 C 153.394 136.192,153.027 137.237,151.998 141.800 C 151.750 142.900,151.097 144.572,150.548 145.515 C 149.000 148.172,148.742 152.255,148.458 178.600 L 148.200 202.600 146.800 203.299 C 145.609 203.894,144.219 203.999,137.487 203.999 C 124.458 204.000,125.198 202.978,125.205 220.954 C 125.208 228.459,125.317 234.994,125.446 235.475 C 125.799 236.793,128.526 237.200,137.012 237.200 C 145.523 237.200,147.239 237.590,147.972 239.692 C 148.888 242.320,148.531 302.381,147.590 303.924 C 146.269 306.091,144.937 306.400,136.913 306.400 C 129.548 306.401,126.513 306.945,125.569 308.436 C 125.373 308.746,125.209 316.152,125.206 324.894 L 125.200 340.787 126.367 342.094 L 127.534 343.400 214.067 343.516 C 307.477 343.642,303.388 343.713,305.406 341.941 C 306.160 341.279,307.277 340.603,307.887 340.440 C 309.548 339.996,309.552 339.917,309.577 305.719 C 309.601 273.502,309.550 272.402,308.036 272.399 C 307.686 272.398,306.770 271.993,306.000 271.499 C 304.620 270.613,304.377 270.598,289.337 270.482 L 274.074 270.365 272.237 271.659 L 270.400 272.954 270.382 287.377 C 270.364 302.421,270.227 303.802,268.576 305.626 C 267.894 306.381,266.947 306.400,230.974 306.400 L 194.071 306.400 193.051 305.188 C 191.232 303.026,191.203 302.501,191.231 272.200 C 191.260 241.597,191.346 239.677,192.742 238.280 L 193.622 237.400 221.729 237.200 C 252.761 236.979,250.271 237.202,253.106 234.390 L 254.411 233.094 254.306 220.452 L 254.200 207.810 252.513 207.005 C 251.586 206.562,250.596 205.887,250.313 205.504 C 249.325 204.166,245.960 204.000,219.764 204.000 C 201.496 204.000,193.750 203.869,193.046 203.548 C 191.144 202.681,191.094 202.081,191.323 182.907 C 191.588 160.730,192.224 154.035,194.223 152.384 C 194.611 152.063,195.350 150.851,195.863 149.692 C 196.401 148.479,197.185 147.407,197.712 147.167 C 198.215 146.938,198.852 146.241,199.128 145.618 C 199.404 144.995,200.168 144.262,200.825 143.990 C 201.483 143.717,202.385 142.983,202.831 142.357 C 203.414 141.537,204.386 140.989,206.310 140.395 C 207.779 139.942,209.372 139.202,209.851 138.752 C 213.224 135.584,241.805 135.778,246.754 139.002 C 247.549 139.521,249.256 140.215,250.547 140.547 C 251.838 140.878,253.329 141.557,253.861 142.057 C 254.393 142.557,255.665 143.424,256.688 143.983 C 257.711 144.542,258.842 145.536,259.202 146.191 C 260.983 149.438,266.657 149.276,268.280 145.931 C 268.764 144.934,269.619 143.817,270.180 143.450 C 270.741 143.082,271.200 142.522,271.200 142.204 C 271.200 141.887,271.788 141.036,272.507 140.313 C 273.225 139.591,274.248 138.370,274.778 137.600 C 275.894 135.982,278.575 132.805,280.481 130.842 C 281.207 130.095,282.011 128.982,282.270 128.368 C 282.528 127.754,283.272 126.976,283.923 126.640 C 284.581 126.300,285.221 125.573,285.364 125.002 C 285.524 124.362,286.143 123.728,287.011 123.314 C 288.696 122.511,288.724 122.027,287.254 119.200 C 286.625 117.990,285.990 116.495,285.842 115.879 C 285.677 115.186,285.040 114.443,284.177 113.933 C 283.408 113.480,282.591 112.757,282.362 112.328 C 282.132 111.899,281.163 111.213,280.208 110.804 C 279.223 110.381,278.359 109.701,278.209 109.230 C 278.065 108.773,277.733 108.398,277.473 108.396 C 276.489 108.388,272.682 106.358,271.982 105.467 C 271.507 104.864,270.463 104.362,269.000 104.035 C 267.615 103.725,266.242 103.086,265.429 102.372 C 264.486 101.543,263.263 101.034,261.154 100.591 C 259.529 100.250,257.570 99.560,256.800 99.058 C 254.817 97.764,254.400 97.647,249.426 96.995 C 246.977 96.674,243.629 95.934,241.987 95.351 C 238.785 94.215,223.477 93.592,218.000 94.375 " stroke="none" fill="#5e5e5e" fill-rule="evenodd"></path><path id="path1" d="M215.000 92.797 C 210.748 93.124,209.223 93.429,206.800 94.434 C 205.810 94.845,202.953 95.536,200.451 95.970 C 197.172 96.539,195.496 97.038,194.451 97.756 C 193.653 98.305,191.768 99.060,190.261 99.435 C 188.755 99.810,187.029 100.532,186.425 101.040 C 185.822 101.548,184.312 102.343,183.070 102.808 C 181.829 103.273,180.073 104.271,179.168 105.026 C 178.264 105.782,177.266 106.400,176.951 106.400 C 176.636 106.400,175.798 106.940,175.089 107.600 C 174.380 108.259,172.990 109.327,172.000 109.973 C 169.847 111.377,162.955 118.027,161.608 120.000 C 161.083 120.770,160.060 122.070,159.336 122.890 C 158.613 123.709,157.909 124.825,157.772 125.369 C 157.636 125.913,157.110 126.629,156.605 126.960 C 156.073 127.309,155.220 128.750,154.580 130.381 C 153.971 131.932,153.327 133.200,153.147 133.200 C 152.625 133.200,151.718 135.228,150.999 138.002 C 150.634 139.414,150.008 141.027,149.609 141.588 C 148.643 142.944,148.143 144.986,147.599 149.800 C 147.350 152.000,146.889 155.420,146.575 157.400 C 146.134 160.173,146.003 165.646,146.002 181.236 L 146.000 201.472 144.900 202.024 C 144.107 202.422,141.314 202.636,134.908 202.788 L 126.017 203.000 124.908 204.109 L 123.800 205.217 123.677 220.271 C 123.592 230.753,123.691 235.654,124.004 236.409 C 124.910 238.597,127.578 239.195,136.438 239.198 C 147.002 239.201,146.000 235.728,146.000 272.360 L 146.000 301.559 144.662 302.580 C 143.345 303.584,143.217 303.600,136.256 303.600 L 129.188 303.600 126.981 304.846 C 123.409 306.862,123.551 305.980,123.684 325.330 C 123.818 344.841,123.667 344.025,127.289 344.776 C 131.247 345.596,304.311 345.162,305.800 344.328 C 306.460 343.958,307.858 342.859,308.907 341.885 L 310.813 340.115 310.707 306.027 L 310.600 271.938 309.132 270.593 C 308.325 269.853,306.915 269.047,306.000 268.800 C 304.034 268.271,271.827 268.414,270.685 268.957 C 268.716 269.893,268.609 270.774,268.474 286.998 C 268.364 300.205,268.264 302.288,267.712 302.898 C 267.114 303.558,264.892 303.600,230.967 303.600 L 194.858 303.600 194.029 302.546 C 192.907 301.119,192.711 244.991,193.815 241.273 L 194.431 239.200 220.389 239.200 C 258.954 239.200,256.390 240.504,256.396 220.887 C 256.400 208.079,256.255 207.103,254.140 205.731 C 253.520 205.329,252.688 204.678,252.291 204.284 C 250.848 202.854,249.746 202.800,222.263 202.800 C 198.215 202.800,194.873 202.726,194.089 202.177 L 193.200 201.555 193.217 185.077 C 193.227 176.015,193.386 166.260,193.570 163.399 C 193.909 158.163,194.064 157.580,196.191 153.600 C 196.720 152.610,197.163 151.478,197.176 151.085 C 197.189 150.692,198.010 149.583,199.000 148.621 C 199.990 147.659,200.800 146.680,200.800 146.446 C 200.800 146.212,201.385 145.721,202.100 145.355 C 202.815 144.989,203.986 144.179,204.702 143.555 C 205.418 142.932,207.011 142.128,208.243 141.770 C 209.475 141.412,211.622 140.586,213.014 139.935 C 218.225 137.496,239.384 137.633,243.249 140.129 C 243.772 140.467,245.629 141.106,247.376 141.550 C 249.123 141.994,251.013 142.727,251.576 143.178 C 252.139 143.629,253.631 144.539,254.890 145.200 C 256.279 145.929,257.415 146.855,257.776 147.553 C 260.487 152.796,268.476 152.418,269.840 146.982 C 269.979 146.430,270.441 145.792,270.867 145.564 C 271.294 145.336,271.990 144.575,272.415 143.874 C 272.839 143.174,273.829 141.880,274.614 141.000 C 277.420 137.856,279.454 135.331,280.352 133.877 C 280.855 133.065,281.435 132.400,281.641 132.400 C 281.848 132.400,282.510 131.635,283.111 130.700 C 284.261 128.912,285.457 127.533,288.361 124.646 C 291.917 121.112,288.473 112.973,282.000 109.612 C 281.230 109.212,280.240 108.483,279.800 107.991 C 279.360 107.499,278.229 106.764,277.288 106.357 C 276.346 105.950,274.906 105.094,274.088 104.453 C 273.269 103.813,271.676 102.991,270.547 102.628 C 269.418 102.264,268.178 101.618,267.792 101.191 C 267.405 100.764,265.558 99.948,263.687 99.377 C 261.816 98.806,259.807 97.985,259.221 97.552 C 258.632 97.117,256.649 96.490,254.778 96.147 C 251.442 95.536,249.847 95.091,246.476 93.832 C 243.096 92.569,225.499 91.990,215.000 92.797 M241.310 93.633 C 242.800 93.835,245.050 94.362,246.310 94.805 C 247.569 95.248,250.220 95.885,252.200 96.222 C 254.414 96.598,256.878 97.349,258.600 98.171 C 260.140 98.906,262.251 99.710,263.292 99.958 C 264.333 100.205,266.025 100.941,267.053 101.593 C 268.081 102.245,269.570 102.986,270.361 103.239 C 271.153 103.492,272.408 104.153,273.150 104.708 C 273.893 105.263,275.558 106.230,276.850 106.856 C 278.143 107.482,279.200 108.161,279.200 108.364 C 279.200 108.568,279.875 109.145,280.700 109.646 C 287.913 114.031,291.253 120.741,287.918 124.152 C 285.680 126.441,283.433 129.005,281.200 131.818 C 280.210 133.066,278.758 134.832,277.973 135.743 C 277.188 136.654,276.144 137.979,275.654 138.688 C 275.164 139.396,274.276 140.493,273.681 141.125 C 272.273 142.622,269.795 145.830,268.680 147.600 C 266.239 151.477,262.002 151.444,258.696 147.523 C 257.766 146.419,256.306 145.160,255.452 144.725 C 254.599 144.289,253.200 143.425,252.343 142.805 C 251.486 142.184,249.844 141.457,248.693 141.190 C 247.542 140.923,245.763 140.292,244.740 139.789 C 239.010 136.969,216.971 136.876,211.510 139.649 C 210.691 140.065,208.855 140.829,207.430 141.346 C 206.006 141.863,204.185 142.807,203.383 143.443 C 201.229 145.154,196.822 149.729,196.810 150.266 C 196.805 150.522,196.079 152.093,195.198 153.756 C 193.000 157.904,192.815 160.170,192.807 183.077 L 192.800 201.955 193.689 202.577 C 194.471 203.125,197.751 203.202,220.989 203.217 C 249.479 203.236,250.012 203.269,252.282 205.131 C 255.942 208.132,255.600 206.544,255.600 220.528 L 255.600 232.930 254.606 234.626 C 253.918 235.800,253.024 236.613,251.706 237.262 L 249.800 238.200 222.146 238.318 C 194.806 238.434,194.483 238.445,193.746 239.260 C 192.500 240.636,192.380 301.758,193.620 303.334 L 194.458 304.400 231.035 304.400 L 267.612 304.400 268.404 303.100 C 269.154 301.870,269.199 301.020,269.229 287.400 C 269.265 271.228,269.362 270.515,271.632 269.723 C 272.600 269.385,277.720 269.239,289.146 269.223 L 305.292 269.200 307.174 270.225 C 310.654 272.118,310.400 269.260,310.400 306.592 L 310.400 339.662 309.252 340.731 C 307.200 342.641,305.118 343.979,303.846 344.207 C 299.845 344.921,126.472 344.189,125.661 343.455 C 124.131 342.070,123.925 339.476,124.066 323.341 C 124.218 306.010,123.951 307.301,127.775 305.430 C 129.794 304.442,130.167 304.400,136.926 304.400 L 143.972 304.400 145.386 303.159 L 146.800 301.917 146.800 271.972 C 146.800 234.596,148.010 238.400,136.117 238.400 C 123.277 238.400,124.200 239.727,124.200 221.258 C 124.200 201.881,123.311 203.200,136.369 203.200 C 141.994 203.200,143.930 203.062,145.155 202.572 L 146.725 201.943 146.901 180.272 C 147.109 154.674,147.861 145.955,150.183 142.244 C 150.720 141.386,151.211 139.938,151.988 136.918 C 152.226 135.993,152.838 134.733,153.348 134.118 C 153.858 133.503,154.603 132.100,155.003 131.000 C 155.403 129.900,156.215 128.460,156.809 127.800 C 157.402 127.140,158.306 125.835,158.817 124.900 C 159.329 123.965,159.864 123.200,160.007 123.200 C 160.150 123.200,160.959 122.195,161.805 120.968 C 163.625 118.325,170.158 112.045,173.017 110.190 C 174.127 109.470,175.285 108.580,175.591 108.211 C 175.896 107.843,176.879 107.170,177.773 106.716 C 178.668 106.262,179.892 105.479,180.494 104.976 C 181.095 104.474,182.609 103.680,183.858 103.213 C 185.107 102.746,186.622 101.948,187.225 101.440 C 187.829 100.932,189.555 100.209,191.061 99.833 C 192.568 99.457,194.355 98.825,195.033 98.428 C 196.787 97.401,198.495 96.897,202.600 96.195 C 204.580 95.856,207.280 95.236,208.600 94.818 C 212.217 93.670,213.286 93.514,219.800 93.187 C 226.489 92.851,237.168 93.072,241.310 93.633 " stroke="none" fill="#bcbcbc" fill-rule="evenodd"></path><path id="path2" d="M0.000 213.600 L 0.000 427.200 200.000 427.200 L 400.000 427.200 400.000 213.600 L 400.000 0.000 200.000 0.000 L 0.000 0.000 0.000 213.600 M243.453 92.181 C 247.550 92.352,249.660 92.917,250.926 94.183 C 251.366 94.623,252.679 95.005,254.510 95.227 C 259.331 95.810,259.965 95.994,261.363 97.222 C 262.247 97.997,263.447 98.541,264.855 98.803 C 267.889 99.368,269.031 99.910,269.540 101.027 C 269.783 101.562,270.302 102.001,270.691 102.002 C 272.358 102.007,274.607 102.962,275.892 104.210 C 276.652 104.949,277.804 105.669,278.451 105.811 C 279.098 105.953,280.012 106.590,280.483 107.227 C 280.953 107.863,281.942 108.583,282.679 108.826 C 284.054 109.280,289.107 113.931,289.963 115.530 C 291.589 118.570,290.857 124.543,288.769 125.271 C 287.988 125.543,287.600 125.951,287.600 126.501 C 287.600 126.953,286.914 127.970,286.076 128.761 C 285.237 129.553,284.062 131.052,283.463 132.093 C 282.865 133.134,282.021 134.175,281.589 134.406 C 281.156 134.637,280.456 135.505,280.033 136.335 C 279.610 137.164,278.821 138.044,278.279 138.291 C 277.738 138.538,276.958 139.428,276.547 140.270 C 276.136 141.111,275.305 142.035,274.700 142.322 C 274.015 142.647,273.600 143.160,273.600 143.683 C 273.600 144.145,272.907 145.170,272.060 145.961 C 271.213 146.753,270.410 147.850,270.275 148.400 C 270.141 148.950,269.504 150.030,268.859 150.800 L 267.688 152.200 263.787 152.200 L 259.887 152.200 258.843 150.839 C 256.384 147.630,254.649 145.996,253.308 145.626 C 251.779 145.204,250.400 144.150,250.400 143.405 C 250.400 143.119,248.830 142.676,246.401 142.278 C 244.201 141.917,241.838 141.301,241.150 140.911 C 240.462 140.520,239.427 139.931,238.850 139.602 C 237.996 139.115,235.935 139.004,227.791 139.002 L 217.782 139.000 215.791 140.271 C 214.465 141.118,212.773 141.735,210.725 142.118 C 208.205 142.590,207.339 142.962,205.925 144.175 C 204.976 144.989,203.695 145.758,203.077 145.882 C 202.290 146.041,201.752 146.539,201.277 147.549 C 200.904 148.342,200.115 149.222,199.525 149.505 C 198.489 150.001,198.010 151.091,196.986 155.284 C 196.840 155.880,196.251 156.870,195.675 157.484 C 194.325 158.924,193.943 166.164,194.096 187.400 L 194.200 201.800 222.800 202.000 L 251.400 202.200 252.800 203.096 C 257.377 206.027,257.715 207.200,257.908 220.818 L 258.064 231.837 257.032 233.778 C 256.464 234.846,256.000 235.931,256.000 236.190 C 256.000 237.223,254.046 238.432,251.525 238.960 C 250.090 239.260,248.403 239.842,247.776 240.253 C 246.697 240.960,245.242 241.006,220.702 241.116 L 194.768 241.233 194.384 242.243 C 193.780 243.830,193.873 301.313,194.480 301.920 C 195.176 302.616,266.824 302.616,267.520 301.920 C 267.877 301.563,268.000 297.418,268.000 285.742 L 268.000 270.045 268.965 268.922 L 269.931 267.800 288.865 267.800 C 305.945 267.800,307.922 267.867,309.044 268.481 C 311.482 269.816,311.400 268.499,311.400 306.546 L 311.400 341.293 310.456 341.946 C 309.937 342.306,308.904 343.230,308.161 344.000 L 306.811 345.400 216.905 345.514 C 167.457 345.577,126.414 345.523,125.697 345.395 C 122.970 344.908,123.000 345.134,123.000 325.001 C 123.000 304.882,122.846 306.027,125.860 303.727 L 127.336 302.600 135.368 302.400 C 139.786 302.290,143.625 302.054,143.900 301.876 C 144.737 301.335,144.618 243.289,143.777 242.089 C 143.175 241.229,142.931 241.200,136.255 241.200 C 129.524 241.200,129.322 241.176,128.000 240.200 C 127.255 239.650,126.330 239.200,125.945 239.200 C 125.560 239.200,124.740 238.766,124.122 238.235 L 123.000 237.270 122.872 223.335 C 122.724 207.155,122.878 204.819,124.198 203.283 L 125.130 202.200 133.865 202.090 C 138.669 202.030,142.997 201.894,143.482 201.787 L 144.363 201.594 144.482 178.897 L 144.600 156.200 145.663 153.933 C 146.389 152.384,146.806 150.673,146.979 148.533 C 147.487 142.262,147.637 141.586,148.817 140.241 C 149.829 139.089,150.193 138.092,150.974 134.341 C 151.095 133.759,151.812 132.544,152.565 131.641 C 153.319 130.739,154.061 129.415,154.213 128.700 C 154.523 127.242,155.458 126.000,156.247 126.000 C 156.534 126.000,156.961 125.288,157.195 124.417 C 157.430 123.546,158.270 122.151,159.062 121.317 C 159.854 120.483,160.936 119.118,161.466 118.284 C 161.996 117.451,162.882 116.597,163.435 116.387 C 163.988 116.177,164.618 115.493,164.836 114.869 C 165.074 114.185,165.776 113.474,166.598 113.082 C 167.349 112.723,168.230 111.916,168.554 111.288 C 168.889 110.640,169.849 109.829,170.772 109.412 C 171.668 109.009,172.400 108.527,172.400 108.342 C 172.400 107.761,175.679 105.600,176.560 105.600 C 177.029 105.600,177.930 104.975,178.600 104.184 C 179.474 103.153,180.373 102.619,181.908 102.218 C 183.244 101.870,184.420 101.235,185.121 100.485 C 186.015 99.528,186.778 99.208,189.119 98.814 C 191.211 98.461,192.123 98.117,192.415 97.572 C 193.067 96.353,194.318 95.915,198.667 95.383 C 201.678 95.014,203.054 94.658,203.832 94.046 C 206.436 91.998,221.767 91.276,243.453 92.181 " stroke="none" fill="#fcfcfc" fill-rule="evenodd"></path><path id="path3" d="M219.800 93.187 C 213.286 93.514,212.217 93.670,208.600 94.818 C 207.280 95.236,204.580 95.856,202.600 96.195 C 198.495 96.897,196.787 97.401,195.033 98.428 C 194.355 98.825,192.568 99.457,191.061 99.833 C 189.555 100.209,187.829 100.932,187.225 101.440 C 186.622 101.948,185.107 102.746,183.858 103.213 C 182.609 103.680,181.095 104.474,180.494 104.976 C 179.892 105.479,178.668 106.262,177.773 106.716 C 176.879 107.170,175.896 107.843,175.591 108.211 C 175.285 108.580,174.127 109.470,173.017 110.190 C 170.158 112.045,163.625 118.325,161.805 120.968 C 160.959 122.195,160.150 123.200,160.007 123.200 C 159.864 123.200,159.329 123.965,158.817 124.900 C 158.306 125.835,157.402 127.140,156.809 127.800 C 156.215 128.460,155.403 129.900,155.003 131.000 C 154.603 132.100,153.858 133.503,153.348 134.118 C 152.838 134.733,152.226 135.993,151.988 136.918 C 151.211 139.938,150.720 141.386,150.183 142.244 C 147.861 145.955,147.109 154.674,146.901 180.272 L 146.725 201.943 145.155 202.572 C 143.930 203.062,141.994 203.200,136.369 203.200 C 123.311 203.200,124.200 201.881,124.200 221.258 C 124.200 239.727,123.277 238.400,136.117 238.400 C 148.010 238.400,146.800 234.596,146.800 271.972 L 146.800 301.917 145.386 303.159 L 143.972 304.400 136.926 304.400 C 130.167 304.400,129.794 304.442,127.775 305.430 C 123.951 307.301,124.218 306.010,124.066 323.341 C 123.925 339.476,124.131 342.070,125.661 343.455 C 126.472 344.189,299.845 344.921,303.846 344.207 C 305.118 343.979,307.200 342.641,309.252 340.731 L 310.400 339.662 310.400 306.592 C 310.400 269.260,310.654 272.118,307.174 270.225 L 305.292 269.200 289.146 269.223 C 277.720 269.239,272.600 269.385,271.632 269.723 C 269.362 270.515,269.265 271.228,269.229 287.400 C 269.199 301.020,269.154 301.870,268.404 303.100 L 267.612 304.400 231.035 304.400 L 194.458 304.400 193.620 303.334 C 192.380 301.758,192.500 240.636,193.746 239.260 C 194.483 238.445,194.806 238.434,222.146 238.318 L 249.800 238.200 251.706 237.262 C 253.024 236.613,253.918 235.800,254.606 234.626 L 255.600 232.930 255.600 220.528 C 255.600 206.544,255.942 208.132,252.282 205.131 C 250.012 203.269,249.479 203.236,220.989 203.217 C 197.751 203.202,194.471 203.125,193.689 202.577 L 192.800 201.955 192.807 183.077 C 192.815 160.170,193.000 157.904,195.198 153.756 C 196.079 152.093,196.805 150.522,196.810 150.266 C 196.822 149.729,201.229 145.154,203.383 143.443 C 204.185 142.807,206.006 141.863,207.430 141.346 C 208.855 140.829,210.691 140.065,211.510 139.649 C 216.971 136.876,239.010 136.969,244.740 139.789 C 245.763 140.292,247.542 140.923,248.693 141.190 C 249.844 141.457,251.486 142.184,252.343 142.805 C 253.200 143.425,254.599 144.289,255.452 144.725 C 256.306 145.160,257.766 146.419,258.696 147.523 C 262.002 151.444,266.239 151.477,268.680 147.600 C 269.795 145.830,272.273 142.622,273.681 141.125 C 274.276 140.493,275.164 139.396,275.654 138.688 C 276.144 137.979,277.188 136.654,277.973 135.743 C 278.758 134.832,280.210 133.066,281.200 131.818 C 283.433 129.005,285.680 126.441,287.918 124.152 C 291.253 120.741,287.913 114.031,280.700 109.646 C 279.875 109.145,279.200 108.568,279.200 108.364 C 279.200 108.161,278.143 107.482,276.850 106.856 C 275.558 106.230,273.893 105.263,273.150 104.708 C 272.408 104.153,271.153 103.492,270.361 103.239 C 269.570 102.986,268.081 102.245,267.053 101.593 C 266.025 100.941,264.333 100.205,263.292 99.958 C 262.251 99.710,260.140 98.906,258.600 98.171 C 256.878 97.349,254.414 96.598,252.200 96.222 C 250.220 95.885,247.569 95.248,246.310 94.805 C 241.927 93.264,231.238 92.612,219.800 93.187 M241.987 95.351 C 243.629 95.934,246.977 96.674,249.426 96.995 C 254.400 97.647,254.817 97.764,256.800 99.058 C 257.570 99.560,259.529 100.250,261.154 100.591 C 263.263 101.034,264.486 101.543,265.429 102.372 C 266.242 103.086,267.615 103.725,269.000 104.035 C 270.463 104.362,271.507 104.864,271.982 105.467 C 272.682 106.358,276.489 108.388,277.473 108.396 C 277.733 108.398,278.065 108.773,278.209 109.230 C 278.359 109.701,279.223 110.381,280.208 110.804 C 281.163 111.213,282.132 111.899,282.362 112.328 C 282.591 112.757,283.408 113.480,284.177 113.933 C 285.040 114.443,285.677 115.186,285.842 115.879 C 285.990 116.495,286.625 117.990,287.254 119.200 C 288.724 122.027,288.696 122.511,287.011 123.314 C 286.143 123.728,285.524 124.362,285.364 125.002 C 285.221 125.573,284.581 126.300,283.923 126.640 C 283.272 126.976,282.528 127.754,282.270 128.368 C 282.011 128.982,281.207 130.095,280.481 130.842 C 278.575 132.805,275.894 135.982,274.778 137.600 C 274.248 138.370,273.225 139.591,272.507 140.313 C 271.788 141.036,271.200 141.887,271.200 142.204 C 271.200 142.522,270.741 143.082,270.180 143.450 C 269.619 143.817,268.764 144.934,268.280 145.931 C 266.657 149.276,260.983 149.438,259.202 146.191 C 258.842 145.536,257.711 144.542,256.688 143.983 C 255.665 143.424,254.393 142.557,253.861 142.057 C 253.329 141.557,251.838 140.878,250.547 140.547 C 249.256 140.215,247.549 139.521,246.754 139.002 C 241.805 135.778,213.224 135.584,209.851 138.752 C 209.372 139.202,207.779 139.942,206.310 140.395 C 204.386 140.989,203.414 141.537,202.831 142.357 C 202.385 142.983,201.483 143.717,200.825 143.990 C 200.168 144.262,199.404 144.995,199.128 145.618 C 198.852 146.241,198.215 146.938,197.712 147.167 C 197.185 147.407,196.401 148.479,195.863 149.692 C 195.350 150.851,194.611 152.063,194.223 152.384 C 192.224 154.035,191.588 160.730,191.323 182.907 C 191.094 202.081,191.144 202.681,193.046 203.548 C 193.750 203.869,201.496 204.000,219.764 204.000 C 245.960 204.000,249.325 204.166,250.313 205.504 C 250.596 205.887,251.586 206.562,252.513 207.005 L 254.200 207.810 254.306 220.452 L 254.411 233.094 253.106 234.390 C 250.271 237.202,252.761 236.979,221.729 237.200 L 193.622 237.400 192.742 238.280 C 191.346 239.677,191.260 241.597,191.231 272.200 C 191.203 302.501,191.232 303.026,193.051 305.188 L 194.071 306.400 230.974 306.400 C 266.947 306.400,267.894 306.381,268.576 305.626 C 270.227 303.802,270.364 302.421,270.382 287.377 L 270.400 272.954 272.237 271.659 L 274.074 270.365 289.337 270.482 C 304.377 270.598,304.620 270.613,306.000 271.499 C 306.770 271.993,307.686 272.398,308.036 272.399 C 309.550 272.402,309.601 273.502,309.577 305.719 C 309.552 339.917,309.548 339.996,307.887 340.440 C 307.277 340.603,306.160 341.279,305.406 341.941 C 303.388 343.713,307.477 343.642,214.067 343.516 L 127.534 343.400 126.367 342.094 L 125.200 340.787 125.206 324.894 C 125.209 316.152,125.373 308.746,125.569 308.436 C 126.513 306.945,129.548 306.401,136.913 306.400 C 144.937 306.400,146.269 306.091,147.590 303.924 C 148.531 302.381,148.888 242.320,147.972 239.692 C 147.239 237.590,145.523 237.200,137.012 237.200 C 128.526 237.200,125.799 236.793,125.446 235.475 C 125.317 234.994,125.208 228.459,125.205 220.954 C 125.198 202.978,124.458 204.000,137.487 203.999 C 144.219 203.999,145.609 203.894,146.800 203.299 L 148.200 202.600 148.458 178.600 C 148.742 152.255,149.000 148.172,150.548 145.515 C 151.097 144.572,151.750 142.900,151.998 141.800 C 153.027 137.237,153.394 136.192,154.239 135.416 C 154.727 134.967,155.503 133.428,155.964 131.996 C 156.456 130.465,157.140 129.180,157.622 128.879 C 158.073 128.597,158.782 127.576,159.196 126.609 C 159.610 125.642,160.404 124.554,160.959 124.190 C 161.514 123.826,162.084 123.164,162.226 122.719 C 162.673 121.311,172.539 111.735,174.641 110.670 C 175.323 110.324,176.172 109.597,176.527 109.055 C 176.882 108.513,177.720 107.949,178.389 107.802 C 179.059 107.655,180.550 106.825,181.703 105.957 C 182.856 105.090,184.520 104.190,185.400 103.959 C 186.280 103.728,187.665 103.012,188.478 102.368 C 189.446 101.601,190.893 101.001,192.678 100.625 C 196.081 99.909,196.800 99.652,197.800 98.796 C 198.847 97.899,199.705 97.695,205.241 97.028 C 207.793 96.721,211.213 96.069,212.841 95.579 C 219.459 93.589,236.642 93.455,241.987 95.351 " stroke="none" fill="#a4a4a4" fill-rule="evenodd"></path><path id="path4" d="M217.600 92.032 C 207.582 92.304,205.696 92.580,203.832 94.046 C 203.054 94.658,201.678 95.014,198.667 95.383 C 194.318 95.915,193.067 96.353,192.415 97.572 C 192.123 98.117,191.211 98.461,189.119 98.814 C 186.778 99.208,186.015 99.528,185.121 100.485 C 184.420 101.235,183.244 101.870,181.908 102.218 C 180.373 102.619,179.474 103.153,178.600 104.184 C 177.930 104.975,177.029 105.600,176.560 105.600 C 175.679 105.600,172.400 107.761,172.400 108.342 C 172.400 108.527,171.668 109.009,170.772 109.412 C 169.849 109.829,168.889 110.640,168.554 111.288 C 168.230 111.916,167.349 112.723,166.598 113.082 C 165.776 113.474,165.074 114.185,164.836 114.869 C 164.618 115.493,163.988 116.177,163.435 116.387 C 162.882 116.597,161.996 117.451,161.466 118.284 C 160.936 119.118,159.854 120.483,159.062 121.317 C 158.270 122.151,157.430 123.546,157.195 124.417 C 156.961 125.288,156.534 126.000,156.247 126.000 C 155.458 126.000,154.523 127.242,154.213 128.700 C 154.061 129.415,153.319 130.739,152.565 131.641 C 151.812 132.544,151.095 133.759,150.974 134.341 C 150.193 138.092,149.829 139.089,148.817 140.241 C 147.637 141.586,147.487 142.262,146.979 148.533 C 146.806 150.673,146.389 152.384,145.663 153.933 L 144.600 156.200 144.482 178.897 L 144.363 201.594 143.482 201.787 C 142.997 201.894,138.669 202.030,133.865 202.090 L 125.130 202.200 124.198 203.283 C 122.878 204.819,122.724 207.155,122.872 223.335 L 123.000 237.270 124.122 238.235 C 124.740 238.766,125.560 239.200,125.945 239.200 C 126.330 239.200,127.255 239.650,128.000 240.200 C 129.322 241.176,129.524 241.200,136.255 241.200 C 142.931 241.200,143.175 241.229,143.777 242.089 C 144.618 243.289,144.737 301.335,143.900 301.876 C 143.625 302.054,139.786 302.290,135.368 302.400 L 127.336 302.600 125.860 303.727 C 122.846 306.027,123.000 304.882,123.000 325.001 C 123.000 345.134,122.970 344.908,125.697 345.395 C 126.414 345.523,167.457 345.577,216.905 345.514 L 306.811 345.400 308.161 344.000 C 308.904 343.230,309.937 342.306,310.456 341.946 L 311.400 341.293 311.400 306.546 C 311.400 268.499,311.482 269.816,309.044 268.481 C 307.922 267.867,305.945 267.800,288.865 267.800 L 269.931 267.800 268.965 268.922 L 268.000 270.045 268.000 285.742 C 268.000 297.418,267.877 301.563,267.520 301.920 C 266.824 302.616,195.176 302.616,194.480 301.920 C 193.873 301.313,193.780 243.830,194.384 242.243 L 194.768 241.233 220.702 241.116 C 245.242 241.006,246.697 240.960,247.776 240.253 C 248.403 239.842,250.090 239.260,251.525 238.960 C 254.046 238.432,256.000 237.223,256.000 236.190 C 256.000 235.931,256.464 234.846,257.032 233.778 L 258.064 231.837 257.908 220.818 C 257.715 207.200,257.377 206.027,252.800 203.096 L 251.400 202.200 222.800 202.000 L 194.200 201.800 194.096 187.400 C 193.943 166.164,194.325 158.924,195.675 157.484 C 196.251 156.870,196.840 155.880,196.986 155.284 C 198.010 151.091,198.489 150.001,199.525 149.505 C 200.115 149.222,200.904 148.342,201.277 147.549 C 201.752 146.539,202.290 146.041,203.077 145.882 C 203.695 145.758,204.976 144.989,205.925 144.175 C 207.339 142.962,208.205 142.590,210.725 142.118 C 212.773 141.735,214.465 141.118,215.791 140.271 L 217.782 139.000 227.791 139.002 C 235.935 139.004,237.996 139.115,238.850 139.602 C 239.427 139.931,240.462 140.520,241.150 140.911 C 241.838 141.301,244.201 141.917,246.401 142.278 C 248.830 142.676,250.400 143.119,250.400 143.405 C 250.400 144.150,251.779 145.204,253.308 145.626 C 254.649 145.996,256.384 147.630,258.843 150.839 L 259.887 152.200 263.787 152.200 L 267.688 152.200 268.859 150.800 C 269.504 150.030,270.141 148.950,270.275 148.400 C 270.410 147.850,271.213 146.753,272.060 145.961 C 272.907 145.170,273.600 144.145,273.600 143.683 C 273.600 143.160,274.015 142.647,274.700 142.322 C 275.305 142.035,276.136 141.111,276.547 140.270 C 276.958 139.428,277.738 138.538,278.279 138.291 C 278.821 138.044,279.610 137.164,280.033 136.335 C 280.456 135.505,281.156 134.637,281.589 134.406 C 282.021 134.175,282.865 133.134,283.463 132.093 C 284.062 131.052,285.237 129.553,286.076 128.761 C 286.914 127.970,287.600 126.953,287.600 126.501 C 287.600 125.951,287.988 125.543,288.769 125.271 C 290.857 124.543,291.589 118.570,289.963 115.530 C 289.107 113.931,284.054 109.280,282.679 108.826 C 281.942 108.583,280.953 107.863,280.483 107.227 C 280.012 106.590,279.098 105.953,278.451 105.811 C 277.804 105.669,276.652 104.949,275.892 104.210 C 274.607 102.962,272.358 102.007,270.691 102.002 C 270.302 102.001,269.783 101.562,269.540 101.027 C 269.031 99.910,267.889 99.368,264.855 98.803 C 263.447 98.541,262.247 97.997,261.363 97.222 C 259.965 95.994,259.331 95.810,254.510 95.227 C 252.679 95.005,251.366 94.623,250.926 94.183 C 249.660 92.917,247.550 92.352,243.453 92.181 C 234.830 91.821,227.023 91.776,217.600 92.032 M240.076 92.800 C 242.649 93.013,245.529 93.478,246.476 93.832 C 249.847 95.091,251.442 95.536,254.778 96.147 C 256.649 96.490,258.632 97.117,259.221 97.552 C 259.807 97.985,261.816 98.806,263.687 99.377 C 265.558 99.948,267.405 100.764,267.792 101.191 C 268.178 101.618,269.418 102.264,270.547 102.628 C 271.676 102.991,273.269 103.813,274.088 104.453 C 274.906 105.094,276.346 105.950,277.288 106.357 C 278.229 106.764,279.360 107.499,279.800 107.991 C 280.240 108.483,281.230 109.212,282.000 109.612 C 288.473 112.973,291.917 121.112,288.361 124.646 C 285.457 127.533,284.261 128.912,283.111 130.700 C 282.510 131.635,281.848 132.400,281.641 132.400 C 281.435 132.400,280.855 133.065,280.352 133.877 C 279.454 135.331,277.420 137.856,274.614 141.000 C 273.829 141.880,272.839 143.174,272.415 143.874 C 271.990 144.575,271.294 145.336,270.867 145.564 C 270.441 145.792,269.979 146.430,269.840 146.982 C 268.476 152.418,260.487 152.796,257.776 147.553 C 257.415 146.855,256.279 145.929,254.890 145.200 C 253.631 144.539,252.139 143.629,251.576 143.178 C 251.013 142.727,249.123 141.994,247.376 141.550 C 245.629 141.106,243.772 140.467,243.249 140.129 C 239.384 137.633,218.225 137.496,213.014 139.935 C 211.622 140.586,209.475 141.412,208.243 141.770 C 207.011 142.128,205.418 142.932,204.702 143.555 C 203.986 144.179,202.815 144.989,202.100 145.355 C 201.385 145.721,200.800 146.212,200.800 146.446 C 200.800 146.680,199.990 147.659,199.000 148.621 C 198.010 149.583,197.189 150.692,197.176 151.085 C 197.163 151.478,196.720 152.610,196.191 153.600 C 194.064 157.580,193.909 158.163,193.570 163.399 C 193.386 166.260,193.227 176.015,193.217 185.077 L 193.200 201.555 194.089 202.177 C 194.873 202.726,198.215 202.800,222.263 202.800 C 249.746 202.800,250.848 202.854,252.291 204.284 C 252.688 204.678,253.520 205.329,254.140 205.731 C 256.255 207.103,256.400 208.079,256.396 220.887 C 256.390 240.504,258.954 239.200,220.389 239.200 L 194.431 239.200 193.815 241.273 C 192.711 244.991,192.907 301.119,194.029 302.546 L 194.858 303.600 230.967 303.600 C 264.892 303.600,267.114 303.558,267.712 302.898 C 268.264 302.288,268.364 300.205,268.474 286.998 C 268.609 270.774,268.716 269.893,270.685 268.957 C 271.827 268.414,304.034 268.271,306.000 268.800 C 306.915 269.047,308.325 269.853,309.132 270.593 L 310.600 271.938 310.707 306.027 L 310.813 340.115 308.907 341.885 C 307.858 342.859,306.460 343.958,305.800 344.328 C 304.311 345.162,131.247 345.596,127.289 344.776 C 123.667 344.025,123.818 344.841,123.684 325.330 C 123.551 305.980,123.409 306.862,126.981 304.846 L 129.188 303.600 136.256 303.600 C 143.217 303.600,143.345 303.584,144.662 302.580 L 146.000 301.559 146.000 272.360 C 146.000 235.728,147.002 239.201,136.438 239.198 C 127.578 239.195,124.910 238.597,124.004 236.409 C 123.691 235.654,123.592 230.753,123.677 220.271 L 123.800 205.217 124.908 204.109 L 126.017 203.000 134.908 202.788 C 141.314 202.636,144.107 202.422,144.900 202.024 L 146.000 201.472 146.002 181.236 C 146.003 165.646,146.134 160.173,146.575 157.400 C 146.889 155.420,147.350 152.000,147.599 149.800 C 148.143 144.986,148.643 142.944,149.609 141.588 C 150.008 141.027,150.634 139.414,150.999 138.002 C 151.718 135.228,152.625 133.200,153.147 133.200 C 153.327 133.200,153.971 131.932,154.580 130.381 C 155.220 128.750,156.073 127.309,156.605 126.960 C 157.110 126.629,157.636 125.913,157.772 125.369 C 157.909 124.825,158.613 123.709,159.336 122.890 C 160.060 122.070,161.083 120.770,161.608 120.000 C 162.955 118.027,169.847 111.377,172.000 109.973 C 172.990 109.327,174.380 108.259,175.089 107.600 C 175.798 106.940,176.636 106.400,176.951 106.400 C 177.266 106.400,178.264 105.782,179.168 105.026 C 180.073 104.271,181.829 103.273,183.070 102.808 C 184.312 102.343,185.822 101.548,186.425 101.040 C 187.029 100.532,188.755 99.810,190.261 99.435 C 191.768 99.060,193.653 98.305,194.451 97.756 C 195.496 97.038,197.172 96.539,200.451 95.970 C 202.953 95.536,205.810 94.845,206.800 94.434 C 211.239 92.592,227.771 91.780,240.076 92.800 " stroke="none" fill="#d4d4d4" fill-rule="evenodd"></path></g></svg>