<svg id="svg" version="1.1" xmlns="http://www.w3.org/2000/svg" xmlns:xlink="http://www.w3.org/1999/xlink" width="400" height="408.79120879120876" viewBox="0, 0, 400,408.79120879120876"><g id="svgg"><path id="path0" d="M262.667 57.467 C 262.520 57.613,262.400 60.400,262.400 63.659 C 262.400 70.633,261.562 69.880,269.600 70.124 C 273.282 70.236,275.509 70.492,276.600 70.928 C 277.480 71.280,279.698 71.766,281.528 72.007 C 283.390 72.253,285.411 72.783,286.115 73.211 C 286.807 73.633,288.190 74.088,289.187 74.224 C 290.184 74.360,291.450 74.785,292.000 75.168 C 292.550 75.550,293.900 76.087,295.000 76.360 C 296.100 76.633,297.360 77.188,297.800 77.593 C 298.240 77.997,299.344 78.526,300.253 78.767 C 301.163 79.008,302.122 79.465,302.385 79.782 C 302.649 80.100,303.481 80.563,304.235 80.812 C 304.989 81.060,305.778 81.586,305.989 81.979 C 306.199 82.373,306.900 82.800,307.546 82.929 C 308.192 83.058,309.214 83.622,309.818 84.182 C 310.423 84.742,311.156 85.200,311.449 85.200 C 311.742 85.200,312.276 85.650,312.637 86.200 C 312.997 86.750,313.465 87.200,313.676 87.200 C 314.313 87.200,319.439 91.366,322.909 94.703 C 323.793 95.553,327.946 100.092,328.907 101.257 C 331.851 104.830,332.312 105.463,332.573 106.300 C 332.727 106.795,333.006 107.200,333.192 107.200 C 333.648 107.200,336.800 111.852,336.800 112.526 C 336.800 112.820,337.241 113.475,337.779 113.981 C 338.318 114.486,338.870 115.409,339.007 116.031 C 339.144 116.653,339.577 117.576,339.969 118.081 C 340.362 118.587,340.916 119.720,341.200 120.600 C 341.484 121.480,342.045 122.623,342.448 123.141 C 342.850 123.658,343.296 124.738,343.438 125.541 C 343.581 126.343,344.044 127.575,344.467 128.277 C 344.891 128.980,345.417 130.690,345.638 132.077 C 345.858 133.465,346.391 135.335,346.822 136.233 C 347.293 137.214,347.763 139.448,347.999 141.833 C 348.215 144.015,348.656 146.520,348.979 147.400 C 349.301 148.280,349.573 150.207,349.582 151.681 C 349.592 153.156,349.809 154.821,350.064 155.381 L 350.528 156.400 356.050 156.400 C 361.284 156.400,361.596 156.355,362.030 155.543 C 362.698 154.295,362.136 146.007,361.179 143.000 C 360.759 141.680,360.236 138.890,360.016 136.800 C 359.772 134.470,359.305 132.387,358.809 131.415 C 358.364 130.544,358.000 129.373,358.000 128.813 C 358.000 127.362,357.352 125.295,356.689 124.632 C 356.378 124.321,355.891 122.973,355.608 121.638 C 355.324 120.302,354.848 119.006,354.549 118.758 C 354.250 118.510,353.808 117.563,353.567 116.653 C 353.326 115.744,352.801 114.640,352.400 114.200 C 351.999 113.760,351.471 112.643,351.225 111.717 C 350.979 110.791,350.583 109.913,350.344 109.765 C 350.105 109.618,349.561 108.710,349.136 107.748 C 348.711 106.787,348.211 106.000,348.025 106.000 C 347.840 106.000,347.324 105.225,346.878 104.278 C 346.433 103.330,345.783 102.318,345.434 102.029 C 345.085 101.739,344.800 101.260,344.800 100.965 C 344.800 100.669,344.305 99.901,343.700 99.258 C 343.095 98.615,341.970 97.158,341.200 96.020 C 340.430 94.881,339.305 93.481,338.700 92.909 C 338.095 92.336,337.600 91.735,337.600 91.573 C 337.600 90.752,326.851 80.629,323.245 78.054 C 321.900 77.094,320.800 76.153,320.800 75.962 C 320.800 75.771,320.346 75.501,319.791 75.362 C 319.236 75.223,318.553 74.783,318.274 74.384 C 317.995 73.986,317.009 73.357,316.083 72.987 C 315.158 72.616,314.400 72.143,314.400 71.936 C 314.400 71.729,313.782 71.301,313.026 70.985 C 312.270 70.669,310.985 69.958,310.170 69.405 C 309.355 68.852,308.381 68.400,308.006 68.400 C 307.631 68.400,306.998 68.039,306.598 67.598 C 306.199 67.157,305.137 66.601,304.236 66.361 C 303.336 66.122,302.303 65.661,301.940 65.337 C 301.577 65.014,300.344 64.502,299.200 64.200 C 298.056 63.898,296.823 63.385,296.460 63.061 C 296.097 62.736,294.769 62.281,293.510 62.050 C 292.250 61.820,290.652 61.337,289.957 60.978 C 289.263 60.619,287.122 60.089,285.200 59.800 C 283.278 59.511,281.120 58.972,280.406 58.603 C 278.696 57.719,263.395 56.739,262.667 57.467 M262.700 86.218 C 262.535 86.392,262.400 89.181,262.400 92.417 L 262.400 98.300 263.650 98.550 C 264.338 98.688,265.759 98.800,266.808 98.800 C 267.857 98.800,269.860 99.141,271.258 99.558 C 272.656 99.975,274.758 100.418,275.929 100.542 C 277.100 100.667,278.990 101.203,280.129 101.734 C 281.268 102.265,282.857 102.816,283.660 102.960 C 284.463 103.104,285.343 103.490,285.616 103.819 C 285.889 104.148,286.902 104.616,287.869 104.859 C 288.835 105.102,289.848 105.619,290.119 106.006 C 290.391 106.394,291.240 107.005,292.007 107.364 C 294.371 108.471,296.413 109.840,297.043 110.740 C 297.374 111.213,297.865 111.600,298.134 111.600 C 298.402 111.600,299.091 112.095,299.665 112.700 C 300.238 113.305,300.953 114.020,301.254 114.289 C 301.554 114.558,301.980 114.954,302.200 115.169 C 302.420 115.384,302.960 115.902,303.400 116.319 C 305.891 118.684,310.240 124.066,310.615 125.248 C 310.751 125.676,311.298 126.462,311.831 126.995 C 312.364 127.528,312.800 128.218,312.800 128.528 C 312.800 128.838,313.134 129.521,313.542 130.046 C 313.950 130.571,314.516 131.720,314.800 132.600 C 315.084 133.480,315.641 134.618,316.038 135.128 C 316.435 135.639,316.885 136.899,317.039 137.928 C 317.193 138.958,317.668 140.470,318.094 141.289 C 318.604 142.268,318.992 144.187,319.226 146.889 C 320.061 156.522,319.969 156.400,326.410 156.400 C 333.488 156.400,334.399 155.382,332.606 149.472 C 332.285 148.412,331.830 145.659,331.595 143.355 C 331.326 140.702,330.884 138.618,330.391 137.673 C 329.964 136.853,329.433 135.226,329.211 134.059 C 328.990 132.892,328.447 131.477,328.004 130.915 C 327.562 130.352,327.197 129.511,327.194 129.046 C 327.191 128.581,326.929 127.750,326.612 127.200 C 326.295 126.650,325.566 125.300,324.992 124.200 C 322.807 120.015,322.167 118.921,321.100 117.544 C 320.495 116.763,320.000 115.960,320.000 115.758 C 320.000 115.557,319.640 115.168,319.200 114.893 C 318.760 114.618,318.400 114.136,318.400 113.822 C 318.400 113.051,307.203 101.782,306.085 101.427 C 305.598 101.273,305.200 100.980,305.200 100.778 C 305.200 100.576,304.439 99.930,303.509 99.342 C 302.579 98.755,301.576 98.033,301.280 97.737 C 300.985 97.442,300.485 97.200,300.169 97.200 C 299.853 97.200,299.203 96.750,298.725 96.200 C 298.247 95.650,297.553 95.200,297.184 95.200 C 296.814 95.200,295.860 94.758,295.064 94.218 C 294.268 93.677,292.893 93.041,292.010 92.803 C 291.126 92.565,290.088 92.037,289.702 91.631 C 289.316 91.224,288.190 90.764,287.200 90.608 C 286.210 90.452,284.793 89.974,284.052 89.547 C 283.310 89.120,281.240 88.574,279.452 88.336 C 277.663 88.097,275.333 87.562,274.273 87.146 C 272.224 86.343,263.265 85.624,262.700 86.218 M191.786 92.707 C 184.062 100.098,181.993 102.000,181.675 102.000 C 181.484 102.000,181.123 102.450,180.873 103.000 C 180.622 103.550,180.217 104.000,179.973 104.000 C 179.728 104.000,178.613 104.990,177.495 106.200 C 176.377 107.410,175.223 108.400,174.931 108.400 C 174.639 108.400,174.400 108.554,174.400 108.742 C 174.400 109.130,172.808 110.737,166.220 117.000 C 163.674 119.420,159.628 123.290,157.230 125.600 C 151.123 131.481,148.072 134.365,142.839 139.200 C 140.339 141.510,137.231 144.435,135.932 145.700 C 134.633 146.965,133.426 148.000,133.249 148.000 C 133.073 148.000,132.723 148.450,132.473 149.000 C 132.222 149.550,131.819 150.000,131.576 150.000 C 131.333 150.000,129.735 151.440,128.024 153.200 C 126.313 154.960,124.703 156.400,124.447 156.400 C 124.190 156.400,123.815 156.835,123.613 157.366 C 123.411 157.897,122.885 158.446,122.443 158.586 C 122.002 158.726,121.530 159.192,121.394 159.620 C 121.257 160.049,120.982 160.400,120.782 160.400 C 120.582 160.400,118.414 162.380,115.964 164.800 C 113.515 167.220,111.413 169.200,111.293 169.200 C 111.173 169.200,110.248 170.076,109.238 171.146 C 108.227 172.216,104.880 175.418,101.800 178.261 C 95.503 184.073,93.233 186.223,88.542 190.812 C 86.750 192.566,85.085 194.000,84.842 194.000 C 84.599 194.000,84.400 194.260,84.400 194.577 C 84.400 194.895,83.995 195.434,83.500 195.774 C 82.713 196.316,77.856 200.891,69.457 209.000 C 64.788 213.508,53.403 224.266,51.659 225.818 C 48.986 228.197,43.600 233.625,43.600 233.941 C 43.600 234.470,46.158 236.902,49.818 239.851 C 52.712 242.184,53.691 243.044,55.108 244.500 C 55.697 245.105,56.398 245.600,56.666 245.600 C 56.935 245.600,57.407 245.960,57.716 246.401 C 58.347 247.302,59.256 246.641,64.589 241.400 C 68.335 237.719,79.137 227.492,81.564 225.329 C 83.379 223.710,87.538 219.812,89.000 218.358 C 89.220 218.139,89.731 217.654,90.136 217.280 C 90.540 216.906,92.294 215.205,94.033 213.500 C 95.772 211.795,97.380 210.400,97.606 210.400 C 97.832 210.400,98.222 209.950,98.473 209.400 C 98.723 208.850,99.068 208.400,99.239 208.400 C 99.410 208.400,101.087 206.870,102.966 205.000 C 104.844 203.130,106.450 201.600,106.534 201.600 C 106.618 201.600,108.665 199.665,111.083 197.300 C 113.500 194.935,117.706 190.930,120.429 188.400 C 125.519 183.670,128.236 181.101,132.380 177.100 C 133.691 175.835,134.951 174.800,135.181 174.800 C 135.412 174.800,135.600 174.526,135.600 174.191 C 135.600 173.857,136.030 173.387,136.556 173.147 C 137.082 172.908,137.742 172.282,138.024 171.756 C 138.305 171.230,138.689 170.800,138.877 170.800 C 139.065 170.800,140.732 169.315,142.581 167.500 C 144.430 165.685,148.409 161.860,151.423 159.000 C 154.438 156.140,157.928 152.810,159.179 151.600 C 160.430 150.390,163.763 147.240,166.585 144.600 C 169.408 141.960,172.294 139.260,172.999 138.600 C 177.293 134.581,185.892 126.354,189.827 122.500 C 195.500 116.943,195.734 116.891,199.232 120.400 C 200.548 121.720,201.803 122.800,202.021 122.800 C 202.239 122.800,202.622 123.250,202.873 123.800 C 203.123 124.350,203.486 124.800,203.678 124.800 C 203.870 124.800,205.560 126.330,207.434 128.200 C 209.309 130.070,211.000 131.600,211.194 131.600 C 211.388 131.600,211.660 131.960,211.800 132.400 C 211.940 132.840,212.237 133.200,212.462 133.200 C 212.686 133.200,213.823 134.145,214.988 135.300 C 216.152 136.455,218.902 139.064,221.097 141.099 C 223.292 143.133,226.169 145.833,227.490 147.099 C 228.811 148.364,232.355 151.740,235.365 154.600 C 238.375 157.460,242.354 161.285,244.206 163.100 C 246.058 164.915,247.729 166.400,247.919 166.400 C 248.109 166.400,248.504 166.847,248.796 167.393 C 249.089 167.940,249.650 168.489,250.044 168.614 C 250.437 168.739,250.870 169.192,251.006 169.620 C 251.143 170.049,251.437 170.400,251.662 170.400 C 251.886 170.400,253.014 171.368,254.169 172.551 C 255.324 173.734,256.659 174.910,257.135 175.165 C 257.611 175.420,258.000 175.885,258.000 176.200 C 258.000 176.515,258.343 176.955,258.762 177.180 C 259.676 177.669,263.508 181.205,274.605 191.800 C 277.831 194.880,281.982 198.840,283.829 200.600 C 287.382 203.985,287.959 204.539,288.600 205.175 C 289.050 205.622,296.068 212.332,296.877 213.089 C 297.165 213.358,297.580 213.763,297.800 213.990 C 298.020 214.217,299.055 215.185,300.100 216.141 C 301.145 217.097,302.000 218.087,302.000 218.340 C 302.000 218.593,302.257 218.800,302.571 218.800 C 302.885 218.800,303.472 219.205,303.876 219.700 C 304.280 220.195,305.418 221.308,306.405 222.173 C 308.341 223.869,318.713 233.608,322.408 237.200 C 323.653 238.410,325.376 240.074,326.236 240.898 C 327.096 241.722,328.005 242.596,328.257 242.841 C 328.508 243.086,329.408 243.909,330.257 244.669 C 331.106 245.429,332.080 246.304,332.423 246.614 C 332.958 247.098,333.126 247.095,333.623 246.592 C 333.940 246.270,336.270 244.290,338.800 242.193 C 341.330 240.095,343.852 237.934,344.404 237.389 C 344.957 236.845,345.587 236.392,345.804 236.383 C 346.022 236.374,346.564 235.789,347.009 235.083 C 347.922 233.635,347.961 233.716,345.020 230.909 C 344.151 230.079,342.515 228.500,341.385 227.400 C 339.584 225.648,331.615 218.126,325.917 212.800 C 323.591 210.626,313.662 201.083,311.270 198.723 C 307.949 195.446,305.912 193.600,305.615 193.600 C 305.416 193.600,305.148 193.267,305.019 192.861 C 304.890 192.454,304.354 191.925,303.827 191.685 C 303.300 191.445,302.752 190.878,302.608 190.424 C 302.464 189.971,302.155 189.600,301.921 189.600 C 301.687 189.600,300.550 188.655,299.394 187.500 C 298.238 186.345,295.427 183.690,293.146 181.601 C 290.866 179.512,288.158 176.992,287.130 176.001 C 286.101 175.010,282.621 171.680,279.396 168.600 C 276.171 165.520,271.934 161.470,269.980 159.600 C 268.026 157.730,266.196 155.980,265.914 155.711 C 265.631 155.442,265.220 155.043,265.000 154.823 C 264.592 154.416,257.259 147.408,253.484 143.818 C 252.338 142.729,248.804 139.413,245.632 136.451 C 237.100 128.483,234.346 125.857,229.531 121.100 C 227.137 118.735,225.101 116.800,225.005 116.800 C 224.909 116.800,222.851 114.865,220.431 112.500 C 218.011 110.135,215.312 107.570,214.432 106.800 C 213.553 106.030,212.723 105.085,212.590 104.700 C 212.456 104.315,212.118 104.000,211.839 104.000 C 211.560 104.000,210.864 103.505,210.291 102.900 C 209.719 102.295,209.014 101.580,208.725 101.311 C 208.039 100.672,207.612 100.262,204.651 97.400 C 195.618 88.668,195.899 88.771,191.786 92.707 M262.490 120.895 L 262.600 126.990 264.719 127.294 C 265.884 127.462,267.324 127.845,267.919 128.146 C 268.513 128.447,269.678 128.816,270.506 128.966 C 273.146 129.444,278.390 132.452,281.529 135.289 C 283.261 136.854,286.400 140.514,286.400 140.968 C 286.400 141.142,286.850 141.819,287.400 142.473 C 287.950 143.127,288.400 143.982,288.400 144.375 C 288.400 144.767,288.830 145.722,289.356 146.497 C 289.909 147.312,290.422 148.811,290.573 150.053 C 291.158 154.870,291.210 155.033,292.385 155.727 C 294.096 156.738,302.340 156.701,303.605 155.676 C 304.490 154.960,304.493 154.924,303.879 152.176 C 303.538 150.649,303.133 148.320,302.978 147.000 C 302.824 145.680,302.288 143.880,301.788 143.000 C 301.288 142.120,300.761 140.837,300.618 140.149 C 300.475 139.461,299.918 138.301,299.379 137.572 C 298.841 136.842,298.400 135.914,298.400 135.510 C 298.400 135.106,298.123 134.669,297.785 134.539 C 297.447 134.409,296.882 133.740,296.530 133.052 C 295.992 132.000,294.411 129.877,293.288 128.697 C 291.918 127.257,288.328 124.146,287.194 123.415 C 286.421 122.917,285.544 122.214,285.245 121.854 C 284.946 121.494,284.435 121.200,284.109 121.200 C 283.782 121.200,282.989 120.757,282.345 120.215 C 281.702 119.674,280.529 119.052,279.740 118.835 C 278.951 118.617,278.009 118.171,277.648 117.843 C 277.286 117.516,275.912 117.072,274.595 116.856 C 273.278 116.641,271.390 116.094,270.400 115.641 C 269.083 115.038,267.766 114.815,265.490 114.809 L 262.379 114.800 262.490 120.895 M191.600 143.260 C 189.950 144.823,187.107 147.519,185.283 149.251 C 183.459 150.983,181.823 152.400,181.647 152.400 C 181.472 152.400,181.123 152.850,180.873 153.400 C 180.622 153.950,180.214 154.400,179.966 154.400 C 179.717 154.400,178.570 155.390,177.417 156.600 C 176.264 157.810,175.142 158.800,174.924 158.800 C 174.707 158.800,174.323 159.250,174.073 159.800 C 173.822 160.350,173.339 160.800,172.999 160.800 C 172.659 160.800,172.209 161.250,172.000 161.800 C 171.791 162.350,171.450 162.800,171.242 162.800 C 171.035 162.800,168.780 164.825,166.232 167.300 C 161.372 172.021,154.254 178.814,151.200 181.646 C 150.210 182.564,147.940 184.684,146.156 186.358 C 144.372 188.031,142.572 189.706,142.156 190.080 C 141.292 190.857,140.791 191.354,139.317 192.900 C 138.740 193.505,138.028 194.000,137.734 194.000 C 137.440 194.000,137.200 194.201,137.200 194.447 C 137.200 194.982,134.404 197.756,133.231 198.383 C 132.774 198.628,132.400 199.092,132.400 199.414 C 132.400 199.736,132.230 200.000,132.021 200.000 C 131.813 200.000,130.111 201.485,128.240 203.300 C 121.026 210.297,104.988 225.554,102.243 228.033 C 101.166 229.005,98.885 231.150,97.174 232.800 C 95.462 234.450,92.344 237.420,90.243 239.400 L 86.423 243.000 86.412 296.902 L 86.400 350.804 129.700 350.702 L 173.000 350.600 173.102 305.430 C 173.195 264.095,173.260 260.197,173.864 259.530 C 174.580 258.738,215.907 258.373,217.129 259.148 C 218.276 259.875,218.381 263.852,218.390 306.700 L 218.400 350.800 261.600 350.800 L 304.800 350.800 304.800 296.856 L 304.800 242.912 303.427 241.456 C 302.672 240.655,301.858 240.000,301.618 240.000 C 301.379 240.000,300.978 239.550,300.727 239.000 C 300.477 238.450,300.111 238.000,299.915 238.000 C 299.719 238.000,297.993 236.478,296.079 234.618 C 294.166 232.758,292.242 230.915,291.805 230.523 C 289.184 228.172,273.396 213.234,266.733 206.800 C 258.567 198.916,255.800 196.335,255.100 195.947 C 254.715 195.734,254.400 195.306,254.400 194.994 C 254.400 194.683,253.995 194.213,253.500 193.950 C 253.005 193.688,251.684 192.556,250.565 191.436 C 249.445 190.316,246.308 187.330,243.593 184.800 C 237.035 178.689,237.344 178.980,230.834 172.800 C 227.706 169.830,223.188 165.476,220.793 163.125 C 218.399 160.773,216.071 158.652,215.620 158.411 C 215.169 158.169,214.800 157.720,214.800 157.413 C 214.800 157.105,214.429 156.736,213.976 156.592 C 213.522 156.448,212.953 155.896,212.711 155.365 C 212.470 154.834,212.098 154.400,211.887 154.400 C 211.675 154.400,210.579 153.505,209.451 152.412 C 194.995 138.396,196.123 138.975,191.600 143.260 " stroke="none" fill="#5d5d5d" fill-rule="evenodd"></path><path id="path1" d="M0.000 204.200 L 0.000 408.400 200.000 408.400 L 400.000 408.400 400.000 204.200 L 400.000 0.000 200.000 0.000 L 0.000 0.000 0.000 204.200 M270.600 55.660 C 271.480 55.865,274.632 56.266,277.604 56.552 C 280.739 56.853,283.594 57.347,284.404 57.728 C 285.172 58.089,287.222 58.655,288.960 58.985 C 290.698 59.314,292.408 59.832,292.760 60.134 C 293.112 60.436,294.466 60.890,295.769 61.142 C 297.072 61.394,298.422 61.853,298.769 62.161 C 299.116 62.469,300.210 62.949,301.200 63.229 C 302.190 63.508,303.360 64.035,303.800 64.400 C 304.240 64.765,305.375 65.285,306.321 65.554 C 307.268 65.824,308.142 66.305,308.264 66.622 C 308.386 66.940,308.730 67.200,309.029 67.200 C 309.789 67.200,312.400 68.482,312.400 68.855 C 312.400 69.024,313.165 69.540,314.100 70.001 C 317.288 71.574,318.600 72.384,319.264 73.192 C 319.629 73.637,320.099 74.000,320.308 74.000 C 320.517 74.000,321.478 74.628,322.444 75.396 C 323.410 76.164,324.351 76.794,324.536 76.796 C 324.721 76.798,325.740 77.700,326.800 78.800 C 327.860 79.900,328.857 80.800,329.016 80.800 C 329.256 80.800,331.486 82.851,334.235 85.600 C 335.478 86.843,339.443 91.173,340.518 92.461 C 341.133 93.197,341.853 94.056,342.118 94.368 C 342.383 94.681,343.050 95.600,343.600 96.411 C 344.150 97.222,345.140 98.655,345.800 99.596 C 348.108 102.887,349.202 104.610,349.808 105.909 C 350.144 106.629,350.774 107.574,351.209 108.009 C 351.644 108.444,352.000 109.133,352.000 109.540 C 352.000 109.947,352.537 111.072,353.193 112.040 C 353.849 113.008,354.389 114.170,354.393 114.622 C 354.397 115.075,354.850 116.055,355.400 116.800 C 355.950 117.545,356.400 118.472,356.400 118.859 C 356.400 119.724,357.170 121.577,357.891 122.447 C 358.186 122.802,358.608 124.213,358.828 125.583 C 359.049 126.952,359.506 128.495,359.844 129.011 C 360.182 129.527,360.638 131.247,360.858 132.833 C 361.078 134.419,361.624 136.636,362.072 137.759 C 362.734 139.420,362.961 141.346,363.290 148.099 C 363.829 159.191,364.381 158.402,356.091 158.394 C 347.514 158.386,347.819 158.747,347.011 147.615 C 346.620 142.215,346.287 139.800,345.842 139.121 C 345.500 138.599,345.008 136.738,344.747 134.986 C 344.487 133.234,343.949 131.350,343.551 130.800 C 343.153 130.250,342.644 128.960,342.419 127.932 C 342.195 126.905,341.666 125.465,341.244 124.732 C 340.823 124.000,340.360 122.834,340.216 122.141 C 340.072 121.449,339.615 120.576,339.200 120.200 C 338.785 119.824,338.336 119.018,338.202 118.408 C 338.068 117.798,337.518 116.701,336.979 115.972 C 336.441 115.242,336.000 114.434,336.000 114.177 C 336.000 113.920,335.467 113.039,334.816 112.220 C 334.165 111.400,333.510 110.341,333.361 109.865 C 333.213 109.389,332.745 108.640,332.322 108.200 C 331.899 107.760,330.978 106.654,330.276 105.742 C 325.651 99.735,322.488 96.304,318.553 93.025 C 316.819 91.580,314.916 89.948,314.326 89.399 C 313.735 88.850,313.073 88.400,312.855 88.400 C 312.636 88.400,312.130 87.988,311.729 87.485 C 311.328 86.981,310.428 86.335,309.729 86.048 C 309.030 85.761,308.147 85.183,307.767 84.763 C 307.387 84.344,306.766 84.000,306.387 84.000 C 306.008 84.000,305.451 83.701,305.149 83.335 C 304.847 82.970,303.655 82.252,302.500 81.740 C 301.345 81.229,300.400 80.644,300.400 80.440 C 300.400 80.237,299.698 79.952,298.839 79.807 C 297.980 79.662,296.688 79.108,295.968 78.576 C 295.247 78.045,294.015 77.497,293.229 77.360 C 292.443 77.224,291.213 76.776,290.496 76.367 C 289.778 75.957,287.978 75.418,286.496 75.169 C 285.013 74.920,283.372 74.445,282.848 74.114 C 282.324 73.784,279.898 73.267,277.456 72.965 C 275.014 72.663,272.112 72.153,271.008 71.831 C 269.904 71.508,267.474 71.159,265.609 71.054 C 260.880 70.788,260.800 70.668,260.800 63.815 C 260.800 54.732,262.073 53.673,270.600 55.660 M271.899 85.176 C 275.954 85.438,277.562 85.708,278.750 86.327 C 279.604 86.772,281.179 87.254,282.251 87.397 C 284.445 87.691,286.400 88.348,286.400 88.793 C 286.400 88.956,287.366 89.284,288.547 89.521 C 289.727 89.758,291.373 90.413,292.203 90.976 C 293.033 91.539,294.022 92.000,294.402 92.000 C 294.782 92.000,295.524 92.340,296.053 92.756 C 296.581 93.171,297.685 93.792,298.507 94.135 C 299.328 94.478,300.000 94.934,300.000 95.149 C 300.000 95.363,300.629 95.746,301.399 96.000 C 302.168 96.253,303.031 96.794,303.316 97.201 C 303.601 97.609,304.322 98.164,304.917 98.435 C 305.513 98.706,306.000 99.075,306.000 99.254 C 306.000 99.433,306.496 99.836,307.102 100.149 C 308.824 101.040,318.187 110.507,319.179 112.361 C 319.421 112.813,320.019 113.622,320.509 114.160 C 322.098 115.905,323.208 117.521,323.816 118.976 C 324.143 119.759,324.569 120.400,324.762 120.400 C 324.955 120.400,325.418 121.165,325.790 122.100 C 326.162 123.035,326.704 124.070,326.994 124.400 C 327.284 124.730,327.758 125.810,328.048 126.800 C 328.338 127.790,328.883 128.936,329.260 129.346 C 329.637 129.756,330.065 130.836,330.211 131.746 C 330.357 132.656,330.827 134.009,331.256 134.753 C 331.685 135.498,332.216 137.546,332.438 139.311 C 332.659 141.074,333.114 143.047,333.449 143.695 C 334.758 146.225,335.120 156.451,333.951 157.859 C 333.254 158.699,320.292 158.635,319.444 157.787 C 318.700 157.043,318.511 155.889,318.201 150.201 C 318.051 147.430,317.750 145.479,317.390 144.929 C 317.076 144.449,316.530 142.659,316.177 140.950 C 315.824 139.242,315.210 137.431,314.813 136.926 C 314.415 136.420,313.971 135.370,313.825 134.591 C 313.679 133.812,313.118 132.526,312.580 131.732 C 312.041 130.938,311.600 129.985,311.600 129.614 C 311.600 129.243,311.150 128.517,310.600 128.000 C 310.050 127.483,309.600 126.822,309.600 126.530 C 309.600 126.239,309.254 125.654,308.830 125.230 C 308.407 124.807,307.845 124.042,307.581 123.530 C 307.318 123.019,306.672 122.150,306.147 121.600 C 304.211 119.572,302.800 117.873,302.800 117.568 C 302.800 117.395,302.429 117.136,301.976 116.992 C 301.522 116.848,300.953 116.296,300.711 115.765 C 300.470 115.234,300.035 114.800,299.745 114.800 C 299.455 114.800,298.924 114.350,298.563 113.800 C 298.203 113.250,297.676 112.800,297.392 112.800 C 297.108 112.800,296.148 112.215,295.259 111.500 C 292.707 109.447,291.513 108.650,289.885 107.912 C 289.050 107.534,288.092 106.949,287.755 106.612 C 287.418 106.276,286.792 106.000,286.363 106.000 C 285.934 106.000,284.912 105.558,284.091 105.018 C 283.271 104.477,281.790 103.916,280.800 103.771 C 279.810 103.626,278.392 103.160,277.649 102.737 C 276.737 102.217,274.910 101.837,272.031 101.568 C 260.284 100.471,260.800 100.900,260.800 92.230 C 260.800 84.007,260.152 84.419,271.899 85.176 M200.692 91.400 C 203.721 94.256,212.676 102.859,213.400 103.608 C 215.691 105.978,221.770 111.600,222.041 111.600 C 222.209 111.600,222.448 111.915,222.572 112.300 C 222.696 112.685,223.338 113.307,223.999 113.681 C 224.660 114.056,225.200 114.641,225.200 114.981 C 225.200 115.322,225.394 115.600,225.631 115.600 C 225.868 115.600,227.533 117.016,229.331 118.747 C 231.129 120.477,234.220 123.388,236.200 125.215 C 240.763 129.426,241.986 130.593,247.497 135.993 C 249.970 138.417,252.099 140.400,252.228 140.400 C 252.357 140.400,253.170 141.165,254.035 142.100 C 254.900 143.035,255.741 143.929,255.904 144.088 C 259.596 147.670,261.297 149.200,261.588 149.200 C 261.785 149.200,262.057 149.551,262.194 149.980 C 262.330 150.408,262.802 150.874,263.243 151.014 C 263.685 151.154,264.211 151.703,264.413 152.234 C 264.615 152.765,264.992 153.200,265.251 153.200 C 265.510 153.200,266.750 154.235,268.005 155.500 C 269.261 156.765,271.349 158.770,272.644 159.957 C 274.737 161.872,277.966 164.912,290.326 176.600 C 292.187 178.360,295.643 181.708,298.007 184.039 C 300.371 186.370,302.613 188.396,302.990 188.541 C 303.367 188.686,303.770 189.163,303.885 189.602 C 303.999 190.041,304.243 190.400,304.425 190.400 C 304.608 190.400,306.299 191.885,308.183 193.700 C 310.068 195.515,312.320 197.630,313.188 198.400 C 314.057 199.170,314.877 200.115,315.010 200.500 C 315.144 200.885,315.482 201.200,315.761 201.200 C 316.040 201.200,316.749 201.740,317.337 202.400 C 317.925 203.060,318.556 203.600,318.739 203.600 C 318.922 203.600,319.277 204.050,319.527 204.600 C 319.778 205.150,320.191 205.600,320.445 205.600 C 320.699 205.600,321.753 206.455,322.788 207.500 C 323.822 208.545,326.003 210.629,327.634 212.131 C 336.813 220.583,350.000 233.435,350.000 233.928 C 350.000 234.132,349.145 235.147,348.100 236.183 C 345.937 238.327,346.140 238.148,341.600 241.931 C 339.730 243.489,337.743 245.222,337.185 245.782 C 336.627 246.342,336.026 246.800,335.849 246.800 C 335.673 246.800,335.219 247.183,334.840 247.650 C 333.943 248.757,332.218 248.742,331.088 247.616 C 329.989 246.522,326.847 243.574,320.413 237.600 C 316.009 233.511,311.331 229.103,310.200 227.977 C 309.980 227.758,309.086 226.908,308.214 226.089 C 307.342 225.270,305.615 223.565,304.377 222.300 C 303.139 221.035,301.914 220.000,301.655 220.000 C 301.395 220.000,300.979 219.553,300.731 219.008 C 300.482 218.462,299.955 217.913,299.560 217.787 C 299.164 217.662,298.730 217.208,298.594 216.780 C 298.457 216.351,298.169 216.000,297.953 216.000 C 297.737 216.000,296.484 214.920,295.168 213.600 C 293.852 212.280,292.613 211.200,292.415 211.200 C 292.216 211.200,291.943 210.849,291.806 210.420 C 291.670 209.992,291.237 209.539,290.844 209.414 C 290.450 209.289,289.889 208.740,289.596 208.193 C 289.304 207.647,288.888 207.200,288.671 207.200 C 288.455 207.200,287.237 206.165,285.964 204.900 C 284.691 203.635,282.676 201.700,281.486 200.600 C 276.518 196.007,261.298 181.564,256.454 176.846 C 254.334 174.781,252.015 172.644,251.300 172.098 C 250.585 171.552,250.000 170.856,250.000 170.553 C 250.000 170.249,249.827 170.000,249.615 170.000 C 249.403 170.000,248.172 168.965,246.879 167.700 C 245.586 166.435,243.628 164.590,242.529 163.600 C 241.430 162.610,239.012 160.360,237.156 158.600 C 235.300 156.840,231.299 153.060,228.266 150.200 C 225.232 147.340,221.323 143.605,219.578 141.900 C 217.833 140.195,216.255 138.800,216.070 138.800 C 215.886 138.800,215.494 138.350,215.200 137.800 C 214.906 137.250,214.531 136.800,214.368 136.800 C 214.205 136.800,212.618 135.368,210.842 133.617 C 209.065 131.867,207.249 130.240,206.806 130.003 C 206.363 129.766,206.000 129.304,206.000 128.977 C 206.000 128.650,205.553 128.179,205.008 127.931 C 204.462 127.682,203.910 127.146,203.781 126.739 C 203.652 126.333,203.385 126.000,203.188 126.000 C 202.991 126.000,201.698 124.915,200.315 123.589 C 198.932 122.263,197.515 120.913,197.166 120.589 C 196.255 119.742,194.979 119.863,193.898 120.900 C 193.382 121.395,192.249 122.470,191.380 123.289 C 188.862 125.662,188.778 125.744,187.673 126.900 C 187.095 127.505,186.437 128.001,186.211 128.003 C 185.985 128.004,185.493 128.544,185.119 129.203 C 184.744 129.861,184.171 130.400,183.846 130.400 C 183.520 130.400,183.143 130.751,183.006 131.180 C 182.870 131.608,182.398 132.074,181.957 132.214 C 181.515 132.354,180.989 132.903,180.787 133.434 C 180.585 133.965,180.221 134.400,179.978 134.400 C 179.734 134.400,178.031 135.885,176.191 137.700 C 173.037 140.813,162.782 150.622,160.404 152.800 C 159.804 153.350,157.892 155.129,156.156 156.754 C 154.420 158.378,151.560 161.045,149.800 162.680 C 148.040 164.315,146.420 165.831,146.200 166.049 C 145.980 166.267,145.104 167.110,144.254 167.923 C 143.403 168.735,141.693 170.405,140.454 171.634 C 139.214 172.863,137.885 173.982,137.500 174.121 C 137.115 174.261,136.800 174.610,136.800 174.896 C 136.800 175.183,136.057 176.044,135.149 176.809 C 134.241 177.574,131.536 180.090,129.139 182.400 C 121.677 189.589,120.762 190.458,115.005 195.817 C 109.004 201.403,107.585 202.719,106.738 203.489 C 106.442 203.758,105.974 204.208,105.698 204.489 C 103.200 207.033,98.450 211.600,98.302 211.600 C 98.143 211.600,95.216 214.398,87.737 221.701 C 86.892 222.526,85.960 223.426,85.667 223.701 C 85.374 223.975,84.013 225.280,82.644 226.600 C 79.789 229.352,69.825 238.745,66.054 242.240 C 64.654 243.538,62.776 245.292,61.882 246.138 C 58.642 249.202,58.186 249.262,55.713 246.942 C 55.101 246.368,53.693 245.223,52.584 244.399 C 50.594 242.919,47.962 240.614,45.985 238.623 C 45.427 238.060,44.764 237.600,44.512 237.600 C 44.260 237.600,43.945 237.256,43.811 236.836 C 43.678 236.415,43.126 235.781,42.584 235.427 C 40.670 234.172,40.789 234.002,49.260 225.872 C 54.755 220.600,64.335 211.537,67.968 208.176 C 69.380 206.869,71.574 204.810,72.844 203.600 C 74.114 202.390,75.350 201.220,75.591 201.000 C 75.832 200.780,76.338 200.288,76.715 199.907 C 78.769 197.832,84.065 192.800,84.196 192.800 C 84.280 192.800,86.398 190.775,88.903 188.300 C 91.408 185.825,94.165 183.140,95.029 182.334 C 95.893 181.528,96.780 180.681,97.000 180.453 C 97.660 179.767,101.626 176.018,104.400 173.457 C 108.199 169.950,116.077 162.482,120.087 158.587 C 122.005 156.724,123.748 155.200,123.960 155.200 C 124.173 155.200,124.460 154.840,124.600 154.400 C 124.740 153.960,125.009 153.600,125.200 153.600 C 125.475 153.600,128.655 150.722,131.000 148.351 C 131.591 147.754,134.302 145.136,139.331 140.310 C 141.789 137.951,144.880 134.980,146.200 133.708 C 148.260 131.723,157.681 122.880,161.930 118.943 C 162.676 118.252,163.492 117.482,163.743 117.232 C 163.995 116.982,164.435 116.558,164.722 116.289 C 165.010 116.020,166.306 114.765,167.603 113.500 C 168.899 112.235,170.128 111.200,170.334 111.200 C 170.539 111.200,170.804 110.827,170.924 110.370 C 171.043 109.914,171.492 109.449,171.922 109.336 C 172.351 109.224,172.901 108.697,173.143 108.166 C 173.385 107.635,173.768 107.200,173.994 107.200 C 174.220 107.200,176.376 105.265,178.785 102.900 C 181.193 100.535,185.343 96.530,188.007 94.000 C 190.671 91.470,193.154 89.101,193.525 88.735 C 194.343 87.929,196.389 87.622,197.162 88.188 C 197.470 88.415,199.059 89.860,200.692 91.400 M273.300 114.420 C 273.905 114.700,274.400 115.064,274.400 115.229 C 274.400 115.394,275.165 115.646,276.100 115.789 C 278.094 116.094,280.000 116.776,280.000 117.185 C 280.000 117.344,280.718 117.688,281.595 117.951 C 282.472 118.214,283.669 118.873,284.254 119.415 C 284.838 119.957,285.516 120.400,285.758 120.401 C 286.001 120.401,286.830 120.941,287.600 121.600 C 288.370 122.259,289.134 122.799,289.297 122.799 C 289.660 122.800,294.613 127.805,296.000 129.572 C 296.550 130.272,297.471 131.420,298.046 132.123 C 298.621 132.825,299.231 133.850,299.401 134.400 C 299.571 134.950,300.135 135.909,300.655 136.531 C 301.175 137.153,301.600 138.084,301.600 138.600 C 301.600 139.116,302.033 140.053,302.562 140.682 C 303.136 141.364,303.641 142.628,303.811 143.813 C 303.969 144.906,304.462 146.610,304.906 147.600 C 305.915 149.847,306.147 156.647,305.251 157.734 C 304.778 158.307,303.764 158.400,297.960 158.400 C 289.970 158.400,290.159 158.518,289.625 153.220 C 289.430 151.283,289.051 149.694,288.686 149.285 C 288.350 148.908,287.870 147.831,287.620 146.892 C 287.369 145.952,286.723 144.532,286.182 143.736 C 285.642 142.940,285.200 142.116,285.200 141.905 C 285.200 141.694,284.705 141.039,284.100 140.450 C 283.495 139.862,282.427 138.754,281.727 137.990 C 279.625 135.696,278.161 134.400,277.670 134.400 C 277.415 134.400,276.980 134.035,276.703 133.590 C 276.427 133.144,275.499 132.590,274.642 132.359 C 273.785 132.127,272.606 131.585,272.023 131.154 C 271.273 130.599,269.801 130.245,266.982 129.943 C 261.138 129.315,260.800 128.810,260.800 120.702 C 260.800 113.244,260.633 113.428,267.161 113.701 C 269.933 113.816,272.695 114.140,273.300 114.420 M200.157 141.300 C 202.075 143.115,205.260 146.175,207.236 148.100 C 209.211 150.025,211.001 151.600,211.213 151.600 C 211.426 151.600,211.600 151.874,211.600 152.209 C 211.600 152.543,212.047 153.021,212.592 153.269 C 213.138 153.518,213.690 154.054,213.819 154.461 C 213.948 154.867,214.212 155.200,214.406 155.200 C 214.599 155.200,216.285 156.685,218.151 158.500 C 220.018 160.315,223.475 163.600,225.834 165.800 C 234.281 173.679,241.219 180.249,246.637 185.500 C 248.510 187.315,250.184 188.800,250.357 188.800 C 250.530 188.800,250.877 189.250,251.127 189.800 C 251.378 190.350,251.773 190.800,252.006 190.800 C 252.239 190.800,254.310 192.690,256.609 195.000 C 258.908 197.310,260.975 199.200,261.203 199.200 C 261.431 199.200,261.822 199.650,262.073 200.200 C 262.323 200.750,262.673 201.200,262.849 201.200 C 263.026 201.200,264.230 202.235,265.524 203.500 C 266.819 204.765,269.571 207.361,271.639 209.270 C 278.643 215.732,289.521 226.021,291.000 227.582 C 292.897 229.585,298.537 234.800,298.806 234.800 C 298.993 234.800,299.252 235.133,299.381 235.539 C 299.510 235.946,300.046 236.475,300.573 236.715 C 301.100 236.955,301.648 237.522,301.792 237.976 C 301.936 238.429,302.256 238.800,302.504 238.800 C 302.751 238.800,303.639 239.535,304.477 240.434 L 306.000 242.067 306.000 296.554 C 306.000 338.399,305.889 351.151,305.520 351.520 C 304.883 352.157,219.161 352.221,217.974 351.586 C 217.216 351.180,217.200 350.258,217.195 306.886 C 217.192 282.529,217.081 262.195,216.948 261.700 L 216.707 260.800 196.186 260.800 C 184.900 260.800,175.381 260.909,175.033 261.043 C 174.461 261.262,174.400 265.574,174.400 305.754 C 174.400 345.354,174.332 350.319,173.777 351.111 L 173.155 352.000 129.806 352.000 C 90.931 352.000,86.392 351.935,85.829 351.371 C 85.263 350.806,85.200 345.285,85.200 296.568 L 85.200 242.393 86.391 241.096 C 87.826 239.534,87.184 240.164,93.000 234.604 C 95.640 232.081,99.780 228.122,102.200 225.806 C 108.527 219.753,110.839 217.571,116.407 212.400 C 119.132 209.870,121.815 207.305,122.370 206.700 C 122.924 206.095,123.608 205.600,123.889 205.600 C 124.170 205.600,124.400 205.322,124.400 204.981 C 124.400 204.641,124.940 204.056,125.601 203.681 C 126.262 203.307,126.904 202.685,127.028 202.300 C 127.152 201.915,127.392 201.600,127.560 201.600 C 127.728 201.600,129.319 200.205,131.094 198.500 C 132.870 196.795,134.655 195.094,135.061 194.720 C 135.468 194.346,135.980 193.855,136.200 193.629 C 136.420 193.403,138.220 191.692,140.200 189.826 C 142.180 187.959,144.070 186.159,144.400 185.825 C 144.730 185.491,145.711 184.538,146.580 183.709 C 147.450 182.879,149.055 181.323,150.148 180.251 C 151.241 179.180,154.220 176.369,156.768 174.006 C 162.209 168.960,164.692 166.614,168.873 162.571 C 170.563 160.937,172.138 159.600,172.373 159.600 C 172.608 159.600,172.800 159.433,172.800 159.229 C 172.800 159.024,173.066 158.619,173.391 158.329 C 174.605 157.243,183.416 148.812,188.887 143.500 C 195.845 136.745,195.430 136.826,200.157 141.300 " stroke="none" fill="#fbfbfb" fill-rule="evenodd"></path><path id="path2" d="M261.990 57.426 C 261.394 58.995,261.486 69.412,262.100 69.897 C 262.375 70.114,264.760 70.402,267.400 70.538 C 270.040 70.673,273.190 71.053,274.400 71.383 C 275.610 71.712,277.680 72.103,279.000 72.251 C 280.320 72.399,282.885 73.033,284.699 73.660 C 286.514 74.287,288.314 74.802,288.699 74.804 C 289.085 74.806,290.300 75.250,291.400 75.791 C 292.500 76.332,293.763 76.781,294.207 76.787 C 294.651 76.794,295.677 77.250,296.486 77.800 C 297.295 78.350,298.101 78.800,298.275 78.800 C 298.918 78.800,304.635 81.767,305.731 82.669 C 306.353 83.181,307.056 83.600,307.293 83.600 C 307.530 83.600,308.314 84.050,309.036 84.600 C 309.757 85.150,310.470 85.600,310.621 85.600 C 310.771 85.600,311.467 86.095,312.166 86.700 C 312.865 87.305,313.879 88.116,314.419 88.502 C 319.714 92.288,324.540 97.008,329.242 103.000 C 330.969 105.200,332.778 107.490,333.262 108.088 C 333.746 108.687,334.381 109.677,334.673 110.288 C 334.965 110.900,335.731 112.210,336.376 113.200 C 338.171 115.958,342.800 125.433,342.800 126.351 C 342.800 126.625,343.249 127.799,343.798 128.959 C 344.347 130.119,344.979 132.043,345.204 133.234 C 345.429 134.425,345.970 136.436,346.406 137.702 C 346.843 138.967,347.204 140.587,347.208 141.302 C 347.213 142.016,347.573 144.760,348.008 147.400 C 348.444 150.040,348.801 152.830,348.801 153.600 C 348.802 154.370,349.160 155.585,349.596 156.300 L 350.388 157.600 356.204 157.600 L 362.020 157.600 362.454 156.500 C 363.065 154.953,362.601 144.013,361.806 141.200 C 361.464 139.990,360.908 137.397,360.571 135.437 C 360.234 133.477,359.686 131.227,359.353 130.437 C 359.021 129.647,358.585 128.143,358.384 127.095 C 358.183 126.048,357.565 124.230,357.009 123.057 C 356.454 121.883,356.000 120.669,356.000 120.358 C 356.000 120.048,355.573 118.985,355.052 117.997 C 354.530 117.009,353.965 115.750,353.795 115.200 C 353.626 114.650,353.062 113.573,352.544 112.807 C 352.025 112.041,351.597 111.141,351.593 110.807 C 351.589 110.473,351.094 109.449,350.493 108.530 C 349.892 107.612,348.860 105.944,348.200 104.824 C 346.986 102.764,346.083 101.451,341.872 95.621 C 338.064 90.350,326.979 79.513,321.802 76.000 C 320.992 75.450,319.760 74.529,319.064 73.954 C 318.369 73.378,317.080 72.517,316.200 72.039 C 315.320 71.561,313.880 70.738,313.000 70.211 C 310.144 68.498,306.628 66.621,305.400 66.155 C 304.740 65.904,303.318 65.226,302.240 64.649 C 301.163 64.072,299.993 63.599,299.640 63.597 C 299.288 63.596,298.461 63.240,297.803 62.806 C 297.144 62.371,295.648 61.818,294.478 61.575 C 293.307 61.332,291.596 60.803,290.675 60.400 C 289.754 59.996,288.100 59.545,287.000 59.397 C 285.900 59.249,284.045 58.783,282.877 58.361 C 280.730 57.585,269.968 56.415,264.890 56.405 C 262.562 56.400,262.352 56.474,261.990 57.426 M273.053 57.579 C 277.378 57.830,279.477 58.123,280.406 58.603 C 281.120 58.972,283.278 59.511,285.200 59.800 C 287.122 60.089,289.263 60.619,289.957 60.978 C 290.652 61.337,292.250 61.820,293.510 62.050 C 294.769 62.281,296.097 62.736,296.460 63.061 C 296.823 63.385,298.056 63.898,299.200 64.200 C 300.344 64.502,301.577 65.014,301.940 65.337 C 302.303 65.661,303.336 66.122,304.236 66.361 C 305.137 66.601,306.199 67.157,306.598 67.598 C 306.998 68.039,307.631 68.400,308.006 68.400 C 308.381 68.400,309.355 68.852,310.170 69.405 C 310.985 69.958,312.270 70.669,313.026 70.985 C 313.782 71.301,314.400 71.729,314.400 71.936 C 314.400 72.143,315.158 72.616,316.083 72.987 C 317.009 73.357,317.995 73.986,318.274 74.384 C 318.553 74.783,319.236 75.223,319.791 75.362 C 320.346 75.501,320.800 75.771,320.800 75.962 C 320.800 76.153,321.900 77.094,323.245 78.054 C 326.851 80.629,337.600 90.752,337.600 91.573 C 337.600 91.735,338.095 92.336,338.700 92.909 C 339.305 93.481,340.430 94.881,341.200 96.020 C 341.970 97.158,343.095 98.615,343.700 99.258 C 344.305 99.901,344.800 100.669,344.800 100.965 C 344.800 101.260,345.085 101.739,345.434 102.029 C 345.783 102.318,346.433 103.330,346.878 104.278 C 347.324 105.225,347.840 106.000,348.025 106.000 C 348.211 106.000,348.711 106.787,349.136 107.748 C 349.561 108.710,350.105 109.618,350.344 109.765 C 350.583 109.913,350.979 110.791,351.225 111.717 C 351.471 112.643,351.999 113.760,352.400 114.200 C 352.801 114.640,353.326 115.744,353.567 116.653 C 353.808 117.563,354.250 118.510,354.549 118.758 C 354.848 119.006,355.324 120.302,355.608 121.638 C 355.891 122.973,356.378 124.321,356.689 124.632 C 357.352 125.295,358.000 127.362,358.000 128.813 C 358.000 129.373,358.364 130.544,358.809 131.415 C 359.305 132.387,359.772 134.470,360.016 136.800 C 360.236 138.890,360.759 141.680,361.179 143.000 C 362.136 146.007,362.698 154.295,362.030 155.543 C 361.596 156.355,361.284 156.400,356.050 156.400 L 350.528 156.400 350.064 155.381 C 349.809 154.821,349.592 153.156,349.582 151.681 C 349.573 150.207,349.301 148.280,348.979 147.400 C 348.656 146.520,348.215 144.015,347.999 141.833 C 347.763 139.448,347.293 137.214,346.822 136.233 C 346.391 135.335,345.858 133.465,345.638 132.077 C 345.417 130.690,344.891 128.980,344.467 128.277 C 344.044 127.575,343.581 126.343,343.438 125.541 C 343.296 124.738,342.850 123.658,342.448 123.141 C 342.045 122.623,341.484 121.480,341.200 120.600 C 340.916 119.720,340.362 118.587,339.969 118.081 C 339.577 117.576,339.144 116.653,339.007 116.031 C 338.870 115.409,338.318 114.486,337.779 113.981 C 337.241 113.475,336.800 112.820,336.800 112.526 C 336.800 111.852,333.648 107.200,333.192 107.200 C 333.006 107.200,332.727 106.795,332.573 106.300 C 332.312 105.463,331.851 104.830,328.907 101.257 C 327.946 100.092,323.793 95.553,322.909 94.703 C 319.439 91.366,314.313 87.200,313.676 87.200 C 313.465 87.200,312.997 86.750,312.637 86.200 C 312.276 85.650,311.742 85.200,311.449 85.200 C 311.156 85.200,310.423 84.742,309.818 84.182 C 309.214 83.622,308.192 83.058,307.546 82.929 C 306.900 82.800,306.199 82.373,305.989 81.979 C 305.778 81.586,304.989 81.060,304.235 80.812 C 303.481 80.563,302.649 80.100,302.385 79.782 C 302.122 79.465,301.163 79.008,300.253 78.767 C 299.344 78.526,298.240 77.997,297.800 77.593 C 297.360 77.188,296.100 76.633,295.000 76.360 C 293.900 76.087,292.550 75.550,292.000 75.168 C 291.450 74.785,290.184 74.360,289.187 74.224 C 288.190 74.088,286.807 73.633,286.115 73.211 C 285.411 72.783,283.390 72.253,281.528 72.007 C 279.698 71.766,277.480 71.280,276.600 70.928 C 275.509 70.492,273.282 70.236,269.600 70.124 C 261.562 69.880,262.400 70.633,262.400 63.659 C 262.400 60.400,262.520 57.613,262.667 57.467 C 263.015 57.119,265.640 57.147,273.053 57.579 M262.080 86.080 C 261.376 86.784,261.418 97.598,262.128 98.570 C 262.508 99.089,263.491 99.384,265.628 99.618 C 270.197 100.120,277.485 101.522,278.705 102.134 C 279.307 102.436,280.641 102.889,281.670 103.140 C 283.556 103.600,289.604 106.544,293.003 108.656 C 295.769 110.375,299.882 113.841,303.141 117.200 C 307.183 121.365,307.321 121.527,308.932 124.000 C 309.720 125.210,310.697 126.650,311.101 127.200 C 311.506 127.750,312.433 129.460,313.160 131.000 C 313.888 132.540,314.908 134.700,315.427 135.800 C 315.946 136.900,316.548 138.612,316.765 139.603 C 316.982 140.595,317.448 142.095,317.799 142.935 C 318.153 143.784,318.671 147.054,318.962 150.287 C 319.644 157.867,319.324 157.579,327.086 157.591 C 332.570 157.600,332.789 157.568,333.251 156.704 C 333.806 155.668,333.770 149.730,333.197 147.592 C 332.989 146.818,332.464 144.208,332.030 141.792 C 331.255 137.474,329.742 132.368,328.655 130.400 C 328.352 129.850,327.874 128.680,327.593 127.800 C 327.313 126.920,326.762 125.787,326.369 125.281 C 325.977 124.776,325.541 123.843,325.402 123.209 C 325.263 122.574,324.877 121.830,324.545 121.554 C 324.213 121.279,323.596 120.377,323.175 119.550 C 320.813 114.922,308.711 101.200,306.990 101.200 C 306.843 101.200,305.914 100.488,304.925 99.618 C 303.937 98.748,302.133 97.443,300.917 96.718 C 296.984 94.373,295.021 93.256,294.000 92.782 C 293.450 92.527,291.920 91.796,290.600 91.159 C 289.280 90.521,287.903 90.000,287.540 90.000 C 287.177 90.000,285.917 89.552,284.740 89.004 C 283.563 88.456,282.099 88.006,281.487 88.004 C 280.875 88.002,279.334 87.649,278.061 87.221 C 273.444 85.665,263.224 84.936,262.080 86.080 M274.273 87.146 C 275.333 87.562,277.663 88.097,279.452 88.336 C 281.240 88.574,283.310 89.120,284.052 89.547 C 284.793 89.974,286.210 90.452,287.200 90.608 C 288.190 90.764,289.316 91.224,289.702 91.631 C 290.088 92.037,291.126 92.565,292.010 92.803 C 292.893 93.041,294.268 93.677,295.064 94.218 C 295.860 94.758,296.814 95.200,297.184 95.200 C 297.553 95.200,298.247 95.650,298.725 96.200 C 299.203 96.750,299.853 97.200,300.169 97.200 C 300.485 97.200,300.985 97.442,301.280 97.737 C 301.576 98.033,302.579 98.755,303.509 99.342 C 304.439 99.930,305.200 100.576,305.200 100.778 C 305.200 100.980,305.598 101.273,306.085 101.427 C 307.203 101.782,318.400 113.051,318.400 113.822 C 318.400 114.136,318.760 114.618,319.200 114.893 C 319.640 115.168,320.000 115.557,320.000 115.758 C 320.000 115.960,320.495 116.763,321.100 117.544 C 322.167 118.921,322.807 120.015,324.992 124.200 C 325.566 125.300,326.295 126.650,326.612 127.200 C 326.929 127.750,327.191 128.581,327.194 129.046 C 327.197 129.511,327.562 130.352,328.004 130.915 C 328.447 131.477,328.990 132.892,329.211 134.059 C 329.433 135.226,329.964 136.853,330.391 137.673 C 330.884 138.618,331.326 140.702,331.595 143.355 C 331.830 145.659,332.285 148.412,332.606 149.472 C 334.399 155.382,333.488 156.400,326.410 156.400 C 319.969 156.400,320.061 156.522,319.226 146.889 C 318.992 144.187,318.604 142.268,318.094 141.289 C 317.668 140.470,317.193 138.958,317.039 137.928 C 316.885 136.899,316.435 135.639,316.038 135.128 C 315.641 134.618,315.084 133.480,314.800 132.600 C 314.516 131.720,313.950 130.571,313.542 130.046 C 313.134 129.521,312.800 128.838,312.800 128.528 C 312.800 128.218,312.364 127.528,311.831 126.995 C 311.298 126.462,310.751 125.676,310.615 125.248 C 310.240 124.066,305.891 118.684,303.400 116.319 C 302.960 115.902,302.420 115.384,302.200 115.169 C 301.980 114.954,301.554 114.558,301.254 114.289 C 300.953 114.020,300.238 113.305,299.665 112.700 C 299.091 112.095,298.402 111.600,298.134 111.600 C 297.865 111.600,297.374 111.213,297.043 110.740 C 296.413 109.840,294.371 108.471,292.007 107.364 C 291.240 107.005,290.391 106.394,290.119 106.006 C 289.848 105.619,288.835 105.102,287.869 104.859 C 286.902 104.616,285.889 104.148,285.616 103.819 C 285.343 103.490,284.463 103.104,283.660 102.960 C 282.857 102.816,281.268 102.265,280.129 101.734 C 278.990 101.203,277.100 100.667,275.929 100.542 C 274.758 100.418,272.656 99.975,271.258 99.558 C 269.860 99.141,267.857 98.800,266.808 98.800 C 265.759 98.800,264.338 98.688,263.650 98.550 L 262.400 98.300 262.400 92.417 C 262.400 89.181,262.535 86.392,262.700 86.218 C 263.265 85.624,272.224 86.343,274.273 87.146 M191.156 92.261 C 186.067 96.949,184.653 98.285,179.368 103.400 C 176.868 105.820,172.278 110.230,169.169 113.200 C 166.060 116.170,161.960 120.096,160.058 121.925 C 158.156 123.754,155.700 126.064,154.600 127.060 C 153.500 128.055,151.249 130.158,149.598 131.735 C 147.946 133.311,143.641 137.390,140.029 140.800 C 136.418 144.210,131.888 148.530,129.964 150.400 C 128.040 152.270,123.902 156.230,120.770 159.200 C 117.637 162.170,114.337 165.324,113.437 166.208 C 112.537 167.093,109.190 170.249,106.000 173.223 C 102.810 176.196,99.740 179.072,99.177 179.615 C 98.614 180.157,95.120 183.480,91.413 187.000 C 87.705 190.520,83.658 194.390,82.419 195.600 C 81.181 196.810,77.043 200.770,73.224 204.400 C 69.405 208.030,65.343 211.900,64.197 213.000 C 63.050 214.100,60.359 216.620,58.217 218.600 C 56.074 220.580,52.748 223.730,50.825 225.600 C 48.902 227.470,46.625 229.663,45.764 230.473 C 44.904 231.284,43.763 232.400,43.230 232.953 L 42.259 233.960 44.873 236.480 C 46.310 237.866,49.949 241.039,52.960 243.532 L 58.433 248.063 60.088 246.568 C 61.769 245.049,65.966 241.102,68.985 238.200 C 69.900 237.320,71.898 235.446,73.425 234.034 C 77.178 230.565,87.961 220.362,91.007 217.400 C 92.363 216.080,96.417 212.210,100.015 208.800 C 103.613 205.390,107.669 201.520,109.027 200.200 C 110.386 198.880,112.376 196.985,113.449 195.988 C 122.259 187.807,122.786 187.310,138.224 172.563 C 142.391 168.582,147.406 163.812,149.369 161.963 C 151.331 160.113,153.771 157.790,154.790 156.800 C 155.809 155.810,157.803 153.925,159.221 152.612 C 161.555 150.451,171.305 141.250,176.612 136.200 C 177.768 135.100,181.836 131.230,185.651 127.600 C 189.467 123.970,193.069 120.505,193.655 119.900 C 195.372 118.129,196.240 118.428,200.044 122.100 C 203.107 125.056,214.119 135.577,217.943 139.200 C 218.756 139.970,221.415 142.490,223.852 144.800 C 226.289 147.110,230.596 151.160,233.422 153.800 C 236.249 156.440,239.584 159.590,240.835 160.800 C 242.085 162.010,246.038 165.790,249.619 169.200 C 253.200 172.610,257.148 176.390,258.392 177.600 C 259.636 178.810,262.876 181.870,265.593 184.400 C 268.310 186.930,272.438 190.810,274.766 193.023 C 277.095 195.235,280.237 198.205,281.748 199.623 C 283.260 201.040,285.515 203.190,286.760 204.400 C 288.005 205.610,292.054 209.480,295.757 213.000 C 299.461 216.520,303.522 220.390,304.782 221.600 C 307.887 224.583,311.864 228.338,318.974 235.001 C 322.260 238.081,325.778 241.410,326.793 242.400 C 333.152 248.605,332.613 248.440,336.293 245.315 C 337.342 244.425,340.090 242.112,342.400 240.175 C 344.710 238.239,347.158 236.020,347.840 235.244 L 349.080 233.833 345.366 230.217 C 341.334 226.290,332.109 217.529,327.000 212.773 C 323.227 209.261,316.844 203.178,313.387 199.800 C 312.036 198.480,307.988 194.610,304.390 191.200 C 300.793 187.790,296.826 184.009,295.575 182.797 C 294.325 181.585,291.164 178.620,288.551 176.207 C 285.938 173.794,283.159 171.186,282.376 170.410 C 281.593 169.635,278.379 166.570,275.235 163.600 C 272.090 160.630,267.942 156.670,266.017 154.800 C 261.492 150.404,254.695 143.928,247.753 137.400 C 244.711 134.540,240.328 130.400,238.011 128.200 C 235.695 126.000,232.921 123.390,231.846 122.400 C 230.772 121.410,228.405 119.160,226.587 117.400 C 224.768 115.640,220.638 111.680,217.407 108.600 C 214.177 105.520,209.614 101.165,207.267 98.923 C 194.528 86.750,196.329 87.495,191.156 92.261 M199.441 92.500 C 200.941 93.875,203.285 96.080,204.651 97.400 C 207.612 100.262,208.039 100.672,208.725 101.311 C 209.014 101.580,209.719 102.295,210.291 102.900 C 210.864 103.505,211.560 104.000,211.839 104.000 C 212.118 104.000,212.456 104.315,212.590 104.700 C 212.723 105.085,213.553 106.030,214.432 106.800 C 215.312 107.570,218.011 110.135,220.431 112.500 C 222.851 114.865,224.909 116.800,225.005 116.800 C 225.101 116.800,227.137 118.735,229.531 121.100 C 234.346 125.857,237.100 128.483,245.632 136.451 C 248.804 139.413,252.338 142.729,253.484 143.818 C 257.259 147.408,264.592 154.416,265.000 154.823 C 265.220 155.043,265.631 155.442,265.914 155.711 C 266.196 155.980,268.026 157.730,269.980 159.600 C 271.934 161.470,276.171 165.520,279.396 168.600 C 282.621 171.680,286.101 175.010,287.130 176.001 C 288.158 176.992,290.866 179.512,293.146 181.601 C 295.427 183.690,298.238 186.345,299.394 187.500 C 300.550 188.655,301.687 189.600,301.921 189.600 C 302.155 189.600,302.464 189.971,302.608 190.424 C 302.752 190.878,303.300 191.445,303.827 191.685 C 304.354 191.925,304.890 192.454,305.019 192.861 C 305.148 193.267,305.416 193.600,305.615 193.600 C 305.912 193.600,307.949 195.446,311.270 198.723 C 313.662 201.083,323.591 210.626,325.917 212.800 C 331.615 218.126,339.584 225.648,341.385 227.400 C 342.515 228.500,344.151 230.079,345.020 230.909 C 347.961 233.716,347.922 233.635,347.009 235.083 C 346.564 235.789,346.022 236.374,345.804 236.383 C 345.587 236.392,344.957 236.845,344.404 237.389 C 343.852 237.934,341.330 240.095,338.800 242.193 C 336.270 244.290,333.940 246.270,333.623 246.592 C 333.126 247.095,332.958 247.098,332.423 246.614 C 332.080 246.304,331.106 245.429,330.257 244.669 C 329.408 243.909,328.508 243.086,328.257 242.841 C 328.005 242.596,327.096 241.722,326.236 240.898 C 325.376 240.074,323.653 238.410,322.408 237.200 C 318.713 233.608,308.341 223.869,306.405 222.173 C 305.418 221.308,304.280 220.195,303.876 219.700 C 303.472 219.205,302.885 218.800,302.571 218.800 C 302.257 218.800,302.000 218.593,302.000 218.340 C 302.000 218.087,301.145 217.097,300.100 216.141 C 299.055 215.185,298.020 214.217,297.800 213.990 C 297.580 213.763,297.165 213.358,296.877 213.089 C 296.068 212.332,289.050 205.622,288.600 205.175 C 287.959 204.539,287.382 203.985,283.829 200.600 C 281.982 198.840,277.831 194.880,274.605 191.800 C 263.508 181.205,259.676 177.669,258.762 177.180 C 258.343 176.955,258.000 176.515,258.000 176.200 C 258.000 175.885,257.611 175.420,257.135 175.165 C 256.659 174.910,255.324 173.734,254.169 172.551 C 253.014 171.368,251.886 170.400,251.662 170.400 C 251.437 170.400,251.143 170.049,251.006 169.620 C 250.870 169.192,250.437 168.739,250.044 168.614 C 249.650 168.489,249.089 167.940,248.796 167.393 C 248.504 166.847,248.109 166.400,247.919 166.400 C 247.729 166.400,246.058 164.915,244.206 163.100 C 242.354 161.285,238.375 157.460,235.365 154.600 C 232.355 151.740,228.811 148.364,227.490 147.099 C 226.169 145.833,223.292 143.133,221.097 141.099 C 218.902 139.064,216.152 136.455,214.988 135.300 C 213.823 134.145,212.686 133.200,212.462 133.200 C 212.237 133.200,211.940 132.840,211.800 132.400 C 211.660 131.960,211.388 131.600,211.194 131.600 C 211.000 131.600,209.309 130.070,207.434 128.200 C 205.560 126.330,203.870 124.800,203.678 124.800 C 203.486 124.800,203.123 124.350,202.873 123.800 C 202.622 123.250,202.239 122.800,202.021 122.800 C 201.803 122.800,200.548 121.720,199.232 120.400 C 195.734 116.891,195.500 116.943,189.827 122.500 C 185.892 126.354,177.293 134.581,172.999 138.600 C 172.294 139.260,169.408 141.960,166.585 144.600 C 163.763 147.240,160.430 150.390,159.179 151.600 C 157.928 152.810,154.438 156.140,151.423 159.000 C 148.409 161.860,144.430 165.685,142.581 167.500 C 140.732 169.315,139.065 170.800,138.877 170.800 C 138.689 170.800,138.305 171.230,138.024 171.756 C 137.742 172.282,137.082 172.908,136.556 173.147 C 136.030 173.387,135.600 173.857,135.600 174.191 C 135.600 174.526,135.412 174.800,135.181 174.800 C 134.951 174.800,133.691 175.835,132.380 177.100 C 128.236 181.101,125.519 183.670,120.429 188.400 C 117.706 190.930,113.500 194.935,111.083 197.300 C 108.665 199.665,106.618 201.600,106.534 201.600 C 106.450 201.600,104.844 203.130,102.966 205.000 C 101.087 206.870,99.410 208.400,99.239 208.400 C 99.068 208.400,98.723 208.850,98.473 209.400 C 98.222 209.950,97.832 210.400,97.606 210.400 C 97.380 210.400,95.772 211.795,94.033 213.500 C 92.294 215.205,90.540 216.906,90.136 217.280 C 89.731 217.654,89.220 218.139,89.000 218.358 C 87.538 219.812,83.379 223.710,81.564 225.329 C 79.137 227.492,68.335 237.719,64.589 241.400 C 59.256 246.641,58.347 247.302,57.716 246.401 C 57.407 245.960,56.935 245.600,56.666 245.600 C 56.398 245.600,55.697 245.105,55.108 244.500 C 53.691 243.044,52.712 242.184,49.818 239.851 C 46.158 236.902,43.600 234.470,43.600 233.941 C 43.600 233.625,48.986 228.197,51.659 225.818 C 53.403 224.266,64.788 213.508,69.457 209.000 C 77.856 200.891,82.713 196.316,83.500 195.774 C 83.995 195.434,84.400 194.895,84.400 194.577 C 84.400 194.260,84.599 194.000,84.842 194.000 C 85.085 194.000,86.750 192.566,88.542 190.812 C 93.233 186.223,95.503 184.073,101.800 178.261 C 104.880 175.418,108.227 172.216,109.238 171.146 C 110.248 170.076,111.173 169.200,111.293 169.200 C 111.413 169.200,113.515 167.220,115.964 164.800 C 118.414 162.380,120.582 160.400,120.782 160.400 C 120.982 160.400,121.257 160.049,121.394 159.620 C 121.530 159.192,122.002 158.726,122.443 158.586 C 122.885 158.446,123.411 157.897,123.613 157.366 C 123.815 156.835,124.190 156.400,124.447 156.400 C 124.703 156.400,126.313 154.960,128.024 153.200 C 129.735 151.440,131.333 150.000,131.576 150.000 C 131.819 150.000,132.222 149.550,132.473 149.000 C 132.723 148.450,133.073 148.000,133.249 148.000 C 133.426 148.000,134.633 146.965,135.932 145.700 C 137.231 144.435,140.339 141.510,142.839 139.200 C 148.072 134.365,151.123 131.481,157.230 125.600 C 159.628 123.290,163.674 119.420,166.220 117.000 C 172.808 110.737,174.400 109.130,174.400 108.742 C 174.400 108.554,174.639 108.400,174.931 108.400 C 175.223 108.400,176.377 107.410,177.495 106.200 C 178.613 104.990,179.728 104.000,179.973 104.000 C 180.217 104.000,180.622 103.550,180.873 103.000 C 181.123 102.450,181.484 102.000,181.675 102.000 C 181.993 102.000,184.062 100.098,191.786 92.707 C 195.415 89.233,195.864 89.221,199.441 92.500 M262.035 114.734 C 261.473 115.784,261.462 125.662,262.021 126.881 C 262.390 127.684,268.669 129.703,270.525 129.615 C 274.635 129.421,286.167 139.846,288.006 145.417 C 288.281 146.252,288.831 147.490,289.227 148.167 C 289.623 148.845,290.063 150.570,290.204 152.000 C 290.726 157.289,291.173 157.600,298.245 157.600 C 306.102 157.600,306.150 157.502,303.645 146.543 C 303.236 144.752,302.454 142.322,301.907 141.143 C 301.360 139.964,300.704 138.550,300.449 138.000 C 298.714 134.266,295.979 130.556,292.000 126.541 C 289.548 124.067,288.652 123.357,284.647 120.713 C 282.123 119.048,277.645 116.945,275.200 116.278 C 273.990 115.947,272.280 115.410,271.400 115.082 C 268.457 113.988,262.552 113.769,262.035 114.734 M270.400 115.641 C 271.390 116.094,273.278 116.641,274.595 116.856 C 275.912 117.072,277.286 117.516,277.648 117.843 C 278.009 118.171,278.951 118.617,279.740 118.835 C 280.529 119.052,281.702 119.674,282.345 120.215 C 282.989 120.757,283.782 121.200,284.109 121.200 C 284.435 121.200,284.946 121.494,285.245 121.854 C 285.544 122.214,286.421 122.917,287.194 123.415 C 288.328 124.146,291.918 127.257,293.288 128.697 C 294.411 129.877,295.992 132.000,296.530 133.052 C 296.882 133.740,297.447 134.409,297.785 134.539 C 298.123 134.669,298.400 135.106,298.400 135.510 C 298.400 135.914,298.841 136.842,299.379 137.572 C 299.918 138.301,300.475 139.461,300.618 140.149 C 300.761 140.837,301.288 142.120,301.788 143.000 C 302.288 143.880,302.824 145.680,302.978 147.000 C 303.133 148.320,303.538 150.649,303.879 152.176 C 304.493 154.924,304.490 154.960,303.605 155.676 C 302.340 156.701,294.096 156.738,292.385 155.727 C 291.210 155.033,291.158 154.870,290.573 150.053 C 290.422 148.811,289.909 147.312,289.356 146.497 C 288.830 145.722,288.400 144.767,288.400 144.375 C 288.400 143.982,287.950 143.127,287.400 142.473 C 286.850 141.819,286.400 141.142,286.400 140.968 C 286.400 140.514,283.261 136.854,281.529 135.289 C 278.390 132.452,273.146 129.444,270.506 128.966 C 269.678 128.816,268.513 128.447,267.919 128.146 C 267.324 127.845,265.884 127.462,264.719 127.294 L 262.600 126.990 262.490 120.895 L 262.379 114.800 265.490 114.809 C 267.766 114.815,269.083 115.038,270.400 115.641 M193.959 139.900 C 193.618 140.285,191.127 142.670,188.422 145.200 C 185.717 147.730,181.550 151.690,179.162 154.000 C 174.386 158.619,165.113 167.474,162.600 169.815 C 160.160 172.088,147.055 184.462,141.010 190.200 C 138.522 192.562,124.207 206.239,122.170 208.200 C 121.028 209.300,119.218 211.019,118.147 212.021 C 116.415 213.641,102.992 226.266,101.220 227.942 C 100.838 228.304,97.949 231.030,94.801 234.000 C 91.653 236.970,88.387 240.120,87.543 241.000 L 86.008 242.600 86.104 296.800 L 86.200 351.000 129.800 351.000 L 173.400 351.000 173.600 305.800 C 173.710 280.940,173.946 260.375,174.124 260.100 C 174.376 259.710,179.124 259.600,195.634 259.600 L 216.820 259.600 217.210 260.626 C 217.455 261.270,217.600 278.134,217.600 305.946 C 217.600 339.864,217.712 350.352,218.080 350.720 C 218.835 351.475,304.528 351.410,305.155 350.654 C 305.489 350.252,305.581 335.936,305.504 296.298 L 305.400 242.488 301.509 238.744 C 299.369 236.685,295.145 232.660,292.123 229.800 C 289.101 226.940,286.172 224.145,285.614 223.588 C 285.056 223.032,283.250 221.333,281.600 219.814 C 278.873 217.302,268.141 207.150,262.980 202.200 C 261.834 201.100,257.864 197.320,254.158 193.800 C 250.453 190.280,246.499 186.500,245.373 185.400 C 244.246 184.300,242.259 182.410,240.957 181.200 C 233.479 174.251,227.597 168.733,225.607 166.800 C 224.362 165.590,221.265 162.620,218.726 160.200 C 216.187 157.780,211.567 153.370,208.460 150.400 C 196.595 139.058,196.757 139.200,195.642 139.200 C 195.057 139.200,194.299 139.515,193.959 139.900 M200.083 143.492 C 203.404 146.587,205.611 148.688,209.451 152.412 C 210.579 153.505,211.675 154.400,211.887 154.400 C 212.098 154.400,212.470 154.834,212.711 155.365 C 212.953 155.896,213.522 156.448,213.976 156.592 C 214.429 156.736,214.800 157.105,214.800 157.413 C 214.800 157.720,215.169 158.169,215.620 158.411 C 216.071 158.652,218.399 160.773,220.793 163.125 C 223.188 165.476,227.706 169.830,230.834 172.800 C 237.344 178.980,237.035 178.689,243.593 184.800 C 246.308 187.330,249.445 190.316,250.565 191.436 C 251.684 192.556,253.005 193.688,253.500 193.950 C 253.995 194.213,254.400 194.683,254.400 194.994 C 254.400 195.306,254.715 195.734,255.100 195.947 C 255.800 196.335,258.567 198.916,266.733 206.800 C 273.396 213.234,289.184 228.172,291.805 230.523 C 292.242 230.915,294.166 232.758,296.079 234.618 C 297.993 236.478,299.719 238.000,299.915 238.000 C 300.111 238.000,300.477 238.450,300.727 239.000 C 300.978 239.550,301.379 240.000,301.618 240.000 C 301.858 240.000,302.672 240.655,303.427 241.456 L 304.800 242.912 304.800 296.856 L 304.800 350.800 261.600 350.800 L 218.400 350.800 218.390 306.700 C 218.381 263.852,218.276 259.875,217.129 259.148 C 215.907 258.373,174.580 258.738,173.864 259.530 C 173.260 260.197,173.195 264.095,173.102 305.430 L 173.000 350.600 129.700 350.702 L 86.400 350.804 86.412 296.902 L 86.423 243.000 90.243 239.400 C 92.344 237.420,95.462 234.450,97.174 232.800 C 98.885 231.150,101.166 229.005,102.243 228.033 C 104.988 225.554,121.026 210.297,128.240 203.300 C 130.111 201.485,131.813 200.000,132.021 200.000 C 132.230 200.000,132.400 199.736,132.400 199.414 C 132.400 199.092,132.774 198.628,133.231 198.383 C 134.404 197.756,137.200 194.982,137.200 194.447 C 137.200 194.201,137.440 194.000,137.734 194.000 C 138.028 194.000,138.740 193.505,139.317 192.900 C 140.791 191.354,141.292 190.857,142.156 190.080 C 142.572 189.706,144.372 188.031,146.156 186.358 C 147.940 184.684,150.210 182.564,151.200 181.646 C 154.254 178.814,161.372 172.021,166.232 167.300 C 168.780 164.825,171.035 162.800,171.242 162.800 C 171.450 162.800,171.791 162.350,172.000 161.800 C 172.209 161.250,172.659 160.800,172.999 160.800 C 173.339 160.800,173.822 160.350,174.073 159.800 C 174.323 159.250,174.707 158.800,174.924 158.800 C 175.142 158.800,176.264 157.810,177.417 156.600 C 178.570 155.390,179.717 154.400,179.966 154.400 C 180.214 154.400,180.622 153.950,180.873 153.400 C 181.123 152.850,181.472 152.400,181.647 152.400 C 181.823 152.400,183.459 150.983,185.283 149.251 C 196.621 138.486,195.274 139.009,200.083 143.492 " stroke="none" fill="#a4a4a4" fill-rule="evenodd"></path><path id="path3" d="M262.282 55.333 C 261.202 56.203,260.800 58.503,260.800 63.815 C 260.800 70.668,260.880 70.788,265.609 71.054 C 267.474 71.159,269.904 71.508,271.008 71.831 C 272.112 72.153,275.014 72.663,277.456 72.965 C 279.898 73.267,282.324 73.784,282.848 74.114 C 283.372 74.445,285.013 74.920,286.496 75.169 C 287.978 75.418,289.778 75.957,290.496 76.367 C 291.213 76.776,292.443 77.224,293.229 77.360 C 294.015 77.497,295.247 78.045,295.968 78.576 C 296.688 79.108,297.980 79.662,298.839 79.807 C 299.698 79.952,300.400 80.237,300.400 80.440 C 300.400 80.644,301.345 81.229,302.500 81.740 C 303.655 82.252,304.847 82.970,305.149 83.335 C 305.451 83.701,306.008 84.000,306.387 84.000 C 306.766 84.000,307.387 84.344,307.767 84.763 C 308.147 85.183,309.030 85.761,309.729 86.048 C 310.428 86.335,311.328 86.981,311.729 87.485 C 312.130 87.988,312.636 88.400,312.855 88.400 C 313.073 88.400,313.735 88.850,314.326 89.399 C 314.916 89.948,316.819 91.580,318.553 93.025 C 322.488 96.304,325.651 99.735,330.276 105.742 C 330.978 106.654,331.899 107.760,332.322 108.200 C 332.745 108.640,333.213 109.389,333.361 109.865 C 333.510 110.341,334.165 111.400,334.816 112.220 C 335.467 113.039,336.000 113.920,336.000 114.177 C 336.000 114.434,336.441 115.242,336.979 115.972 C 337.518 116.701,338.068 117.798,338.202 118.408 C 338.336 119.018,338.785 119.824,339.200 120.200 C 339.615 120.576,340.072 121.449,340.216 122.141 C 340.360 122.834,340.823 124.000,341.244 124.732 C 341.666 125.465,342.195 126.905,342.419 127.932 C 342.644 128.960,343.153 130.250,343.551 130.800 C 343.949 131.350,344.487 133.234,344.747 134.986 C 345.008 136.738,345.500 138.599,345.842 139.121 C 346.287 139.800,346.620 142.215,347.011 147.615 C 347.819 158.747,347.514 158.386,356.091 158.394 C 364.381 158.402,363.829 159.191,363.290 148.099 C 362.961 141.346,362.734 139.420,362.072 137.759 C 361.624 136.636,361.078 134.419,360.858 132.833 C 360.638 131.247,360.182 129.527,359.844 129.011 C 359.506 128.495,359.049 126.952,358.828 125.583 C 358.608 124.213,358.186 122.802,357.891 122.447 C 357.170 121.577,356.400 119.724,356.400 118.859 C 356.400 118.472,355.950 117.545,355.400 116.800 C 354.850 116.055,354.397 115.075,354.393 114.622 C 354.389 114.170,353.849 113.008,353.193 112.040 C 352.537 111.072,352.000 109.947,352.000 109.540 C 352.000 109.133,351.644 108.444,351.209 108.009 C 350.774 107.574,350.144 106.629,349.808 105.909 C 349.202 104.610,348.108 102.887,345.800 99.596 C 345.140 98.655,344.150 97.222,343.600 96.411 C 343.050 95.600,342.383 94.681,342.118 94.368 C 341.853 94.056,341.133 93.197,340.518 92.461 C 339.443 91.173,335.478 86.843,334.235 85.600 C 331.486 82.851,329.256 80.800,329.016 80.800 C 328.857 80.800,327.860 79.900,326.800 78.800 C 325.740 77.700,324.721 76.798,324.536 76.796 C 324.351 76.794,323.410 76.164,322.444 75.396 C 321.478 74.628,320.517 74.000,320.308 74.000 C 320.099 74.000,319.629 73.637,319.264 73.192 C 318.600 72.384,317.288 71.574,314.100 70.001 C 313.165 69.540,312.400 69.024,312.400 68.855 C 312.400 68.482,309.789 67.200,309.029 67.200 C 308.730 67.200,308.386 66.940,308.264 66.622 C 308.142 66.305,307.268 65.824,306.321 65.554 C 305.375 65.285,304.240 64.765,303.800 64.400 C 303.360 64.035,302.190 63.508,301.200 63.229 C 300.210 62.949,299.116 62.469,298.769 62.161 C 298.422 61.853,297.072 61.394,295.769 61.142 C 294.466 60.890,293.112 60.436,292.760 60.134 C 292.408 59.832,290.698 59.314,288.960 58.985 C 287.222 58.655,285.172 58.089,284.404 57.728 C 283.594 57.347,280.739 56.853,277.604 56.552 C 274.632 56.266,271.480 55.865,270.600 55.660 C 267.825 55.013,262.919 54.820,262.282 55.333 M272.800 56.782 C 277.310 57.208,281.810 57.846,282.800 58.200 C 283.790 58.554,285.893 59.093,287.472 59.397 C 289.052 59.702,290.852 60.208,291.472 60.522 C 292.093 60.836,293.320 61.218,294.200 61.372 C 295.080 61.525,296.610 62.066,297.600 62.574 C 298.590 63.082,299.977 63.623,300.681 63.776 C 301.386 63.930,302.376 64.377,302.881 64.769 C 303.387 65.162,304.520 65.713,305.400 65.992 C 306.280 66.272,307.270 66.736,307.600 67.022 C 307.930 67.308,309.010 67.918,310.000 68.376 C 310.990 68.834,312.610 69.744,313.600 70.398 C 314.590 71.052,315.850 71.808,316.400 72.078 C 316.950 72.347,317.969 73.025,318.664 73.584 C 319.360 74.143,320.586 75.050,321.388 75.600 C 327.934 80.085,342.800 94.751,342.800 96.724 C 342.800 96.888,343.295 97.579,343.900 98.260 C 344.505 98.942,345.310 100.017,345.689 100.650 C 346.532 102.059,347.157 103.038,348.200 104.580 C 349.271 106.165,350.661 108.686,351.409 110.400 C 351.745 111.170,352.200 112.070,352.420 112.400 C 352.640 112.730,353.187 113.810,353.635 114.800 C 354.083 115.790,354.779 117.230,355.181 118.000 C 355.584 118.770,356.029 119.949,356.171 120.621 C 356.313 121.293,356.872 122.718,357.414 123.789 C 357.957 124.860,358.400 126.080,358.400 126.501 C 358.400 126.921,358.836 128.556,359.368 130.133 C 359.901 131.710,360.461 133.973,360.614 135.163 C 360.767 136.352,361.243 138.512,361.671 139.963 C 362.645 143.261,363.199 155.307,362.442 156.721 C 361.702 158.104,350.289 158.085,349.543 156.700 C 349.065 155.811,347.960 149.035,347.209 142.375 C 346.996 140.492,346.532 138.257,346.178 137.410 C 345.824 136.562,345.359 134.773,345.145 133.434 C 344.930 132.095,344.508 130.621,344.206 130.157 C 343.904 129.694,343.295 128.254,342.853 126.957 C 341.664 123.468,339.979 119.483,339.404 118.800 C 339.126 118.470,338.521 117.390,338.059 116.400 C 337.157 114.465,337.074 114.324,334.507 110.400 C 332.051 106.645,331.685 106.139,328.862 102.600 C 325.597 98.506,319.394 92.381,315.800 89.702 C 314.260 88.554,312.550 87.239,312.000 86.779 C 310.500 85.526,307.461 83.616,306.955 83.607 C 306.710 83.603,306.080 83.183,305.555 82.674 C 305.030 82.164,303.970 81.501,303.200 81.200 C 302.430 80.900,301.371 80.327,300.846 79.927 C 300.321 79.527,299.582 79.200,299.202 79.200 C 298.822 79.200,297.836 78.741,297.010 78.181 C 296.184 77.620,294.944 77.050,294.254 76.913 C 293.564 76.777,292.100 76.247,291.000 75.736 C 289.900 75.226,288.682 74.806,288.292 74.804 C 287.903 74.802,286.283 74.344,284.692 73.786 C 283.102 73.228,280.450 72.586,278.800 72.360 C 277.150 72.134,274.810 71.698,273.600 71.392 C 272.390 71.085,269.420 70.712,267.000 70.563 C 264.580 70.414,262.375 70.115,262.100 69.897 C 261.433 69.370,261.402 58.471,262.064 57.019 C 262.628 55.781,262.287 55.788,272.800 56.782 M261.423 85.689 C 260.314 87.272,260.534 97.487,261.715 99.241 C 262.725 100.740,262.413 100.670,272.031 101.568 C 274.910 101.837,276.737 102.217,277.649 102.737 C 278.392 103.160,279.810 103.626,280.800 103.771 C 281.790 103.916,283.271 104.477,284.091 105.018 C 284.912 105.558,285.934 106.000,286.363 106.000 C 286.792 106.000,287.418 106.276,287.755 106.612 C 288.092 106.949,289.050 107.534,289.885 107.912 C 291.513 108.650,292.707 109.447,295.259 111.500 C 296.148 112.215,297.108 112.800,297.392 112.800 C 297.676 112.800,298.203 113.250,298.563 113.800 C 298.924 114.350,299.455 114.800,299.745 114.800 C 300.035 114.800,300.470 115.234,300.711 115.765 C 300.953 116.296,301.522 116.848,301.976 116.992 C 302.429 117.136,302.800 117.395,302.800 117.568 C 302.800 117.873,304.211 119.572,306.147 121.600 C 306.672 122.150,307.318 123.019,307.581 123.530 C 307.845 124.042,308.407 124.807,308.830 125.230 C 309.254 125.654,309.600 126.239,309.600 126.530 C 309.600 126.822,310.050 127.483,310.600 128.000 C 311.150 128.517,311.600 129.243,311.600 129.614 C 311.600 129.985,312.041 130.938,312.580 131.732 C 313.118 132.526,313.679 133.812,313.825 134.591 C 313.971 135.370,314.415 136.420,314.813 136.926 C 315.210 137.431,315.824 139.242,316.177 140.950 C 316.530 142.659,317.076 144.449,317.390 144.929 C 317.750 145.479,318.051 147.430,318.201 150.201 C 318.511 155.889,318.700 157.043,319.444 157.787 C 320.292 158.635,333.254 158.699,333.951 157.859 C 335.120 156.451,334.758 146.225,333.449 143.695 C 333.114 143.047,332.659 141.074,332.438 139.311 C 332.216 137.546,331.685 135.498,331.256 134.753 C 330.827 134.009,330.357 132.656,330.211 131.746 C 330.065 130.836,329.637 129.756,329.260 129.346 C 328.883 128.936,328.338 127.790,328.048 126.800 C 327.758 125.810,327.284 124.730,326.994 124.400 C 326.704 124.070,326.162 123.035,325.790 122.100 C 325.418 121.165,324.955 120.400,324.762 120.400 C 324.569 120.400,324.143 119.759,323.816 118.976 C 323.208 117.521,322.098 115.905,320.509 114.160 C 320.019 113.622,319.421 112.813,319.179 112.361 C 318.187 110.507,308.824 101.040,307.102 100.149 C 306.496 99.836,306.000 99.433,306.000 99.254 C 306.000 99.075,305.513 98.706,304.917 98.435 C 304.322 98.164,303.601 97.609,303.316 97.201 C 303.031 96.794,302.168 96.253,301.399 96.000 C 300.629 95.746,300.000 95.363,300.000 95.149 C 300.000 94.934,299.328 94.478,298.507 94.135 C 297.685 93.792,296.581 93.171,296.053 92.756 C 295.524 92.340,294.782 92.000,294.402 92.000 C 294.022 92.000,293.033 91.539,292.203 90.976 C 291.373 90.413,289.727 89.758,288.547 89.521 C 287.366 89.284,286.400 88.956,286.400 88.793 C 286.400 88.348,284.445 87.691,282.251 87.397 C 281.179 87.254,279.604 86.772,278.750 86.327 C 277.562 85.708,275.954 85.438,271.899 85.176 C 263.151 84.612,262.142 84.662,261.423 85.689 M271.558 85.809 C 273.624 85.934,275.964 86.313,276.758 86.649 C 277.551 86.986,279.510 87.515,281.111 87.826 C 282.712 88.136,284.512 88.640,285.111 88.945 C 285.710 89.250,287.211 89.791,288.448 90.146 C 289.684 90.501,290.921 91.064,291.197 91.396 C 291.472 91.728,291.901 92.003,292.149 92.007 C 292.731 92.015,298.306 94.784,299.604 95.710 C 300.152 96.100,301.590 97.075,302.800 97.877 C 307.856 101.227,317.078 110.014,319.200 113.504 C 319.634 114.217,320.171 114.800,320.394 114.800 C 320.617 114.800,320.805 115.025,320.811 115.300 C 320.817 115.575,321.357 116.507,322.011 117.371 C 322.665 118.235,323.200 119.118,323.200 119.333 C 323.200 119.549,323.613 120.281,324.118 120.962 C 324.934 122.062,325.743 123.644,328.437 129.400 C 329.833 132.383,331.250 136.985,332.009 141.000 C 332.424 143.200,332.945 145.725,333.165 146.610 C 333.898 149.553,334.138 154.570,333.621 156.136 L 333.138 157.600 327.069 157.587 C 319.378 157.571,319.592 157.708,319.112 152.509 C 318.500 145.878,316.820 138.615,315.295 136.000 C 314.845 135.230,314.356 134.017,314.208 133.305 C 314.060 132.592,313.757 131.897,313.536 131.761 C 313.315 131.624,312.787 130.703,312.364 129.715 C 311.940 128.727,311.227 127.442,310.779 126.859 C 310.332 126.277,309.367 124.900,308.635 123.800 C 306.371 120.396,300.303 113.989,297.600 112.149 C 296.830 111.624,295.312 110.542,294.228 109.744 C 291.719 107.897,282.624 103.200,281.556 103.200 C 281.112 103.200,279.905 102.841,278.874 102.402 C 276.886 101.555,269.409 100.065,265.400 99.717 C 261.653 99.391,261.600 99.288,261.600 92.367 C 261.600 85.197,261.658 85.088,265.336 85.382 C 266.691 85.491,269.491 85.683,271.558 85.809 M195.400 87.923 C 194.740 88.004,193.896 88.369,193.525 88.735 C 193.154 89.101,190.671 91.470,188.007 94.000 C 185.343 96.530,181.193 100.535,178.785 102.900 C 176.376 105.265,174.220 107.200,173.994 107.200 C 173.768 107.200,173.385 107.635,173.143 108.166 C 172.901 108.697,172.351 109.224,171.922 109.336 C 171.492 109.449,171.043 109.914,170.924 110.370 C 170.804 110.827,170.539 111.200,170.334 111.200 C 170.128 111.200,168.899 112.235,167.603 113.500 C 166.306 114.765,165.010 116.020,164.722 116.289 C 164.435 116.558,163.995 116.982,163.743 117.232 C 163.492 117.482,162.676 118.252,161.930 118.943 C 157.681 122.880,148.260 131.723,146.200 133.708 C 144.880 134.980,141.789 137.951,139.331 140.310 C 134.302 145.136,131.591 147.754,131.000 148.351 C 128.655 150.722,125.475 153.600,125.200 153.600 C 125.009 153.600,124.740 153.960,124.600 154.400 C 124.460 154.840,124.173 155.200,123.960 155.200 C 123.748 155.200,122.005 156.724,120.087 158.587 C 116.077 162.482,108.199 169.950,104.400 173.457 C 101.626 176.018,97.660 179.767,97.000 180.453 C 96.780 180.681,95.893 181.528,95.029 182.334 C 94.165 183.140,91.408 185.825,88.903 188.300 C 86.398 190.775,84.280 192.800,84.196 192.800 C 84.065 192.800,78.769 197.832,76.715 199.907 C 76.338 200.288,75.832 200.780,75.591 201.000 C 75.350 201.220,74.114 202.390,72.844 203.600 C 71.574 204.810,69.380 206.869,67.968 208.176 C 64.335 211.537,54.755 220.600,49.260 225.872 C 40.789 234.002,40.670 234.172,42.584 235.427 C 43.126 235.781,43.678 236.415,43.811 236.836 C 43.945 237.256,44.260 237.600,44.512 237.600 C 44.764 237.600,45.427 238.060,45.985 238.623 C 47.962 240.614,50.594 242.919,52.584 244.399 C 53.693 245.223,55.101 246.368,55.713 246.942 C 58.186 249.262,58.642 249.202,61.882 246.138 C 62.776 245.292,64.654 243.538,66.054 242.240 C 69.825 238.745,79.789 229.352,82.644 226.600 C 84.013 225.280,85.374 223.975,85.667 223.701 C 85.960 223.426,86.892 222.526,87.737 221.701 C 95.216 214.398,98.143 211.600,98.302 211.600 C 98.450 211.600,103.200 207.033,105.698 204.489 C 105.974 204.208,106.442 203.758,106.738 203.489 C 107.585 202.719,109.004 201.403,115.005 195.817 C 120.762 190.458,121.677 189.589,129.139 182.400 C 131.536 180.090,134.241 177.574,135.149 176.809 C 136.057 176.044,136.800 175.183,136.800 174.896 C 136.800 174.610,137.115 174.261,137.500 174.121 C 137.885 173.982,139.214 172.863,140.454 171.634 C 141.693 170.405,143.403 168.735,144.254 167.923 C 145.104 167.110,145.980 166.267,146.200 166.049 C 146.420 165.831,148.040 164.315,149.800 162.680 C 151.560 161.045,154.420 158.378,156.156 156.754 C 157.892 155.129,159.804 153.350,160.404 152.800 C 162.782 150.622,173.037 140.813,176.191 137.700 C 178.031 135.885,179.734 134.400,179.978 134.400 C 180.221 134.400,180.585 133.965,180.787 133.434 C 180.989 132.903,181.515 132.354,181.957 132.214 C 182.398 132.074,182.870 131.608,183.006 131.180 C 183.143 130.751,183.520 130.400,183.846 130.400 C 184.171 130.400,184.744 129.861,185.119 129.203 C 185.493 128.544,185.985 128.004,186.211 128.003 C 186.437 128.001,187.095 127.505,187.673 126.900 C 188.778 125.744,188.862 125.662,191.380 123.289 C 192.249 122.470,193.382 121.395,193.898 120.900 C 194.979 119.863,196.255 119.742,197.166 120.589 C 197.515 120.913,198.932 122.263,200.315 123.589 C 201.698 124.915,202.991 126.000,203.188 126.000 C 203.385 126.000,203.652 126.333,203.781 126.739 C 203.910 127.146,204.462 127.682,205.008 127.931 C 205.553 128.179,206.000 128.650,206.000 128.977 C 206.000 129.304,206.363 129.766,206.806 130.003 C 207.249 130.240,209.065 131.867,210.842 133.617 C 212.618 135.368,214.205 136.800,214.368 136.800 C 214.531 136.800,214.906 137.250,215.200 137.800 C 215.494 138.350,215.886 138.800,216.070 138.800 C 216.255 138.800,217.833 140.195,219.578 141.900 C 221.323 143.605,225.232 147.340,228.266 150.200 C 231.299 153.060,235.300 156.840,237.156 158.600 C 239.012 160.360,241.430 162.610,242.529 163.600 C 243.628 164.590,245.586 166.435,246.879 167.700 C 248.172 168.965,249.403 170.000,249.615 170.000 C 249.827 170.000,250.000 170.249,250.000 170.553 C 250.000 170.856,250.585 171.552,251.300 172.098 C 252.015 172.644,254.334 174.781,256.454 176.846 C 261.298 181.564,276.518 196.007,281.486 200.600 C 282.676 201.700,284.691 203.635,285.964 204.900 C 287.237 206.165,288.455 207.200,288.671 207.200 C 288.888 207.200,289.304 207.647,289.596 208.193 C 289.889 208.740,290.450 209.289,290.844 209.414 C 291.237 209.539,291.670 209.992,291.806 210.420 C 291.943 210.849,292.216 211.200,292.415 211.200 C 292.613 211.200,293.852 212.280,295.168 213.600 C 296.484 214.920,297.737 216.000,297.953 216.000 C 298.169 216.000,298.457 216.351,298.594 216.780 C 298.730 217.208,299.164 217.662,299.560 217.787 C 299.955 217.913,300.482 218.462,300.731 219.008 C 300.979 219.553,301.395 220.000,301.655 220.000 C 301.914 220.000,303.139 221.035,304.377 222.300 C 305.615 223.565,307.342 225.270,308.214 226.089 C 309.086 226.908,309.980 227.758,310.200 227.977 C 311.331 229.103,316.009 233.511,320.413 237.600 C 326.847 243.574,329.989 246.522,331.088 247.616 C 332.218 248.742,333.943 248.757,334.840 247.650 C 335.219 247.183,335.673 246.800,335.849 246.800 C 336.026 246.800,336.627 246.342,337.185 245.782 C 337.743 245.222,339.730 243.489,341.600 241.931 C 346.140 238.148,345.937 238.327,348.100 236.183 C 349.145 235.147,350.000 234.132,350.000 233.928 C 350.000 233.435,336.813 220.583,327.634 212.131 C 326.003 210.629,323.822 208.545,322.788 207.500 C 321.753 206.455,320.699 205.600,320.445 205.600 C 320.191 205.600,319.778 205.150,319.527 204.600 C 319.277 204.050,318.922 203.600,318.739 203.600 C 318.556 203.600,317.925 203.060,317.337 202.400 C 316.749 201.740,316.040 201.200,315.761 201.200 C 315.482 201.200,315.144 200.885,315.010 200.500 C 314.877 200.115,314.057 199.170,313.188 198.400 C 312.320 197.630,310.068 195.515,308.183 193.700 C 306.299 191.885,304.608 190.400,304.425 190.400 C 304.243 190.400,303.999 190.041,303.885 189.602 C 303.770 189.163,303.367 188.686,302.990 188.541 C 302.613 188.396,300.371 186.370,298.007 184.039 C 295.643 181.708,292.187 178.360,290.326 176.600 C 277.966 164.912,274.737 161.872,272.644 159.957 C 271.349 158.770,269.261 156.765,268.005 155.500 C 266.750 154.235,265.510 153.200,265.251 153.200 C 264.992 153.200,264.615 152.765,264.413 152.234 C 264.211 151.703,263.685 151.154,263.243 151.014 C 262.802 150.874,262.330 150.408,262.194 149.980 C 262.057 149.551,261.785 149.200,261.588 149.200 C 261.297 149.200,259.596 147.670,255.904 144.088 C 255.741 143.929,254.900 143.035,254.035 142.100 C 253.170 141.165,252.357 140.400,252.228 140.400 C 252.099 140.400,249.970 138.417,247.497 135.993 C 241.986 130.593,240.763 129.426,236.200 125.215 C 234.220 123.388,231.129 120.477,229.331 118.747 C 227.533 117.016,225.868 115.600,225.631 115.600 C 225.394 115.600,225.200 115.322,225.200 114.981 C 225.200 114.641,224.660 114.056,223.999 113.681 C 223.338 113.307,222.696 112.685,222.572 112.300 C 222.448 111.915,222.209 111.600,222.041 111.600 C 221.770 111.600,215.691 105.978,213.400 103.608 C 211.347 101.485,197.966 88.778,197.162 88.188 C 196.853 87.962,196.060 87.842,195.400 87.923 M200.286 92.100 C 203.833 95.417,209.805 101.111,214.027 105.200 C 216.330 107.431,229.599 120.099,230.785 121.200 C 231.141 121.530,233.139 123.420,235.226 125.400 C 237.313 127.380,241.799 131.610,245.194 134.800 C 251.902 141.101,256.130 145.126,261.583 150.400 C 265.002 153.707,277.022 165.191,279.167 167.200 C 287.455 174.963,297.730 184.662,300.990 187.800 C 302.819 189.560,306.874 193.430,310.003 196.400 C 313.131 199.370,316.796 202.880,318.147 204.200 C 320.497 206.497,328.171 213.753,335.767 220.862 C 337.730 222.698,341.600 226.408,344.367 229.106 L 349.400 234.012 346.728 236.506 C 343.251 239.751,333.335 248.002,332.921 247.994 C 332.580 247.987,330.437 246.071,325.336 241.214 C 323.611 239.571,320.756 236.871,318.991 235.214 C 311.106 227.810,302.452 219.602,300.207 217.400 C 298.862 216.080,294.722 212.120,291.007 208.600 C 287.292 205.080,283.227 201.210,281.973 200.000 C 280.719 198.790,277.468 195.730,274.747 193.200 C 272.026 190.670,268.293 187.160,266.450 185.400 C 264.608 183.640,262.528 181.660,261.829 181.000 C 258.877 178.214,247.259 167.138,243.996 164.000 C 240.176 160.325,231.857 152.469,226.400 147.382 C 224.530 145.639,222.547 143.760,221.993 143.206 C 221.439 142.653,218.109 139.473,214.593 136.141 C 206.524 128.493,203.760 125.852,199.960 122.156 C 195.879 118.189,195.512 118.195,191.302 122.300 C 189.553 124.005,185.183 128.190,181.589 131.600 C 177.995 135.010,173.948 138.880,172.595 140.200 C 171.243 141.520,167.998 144.580,165.384 147.000 C 162.771 149.420,159.978 152.030,159.177 152.800 C 158.377 153.570,155.240 156.540,152.208 159.400 C 149.175 162.260,145.571 165.680,144.200 167.000 C 134.795 176.052,132.312 178.428,126.851 183.600 C 123.482 186.790,120.235 189.850,119.635 190.400 C 117.156 192.673,106.893 202.359,104.800 204.400 C 103.560 205.610,99.507 209.480,95.794 213.000 C 92.080 216.520,87.940 220.480,86.594 221.800 C 85.248 223.120,81.549 226.629,78.374 229.597 C 71.217 236.287,68.081 239.239,65.000 242.187 C 62.193 244.873,58.598 248.000,58.318 248.000 C 58.124 248.000,57.690 247.653,54.600 245.027 C 53.720 244.279,51.076 242.058,48.724 240.093 C 44.776 236.793,42.400 234.443,42.400 233.838 C 42.400 233.434,50.796 225.329,64.000 212.989 C 65.870 211.241,68.146 209.089,69.058 208.205 C 69.969 207.322,73.362 204.080,76.598 201.000 C 79.833 197.920,83.972 193.960,85.796 192.200 C 91.229 186.956,101.599 177.138,104.600 174.396 C 106.140 172.990,109.101 170.210,111.180 168.219 C 113.259 166.229,116.409 163.220,118.180 161.534 C 119.951 159.848,123.047 156.878,125.061 154.934 C 127.074 152.990,131.276 148.970,134.399 146.000 C 137.521 143.030,140.921 139.790,141.954 138.800 C 142.987 137.810,145.175 135.739,146.816 134.198 C 157.580 124.089,161.677 120.224,164.620 117.400 C 166.454 115.640,170.506 111.770,173.624 108.800 C 176.742 105.830,180.403 102.320,181.758 101.000 C 196.402 86.740,195.182 87.326,200.286 92.100 M261.461 114.434 C 260.595 115.671,260.502 125.314,261.338 127.313 C 262.144 129.242,262.650 129.477,266.982 129.943 C 269.801 130.245,271.273 130.599,272.023 131.154 C 272.606 131.585,273.785 132.127,274.642 132.359 C 275.499 132.590,276.427 133.144,276.703 133.590 C 276.980 134.035,277.415 134.400,277.670 134.400 C 278.161 134.400,279.625 135.696,281.727 137.990 C 282.427 138.754,283.495 139.862,284.100 140.450 C 284.705 141.039,285.200 141.694,285.200 141.905 C 285.200 142.116,285.642 142.940,286.182 143.736 C 286.723 144.532,287.369 145.952,287.620 146.892 C 287.870 147.831,288.350 148.908,288.686 149.285 C 289.051 149.694,289.430 151.283,289.625 153.220 C 290.159 158.518,289.970 158.400,297.960 158.400 C 303.764 158.400,304.778 158.307,305.251 157.734 C 306.147 156.647,305.915 149.847,304.906 147.600 C 304.462 146.610,303.969 144.906,303.811 143.813 C 303.641 142.628,303.136 141.364,302.562 140.682 C 302.033 140.053,301.600 139.116,301.600 138.600 C 301.600 138.084,301.175 137.153,300.655 136.531 C 300.135 135.909,299.571 134.950,299.401 134.400 C 299.231 133.850,298.621 132.825,298.046 132.123 C 297.471 131.420,296.550 130.272,296.000 129.572 C 294.613 127.805,289.660 122.800,289.297 122.799 C 289.134 122.799,288.370 122.259,287.600 121.600 C 286.830 120.941,286.001 120.401,285.758 120.401 C 285.516 120.400,284.838 119.957,284.254 119.415 C 283.669 118.873,282.472 118.214,281.595 117.951 C 280.718 117.688,280.000 117.344,280.000 117.185 C 280.000 116.776,278.094 116.094,276.100 115.789 C 275.165 115.646,274.400 115.394,274.400 115.229 C 274.400 113.646,262.524 112.917,261.461 114.434 M272.336 115.185 C 273.361 115.612,275.010 116.167,276.000 116.417 C 276.990 116.668,278.340 117.195,279.000 117.588 C 279.660 117.981,280.875 118.519,281.700 118.783 C 282.525 119.046,283.200 119.427,283.200 119.628 C 283.200 119.829,283.794 120.310,284.520 120.697 C 287.759 122.422,288.785 123.202,292.028 126.400 C 295.202 129.531,296.541 131.205,298.550 134.550 C 298.963 135.238,299.610 136.250,299.987 136.800 C 300.365 137.350,300.905 138.520,301.187 139.400 C 301.470 140.280,301.953 141.289,302.260 141.642 C 302.567 141.995,303.094 143.615,303.430 145.242 C 303.766 146.869,304.301 149.088,304.620 150.173 C 305.291 152.455,305.369 155.102,304.810 156.574 L 304.420 157.600 298.310 157.594 C 290.654 157.586,290.732 157.634,290.207 152.603 C 290.043 151.028,289.520 149.019,289.010 148.003 C 288.511 147.012,287.965 145.752,287.795 145.205 C 286.760 141.872,280.408 134.792,276.248 132.335 C 273.556 130.745,266.164 128.400,263.845 128.400 C 261.765 128.400,260.260 116.360,262.100 114.438 C 262.842 113.663,269.922 114.180,272.336 115.185 M188.887 143.500 C 183.416 148.812,174.605 157.243,173.391 158.329 C 173.066 158.619,172.800 159.024,172.800 159.229 C 172.800 159.433,172.608 159.600,172.373 159.600 C 172.138 159.600,170.563 160.937,168.873 162.571 C 164.692 166.614,162.209 168.960,156.768 174.006 C 154.220 176.369,151.241 179.180,150.148 180.251 C 149.055 181.323,147.450 182.879,146.580 183.709 C 145.711 184.538,144.730 185.491,144.400 185.825 C 144.070 186.159,142.180 187.959,140.200 189.826 C 138.220 191.692,136.420 193.403,136.200 193.629 C 135.980 193.855,135.468 194.346,135.061 194.720 C 134.655 195.094,132.870 196.795,131.094 198.500 C 129.319 200.205,127.728 201.600,127.560 201.600 C 127.392 201.600,127.152 201.915,127.028 202.300 C 126.904 202.685,126.262 203.307,125.601 203.681 C 124.940 204.056,124.400 204.641,124.400 204.981 C 124.400 205.322,124.170 205.600,123.889 205.600 C 123.608 205.600,122.924 206.095,122.370 206.700 C 121.815 207.305,119.132 209.870,116.407 212.400 C 110.839 217.571,108.527 219.753,102.200 225.806 C 99.780 228.122,95.640 232.081,93.000 234.604 C 87.184 240.164,87.826 239.534,86.391 241.096 L 85.200 242.393 85.200 296.568 C 85.200 345.285,85.263 350.806,85.829 351.371 C 86.392 351.935,90.931 352.000,129.806 352.000 L 173.155 352.000 173.777 351.111 C 174.332 350.319,174.400 345.354,174.400 305.754 C 174.400 265.574,174.461 261.262,175.033 261.043 C 175.381 260.909,184.900 260.800,196.186 260.800 L 216.707 260.800 216.948 261.700 C 217.081 262.195,217.192 282.529,217.195 306.886 C 217.200 350.258,217.216 351.180,217.974 351.586 C 219.161 352.221,304.883 352.157,305.520 351.520 C 305.889 351.151,306.000 338.399,306.000 296.554 L 306.000 242.067 304.477 240.434 C 303.639 239.535,302.751 238.800,302.504 238.800 C 302.256 238.800,301.936 238.429,301.792 237.976 C 301.648 237.522,301.100 236.955,300.573 236.715 C 300.046 236.475,299.510 235.946,299.381 235.539 C 299.252 235.133,298.993 234.800,298.806 234.800 C 298.537 234.800,292.897 229.585,291.000 227.582 C 289.521 226.021,278.643 215.732,271.639 209.270 C 269.571 207.361,266.819 204.765,265.524 203.500 C 264.230 202.235,263.026 201.200,262.849 201.200 C 262.673 201.200,262.323 200.750,262.073 200.200 C 261.822 199.650,261.431 199.200,261.203 199.200 C 260.975 199.200,258.908 197.310,256.609 195.000 C 254.310 192.690,252.239 190.800,252.006 190.800 C 251.773 190.800,251.378 190.350,251.127 189.800 C 250.877 189.250,250.530 188.800,250.357 188.800 C 250.184 188.800,248.510 187.315,246.637 185.500 C 241.219 180.249,234.281 173.679,225.834 165.800 C 223.475 163.600,220.018 160.315,218.151 158.500 C 216.285 156.685,214.599 155.200,214.406 155.200 C 214.212 155.200,213.948 154.867,213.819 154.461 C 213.690 154.054,213.138 153.518,212.592 153.269 C 212.047 153.021,211.600 152.543,211.600 152.209 C 211.600 151.874,211.426 151.600,211.213 151.600 C 211.001 151.600,209.211 150.025,207.236 148.100 C 194.559 135.745,196.400 136.206,188.887 143.500 M199.917 142.100 C 203.570 145.606,205.388 147.344,212.997 154.600 C 216.227 157.680,219.903 161.190,221.167 162.400 C 222.431 163.610,225.956 166.940,229.002 169.800 C 232.047 172.660,235.003 175.462,235.570 176.027 C 236.136 176.591,238.130 178.471,240.000 180.203 C 243.436 183.387,253.853 193.280,259.580 198.800 C 263.459 202.539,274.038 212.600,275.736 214.166 C 279.198 217.359,297.218 234.457,301.483 238.595 L 305.600 242.591 305.600 296.681 C 305.600 349.750,305.585 350.780,304.826 351.186 C 304.307 351.464,290.099 351.600,261.600 351.600 C 233.101 351.600,218.893 351.464,218.374 351.186 C 217.616 350.781,217.599 349.837,217.560 306.286 C 217.538 281.819,217.395 261.350,217.242 260.800 L 216.964 259.800 195.934 259.696 C 176.739 259.602,174.856 259.651,174.352 260.258 C 173.891 260.813,173.782 268.341,173.693 305.729 C 173.617 337.717,173.460 350.687,173.144 351.067 C 172.339 352.038,87.137 351.835,86.255 350.861 C 85.635 350.176,85.594 346.141,85.693 296.309 L 85.800 242.496 89.699 238.748 C 95.827 232.858,109.317 220.067,111.400 218.172 C 112.953 216.759,123.411 206.860,126.368 204.004 C 127.623 202.792,132.142 198.470,136.409 194.400 C 140.676 190.330,144.545 186.640,145.005 186.200 C 147.774 183.556,153.316 178.337,157.962 174.000 C 160.908 171.250,164.341 168.010,165.592 166.800 C 166.843 165.590,170.429 162.170,173.562 159.200 C 176.694 156.230,180.837 152.270,182.767 150.400 C 196.514 137.085,195.302 137.671,199.917 142.100 " stroke="none" fill="#b4b4b4" fill-rule="evenodd"></path><path id="path4" d="M263.300 56.287 C 263.905 56.378,264.895 56.378,265.500 56.287 C 266.105 56.195,265.610 56.120,264.400 56.120 C 263.190 56.120,262.695 56.195,263.300 56.287 M194.900 119.076 C 195.285 119.176,195.915 119.176,196.300 119.076 C 196.685 118.975,196.370 118.893,195.600 118.893 C 194.830 118.893,194.515 118.975,194.900 119.076 M240.200 130.400 C 241.059 131.280,241.852 132.000,241.962 132.000 C 242.072 132.000,241.459 131.280,240.600 130.400 C 239.741 129.520,238.948 128.800,238.838 128.800 C 238.728 128.800,239.341 129.520,240.200 130.400 M147.978 133.100 L 146.600 134.600 148.100 133.222 C 148.925 132.463,149.600 131.788,149.600 131.722 C 149.600 131.416,149.262 131.704,147.978 133.100 M190.800 142.600 C 189.828 143.590,189.123 144.400,189.233 144.400 C 189.343 144.400,190.228 143.590,191.200 142.600 C 192.172 141.610,192.877 140.800,192.767 140.800 C 192.657 140.800,191.772 141.610,190.800 142.600 M333.709 152.400 C 333.709 153.390,333.787 153.795,333.882 153.300 C 333.978 152.805,333.978 151.995,333.882 151.500 C 333.787 151.005,333.709 151.410,333.709 152.400 M287.200 175.000 C 287.946 175.770,288.647 176.400,288.757 176.400 C 288.867 176.400,288.346 175.770,287.600 175.000 C 286.854 174.230,286.153 173.600,286.043 173.600 C 285.933 173.600,286.454 174.230,287.200 175.000 M150.400 181.000 C 149.428 181.990,148.723 182.800,148.833 182.800 C 148.943 182.800,149.828 181.990,150.800 181.000 C 151.772 180.010,152.477 179.200,152.367 179.200 C 152.257 179.200,151.372 180.010,150.400 181.000 M267.200 186.125 C 267.200 186.194,267.785 186.779,268.500 187.425 L 269.800 188.600 268.625 187.300 C 267.530 186.088,267.200 185.816,267.200 186.125 M142.975 188.100 L 141.800 189.400 143.100 188.225 C 143.815 187.579,144.400 186.994,144.400 186.925 C 144.400 186.616,144.070 186.888,142.975 188.100 M277.600 216.200 C 278.346 216.970,279.047 217.600,279.157 217.600 C 279.267 217.600,278.746 216.970,278.000 216.200 C 277.254 215.430,276.553 214.800,276.443 214.800 C 276.333 214.800,276.854 215.430,277.600 216.200 M103.375 225.700 L 102.200 227.000 103.500 225.825 C 104.712 224.730,104.984 224.400,104.675 224.400 C 104.606 224.400,104.021 224.985,103.375 225.700 M313.600 230.125 C 313.600 230.194,314.185 230.779,314.900 231.425 L 316.200 232.600 315.025 231.300 C 313.930 230.088,313.600 229.816,313.600 230.125 M73.375 234.100 L 72.200 235.400 73.500 234.225 C 74.712 233.130,74.984 232.800,74.675 232.800 C 74.606 232.800,74.021 233.385,73.375 234.100 M320.400 236.600 C 321.146 237.370,321.847 238.000,321.957 238.000 C 322.067 238.000,321.546 237.370,320.800 236.600 C 320.054 235.830,319.353 235.200,319.243 235.200 C 319.133 235.200,319.654 235.830,320.400 236.600 M85.794 297.200 C 85.794 326.570,85.842 338.585,85.900 323.900 C 85.958 309.215,85.958 285.185,85.900 270.500 C 85.842 255.815,85.794 267.830,85.794 297.200 M108.069 351.500 C 119.877 351.559,139.317 351.559,151.269 351.500 C 163.221 351.441,153.560 351.393,129.800 351.393 C 106.040 351.393,96.261 351.441,108.069 351.500 M240.100 351.500 C 251.925 351.559,271.275 351.559,283.100 351.500 C 294.925 351.441,285.250 351.393,261.600 351.393 C 237.950 351.393,228.275 351.441,240.100 351.500 " stroke="none" fill="#acacac" fill-rule="evenodd"></path></g></svg>