<svg id="svg" version="1.1" xmlns="http://www.w3.org/2000/svg" xmlns:xlink="http://www.w3.org/1999/xlink" width="400" height="360.655737704918" viewBox="0, 0, 400,360.655737704918"><g id="svgg"><path id="path0" d="M305.500 51.141 C 305.005 51.199,303.057 51.629,301.172 52.098 C 299.288 52.567,297.293 53.053,296.740 53.177 C 295.875 53.370,290.689 57.805,285.995 62.365 C 282.342 65.914,281.039 67.088,280.750 67.090 C 280.575 67.091,280.157 67.577,279.820 68.169 C 279.483 68.761,278.664 69.505,278.001 69.821 C 277.337 70.138,276.591 70.854,276.344 71.413 C 276.096 71.972,275.361 72.683,274.711 72.991 C 274.060 73.300,273.343 73.959,273.117 74.455 C 272.891 74.951,272.050 75.771,271.249 76.276 C 269.176 77.585,269.058 80.163,271.033 80.988 C 271.716 81.273,272.709 82.077,273.240 82.773 C 273.772 83.470,274.405 84.040,274.649 84.040 C 274.892 84.040,276.049 84.860,277.221 85.863 C 278.392 86.866,280.385 88.530,281.649 89.560 C 282.914 90.591,284.618 92.105,285.437 92.926 C 286.255 93.747,287.292 94.529,287.741 94.665 C 288.189 94.800,288.802 95.386,289.102 95.967 C 289.403 96.550,290.212 97.258,290.909 97.549 C 291.604 97.839,292.450 98.562,292.791 99.156 C 293.132 99.750,293.763 100.324,294.194 100.432 C 294.625 100.541,295.438 101.128,296.001 101.737 C 296.564 102.346,297.836 103.397,298.828 104.073 C 299.820 104.748,301.181 105.873,301.854 106.573 C 302.527 107.272,303.263 107.845,303.491 107.845 C 303.719 107.845,304.535 108.166,305.305 108.559 C 306.679 109.259,306.714 109.260,307.186 108.586 C 307.451 108.209,308.232 107.714,308.922 107.486 C 309.612 107.258,310.517 106.594,310.933 106.010 C 311.349 105.426,312.204 104.686,312.833 104.364 C 313.462 104.043,314.492 103.254,315.123 102.611 C 315.753 101.968,317.014 101.082,317.924 100.641 C 318.834 100.200,319.753 99.515,319.965 99.119 C 320.177 98.723,321.036 98.096,321.874 97.725 C 322.713 97.354,323.615 96.646,323.880 96.151 C 324.145 95.656,325.062 94.922,325.917 94.520 C 326.771 94.118,327.647 93.459,327.863 93.056 C 328.079 92.653,329.107 91.843,330.148 91.255 C 331.189 90.668,332.521 89.683,333.108 89.068 C 333.695 88.452,334.676 87.737,335.289 87.479 C 338.134 86.282,338.218 71.036,335.384 70.136 C 334.962 70.002,333.844 69.140,332.900 68.220 C 331.956 67.299,330.082 65.654,328.734 64.563 C 327.387 63.472,325.778 62.073,325.160 61.456 C 324.542 60.838,323.368 59.911,322.552 59.395 C 321.735 58.880,320.961 58.125,320.832 57.717 C 320.703 57.310,319.953 56.648,319.166 56.246 C 318.379 55.845,317.553 55.116,317.330 54.627 C 317.051 54.015,316.466 53.627,315.451 53.382 C 314.640 53.186,312.272 52.578,310.189 52.031 C 308.106 51.484,305.996 51.084,305.500 51.141 M66.727 62.599 C 66.429 62.664,64.905 62.823,63.339 62.954 C 60.730 63.171,60.400 63.290,59.372 64.378 C 58.755 65.031,57.920 65.733,57.515 65.938 C 57.110 66.143,56.550 66.769,56.271 67.330 C 55.991 67.891,55.267 68.886,54.662 69.542 L 53.562 70.734 53.459 175.223 C 53.346 289.875,53.210 281.397,55.199 283.695 C 55.982 284.600,56.719 285.722,56.836 286.186 C 57.001 286.846,57.631 287.243,59.719 288.005 C 61.188 288.541,62.835 289.329,63.378 289.756 L 64.365 290.532 189.351 290.532 L 314.337 290.532 316.321 289.405 C 317.412 288.786,318.724 288.180,319.237 288.061 C 321.021 287.644,323.803 284.394,324.327 282.113 C 325.084 278.824,325.015 116.612,324.256 116.133 C 323.288 115.521,322.506 115.759,321.854 116.863 C 321.502 117.458,320.889 118.048,320.490 118.175 C 320.092 118.301,319.007 119.153,318.079 120.068 C 316.022 122.096,312.581 124.924,311.024 125.866 C 310.392 126.249,309.697 126.895,309.479 127.301 C 309.261 127.708,308.464 128.357,307.708 128.743 C 306.951 129.129,306.056 129.866,305.718 130.381 C 305.381 130.896,304.546 131.584,303.863 131.910 C 303.181 132.235,302.528 132.798,302.413 133.161 C 302.298 133.524,301.567 134.333,300.789 134.958 L 299.375 136.094 299.282 201.474 L 299.188 266.854 298.428 267.873 L 297.668 268.891 190.098 268.982 C 70.786 269.082,80.802 269.283,79.425 266.768 C 78.508 265.095,78.283 87.327,79.196 85.934 C 80.510 83.928,75.770 84.040,159.818 84.040 L 237.424 84.040 238.821 82.777 C 239.590 82.083,240.447 81.515,240.726 81.515 C 241.006 81.515,241.666 81.002,242.193 80.376 C 242.720 79.749,243.762 78.794,244.508 78.254 C 245.254 77.713,246.582 76.600,247.459 75.781 C 248.336 74.961,249.390 74.201,249.801 74.093 C 250.212 73.984,250.836 73.407,251.187 72.812 C 251.539 72.217,252.258 71.542,252.784 71.312 C 253.311 71.083,254.472 70.193,255.365 69.335 C 258.689 66.143,259.538 65.394,260.527 64.783 C 262.015 63.863,261.666 62.994,259.689 62.696 C 258.119 62.459,67.812 62.364,66.727 62.599 M256.092 89.888 C 255.400 90.080,254.146 90.871,253.305 91.646 C 252.463 92.422,251.524 93.057,251.218 93.057 C 250.911 93.057,250.470 93.476,250.237 93.987 C 250.004 94.499,249.198 95.232,248.446 95.615 C 247.695 95.999,246.809 96.725,246.479 97.230 C 246.148 97.735,245.258 98.464,244.502 98.850 C 243.745 99.236,242.954 99.874,242.743 100.267 C 242.532 100.661,241.512 101.532,240.477 102.203 C 239.441 102.874,238.120 103.928,237.542 104.544 C 236.964 105.160,235.973 105.835,235.341 106.044 C 234.708 106.252,234.011 106.817,233.792 107.300 C 233.572 107.782,232.761 108.498,231.990 108.891 C 231.219 109.285,230.325 110.009,230.003 110.500 C 229.681 110.991,228.765 111.760,227.968 112.208 C 227.171 112.656,226.436 113.284,226.334 113.602 C 226.233 113.921,225.649 114.478,225.035 114.840 C 224.422 115.202,223.096 116.231,222.088 117.126 C 221.080 118.022,219.749 118.966,219.130 119.224 C 218.511 119.483,217.785 120.104,217.518 120.604 C 217.250 121.104,216.400 121.766,215.630 122.074 C 214.759 122.422,214.097 122.982,213.879 123.553 C 213.680 124.079,213.002 124.692,212.296 124.987 C 211.617 125.271,210.723 125.978,210.309 126.559 C 209.896 127.139,208.827 128.042,207.935 128.565 C 207.042 129.088,206.312 129.675,206.312 129.870 C 206.312 130.064,205.313 130.869,204.091 131.658 C 202.870 132.448,201.642 133.420,201.362 133.819 C 201.083 134.219,200.240 134.858,199.490 135.241 C 198.740 135.624,197.846 136.365,197.502 136.889 C 197.159 137.413,196.317 138.076,195.631 138.363 C 194.946 138.649,194.211 139.265,193.999 139.730 C 193.787 140.195,192.988 140.928,192.223 141.358 C 191.457 141.788,190.532 142.521,190.165 142.986 C 189.799 143.452,188.580 144.421,187.456 145.140 C 186.332 145.859,185.247 146.758,185.044 147.137 C 184.840 147.517,184.009 148.121,183.195 148.480 C 182.382 148.839,181.500 149.551,181.235 150.064 C 180.970 150.576,180.111 151.285,179.327 151.638 C 178.543 151.992,177.726 152.664,177.513 153.132 C 177.300 153.600,176.475 154.315,175.680 154.720 C 174.885 155.126,174.060 155.784,173.847 156.183 C 173.633 156.582,172.787 157.332,171.967 157.850 C 171.147 158.368,169.925 159.327,169.252 159.980 C 168.579 160.634,167.510 161.414,166.877 161.715 C 166.243 162.015,165.359 162.757,164.911 163.362 C 164.464 163.967,163.711 164.559,163.239 164.678 C 162.767 164.796,161.890 165.504,161.290 166.251 C 160.690 166.998,159.721 167.807,159.136 168.049 C 158.552 168.291,157.897 168.877,157.681 169.351 C 157.465 169.826,156.672 170.530,155.921 170.915 C 155.169 171.301,154.148 172.060,153.652 172.602 C 153.156 173.144,151.903 174.136,150.867 174.806 C 149.831 175.475,148.821 176.327,148.623 176.697 C 148.425 177.067,147.641 177.619,146.882 177.923 C 146.074 178.246,145.323 178.865,145.073 179.414 C 144.838 179.931,144.197 180.551,143.648 180.793 C 143.100 181.035,141.717 182.171,140.575 183.317 L 138.500 185.401 139.674 186.116 C 140.319 186.510,140.943 186.833,141.060 186.834 C 141.177 186.834,141.455 187.234,141.677 187.722 C 141.899 188.210,142.743 188.947,143.553 189.360 C 144.362 189.773,145.201 190.499,145.417 190.973 C 145.634 191.448,146.246 192.016,146.777 192.236 C 147.309 192.457,148.384 193.205,149.165 193.899 C 149.947 194.594,151.273 195.648,152.114 196.242 C 152.954 196.836,153.811 197.640,154.019 198.029 C 154.227 198.417,155.048 199.067,155.843 199.472 C 156.637 199.878,157.466 200.601,157.684 201.079 C 157.902 201.558,158.627 202.208,159.295 202.526 C 159.963 202.843,160.874 203.597,161.319 204.202 C 161.764 204.807,162.725 205.608,163.454 205.981 C 164.184 206.355,164.885 206.991,165.014 207.394 C 165.142 207.797,165.854 208.438,166.597 208.816 C 167.340 209.195,168.180 209.787,168.464 210.132 C 168.748 210.477,169.932 211.452,171.095 212.299 C 172.257 213.146,173.445 214.176,173.733 214.589 C 174.022 215.001,174.897 215.665,175.678 216.063 C 176.458 216.461,177.096 216.934,177.096 217.114 C 177.096 217.599,178.160 218.575,178.688 218.575 C 179.105 218.575,180.464 217.458,183.408 214.696 C 184.004 214.137,185.140 213.205,185.933 212.625 C 186.727 212.044,188.140 210.873,189.074 210.023 C 190.008 209.172,190.981 208.475,191.238 208.474 C 191.494 208.473,191.984 207.980,192.326 207.378 C 192.669 206.777,193.450 206.074,194.062 205.817 C 194.674 205.559,195.493 204.825,195.882 204.186 C 196.271 203.546,197.077 202.853,197.674 202.645 C 198.271 202.436,199.001 201.800,199.296 201.229 C 199.591 200.659,200.357 199.924,200.998 199.596 C 201.639 199.268,202.760 198.413,203.489 197.697 C 205.871 195.352,207.550 193.847,208.990 192.767 C 209.769 192.182,211.040 191.096,211.815 190.352 C 212.590 189.608,213.365 188.999,213.538 188.999 C 213.711 188.999,214.573 188.269,215.453 187.376 C 216.333 186.483,217.310 185.753,217.625 185.753 C 217.939 185.753,218.447 185.268,218.754 184.674 C 219.061 184.081,219.925 183.283,220.676 182.900 C 221.426 182.517,222.228 181.792,222.457 181.288 C 222.687 180.784,223.519 180.044,224.306 179.642 C 225.093 179.241,225.837 178.596,225.960 178.209 C 226.082 177.823,226.906 177.083,227.789 176.565 C 228.673 176.047,229.396 175.483,229.396 175.311 C 229.396 175.027,231.609 173.129,235.640 169.956 C 236.471 169.302,237.827 168.125,238.654 167.341 C 239.481 166.557,240.373 165.914,240.638 165.913 C 240.902 165.912,241.398 165.418,241.741 164.816 C 242.084 164.214,242.905 163.495,243.566 163.219 C 244.227 162.943,244.950 162.317,245.173 161.828 C 245.395 161.339,246.236 160.569,247.041 160.117 C 247.846 159.665,248.600 158.993,248.717 158.624 C 248.834 158.255,249.528 157.576,250.259 157.114 C 250.989 156.653,252.165 155.726,252.871 155.054 C 254.924 153.102,258.235 150.302,259.548 149.411 C 260.213 148.959,260.923 148.279,261.125 147.901 C 261.328 147.523,262.143 146.926,262.938 146.576 C 263.732 146.225,264.382 145.741,264.382 145.499 C 264.382 144.929,266.446 143.192,267.124 143.192 C 267.411 143.192,267.798 142.792,267.984 142.304 C 268.170 141.815,268.948 141.020,269.713 140.537 C 270.478 140.054,271.372 139.250,271.700 138.750 C 272.028 138.249,272.948 137.473,273.745 137.025 C 274.543 136.577,275.282 135.936,275.389 135.600 C 275.496 135.264,276.309 134.530,277.196 133.969 C 278.084 133.408,278.810 132.830,278.810 132.685 C 278.810 132.539,279.934 131.585,281.307 130.563 C 282.681 129.542,283.890 128.483,283.995 128.211 C 284.099 127.938,284.807 127.398,285.567 127.010 C 286.327 126.622,287.170 125.892,287.440 125.387 C 287.710 124.882,288.476 124.211,289.141 123.895 C 289.806 123.579,290.613 122.801,290.934 122.166 C 291.255 121.530,291.852 120.645,292.260 120.198 C 292.691 119.727,292.818 119.387,292.563 119.387 C 292.322 119.387,291.360 118.687,290.426 117.832 C 289.493 116.977,288.242 115.916,287.647 115.474 C 286.182 114.387,283.778 112.302,281.945 110.529 C 281.113 109.724,279.994 108.879,279.458 108.651 C 278.922 108.423,278.234 107.754,277.929 107.165 C 277.624 106.575,277.008 105.981,276.559 105.845 C 275.575 105.547,274.121 104.270,274.121 103.704 C 274.121 103.479,273.466 103.006,272.666 102.653 C 271.865 102.300,270.949 101.611,270.628 101.122 C 270.308 100.634,269.621 100.014,269.101 99.745 C 267.975 99.163,264.064 95.881,262.029 93.812 C 261.231 93.000,260.392 92.335,260.166 92.335 C 259.939 92.335,259.212 91.707,258.551 90.938 C 257.415 89.617,257.280 89.560,256.092 89.888 M126.065 198.008 C 125.945 198.201,125.616 200.221,125.334 202.496 C 124.690 207.692,124.539 208.326,123.530 210.099 C 122.752 211.467,122.259 213.941,121.711 219.232 C 121.561 220.674,121.085 222.264,120.415 223.560 C 118.913 226.467,117.914 234.232,118.919 235.190 C 119.783 236.013,127.383 235.267,129.231 234.177 C 131.171 233.034,132.671 232.656,137.527 232.089 C 141.208 231.658,142.655 231.320,144.404 230.480 C 146.175 229.629,147.593 229.303,151.488 228.851 C 155.410 228.396,156.783 228.078,158.550 227.218 C 159.756 226.630,161.035 226.150,161.393 226.150 C 161.750 226.150,162.605 225.802,163.292 225.378 L 164.541 224.605 162.699 223.542 C 161.685 222.957,160.691 222.168,160.488 221.790 C 160.286 221.412,159.479 220.775,158.695 220.375 C 157.911 219.975,157.000 219.237,156.670 218.734 C 156.341 218.231,155.486 217.579,154.771 217.285 C 154.057 216.990,153.066 216.302,152.570 215.754 C 152.074 215.206,150.857 214.288,149.865 213.714 C 148.873 213.139,147.750 212.274,147.370 211.792 C 146.989 211.309,146.150 210.693,145.506 210.424 C 144.862 210.155,143.992 209.453,143.573 208.866 C 143.155 208.278,142.452 207.689,142.010 207.557 C 141.569 207.424,140.640 206.786,139.946 206.139 C 139.252 205.492,137.902 204.514,136.947 203.966 C 135.992 203.418,134.968 202.599,134.671 202.146 C 134.373 201.692,133.417 200.986,132.545 200.576 C 131.673 200.166,130.766 199.463,130.530 199.014 C 129.833 197.692,126.697 196.985,126.065 198.008 " stroke="none" fill="#5d5d5d" fill-rule="evenodd"></path><path id="path1" d="M0.000 180.343 L 0.000 360.685 200.000 360.685 L 400.000 360.685 400.000 180.343 L 400.000 0.000 200.000 0.000 L 0.000 0.000 0.000 180.343 M311.579 49.075 C 312.561 49.286,313.643 49.766,313.983 50.143 C 314.324 50.519,315.397 51.091,316.368 51.413 C 317.540 51.803,318.451 52.414,319.074 53.232 C 319.591 53.909,320.238 54.463,320.512 54.463 C 320.786 54.463,321.619 55.078,322.363 55.830 C 323.107 56.581,324.567 57.812,325.609 58.565 C 326.650 59.319,327.502 60.090,327.502 60.280 C 327.502 60.470,328.310 61.127,329.297 61.740 C 330.284 62.354,331.178 63.130,331.284 63.465 C 331.391 63.800,332.136 64.444,332.941 64.896 C 333.746 65.348,334.581 66.107,334.797 66.581 C 335.014 67.056,335.742 67.770,336.416 68.167 C 337.237 68.652,337.877 69.456,338.353 70.604 C 338.745 71.546,339.478 73.094,339.984 74.042 C 341.594 77.065,341.492 81.747,339.768 83.938 C 339.394 84.413,338.817 85.621,338.484 86.621 C 338.038 87.963,337.567 88.625,336.688 89.144 C 336.033 89.531,335.238 90.241,334.922 90.723 C 334.607 91.205,333.823 91.870,333.180 92.200 C 332.537 92.531,331.234 93.497,330.285 94.348 C 329.336 95.199,328.021 96.072,327.363 96.290 C 326.674 96.517,325.990 97.071,325.751 97.595 C 325.522 98.098,324.733 98.755,323.985 99.064 C 323.241 99.372,322.175 100.175,321.615 100.849 C 321.055 101.523,320.378 102.074,320.111 102.074 C 319.844 102.074,318.942 102.732,318.105 103.535 C 317.268 104.339,315.835 105.380,314.920 105.849 C 314.004 106.318,313.044 107.052,312.785 107.480 C 312.526 107.908,311.679 108.543,310.902 108.891 C 310.126 109.238,309.148 109.958,308.730 110.490 C 307.540 112.002,306.863 112.223,305.074 111.685 C 303.597 111.240,298.287 107.377,298.287 106.746 C 298.287 106.589,297.678 106.094,296.934 105.646 C 295.648 104.871,294.952 104.269,291.614 101.042 C 290.821 100.275,289.637 99.374,288.983 99.040 C 288.330 98.706,287.616 98.038,287.396 97.555 C 287.176 97.072,286.668 96.573,286.267 96.446 C 285.866 96.319,284.795 95.539,283.887 94.713 C 282.979 93.888,281.537 92.743,280.682 92.169 C 279.827 91.595,278.972 90.835,278.782 90.479 C 278.591 90.124,277.716 89.411,276.836 88.896 C 275.956 88.380,275.146 87.673,275.035 87.325 C 274.925 86.978,274.176 86.323,273.371 85.870 C 272.566 85.418,271.735 84.670,271.525 84.208 C 271.314 83.745,270.656 83.166,270.063 82.920 C 266.720 81.536,266.558 76.154,269.808 74.473 C 270.388 74.174,271.101 73.467,271.393 72.903 C 271.684 72.339,272.411 71.676,273.009 71.428 C 273.606 71.181,274.421 70.425,274.820 69.749 C 275.219 69.072,275.960 68.362,276.465 68.170 C 276.971 67.977,277.711 67.267,278.110 66.590 C 278.509 65.914,279.296 65.170,279.858 64.937 C 280.420 64.704,281.062 64.114,281.285 63.626 C 281.507 63.138,282.265 62.399,282.968 61.984 C 283.671 61.569,284.487 60.765,284.780 60.197 C 285.074 59.629,285.786 58.921,286.362 58.623 C 286.938 58.325,287.739 57.618,288.142 57.052 C 288.546 56.485,289.451 55.631,290.155 55.153 C 290.859 54.674,291.531 53.985,291.649 53.622 C 291.766 53.258,292.943 52.439,294.263 51.803 C 295.583 51.167,297.114 50.347,297.665 49.983 C 299.564 48.724,307.520 48.205,311.579 49.075 M264.754 59.810 C 266.521 61.241,264.407 65.766,261.499 66.780 C 260.903 66.988,260.415 67.371,260.415 67.632 C 260.415 68.220,258.376 69.973,257.691 69.973 C 257.414 69.973,256.929 70.473,256.613 71.083 C 256.289 71.709,255.502 72.418,254.809 72.708 C 254.132 72.990,253.333 73.696,253.033 74.277 C 252.733 74.857,252.139 75.443,251.712 75.578 C 251.286 75.714,250.154 76.577,249.198 77.497 C 245.417 81.134,241.885 84.011,239.727 85.211 C 238.658 85.806,234.205 85.842,161.123 85.843 C 90.417 85.843,83.576 85.894,82.765 86.426 L 81.876 87.008 81.876 175.369 L 81.876 263.730 82.621 264.778 L 83.367 265.825 190.115 265.825 L 296.862 265.825 297.214 264.900 C 297.437 264.311,297.566 240.588,297.567 199.706 C 297.568 129.875,297.482 133.093,299.343 133.093 C 299.533 133.093,299.979 132.601,300.334 132.000 C 300.690 131.398,301.557 130.652,302.262 130.341 C 302.968 130.030,303.811 129.311,304.136 128.744 C 304.461 128.178,305.307 127.472,306.015 127.176 C 306.728 126.878,307.495 126.215,307.735 125.689 C 307.973 125.166,308.779 124.427,309.527 124.046 C 310.275 123.664,311.061 123.026,311.274 122.628 C 311.488 122.229,312.204 121.540,312.867 121.096 C 314.382 120.080,318.194 116.959,320.174 115.113 C 321.004 114.339,322.140 113.593,322.699 113.454 C 323.258 113.315,324.040 112.913,324.436 112.561 C 325.657 111.477,326.285 111.442,327.193 112.409 L 328.043 113.313 328.146 196.512 C 328.251 281.981,328.250 282.068,326.895 283.193 C 326.611 283.429,326.139 284.194,325.847 284.893 C 324.952 287.036,323.631 288.448,321.586 289.449 C 320.510 289.975,319.348 290.717,319.004 291.098 C 317.713 292.524,318.831 292.512,189.720 292.505 C 56.257 292.498,61.269 292.566,59.333 290.725 C 58.738 290.159,57.655 289.451,56.927 289.153 C 56.199 288.854,55.414 288.230,55.183 287.767 C 54.952 287.304,54.210 286.438,53.534 285.843 C 52.569 284.993,52.227 284.334,51.939 282.773 C 51.212 278.822,51.640 69.649,52.378 68.299 C 53.841 65.628,57.773 62.144,60.059 61.495 C 61.246 61.158,62.621 60.627,63.112 60.315 C 63.604 60.004,64.497 59.631,65.096 59.488 C 67.935 58.807,263.905 59.123,264.754 59.810 M259.529 88.532 C 260.016 89.019,260.415 89.567,260.415 89.750 C 260.415 89.934,260.861 90.269,261.407 90.496 C 261.952 90.722,262.967 91.438,263.661 92.086 C 264.355 92.735,265.693 93.813,266.634 94.483 C 267.575 95.152,268.577 96.055,268.861 96.489 C 269.145 96.922,269.967 97.557,270.687 97.898 C 271.407 98.240,272.166 98.893,272.374 99.350 C 272.582 99.806,273.390 100.538,274.169 100.975 C 274.948 101.413,275.849 102.174,276.170 102.665 C 276.492 103.156,277.368 103.871,278.117 104.253 C 278.866 104.635,279.583 105.277,279.711 105.681 C 279.839 106.084,280.552 106.724,281.295 107.103 C 282.037 107.482,282.878 108.074,283.162 108.419 C 283.446 108.763,284.630 109.738,285.793 110.586 C 286.955 111.433,288.135 112.452,288.415 112.852 C 288.694 113.251,289.567 113.940,290.355 114.382 C 291.142 114.825,291.882 115.489,291.999 115.858 C 292.117 116.227,292.842 116.926,293.611 117.411 C 295.796 118.791,296.104 121.388,294.171 122.130 C 293.874 122.244,293.300 122.898,292.895 123.585 C 292.473 124.300,291.614 125.060,290.882 125.366 C 290.164 125.666,289.459 126.284,289.271 126.776 C 289.088 127.259,288.286 127.986,287.488 128.393 C 286.691 128.800,285.793 129.606,285.494 130.185 C 285.194 130.764,284.633 131.339,284.247 131.461 C 283.861 131.584,282.818 132.366,281.929 133.200 C 281.040 134.034,279.236 135.609,277.921 136.700 C 276.606 137.791,274.685 139.434,273.653 140.351 C 272.621 141.268,271.411 142.131,270.965 142.269 C 270.518 142.407,270.153 142.737,270.153 143.004 C 270.153 143.601,268.121 145.356,267.430 145.356 C 267.152 145.356,266.675 145.842,266.368 146.435 C 266.061 147.028,265.196 147.826,264.446 148.209 C 263.696 148.592,262.894 149.316,262.666 149.818 C 262.437 150.321,261.735 150.998,261.106 151.323 C 260.477 151.648,259.360 152.508,258.624 153.234 C 256.447 155.379,253.395 157.978,252.198 158.706 C 251.585 159.079,250.905 159.717,250.687 160.124 C 250.470 160.531,249.688 161.172,248.951 161.550 C 248.214 161.927,247.230 162.753,246.766 163.385 C 246.301 164.016,245.490 164.684,244.962 164.869 C 244.435 165.054,243.728 165.688,243.391 166.278 C 243.054 166.869,242.238 167.610,241.578 167.924 C 240.917 168.239,240.104 168.973,239.771 169.554 C 239.437 170.135,238.763 170.763,238.272 170.950 C 237.781 171.137,237.003 171.800,236.544 172.425 C 236.084 173.049,235.266 173.789,234.726 174.070 C 234.186 174.351,233.112 175.187,232.341 175.928 C 229.744 178.424,226.699 180.948,225.596 181.518 C 224.994 181.830,224.285 182.488,224.021 182.981 C 223.757 183.474,222.911 184.162,222.140 184.509 C 221.370 184.857,220.739 185.346,220.739 185.595 C 220.739 186.136,218.865 187.777,217.895 188.084 C 217.518 188.204,217.131 188.607,217.033 188.980 C 216.935 189.353,216.205 190.069,215.410 190.571 C 214.615 191.073,213.611 191.980,213.179 192.586 C 212.748 193.192,212.199 193.688,211.959 193.688 C 211.720 193.688,210.697 194.459,209.687 195.401 C 206.300 198.560,203.513 200.878,202.604 201.292 C 202.108 201.518,201.529 202.084,201.317 202.550 C 201.104 203.016,200.268 203.735,199.459 204.148 C 198.650 204.561,197.814 205.280,197.601 205.746 C 197.389 206.212,196.787 206.807,196.263 207.068 C 195.740 207.330,194.625 208.200,193.787 209.002 C 192.948 209.804,191.569 211.062,190.721 211.798 C 189.873 212.534,188.490 213.772,187.648 214.549 C 186.806 215.327,185.589 216.366,184.943 216.859 C 184.297 217.351,183.227 218.262,182.564 218.881 C 180.153 221.136,177.354 221.039,174.752 218.612 C 174.157 218.056,173.264 217.334,172.768 217.007 C 171.648 216.268,169.232 214.177,167.244 212.226 C 166.414 211.411,165.219 210.480,164.588 210.156 C 163.958 209.831,163.340 209.247,163.217 208.857 C 163.093 208.467,162.310 207.774,161.478 207.317 C 160.645 206.860,159.811 206.139,159.624 205.716 C 159.438 205.292,158.586 204.606,157.731 204.191 C 156.876 203.776,156.177 203.278,156.177 203.085 C 156.177 202.892,154.959 201.833,153.472 200.733 C 151.984 199.633,150.766 198.601,150.766 198.441 C 150.766 198.280,150.123 197.788,149.337 197.346 C 148.551 196.904,147.569 196.066,147.154 195.484 C 146.740 194.902,145.863 194.170,145.207 193.859 C 144.550 193.547,143.828 192.886,143.602 192.389 C 143.376 191.893,142.611 191.244,141.903 190.949 C 141.195 190.653,140.345 189.939,140.014 189.363 C 139.684 188.787,139.055 188.152,138.617 187.952 C 137.330 187.366,136.586 185.931,136.847 184.540 C 137.100 183.194,140.879 179.261,141.920 179.261 C 142.241 179.261,142.781 178.770,143.119 178.171 C 143.457 177.571,144.357 176.803,145.120 176.463 C 145.883 176.123,146.739 175.397,147.022 174.849 C 147.306 174.301,148.089 173.622,148.763 173.341 C 149.437 173.059,150.269 172.401,150.612 171.878 C 150.954 171.356,151.723 170.675,152.319 170.367 C 152.916 170.058,154.163 169.096,155.089 168.230 C 156.016 167.363,157.302 166.432,157.947 166.161 C 158.592 165.890,159.311 165.277,159.545 164.800 C 159.778 164.322,160.563 163.641,161.288 163.286 C 162.013 162.931,163.034 162.078,163.557 161.392 C 164.081 160.706,164.726 160.144,164.992 160.144 C 165.257 160.144,166.197 159.454,167.082 158.611 C 169.267 156.528,172.952 153.590,174.206 152.931 C 174.772 152.633,175.600 151.924,176.046 151.354 C 176.492 150.784,177.386 150.097,178.033 149.827 C 178.679 149.557,179.313 149.006,179.441 148.602 C 179.569 148.199,180.309 147.545,181.085 147.149 C 181.861 146.753,182.766 146.017,183.096 145.513 C 183.426 145.010,184.168 144.354,184.744 144.056 C 185.320 143.758,186.467 142.859,187.291 142.059 C 188.115 141.259,189.365 140.310,190.067 139.951 C 190.769 139.591,191.703 138.808,192.142 138.211 C 192.581 137.614,193.474 136.948,194.126 136.731 C 194.809 136.504,195.572 135.878,195.927 135.253 C 196.266 134.656,196.993 133.997,197.543 133.789 C 198.092 133.580,199.113 132.842,199.812 132.150 C 201.571 130.406,204.443 127.978,205.951 126.960 C 206.646 126.492,207.900 125.489,208.739 124.732 C 209.577 123.974,210.501 123.354,210.792 123.354 C 211.083 123.354,211.607 122.869,211.957 122.277 C 212.308 121.684,213.269 120.882,214.094 120.494 C 214.920 120.106,215.679 119.467,215.782 119.075 C 215.884 118.683,216.630 118.024,217.440 117.611 C 218.250 117.198,219.087 116.533,219.300 116.134 C 219.514 115.735,220.371 114.983,221.206 114.463 C 222.040 113.942,223.366 112.888,224.151 112.120 C 224.936 111.351,226.081 110.541,226.696 110.319 C 227.311 110.096,228.077 109.456,228.399 108.895 C 228.721 108.335,229.530 107.648,230.198 107.369 C 230.866 107.090,231.691 106.437,232.031 105.918 C 232.371 105.399,233.155 104.713,233.773 104.393 C 234.392 104.073,235.517 103.218,236.274 102.492 C 238.546 100.314,241.031 98.261,242.561 97.297 C 243.354 96.798,244.409 95.950,244.905 95.413 C 245.401 94.876,246.319 94.222,246.945 93.960 C 247.570 93.698,248.191 93.141,248.323 92.723 C 248.456 92.305,249.188 91.644,249.951 91.255 C 250.713 90.867,251.685 90.060,252.110 89.463 C 253.496 87.516,257.954 86.956,259.529 88.532 M127.565 194.522 C 128.126 194.981,129.367 195.648,130.323 196.005 C 131.362 196.392,132.210 196.977,132.430 197.459 C 132.632 197.902,133.515 198.614,134.394 199.040 C 135.272 199.467,136.696 200.466,137.558 201.261 C 138.420 202.055,139.316 202.705,139.549 202.705 C 139.782 202.705,140.683 203.436,141.550 204.328 C 142.418 205.221,143.371 205.951,143.669 205.951 C 143.966 205.951,144.642 206.464,145.169 207.091 C 145.697 207.718,146.756 208.542,147.524 208.921 C 148.291 209.301,149.514 210.173,150.242 210.860 C 150.970 211.546,152.186 212.424,152.943 212.811 C 153.701 213.197,154.429 213.853,154.560 214.268 C 154.698 214.702,155.475 215.312,156.392 215.705 C 157.328 216.106,158.155 216.760,158.396 217.291 C 158.627 217.797,159.316 218.362,159.965 218.576 C 160.601 218.785,161.823 219.561,162.680 220.299 C 163.538 221.037,164.982 222.130,165.889 222.727 C 170.371 225.676,165.937 229.143,156.235 230.276 C 153.153 230.636,151.331 231.037,150.287 231.585 C 148.126 232.719,147.167 232.946,141.954 233.559 C 138.627 233.950,136.950 234.317,136.106 234.839 C 134.413 235.885,133.146 236.187,127.863 236.806 C 124.341 237.218,122.749 237.576,121.467 238.245 C 116.559 240.803,113.158 237.610,115.617 232.752 C 116.603 230.804,117.102 228.708,117.404 225.248 C 117.665 222.251,118.417 219.399,119.376 217.771 C 119.854 216.959,120.245 215.072,120.630 211.722 C 121.090 207.727,121.385 206.464,122.275 204.689 C 122.978 203.285,123.479 201.567,123.700 199.800 C 124.365 194.476,125.543 192.868,127.565 194.522 " stroke="none" fill="#fbfbfb" fill-rule="evenodd"></path><path id="path2" d="M302.529 50.030 C 302.978 50.116,303.627 50.113,303.972 50.022 C 304.317 49.932,303.950 49.862,303.156 49.866 C 302.362 49.870,302.080 49.943,302.529 50.030 M308.115 50.023 C 308.463 50.114,309.031 50.114,309.378 50.023 C 309.725 49.932,309.441 49.858,308.747 49.858 C 308.052 49.858,307.768 49.932,308.115 50.023 M299.008 50.894 C 297.761 51.613,297.983 51.575,300.451 50.643 C 301.237 50.347,301.441 50.167,300.992 50.166 C 300.595 50.166,299.702 50.493,299.008 50.894 M294.950 52.506 C 293.552 53.264,293.710 53.526,295.131 52.804 C 296.490 52.112,296.731 51.933,296.273 51.953 C 296.091 51.961,295.496 52.210,294.950 52.506 M291.794 55.005 C 290.918 55.897,290.283 56.628,290.382 56.628 C 290.481 56.628,291.279 55.897,292.155 55.005 C 293.031 54.112,293.667 53.381,293.568 53.381 C 293.468 53.381,292.671 54.112,291.794 55.005 M321.551 56.988 C 322.326 57.782,323.041 58.431,323.140 58.431 C 323.239 58.431,322.686 57.782,321.912 56.988 C 321.137 56.195,320.422 55.546,320.322 55.546 C 320.223 55.546,320.776 56.195,321.551 56.988 M287.106 59.549 L 285.122 61.380 287.196 59.681 C 289.016 58.191,289.511 57.699,289.179 57.714 C 289.130 57.716,288.197 58.542,287.106 59.549 M325.879 60.549 C 326.474 61.206,327.448 62.079,328.043 62.490 C 329.322 63.372,329.033 63.060,326.601 60.932 C 325.268 59.766,325.080 59.666,325.879 60.549 M163.571 61.315 C 217.529 61.415,261.862 61.617,262.088 61.764 C 262.979 62.343,263.008 63.900,262.147 64.880 L 261.317 65.825 262.336 64.925 C 263.398 63.987,263.478 62.580,262.533 61.441 C 262.197 61.036,245.820 60.971,163.797 61.045 L 65.464 61.134 163.571 61.315 M56.095 65.716 C 54.773 67.144,53.527 68.646,53.327 69.053 C 53.126 69.460,53.417 69.225,53.973 68.530 C 54.529 67.836,55.866 66.335,56.943 65.194 C 58.020 64.053,58.811 63.120,58.700 63.120 C 58.589 63.120,57.417 64.288,56.095 65.716 M330.388 64.334 C 331.082 65.088,331.975 65.875,332.372 66.084 C 332.768 66.293,333.012 66.388,332.913 66.296 C 330.606 64.151,329.241 63.091,330.388 64.334 M279.328 66.817 L 278.269 67.989 279.441 66.930 C 280.086 66.347,280.613 65.820,280.613 65.758 C 280.613 65.479,280.316 65.724,279.328 66.817 M52.477 176.375 C 52.477 233.805,52.519 257.299,52.570 228.584 C 52.621 199.869,52.621 152.881,52.570 124.166 C 52.519 95.451,52.477 118.945,52.477 176.375 M251.922 73.670 L 250.496 75.203 252.029 73.777 C 253.454 72.451,253.728 72.137,253.455 72.137 C 253.396 72.137,252.706 72.827,251.922 73.670 M338.916 76.465 C 339.202 78.021,339.407 78.314,339.399 77.157 C 339.396 76.677,339.234 76.041,339.039 75.744 C 338.790 75.363,338.753 75.577,338.916 76.465 M245.974 78.655 L 244.725 79.764 246.078 78.793 C 247.273 77.935,247.662 77.547,247.326 77.547 C 247.269 77.547,246.661 78.046,245.974 78.655 M339.344 79.531 C 339.218 80.325,339.016 81.298,338.894 81.695 C 338.772 82.092,338.928 81.869,339.239 81.199 C 339.550 80.529,339.753 79.555,339.689 79.035 C 339.596 78.272,339.529 78.368,339.344 79.531 M243.082 81.064 L 241.839 82.417 243.192 81.174 C 244.451 80.017,244.710 79.711,244.435 79.711 C 244.375 79.711,243.766 80.320,243.082 81.064 M240.327 83.164 L 239.315 84.092 240.487 83.277 C 241.132 82.828,241.659 82.411,241.659 82.349 C 241.659 82.064,241.260 82.308,240.327 83.164 M238.623 84.310 C 238.475 84.459,203.430 84.663,160.745 84.763 L 83.138 84.945 160.526 85.033 C 228.106 85.111,238.003 85.055,238.615 84.592 C 239.000 84.301,239.220 84.057,239.104 84.051 C 238.989 84.045,238.772 84.161,238.623 84.310 M81.182 86.056 L 80.072 86.989 80.072 175.547 L 80.072 264.104 80.880 265.541 C 81.324 266.331,82.127 267.205,82.665 267.484 C 84.396 268.378,296.518 268.226,297.329 267.330 C 297.657 266.967,297.926 266.525,297.926 266.348 C 297.926 266.170,297.673 266.386,297.365 266.827 L 296.803 267.628 190.013 267.628 L 83.223 267.628 82.023 266.356 C 80.304 264.533,80.400 270.379,80.511 174.766 L 80.613 86.774 81.839 85.948 C 82.513 85.493,82.890 85.122,82.678 85.122 C 82.465 85.122,81.792 85.542,81.182 86.056 M275.744 86.564 C 276.519 87.358,277.234 88.007,277.333 88.007 C 277.432 88.007,276.879 87.358,276.105 86.564 C 275.330 85.771,274.615 85.122,274.515 85.122 C 274.416 85.122,274.969 85.771,275.744 86.564 M334.466 89.296 L 333.454 90.224 334.626 89.408 C 335.271 88.960,335.798 88.542,335.798 88.480 C 335.798 88.196,335.399 88.440,334.466 89.296 M280.394 90.325 C 281.364 91.248,282.500 92.169,282.919 92.370 C 283.337 92.571,283.192 92.362,282.597 91.905 C 282.002 91.448,280.866 90.528,280.072 89.860 C 279.122 89.060,279.232 89.219,280.394 90.325 M259.512 90.475 C 259.905 90.940,260.553 91.487,260.952 91.692 C 261.718 92.084,261.606 91.963,259.876 90.527 C 258.835 89.662,258.822 89.660,259.512 90.475 M331.077 91.887 C 329.824 92.731,326.955 95.221,327.235 95.221 C 327.358 95.221,328.164 94.612,329.026 93.868 C 329.889 93.124,330.994 92.240,331.483 91.903 C 331.972 91.567,332.290 91.284,332.191 91.275 C 332.092 91.266,331.591 91.541,331.077 91.887 M249.036 93.508 L 247.610 95.041 249.143 93.615 C 250.569 92.289,250.842 91.975,250.569 91.975 C 250.510 91.975,249.820 92.665,249.036 93.508 M263.661 93.909 C 263.661 94.009,264.148 94.436,264.743 94.860 C 265.338 95.284,265.825 95.550,265.825 95.450 C 265.825 95.351,265.338 94.923,264.743 94.500 C 264.148 94.076,263.661 93.810,263.661 93.909 M286.023 94.926 C 289.537 98.115,290.154 98.604,288.729 97.074 C 287.935 96.222,286.961 95.353,286.564 95.144 C 286.168 94.934,285.924 94.836,286.023 94.926 M267.268 96.844 C 267.941 97.538,268.573 98.106,268.672 98.106 C 268.771 98.106,268.301 97.538,267.628 96.844 C 266.956 96.150,266.324 95.582,266.225 95.582 C 266.125 95.582,266.595 96.150,267.268 96.844 M324.597 96.934 L 323.354 98.287 324.707 97.044 C 325.966 95.887,326.225 95.582,325.950 95.582 C 325.890 95.582,325.281 96.190,324.597 96.934 M241.719 99.459 L 240.365 100.812 241.643 99.730 C 242.346 99.136,243.076 98.527,243.264 98.378 C 243.453 98.229,243.487 98.106,243.340 98.106 C 243.194 98.106,242.464 98.715,241.719 99.459 M271.416 100.271 C 272.191 101.064,272.906 101.713,273.005 101.713 C 273.104 101.713,272.551 101.064,271.776 100.271 C 271.002 99.477,270.286 98.828,270.187 98.828 C 270.088 98.828,270.641 99.477,271.416 100.271 M317.513 102.281 L 316.501 103.209 317.674 102.393 C 318.318 101.945,318.846 101.527,318.846 101.465 C 318.846 101.180,318.447 101.425,317.513 102.281 M236.229 103.787 L 234.986 105.140 236.339 103.897 C 237.598 102.740,237.857 102.435,237.582 102.435 C 237.522 102.435,236.913 103.043,236.229 103.787 M278.629 106.402 C 279.404 107.196,280.119 107.845,280.219 107.845 C 280.318 107.845,279.765 107.196,278.990 106.402 C 278.215 105.609,277.500 104.959,277.401 104.959 C 277.302 104.959,277.855 105.609,278.629 106.402 M299.729 106.583 C 300.402 107.277,301.034 107.845,301.133 107.845 C 301.233 107.845,300.763 107.277,300.090 106.583 C 299.417 105.888,298.785 105.320,298.686 105.320 C 298.587 105.320,299.057 105.888,299.729 106.583 M282.417 109.648 C 282.840 110.243,283.268 110.730,283.367 110.730 C 283.467 110.730,283.201 110.243,282.777 109.648 C 282.354 109.053,281.926 108.566,281.826 108.566 C 281.727 108.566,281.993 109.053,282.417 109.648 M307.822 109.739 L 306.763 110.911 307.935 109.851 C 308.580 109.269,309.107 108.741,309.107 108.679 C 309.107 108.400,308.810 108.646,307.822 109.739 M283.859 110.830 C 283.859 110.899,284.387 111.342,285.032 111.814 C 285.757 112.345,286.009 112.432,285.692 112.042 C 285.212 111.451,283.859 110.556,283.859 110.830 M225.408 112.634 C 224.702 113.273,223.647 114.169,223.063 114.624 C 222.480 115.079,222.732 114.974,223.625 114.391 C 225.040 113.468,227.274 111.434,226.844 111.462 C 226.760 111.467,226.113 111.994,225.408 112.634 M286.384 112.647 C 286.384 112.709,286.912 113.236,287.556 113.819 L 288.729 114.878 287.669 113.706 C 286.682 112.613,286.384 112.368,286.384 112.647 M325.804 113.655 C 325.568 113.891,324.758 114.204,324.004 114.350 C 322.665 114.609,322.677 114.616,324.527 114.656 C 326.229 114.694,326.423 114.780,326.449 115.509 C 326.464 115.956,326.554 116.133,326.648 115.903 C 326.984 115.083,326.272 113.187,325.804 113.655 M320.813 116.231 L 319.387 117.764 320.920 116.338 C 322.345 115.012,322.618 114.698,322.346 114.698 C 322.287 114.698,321.597 115.388,320.813 116.231 M220.018 116.929 C 219.125 117.742,218.720 118.237,219.116 118.027 C 219.795 117.668,222.139 115.402,221.799 115.434 C 221.712 115.442,220.911 116.115,220.018 116.929 M292.155 117.715 C 292.155 117.814,292.642 118.242,293.237 118.665 C 293.832 119.089,294.319 119.355,294.319 119.256 C 294.319 119.156,293.832 118.729,293.237 118.305 C 292.642 117.881,292.155 117.615,292.155 117.715 M316.662 119.657 L 315.419 121.010 316.772 119.767 C 318.031 118.610,318.290 118.305,318.015 118.305 C 317.955 118.305,317.346 118.913,316.662 119.657 M292.914 121.383 C 292.298 122.084,291.794 122.766,291.794 122.898 C 291.794 123.030,291.917 122.984,292.068 122.795 C 292.218 122.607,292.816 121.925,293.398 121.280 C 293.979 120.636,294.359 120.108,294.244 120.108 C 294.128 120.108,293.530 120.682,292.914 121.383 M313.157 122.543 L 311.385 124.256 313.041 122.848 C 315.364 120.873,315.410 120.830,315.156 120.830 C 315.031 120.830,314.131 121.601,313.157 122.543 M212.607 123.084 L 211.181 124.617 212.714 123.191 C 214.140 121.865,214.413 121.551,214.140 121.551 C 214.081 121.551,213.391 122.241,212.607 123.084 M307.845 126.852 C 306.853 127.767,306.366 128.342,306.763 128.129 C 307.450 127.760,310.147 125.142,309.809 125.172 C 309.721 125.180,308.837 125.936,307.845 126.852 M284.744 129.216 L 283.318 130.748 284.851 129.323 C 286.277 127.997,286.550 127.683,286.277 127.683 C 286.218 127.683,285.528 128.372,284.744 129.216 M276.434 136.187 L 274.301 138.199 276.555 136.287 C 277.795 135.236,278.810 134.330,278.810 134.275 C 278.810 134.002,278.398 134.333,276.434 136.187 M298.463 200.361 C 298.463 235.870,298.506 250.343,298.557 232.523 C 298.609 214.703,298.609 185.650,298.557 167.961 C 298.505 150.271,298.463 164.851,298.463 200.361 M192.947 139.134 L 191.704 140.487 193.057 139.244 C 194.316 138.087,194.575 137.782,194.300 137.782 C 194.240 137.782,193.631 138.390,192.947 139.134 M190.191 141.235 L 189.179 142.163 190.352 141.347 C 190.996 140.899,191.524 140.481,191.524 140.419 C 191.524 140.134,191.125 140.379,190.191 141.235 M187.417 143.300 C 186.646 143.935,185.266 145.164,184.351 146.032 L 182.687 147.610 184.607 146.032 C 187.329 143.796,189.210 142.128,188.999 142.138 C 188.900 142.143,188.188 142.666,187.417 143.300 M180.145 149.414 L 178.720 150.947 180.252 149.521 C 181.678 148.195,181.951 147.881,181.678 147.881 C 181.619 147.881,180.930 148.571,180.145 149.414 M258.416 151.767 C 257.614 152.506,256.316 153.648,255.531 154.305 C 254.745 154.961,255.077 154.776,256.267 153.894 C 258.192 152.466,260.436 150.391,260.027 150.415 C 259.943 150.420,259.218 151.028,258.416 151.767 M172.388 155.726 L 171.145 157.078 172.498 155.835 C 173.242 155.152,173.850 154.543,173.850 154.483 C 173.850 154.207,173.545 154.467,172.388 155.726 M251.758 157.390 C 250.667 158.255,249.369 159.429,248.873 159.999 C 248.377 160.569,248.784 160.307,249.777 159.417 C 250.771 158.528,252.150 157.361,252.843 156.825 C 253.536 156.289,254.022 155.842,253.922 155.833 C 253.823 155.824,252.849 156.524,251.758 157.390 M242.346 165.555 C 241.354 166.546,240.639 167.358,240.757 167.358 C 240.876 167.358,241.784 166.546,242.776 165.555 C 243.767 164.563,244.482 163.751,244.364 163.751 C 244.246 163.751,243.338 164.563,242.346 165.555 M159.423 166.330 C 158.729 166.939,158.487 167.272,158.886 167.070 C 159.545 166.737,161.178 165.174,160.831 165.209 C 160.751 165.217,160.117 165.721,159.423 166.330 M156.518 168.711 L 155.275 170.063 156.628 168.820 C 157.372 168.136,157.980 167.528,157.980 167.468 C 157.980 167.192,157.675 167.452,156.518 168.711 M235.330 171.776 L 233.904 173.309 235.437 171.884 C 236.863 170.558,237.136 170.243,236.863 170.243 C 236.804 170.243,236.114 170.933,235.330 171.776 M151.127 172.835 C 150.234 173.649,149.829 174.143,150.225 173.933 C 150.904 173.574,153.248 171.308,152.908 171.340 C 152.821 171.348,152.020 172.021,151.127 172.835 M231.642 174.842 L 229.870 176.555 231.526 175.147 C 233.849 173.173,233.895 173.129,233.641 173.129 C 233.516 173.129,232.616 173.900,231.642 174.842 M147.622 175.573 C 146.785 176.312,145.567 177.380,144.917 177.946 L 143.733 178.976 144.936 178.126 C 146.287 177.172,149.602 174.227,149.324 174.228 C 149.225 174.229,148.459 174.834,147.622 175.573 M226.826 178.770 C 224.036 181.238,224.023 181.250,224.743 180.847 C 225.480 180.434,229.609 176.736,229.333 176.736 C 229.219 176.736,228.091 177.651,226.826 178.770 M218.395 186.339 C 217.746 186.891,217.614 187.110,218.064 186.887 C 218.725 186.558,219.965 185.371,219.611 185.405 C 219.537 185.412,218.990 185.833,218.395 186.339 M212.246 191.614 L 210.821 193.147 212.353 191.721 C 213.779 190.395,214.052 190.081,213.779 190.081 C 213.720 190.081,213.031 190.771,212.246 191.614 M148.242 194.950 C 148.915 195.645,149.546 196.213,149.646 196.213 C 149.745 196.213,149.275 195.645,148.602 194.950 C 147.929 194.256,147.298 193.688,147.198 193.688 C 147.099 193.688,147.569 194.256,148.242 194.950 M207.033 195.926 C 205.942 196.940,205.537 197.434,206.132 197.024 C 207.159 196.317,209.510 194.030,209.175 194.065 C 209.088 194.074,208.124 194.911,207.033 195.926 M125.951 195.950 C 125.674 196.287,125.946 196.404,127.085 196.439 C 127.910 196.464,128.341 196.401,128.043 196.300 C 127.746 196.198,127.235 195.978,126.909 195.811 C 126.536 195.620,126.180 195.671,125.951 195.950 M151.820 197.878 C 152.895 198.847,154.112 199.864,154.525 200.138 C 154.937 200.412,154.395 199.844,153.320 198.876 C 152.245 197.907,151.028 196.890,150.615 196.616 C 150.202 196.342,150.744 196.910,151.820 197.878 M131.289 198.197 C 131.962 198.891,132.594 199.459,132.693 199.459 C 132.793 199.459,132.323 198.891,131.650 198.197 C 130.977 197.502,130.345 196.934,130.246 196.934 C 130.147 196.934,130.616 197.502,131.289 198.197 M200.796 201.353 L 198.853 203.246 200.689 201.654 C 201.699 200.778,202.679 199.925,202.867 199.760 C 203.056 199.594,203.104 199.459,202.974 199.459 C 202.845 199.459,201.865 200.311,200.796 201.353 M134.896 200.654 C 134.896 200.716,135.424 201.243,136.069 201.826 L 137.241 202.885 136.181 201.713 C 135.194 200.621,134.896 200.375,134.896 200.654 M156.537 201.755 C 157.232 202.509,158.124 203.296,158.521 203.505 C 158.918 203.714,159.161 203.809,159.062 203.717 C 156.755 201.572,155.391 200.512,156.537 201.755 M122.883 206.922 C 122.543 207.839,122.324 208.648,122.397 208.721 C 122.469 208.794,122.813 208.109,123.160 207.200 C 123.507 206.291,123.726 205.481,123.646 205.401 C 123.566 205.321,123.222 206.006,122.883 206.922 M163.931 208.115 C 164.706 208.909,165.421 209.558,165.521 209.558 C 165.620 209.558,165.067 208.909,164.292 208.115 C 163.517 207.322,162.802 206.673,162.703 206.673 C 162.604 206.673,163.157 207.322,163.931 208.115 M192.065 209.062 C 191.416 209.614,191.284 209.833,191.734 209.610 C 192.395 209.282,193.635 208.094,193.281 208.128 C 193.207 208.136,192.660 208.556,192.065 209.062 M147.701 210.610 C 148.402 211.416,150.406 212.983,150.406 212.725 C 150.406 212.654,149.635 211.963,148.693 211.188 C 147.750 210.414,147.304 210.154,147.701 210.610 M186.111 213.986 C 185.415 214.626,184.198 215.690,183.406 216.352 C 182.405 217.189,182.312 217.326,183.102 216.804 C 184.309 216.006,187.861 212.836,187.556 212.828 C 187.457 212.826,186.807 213.347,186.111 213.986 M153.458 214.901 C 154.046 215.544,155.101 216.391,155.803 216.785 C 156.742 217.311,156.856 217.332,156.235 216.865 C 155.772 216.516,154.717 215.669,153.891 214.982 L 152.390 213.732 153.458 214.901 M171.686 214.360 C 171.686 214.422,172.214 214.950,172.858 215.532 L 174.031 216.592 172.971 215.419 C 171.984 214.327,171.686 214.081,171.686 214.360 M175.293 217.245 C 175.293 217.307,175.821 217.835,176.465 218.418 L 177.638 219.477 176.578 218.305 C 175.591 217.212,175.293 216.967,175.293 217.245 M160.505 220.131 C 160.505 220.193,161.032 220.720,161.677 221.303 L 162.849 222.362 161.790 221.190 C 160.803 220.098,160.505 219.852,160.505 220.131 M119.252 221.814 C 118.929 222.620,118.673 223.478,118.682 223.722 C 118.692 223.966,119.012 223.364,119.395 222.384 C 119.778 221.404,120.034 220.545,119.964 220.475 C 119.895 220.406,119.574 221.008,119.252 221.814 M165.523 225.398 C 165.208 225.712,164.640 226.175,164.261 226.425 C 163.881 226.676,164.088 226.637,164.720 226.338 C 165.352 226.039,165.977 225.620,166.109 225.407 C 166.494 224.784,166.144 224.778,165.523 225.398 M160.685 227.979 C 159.892 228.361,159.648 228.572,160.144 228.448 C 161.166 228.194,163.040 227.254,162.489 227.273 C 162.290 227.280,161.479 227.597,160.685 227.979 M146.979 231.012 C 144.128 232.142,144.870 232.158,147.881 231.032 C 149.170 230.549,149.982 230.155,149.684 230.155 C 149.387 230.155,148.170 230.540,146.979 231.012 M116.515 234.732 C 116.494 235.991,118.043 237.338,119.461 237.294 L 120.649 237.257 119.536 236.991 C 117.964 236.615,117.579 236.316,117.021 235.033 C 116.591 234.046,116.528 234.008,116.515 234.732 M131.830 234.639 C 131.235 234.911,130.992 235.136,131.289 235.138 C 131.587 235.140,132.236 234.909,132.732 234.626 C 133.873 233.974,133.263 233.983,131.830 234.639 M326.478 278.918 C 326.446 279.672,326.165 280.782,325.853 281.386 C 325.540 281.990,325.353 282.551,325.435 282.634 C 325.811 283.010,326.821 279.897,326.686 278.780 L 326.536 277.547 326.478 278.918 M53.021 283.368 C 53.021 283.560,53.629 284.277,54.373 284.961 L 55.726 286.204 54.463 284.765 C 53.769 283.974,53.161 283.257,53.111 283.172 C 53.061 283.087,53.021 283.175,53.021 283.368 M322.272 287.347 C 321.479 288.058,321.154 288.472,321.551 288.267 C 322.219 287.920,324.212 286.005,323.868 286.038 C 323.784 286.047,323.066 286.636,322.272 287.347 M59.152 289.074 C 59.152 289.321,62.409 291.182,62.566 291.026 C 62.640 290.951,61.903 290.445,60.927 289.900 C 59.951 289.355,59.152 288.983,59.152 289.074 M127.773 291.704 C 161.844 291.755,217.597 291.755,251.668 291.704 C 285.739 291.654,257.863 291.612,189.720 291.612 C 121.578 291.612,93.702 291.654,127.773 291.704 " stroke="none" fill="#acacac" fill-rule="evenodd"></path><path id="path3" d="M299.829 49.043 C 299.189 49.195,298.215 49.618,297.665 49.983 C 297.114 50.347,295.583 51.167,294.263 51.803 C 292.943 52.439,291.766 53.258,291.649 53.622 C 291.531 53.985,290.859 54.674,290.155 55.153 C 289.451 55.631,288.546 56.485,288.142 57.052 C 287.739 57.618,286.938 58.325,286.362 58.623 C 285.786 58.921,285.074 59.629,284.780 60.197 C 284.487 60.765,283.671 61.569,282.968 61.984 C 282.265 62.399,281.507 63.138,281.285 63.626 C 281.062 64.114,280.420 64.704,279.858 64.937 C 279.296 65.170,278.509 65.914,278.110 66.590 C 277.711 67.267,276.971 67.977,276.465 68.170 C 275.960 68.362,275.219 69.072,274.820 69.749 C 274.421 70.425,273.606 71.181,273.009 71.428 C 272.411 71.676,271.684 72.339,271.393 72.903 C 271.101 73.467,270.388 74.174,269.808 74.473 C 266.558 76.154,266.720 81.536,270.063 82.920 C 270.656 83.166,271.314 83.745,271.525 84.208 C 271.735 84.670,272.566 85.418,273.371 85.870 C 274.176 86.323,274.925 86.978,275.035 87.325 C 275.146 87.673,275.956 88.380,276.836 88.896 C 277.716 89.411,278.591 90.124,278.782 90.479 C 278.972 90.835,279.827 91.595,280.682 92.169 C 281.537 92.743,282.979 93.888,283.887 94.713 C 284.795 95.539,285.866 96.319,286.267 96.446 C 286.668 96.573,287.176 97.072,287.396 97.555 C 287.616 98.038,288.330 98.706,288.983 99.040 C 289.637 99.374,290.821 100.275,291.614 101.042 C 294.952 104.269,295.648 104.871,296.934 105.646 C 297.678 106.094,298.287 106.589,298.287 106.746 C 298.287 107.377,303.597 111.240,305.074 111.685 C 306.863 112.223,307.540 112.002,308.730 110.490 C 309.148 109.958,310.126 109.238,310.902 108.891 C 311.679 108.543,312.526 107.908,312.785 107.480 C 313.044 107.052,314.004 106.318,314.920 105.849 C 315.835 105.380,317.268 104.339,318.105 103.535 C 318.942 102.732,319.844 102.074,320.111 102.074 C 320.378 102.074,321.055 101.523,321.615 100.849 C 322.175 100.175,323.241 99.372,323.985 99.064 C 324.733 98.755,325.522 98.098,325.751 97.595 C 325.990 97.071,326.674 96.517,327.363 96.290 C 328.021 96.072,329.336 95.199,330.285 94.348 C 331.234 93.497,332.537 92.531,333.180 92.200 C 333.823 91.870,334.607 91.205,334.922 90.723 C 335.238 90.241,336.033 89.531,336.688 89.144 C 337.567 88.625,338.038 87.963,338.484 86.621 C 338.817 85.621,339.394 84.413,339.768 83.938 C 341.492 81.747,341.594 77.065,339.984 74.042 C 339.478 73.094,338.745 71.546,338.353 70.604 C 337.877 69.456,337.237 68.652,336.416 68.167 C 335.742 67.770,335.014 67.056,334.797 66.581 C 334.581 66.107,333.746 65.348,332.941 64.896 C 332.136 64.444,331.391 63.800,331.284 63.465 C 331.178 63.130,330.284 62.354,329.297 61.740 C 328.310 61.127,327.502 60.470,327.502 60.280 C 327.502 60.090,326.650 59.319,325.609 58.565 C 324.567 57.812,323.107 56.581,322.363 55.830 C 321.619 55.078,320.786 54.463,320.512 54.463 C 320.238 54.463,319.591 53.909,319.074 53.232 C 318.451 52.414,317.540 51.803,316.368 51.413 C 315.397 51.091,314.324 50.519,313.983 50.143 C 312.818 48.855,303.625 48.141,299.829 49.043 M313.281 51.247 C 316.096 52.298,317.584 53.077,318.485 53.971 C 319.766 55.243,321.672 56.878,326.418 60.775 C 327.867 61.966,330.896 64.561,333.150 66.543 L 337.247 70.147 338.291 73.396 C 339.989 78.684,339.998 79.095,338.504 83.629 C 337.063 88.001,337.554 87.411,331.833 91.639 C 330.874 92.347,329.502 93.443,328.784 94.074 C 328.065 94.705,327.317 95.221,327.121 95.221 C 326.925 95.221,326.079 95.845,325.240 96.608 C 324.401 97.371,323.411 98.160,323.040 98.360 C 322.669 98.561,321.776 99.245,321.056 99.881 C 320.337 100.516,318.287 102.071,316.501 103.336 C 313.314 105.594,311.743 106.802,308.265 109.669 L 306.521 111.106 304.373 109.926 C 303.192 109.278,301.217 107.893,299.985 106.849 C 298.754 105.805,296.800 104.182,295.644 103.242 C 294.489 102.302,292.833 100.884,291.965 100.090 C 291.097 99.297,289.383 97.836,288.157 96.844 C 286.930 95.852,285.421 94.545,284.803 93.940 C 284.185 93.335,283.237 92.563,282.697 92.225 C 282.157 91.887,280.909 90.922,279.924 90.080 C 278.939 89.237,277.141 87.737,275.929 86.745 C 274.717 85.753,273.027 84.292,272.172 83.499 C 271.318 82.705,270.190 81.764,269.665 81.408 C 268.265 80.457,268.254 77.153,269.648 75.987 C 270.163 75.556,272.018 73.823,273.769 72.137 C 275.520 70.451,278.548 67.566,280.496 65.726 C 282.445 63.886,285.906 60.586,288.188 58.392 C 293.493 53.291,293.983 52.920,297.217 51.562 C 302.990 49.137,307.401 49.051,313.281 51.247 M65.096 59.488 C 64.497 59.631,63.604 60.004,63.112 60.315 C 62.621 60.627,61.246 61.158,60.059 61.495 C 57.773 62.144,53.841 65.628,52.378 68.299 C 51.640 69.649,51.212 278.822,51.939 282.773 C 52.227 284.334,52.569 284.993,53.534 285.843 C 54.210 286.438,54.952 287.304,55.183 287.767 C 55.414 288.230,56.199 288.854,56.927 289.153 C 57.655 289.451,58.738 290.159,59.333 290.725 C 61.269 292.566,56.257 292.498,189.720 292.505 C 318.831 292.512,317.713 292.524,319.004 291.098 C 319.348 290.717,320.510 289.975,321.586 289.449 C 323.631 288.448,324.952 287.036,325.847 284.893 C 326.139 284.194,326.611 283.429,326.895 283.193 C 328.250 282.068,328.251 281.981,328.146 196.512 L 328.043 113.313 327.193 112.409 C 326.285 111.442,325.657 111.477,324.436 112.561 C 324.040 112.913,323.258 113.315,322.699 113.454 C 322.140 113.593,321.004 114.339,320.174 115.113 C 318.194 116.959,314.382 120.080,312.867 121.096 C 312.204 121.540,311.488 122.229,311.274 122.628 C 311.061 123.026,310.275 123.664,309.527 124.046 C 308.779 124.427,307.973 125.166,307.735 125.689 C 307.495 126.215,306.728 126.878,306.015 127.176 C 305.307 127.472,304.461 128.178,304.136 128.744 C 303.811 129.311,302.968 130.030,302.262 130.341 C 301.557 130.652,300.690 131.398,300.334 132.000 C 299.979 132.601,299.533 133.093,299.343 133.093 C 297.482 133.093,297.568 129.875,297.567 199.706 C 297.566 240.588,297.437 264.311,297.214 264.900 L 296.862 265.825 190.115 265.825 L 83.367 265.825 82.621 264.778 L 81.876 263.730 81.876 175.369 L 81.876 87.008 82.765 86.426 C 83.576 85.894,90.417 85.843,161.123 85.843 C 234.205 85.842,238.658 85.806,239.727 85.211 C 241.885 84.011,245.417 81.134,249.198 77.497 C 250.154 76.577,251.286 75.714,251.712 75.578 C 252.139 75.443,252.733 74.857,253.033 74.277 C 253.333 73.696,254.132 72.990,254.809 72.708 C 255.502 72.418,256.289 71.709,256.613 71.083 C 256.929 70.473,257.414 69.973,257.691 69.973 C 258.376 69.973,260.415 68.220,260.415 67.632 C 260.415 67.371,260.903 66.988,261.499 66.780 C 264.407 65.766,266.521 61.241,264.754 59.810 C 263.905 59.123,67.935 58.807,65.096 59.488 M262.533 61.441 C 263.558 62.677,263.416 64.044,262.161 65.014 C 261.498 65.526,260.307 66.525,259.513 67.232 C 256.576 69.851,254.407 71.752,252.299 73.556 C 251.109 74.574,249.405 76.036,248.512 76.805 C 245.837 79.110,243.197 81.225,240.497 83.228 L 237.944 85.122 160.504 85.122 L 83.064 85.122 81.839 85.948 L 80.613 86.774 80.511 174.766 C 80.400 270.379,80.304 264.533,82.023 266.356 L 83.223 267.628 190.025 267.628 L 296.827 267.628 297.467 266.653 C 298.071 265.730,298.116 262.122,298.287 200.703 C 298.445 143.658,298.533 135.649,299.008 135.074 C 300.292 133.522,304.879 129.303,308.508 126.338 C 309.666 125.391,311.474 123.886,312.527 122.994 C 313.579 122.101,315.449 120.559,316.682 119.567 C 317.914 118.575,319.800 116.993,320.872 116.050 C 322.193 114.889,323.142 114.337,323.819 114.337 C 324.368 114.337,325.158 114.098,325.575 113.806 C 326.801 112.947,326.781 111.516,326.781 197.836 L 326.781 280.162 325.566 282.829 C 324.009 286.244,322.842 287.607,320.331 288.941 C 319.216 289.533,317.737 290.376,317.042 290.816 L 315.780 291.614 189.720 291.614 L 63.659 291.614 61.676 290.589 C 60.586 290.026,58.928 289.176,57.992 288.700 C 57.056 288.225,56.056 287.388,55.770 286.840 C 55.484 286.292,54.759 285.377,54.160 284.808 C 52.175 282.921,52.246 287.279,52.367 174.752 C 52.471 78.298,52.525 70.432,53.080 69.419 C 55.240 65.482,59.207 62.428,63.300 61.554 C 66.911 60.783,261.894 60.672,262.533 61.441 M254.034 88.045 C 253.401 88.228,252.535 88.866,252.110 89.463 C 251.685 90.060,250.713 90.867,249.951 91.255 C 249.188 91.644,248.456 92.305,248.323 92.723 C 248.191 93.141,247.570 93.698,246.945 93.960 C 246.319 94.222,245.401 94.876,244.905 95.413 C 244.409 95.950,243.354 96.798,242.561 97.297 C 241.031 98.261,238.546 100.314,236.274 102.492 C 235.517 103.218,234.392 104.073,233.773 104.393 C 233.155 104.713,232.371 105.399,232.031 105.918 C 231.691 106.437,230.866 107.090,230.198 107.369 C 229.530 107.648,228.721 108.335,228.399 108.895 C 228.077 109.456,227.311 110.096,226.696 110.319 C 226.081 110.541,224.936 111.351,224.151 112.120 C 223.366 112.888,222.040 113.942,221.206 114.463 C 220.371 114.983,219.514 115.735,219.300 116.134 C 219.087 116.533,218.250 117.198,217.440 117.611 C 216.630 118.024,215.884 118.683,215.782 119.075 C 215.679 119.467,214.920 120.106,214.094 120.494 C 213.269 120.882,212.308 121.684,211.957 122.277 C 211.607 122.869,211.083 123.354,210.792 123.354 C 210.501 123.354,209.577 123.974,208.739 124.732 C 207.900 125.489,206.646 126.492,205.951 126.960 C 204.443 127.978,201.571 130.406,199.812 132.150 C 199.113 132.842,198.092 133.580,197.543 133.789 C 196.993 133.997,196.266 134.656,195.927 135.253 C 195.572 135.878,194.809 136.504,194.126 136.731 C 193.474 136.948,192.581 137.614,192.142 138.211 C 191.703 138.808,190.769 139.591,190.067 139.951 C 189.365 140.310,188.115 141.259,187.291 142.059 C 186.467 142.859,185.320 143.758,184.744 144.056 C 184.168 144.354,183.426 145.010,183.096 145.513 C 182.766 146.017,181.861 146.753,181.085 147.149 C 180.309 147.545,179.569 148.199,179.441 148.602 C 179.313 149.006,178.679 149.557,178.033 149.827 C 177.386 150.097,176.492 150.784,176.046 151.354 C 175.600 151.924,174.772 152.633,174.206 152.931 C 172.952 153.590,169.267 156.528,167.082 158.611 C 166.197 159.454,165.257 160.144,164.992 160.144 C 164.726 160.144,164.081 160.706,163.557 161.392 C 163.034 162.078,162.013 162.931,161.288 163.286 C 160.563 163.641,159.778 164.322,159.545 164.800 C 159.311 165.277,158.592 165.890,157.947 166.161 C 157.302 166.432,156.016 167.363,155.089 168.230 C 154.163 169.096,152.916 170.058,152.319 170.367 C 151.723 170.675,150.954 171.356,150.612 171.878 C 150.269 172.401,149.437 173.059,148.763 173.341 C 148.089 173.622,147.306 174.301,147.022 174.849 C 146.739 175.397,145.883 176.123,145.120 176.463 C 144.357 176.803,143.457 177.571,143.119 178.171 C 142.781 178.770,142.241 179.261,141.920 179.261 C 140.879 179.261,137.100 183.194,136.847 184.540 C 136.586 185.931,137.330 187.366,138.617 187.952 C 139.055 188.152,139.684 188.787,140.014 189.363 C 140.345 189.939,141.195 190.653,141.903 190.949 C 142.611 191.244,143.376 191.893,143.602 192.389 C 143.828 192.886,144.550 193.547,145.207 193.859 C 145.863 194.170,146.740 194.902,147.154 195.484 C 147.569 196.066,148.551 196.904,149.337 197.346 C 150.123 197.788,150.766 198.280,150.766 198.441 C 150.766 198.601,151.984 199.633,153.472 200.733 C 154.959 201.833,156.177 202.892,156.177 203.085 C 156.177 203.278,156.876 203.776,157.731 204.191 C 158.586 204.606,159.438 205.292,159.624 205.716 C 159.811 206.139,160.645 206.860,161.478 207.317 C 162.310 207.774,163.093 208.467,163.217 208.857 C 163.340 209.247,163.958 209.831,164.588 210.156 C 165.219 210.480,166.414 211.411,167.244 212.226 C 169.232 214.177,171.648 216.268,172.768 217.007 C 173.264 217.334,174.157 218.056,174.752 218.612 C 177.354 221.039,180.153 221.136,182.564 218.881 C 183.227 218.262,184.297 217.351,184.943 216.859 C 185.589 216.366,186.806 215.327,187.648 214.549 C 188.490 213.772,189.873 212.534,190.721 211.798 C 191.569 211.062,192.948 209.804,193.787 209.002 C 194.625 208.200,195.740 207.330,196.263 207.068 C 196.787 206.807,197.389 206.212,197.601 205.746 C 197.814 205.280,198.650 204.561,199.459 204.148 C 200.268 203.735,201.104 203.016,201.317 202.550 C 201.529 202.084,202.108 201.518,202.604 201.292 C 203.513 200.878,206.300 198.560,209.687 195.401 C 210.697 194.459,211.720 193.688,211.959 193.688 C 212.199 193.688,212.748 193.192,213.179 192.586 C 213.611 191.980,214.615 191.073,215.410 190.571 C 216.205 190.069,216.935 189.353,217.033 188.980 C 217.131 188.607,217.518 188.204,217.895 188.084 C 218.865 187.777,220.739 186.136,220.739 185.595 C 220.739 185.346,221.370 184.857,222.140 184.509 C 222.911 184.162,223.757 183.474,224.021 182.981 C 224.285 182.488,224.994 181.830,225.596 181.518 C 226.699 180.948,229.744 178.424,232.341 175.928 C 233.112 175.187,234.186 174.351,234.726 174.070 C 235.266 173.789,236.084 173.049,236.544 172.425 C 237.003 171.800,237.781 171.137,238.272 170.950 C 238.763 170.763,239.437 170.135,239.771 169.554 C 240.104 168.973,240.917 168.239,241.578 167.924 C 242.238 167.610,243.054 166.869,243.391 166.278 C 243.728 165.688,244.435 165.054,244.962 164.869 C 245.490 164.684,246.301 164.016,246.766 163.385 C 247.230 162.753,248.214 161.927,248.951 161.550 C 249.688 161.172,250.470 160.531,250.687 160.124 C 250.905 159.717,251.585 159.079,252.198 158.706 C 253.395 157.978,256.447 155.379,258.624 153.234 C 259.360 152.508,260.477 151.648,261.106 151.323 C 261.735 150.998,262.437 150.321,262.666 149.818 C 262.894 149.316,263.696 148.592,264.446 148.209 C 265.196 147.826,266.061 147.028,266.368 146.435 C 266.675 145.842,267.152 145.356,267.430 145.356 C 268.121 145.356,270.153 143.601,270.153 143.004 C 270.153 142.737,270.518 142.407,270.965 142.269 C 271.411 142.131,272.621 141.268,273.653 140.351 C 274.685 139.434,276.606 137.791,277.921 136.700 C 279.236 135.609,281.040 134.034,281.929 133.200 C 282.818 132.366,283.861 131.584,284.247 131.461 C 284.633 131.339,285.194 130.764,285.494 130.185 C 285.793 129.606,286.691 128.800,287.488 128.393 C 288.286 127.986,289.088 127.259,289.271 126.776 C 289.459 126.284,290.164 125.666,290.882 125.366 C 291.614 125.060,292.473 124.300,292.895 123.585 C 293.300 122.898,293.874 122.244,294.171 122.130 C 296.104 121.388,295.796 118.791,293.611 117.411 C 292.842 116.926,292.117 116.227,291.999 115.858 C 291.882 115.489,291.142 114.825,290.355 114.382 C 289.567 113.940,288.694 113.251,288.415 112.852 C 288.135 112.452,286.955 111.433,285.793 110.586 C 284.630 109.738,283.446 108.763,283.162 108.419 C 282.878 108.074,282.037 107.482,281.295 107.103 C 280.552 106.724,279.839 106.084,279.711 105.681 C 279.583 105.277,278.866 104.635,278.117 104.253 C 277.368 103.871,276.492 103.156,276.170 102.665 C 275.849 102.174,274.948 101.413,274.169 100.975 C 273.390 100.538,272.582 99.806,272.374 99.350 C 272.166 98.893,271.407 98.240,270.687 97.898 C 269.967 97.557,269.145 96.922,268.861 96.489 C 268.577 96.055,267.575 95.152,266.634 94.483 C 265.693 93.813,264.355 92.735,263.661 92.086 C 262.967 91.438,261.952 90.722,261.407 90.496 C 260.861 90.269,260.415 89.934,260.415 89.750 C 260.415 88.069,257.054 87.171,254.034 88.045 M259.411 90.000 C 264.033 93.960,266.708 96.170,269.317 98.184 C 270.595 99.170,272.718 100.979,275.383 103.352 C 276.177 104.059,277.800 105.444,278.990 106.430 C 280.180 107.417,281.803 108.792,282.597 109.487 C 283.390 110.183,285.329 111.761,286.906 112.995 C 288.482 114.229,290.268 115.730,290.873 116.330 C 291.479 116.930,292.502 117.794,293.147 118.248 C 294.836 119.440,294.224 121.125,291.109 123.858 C 290.633 124.275,289.578 125.212,288.765 125.939 C 286.435 128.021,283.486 130.550,280.423 133.093 C 278.869 134.382,276.775 136.121,275.770 136.957 C 273.912 138.501,272.412 139.811,269.352 142.562 C 264.033 147.345,257.636 152.919,256.267 153.965 C 255.672 154.420,254.392 155.469,253.423 156.296 C 252.453 157.123,250.749 158.571,249.635 159.514 C 248.522 160.456,246.835 161.917,245.887 162.760 C 244.939 163.603,243.435 164.941,242.543 165.735 C 237.787 169.969,235.194 172.196,231.199 175.473 C 226.273 179.516,223.601 181.812,219.657 185.392 C 215.846 188.852,213.941 190.491,208.127 195.311 C 206.691 196.501,204.843 198.065,204.021 198.786 C 203.198 199.507,201.551 200.928,200.361 201.943 C 198.251 203.742,196.416 205.357,193.143 208.296 C 192.260 209.089,190.844 210.333,189.997 211.060 C 189.151 211.787,187.633 213.096,186.626 213.971 C 185.618 214.845,184.157 216.030,183.379 216.605 C 182.602 217.180,181.433 218.102,180.781 218.654 C 179.180 220.010,178.210 219.919,176.142 218.218 C 175.179 217.426,173.174 215.806,171.686 214.617 C 170.198 213.429,168.332 211.890,167.538 211.197 C 166.745 210.504,165.122 209.125,163.931 208.134 C 162.741 207.142,161.118 205.749,160.325 205.039 C 158.736 203.619,156.106 201.413,152.377 198.377 C 149.190 195.781,146.639 193.649,144.635 191.907 C 143.742 191.130,142.038 189.655,140.848 188.627 C 137.405 185.656,137.285 185.474,138.018 184.350 C 138.769 183.198,142.060 179.982,142.488 179.982 C 142.658 179.982,143.519 179.292,144.401 178.449 C 145.282 177.606,146.924 176.186,148.049 175.293 C 149.174 174.400,150.836 173.050,151.744 172.292 C 152.651 171.535,153.816 170.650,154.334 170.326 C 154.852 170.002,155.945 169.161,156.764 168.457 C 157.582 167.753,159.267 166.366,160.507 165.374 C 161.747 164.382,163.383 162.962,164.144 162.218 C 164.904 161.474,165.661 160.866,165.827 160.866 C 165.992 160.866,166.787 160.257,167.593 159.513 C 168.400 158.769,169.772 157.634,170.643 156.990 C 173.196 155.103,175.383 153.383,176.736 152.198 C 177.430 151.590,178.928 150.329,180.063 149.397 C 181.199 148.464,183.066 146.927,184.211 145.981 C 185.357 145.036,187.430 143.377,188.819 142.296 C 193.542 138.616,195.211 137.242,196.600 135.888 C 197.363 135.144,198.138 134.536,198.322 134.536 C 198.506 134.536,199.393 133.846,200.292 133.003 C 201.990 131.410,204.719 129.238,206.982 127.679 C 207.704 127.180,208.815 126.288,209.451 125.695 C 210.086 125.102,211.509 123.886,212.613 122.994 C 213.718 122.101,215.332 120.756,216.202 120.005 C 217.071 119.254,218.351 118.199,219.046 117.661 C 219.741 117.122,221.553 115.708,223.072 114.518 C 224.591 113.327,226.329 111.992,226.934 111.551 C 228.028 110.752,230.068 109.035,232.822 106.593 C 235.554 104.171,237.514 102.564,238.774 101.713 C 239.468 101.244,240.722 100.241,241.561 99.484 C 242.400 98.726,243.234 98.106,243.414 98.106 C 243.595 98.106,244.486 97.417,245.394 96.573 C 246.303 95.730,247.947 94.310,249.048 93.417 C 250.149 92.525,251.740 91.200,252.582 90.474 C 253.926 89.315,255.683 88.503,257.066 88.400 C 257.308 88.383,258.363 89.102,259.411 90.000 M125.419 194.320 C 124.551 195.279,124.075 196.797,123.700 199.800 C 123.479 201.567,122.978 203.285,122.275 204.689 C 121.385 206.464,121.090 207.727,120.630 211.722 C 120.245 215.072,119.854 216.959,119.376 217.771 C 118.417 219.399,117.665 222.251,117.404 225.248 C 117.102 228.708,116.603 230.804,115.617 232.752 C 113.158 237.610,116.559 240.803,121.467 238.245 C 122.749 237.576,124.341 237.218,127.863 236.806 C 133.146 236.187,134.413 235.885,136.106 234.839 C 136.950 234.317,138.627 233.950,141.954 233.559 C 147.167 232.946,148.126 232.719,150.287 231.585 C 151.331 231.037,153.153 230.636,156.235 230.276 C 165.937 229.143,170.371 225.676,165.889 222.727 C 164.982 222.130,163.538 221.037,162.680 220.299 C 161.823 219.561,160.601 218.785,159.965 218.576 C 159.316 218.362,158.627 217.797,158.396 217.291 C 158.155 216.760,157.328 216.106,156.392 215.705 C 155.475 215.312,154.698 214.702,154.560 214.268 C 154.429 213.853,153.701 213.197,152.943 212.811 C 152.186 212.424,150.970 211.546,150.242 210.860 C 149.514 210.173,148.291 209.301,147.524 208.921 C 146.756 208.542,145.697 207.718,145.169 207.091 C 144.642 206.464,143.966 205.951,143.669 205.951 C 143.371 205.951,142.418 205.221,141.550 204.328 C 140.683 203.436,139.782 202.705,139.549 202.705 C 139.316 202.705,138.420 202.055,137.558 201.261 C 136.696 200.466,135.272 199.467,134.394 199.040 C 133.515 198.614,132.632 197.902,132.430 197.459 C 132.210 196.977,131.362 196.392,130.323 196.005 C 129.367 195.648,128.126 194.981,127.565 194.522 C 126.342 193.521,126.157 193.504,125.419 194.320 M131.470 198.018 C 132.065 198.584,133.312 199.585,134.240 200.245 C 138.129 203.005,139.013 203.671,140.435 204.911 C 141.257 205.628,142.452 206.482,143.091 206.808 C 143.730 207.135,144.425 207.723,144.635 208.115 C 144.845 208.508,145.540 209.097,146.178 209.424 C 146.817 209.751,147.879 210.489,148.538 211.063 C 149.198 211.637,150.415 212.531,151.244 213.049 C 152.778 214.008,153.909 214.901,157.442 217.944 C 158.536 218.886,159.581 219.657,159.765 219.657 C 159.950 219.657,160.835 220.293,161.732 221.069 C 162.629 221.846,164.026 222.854,164.835 223.309 C 168.395 225.310,163.325 228.338,154.278 229.613 C 152.143 229.915,148.996 230.646,147.285 231.238 C 145.575 231.831,142.371 232.565,140.167 232.870 C 137.962 233.174,135.266 233.750,134.175 234.150 C 132.222 234.865,129.087 235.562,122.206 236.811 C 117.168 237.725,115.925 236.799,117.002 232.936 C 117.296 231.882,117.806 229.234,118.136 227.051 C 118.466 224.869,119.130 222.145,119.612 220.997 C 120.099 219.839,120.803 216.870,121.194 214.324 C 121.581 211.802,122.377 208.359,122.961 206.673 C 123.546 204.986,124.215 202.284,124.447 200.667 C 124.679 199.050,125.163 197.244,125.522 196.654 L 126.175 195.581 128.281 196.286 C 129.440 196.673,130.875 197.453,131.470 198.018 " stroke="none" fill="#b4b4b4" fill-rule="evenodd"></path><path id="path4" d="M302.758 50.134 C 300.940 50.401,297.136 51.769,294.680 53.039 C 293.986 53.398,292.023 55.042,290.319 56.692 C 288.614 58.343,284.978 61.803,282.238 64.382 C 279.499 66.961,275.827 70.451,274.078 72.137 C 272.329 73.823,270.406 75.631,269.804 76.153 C 268.180 77.564,268.217 79.984,269.883 81.282 C 270.528 81.785,271.704 82.778,272.498 83.488 C 274.762 85.516,277.459 87.805,278.488 88.570 C 280.269 89.895,283.321 92.348,284.761 93.611 C 285.555 94.307,287.259 95.770,288.548 96.862 C 289.838 97.955,291.542 99.418,292.335 100.114 C 296.334 103.621,297.134 104.300,298.467 105.314 C 299.261 105.918,300.672 107.018,301.604 107.760 C 302.535 108.501,304.033 109.508,304.932 109.997 L 306.567 110.887 307.747 109.783 C 308.396 109.176,309.536 108.316,310.280 107.872 C 311.023 107.428,311.632 106.918,311.632 106.739 C 311.632 106.559,312.322 105.967,313.165 105.423 C 314.008 104.879,315.565 103.740,316.625 102.893 C 317.684 102.046,318.693 101.353,318.867 101.353 C 319.040 101.353,319.998 100.663,320.996 99.820 C 324.813 96.592,328.851 93.469,331.109 91.997 C 332.002 91.416,333.300 90.431,333.995 89.809 C 334.689 89.188,335.702 88.325,336.247 87.892 C 337.577 86.835,339.582 80.268,339.241 78.088 C 338.141 71.065,337.625 70.388,326.045 60.775 C 321.016 56.601,319.377 55.187,318.253 54.052 C 315.576 51.349,307.830 49.391,302.758 50.134 M315.451 53.382 C 316.466 53.627,317.051 54.015,317.330 54.627 C 317.553 55.116,318.379 55.845,319.166 56.246 C 319.953 56.648,320.703 57.310,320.832 57.717 C 320.961 58.125,321.735 58.880,322.552 59.395 C 323.368 59.911,324.542 60.838,325.160 61.456 C 325.778 62.073,327.387 63.472,328.734 64.563 C 330.082 65.654,331.956 67.299,332.900 68.220 C 333.844 69.140,334.962 70.002,335.384 70.136 C 338.218 71.036,338.134 86.282,335.289 87.479 C 334.676 87.737,333.695 88.452,333.108 89.068 C 332.521 89.683,331.189 90.668,330.148 91.255 C 329.107 91.843,328.079 92.653,327.863 93.056 C 327.647 93.459,326.771 94.118,325.917 94.520 C 325.062 94.922,324.145 95.656,323.880 96.151 C 323.615 96.646,322.713 97.354,321.874 97.725 C 321.036 98.096,320.177 98.723,319.965 99.119 C 319.753 99.515,318.834 100.200,317.924 100.641 C 317.014 101.082,315.753 101.968,315.123 102.611 C 314.492 103.254,313.462 104.043,312.833 104.364 C 312.204 104.686,311.349 105.426,310.933 106.010 C 310.517 106.594,309.612 107.258,308.922 107.486 C 308.232 107.714,307.451 108.209,307.186 108.586 C 306.714 109.260,306.679 109.259,305.305 108.559 C 304.535 108.166,303.719 107.845,303.491 107.845 C 303.263 107.845,302.527 107.272,301.854 106.573 C 301.181 105.873,299.820 104.748,298.828 104.073 C 297.836 103.397,296.564 102.346,296.001 101.737 C 295.438 101.128,294.625 100.541,294.194 100.432 C 293.763 100.324,293.132 99.750,292.791 99.156 C 292.450 98.562,291.604 97.839,290.909 97.549 C 290.212 97.258,289.403 96.550,289.102 95.967 C 288.802 95.386,288.189 94.800,287.741 94.665 C 287.292 94.529,286.255 93.747,285.437 92.926 C 284.618 92.105,282.914 90.591,281.649 89.560 C 280.385 88.530,278.392 86.866,277.221 85.863 C 276.049 84.860,274.892 84.040,274.649 84.040 C 274.405 84.040,273.772 83.470,273.240 82.773 C 272.709 82.077,271.716 81.273,271.033 80.988 C 269.058 80.163,269.176 77.585,271.249 76.276 C 272.050 75.771,272.891 74.951,273.117 74.455 C 273.343 73.959,274.060 73.300,274.711 72.991 C 275.361 72.683,276.096 71.972,276.344 71.413 C 276.591 70.854,277.337 70.138,278.001 69.821 C 278.664 69.505,279.483 68.761,279.820 68.169 C 280.157 67.577,280.575 67.091,280.750 67.090 C 281.039 67.088,282.342 65.914,285.995 62.365 C 290.689 57.805,295.875 53.370,296.740 53.177 C 297.293 53.053,299.288 52.567,301.172 52.098 C 305.919 50.917,305.945 50.917,310.189 52.031 C 312.272 52.578,314.640 53.186,315.451 53.382 M62.579 61.997 C 58.926 62.904,54.897 66.269,53.212 69.821 C 52.541 71.235,52.357 280.050,53.025 282.453 C 53.223 283.167,53.730 284.060,54.152 284.436 C 54.573 284.813,55.282 285.695,55.728 286.396 C 56.343 287.365,57.434 288.122,60.280 289.558 L 64.022 291.446 190.081 291.350 L 316.141 291.253 318.124 290.019 C 319.216 289.341,320.704 288.414,321.432 287.960 C 323.120 286.906,324.273 285.360,325.566 282.417 L 326.596 280.072 326.705 198.918 C 326.765 154.283,326.716 117.074,326.595 116.231 L 326.376 114.698 324.558 114.698 C 322.919 114.698,322.556 114.858,320.883 116.319 C 318.740 118.189,316.357 120.183,312.907 122.994 C 306.750 128.008,304.274 130.167,301.082 133.305 L 298.647 135.698 298.647 199.986 C 298.647 265.986,298.652 265.769,297.278 267.358 C 296.524 268.230,84.348 268.354,82.665 267.484 C 82.127 267.205,81.324 266.331,80.880 265.541 L 80.072 264.104 80.072 175.577 L 80.072 87.051 80.884 86.291 C 82.555 84.725,80.674 84.761,160.799 84.760 C 237.011 84.758,237.884 84.750,238.954 84.044 C 241.347 82.465,243.225 80.982,248.332 76.643 C 249.125 75.969,250.748 74.590,251.939 73.578 C 254.275 71.593,256.600 69.552,259.127 67.268 C 260.005 66.474,261.234 65.438,261.858 64.964 C 263.099 64.022,263.138 62.675,261.949 61.767 C 260.884 60.953,65.877 61.178,62.579 61.997 M259.689 62.696 C 261.666 62.994,262.015 63.863,260.527 64.783 C 259.538 65.394,258.689 66.143,255.365 69.335 C 254.472 70.193,253.311 71.083,252.784 71.312 C 252.258 71.542,251.539 72.217,251.187 72.812 C 250.836 73.407,250.212 73.984,249.801 74.093 C 249.390 74.201,248.336 74.961,247.459 75.781 C 246.582 76.600,245.254 77.713,244.508 78.254 C 243.762 78.794,242.720 79.749,242.193 80.376 C 241.666 81.002,241.006 81.515,240.726 81.515 C 240.447 81.515,239.590 82.083,238.821 82.777 L 237.424 84.040 159.818 84.040 C 75.770 84.040,80.510 83.928,79.196 85.934 C 78.283 87.327,78.508 265.095,79.425 266.768 C 80.802 269.283,70.786 269.082,190.098 268.982 L 297.668 268.891 298.428 267.873 L 299.188 266.854 299.282 201.474 L 299.375 136.094 300.789 134.958 C 301.567 134.333,302.298 133.524,302.413 133.161 C 302.528 132.798,303.181 132.235,303.863 131.910 C 304.546 131.584,305.381 130.896,305.718 130.381 C 306.056 129.866,306.951 129.129,307.708 128.743 C 308.464 128.357,309.261 127.708,309.479 127.301 C 309.697 126.895,310.392 126.249,311.024 125.866 C 312.581 124.924,316.022 122.096,318.079 120.068 C 319.007 119.153,320.092 118.301,320.490 118.175 C 320.889 118.048,321.502 117.458,321.854 116.863 C 322.506 115.759,323.288 115.521,324.256 116.133 C 325.015 116.612,325.084 278.824,324.327 282.113 C 323.803 284.394,321.021 287.644,319.237 288.061 C 318.724 288.180,317.412 288.786,316.321 289.405 L 314.337 290.532 189.351 290.532 L 64.365 290.532 63.378 289.756 C 62.835 289.329,61.188 288.541,59.719 288.005 C 57.631 287.243,57.001 286.846,56.836 286.186 C 56.719 285.722,55.982 284.600,55.199 283.695 C 53.210 281.397,53.346 289.875,53.459 175.223 L 53.562 70.734 54.662 69.542 C 55.267 68.886,55.991 67.891,56.271 67.330 C 56.550 66.769,57.110 66.143,57.515 65.938 C 57.920 65.733,58.755 65.031,59.372 64.378 C 60.400 63.290,60.730 63.171,63.339 62.954 C 64.905 62.823,66.429 62.664,66.727 62.599 C 67.812 62.364,258.119 62.459,259.689 62.696 M255.118 89.076 C 254.486 89.226,253.403 89.899,252.711 90.572 C 252.020 91.244,250.539 92.525,249.420 93.417 C 248.302 94.310,246.801 95.579,246.086 96.237 C 245.371 96.895,244.122 97.914,243.312 98.503 C 239.424 101.326,235.000 104.888,233.164 106.673 C 232.296 107.516,231.437 108.206,231.253 108.206 C 231.069 108.206,230.173 108.895,229.260 109.739 C 226.932 111.889,224.742 113.701,223.264 114.698 C 222.570 115.167,221.316 116.170,220.477 116.928 C 219.638 117.685,218.818 118.305,218.655 118.305 C 218.491 118.305,217.602 118.995,216.679 119.838 C 215.755 120.681,214.099 122.101,213.000 122.994 C 211.900 123.886,210.105 125.388,209.013 126.330 C 207.920 127.272,206.906 128.048,206.759 128.054 C 206.612 128.059,205.762 128.720,204.869 129.523 C 203.977 130.325,202.814 131.210,202.286 131.489 C 201.758 131.768,201.028 132.375,200.663 132.838 C 200.298 133.302,199.513 133.983,198.918 134.353 C 198.323 134.722,197.244 135.605,196.521 136.313 C 195.798 137.022,194.337 138.289,193.275 139.130 C 188.547 142.873,187.395 143.776,186.513 144.434 C 185.996 144.819,184.886 145.711,184.046 146.417 C 183.207 147.123,181.617 148.431,180.514 149.324 C 179.411 150.216,177.753 151.637,176.829 152.480 C 175.906 153.323,175.016 154.013,174.853 154.013 C 174.689 154.013,173.869 154.635,173.031 155.395 C 172.192 156.155,170.735 157.299,169.793 157.937 C 168.850 158.575,168.079 159.237,168.079 159.409 C 168.079 159.581,167.262 160.225,166.263 160.839 C 165.264 161.454,164.359 162.185,164.252 162.463 C 164.145 162.742,163.461 163.365,162.732 163.847 C 162.003 164.330,160.807 165.276,160.074 165.951 C 158.001 167.859,155.847 169.617,154.373 170.604 C 153.633 171.100,152.357 172.074,151.537 172.768 C 149.914 174.144,147.213 176.361,144.068 178.900 C 141.250 181.175,137.781 184.620,137.786 185.138 C 137.792 185.750,142.615 190.127,148.598 194.950 C 149.829 195.942,151.608 197.403,152.553 198.197 C 153.497 198.990,155.369 200.532,156.712 201.623 C 158.056 202.714,159.852 204.256,160.704 205.050 C 161.556 205.843,163.248 207.304,164.464 208.296 C 165.680 209.288,167.302 210.667,168.069 211.362 C 168.837 212.056,170.712 213.598,172.237 214.788 C 173.762 215.978,175.732 217.561,176.616 218.305 C 178.730 220.085,178.554 220.134,183.033 216.501 C 185.173 214.766,187.350 213.021,187.871 212.624 C 188.392 212.227,189.332 211.416,189.960 210.821 C 190.588 210.225,191.952 209.008,192.991 208.115 C 194.030 207.223,195.545 205.889,196.358 205.152 C 199.465 202.335,206.854 196.024,211.893 191.885 C 213.221 190.794,215.020 189.252,215.891 188.458 C 220.083 184.636,227.320 178.338,231.018 175.293 C 234.820 172.163,237.372 170.005,239.235 168.349 C 240.182 167.507,241.687 166.168,242.578 165.374 C 247.521 160.974,251.151 157.840,254.276 155.275 C 258.195 152.058,262.594 148.310,265.281 145.897 C 266.904 144.439,268.988 142.599,271.957 140.003 C 272.849 139.223,274.391 137.866,275.383 136.989 C 276.375 136.111,277.674 135.025,278.269 134.575 C 278.864 134.124,280.144 133.079,281.113 132.252 C 282.082 131.425,283.786 129.977,284.900 129.035 C 289.736 124.942,291.137 123.618,293.119 121.271 L 294.421 119.728 292.158 117.680 C 289.861 115.602,289.276 115.125,285.312 112.092 C 284.087 111.155,282.630 109.938,282.074 109.387 C 281.519 108.837,280.062 107.574,278.837 106.583 C 277.613 105.591,275.901 104.130,275.033 103.336 C 274.165 102.543,272.458 101.082,271.241 100.090 C 270.023 99.098,268.236 97.638,267.268 96.844 C 266.300 96.050,264.514 94.590,263.299 93.598 C 262.084 92.606,260.337 91.105,259.418 90.261 C 257.735 88.717,257.220 88.576,255.118 89.076 M260.166 92.335 C 260.392 92.335,261.231 93.000,262.029 93.812 C 264.064 95.881,267.975 99.163,269.101 99.745 C 269.621 100.014,270.308 100.634,270.628 101.122 C 270.949 101.611,271.865 102.300,272.666 102.653 C 273.466 103.006,274.121 103.479,274.121 103.704 C 274.121 104.270,275.575 105.547,276.559 105.845 C 277.008 105.981,277.624 106.575,277.929 107.165 C 278.234 107.754,278.922 108.423,279.458 108.651 C 279.994 108.879,281.113 109.724,281.945 110.529 C 283.778 112.302,286.182 114.387,287.647 115.474 C 288.242 115.916,289.493 116.977,290.426 117.832 C 291.360 118.687,292.322 119.387,292.563 119.387 C 292.818 119.387,292.691 119.727,292.260 120.198 C 291.852 120.645,291.255 121.530,290.934 122.166 C 290.613 122.801,289.806 123.579,289.141 123.895 C 288.476 124.211,287.710 124.882,287.440 125.387 C 287.170 125.892,286.327 126.622,285.567 127.010 C 284.807 127.398,284.099 127.938,283.995 128.211 C 283.890 128.483,282.681 129.542,281.307 130.563 C 279.934 131.585,278.810 132.539,278.810 132.685 C 278.810 132.830,278.084 133.408,277.196 133.969 C 276.309 134.530,275.496 135.264,275.389 135.600 C 275.282 135.936,274.543 136.577,273.745 137.025 C 272.948 137.473,272.028 138.249,271.700 138.750 C 271.372 139.250,270.478 140.054,269.713 140.537 C 268.948 141.020,268.170 141.815,267.984 142.304 C 267.798 142.792,267.411 143.192,267.124 143.192 C 266.446 143.192,264.382 144.929,264.382 145.499 C 264.382 145.741,263.732 146.225,262.938 146.576 C 262.143 146.926,261.328 147.523,261.125 147.901 C 260.923 148.279,260.213 148.959,259.548 149.411 C 258.235 150.302,254.924 153.102,252.871 155.054 C 252.165 155.726,250.989 156.653,250.259 157.114 C 249.528 157.576,248.834 158.255,248.717 158.624 C 248.600 158.993,247.846 159.665,247.041 160.117 C 246.236 160.569,245.395 161.339,245.173 161.828 C 244.950 162.317,244.227 162.943,243.566 163.219 C 242.905 163.495,242.084 164.214,241.741 164.816 C 241.398 165.418,240.902 165.912,240.638 165.913 C 240.373 165.914,239.481 166.557,238.654 167.341 C 237.827 168.125,236.471 169.302,235.640 169.956 C 231.609 173.129,229.396 175.027,229.396 175.311 C 229.396 175.483,228.673 176.047,227.789 176.565 C 226.906 177.083,226.082 177.823,225.960 178.209 C 225.837 178.596,225.093 179.241,224.306 179.642 C 223.519 180.044,222.687 180.784,222.457 181.288 C 222.228 181.792,221.426 182.517,220.676 182.900 C 219.925 183.283,219.061 184.081,218.754 184.674 C 218.447 185.268,217.939 185.753,217.625 185.753 C 217.310 185.753,216.333 186.483,215.453 187.376 C 214.573 188.269,213.711 188.999,213.538 188.999 C 213.365 188.999,212.590 189.608,211.815 190.352 C 211.040 191.096,209.769 192.182,208.990 192.767 C 207.550 193.847,205.871 195.352,203.489 197.697 C 202.760 198.413,201.639 199.268,200.998 199.596 C 200.357 199.924,199.591 200.659,199.296 201.229 C 199.001 201.800,198.271 202.436,197.674 202.645 C 197.077 202.853,196.271 203.546,195.882 204.186 C 195.493 204.825,194.674 205.559,194.062 205.817 C 193.450 206.074,192.669 206.777,192.326 207.378 C 191.984 207.980,191.494 208.473,191.238 208.474 C 190.981 208.475,190.008 209.172,189.074 210.023 C 188.140 210.873,186.727 212.044,185.933 212.625 C 185.140 213.205,184.004 214.137,183.408 214.696 C 180.464 217.458,179.105 218.575,178.688 218.575 C 178.160 218.575,177.096 217.599,177.096 217.114 C 177.096 216.934,176.458 216.461,175.678 216.063 C 174.897 215.665,174.022 215.001,173.733 214.589 C 173.445 214.176,172.257 213.146,171.095 212.299 C 169.932 211.452,168.748 210.477,168.464 210.132 C 168.180 209.787,167.340 209.195,166.597 208.816 C 165.854 208.438,165.142 207.797,165.014 207.394 C 164.885 206.991,164.184 206.355,163.454 205.981 C 162.725 205.608,161.764 204.807,161.319 204.202 C 160.874 203.597,159.963 202.843,159.295 202.526 C 158.627 202.208,157.902 201.558,157.684 201.079 C 157.466 200.601,156.637 199.878,155.843 199.472 C 155.048 199.067,154.227 198.417,154.019 198.029 C 153.811 197.640,152.954 196.836,152.114 196.242 C 151.273 195.648,149.947 194.594,149.165 193.899 C 148.384 193.205,147.309 192.457,146.777 192.236 C 146.246 192.016,145.634 191.448,145.417 190.973 C 145.201 190.499,144.362 189.773,143.553 189.360 C 142.743 188.947,141.899 188.210,141.677 187.722 C 141.455 187.234,141.177 186.834,141.060 186.834 C 140.943 186.833,140.319 186.510,139.674 186.116 L 138.500 185.401 140.575 183.317 C 141.717 182.171,143.100 181.035,143.648 180.793 C 144.197 180.551,144.838 179.931,145.073 179.414 C 145.323 178.865,146.074 178.246,146.882 177.923 C 147.641 177.619,148.425 177.067,148.623 176.697 C 148.821 176.327,149.831 175.475,150.867 174.806 C 151.903 174.136,153.156 173.144,153.652 172.602 C 154.148 172.060,155.169 171.301,155.921 170.915 C 156.672 170.530,157.465 169.826,157.681 169.351 C 157.897 168.877,158.552 168.291,159.136 168.049 C 159.721 167.807,160.690 166.998,161.290 166.251 C 161.890 165.504,162.767 164.796,163.239 164.678 C 163.711 164.559,164.464 163.967,164.911 163.362 C 165.359 162.757,166.243 162.015,166.877 161.715 C 167.510 161.414,168.579 160.634,169.252 159.980 C 169.925 159.327,171.147 158.368,171.967 157.850 C 172.787 157.332,173.633 156.582,173.847 156.183 C 174.060 155.784,174.885 155.126,175.680 154.720 C 176.475 154.315,177.300 153.600,177.513 153.132 C 177.726 152.664,178.543 151.992,179.327 151.638 C 180.111 151.285,180.970 150.576,181.235 150.064 C 181.500 149.551,182.382 148.839,183.195 148.480 C 184.009 148.121,184.840 147.517,185.044 147.137 C 185.247 146.758,186.332 145.859,187.456 145.140 C 188.580 144.421,189.799 143.452,190.165 142.986 C 190.532 142.521,191.457 141.788,192.223 141.358 C 192.988 140.928,193.787 140.195,193.999 139.730 C 194.211 139.265,194.946 138.649,195.631 138.363 C 196.317 138.076,197.159 137.413,197.502 136.889 C 197.846 136.365,198.740 135.624,199.490 135.241 C 200.240 134.858,201.083 134.219,201.362 133.819 C 201.642 133.420,202.870 132.448,204.091 131.658 C 205.313 130.869,206.312 130.064,206.312 129.870 C 206.312 129.675,207.042 129.088,207.935 128.565 C 208.827 128.042,209.896 127.139,210.309 126.559 C 210.723 125.978,211.617 125.271,212.296 124.987 C 213.002 124.692,213.680 124.079,213.879 123.553 C 214.097 122.982,214.759 122.422,215.630 122.074 C 216.400 121.766,217.250 121.104,217.518 120.604 C 217.785 120.104,218.511 119.483,219.130 119.224 C 219.749 118.966,221.080 118.022,222.088 117.126 C 223.096 116.231,224.422 115.202,225.035 114.840 C 225.649 114.478,226.233 113.921,226.334 113.602 C 226.436 113.284,227.171 112.656,227.968 112.208 C 228.765 111.760,229.681 110.991,230.003 110.500 C 230.325 110.009,231.219 109.285,231.990 108.891 C 232.761 108.498,233.572 107.782,233.792 107.300 C 234.011 106.817,234.708 106.252,235.341 106.044 C 235.973 105.835,236.964 105.160,237.542 104.544 C 238.120 103.928,239.441 102.874,240.477 102.203 C 241.512 101.532,242.532 100.661,242.743 100.267 C 242.954 99.874,243.745 99.236,244.502 98.850 C 245.258 98.464,246.148 97.735,246.479 97.230 C 246.809 96.725,247.695 95.999,248.446 95.615 C 249.198 95.232,250.004 94.499,250.237 93.987 C 250.470 93.476,250.911 93.057,251.218 93.057 C 251.524 93.057,252.463 92.422,253.305 91.646 C 255.748 89.394,257.069 89.216,258.551 90.938 C 259.212 91.707,259.939 92.335,260.166 92.335 M125.360 197.385 C 125.094 198.030,124.761 199.580,124.619 200.830 C 124.338 203.309,123.809 205.412,122.696 208.476 C 122.299 209.567,121.704 212.311,121.373 214.573 C 121.041 216.836,120.310 219.935,119.748 221.461 C 119.185 222.986,118.455 226.069,118.125 228.312 C 117.795 230.554,117.367 232.805,117.173 233.313 C 116.066 236.226,117.899 237.265,122.740 236.469 C 129.610 235.339,130.588 235.127,132.844 234.278 C 134.083 233.812,136.959 233.159,139.235 232.828 C 141.510 232.497,144.752 231.753,146.438 231.174 C 148.124 230.595,151.208 229.869,153.291 229.560 C 159.021 228.710,161.188 228.062,164.350 226.255 C 166.482 225.037,166.522 224.559,164.588 223.426 C 163.681 222.894,162.351 221.932,161.632 221.288 C 160.913 220.644,159.807 219.852,159.174 219.528 C 158.542 219.205,157.811 218.640,157.551 218.274 C 157.291 217.908,156.427 217.198,155.630 216.698 C 154.834 216.197,153.948 215.506,153.662 215.161 C 153.376 214.817,152.242 213.962,151.143 213.262 C 150.043 212.561,148.553 211.458,147.831 210.810 C 147.109 210.162,146.190 209.528,145.789 209.401 C 145.388 209.273,144.800 208.772,144.481 208.286 C 144.163 207.801,143.267 207.079,142.489 206.682 C 141.712 206.285,140.862 205.662,140.601 205.297 C 140.340 204.932,139.234 204.064,138.142 203.368 C 137.051 202.672,135.927 201.822,135.644 201.479 C 135.361 201.135,134.652 200.608,134.070 200.306 C 133.487 200.005,132.329 199.131,131.497 198.364 C 130.539 197.480,129.396 196.833,128.382 196.600 C 126.042 196.060,125.889 196.100,125.360 197.385 M129.703 197.932 C 129.921 198.077,130.293 198.564,130.530 199.014 C 130.766 199.463,131.673 200.166,132.545 200.576 C 133.417 200.986,134.373 201.692,134.671 202.146 C 134.968 202.599,135.992 203.418,136.947 203.966 C 137.902 204.514,139.252 205.492,139.946 206.139 C 140.640 206.786,141.569 207.424,142.010 207.557 C 142.452 207.689,143.155 208.278,143.573 208.866 C 143.992 209.453,144.862 210.155,145.506 210.424 C 146.150 210.693,146.989 211.309,147.370 211.792 C 147.750 212.274,148.873 213.139,149.865 213.714 C 150.857 214.288,152.074 215.206,152.570 215.754 C 153.066 216.302,154.057 216.990,154.771 217.285 C 155.486 217.579,156.341 218.231,156.670 218.734 C 157.000 219.237,157.911 219.975,158.695 220.375 C 159.479 220.775,160.286 221.412,160.488 221.790 C 160.691 222.168,161.685 222.957,162.699 223.542 L 164.541 224.605 163.292 225.378 C 162.605 225.802,161.750 226.150,161.393 226.150 C 161.035 226.150,159.756 226.630,158.550 227.218 C 156.783 228.078,155.410 228.396,151.488 228.851 C 147.593 229.303,146.175 229.629,144.404 230.480 C 142.655 231.320,141.208 231.658,137.527 232.089 C 132.671 232.656,131.171 233.034,129.231 234.177 C 127.383 235.267,119.783 236.013,118.919 235.190 C 117.914 234.232,118.913 226.467,120.415 223.560 C 121.085 222.264,121.561 220.674,121.711 219.232 C 122.259 213.941,122.752 211.467,123.530 210.099 C 124.539 208.326,124.690 207.692,125.334 202.496 C 125.616 200.221,125.945 198.201,126.065 198.008 C 126.317 197.599,129.117 197.540,129.703 197.932 " stroke="none" fill="#a4a4a4" fill-rule="evenodd"></path></g></svg>