<svg id="svg" version="1.1" xmlns="http://www.w3.org/2000/svg" xmlns:xlink="http://www.w3.org/1999/xlink" width="400" height="174.92596248766043" viewBox="0, 0, 400,174.92596248766043"><g id="svgg"><path id="path0" d="M337.445 32.474 C 314.296 33.869,299.864 43.017,295.004 59.376 C 292.536 67.683,293.382 77.088,297.289 84.777 C 303.079 96.172,313.566 102.873,333.683 108.035 C 335.367 108.467,337.021 108.906,337.358 109.011 C 337.941 109.191,338.685 109.371,340.245 109.708 C 341.106 109.893,345.823 111.145,350.044 112.308 C 360.988 115.324,364.738 117.752,366.709 123.097 C 367.757 125.942,366.857 131.097,364.760 134.257 C 360.744 140.307,353.819 143.172,343.132 143.205 C 328.852 143.250,320.771 137.572,316.978 124.829 C 315.373 119.439,313.758 118.566,307.120 119.500 C 305.823 119.683,303.725 119.900,299.388 120.303 C 292.219 120.967,290.895 121.236,289.942 122.219 C 288.515 123.691,289.267 127.799,292.640 136.961 C 292.755 137.272,292.902 137.580,292.968 137.646 C 293.034 137.712,293.088 137.868,293.088 137.992 C 293.088 138.849,297.202 146.470,299.228 149.367 C 304.628 157.088,313.839 162.992,323.710 165.061 C 323.950 165.112,324.698 165.277,325.372 165.429 C 326.854 165.764,331.735 166.472,334.733 166.787 C 337.599 167.088,348.481 167.087,351.006 166.785 C 352.017 166.665,353.513 166.486,354.331 166.388 C 372.337 164.234,384.672 156.542,390.647 143.745 C 391.988 140.873,392.174 140.430,392.597 139.108 C 394.878 131.971,395.272 126.346,394.058 118.265 C 392.148 105.559,383.102 94.885,369.991 89.867 C 369.318 89.609,368.584 89.322,368.362 89.230 C 366.921 88.630,364.237 87.707,360.980 86.692 C 356.685 85.353,356.942 85.427,353.806 84.626 C 347.560 83.029,345.896 82.610,344.357 82.246 C 343.443 82.030,341.868 81.621,340.857 81.338 C 339.847 81.054,338.449 80.667,337.750 80.478 C 325.220 77.086,320.026 73.208,320.038 67.254 C 320.050 61.245,325.156 57.402,335.258 55.799 C 337.231 55.486,344.854 55.482,346.544 55.794 C 356.204 57.575,360.179 60.985,362.896 69.818 C 363.438 71.579,364.614 72.991,365.864 73.383 C 367.436 73.876,368.122 73.877,382.152 73.404 C 390.432 73.125,391.596 72.049,390.479 65.704 C 388.302 53.340,381.068 43.510,370.151 38.082 C 367.597 36.812,367.134 36.635,362.117 35.008 C 360.298 34.418,357.202 33.804,352.843 33.167 C 349.463 32.674,340.685 32.278,337.445 32.474 M10.499 34.717 C 8.300 35.117,7.274 36.045,7.081 37.807 C 6.888 39.567,7.107 40.718,9.783 51.969 C 10.252 53.941,10.847 56.500,11.106 57.655 C 11.364 58.810,11.923 61.189,12.347 62.941 C 12.772 64.694,13.320 67.056,13.565 68.191 C 13.810 69.325,14.087 70.529,14.181 70.866 C 14.350 71.476,15.251 75.311,15.928 78.303 C 16.400 80.387,16.519 80.893,17.140 83.429 C 17.429 84.612,17.869 86.502,18.117 87.628 C 18.365 88.755,18.835 90.779,19.162 92.126 C 19.489 93.473,19.957 95.442,20.203 96.500 C 20.448 97.559,20.969 99.803,21.361 101.487 C 21.752 103.171,22.381 105.888,22.757 107.524 C 23.134 109.160,23.519 110.814,23.614 111.199 C 24.291 113.959,25.070 117.283,25.440 118.998 C 25.681 120.111,26.230 122.474,26.661 124.247 C 27.092 126.021,27.612 128.220,27.816 129.134 C 28.356 131.556,28.438 131.908,29.209 135.083 C 29.594 136.671,30.186 139.191,30.523 140.682 C 30.861 142.174,31.176 143.552,31.222 143.745 C 31.508 144.918,32.403 148.722,32.726 150.131 C 35.275 161.275,35.846 162.851,37.620 163.647 C 39.031 164.279,39.508 164.303,50.831 164.297 C 64.959 164.291,64.784 164.324,66.229 161.402 C 66.909 160.029,67.194 159.123,68.511 154.156 C 68.856 152.857,69.286 151.282,69.467 150.656 C 69.649 150.031,70.083 148.377,70.431 146.982 C 70.780 145.586,71.291 143.657,71.567 142.695 C 71.842 141.732,72.319 139.921,72.625 138.670 C 72.932 137.419,73.332 135.884,73.515 135.258 C 73.698 134.633,73.936 133.806,74.043 133.421 C 74.150 133.036,74.305 132.485,74.387 132.196 C 74.468 131.907,74.817 130.529,75.161 129.134 C 75.506 127.738,76.051 125.691,76.372 124.584 C 76.693 123.478,77.200 121.588,77.498 120.385 C 77.797 119.182,78.280 117.332,78.573 116.273 C 78.866 115.214,79.525 112.734,80.038 110.761 C 80.551 108.788,81.207 106.308,81.497 105.249 C 81.787 104.191,82.315 102.183,82.672 100.787 C 83.028 99.392,83.472 97.738,83.659 97.113 C 83.846 96.487,84.427 94.322,84.950 92.301 C 85.474 90.280,86.070 88.036,86.276 87.314 C 86.481 86.592,86.712 85.726,86.788 85.389 C 86.957 84.640,88.039 80.534,88.539 78.740 C 88.740 78.018,89.177 76.365,89.509 75.066 C 89.842 73.766,90.191 72.526,90.285 72.310 C 90.662 71.444,90.855 71.821,91.697 75.066 C 91.959 76.076,92.663 78.793,93.261 81.102 C 93.860 83.412,94.412 85.538,94.490 85.827 C 94.567 86.115,95.116 88.241,95.709 90.551 C 96.302 92.861,96.933 95.302,97.111 95.976 C 97.289 96.649,97.868 98.893,98.398 100.962 C 98.929 103.031,99.565 105.472,99.812 106.387 C 100.059 107.301,100.540 109.191,100.881 110.586 C 101.222 111.982,101.611 113.478,101.744 113.911 C 101.877 114.344,102.353 116.155,102.802 117.935 C 103.250 119.716,103.686 121.409,103.770 121.697 C 104.019 122.553,104.926 126.025,105.781 129.396 C 106.220 131.129,106.726 133.097,106.904 133.771 C 107.083 134.444,107.552 136.295,107.948 137.883 C 108.343 139.471,108.745 141.045,108.840 141.382 C 109.434 143.476,110.156 146.212,110.669 148.316 C 110.994 149.651,111.379 151.177,111.525 151.706 C 111.670 152.235,112.075 153.771,112.426 155.118 C 114.323 162.418,114.860 163.362,117.515 164.054 C 118.940 164.426,139.761 164.434,141.350 164.063 C 144.302 163.374,144.702 162.659,146.687 154.506 C 147.700 150.349,149.699 142.068,150.130 140.245 C 151.194 135.745,151.607 134.042,151.975 132.633 C 152.215 131.719,152.611 130.066,152.855 128.959 C 153.100 127.852,153.528 126.041,153.808 124.934 C 154.278 123.071,154.519 122.066,155.817 116.535 C 156.077 115.429,156.474 113.815,156.699 112.948 C 156.925 112.082,157.279 110.626,157.486 109.711 C 157.693 108.797,158.367 105.962,158.983 103.412 C 159.599 100.862,160.586 96.767,161.175 94.313 C 161.764 91.859,162.792 87.607,163.459 84.864 C 164.126 82.122,164.747 79.523,164.840 79.090 C 164.934 78.657,165.358 76.885,165.784 75.153 C 166.209 73.421,166.808 70.941,167.115 69.641 C 167.422 68.342,168.091 65.547,168.603 63.430 C 169.828 58.364,170.845 54.138,171.487 51.444 C 171.774 50.241,172.475 47.327,173.046 44.969 C 174.664 38.276,174.729 37.341,173.663 36.074 C 172.466 34.652,171.050 34.478,160.630 34.474 C 147.433 34.469,147.924 34.200,146.088 42.432 C 145.702 44.164,145.274 46.054,145.138 46.632 C 145.002 47.209,144.735 48.469,144.546 49.431 C 144.356 50.394,143.956 52.244,143.658 53.543 C 142.970 56.545,142.422 59.034,142.254 59.930 C 142.060 60.961,141.427 63.914,141.036 65.617 C 140.437 68.222,140.006 70.194,139.542 72.441 C 139.294 73.644,138.982 75.101,138.849 75.678 C 138.233 78.355,137.837 80.152,137.098 83.640 C 136.659 85.709,136.226 87.717,136.136 88.101 C 135.559 90.561,135.251 91.955,134.995 93.263 C 134.834 94.081,134.386 96.168,133.998 97.900 C 133.610 99.633,133.225 101.365,133.142 101.750 C 133.059 102.135,132.868 103.001,132.719 103.675 C 132.569 104.348,132.326 105.529,132.179 106.299 C 131.929 107.603,131.613 109.020,130.950 111.811 C 130.801 112.437,130.419 114.208,130.100 115.748 C 128.944 121.339,128.918 121.348,127.742 116.623 C 127.454 115.468,127.101 114.051,126.956 113.473 C 126.724 112.548,125.882 109.072,125.440 107.218 C 125.355 106.857,125.214 106.266,125.128 105.906 C 125.042 105.545,124.729 104.304,124.432 103.150 C 124.135 101.995,123.700 100.223,123.466 99.213 C 123.232 98.202,122.682 95.958,122.243 94.226 C 121.804 92.493,120.769 88.320,119.943 84.952 C 119.116 81.584,117.819 76.308,117.060 73.228 C 116.301 70.149,115.200 65.661,114.613 63.255 C 114.027 60.849,113.432 58.427,113.291 57.874 C 112.712 55.591,112.440 54.500,110.494 46.632 C 107.730 35.462,107.706 35.418,103.967 34.660 C 102.659 34.394,79.931 34.400,78.488 34.666 C 74.685 35.367,74.752 35.211,69.362 55.993 C 68.925 57.677,68.266 60.157,67.897 61.505 C 67.529 62.852,66.942 65.057,66.594 66.404 C 66.246 67.752,65.764 69.563,65.524 70.429 C 65.284 71.295,64.687 73.539,64.197 75.416 C 63.355 78.641,63.219 79.153,62.833 80.534 C 62.746 80.846,62.243 82.756,61.715 84.777 C 60.617 88.977,59.620 92.719,58.592 96.500 C 58.199 97.944,57.536 100.464,57.118 102.100 C 56.700 103.736,56.235 105.507,56.085 106.037 C 55.935 106.566,55.294 108.968,54.661 111.374 C 54.027 113.780,53.443 115.984,53.361 116.273 C 53.280 116.562,53.142 117.075,53.056 117.414 C 52.426 119.878,52.224 119.450,50.816 112.686 C 50.466 111.002,50.117 109.348,50.041 109.011 C 49.966 108.675,49.819 108.005,49.715 107.524 C 49.611 107.043,49.363 105.901,49.163 104.987 C 48.963 104.073,48.527 102.007,48.194 100.397 C 47.862 98.787,47.359 96.464,47.077 95.235 C 46.795 94.006,46.315 91.780,46.010 90.289 C 45.704 88.797,45.393 87.301,45.317 86.964 C 44.642 83.959,44.017 81.081,43.285 77.603 C 42.940 75.967,42.596 74.353,42.519 74.016 C 42.278 72.957,41.118 67.531,40.742 65.704 C 40.338 63.739,40.318 63.646,39.581 60.367 C 39.288 59.068,38.880 57.139,38.673 56.080 C 38.333 54.337,38.097 53.244,37.617 51.181 C 37.527 50.796,37.173 49.143,36.829 47.507 C 36.485 45.871,36.129 44.178,36.038 43.745 C 34.486 36.364,33.881 35.338,30.709 34.712 C 29.096 34.395,12.250 34.398,10.499 34.717 M183.229 34.730 C 181.540 35.069,180.656 35.904,180.208 37.584 C 179.935 38.607,179.762 154.217,180.027 158.681 C 180.368 164.433,180.078 164.304,192.754 164.304 C 202.906 164.304,203.357 164.260,204.459 163.158 C 205.673 161.944,205.599 164.632,205.602 121.924 C 205.604 98.037,205.667 83.453,205.771 83.290 C 206.017 82.900,206.148 83.077,208.763 87.314 C 210.040 89.383,211.672 92.021,212.390 93.176 C 213.109 94.331,214.316 96.280,215.072 97.507 C 218.605 103.236,219.363 104.460,220.109 105.645 C 220.550 106.343,220.989 107.052,221.085 107.220 C 221.244 107.496,222.008 108.735,224.599 112.913 C 225.088 113.703,226.118 115.372,226.886 116.623 C 228.440 119.152,230.848 123.043,234.519 128.959 C 237.400 133.601,239.259 136.612,240.732 139.020 C 241.321 139.983,242.226 141.439,242.745 142.257 C 243.263 143.075,244.042 144.335,244.475 145.057 C 245.765 147.203,251.553 156.523,253.052 158.867 C 256.674 164.528,255.972 164.300,269.741 164.302 C 281.106 164.305,281.297 164.289,282.481 163.250 C 283.635 162.237,283.552 167.178,283.552 99.213 L 283.552 37.358 283.181 36.555 C 282.280 34.607,281.548 34.483,270.954 34.483 C 260.636 34.483,259.799 34.590,258.893 36.026 C 258.090 37.297,258.095 37.008,258.094 77.895 C 258.093 99.324,258.045 116.981,257.987 117.134 C 257.727 117.809,257.440 117.474,255.378 114.086 C 254.821 113.171,253.879 111.636,253.285 110.674 C 252.690 109.711,251.627 107.979,250.922 106.824 C 250.217 105.669,249.265 104.134,248.806 103.412 C 248.348 102.690,247.632 101.530,247.215 100.834 C 246.379 99.440,245.410 97.858,241.558 91.601 C 240.136 89.291,238.538 86.693,238.006 85.827 C 237.098 84.346,236.343 83.139,235.435 81.715 C 235.220 81.378,234.669 80.472,234.209 79.703 C 233.365 78.289,232.415 76.734,230.731 74.016 C 230.224 73.198,229.256 71.623,228.578 70.516 C 227.901 69.409,226.931 67.835,226.424 67.017 C 225.474 65.486,222.728 61.023,219.425 55.643 C 218.392 53.959,216.815 51.400,215.921 49.956 C 215.028 48.513,214.108 47.017,213.878 46.632 C 213.357 45.761,213.244 45.578,212.150 43.840 C 211.663 43.066,211.038 42.038,210.762 41.557 C 208.259 37.190,206.230 35.219,203.762 34.758 C 202.320 34.489,184.550 34.464,183.229 34.730 " stroke="none" fill="#050505" fill-rule="evenodd"></path><path id="path1" d="M0.000 87.489 L 0.000 174.978 200.000 174.978 L 400.000 174.978 400.000 87.489 L 400.000 0.000 200.000 0.000 L 0.000 0.000 0.000 87.489 M350.446 32.455 C 372.833 34.604,386.464 45.468,390.646 64.494 C 392.477 72.826,391.792 73.339,378.040 73.927 C 364.102 74.522,364.053 74.505,361.914 68.359 C 359.172 60.482,354.485 57.046,345.144 56.068 C 334.168 54.917,323.699 58.211,321.196 63.602 C 319.368 67.541,320.671 71.916,324.476 74.616 C 327.255 76.587,333.110 78.864,340.245 80.748 C 343.231 81.536,347.949 82.722,349.956 83.187 C 361.266 85.813,373.068 90.170,378.318 93.658 C 388.020 100.103,393.151 108.415,394.762 120.297 C 395.586 126.373,394.268 138.134,392.488 140.595 C 392.418 140.691,392.220 141.164,392.048 141.645 C 387.113 155.434,372.668 164.945,353.631 166.940 C 339.212 168.451,325.516 166.953,315.486 162.769 C 307.446 159.416,301.965 154.677,297.122 146.894 C 296.089 145.234,293.836 140.854,293.027 138.933 C 290.173 132.154,288.329 125.193,288.870 123.236 C 289.486 121.006,291.047 120.531,300.262 119.770 C 302.043 119.623,304.287 119.428,305.249 119.337 C 315.075 118.404,315.786 118.736,317.419 125.022 C 320.382 136.429,329.719 142.957,343.069 142.957 C 357.093 142.957,366.600 136.360,366.649 126.597 C 366.682 120.065,362.604 116.305,352.318 113.382 C 351.260 113.081,350.157 112.765,349.869 112.681 C 349.360 112.531,344.506 111.240,340.945 110.306 C 339.983 110.054,338.959 109.780,338.670 109.696 C 338.381 109.613,336.964 109.260,335.521 108.913 C 330.663 107.744,325.374 106.144,321.347 104.625 C 318.054 103.383,317.161 103.002,314.086 101.533 C 305.925 97.633,298.948 90.450,295.856 82.765 C 292.015 73.217,292.356 62.659,296.789 53.834 C 300.709 46.028,306.589 40.525,314.962 36.824 C 318.242 35.374,320.720 34.596,325.459 33.530 C 328.601 32.824,331.951 32.417,337.008 32.127 C 339.271 31.997,347.861 32.207,350.446 32.455 M32.002 34.561 C 34.159 35.248,34.954 36.787,36.202 42.695 C 36.314 43.224,36.636 44.681,36.917 45.932 C 37.198 47.183,37.670 49.424,37.966 50.913 C 38.262 52.401,38.578 53.897,38.669 54.237 C 39.045 55.649,40.097 60.544,40.775 64.042 C 40.858 64.475,41.000 65.144,41.090 65.529 C 41.554 67.531,42.552 72.100,42.963 74.103 C 43.220 75.354,43.492 76.654,43.569 76.990 C 43.645 77.327,44.028 79.099,44.420 80.927 C 44.812 82.756,45.217 84.646,45.320 85.127 C 45.571 86.295,46.329 89.749,46.646 91.164 C 46.785 91.789,47.183 93.679,47.529 95.363 C 48.232 98.785,48.191 98.592,49.048 102.450 C 49.390 103.990,49.878 106.273,50.132 107.524 C 50.386 108.775,50.791 110.665,51.032 111.724 C 51.856 115.349,51.944 115.750,52.144 116.757 C 52.391 118.000,52.562 117.921,52.916 116.402 C 53.187 115.244,53.867 112.650,54.580 110.061 C 54.779 109.339,55.335 107.253,55.816 105.424 C 56.297 103.596,56.851 101.509,57.048 100.787 C 57.245 100.066,57.755 98.136,58.181 96.500 C 58.608 94.864,59.118 92.935,59.315 92.213 C 59.513 91.492,60.031 89.523,60.466 87.839 C 60.901 86.155,61.408 84.265,61.593 83.640 C 61.777 83.014,62.209 81.400,62.553 80.052 C 63.354 76.918,64.144 73.955,64.653 72.178 C 64.874 71.409,65.094 70.582,65.143 70.341 C 65.257 69.774,66.239 66.033,66.658 64.567 C 66.836 63.941,67.274 62.288,67.630 60.892 C 67.987 59.497,68.622 57.095,69.041 55.556 C 69.787 52.815,70.866 48.768,72.359 43.100 C 74.072 36.601,74.792 35.333,77.220 34.547 C 78.303 34.196,98.442 33.967,102.803 34.256 C 107.505 34.567,108.267 35.463,109.985 42.695 C 110.609 45.319,111.485 48.949,111.632 49.519 C 112.072 51.219,112.799 54.142,114.003 59.055 C 115.267 64.209,115.939 66.942,119.403 81.015 C 120.220 84.335,121.369 89.020,121.957 91.426 C 122.544 93.832,123.145 96.273,123.291 96.850 C 123.726 98.573,125.200 104.559,125.788 106.999 C 126.090 108.250,126.524 109.983,126.752 110.849 C 126.981 111.715,127.378 113.329,127.635 114.436 C 128.446 117.931,128.576 118.433,128.758 118.756 C 128.976 119.146,128.948 119.229,129.573 116.360 C 129.835 115.157,130.110 113.898,130.184 113.561 C 130.257 113.224,130.597 111.610,130.939 109.974 C 131.280 108.338,131.851 105.739,132.207 104.199 C 132.564 102.660,132.917 101.045,132.994 100.612 C 133.107 99.965,133.657 97.455,134.909 91.864 C 134.984 91.527,135.250 90.253,135.500 89.033 C 135.749 87.814,136.320 85.215,136.767 83.259 C 137.214 81.303,137.645 79.348,137.725 78.915 C 137.806 78.482,137.995 77.577,138.145 76.903 C 138.296 76.229,138.531 75.127,138.667 74.453 C 139.036 72.633,139.384 71.082,139.686 69.904 C 139.835 69.326,140.126 67.988,140.335 66.929 C 140.543 65.871,141.071 63.430,141.509 61.505 C 141.947 59.580,142.363 57.690,142.434 57.305 C 142.573 56.552,143.776 50.877,144.011 49.869 C 144.089 49.532,144.477 47.760,144.873 45.932 C 146.952 36.329,147.506 35.131,150.178 34.444 C 151.513 34.100,169.866 34.103,171.414 34.446 C 174.296 35.086,175.367 37.225,174.494 40.595 C 174.382 41.028,174.083 42.288,173.831 43.395 C 173.578 44.501,173.054 46.667,172.667 48.206 C 172.279 49.746,171.902 51.282,171.829 51.619 C 171.432 53.437,170.827 56.014,169.878 59.930 C 167.187 71.028,166.753 72.831,166.315 74.716 C 166.058 75.822,165.470 78.263,165.009 80.140 C 164.549 82.017,163.840 84.969,163.435 86.702 C 163.029 88.434,162.558 90.363,162.386 90.989 C 162.215 91.614,161.861 93.071,161.601 94.226 C 161.340 95.381,160.695 98.097,160.169 100.262 C 159.642 102.428,158.983 105.144,158.705 106.299 C 158.427 107.454,158.031 109.068,157.825 109.886 C 157.619 110.704,157.387 111.689,157.310 112.073 C 157.074 113.250,156.277 116.622,155.385 120.210 C 154.919 122.087,154.170 125.197,153.721 127.122 C 153.272 129.046,152.836 130.818,152.752 131.059 C 152.668 131.299,152.355 132.598,152.055 133.946 C 151.755 135.293,151.124 137.931,150.653 139.808 C 150.182 141.684,149.559 144.283,149.268 145.582 C 148.978 146.881,148.468 149.007,148.136 150.306 C 147.803 151.605,147.322 153.613,147.067 154.768 C 144.798 165.019,145.135 164.827,129.484 164.827 C 113.530 164.827,114.559 165.508,111.449 152.885 C 111.159 151.707,110.735 150.074,110.506 149.256 C 110.278 148.438,109.727 146.312,109.281 144.532 C 108.836 142.752,108.356 140.901,108.216 140.420 C 107.857 139.187,107.189 136.633,106.478 133.771 C 106.143 132.423,105.707 130.731,105.510 130.009 C 105.132 128.627,103.293 121.533,101.744 115.486 C 101.239 113.513,100.436 110.402,99.960 108.574 C 99.484 106.745,98.914 104.541,98.692 103.675 C 98.470 102.808,98.137 101.549,97.950 100.875 C 97.764 100.201,97.346 98.587,97.022 97.288 C 96.697 95.989,96.275 94.335,96.082 93.613 C 95.890 92.892,95.265 90.490,94.694 88.276 C 94.123 86.063,93.046 81.890,92.301 79.003 C 91.555 76.115,90.907 73.576,90.859 73.360 C 90.724 72.742,90.528 72.894,90.295 73.797 C 90.177 74.254,90.018 74.825,89.942 75.066 C 89.664 75.948,89.385 76.980,88.450 80.577 C 87.925 82.598,87.331 84.843,87.130 85.564 C 86.930 86.286,86.531 87.822,86.245 88.976 C 85.958 90.131,85.493 91.867,85.212 92.833 C 84.931 93.799,84.423 95.688,84.083 97.032 C 83.743 98.376,83.315 100.026,83.133 100.700 C 82.315 103.719,81.819 105.590,81.256 107.787 C 80.923 109.086,80.500 110.661,80.316 111.286 C 80.132 111.912,79.544 114.116,79.009 116.185 C 78.475 118.255,77.873 120.538,77.672 121.260 C 77.472 121.982,77.043 123.596,76.720 124.847 C 76.397 126.098,75.970 127.712,75.771 128.434 C 75.369 129.890,74.496 133.201,73.679 136.370 C 73.385 137.511,72.990 138.967,72.801 139.607 C 72.613 140.247,72.055 142.345,71.564 144.269 C 71.072 146.194,70.548 148.163,70.400 148.644 C 70.252 149.125,70.066 149.794,69.987 150.131 C 69.868 150.640,68.923 154.294,68.493 155.906 C 66.059 165.042,66.479 164.829,50.919 164.827 C 35.246 164.826,35.658 165.045,33.584 155.599 C 33.060 153.211,33.006 152.984,32.729 151.969 C 32.650 151.680,32.139 149.482,31.594 147.085 C 31.048 144.687,30.486 142.286,30.343 141.748 C 30.093 140.804,28.634 134.502,28.334 133.071 C 28.253 132.686,27.903 131.229,27.557 129.834 C 27.210 128.438,26.730 126.391,26.492 125.284 C 26.253 124.178,25.829 122.327,25.549 121.172 C 24.484 116.774,23.986 114.654,23.722 113.386 C 23.572 112.664,23.171 110.971,22.830 109.624 C 22.490 108.276,21.977 106.072,21.691 104.724 C 21.406 103.377,21.102 102.038,21.017 101.750 C 20.932 101.461,20.779 100.871,20.677 100.437 C 20.575 100.004,20.332 98.981,20.138 98.163 C 19.943 97.345,19.581 95.770,19.332 94.663 C 19.084 93.556,18.528 91.155,18.096 89.326 C 17.665 87.498,17.238 85.687,17.147 85.302 C 17.056 84.917,16.866 84.090,16.724 83.465 C 16.583 82.839,16.231 81.343,15.943 80.140 C 15.128 76.733,14.750 75.115,14.350 73.316 C 14.147 72.402,13.677 70.394,13.305 68.854 C 12.933 67.314,12.417 65.109,12.157 63.955 C 11.897 62.800,11.265 60.122,10.753 58.005 C 10.240 55.888,9.694 53.526,9.539 52.756 C 9.385 51.986,8.951 50.096,8.575 48.556 C 8.198 47.017,7.724 45.048,7.521 44.182 C 5.745 36.621,6.495 34.696,11.374 34.292 C 14.740 34.013,30.945 34.225,32.002 34.561 M204.462 34.513 C 207.030 35.259,208.370 36.705,211.799 42.432 C 212.548 43.683,213.507 45.258,213.930 45.932 C 215.131 47.845,217.192 51.217,217.653 52.024 C 217.883 52.427,218.405 53.268,218.814 53.893 C 219.599 55.096,223.190 60.909,223.517 61.507 C 223.719 61.876,227.067 67.362,227.734 68.416 C 227.947 68.753,228.657 69.895,229.311 70.954 C 229.965 72.012,230.677 73.154,230.893 73.491 C 231.108 73.828,232.996 76.899,235.089 80.315 C 240.608 89.328,241.623 90.976,242.259 91.951 C 242.573 92.432,242.929 93.023,243.050 93.263 C 243.171 93.504,243.520 94.094,243.826 94.576 C 244.133 95.057,244.725 96.002,245.142 96.675 C 245.559 97.349,246.072 98.176,246.281 98.513 C 246.490 98.850,247.093 99.834,247.620 100.700 C 248.148 101.566,249.212 103.298,249.984 104.549 C 250.756 105.801,251.844 107.572,252.402 108.486 C 252.960 109.401,254.007 111.094,254.730 112.248 C 255.452 113.403,256.198 114.624,256.388 114.961 C 256.578 115.297,256.902 115.809,257.107 116.098 L 257.480 116.623 257.568 77.253 C 257.666 33.451,257.565 36.858,258.808 35.442 C 259.885 34.216,259.966 34.208,270.866 34.211 C 283.927 34.216,283.626 34.092,283.995 39.633 C 284.182 42.454,284.195 155.958,284.008 159.271 C 283.698 164.765,283.570 164.816,269.812 164.824 C 255.405 164.833,256.540 165.366,250.648 155.818 C 249.520 153.990,248.107 151.706,247.509 150.744 C 246.911 149.781,245.893 148.128,245.247 147.069 C 244.601 146.010,243.578 144.357,242.974 143.395 C 242.370 142.432,241.111 140.424,240.177 138.933 C 239.242 137.441,238.404 136.102,238.313 135.958 C 238.222 135.814,237.804 135.105,237.384 134.383 C 236.964 133.661,235.850 131.850,234.909 130.359 C 233.967 128.867,233.060 127.410,232.893 127.122 C 232.725 126.833,231.583 124.983,230.355 123.010 C 229.127 121.037,227.789 118.871,227.382 118.198 C 226.552 116.823,224.573 113.626,221.263 108.311 C 220.034 106.339,218.634 104.055,218.152 103.237 C 217.669 102.419,217.010 101.376,216.686 100.918 C 216.363 100.461,216.098 100.043,216.098 99.989 C 216.098 99.936,215.617 99.129,215.028 98.196 C 214.440 97.264,213.089 95.083,212.027 93.351 C 207.349 85.723,206.347 84.164,206.117 84.164 C 206.020 84.164,205.937 99.519,205.909 122.791 C 205.856 166.059,205.971 162.410,204.621 163.595 C 203.354 164.708,203.003 164.742,192.913 164.742 C 180.529 164.742,180.237 164.649,179.697 160.533 C 179.390 158.189,179.555 38.103,179.867 37.095 C 180.429 35.282,181.645 34.467,184.077 34.274 C 187.021 34.040,203.500 34.234,204.462 34.513 M216.798 121.479 C 220.040 126.492,220.508 127.220,220.731 127.599 C 221.066 128.165,222.280 130.093,223.259 131.609 C 223.795 132.441,225.006 134.331,225.949 135.809 C 226.893 137.286,228.330 139.519,229.143 140.770 C 229.956 142.021,230.778 143.320,230.970 143.657 C 231.161 143.994,232.234 145.687,233.353 147.419 C 235.422 150.620,235.589 150.881,238.058 154.774 C 238.828 155.988,239.576 157.167,239.720 157.393 C 239.864 157.620,240.321 158.343,240.736 158.999 C 241.150 159.655,241.877 160.783,242.352 161.505 C 244.215 164.338,244.288 164.652,243.088 164.661 C 230.287 164.756,215.673 164.642,215.548 164.445 C 215.384 164.186,215.341 120.738,215.504 120.312 C 215.682 119.848,215.830 119.980,216.798 121.479 " stroke="none" fill="#fbfbfb" fill-rule="evenodd"></path><path id="path2" d="M216.000 122.208 C 215.654 122.461,215.332 160.862,215.658 163.035 C 215.858 164.369,214.984 164.288,229.543 164.313 C 244.620 164.339,243.839 164.449,242.520 162.494 C 242.231 162.067,241.995 161.673,241.995 161.619 C 241.995 161.565,241.293 160.435,240.436 159.107 C 239.578 157.779,238.603 156.260,238.268 155.731 C 236.639 153.155,235.434 151.285,234.349 149.645 C 233.694 148.655,232.921 147.435,232.632 146.932 C 232.342 146.430,231.712 145.441,231.232 144.734 C 230.752 144.027,230.211 143.200,230.030 142.897 C 229.849 142.593,229.445 141.951,229.131 141.470 C 226.959 138.141,226.470 137.373,226.159 136.801 C 225.967 136.447,225.449 135.620,225.010 134.964 C 224.570 134.308,223.905 133.259,223.532 132.633 C 223.159 132.008,222.682 131.299,222.471 131.059 C 222.260 130.818,221.949 130.346,221.780 130.009 C 221.611 129.672,221.141 128.924,220.737 128.346 C 220.332 127.769,219.960 127.178,219.909 127.034 C 219.795 126.709,217.486 123.098,216.972 122.441 C 216.540 121.888,216.463 121.870,216.000 122.208 " stroke="none" fill="#d85c40" fill-rule="evenodd"></path><path id="path3" d="M336.308 32.173 C 335.243 32.237,337.119 32.287,340.770 32.291 C 344.560 32.295,347.870 32.385,349.081 32.516 C 351.433 32.772,355.824 33.369,356.955 33.588 C 358.726 33.930,359.223 33.968,358.268 33.688 C 354.399 32.553,343.034 31.769,336.308 32.173 M331.759 32.495 C 329.884 32.704,326.424 33.288,325.284 33.588 C 323.718 34.000,324.177 33.952,327.559 33.347 C 328.955 33.098,331.041 32.808,332.196 32.702 C 333.351 32.597,334.329 32.479,334.369 32.441 C 334.454 32.359,332.644 32.397,331.759 32.495 M322.922 34.121 L 322.572 34.271 322.922 34.271 C 323.115 34.271,323.430 34.203,323.622 34.121 L 323.972 33.970 323.622 33.970 C 323.430 33.970,323.115 34.038,322.922 34.121 M359.580 34.121 C 359.724 34.214,360.000 34.286,360.192 34.281 L 360.542 34.271 360.192 34.121 C 359.669 33.896,359.232 33.896,359.580 34.121 M16.754 34.252 C 18.895 34.280,22.399 34.280,24.541 34.252 C 26.682 34.224,24.930 34.201,20.647 34.201 C 16.365 34.201,14.613 34.224,16.754 34.252 M86.045 34.252 C 88.957 34.279,93.720 34.279,96.632 34.252 C 99.543 34.225,97.161 34.203,91.339 34.203 C 85.516 34.203,83.134 34.225,86.045 34.252 M157.098 34.252 C 159.150 34.280,162.457 34.280,164.447 34.252 C 166.438 34.224,164.759 34.201,160.717 34.201 C 156.675 34.201,155.047 34.224,157.098 34.252 M189.283 34.252 C 191.424 34.280,194.928 34.280,197.069 34.252 C 199.210 34.224,197.458 34.201,193.176 34.201 C 188.893 34.201,187.141 34.224,189.283 34.252 M267.072 34.252 C 269.172 34.280,272.558 34.280,274.596 34.252 C 276.635 34.224,274.917 34.201,270.779 34.201 C 266.640 34.201,264.973 34.224,267.072 34.252 M9.361 34.586 C 5.982 35.614,5.846 38.009,8.573 48.469 C 9.283 51.190,9.109 49.895,8.327 46.632 C 5.932 36.636,6.216 35.264,10.849 34.472 L 11.636 34.337 10.936 34.328 C 10.551 34.324,9.843 34.440,9.361 34.586 M30.775 34.493 C 33.887 35.010,34.496 35.960,35.978 42.607 C 36.539 45.123,36.745 45.872,36.745 45.392 C 36.745 45.304,36.627 44.681,36.482 44.007 C 36.338 43.333,36.097 42.204,35.947 41.497 C 34.797 36.070,33.386 34.229,30.446 34.318 C 29.947 34.333,30.009 34.366,30.775 34.493 M77.238 34.556 C 76.103 34.914,75.466 35.302,75.007 35.914 C 74.483 36.614,73.838 37.877,73.849 38.182 C 73.854 38.306,74.079 37.954,74.350 37.399 C 75.194 35.667,76.063 34.992,77.979 34.581 C 78.813 34.402,78.991 34.325,78.565 34.327 C 78.228 34.329,77.631 34.432,77.238 34.556 M104.488 34.555 C 106.768 34.992,107.739 35.876,108.507 38.216 C 108.943 39.546,109.165 39.668,108.778 38.365 C 107.999 35.740,106.603 34.516,104.219 34.366 L 103.150 34.299 104.488 34.555 M149.820 34.553 C 148.053 35.105,147.143 36.448,146.278 39.781 C 145.634 42.260,144.826 46.197,144.938 46.309 C 144.985 46.356,145.075 46.133,145.137 45.813 C 146.929 36.647,147.633 35.228,150.721 34.557 C 151.552 34.376,151.655 34.323,151.181 34.321 C 150.844 34.320,150.232 34.424,149.820 34.553 M170.814 34.558 C 172.942 34.916,174.131 35.752,174.453 37.117 C 174.567 37.601,174.595 37.629,174.607 37.270 C 174.660 35.729,172.459 34.264,170.166 34.316 C 169.637 34.328,169.794 34.387,170.814 34.558 M182.175 34.594 C 181.147 34.957,180.177 35.987,179.874 37.039 C 179.562 38.119,179.390 158.193,179.697 160.533 C 180.023 163.018,180.835 164.044,182.852 164.516 C 184.521 164.907,201.712 164.835,203.018 164.431 C 204.660 163.923,205.820 162.505,205.759 161.080 C 205.750 160.881,205.641 161.087,205.517 161.538 C 204.739 164.363,204.268 164.488,193.905 164.602 C 180.750 164.748,180.255 164.575,179.877 159.710 C 179.639 156.652,179.646 41.628,179.884 39.118 C 180.203 35.761,180.967 34.866,183.902 34.411 C 184.150 34.373,184.037 34.339,183.640 34.333 C 183.255 34.328,182.595 34.445,182.175 34.594 M203.546 34.573 C 207.096 35.215,207.395 35.567,215.060 48.119 C 215.148 48.263,216.019 49.681,216.995 51.269 C 217.970 52.857,219.299 55.022,219.946 56.080 C 220.594 57.139,221.657 58.871,222.309 59.930 C 222.962 60.989,224.026 62.721,224.674 63.780 C 227.031 67.626,228.712 70.353,231.846 75.416 C 233.604 78.255,235.297 81.010,235.607 81.540 C 235.918 82.069,237.023 83.880,238.062 85.564 C 240.554 89.603,242.242 92.344,244.528 96.063 C 245.563 97.747,246.702 99.598,247.060 100.175 C 248.415 102.360,253.070 109.923,254.358 112.030 C 257.094 116.508,257.738 117.444,257.745 116.951 C 257.746 116.867,257.768 99.081,257.793 77.428 C 257.843 35.062,257.792 37.338,258.721 35.851 C 259.148 35.169,260.047 34.709,261.417 34.473 C 262.178 34.342,262.183 34.336,261.580 34.316 C 259.921 34.262,258.545 35.270,257.970 36.962 C 257.673 37.833,257.652 40.018,257.568 77.253 L 257.480 116.623 257.107 116.098 C 256.902 115.809,256.578 115.297,256.388 114.961 C 256.198 114.624,255.452 113.403,254.730 112.248 C 254.007 111.094,252.960 109.401,252.402 108.486 C 251.844 107.572,250.756 105.801,249.984 104.549 C 249.212 103.298,248.148 101.566,247.620 100.700 C 247.093 99.834,246.490 98.850,246.281 98.513 C 246.072 98.176,245.559 97.349,245.142 96.675 C 244.725 96.002,244.133 95.057,243.826 94.576 C 243.520 94.094,243.171 93.504,243.050 93.263 C 242.929 93.023,242.573 92.432,242.259 91.951 C 241.623 90.976,240.608 89.328,235.089 80.315 C 232.996 76.899,231.108 73.828,230.893 73.491 C 230.677 73.154,229.965 72.012,229.311 70.954 C 228.657 69.895,227.947 68.753,227.734 68.416 C 227.067 67.362,223.719 61.876,223.517 61.507 C 223.190 60.909,219.599 55.096,218.814 53.893 C 218.405 53.268,217.883 52.427,217.653 52.024 C 217.192 51.217,215.131 47.845,213.930 45.932 C 213.507 45.258,212.548 43.683,211.799 42.432 C 207.925 35.963,206.048 34.252,202.887 34.313 C 202.348 34.324,202.499 34.383,203.546 34.573 M280.639 34.551 C 283.025 35.098,283.579 36.035,283.831 39.943 C 284.158 44.997,283.945 160.339,283.607 161.570 C 282.813 164.466,281.953 164.654,269.528 164.654 C 258.497 164.654,257.348 164.484,255.491 162.578 C 254.447 161.506,250.510 155.451,246.735 149.108 C 246.126 148.085,246.043 147.950,243.479 143.832 C 240.475 139.006,238.808 136.314,237.437 134.070 C 235.952 131.642,231.522 124.481,229.567 121.347 C 228.726 120.000,225.537 114.843,222.479 109.886 C 219.422 104.930,216.236 99.773,215.398 98.425 C 214.561 97.078,212.515 93.771,210.851 91.076 C 206.632 84.244,206.204 83.579,205.976 83.503 C 205.824 83.452,205.785 92.917,205.818 121.814 L 205.861 160.192 205.906 122.178 C 205.933 98.766,206.013 84.164,206.114 84.164 C 206.347 84.164,207.336 85.701,212.027 93.351 C 213.089 95.083,214.440 97.264,215.028 98.196 C 215.617 99.129,216.098 99.936,216.098 99.989 C 216.098 100.043,216.363 100.461,216.686 100.918 C 217.010 101.376,217.669 102.419,218.152 103.237 C 218.634 104.055,220.034 106.339,221.263 108.311 C 224.573 113.626,226.552 116.823,227.382 118.198 C 227.789 118.871,229.127 121.037,230.355 123.010 C 231.583 124.983,232.725 126.833,232.893 127.122 C 233.060 127.410,233.967 128.867,234.909 130.359 C 235.850 131.850,236.964 133.661,237.384 134.383 C 237.804 135.105,238.222 135.814,238.313 135.958 C 238.404 136.102,239.242 137.441,240.177 138.933 C 241.111 140.424,242.370 142.432,242.974 143.395 C 243.578 144.357,244.601 146.010,245.247 147.069 C 245.893 148.128,246.911 149.781,247.509 150.744 C 248.107 151.706,249.520 153.990,250.648 155.818 C 256.540 165.366,255.405 164.833,269.812 164.824 C 283.734 164.815,283.698 164.830,284.021 158.875 C 284.339 153.023,284.103 38.178,283.771 37.101 C 283.248 35.405,282.120 34.501,280.351 34.361 C 279.587 34.300,279.607 34.314,280.639 34.551 M321.435 34.483 C 321.194 34.566,320.210 34.880,319.248 35.183 C 300.693 41.010,290.129 58.365,293.960 76.728 C 295.327 83.277,298.774 89.412,303.926 94.467 C 306.986 97.469,315.342 102.914,315.953 102.303 C 316.001 102.256,315.659 102.049,315.194 101.845 C 295.002 92.981,287.258 68.999,298.705 50.785 C 303.330 43.425,309.969 38.494,319.510 35.329 C 321.194 34.770,322.415 34.318,322.222 34.323 C 322.030 34.328,321.675 34.400,321.435 34.483 M360.871 34.421 C 376.182 38.350,386.322 48.203,390.095 62.817 C 390.331 63.731,390.530 64.353,390.538 64.199 C 390.563 63.668,389.529 59.901,388.881 58.168 C 385.720 49.707,379.552 42.617,371.654 38.366 C 369.044 36.961,366.588 35.994,361.755 34.466 C 361.459 34.372,361.066 34.305,360.880 34.316 C 360.557 34.335,360.557 34.340,360.871 34.421 M174.553 38.889 C 174.486 39.490,174.284 40.612,174.103 41.382 C 173.559 43.701,172.880 46.545,172.505 48.078 C 172.310 48.873,172.181 49.614,172.218 49.724 C 172.279 49.909,172.836 47.713,173.867 43.220 C 174.098 42.209,174.359 41.107,174.445 40.770 C 174.641 40.009,174.874 37.795,174.759 37.795 C 174.712 37.795,174.619 38.287,174.553 38.889 M73.404 39.368 C 73.240 39.861,72.770 41.539,72.360 43.098 C 71.949 44.657,71.203 47.451,70.702 49.307 C 70.201 51.163,69.823 52.775,69.861 52.889 C 69.898 53.002,70.061 52.586,70.221 51.963 C 70.382 51.341,70.754 49.926,71.049 48.819 C 71.343 47.712,71.772 46.098,72.001 45.232 C 73.167 40.824,73.356 40.139,73.601 39.418 C 73.747 38.988,73.829 38.600,73.784 38.555 C 73.738 38.510,73.568 38.876,73.404 39.368 M109.079 39.895 C 109.120 40.136,109.278 40.805,109.429 41.382 C 109.726 42.517,112.706 54.653,113.146 56.518 C 113.517 58.095,113.582 58.305,113.668 58.219 C 113.768 58.119,112.930 54.539,111.632 49.519 C 111.545 49.182,111.191 47.725,110.845 46.282 C 109.856 42.155,109.383 40.328,109.186 39.876 L 109.004 39.458 109.079 39.895 M36.760 45.831 C 36.743 46.126,38.150 52.897,38.251 53.004 C 38.399 53.160,38.299 52.539,37.706 49.639 C 37.075 46.554,36.787 45.392,36.760 45.831 M144.629 47.166 C 144.563 47.517,144.549 47.844,144.597 47.892 C 144.645 47.940,144.738 47.692,144.804 47.341 C 144.870 46.990,144.885 46.663,144.836 46.615 C 144.788 46.567,144.695 46.815,144.629 47.166 M144.282 48.647 C 144.207 48.982,144.083 49.532,144.007 49.869 C 143.732 51.079,142.560 56.620,142.434 57.305 C 142.363 57.690,141.947 59.580,141.509 61.505 C 140.477 66.044,140.108 67.900,140.215 68.008 C 140.263 68.055,140.393 67.635,140.505 67.074 C 140.617 66.513,141.131 64.125,141.646 61.767 C 142.162 59.409,142.946 55.787,143.389 53.718 C 143.832 51.649,144.279 49.628,144.382 49.226 C 144.485 48.824,144.536 48.392,144.494 48.266 C 144.451 48.140,144.356 48.311,144.282 48.647 M171.929 50.494 C 171.864 50.750,171.845 50.994,171.886 51.035 C 171.928 51.076,172.014 50.900,172.078 50.644 C 172.143 50.387,172.162 50.144,172.121 50.102 C 172.079 50.061,171.993 50.237,171.929 50.494 M9.099 50.592 C 9.099 50.789,10.021 55.001,10.432 56.680 C 10.878 58.504,11.174 59.286,10.967 58.093 C 10.595 55.957,9.099 49.948,9.099 50.592 M171.122 53.837 C 170.812 55.167,170.025 58.460,169.373 61.155 C 167.455 69.083,167.406 69.301,167.497 69.393 C 167.545 69.441,167.880 68.237,168.240 66.717 C 168.601 65.198,169.390 61.907,169.993 59.405 C 171.685 52.392,171.864 51.596,171.772 51.504 C 171.725 51.456,171.432 52.506,171.122 53.837 M38.385 53.631 C 38.422 53.920,38.776 55.652,39.170 57.480 C 39.565 59.309,39.978 61.238,40.090 61.767 C 40.412 63.302,40.737 64.502,40.753 64.217 C 40.769 63.947,39.834 59.288,39.173 56.343 C 38.738 54.405,38.284 52.841,38.385 53.631 M69.566 53.643 C 69.502 53.900,69.483 54.143,69.524 54.185 C 69.566 54.226,69.652 54.050,69.716 53.793 C 69.781 53.537,69.800 53.293,69.758 53.252 C 69.717 53.211,69.631 53.387,69.566 53.643 M69.161 55.068 C 69.064 55.432,68.583 57.266,68.092 59.143 C 67.601 61.019,67.039 63.145,66.845 63.867 C 65.212 69.914,64.934 71.058,65.143 70.866 C 65.196 70.817,65.559 69.538,65.950 68.023 C 66.341 66.507,66.851 64.579,67.083 63.736 C 68.250 59.496,69.497 54.566,69.422 54.491 C 69.375 54.444,69.258 54.704,69.161 55.068 M336.745 55.824 C 334.705 56.057,334.561 56.169,336.483 56.028 C 338.608 55.872,343.088 55.871,345.232 56.026 C 346.423 56.112,346.671 56.101,346.107 55.985 C 344.961 55.750,338.383 55.638,336.745 55.824 M333.246 56.343 L 332.896 56.493 333.246 56.485 C 333.438 56.480,333.832 56.416,334.121 56.343 L 334.646 56.209 334.121 56.201 C 333.832 56.196,333.438 56.260,333.246 56.343 M347.507 56.343 C 347.747 56.420,348.141 56.483,348.381 56.483 L 348.819 56.483 348.381 56.343 C 348.141 56.266,347.747 56.203,347.507 56.203 L 347.069 56.203 347.507 56.343 M330.971 56.853 C 323.531 58.956,319.924 62.655,320.250 67.847 C 320.574 72.990,325.205 76.607,335.083 79.431 C 335.805 79.638,336.553 79.873,336.745 79.954 C 337.368 80.216,338.614 80.517,338.705 80.426 C 338.753 80.378,338.450 80.248,338.032 80.137 C 333.053 78.826,326.847 76.298,324.476 74.616 C 320.195 71.578,319.118 66.319,321.952 62.290 C 323.459 60.146,327.789 57.801,332.371 56.647 L 332.721 56.559 332.371 56.557 C 332.178 56.556,331.549 56.689,330.971 56.853 M350.219 56.943 C 356.591 58.921,359.678 61.934,361.914 68.359 C 362.974 71.405,364.581 73.972,365.101 73.452 C 365.150 73.404,364.913 73.154,364.576 72.897 C 363.747 72.265,363.214 71.301,362.297 68.779 C 359.685 61.592,355.410 57.524,349.519 56.616 C 349.132 56.557,349.446 56.703,350.219 56.943 M113.736 58.707 C 113.736 58.885,113.813 59.272,113.906 59.568 C 114.000 59.863,114.429 61.562,114.860 63.342 C 116.950 71.992,118.009 76.158,118.069 75.976 C 118.106 75.867,117.534 73.353,116.800 70.391 C 116.065 67.428,115.105 63.548,114.667 61.767 C 113.874 58.546,113.736 58.091,113.736 58.707 M11.048 59.055 C 11.048 59.248,11.116 59.563,11.199 59.755 L 11.349 60.105 11.349 59.755 C 11.349 59.563,11.281 59.248,11.199 59.055 L 11.048 58.705 11.048 59.055 M11.403 60.455 C 11.400 60.647,11.466 60.962,11.549 61.155 C 11.740 61.601,11.740 61.141,11.549 60.542 C 11.436 60.191,11.407 60.174,11.403 60.455 M11.738 61.872 C 11.730 62.075,11.911 63.020,12.140 63.972 C 12.370 64.925,12.818 66.799,13.137 68.138 C 13.456 69.476,13.747 70.484,13.782 70.377 C 13.818 70.270,13.566 69.018,13.223 67.594 C 12.879 66.170,12.408 64.217,12.175 63.255 C 11.942 62.292,11.745 61.670,11.738 61.872 M390.646 65.092 C 391.375 70.496,391.036 71.869,388.747 72.789 C 387.985 73.096,387.937 73.139,388.449 73.056 C 390.917 72.659,391.909 69.476,390.823 65.442 C 390.678 64.905,390.600 64.750,390.646 65.092 M40.790 64.917 C 40.798 65.061,40.868 65.376,40.945 65.617 L 41.085 66.054 41.100 65.617 C 41.108 65.376,41.038 65.061,40.945 64.917 C 40.794 64.684,40.777 64.684,40.790 64.917 M41.120 66.245 C 41.120 66.390,41.310 67.314,42.542 73.138 C 42.862 74.653,43.045 75.243,43.045 74.764 C 43.045 74.301,41.324 66.287,41.197 66.161 C 41.155 66.118,41.120 66.156,41.120 66.245 M140.004 68.504 C 139.990 68.696,139.937 69.051,139.888 69.291 L 139.798 69.729 139.985 69.300 C 140.088 69.063,140.140 68.709,140.101 68.512 C 140.032 68.163,140.029 68.163,140.004 68.504 M166.783 71.865 C 166.487 73.096,166.001 75.127,165.705 76.378 C 165.408 77.629,165.044 79.145,164.895 79.746 C 164.747 80.348,164.652 80.921,164.685 81.020 C 164.747 81.204,165.422 78.562,166.497 73.928 C 166.831 72.485,167.195 70.967,167.304 70.555 C 167.413 70.143,167.462 69.766,167.413 69.717 C 167.363 69.667,167.080 70.634,166.783 71.865 M139.470 70.795 C 139.342 71.363,139.135 72.262,139.009 72.791 C 138.884 73.320,138.700 74.186,138.602 74.716 C 138.503 75.245,138.298 76.229,138.147 76.903 C 137.995 77.577,137.805 78.482,137.723 78.915 C 137.642 79.348,137.090 81.859,136.496 84.495 C 135.902 87.130,135.444 89.414,135.478 89.569 C 135.512 89.724,135.676 89.221,135.843 88.451 C 136.010 87.682,136.260 86.540,136.398 85.914 C 136.537 85.289,136.929 83.478,137.269 81.890 C 137.610 80.302,137.963 78.688,138.054 78.303 C 138.144 77.918,138.383 76.815,138.584 75.853 C 139.152 73.130,139.461 71.717,139.661 70.923 C 139.763 70.521,139.813 70.096,139.774 69.977 C 139.734 69.858,139.597 70.226,139.470 70.795 M13.935 71.304 C 14.064 72.166,14.622 74.622,15.943 80.140 C 16.424 82.150,16.684 83.265,17.166 85.389 C 17.693 87.713,18.519 90.861,18.532 90.594 C 18.547 90.310,18.281 89.136,16.682 82.415 C 16.089 79.920,14.701 73.895,14.325 72.178 C 14.064 70.987,13.798 70.391,13.935 71.304 M64.571 72.481 C 64.353 73.277,64.031 74.440,63.856 75.066 C 63.166 77.533,61.939 82.470,62.001 82.532 C 62.074 82.605,62.483 81.169,63.506 77.253 C 63.883 75.809,64.397 73.850,64.648 72.899 C 64.899 71.948,65.074 71.140,65.036 71.102 C 64.998 71.064,64.789 71.685,64.571 72.481 M90.191 73.447 C 89.602 75.543,89.260 76.790,88.741 78.740 C 87.327 84.051,87.171 84.716,87.396 84.491 C 87.441 84.446,87.911 82.721,88.441 80.656 C 89.375 77.018,89.653 75.982,89.942 75.066 C 90.018 74.825,90.177 74.254,90.295 73.797 C 90.581 72.688,90.689 72.744,91.065 74.197 C 91.241 74.874,91.420 75.393,91.462 75.350 C 91.589 75.223,90.788 72.441,90.624 72.441 C 90.541 72.441,90.346 72.894,90.191 73.447 M386.352 73.316 L 385.739 73.445 386.439 73.465 C 386.824 73.476,387.257 73.409,387.402 73.316 C 387.718 73.111,387.324 73.111,386.352 73.316 M365.562 73.656 C 366.078 73.988,367.660 74.207,369.554 74.209 C 372.291 74.211,385.005 73.673,385.117 73.549 C 385.171 73.490,384.269 73.490,383.115 73.548 C 372.938 74.062,367.548 74.073,365.704 73.583 C 365.348 73.488,365.321 73.502,365.562 73.656 M43.106 75.591 C 43.140 75.927,43.343 76.951,43.555 77.865 C 43.768 78.780,44.248 81.014,44.623 82.830 C 44.998 84.647,45.359 86.182,45.424 86.242 C 45.573 86.379,45.473 85.788,44.804 82.590 C 43.778 77.683,42.985 74.413,43.106 75.591 M91.529 75.727 C 91.508 76.035,93.540 83.974,93.778 84.514 L 93.971 84.952 93.898 84.514 C 93.696 83.297,91.554 75.352,91.529 75.727 M118.140 76.553 C 118.137 76.745,118.203 77.060,118.285 77.253 C 118.477 77.699,118.477 77.239,118.285 76.640 C 118.173 76.289,118.144 76.272,118.140 76.553 M118.460 77.838 C 118.460 78.244,121.130 88.902,121.212 88.820 C 121.257 88.775,121.173 88.240,121.024 87.632 C 118.539 77.495,118.460 77.196,118.460 77.838 M339.252 80.675 C 339.623 80.824,346.829 82.683,347.857 82.895 C 348.097 82.945,349.658 83.329,351.325 83.750 C 352.992 84.170,354.449 84.509,354.562 84.503 C 354.970 84.481,353.964 84.175,351.502 83.572 C 345.075 81.999,343.079 81.501,341.248 81.014 C 339.312 80.500,338.448 80.353,339.252 80.675 M164.404 81.738 C 164.152 82.871,163.300 86.429,162.376 90.201 C 161.444 94.009,160.635 97.412,160.275 99.038 C 160.200 99.374,160.010 100.118,159.853 100.689 C 159.696 101.261,159.590 101.841,159.617 101.978 C 159.668 102.227,160.725 98.106,161.585 94.313 C 161.835 93.206,162.196 91.710,162.386 90.989 C 162.732 89.675,163.625 85.970,164.301 83.045 C 164.498 82.188,164.623 81.451,164.578 81.405 C 164.533 81.360,164.455 81.510,164.404 81.738 M61.645 83.383 C 60.192 88.865,59.893 90.122,60.090 89.924 C 60.230 89.782,61.949 83.046,61.889 82.868 C 61.856 82.769,61.746 83.001,61.645 83.383 M354.856 84.590 C 354.856 84.631,355.308 84.792,355.862 84.947 C 357.574 85.428,359.737 86.082,362.347 86.908 C 363.725 87.344,364.885 87.667,364.925 87.627 C 365.027 87.525,360.531 86.060,357.521 85.215 C 354.906 84.481,354.856 84.469,354.856 84.590 M87.071 85.076 C 87.009 85.297,86.565 86.973,86.084 88.801 C 85.604 90.630,85.056 92.677,84.868 93.351 C 84.679 94.024,84.528 94.694,84.531 94.838 C 84.541 95.219,85.278 92.720,86.079 89.589 C 86.460 88.097,86.896 86.413,87.048 85.846 C 87.199 85.279,87.291 84.783,87.253 84.745 C 87.215 84.707,87.133 84.856,87.071 85.076 M93.978 85.389 C 93.984 85.534,94.056 85.809,94.138 86.002 L 94.289 86.352 94.298 86.002 C 94.304 85.809,94.232 85.534,94.138 85.389 C 93.987 85.156,93.970 85.156,93.978 85.389 M45.508 86.614 C 45.501 86.759,45.614 87.428,45.760 88.102 C 45.906 88.775,46.102 89.681,46.194 90.114 C 46.287 90.547,46.557 91.807,46.794 92.913 C 47.032 94.020,47.454 95.989,47.732 97.288 C 49.683 106.384,50.123 108.337,50.180 108.165 C 50.248 107.962,50.111 107.271,49.064 102.537 C 48.170 98.493,48.225 98.747,47.529 95.363 C 47.183 93.679,46.785 91.789,46.645 91.164 C 46.504 90.538,46.225 89.278,46.024 88.364 C 45.621 86.535,45.529 86.221,45.508 86.614 M94.316 86.629 C 94.319 86.845,94.861 88.988,96.085 93.613 C 96.276 94.335,96.697 95.989,97.021 97.288 C 98.065 101.476,98.632 103.448,98.677 103.051 C 98.690 102.935,98.465 102.051,95.335 89.939 C 94.492 86.672,94.309 86.081,94.316 86.629 M365.200 87.743 C 365.243 87.786,366.300 88.213,367.547 88.691 C 376.388 92.079,381.573 95.426,386.095 100.664 C 391.157 106.527,393.701 112.643,394.662 121.260 C 394.811 122.600,394.893 122.975,394.906 122.384 C 394.942 120.749,394.276 116.633,393.576 114.173 C 390.327 102.749,382.428 94.423,370.166 89.494 C 367.324 88.351,364.983 87.526,365.200 87.743 M121.320 89.545 C 121.377 89.810,121.705 91.168,122.047 92.563 C 122.390 93.959,122.739 95.416,122.824 95.801 C 122.908 96.185,123.172 97.248,123.412 98.163 C 123.651 99.077,124.223 101.380,124.683 103.280 C 125.144 105.180,125.555 106.700,125.597 106.657 C 125.686 106.568,125.554 105.982,124.376 101.225 C 123.136 96.219,122.729 94.559,122.025 91.645 C 121.682 90.225,121.360 89.064,121.309 89.064 C 121.258 89.064,121.263 89.280,121.320 89.545 M135.110 90.999 C 134.981 91.619,134.808 92.362,134.727 92.651 C 134.344 94.007,132.967 100.661,133.016 100.916 C 133.047 101.075,133.532 99.044,134.095 96.403 C 134.657 93.762,135.194 91.346,135.288 91.034 C 135.382 90.722,135.434 90.333,135.402 90.170 C 135.371 90.006,135.239 90.380,135.110 90.999 M59.799 90.413 C 58.526 94.963,57.100 100.593,57.260 100.437 C 57.357 100.344,58.064 97.791,59.052 93.963 C 59.388 92.664,59.755 91.305,59.868 90.944 C 59.981 90.583,60.032 90.245,59.981 90.193 C 59.929 90.142,59.848 90.241,59.799 90.413 M18.577 91.164 C 18.586 91.618,18.862 92.365,18.868 91.951 C 18.871 91.759,18.805 91.444,18.723 91.251 C 18.631 91.037,18.574 91.003,18.577 91.164 M18.898 92.608 C 18.898 92.862,19.180 94.129,20.138 98.163 C 20.333 98.981,20.575 100.004,20.677 100.437 C 20.779 100.871,20.932 101.461,21.017 101.750 C 21.102 102.038,21.407 103.377,21.694 104.724 C 22.378 107.934,23.082 110.807,23.214 110.927 C 23.272 110.980,23.280 110.827,23.232 110.586 C 23.052 109.695,21.677 103.745,20.907 100.525 C 20.654 99.466,20.133 97.224,19.750 95.542 C 19.086 92.633,18.898 91.984,18.898 92.608 M84.284 95.430 C 84.218 95.601,84.169 95.873,84.176 96.034 C 84.183 96.227,84.244 96.183,84.356 95.903 C 84.448 95.671,84.497 95.399,84.464 95.299 C 84.431 95.200,84.350 95.259,84.284 95.430 M82.878 100.898 C 82.226 103.387,81.625 105.621,81.542 105.862 C 81.459 106.102,81.102 107.441,80.749 108.836 C 80.395 110.232,79.951 111.910,79.762 112.566 C 79.573 113.222,79.447 113.843,79.481 113.947 C 79.544 114.136,80.046 112.398,81.108 108.311 C 81.421 107.108,81.888 105.337,82.146 104.374 C 82.404 103.412,82.720 102.231,82.847 101.750 C 82.975 101.269,83.329 99.946,83.634 98.811 C 83.939 97.676,84.160 96.662,84.126 96.559 C 84.091 96.456,83.530 98.408,82.878 100.898 M56.920 101.230 C 55.796 105.452,55.293 107.495,55.362 107.564 C 55.408 107.610,55.523 107.344,55.619 106.973 C 55.715 106.602,56.116 105.085,56.510 103.602 C 56.905 102.118,57.200 100.821,57.166 100.720 C 57.132 100.619,57.022 100.848,56.920 101.230 M132.808 101.386 C 132.808 101.459,132.527 102.751,132.184 104.259 C 131.840 105.766,131.280 108.338,130.939 109.974 C 130.597 111.610,130.257 113.224,130.184 113.561 C 130.110 113.898,129.835 115.157,129.573 116.360 C 128.948 119.229,128.976 119.146,128.758 118.756 C 128.590 118.457,128.468 118.001,127.839 115.311 C 126.816 110.936,126.011 107.890,125.995 108.329 C 125.989 108.484,126.177 109.389,126.413 110.342 C 126.649 111.294,127.166 113.412,127.562 115.048 C 128.910 120.617,128.843 120.574,129.730 116.448 C 130.082 114.812,130.446 113.139,130.539 112.730 C 130.856 111.341,131.040 110.501,131.240 109.536 C 131.350 109.007,131.546 108.101,131.677 107.524 C 132.615 103.372,133.001 101.447,132.912 101.357 C 132.855 101.301,132.808 101.313,132.808 101.386 M159.077 103.953 C 157.565 110.225,157.087 112.213,156.515 114.611 C 156.160 116.102,155.712 117.978,155.521 118.779 C 155.330 119.580,155.211 120.274,155.258 120.321 C 155.346 120.408,156.911 114.117,157.309 112.073 C 157.384 111.689,157.570 110.901,157.722 110.324 C 158.488 107.408,159.589 102.652,159.535 102.490 C 159.502 102.389,159.295 103.047,159.077 103.953 M316.973 102.818 C 317.871 103.307,318.061 103.385,321.347 104.625 C 324.967 105.990,328.741 107.188,328.906 107.023 C 328.954 106.974,328.691 106.853,328.320 106.752 C 325.969 106.116,321.233 104.456,318.548 103.326 C 316.111 102.301,315.892 102.231,316.973 102.818 M98.703 103.587 C 98.708 103.731,98.780 104.007,98.863 104.199 L 99.013 104.549 99.023 104.199 C 99.028 104.007,98.956 103.731,98.863 103.587 C 98.712 103.354,98.694 103.354,98.703 103.587 M99.038 104.871 C 99.038 105.032,99.398 106.522,99.839 108.181 C 100.279 109.841,101.115 113.049,101.696 115.311 C 103.261 121.407,103.294 121.527,103.362 121.322 C 103.397 121.218,103.230 120.394,102.991 119.490 C 102.752 118.587,102.273 116.745,101.926 115.398 C 101.580 114.051,101.016 111.885,100.673 110.586 C 100.330 109.287,99.988 107.948,99.913 107.612 C 99.468 105.610,99.038 104.263,99.038 104.871 M125.649 107.174 C 125.644 107.367,125.716 107.642,125.809 107.787 C 126.034 108.134,126.034 107.697,125.809 107.174 L 125.659 106.824 125.649 107.174 M330.359 107.525 C 331.080 107.763,333.128 108.315,334.908 108.751 C 336.689 109.188,338.387 109.622,338.683 109.715 C 338.978 109.809,339.332 109.881,339.470 109.875 C 339.814 109.860,338.996 109.544,338.145 109.364 C 337.424 109.211,331.624 107.724,330.534 107.412 C 329.228 107.039,329.112 107.114,330.359 107.525 M55.069 108.224 C 55.002 108.513,54.784 109.339,54.583 110.061 C 53.926 112.428,53.197 115.201,52.916 116.402 C 52.562 117.921,52.391 118.000,52.143 116.757 C 51.574 113.915,50.548 109.721,50.632 110.586 C 50.665 110.923,50.903 112.143,51.161 113.298 C 51.420 114.453,51.754 115.989,51.905 116.710 C 52.056 117.432,52.217 118.141,52.263 118.285 C 52.408 118.747,52.761 117.812,53.451 115.136 C 53.811 113.740,54.376 111.622,54.707 110.428 C 55.038 109.235,55.282 108.133,55.249 107.979 C 55.216 107.820,55.138 107.925,55.069 108.224 M50.248 108.836 C 50.246 109.077,50.311 109.431,50.394 109.624 L 50.544 109.974 50.539 109.624 C 50.536 109.431,50.471 109.077,50.394 108.836 L 50.254 108.399 50.248 108.836 M339.823 109.960 C 339.967 110.104,346.843 111.833,346.929 111.747 C 347.024 111.652,347.034 111.655,342.903 110.596 C 340.270 109.920,339.657 109.794,339.823 109.960 M23.297 111.374 C 23.297 111.566,23.364 111.881,23.447 112.073 L 23.597 112.423 23.597 112.073 C 23.597 111.881,23.530 111.566,23.447 111.374 L 23.297 111.024 23.297 111.374 M348.206 112.188 C 348.832 112.381,349.580 112.605,349.869 112.686 C 355.325 114.227,356.261 114.548,358.850 115.766 C 364.365 118.362,366.674 121.569,366.649 126.597 C 366.607 134.980,359.854 140.929,348.469 142.612 C 347.314 142.782,346.675 142.930,347.049 142.940 C 349.247 142.996,354.526 141.683,357.239 140.404 C 365.516 136.501,369.304 127.228,365.323 120.615 C 363.376 117.380,359.196 115.100,350.967 112.783 C 347.656 111.851,345.839 111.459,348.206 112.188 M23.622 112.725 C 23.622 113.096,25.070 119.352,25.718 121.785 C 26.281 123.894,25.986 122.111,25.299 119.248 C 24.953 117.804,24.464 115.717,24.214 114.611 C 23.767 112.640,23.622 112.178,23.622 112.725 M79.265 114.307 C 79.265 114.429,78.506 117.369,77.614 120.704 C 77.043 122.840,76.786 124.180,77.189 122.922 C 77.892 120.726,79.489 114.426,79.372 114.309 C 79.313 114.250,79.265 114.250,79.265 114.307 M308.836 119.007 C 306.955 119.193,304.188 119.439,300.175 119.775 C 287.517 120.835,287.054 121.444,290.596 132.371 C 293.018 139.843,296.130 145.999,300.249 151.466 C 301.957 153.734,306.347 157.742,308.880 159.347 C 311.324 160.895,315.232 162.867,315.441 162.658 C 315.484 162.614,315.099 162.400,314.584 162.181 C 303.792 157.590,295.937 147.881,291.033 133.071 C 287.318 121.852,287.758 121.108,298.688 120.119 C 309.971 119.098,311.420 119.002,312.652 119.193 C 315.123 119.575,315.797 120.325,316.870 123.885 C 320.451 135.768,327.726 142.152,338.495 142.863 L 339.720 142.944 338.670 142.777 C 327.031 140.929,320.032 135.082,317.419 125.022 C 315.960 119.408,314.575 118.437,308.836 119.007 M215.504 120.312 C 215.341 120.738,215.384 164.186,215.548 164.445 C 215.673 164.642,230.287 164.756,243.088 164.661 C 244.288 164.652,244.215 164.338,242.352 161.505 C 241.877 160.783,241.150 159.655,240.736 158.999 C 240.321 158.343,239.864 157.620,239.720 157.393 C 239.576 157.167,238.828 155.988,238.058 154.774 C 235.589 150.881,235.422 150.620,233.353 147.419 C 232.234 145.687,231.161 143.994,230.970 143.657 C 230.778 143.320,229.956 142.021,229.143 140.770 C 228.330 139.519,226.893 137.286,225.949 135.809 C 225.006 134.331,223.795 132.441,223.259 131.609 C 222.280 130.093,221.066 128.165,220.731 127.599 C 220.545 127.283,220.146 126.660,218.636 124.322 C 215.536 119.524,215.717 119.756,215.504 120.312 M154.943 121.085 C 154.877 121.387,154.862 121.674,154.910 121.722 C 154.958 121.770,155.052 121.562,155.118 121.260 C 155.185 120.957,155.200 120.671,155.151 120.622 C 155.103 120.574,155.010 120.782,154.943 121.085 M216.674 122.011 C 217.532 123.187,219.789 126.693,219.909 127.034 C 219.960 127.178,220.332 127.769,220.737 128.346 C 221.141 128.924,221.611 129.672,221.780 130.009 C 221.949 130.346,222.260 130.818,222.471 131.059 C 222.682 131.299,223.159 132.008,223.532 132.633 C 223.905 133.259,224.570 134.308,225.010 134.964 C 225.449 135.620,225.967 136.447,226.159 136.801 C 226.470 137.373,226.959 138.141,229.131 141.470 C 229.445 141.951,229.849 142.593,230.030 142.897 C 230.211 143.200,230.752 144.027,231.232 144.734 C 231.712 145.441,232.342 146.430,232.632 146.932 C 232.921 147.435,233.694 148.655,234.349 149.645 C 235.434 151.285,236.639 153.155,238.268 155.731 C 238.603 156.260,239.578 157.779,240.436 159.107 C 241.293 160.435,241.995 161.565,241.995 161.619 C 241.995 161.673,242.231 162.067,242.520 162.494 C 242.808 162.922,243.045 163.382,243.045 163.516 C 243.045 163.649,243.130 163.812,243.235 163.876 C 243.889 164.281,242.300 164.333,229.933 164.313 C 214.659 164.289,215.827 164.381,215.668 163.193 C 215.375 161.004,215.598 121.071,215.903 121.092 C 215.962 121.096,216.309 121.510,216.674 122.011 M103.412 121.745 C 103.412 122.059,105.667 130.749,106.033 131.846 L 106.208 132.371 106.143 131.846 C 106.107 131.557,105.915 130.731,105.718 130.009 C 105.521 129.287,104.957 127.125,104.466 125.205 C 103.645 121.993,103.412 121.228,103.412 121.745 M154.679 122.062 C 154.678 122.150,154.199 124.191,153.615 126.597 C 153.030 129.003,152.489 131.247,152.412 131.584 C 152.153 132.720,151.537 135.334,151.092 137.183 C 150.848 138.193,150.613 139.256,150.568 139.545 C 150.392 140.685,151.078 138.195,151.885 134.764 C 152.353 132.774,153.015 130.004,153.357 128.609 C 154.449 124.151,154.890 122.110,154.784 122.004 C 154.727 121.948,154.680 121.974,154.679 122.062 M26.168 123.797 C 26.284 124.431,26.854 126.902,27.854 131.108 C 28.055 131.953,28.257 132.606,28.303 132.560 C 28.381 132.483,28.045 130.960,26.736 125.459 C 26.228 123.322,25.914 122.402,26.168 123.797 M76.762 123.828 C 76.715 124.003,76.472 124.934,76.222 125.897 C 75.972 126.859,75.531 128.534,75.242 129.618 C 74.659 131.803,74.550 132.665,75.082 130.884 C 76.013 127.766,77.038 123.699,76.923 123.584 C 76.881 123.542,76.809 123.652,76.762 123.828 M394.988 126.422 C 394.987 127.288,395.017 127.664,395.053 127.258 C 395.090 126.852,395.091 126.143,395.054 125.683 C 395.018 125.223,394.988 125.556,394.988 126.422 M394.699 130.621 C 393.045 147.266,381.002 160.649,363.904 164.844 C 363.443 164.957,363.103 165.086,363.149 165.132 C 363.578 165.561,370.952 162.892,374.453 161.041 C 382.364 156.858,389.365 149.140,392.048 141.645 C 392.220 141.164,392.418 140.691,392.488 140.595 C 393.227 139.573,395.015 131.646,394.891 129.943 C 394.851 129.401,394.803 129.571,394.699 130.621 M74.228 133.433 C 73.226 137.101,72.267 140.856,72.279 141.064 C 72.297 141.363,72.823 139.609,73.575 136.745 C 73.904 135.494,74.297 134.005,74.449 133.436 C 74.601 132.867,74.699 132.322,74.667 132.224 C 74.634 132.126,74.437 132.670,74.228 133.433 M106.212 132.501 C 106.212 132.725,107.119 136.357,107.708 138.495 C 108.053 139.746,108.398 141.045,108.473 141.382 C 108.793 142.802,110.576 149.555,110.738 149.956 C 111.000 150.609,110.970 150.276,110.663 149.134 C 110.513 148.576,109.925 146.308,109.357 144.094 C 106.837 134.283,106.388 132.576,106.303 132.491 C 106.253 132.441,106.212 132.446,106.212 132.501 M28.410 133.246 C 28.592 134.700,30.667 143.256,30.766 142.960 C 30.806 142.840,30.755 142.456,30.654 142.106 C 30.552 141.756,30.386 141.115,30.285 140.682 C 30.010 139.506,29.243 136.168,29.017 135.171 C 28.718 133.849,28.332 132.625,28.410 133.246 M150.241 140.704 C 150.179 141.012,150.161 141.296,150.201 141.335 C 150.240 141.375,150.327 141.160,150.394 140.857 C 150.460 140.555,150.478 140.271,150.433 140.226 C 150.389 140.182,150.302 140.397,150.241 140.704 M72.036 141.624 C 71.970 141.796,71.921 142.067,71.927 142.228 C 71.934 142.421,71.995 142.377,72.107 142.097 C 72.200 141.865,72.249 141.593,72.216 141.494 C 72.182 141.394,72.101 141.453,72.036 141.624 M149.445 143.964 C 149.132 145.287,148.601 147.495,148.266 148.870 C 147.931 150.245,147.686 151.456,147.720 151.560 C 147.784 151.750,148.736 148.029,149.430 144.882 C 149.631 143.968,149.882 142.883,149.988 142.471 C 150.093 142.059,150.143 141.685,150.098 141.640 C 150.052 141.595,149.759 142.641,149.445 143.964 M71.755 142.666 C 71.747 142.746,71.346 144.314,70.864 146.149 C 70.382 147.984,70.020 149.519,70.061 149.559 C 70.210 149.709,71.963 142.988,71.847 142.709 C 71.804 142.605,71.762 142.585,71.755 142.666 M341.426 143.087 C 342.172 143.120,343.392 143.120,344.138 143.087 C 344.884 143.054,344.274 143.028,342.782 143.028 C 341.290 143.028,340.680 143.054,341.426 143.087 M30.826 143.570 C 30.829 143.762,30.894 144.116,30.971 144.357 L 31.111 144.794 31.116 144.357 C 31.119 144.116,31.054 143.762,30.971 143.570 L 30.821 143.220 30.826 143.570 M31.146 145.044 C 31.146 145.252,32.583 151.549,32.838 152.463 C 32.888 152.639,32.963 152.747,33.006 152.704 C 33.050 152.660,32.927 151.965,32.735 151.159 C 32.542 150.353,32.136 148.611,31.833 147.288 C 31.346 145.162,31.146 144.509,31.146 145.044 M69.772 150.175 C 69.612 150.910,68.081 156.688,67.812 157.568 C 67.666 158.049,67.550 158.521,67.556 158.618 C 67.570 158.860,68.031 157.592,68.351 156.430 C 68.857 154.595,69.850 150.741,69.940 150.262 C 70.049 149.688,69.895 149.608,69.772 150.175 M110.936 150.790 C 110.936 150.981,111.527 153.324,112.524 157.091 C 114.612 164.976,114.284 164.827,129.484 164.827 C 142.587 164.827,143.538 164.643,144.976 161.833 C 145.648 160.520,147.535 153.601,147.289 153.355 C 147.240 153.306,147.024 154.037,146.809 154.979 C 144.553 164.870,144.935 164.658,129.422 164.650 C 113.955 164.642,114.810 165.141,112.053 154.506 C 111.143 150.996,110.936 150.307,110.936 150.790 M147.441 152.150 C 147.381 152.307,147.339 152.605,147.347 152.814 C 147.359 153.083,147.412 153.022,147.532 152.605 C 147.707 152.000,147.635 151.644,147.441 152.150 M33.087 153.211 C 33.078 153.413,33.141 153.807,33.227 154.086 C 33.313 154.365,33.481 155.066,33.600 155.643 C 35.528 164.951,35.293 164.826,50.919 164.827 C 63.982 164.829,64.939 164.661,66.400 162.117 C 66.828 161.372,67.628 159.083,67.503 158.959 C 67.463 158.918,67.288 159.336,67.115 159.888 C 65.687 164.444,65.011 164.642,50.893 164.650 C 35.901 164.658,36.003 164.701,34.309 157.743 C 33.315 153.659,33.102 152.870,33.087 153.211 M315.661 162.804 C 315.661 162.959,319.376 164.322,320.939 164.741 C 323.337 165.383,323.431 165.253,321.065 164.566 C 319.948 164.242,318.315 163.696,317.438 163.353 C 315.820 162.721,315.661 162.671,315.661 162.804 M323.360 165.354 C 323.504 165.448,323.780 165.520,323.972 165.514 L 324.322 165.505 323.972 165.354 C 323.449 165.130,323.012 165.130,323.360 165.354 M361.942 165.354 L 361.592 165.505 361.942 165.505 C 362.135 165.505,362.450 165.437,362.642 165.354 L 362.992 165.204 362.642 165.204 C 362.450 165.204,362.135 165.272,361.942 165.354 M325.634 165.889 C 330.471 167.082,339.565 167.712,346.982 167.367 C 350.712 167.193,350.681 167.192,343.307 167.188 C 338.294 167.185,335.272 167.110,334.033 166.957 C 329.971 166.455,328.095 166.183,326.509 165.865 C 324.419 165.447,323.898 165.461,325.634 165.889 M359.668 165.807 C 358.452 166.076,354.182 166.679,352.143 166.870 C 351.374 166.943,350.936 167.032,351.171 167.069 C 352.133 167.222,359.377 166.234,361.067 165.719 C 361.906 165.464,360.949 165.524,359.668 165.807 " stroke="none" fill="#999999" fill-rule="evenodd"></path><path id="path4" d="M339.947 32.326 C 340.746 32.359,342.005 32.359,342.747 32.326 C 343.488 32.293,342.835 32.267,341.295 32.267 C 339.755 32.267,339.149 32.294,339.947 32.326 M334.369 32.441 C 334.329 32.479,333.351 32.597,332.196 32.703 C 330.093 32.895,326.663 33.419,325.022 33.799 C 323.379 34.179,321.528 34.669,321.452 34.745 C 321.315 34.882,321.935 34.824,322.345 34.662 C 324.278 33.898,332.415 32.726,337.445 32.487 C 338.023 32.460,337.583 32.422,336.468 32.404 C 335.354 32.386,334.409 32.402,334.369 32.441 M345.057 32.486 C 349.183 32.702,351.805 32.989,356.255 33.710 C 359.754 34.278,360.747 34.532,364.742 35.887 C 367.301 36.755,367.708 36.862,367.104 36.511 C 366.864 36.371,365.682 35.935,364.479 35.542 C 360.344 34.191,358.277 33.723,353.631 33.086 C 349.553 32.528,347.708 32.365,345.844 32.402 C 344.882 32.420,344.528 32.458,345.057 32.486 M10.685 34.494 C 10.162 34.581,9.690 34.700,9.635 34.759 C 9.581 34.817,9.812 34.805,10.149 34.732 C 11.304 34.481,28.820 34.416,30.359 34.657 C 33.484 35.146,34.547 36.525,35.520 41.352 C 35.634 41.913,35.767 42.331,35.818 42.281 C 36.017 42.082,34.867 37.861,34.331 36.821 C 33.605 35.412,32.653 34.813,30.620 34.483 C 29.225 34.256,12.060 34.266,10.685 34.494 M78.400 34.486 C 77.384 34.686,77.053 34.850,77.953 34.708 C 78.338 34.647,84.204 34.548,90.989 34.487 L 103.325 34.376 91.251 34.355 C 84.611 34.344,78.828 34.403,78.400 34.486 M150.721 34.557 C 147.740 35.205,147.128 36.315,145.511 44.007 C 145.349 44.777,145.136 45.761,145.037 46.194 C 144.755 47.430,144.439 48.869,143.386 53.716 C 142.958 55.688,142.616 57.420,142.627 57.566 C 142.657 57.979,143.671 53.651,144.800 48.294 C 147.438 35.769,147.596 35.422,150.989 34.712 C 152.706 34.353,168.519 34.371,170.574 34.735 C 173.707 35.289,174.741 36.537,174.297 39.229 C 174.190 39.873,174.103 40.536,174.103 40.702 C 174.103 41.309,174.264 40.817,174.454 39.628 C 174.959 36.465,173.919 35.077,170.647 34.546 C 168.519 34.200,152.319 34.209,150.721 34.557 M183.491 34.479 C 183.025 34.557,182.592 34.676,182.529 34.743 C 182.466 34.810,182.690 34.805,183.027 34.731 C 183.364 34.658,187.852 34.547,193.001 34.485 L 202.362 34.373 193.351 34.355 C 188.395 34.345,183.958 34.401,183.491 34.479 M261.417 34.473 C 260.047 34.709,259.148 35.169,258.721 35.851 C 257.792 37.338,257.843 35.062,257.793 77.428 C 257.768 99.081,257.746 116.867,257.745 116.951 C 257.738 117.444,257.094 116.508,254.358 112.030 C 253.070 109.923,248.415 102.360,247.060 100.175 C 246.702 99.598,245.563 97.747,244.528 96.063 C 242.242 92.344,240.554 89.603,238.062 85.564 C 237.023 83.880,235.918 82.069,235.607 81.540 C 235.297 81.010,233.603 78.255,231.845 75.416 C 230.086 72.577,228.117 69.388,227.469 68.329 C 226.232 66.310,224.163 62.942,222.255 59.843 C 221.633 58.832,220.594 57.139,219.946 56.080 C 219.299 55.022,217.970 52.857,216.995 51.269 C 216.019 49.681,215.148 48.263,215.060 48.119 C 208.421 37.246,207.415 35.877,205.474 35.058 C 204.515 34.654,204.413 34.810,205.341 35.259 C 206.982 36.053,208.856 38.231,210.762 41.557 C 211.038 42.038,211.663 43.066,212.150 43.840 C 213.244 45.578,213.357 45.761,213.878 46.632 C 214.108 47.017,215.028 48.513,215.921 49.956 C 216.815 51.400,218.392 53.959,219.425 55.643 C 222.728 61.023,225.474 65.486,226.424 67.017 C 226.931 67.835,227.901 69.409,228.578 70.516 C 229.256 71.623,230.224 73.198,230.731 74.016 C 232.372 76.666,233.357 78.274,234.212 79.703 C 234.969 80.968,235.477 81.787,236.655 83.640 C 236.869 83.976,237.478 84.961,238.009 85.827 C 238.539 86.693,240.136 89.291,241.558 91.601 C 245.410 97.858,246.379 99.440,247.215 100.834 C 247.632 101.530,248.348 102.690,248.806 103.412 C 249.265 104.134,250.217 105.669,250.922 106.824 C 251.627 107.979,252.690 109.711,253.285 110.674 C 253.879 111.636,254.821 113.171,255.378 114.086 C 257.440 117.474,257.727 117.809,257.987 117.134 C 258.045 116.981,258.093 99.324,258.094 77.895 C 258.095 52.102,258.156 38.559,258.275 37.826 C 258.483 36.542,259.127 35.413,259.805 35.143 C 261.113 34.623,261.852 34.577,270.604 34.477 L 279.703 34.373 270.954 34.355 C 266.142 34.345,261.850 34.398,261.417 34.473 M104.112 34.678 C 107.689 35.427,107.749 35.540,110.494 46.632 C 111.613 51.155,112.648 55.328,112.795 55.906 C 113.224 57.596,113.697 59.515,114.648 63.430 C 115.139 65.451,115.572 67.014,115.609 66.904 C 115.676 66.706,114.243 60.591,113.564 58.180 C 113.483 57.892,113.295 57.143,113.147 56.518 C 112.999 55.892,112.201 52.625,111.374 49.256 C 110.547 45.888,109.749 42.620,109.600 41.995 C 108.224 36.192,106.758 34.325,103.710 34.492 C 103.498 34.503,103.679 34.587,104.112 34.678 M202.800 34.646 C 203.040 34.723,203.513 34.784,203.850 34.783 L 204.462 34.779 203.937 34.646 C 203.167 34.450,202.188 34.450,202.800 34.646 M280.610 34.731 C 281.957 35.060,282.750 35.623,283.181 36.555 L 283.552 37.358 283.552 99.213 C 283.552 150.758,283.513 161.203,283.315 161.884 C 283.016 162.911,282.342 163.563,281.156 163.972 C 280.512 164.195,280.364 164.295,280.672 164.299 C 281.959 164.315,283.161 163.199,283.607 161.570 C 283.945 160.339,284.158 44.997,283.831 39.943 C 283.571 35.918,282.494 34.363,280.052 34.491 C 279.860 34.501,280.111 34.609,280.610 34.731 M8.486 35.148 C 6.632 36.300,6.388 38.064,7.428 42.782 C 8.246 46.493,8.907 49.210,9.016 49.313 C 9.174 49.464,9.069 48.945,8.096 44.794 C 6.550 38.196,6.652 36.488,8.661 35.329 C 9.143 35.051,9.418 34.823,9.274 34.823 C 9.129 34.822,8.775 34.969,8.486 35.148 M76.290 35.125 C 74.630 36.211,73.416 38.947,72.312 44.094 C 72.046 45.335,72.507 44.024,73.236 41.469 C 74.467 37.153,75.126 35.952,76.728 35.111 C 77.017 34.959,77.135 34.836,76.990 34.837 C 76.846 34.838,76.531 34.968,76.290 35.125 M181.250 35.341 C 180.403 36.040,180.095 36.896,179.882 39.144 C 179.646 41.630,179.642 156.681,179.877 159.710 C 180.124 162.888,181.142 164.351,183.065 164.292 C 183.308 164.285,183.103 164.157,182.542 163.965 C 180.627 163.313,180.249 162.521,180.026 158.697 C 179.762 154.189,179.936 38.601,180.208 37.584 C 180.485 36.546,181.030 35.729,181.789 35.219 C 182.113 35.000,182.267 34.821,182.130 34.821 C 181.994 34.821,181.598 35.055,181.250 35.341 M318.460 35.669 C 301.635 41.578,291.373 57.004,293.590 73.053 C 293.656 73.535,293.711 71.999,293.712 69.641 C 293.717 53.684,302.897 41.211,318.568 35.869 C 319.988 35.385,321.187 34.952,321.234 34.905 C 321.459 34.680,320.617 34.912,318.460 35.669 M369.991 37.992 C 381.126 43.577,388.289 53.267,390.479 65.704 C 391.596 72.049,390.432 73.125,382.152 73.404 C 368.122 73.877,367.436 73.876,365.864 73.383 C 364.614 72.991,363.438 71.579,362.896 69.818 C 360.529 62.125,356.563 58.052,349.949 56.526 C 346.836 55.808,345.787 55.640,344.609 55.669 C 344.037 55.684,343.806 55.722,344.094 55.755 C 355.032 57.002,359.065 59.888,362.297 68.779 C 364.294 74.273,364.518 74.335,380.140 73.689 C 390.073 73.279,391.325 72.641,391.004 68.154 C 390.241 57.475,383.914 46.745,374.628 40.379 C 373.285 39.458,368.124 36.738,367.749 36.754 C 367.635 36.759,368.644 37.316,369.991 37.992 M173.841 41.645 C 173.774 41.947,173.759 42.234,173.807 42.282 C 173.856 42.330,173.949 42.122,174.016 41.820 C 174.082 41.517,174.097 41.230,174.049 41.182 C 174.001 41.134,173.907 41.342,173.841 41.645 M35.882 42.849 C 35.876 43.079,35.948 43.551,36.042 43.899 C 36.136 44.247,36.493 45.871,36.836 47.507 C 37.803 52.121,38.395 54.589,38.262 53.456 C 38.068 51.792,35.901 42.138,35.882 42.849 M172.809 45.940 C 172.351 47.860,171.739 50.395,171.450 51.572 C 171.160 52.750,170.950 53.795,170.983 53.895 C 171.040 54.064,171.673 51.664,172.509 48.119 C 172.701 47.301,173.066 45.784,173.320 44.748 C 173.573 43.712,173.750 42.771,173.712 42.657 C 173.673 42.543,173.268 44.020,172.809 45.940 M71.969 45.319 C 71.738 46.292,70.857 49.610,70.086 52.406 C 69.768 53.561,69.057 56.238,68.506 58.355 C 67.955 60.472,67.313 62.901,67.078 63.752 C 66.844 64.603,66.417 66.218,66.129 67.339 C 65.842 68.461,65.411 70.087,65.172 70.954 C 64.323 74.025,62.817 79.817,62.817 80.006 C 62.817 80.353,63.020 80.005,63.165 79.410 C 63.447 78.250,65.098 71.966,65.524 70.429 C 65.764 69.563,66.246 67.752,66.594 66.404 C 66.942 65.057,67.529 62.852,67.897 61.505 C 68.266 60.157,68.925 57.677,69.362 55.993 C 69.798 54.309,70.632 51.159,71.213 48.994 C 71.795 46.829,72.245 44.939,72.214 44.794 C 72.182 44.650,72.072 44.886,71.969 45.319 M9.171 50.044 C 9.226 50.548,10.084 54.374,10.838 57.480 C 10.932 57.865,11.127 58.692,11.272 59.318 C 11.529 60.430,11.986 62.380,13.129 67.241 C 13.441 68.567,13.730 69.618,13.772 69.575 C 13.867 69.481,13.364 67.139,12.347 62.940 C 11.923 61.188,11.364 58.810,11.106 57.655 C 10.378 54.401,9.097 49.361,9.171 50.044 M38.320 54.209 C 38.320 54.388,39.382 59.568,39.899 61.911 C 40.012 62.422,40.149 62.797,40.203 62.743 C 40.257 62.688,40.208 62.230,40.094 61.725 C 39.981 61.219,39.573 59.314,39.189 57.492 C 38.562 54.523,38.320 53.608,38.320 54.209 M170.260 56.551 C 169.955 57.832,169.248 60.770,168.689 63.080 C 168.131 65.389,167.423 68.342,167.116 69.641 C 166.809 70.941,166.218 73.381,165.803 75.066 C 164.758 79.307,164.583 80.127,164.697 80.241 C 164.752 80.295,164.851 80.078,164.918 79.759 C 165.090 78.939,165.941 75.351,166.841 71.654 C 167.262 69.921,167.776 67.795,167.981 66.929 C 168.187 66.063,168.825 63.425,169.399 61.067 C 170.807 55.283,171.002 54.408,170.901 54.308 C 170.854 54.260,170.566 55.270,170.260 56.551 M339.684 55.598 C 340.435 55.631,341.616 55.631,342.309 55.598 C 343.002 55.565,342.388 55.538,340.945 55.538 C 339.501 55.538,338.934 55.565,339.684 55.598 M334.821 55.862 C 325.165 57.413,320.049 61.355,320.038 67.254 C 320.026 73.083,324.511 76.596,336.395 80.063 C 337.550 80.400,339.007 80.828,339.633 81.014 C 342.438 81.850,347.329 83.001,347.472 82.858 C 347.514 82.816,347.322 82.730,347.046 82.668 C 344.087 81.996,337.457 80.248,336.745 79.952 C 336.553 79.872,335.805 79.638,335.083 79.431 C 323.838 76.216,319.134 71.729,320.378 65.404 C 321.146 61.502,325.347 58.201,331.346 56.786 C 334.050 56.148,333.761 56.195,337.620 55.755 C 337.909 55.722,337.633 55.695,337.008 55.695 C 336.382 55.694,335.398 55.770,334.821 55.862 M141.568 62.161 C 140.688 66.228,140.355 67.745,139.963 69.466 C 139.756 70.374,139.583 71.160,139.214 72.878 C 139.069 73.552,138.789 74.838,138.592 75.735 C 138.239 77.338,138.152 78.005,138.315 77.841 C 138.389 77.767,138.688 76.505,139.117 74.453 C 139.526 72.494,140.576 67.625,140.870 66.317 C 141.319 64.324,142.087 60.796,142.261 59.930 C 142.595 58.268,142.648 57.918,142.569 57.918 C 142.523 57.918,142.073 59.827,141.568 62.161 M40.317 63.430 C 40.382 64.002,40.756 65.841,41.741 70.429 C 42.544 74.171,42.655 74.661,42.866 75.416 L 43.038 76.028 42.962 75.328 C 42.921 74.943,42.722 73.880,42.520 72.966 C 42.318 72.052,41.880 70.004,41.545 68.416 C 40.886 65.287,40.221 62.587,40.317 63.430 M115.661 67.351 C 115.661 67.471,116.286 70.102,117.050 73.198 C 118.644 79.651,121.308 90.493,122.150 93.955 C 122.466 95.250,122.755 96.214,122.794 96.098 C 122.832 95.983,122.742 95.396,122.594 94.794 C 121.826 91.684,118.315 77.438,117.151 72.709 C 115.916 67.691,115.661 66.774,115.661 67.351 M13.835 70.114 C 13.829 70.326,13.893 70.681,13.979 70.902 C 14.064 71.123,14.219 71.697,14.324 72.178 C 14.902 74.835,16.495 81.638,16.554 81.700 C 16.682 81.836,16.624 81.146,16.453 80.510 C 16.359 80.162,16.131 79.208,15.945 78.390 C 14.374 71.472,13.857 69.441,13.835 70.114 M90.321 72.222 C 90.086 72.688,89.186 76.296,89.282 76.392 C 89.328 76.438,89.583 75.655,89.849 74.652 C 90.626 71.721,90.578 71.707,91.497 75.161 C 92.422 78.643,93.791 83.926,93.964 84.689 C 94.041 85.026,94.273 85.932,94.480 86.702 C 94.998 88.622,96.498 94.404,98.341 101.575 C 98.613 102.633,99.047 104.287,99.305 105.249 C 99.563 106.212,99.835 107.275,99.908 107.612 C 99.982 107.948,100.281 109.129,100.574 110.236 C 100.866 111.343,101.156 112.474,101.217 112.750 C 101.279 113.026,101.368 113.213,101.416 113.165 C 101.503 113.079,100.673 109.577,99.812 106.387 C 99.565 105.472,98.929 103.031,98.398 100.962 C 97.868 98.893,97.289 96.649,97.111 95.976 C 96.933 95.302,96.302 92.861,95.709 90.551 C 95.116 88.241,94.567 86.115,94.490 85.827 C 94.412 85.538,93.860 83.412,93.261 81.102 C 92.663 78.793,91.959 76.076,91.697 75.066 C 90.871 71.882,90.686 71.501,90.321 72.222 M293.803 74.390 C 293.731 76.625,295.708 82.541,297.707 86.072 C 302.179 93.970,308.905 99.468,319.092 103.552 C 321.935 104.692,322.318 104.834,324.234 105.464 C 328.532 106.876,329.614 107.192,333.931 108.298 C 335.463 108.690,336.795 109.011,336.891 109.011 C 337.389 109.011,336.611 108.772,333.761 108.047 C 309.487 101.877,297.710 92.396,294.316 76.290 C 294.042 74.991,293.812 74.136,293.803 74.390 M43.045 76.248 C 43.045 76.352,43.284 77.566,43.576 78.945 C 43.868 80.324,44.182 81.807,44.272 82.240 C 44.415 82.922,44.591 83.720,45.316 86.964 C 45.392 87.301,45.780 89.151,46.180 91.076 C 47.015 95.099,47.722 98.036,47.750 97.601 C 47.760 97.436,47.619 96.649,47.435 95.851 C 47.251 95.053,46.926 93.574,46.714 92.563 C 46.501 91.553,46.266 90.451,46.192 90.114 C 45.970 89.108,45.389 86.384,44.643 82.852 C 43.381 76.873,43.045 75.484,43.045 76.248 M89.018 76.990 C 88.960 77.231,88.747 78.018,88.543 78.740 C 87.342 82.996,86.630 85.933,86.849 85.730 C 86.906 85.677,87.314 84.221,87.756 82.493 C 88.198 80.766,88.718 78.816,88.910 78.160 C 89.103 77.504,89.229 76.874,89.191 76.760 C 89.153 76.646,89.075 76.750,89.018 76.990 M137.961 78.643 C 137.895 78.994,137.880 79.321,137.928 79.369 C 137.976 79.417,138.070 79.169,138.136 78.818 C 138.201 78.467,138.216 78.140,138.168 78.092 C 138.120 78.044,138.026 78.292,137.961 78.643 M137.380 81.382 C 137.161 82.383,136.789 84.108,136.553 85.214 C 136.107 87.309,135.540 89.873,135.257 91.076 C 135.167 91.461,134.379 95.083,133.507 99.125 C 132.635 103.167,131.810 106.947,131.675 107.524 C 131.539 108.101,131.296 109.204,131.135 109.974 C 130.973 110.744,130.772 111.689,130.686 112.073 C 130.381 113.448,130.342 114.057,130.619 113.123 C 130.941 112.037,131.129 111.190,132.833 103.150 C 133.044 102.157,133.040 102.172,133.997 97.900 C 134.386 96.168,134.834 94.081,134.995 93.263 C 135.251 91.955,135.559 90.561,136.136 88.101 C 136.826 85.155,137.898 79.922,137.844 79.760 C 137.807 79.651,137.598 80.381,137.380 81.382 M62.567 80.765 C 62.503 81.021,62.490 81.271,62.538 81.319 C 62.586 81.367,62.678 81.196,62.742 80.940 C 62.807 80.683,62.820 80.434,62.772 80.386 C 62.724 80.338,62.632 80.508,62.567 80.765 M163.365 85.317 C 162.714 88.003,162.097 90.538,161.994 90.950 C 161.891 91.362,161.847 91.739,161.896 91.788 C 161.982 91.874,162.371 90.346,163.707 84.689 C 164.036 83.294,164.394 81.866,164.501 81.516 C 164.609 81.167,164.663 80.780,164.622 80.656 C 164.581 80.533,164.015 82.630,163.365 85.317 M62.306 81.572 C 62.274 81.849,60.260 89.542,59.840 90.989 C 59.742 91.325,59.388 92.664,59.053 93.963 C 58.717 95.262,58.166 97.349,57.827 98.600 C 56.123 104.896,55.424 107.572,55.360 108.049 C 55.205 109.206,56.057 106.309,57.212 101.750 C 57.578 100.306,58.198 97.944,58.591 96.500 C 61.031 87.537,62.487 81.856,62.398 81.642 C 62.355 81.538,62.314 81.506,62.306 81.572 M16.623 82.041 C 16.623 82.124,16.773 82.813,16.956 83.572 C 17.140 84.331,17.580 86.212,17.934 87.752 C 18.288 89.291,18.847 91.693,19.175 93.088 C 19.503 94.484,20.094 97.003,20.488 98.688 C 21.142 101.486,21.347 102.208,21.347 101.716 C 21.347 101.576,20.324 96.982,19.874 95.101 C 19.828 94.908,19.552 93.766,19.261 92.563 C 18.969 91.360,18.530 89.471,18.284 88.364 C 17.249 83.712,16.623 81.326,16.623 82.041 M347.769 83.035 C 347.990 83.120,350.745 83.847,353.806 84.627 C 356.933 85.424,356.676 85.351,360.980 86.692 C 364.237 87.707,366.921 88.630,368.362 89.230 C 368.584 89.322,369.318 89.609,369.991 89.867 C 383.102 94.885,392.148 105.559,394.058 118.265 C 395.272 126.346,394.878 131.971,392.597 139.108 C 392.174 140.430,391.988 140.873,390.647 143.745 C 385.514 154.740,375.168 162.299,361.173 165.281 C 357.651 166.031,351.711 166.804,348.031 166.991 C 347.461 167.020,347.705 167.053,348.632 167.072 C 351.674 167.135,358.974 166.120,363.080 165.063 C 376.557 161.595,385.300 154.939,390.732 144.013 C 398.499 128.389,395.248 108.237,383.265 97.722 C 376.934 92.168,370.745 89.258,356.430 85.105 C 352.833 84.062,346.525 82.554,347.769 83.035 M205.706 83.391 C 205.647 83.544,205.599 100.909,205.599 121.982 C 205.599 157.016,205.575 160.394,205.310 161.446 C 204.951 162.875,204.285 163.601,202.954 164.014 C 202.175 164.256,202.124 164.293,202.659 164.230 C 203.643 164.115,204.503 163.633,204.914 162.969 C 205.808 161.522,205.770 163.350,205.772 121.989 C 205.774 92.977,205.824 83.452,205.976 83.503 C 206.204 83.579,206.632 84.244,210.851 91.076 C 212.515 93.771,214.561 97.078,215.398 98.425 C 216.236 99.773,219.422 104.930,222.479 109.886 C 225.537 114.843,228.726 120.000,229.567 121.347 C 231.522 124.481,235.952 131.642,237.437 134.070 C 238.808 136.314,240.475 139.006,243.479 143.832 C 246.043 147.950,246.126 148.085,246.735 149.108 C 247.809 150.912,252.694 158.750,253.626 160.164 C 255.677 163.276,256.942 164.146,259.879 164.468 C 261.777 164.676,277.271 164.690,279.090 164.486 C 279.716 164.415,275.542 164.345,269.816 164.329 C 255.955 164.291,256.672 164.524,253.052 158.867 C 251.553 156.523,245.765 147.203,244.475 145.057 C 244.042 144.335,243.263 143.075,242.745 142.257 C 242.226 141.439,241.321 139.983,240.732 139.020 C 239.259 136.612,237.400 133.601,234.519 128.959 C 230.848 123.043,228.440 119.152,226.886 116.623 C 226.118 115.372,225.088 113.703,224.599 112.913 C 221.908 108.574,221.243 107.495,221.085 107.212 C 220.989 107.040,220.209 105.780,219.353 104.412 C 218.497 103.044,217.166 100.901,216.395 99.650 C 215.624 98.399,214.382 96.391,213.635 95.188 C 212.887 93.985,211.251 91.347,209.999 89.326 C 205.712 82.409,205.954 82.744,205.706 83.391 M86.559 86.156 C 86.493 86.328,86.444 86.599,86.450 86.760 C 86.458 86.953,86.518 86.909,86.630 86.629 C 86.723 86.397,86.772 86.125,86.739 86.026 C 86.706 85.926,86.625 85.985,86.559 86.156 M86.016 88.208 C 85.841 88.823,85.277 90.941,84.764 92.913 C 84.251 94.886,83.668 97.091,83.469 97.813 C 82.486 101.376,81.358 105.913,81.436 105.991 C 81.484 106.039,81.577 105.852,81.643 105.576 C 81.709 105.300,82.139 103.657,82.599 101.925 C 83.060 100.192,83.645 97.988,83.899 97.025 C 84.154 96.063,84.551 94.567,84.782 93.701 C 85.013 92.835,85.482 91.070,85.825 89.779 C 86.454 87.415,86.610 86.127,86.016 88.208 M160.891 95.482 C 160.439 97.389,159.648 100.682,159.134 102.800 C 157.350 110.146,157.118 111.162,157.184 111.355 C 157.220 111.461,157.504 110.486,157.816 109.186 C 159.227 103.296,159.617 101.680,159.868 100.700 C 160.016 100.122,160.198 99.374,160.273 99.038 C 160.550 97.802,161.353 94.370,161.618 93.295 C 161.767 92.688,161.850 92.150,161.802 92.102 C 161.753 92.053,161.343 93.574,160.891 95.482 M122.850 96.588 C 122.855 96.732,122.927 97.008,123.010 97.200 L 123.160 97.550 123.170 97.200 C 123.175 97.008,123.103 96.732,123.010 96.588 C 122.859 96.355,122.841 96.355,122.850 96.588 M123.185 97.806 C 123.185 98.045,123.801 100.683,124.434 103.150 C 124.978 105.273,125.135 105.907,125.432 107.174 C 126.479 111.637,127.729 116.586,127.837 116.696 C 127.984 116.845,127.895 116.374,127.375 114.252 C 127.081 113.054,126.646 111.247,126.407 110.236 C 126.168 109.226,125.895 108.123,125.800 107.787 C 125.579 107.004,124.197 101.374,123.706 99.256 C 123.373 97.821,123.185 97.297,123.185 97.806 M47.769 98.178 C 47.769 98.452,48.718 103.006,49.698 107.437 C 49.773 107.773,49.920 108.443,50.026 108.924 C 50.410 110.665,50.531 111.055,50.551 110.606 C 50.561 110.377,50.491 109.905,50.395 109.557 C 50.300 109.209,49.700 106.483,49.062 103.500 C 47.974 98.410,47.769 97.565,47.769 98.178 M21.412 102.450 C 21.476 103.014,22.393 107.051,23.358 111.024 C 23.686 112.371,24.114 114.182,24.310 115.048 C 24.676 116.661,25.638 120.844,25.815 121.587 C 25.869 121.815,25.949 121.966,25.991 121.924 C 26.074 121.841,25.223 117.876,24.325 114.162 C 23.641 111.332,23.438 110.464,22.666 107.087 C 21.975 104.064,21.321 101.645,21.412 102.450 M80.957 107.213 C 80.802 107.769,80.322 109.602,79.891 111.286 C 79.459 112.970,78.866 115.214,78.573 116.273 C 77.711 119.389,76.954 122.507,77.040 122.592 C 77.083 122.636,77.327 121.862,77.581 120.872 C 78.121 118.769,78.905 115.788,79.424 113.867 C 80.830 108.658,81.403 106.367,81.321 106.284 C 81.276 106.239,81.112 106.657,80.957 107.213 M54.621 110.716 C 54.317 111.847,53.768 113.917,53.400 115.314 C 53.032 116.711,52.643 118.010,52.537 118.201 C 52.306 118.612,52.300 118.598,51.905 116.710 C 50.924 112.018,50.569 110.561,50.569 111.232 C 50.569 111.466,51.702 116.907,51.974 117.979 C 52.268 119.136,52.668 118.955,53.030 117.502 C 53.102 117.211,53.326 116.382,53.528 115.661 C 54.248 113.078,55.307 108.792,55.241 108.726 C 55.204 108.688,54.925 109.584,54.621 110.716 M337.358 109.186 C 337.502 109.280,337.778 109.352,337.970 109.346 L 338.320 109.337 337.970 109.186 C 337.447 108.962,337.010 108.962,337.358 109.186 M338.592 109.420 C 338.646 109.479,340.260 109.925,342.179 110.411 C 344.099 110.898,346.063 111.411,346.544 111.551 C 347.025 111.692,348.994 112.246,350.919 112.781 C 362.886 116.111,366.827 119.535,366.820 126.597 C 366.812 134.139,360.772 140.372,351.663 142.237 C 341.887 144.239,332.449 142.888,326.334 138.612 C 321.842 135.471,319.055 131.133,316.870 123.885 C 315.948 120.824,314.808 119.278,313.526 119.347 C 313.401 119.354,313.623 119.504,314.021 119.681 C 315.276 120.240,315.973 121.452,316.978 124.829 C 320.771 137.572,328.852 143.250,343.132 143.205 C 353.819 143.172,360.744 140.307,364.760 134.257 C 366.857 131.097,367.757 125.942,366.709 123.097 C 364.738 117.752,360.988 115.324,350.044 112.308 C 345.850 111.153,341.111 109.895,340.245 109.707 C 339.860 109.623,339.309 109.501,339.020 109.434 C 338.731 109.368,338.539 109.361,338.592 109.420 M156.955 111.856 C 156.955 111.913,156.610 113.363,156.187 115.078 C 155.765 116.794,155.171 119.261,154.868 120.560 C 154.565 121.859,154.088 123.828,153.809 124.934 C 153.030 128.015,152.395 130.931,152.484 131.020 C 152.528 131.064,152.608 130.913,152.661 130.686 C 153.072 128.935,154.321 123.713,155.021 120.822 C 155.487 118.898,156.160 116.116,156.516 114.641 C 156.872 113.167,157.116 111.913,157.059 111.856 C 157.002 111.799,156.955 111.799,156.955 111.856 M101.501 113.518 C 101.494 113.639,101.679 114.465,101.914 115.355 C 102.423 117.285,103.493 121.421,104.573 125.634 C 105.859 130.652,106.030 131.285,106.123 131.378 C 106.336 131.591,104.743 125.036,103.770 121.697 C 103.686 121.409,103.250 119.716,102.802 117.935 C 101.971 114.637,101.526 113.124,101.501 113.518 M129.681 116.711 C 128.938 120.153,128.731 120.253,128.167 117.442 C 128.103 117.122,128.010 116.901,127.960 116.951 C 127.910 117.001,127.965 117.459,128.081 117.970 C 128.574 120.136,128.970 120.595,129.296 119.379 C 129.696 117.889,130.369 114.532,130.320 114.275 C 130.291 114.123,130.003 115.219,129.681 116.711 M309.711 119.160 C 308.814 119.251,309.054 119.276,310.849 119.283 C 312.505 119.289,312.909 119.253,312.336 119.151 C 311.463 118.996,311.338 118.996,309.711 119.160 M305.599 119.510 L 304.899 119.635 305.687 119.650 C 306.120 119.658,306.789 119.600,307.174 119.520 L 307.874 119.375 307.087 119.380 C 306.654 119.383,305.984 119.441,305.599 119.510 M300.175 119.965 C 292.195 120.775,291.224 120.947,290.157 121.733 C 288.440 123.000,288.666 125.921,291.033 133.071 C 297.843 153.639,309.810 163.824,330.271 166.469 C 334.656 167.035,335.384 167.104,336.745 167.076 C 337.515 167.061,337.870 167.022,337.533 166.991 C 337.196 166.960,335.936 166.850,334.733 166.746 C 332.106 166.521,327.069 165.813,325.372 165.429 C 324.698 165.277,323.950 165.112,323.710 165.061 C 313.839 162.992,304.628 157.088,299.228 149.367 C 297.202 146.470,293.088 138.849,293.088 137.992 C 293.088 137.868,293.034 137.712,292.968 137.646 C 292.902 137.580,292.755 137.272,292.640 136.961 C 289.267 127.799,288.515 123.691,289.942 122.219 C 290.905 121.225,292.306 120.945,299.563 120.290 C 301.343 120.129,303.193 119.936,303.675 119.862 L 304.549 119.726 303.500 119.730 C 302.922 119.732,301.426 119.838,300.175 119.965 M215.748 121.694 C 215.748 122.276,215.767 122.294,216.176 122.107 C 216.588 121.919,216.593 121.898,216.307 121.504 C 215.894 120.936,215.748 120.985,215.748 121.694 M26.086 122.403 C 26.078 122.599,26.339 123.859,26.666 125.203 C 27.262 127.658,27.904 130.397,28.441 132.777 C 28.600 133.481,28.773 134.015,28.825 133.963 C 28.877 133.911,28.825 133.492,28.708 133.032 C 28.592 132.572,28.427 131.881,28.342 131.496 C 27.179 126.249,26.105 121.920,26.086 122.403 M76.246 125.034 C 75.897 126.278,75.367 128.281,75.069 129.484 C 74.772 130.687,74.439 131.967,74.331 132.328 C 74.223 132.689,74.175 133.026,74.226 133.077 C 74.276 133.127,74.407 132.831,74.516 132.420 C 74.827 131.250,75.721 127.824,76.220 125.897 C 76.469 124.934,76.752 123.934,76.849 123.675 C 76.946 123.415,76.993 123.105,76.954 122.987 C 76.914 122.868,76.596 123.790,76.246 125.034 M151.915 132.850 C 151.569 134.201,150.508 138.612,150.126 140.289 C 150.033 140.698,149.867 141.389,149.757 141.825 C 149.648 142.261,149.600 142.659,149.650 142.710 C 149.735 142.794,150.171 141.089,151.444 135.696 C 151.694 134.637,152.021 133.273,152.170 132.666 C 152.319 132.058,152.406 131.525,152.363 131.482 C 152.320 131.439,152.118 132.055,151.915 132.850 M106.282 132.021 C 106.435 133.234,108.620 141.308,108.649 140.770 C 108.664 140.492,106.722 132.939,106.400 132.021 L 106.215 131.496 106.282 132.021 M73.960 133.575 C 73.895 133.747,73.846 134.018,73.852 134.179 C 73.859 134.372,73.920 134.328,74.032 134.048 C 74.125 133.816,74.174 133.544,74.140 133.445 C 74.107 133.345,74.026 133.404,73.960 133.575 M28.871 134.503 C 28.871 134.697,28.943 135.084,29.031 135.363 C 29.119 135.642,29.361 136.619,29.568 137.533 C 29.982 139.357,30.408 141.226,30.564 141.907 C 30.619 142.148,30.697 142.256,30.738 142.147 C 30.809 141.955,30.376 139.921,29.456 136.133 C 28.998 134.242,28.871 133.891,28.871 134.503 M73.605 134.913 C 73.538 135.151,73.163 136.605,72.773 138.145 C 72.383 139.685,71.839 141.732,71.565 142.695 C 70.748 145.564,69.815 149.258,69.828 149.574 C 69.844 149.960,70.133 148.976,71.129 145.144 C 71.579 143.412,72.019 141.759,72.108 141.470 C 72.632 139.764,73.852 134.855,73.795 134.684 C 73.758 134.571,73.672 134.675,73.605 134.913 M108.676 141.382 C 108.682 141.527,108.754 141.802,108.836 141.995 L 108.987 142.345 108.996 141.995 C 109.002 141.802,108.930 141.527,108.836 141.382 C 108.686 141.149,108.668 141.149,108.676 141.382 M30.810 142.674 C 30.803 142.856,30.874 143.289,30.969 143.637 C 31.064 143.985,31.423 145.490,31.767 146.982 C 34.959 160.824,35.291 161.948,36.559 163.216 C 37.091 163.748,38.425 164.314,39.095 164.293 C 39.294 164.286,39.103 164.171,38.670 164.036 C 35.855 163.160,35.536 162.415,32.726 150.131 C 31.462 144.609,30.832 142.157,30.810 142.674 M109.011 142.550 C 109.011 142.756,109.775 145.761,112.182 155.031 C 113.065 158.434,113.577 160.147,113.681 160.044 C 113.725 160.000,113.603 159.424,113.410 158.766 C 113.217 158.107,112.774 156.465,112.424 155.118 C 112.075 153.771,111.670 152.235,111.525 151.706 C 111.379 151.177,111.001 149.681,110.684 148.381 C 109.675 144.251,109.011 141.938,109.011 142.550 M148.650 146.406 C 144.603 163.358,144.639 163.271,141.470 164.051 C 140.895 164.192,140.749 164.272,141.045 164.285 C 143.857 164.406,145.088 162.367,146.896 154.593 C 147.142 153.535,147.417 152.393,147.507 152.056 C 147.686 151.387,148.449 148.205,149.179 145.089 C 149.434 144.001,149.605 143.072,149.559 143.027 C 149.514 142.981,149.104 144.502,148.650 146.406 M69.405 150.875 C 69.261 151.380,68.860 152.857,68.514 154.156 C 67.173 159.187,66.907 160.032,66.229 161.402 C 65.434 163.011,64.660 163.665,63.107 164.045 C 62.611 164.166,62.368 164.274,62.567 164.285 C 65.414 164.437,66.565 162.511,68.847 153.765 C 69.281 152.103,69.685 150.566,69.746 150.350 C 69.807 150.133,69.814 149.956,69.762 149.956 C 69.709 149.956,69.549 150.370,69.405 150.875 M113.741 160.389 C 113.696 161.949,116.516 164.580,117.889 164.259 C 118.068 164.217,117.904 164.128,117.498 164.047 C 116.022 163.753,115.169 163.034,114.347 161.391 C 114.017 160.732,113.745 160.281,113.741 160.389 M242.775 163.966 C 242.614 164.227,242.801 164.368,243.136 164.240 C 243.290 164.180,243.368 164.053,243.308 163.956 C 243.166 163.726,242.920 163.731,242.775 163.966 M40.770 164.486 C 42.238 164.651,59.372 164.650,60.980 164.485 C 61.654 164.416,57.126 164.359,50.919 164.359 C 44.711 164.358,40.144 164.415,40.770 164.486 M119.423 164.490 C 121.071 164.653,138.024 164.647,139.458 164.484 C 140.083 164.413,135.556 164.358,129.396 164.362 C 123.237 164.366,118.749 164.424,119.423 164.490 M184.427 164.487 C 185.654 164.656,199.364 164.655,200.875 164.486 C 201.500 164.415,197.839 164.357,192.738 164.356 C 187.638 164.355,183.898 164.414,184.427 164.487 M340.726 167.235 C 341.857 167.265,343.707 167.265,344.838 167.235 C 345.969 167.204,345.044 167.179,342.782 167.179 C 340.521 167.179,339.595 167.204,340.726 167.235 " stroke="none" fill="#747474" fill-rule="evenodd"></path></g></svg>